<svg width="222" height="222" viewBox="0 0 222 222" fill="none" xmlns="http://www.w3.org/2000/svg">
  <g clip-path="url(#clip0_2_17)">
    <path
      d="M27.9571 0.5H54.4615L53.1091 2.19523L52.4615 3.00704H53.5H81.25H81.4907L81.6409 2.81885L83.4907 0.5H111H221.5V6.9375V11.9062H219H218.5V12.4062V16.3438V16.8438H219H221.5V20.8125V27.75V55.5V111V166.5V194.043L194.043 221.5H171.309L172.791 219.277L173.309 218.5H172.375H154.625H154.357L154.209 218.723L152.357 221.5H138.75H111H83.25H71.085L73.8458 213.784L74.085 213.116H73.375H45.625H45.3096L45.1737 213.401L41.3096 221.5H27.75H0.5V164.559L4.22361 162.697L4.5 162.559V162.25V156.75V155.941L3.77639 156.303L0.5 157.941V111V55.5V27.9571L27.9571 0.5Z"
      fill="#0E1418" stroke="#8D96C3" />
    <path fill-rule="evenodd" clip-rule="evenodd"
      d="M222 132.905V193.905L220 195.905V171.405L218 172.905V148.905L220 147.905V146.905L218 147.905V145.905L220 144.905V143.905L218 144.905V142.905L220 141.905V140.905L218 141.905V139.905L220 138.905V137.905L218 138.905V134.905L222 132.905Z"
      fill="#8D96C3" />
    <path d="M44.5001 222L47.971 215H52.0001L48.8969 222H44.5001Z" fill="#8D96C3" />
    <path d="M50.5001 222L53.971 215H58.0001L54.8969 222H50.5001Z" fill="#8D96C3" />
    <path d="M56.5001 222L59.971 215H64.0001L60.8969 222H56.5001Z" fill="#8D96C3" />
    <path d="M62.5001 222L65.971 215H70.0001L66.8969 222H62.5001Z" fill="#8D96C3" />
    <path fill-rule="evenodd" clip-rule="evenodd"
      d="M221.625 0H160.625L158.625 4H163.625L164.625 2H165.625L164.625 4H166.625L167.625 2H168.625L167.625 4H169.625L170.625 2H171.625L170.625 4H199.625L200.125 3H221.625V0Z"
      fill="#8D96C3" />
    <path d="M0.624512 28L4.62451 24V85L2.62451 87L1.62451 157L0.624512 157.5V28Z" fill="#8D96C3" />
    <mask id="mask0_2_17" style="mask-type:alpha" maskUnits="userSpaceOnUse" x="0" y="24" width="5" height="134">
      <path d="M0.624512 28L4.62451 24V85L2.62451 87L1.62451 157L0.624512 157.5V28Z" fill="#8D96C3" />
    </mask>
    <g mask="url(#mask0_2_17)">
      <path d="M6.62451 28L2.62451 32V40.7812L1.62451 41.5781V44.375L2.62451 45.5V88" stroke="#0E1418"
        stroke-width="0.5" />
      <path d="M2.62451 80.5L6.12451 84" stroke="#0E1418" stroke-width="0.5" />
      <path d="M2.62451 77L6.12451 80.5" stroke="#0E1418" stroke-width="0.5" />
      <path d="M2.62451 74L6.12451 77.5" stroke="#0E1418" stroke-width="0.5" />
      <path d="M2.62451 71L6.12451 74.5" stroke="#0E1418" stroke-width="0.5" />
      <path d="M2.62451 68L6.12451 71.5" stroke="#0E1418" stroke-width="0.5" />
      <path d="M2.62451 65L6.12451 68.5" stroke="#0E1418" stroke-width="0.5" />
    </g>
  </g>
  <defs>
    <clipPath id="clip0_2_17">
      <rect width="222" height="222" fill="white" />
    </clipPath>
  </defs>
</svg>