<svg width="223" height="223" viewBox="0 0 223 223" fill="none" xmlns="http://www.w3.org/2000/svg">
  <g clip-path="url(#clip0_1_2)">
    <path d="M222 198.191L198.192 222H180.2" stroke="#1136F1" />
    <path
      d="M193.438 0.5H221.5V92.125V115.156V126.672V131.93H219.999H219.499V132.43V143.945V144.445H219.999H221.5V149.703V161.219V184.043L194.043 211.5H126.688H126.386L126.245 211.766L121.105 221.5H97.125H0.5V151.72L4.3 148.87L4.5 148.72V148.47V141.908V140.908L3.7 141.508L0.5 143.908V114.875V90.8775L4.3 88.0275L4.5 87.8775V87.6275V61.065V60.065L3.7 60.665L0.5 63.065V27.9571L27.9571 0.5H56.3125H80.5938H92.5323L96.5276 4.35961L96.6729 4.5H96.875H165.016H165.218L165.363 4.35961L169.358 0.5H193.438Z"
      fill="#0E1418" stroke="#1136F1" />
    <path d="M125.095 222L128.566 215H132.595L129.492 222H125.095Z" fill="#1136F1" />
    <path d="M131.095 222L134.566 215H138.595L135.492 222H131.095Z" fill="#1136F1" />
    <path d="M137.095 222L140.566 215H144.595L141.492 222H137.095Z" fill="#1136F1" />
    <path d="M143.095 222L146.566 215H150.595L147.492 222H143.095Z" fill="#1136F1" />
    <path d="M149.102 222L152.572 215H156.602L153.498 222H149.102Z" fill="#1136F1" />
    <path d="M155.102 222L158.572 215H162.602L159.498 222H155.102Z" fill="#1136F1" />
    <path d="M161.102 222L164.572 215H168.602L165.498 222H161.102Z" fill="#1136F1" />
    <path d="M165.859 4H150.719L154.859 0H170L165.859 4Z" fill="#1136F1" />
    <path d="M157.831 4H136.69L139.219 1.55725H160.359L157.831 4Z" fill="#1136F1" />
  </g>
  <defs>
    <clipPath id="clip0_1_2">
      <rect width="223" height="223" fill="white" />
    </clipPath>
  </defs>
</svg>