<svg width="307" height="76" viewBox="0 0 307 76" fill="none" xmlns="http://www.w3.org/2000/svg">
  <path d="M1 1V48.5L23.5 71H298" stroke="#8D96C4" stroke-width="0.8" stroke-linecap="round" stroke-linejoin="round" />
  <path d="M33.5 61H108" stroke="#8D96C3" stroke-width="0.8" stroke-linecap="round" stroke-linejoin="round" />
  <circle cx="4" cy="4" r="4" transform="matrix(-1 0 0 1 306 67)" stroke="#8D96C4" stroke-width="0.8"
    stroke-linecap="round" stroke-linejoin="round" />
  <path
    d="M114 61C114 61.5523 113.552 62 113 62C112.448 62 112 61.5523 112 61C112 60.4477 112.448 60 113 60C113.552 60 114 60.4477 114 61Z"
    fill="#1136F1" />
  <path
    d="M120 61C120 61.5523 119.552 62 119 62C118.448 62 118 61.5523 118 61C118 60.4477 118.448 60 119 60C119.552 60 120 60.4477 120 61Z"
    fill="#1136F1" />
  <path
    d="M126 61C126 61.5523 125.552 62 125 62C124.448 62 124 61.5523 124 61C124 60.4477 124.448 60 125 60C125.552 60 126 60.4477 126 61Z"
    fill="#1136F1" />
  <path
    d="M132 61C132 61.5523 131.552 62 131 62C130.448 62 130 61.5523 130 61C130 60.4477 130.448 60 131 60C131.552 60 132 60.4477 132 61Z"
    fill="#1136F1" />
  <path
    d="M138 61C138 61.5523 137.552 62 137 62C136.448 62 136 61.5523 136 61C136 60.4477 136.448 60 137 60C137.552 60 138 60.4477 138 61Z"
    fill="#1136F1" />
  <path
    d="M144 61C144 61.5523 143.552 62 143 62C142.448 62 142 61.5523 142 61C142 60.4477 142.448 60 143 60C143.552 60 144 60.4477 144 61Z"
    fill="#1136F1" />
  <path
    d="M150 61C150 61.5523 149.552 62 149 62C148.448 62 148 61.5523 148 61C148 60.4477 148.448 60 149 60C149.552 60 150 60.4477 150 61Z"
    fill="#1136F1" />
  <path
    d="M156 61C156 61.5523 155.552 62 155 62C154.448 62 154 61.5523 154 61C154 60.4477 154.448 60 155 60C155.552 60 156 60.4477 156 61Z"
    fill="#1136F1" />
  <path
    d="M162 61C162 61.5523 161.552 62 161 62C160.448 62 160 61.5523 160 61C160 60.4477 160.448 60 161 60C161.552 60 162 60.4477 162 61Z"
    fill="#1136F1" />
  <path
    d="M168 61C168 61.5523 167.552 62 167 62C166.448 62 166 61.5523 166 61C166 60.4477 166.448 60 167 60C167.552 60 168 60.4477 168 61Z"
    fill="#1136F1" />
  <path
    d="M174 61C174 61.5523 173.552 62 173 62C172.448 62 172 61.5523 172 61C172 60.4477 172.448 60 173 60C173.552 60 174 60.4477 174 61Z"
    fill="#1136F1" />
</svg>