<svg width="335" height="55" viewBox="0 0 335 55" fill="none" xmlns="http://www.w3.org/2000/svg">
  <path
    d="M4.572 25.264C5.436 25.264 6.192 25.504 6.84 25.984C7.536 26.488 7.932 27.156 8.028 27.988H7.572C7.476 27.292 7.132 26.732 6.54 26.308C5.972 25.908 5.316 25.708 4.572 25.708C3.46 25.708 2.572 26.104 1.908 26.896C1.3 27.648 0.996 28.604 0.996 29.764C0.996 30.916 1.3 31.856 1.908 32.584C2.532 33.344 3.384 33.724 4.464 33.724C5.232 33.724 5.908 33.512 6.492 33.088C7.124 32.6 7.524 31.936 7.692 31.096H8.148C7.956 32.08 7.508 32.852 6.804 33.412C6.148 33.916 5.368 34.168 4.464 34.168C3.248 34.168 2.276 33.732 1.548 32.86C0.868 32.052 0.528 31.02 0.528 29.764C0.528 28.5 0.872 27.452 1.56 26.62C2.288 25.716 3.292 25.264 4.572 25.264ZM12.0919 27.628C12.9959 27.628 13.7159 27.968 14.2519 28.648C14.7399 29.256 14.9839 30.008 14.9839 30.904C14.9839 31.776 14.7399 32.528 14.2519 33.16C13.7159 33.832 12.9959 34.168 12.0919 34.168C11.1799 34.168 10.4599 33.832 9.93188 33.16C9.44388 32.544 9.19988 31.792 9.19988 30.904C9.19988 29.992 9.44388 29.24 9.93188 28.648C10.4599 27.968 11.1799 27.628 12.0919 27.628ZM12.0919 28.048C11.3239 28.048 10.7199 28.34 10.2799 28.924C9.87188 29.452 9.66788 30.112 9.66788 30.904C9.66788 31.688 9.87188 32.344 10.2799 32.872C10.7279 33.456 11.3319 33.748 12.0919 33.748C12.8359 33.748 13.4399 33.456 13.9039 32.872C14.3119 32.344 14.5159 31.688 14.5159 30.904C14.5159 30.112 14.3119 29.452 13.9039 28.924C13.4479 28.34 12.8439 28.048 12.0919 28.048ZM19.0316 27.628C19.9036 27.628 20.5916 27.964 21.0956 28.636C21.5516 29.236 21.7796 29.992 21.7796 30.904C21.7796 31.808 21.5556 32.564 21.1076 33.172C20.6116 33.836 19.9236 34.168 19.0436 34.168C17.9476 34.168 17.1836 33.624 16.7516 32.536V36.376H16.2836V27.796H16.7276V29.248C17.1996 28.168 17.9676 27.628 19.0316 27.628ZM19.0076 28.048C18.2716 28.048 17.7036 28.332 17.3036 28.9C16.9276 29.396 16.7396 30.052 16.7396 30.868V31.012C16.7396 31.804 16.9316 32.452 17.3156 32.956C17.7236 33.484 18.2836 33.748 18.9956 33.748C19.7476 33.748 20.3276 33.472 20.7356 32.92C21.1116 32.4 21.2996 31.728 21.2996 30.904C21.2996 30.088 21.1116 29.424 20.7356 28.912C20.3276 28.336 19.7516 28.048 19.0076 28.048ZM22.3725 27.796H22.8885L25.0725 33.268L27.2325 27.796H27.7605L24.3165 36.376H23.8005L24.8325 33.844L22.3725 27.796ZM31.0603 27.628C31.4683 27.628 31.7883 27.668 32.0203 27.748V28.24C31.6843 28.144 31.3563 28.096 31.0363 28.096C30.4043 28.096 29.9043 28.388 29.5363 28.972C29.2163 29.468 29.0563 30.052 29.0563 30.724V34H28.5883V27.796H29.0563V29.092C29.2083 28.692 29.4483 28.36 29.7763 28.096C30.1523 27.784 30.5803 27.628 31.0603 27.628ZM33.4899 25.684C33.6179 25.684 33.7299 25.732 33.8259 25.828C33.9219 25.908 33.9699 26.02 33.9699 26.164C33.9699 26.292 33.9219 26.404 33.8259 26.5C33.7299 26.596 33.6179 26.644 33.4899 26.644C33.3539 26.644 33.2419 26.596 33.1539 26.5C33.0579 26.404 33.0099 26.292 33.0099 26.164C33.0099 26.02 33.0579 25.908 33.1539 25.828C33.2419 25.732 33.3539 25.684 33.4899 25.684ZM33.2619 27.796H33.7179V34H33.2619V27.796ZM38.2104 27.628C39.3384 27.628 40.1304 28.164 40.5864 29.236V27.796H41.0544V33.52C41.0544 35.536 40.1464 36.544 38.3304 36.544C37.5304 36.544 36.9144 36.364 36.4824 36.004C36.0664 35.66 35.8104 35.168 35.7144 34.528H36.1704C36.2664 35.032 36.4744 35.416 36.7944 35.68C37.1624 35.976 37.6744 36.124 38.3304 36.124C39.8344 36.124 40.5864 35.268 40.5864 33.556V32.26C40.1304 33.324 39.3384 33.856 38.2104 33.856C37.3384 33.856 36.6424 33.54 36.1224 32.908C35.6584 32.324 35.4264 31.604 35.4264 30.748C35.4264 29.876 35.6584 29.156 36.1224 28.588C36.6344 27.948 37.3304 27.628 38.2104 27.628ZM38.2464 28.048C37.4944 28.048 36.9104 28.32 36.4944 28.864C36.0944 29.344 35.8944 29.972 35.8944 30.748C35.8944 31.484 36.0864 32.104 36.4704 32.608C36.8944 33.16 37.4864 33.436 38.2464 33.436C38.9744 33.436 39.5584 33.168 39.9984 32.632C40.3904 32.12 40.5864 31.492 40.5864 30.748C40.5864 29.996 40.3904 29.368 39.9984 28.864C39.5744 28.32 38.9904 28.048 38.2464 28.048ZM42.5922 25.264H43.0602V29.044C43.2762 28.604 43.5722 28.256 43.9482 28C44.3002 27.752 44.7082 27.628 45.1722 27.628C45.8602 27.628 46.4082 27.832 46.8162 28.24C47.2242 28.656 47.4282 29.244 47.4282 30.004V34H46.9722V30.04C46.9722 29.408 46.8002 28.912 46.4562 28.552C46.1202 28.216 45.6642 28.048 45.0882 28.048C44.5362 28.048 44.0642 28.272 43.6722 28.72C43.2642 29.176 43.0602 29.728 43.0602 30.376V34H42.5922V25.264ZM50.2989 25.792V27.796H52.0149V28.216H50.2989V32.692C50.2989 33.028 50.3549 33.256 50.4669 33.376C50.5629 33.512 50.7709 33.58 51.0909 33.58H51.8709V34H51.0549C50.5909 34 50.2669 33.884 50.0829 33.652C49.9229 33.444 49.8429 33.124 49.8429 32.692V28.216H48.4389V27.796H49.8429V25.996L50.2989 25.792ZM61.1675 25.264C62.3995 25.264 63.4515 25.696 64.3235 26.56C65.1875 27.424 65.6195 28.476 65.6195 29.716C65.6195 30.94 65.1875 31.992 64.3235 32.872C63.4515 33.736 62.3995 34.168 61.1675 34.168C59.9275 34.168 58.8755 33.736 58.0115 32.872C57.1475 31.992 56.7155 30.94 56.7155 29.716C56.7155 28.476 57.1475 27.424 58.0115 26.56C58.8755 25.696 59.9275 25.264 61.1675 25.264ZM61.1675 25.624C60.0315 25.624 59.0675 26.024 58.2755 26.824C57.4755 27.616 57.0755 28.58 57.0755 29.716C57.0755 30.844 57.4755 31.808 58.2755 32.608C59.0755 33.408 60.0395 33.808 61.1675 33.808C62.2795 33.808 63.2435 33.408 64.0595 32.608C64.8595 31.792 65.2595 30.828 65.2595 29.716C65.2595 28.588 64.8595 27.624 64.0595 26.824C63.2595 26.024 62.2955 25.624 61.1675 25.624ZM61.2875 26.956C61.8395 26.956 62.3115 27.1 62.7035 27.388C63.1195 27.708 63.3675 28.132 63.4475 28.66H63.0155C62.9435 28.252 62.7475 27.936 62.4275 27.712C62.1155 27.48 61.7355 27.364 61.2875 27.364C60.6315 27.364 60.1155 27.592 59.7395 28.048C59.3715 28.496 59.1875 29.064 59.1875 29.752C59.1875 30.424 59.3715 30.98 59.7395 31.42C60.0995 31.852 60.5955 32.068 61.2275 32.068C61.6835 32.068 62.0835 31.936 62.4275 31.672C62.7715 31.4 62.9915 31.028 63.0875 30.556H63.5195C63.3995 31.164 63.1195 31.648 62.6795 32.008C62.2715 32.32 61.7875 32.476 61.2275 32.476C60.4595 32.476 59.8475 32.204 59.3915 31.66C58.9675 31.156 58.7555 30.52 58.7555 29.752C58.7555 28.968 58.9715 28.32 59.4035 27.808C59.8515 27.24 60.4795 26.956 61.2875 26.956ZM71.5087 26.608H75.3727C75.5647 26.208 75.7367 25.776 75.8887 25.312C74.5847 25.4 73.2247 25.444 71.8087 25.444L71.6887 25.084C75.1127 25.076 77.8927 24.836 80.0287 24.364L80.2207 24.724C79.0607 24.98 77.7487 25.168 76.2847 25.288C76.1327 25.76 75.9647 26.2 75.7807 26.608H80.4847V26.992H75.6007C75.4167 27.352 75.1927 27.74 74.9287 28.156H81.1807V28.528H74.6767C74.3407 28.976 74.0127 29.38 73.6927 29.74H79.8607V35.152H79.4647V34.552H73.6567V35.152H73.2487V30.208C72.5127 30.944 71.6887 31.62 70.7767 32.236L70.5487 31.864C72.0447 30.856 73.2607 29.744 74.1967 28.528H70.8607V28.156H74.4727C74.7047 27.812 74.9407 27.424 75.1807 26.992H71.5087V26.608ZM73.6567 31.6V32.68H79.4647V31.6H73.6567ZM79.4647 31.252V30.1H73.6567V31.252H79.4647ZM73.6567 33.028V34.192H79.4647V33.028H73.6567ZM91.2847 24.856V31.288H90.8767V25.252H85.0447V31.3H84.6247V24.856H91.2847ZM87.6607 26.26H88.0807V28.528C88.0567 30.296 87.6487 31.716 86.8567 32.788C86.0647 33.78 84.7807 34.564 83.0047 35.14L82.7647 34.78C84.5327 34.236 85.8167 33.464 86.6167 32.464C87.2967 31.456 87.6447 30.144 87.6607 28.528V26.26ZM89.3167 34.924C88.7247 34.924 88.4287 34.596 88.4287 33.94V30.448H88.8367V33.868C88.8367 34.3 89.0367 34.516 89.4367 34.516H91.5487C91.8287 34.516 92.0447 34.46 92.1967 34.348C92.4367 34.132 92.5807 33.504 92.6287 32.464L93.0247 32.596C92.9527 33.66 92.7887 34.34 92.5327 34.636C92.3407 34.812 92.0487 34.908 91.6567 34.924H89.3167ZM101.605 29.644C101.709 28.38 101.793 27.244 101.857 26.236L102.217 26.272C102.153 27.32 102.073 28.316 101.977 29.26H103.177C103.337 28.324 103.425 27.284 103.441 26.14V25.264H101.425V24.88H104.989V25.264H103.813V26.14C103.797 27.284 103.709 28.324 103.549 29.26H105.061V29.644H103.489C103.017 31.988 102.077 33.804 100.669 35.092L100.357 34.828C101.733 33.596 102.649 31.868 103.105 29.644H101.605ZM96.5047 35.176H96.1207V28.348C95.7527 29.804 95.2447 31.096 94.5967 32.224L94.4287 31.804C95.2447 30.412 95.8087 28.832 96.1207 27.064V27.016H94.6927V26.62H96.1207V24.256H96.5047V26.62H97.5607V27.016H96.5047V28.156C96.9767 28.788 97.4567 29.528 97.9447 30.376L97.7287 30.7C97.2727 29.86 96.8647 29.172 96.5047 28.636V35.176ZM98.6167 27.748V29.896H100.393V27.748H98.6167ZM100.393 27.364V25.228H98.6167V27.364H100.393ZM100.237 30.964C100.789 31.932 101.217 32.776 101.521 33.496L101.209 33.724C101.073 33.404 100.941 33.108 100.813 32.836C100.029 33.388 99.1367 33.896 98.1367 34.36L98.0407 34.024C98.1607 33.952 98.2207 33.836 98.2207 33.676V24.856H100.765V30.268H98.6167V33.736C99.3207 33.416 100.001 33.008 100.657 32.512C100.473 32.128 100.229 31.676 99.9247 31.156L100.237 30.964ZM104.209 34.972C103.713 34.972 103.465 34.768 103.465 34.36V30.784H103.837V34.324C103.837 34.516 103.957 34.612 104.197 34.612H104.617C104.833 34.612 104.965 34.5 105.013 34.276C105.069 33.908 105.097 33.352 105.097 32.608L105.421 32.74C105.421 33.724 105.369 34.348 105.265 34.612C105.169 34.836 104.957 34.956 104.629 34.972H104.209ZM111.397 26.164C111.997 26.564 112.485 26.96 112.861 27.352L112.585 27.628C112.217 27.236 111.733 26.836 111.133 26.428L111.397 26.164ZM112.153 24.4C113.345 25.592 115.029 26.568 117.205 27.328L116.977 27.652C114.905 26.932 113.237 25.976 111.973 24.784C110.589 25.992 108.929 26.968 106.993 27.712L106.753 27.376C108.785 26.608 110.465 25.616 111.793 24.4H112.153ZM110.665 34.948C110.033 34.948 109.717 34.632 109.717 34V31.684H110.137V33.916C110.137 34.34 110.353 34.552 110.785 34.552H113.269C113.685 34.552 113.981 34.484 114.157 34.348C114.389 34.156 114.541 33.62 114.613 32.74L114.985 32.86C114.913 33.812 114.733 34.416 114.445 34.672C114.221 34.856 113.853 34.948 113.341 34.948H110.665ZM108.901 31.228C108.469 32.532 107.849 33.652 107.041 34.588L106.693 34.36C107.493 33.44 108.097 32.368 108.505 31.144L108.901 31.228ZM112.189 31.324C112.589 31.852 112.937 32.416 113.233 33.016L112.849 33.196C112.545 32.548 112.197 31.964 111.805 31.444L112.189 31.324ZM115.069 30.94C115.973 32.036 116.669 33.004 117.157 33.844L116.809 34.084C116.289 33.164 115.601 32.184 114.745 31.144L115.069 30.94ZM108.853 28.12H115.129V28.48C114.305 29.672 112.809 30.552 110.641 31.12L110.485 30.772C112.437 30.292 113.825 29.536 114.649 28.504H108.853V28.12ZM129.013 24.076C128.541 24.836 128.165 25.668 127.885 26.572C127.541 27.612 127.369 28.648 127.369 29.68C127.369 30.696 127.541 31.732 127.885 32.788C128.173 33.708 128.549 34.54 129.013 35.284H128.545C128.065 34.5 127.685 33.672 127.405 32.8C127.077 31.76 126.913 30.72 126.913 29.68C126.913 28.64 127.077 27.604 127.405 26.572C127.685 25.684 128.065 24.852 128.545 24.076H129.013ZM135.193 24.244H135.625V28.132H140.065V28.528H135.625V34.168H141.265V34.576H130.705V34.168H135.193V24.244ZM147.025 25.744C146.577 26.496 146.077 27.14 145.525 27.676L145.249 27.364C146.137 26.508 146.825 25.456 147.313 24.208L147.709 24.304C147.565 24.672 147.409 25.02 147.241 25.348H153.085V25.744H147.025ZM145.057 29.932H146.449C146.545 28.996 146.605 28.044 146.629 27.076H152.401C152.369 28.14 152.333 29.092 152.293 29.932H153.433V30.328H152.281C152.233 31.44 152.185 32.312 152.137 32.944H153.241V33.328H152.101C152.053 33.712 152.017 33.952 151.993 34.048C151.873 34.416 151.641 34.7 151.297 34.9C150.953 35.052 150.469 35.128 149.845 35.128H148.945L148.825 34.732C149.305 34.748 149.629 34.756 149.797 34.756C150.189 34.756 150.541 34.72 150.853 34.648C151.181 34.552 151.421 34.336 151.573 34C151.605 33.928 151.645 33.704 151.693 33.328H145.957C146.133 32.456 146.285 31.456 146.413 30.328H145.057V29.932ZM146.797 30.328C146.701 31.256 146.573 32.128 146.413 32.944H151.729C151.793 32.088 151.845 31.216 151.885 30.328H146.797ZM151.909 29.932L151.993 27.46H146.989C146.949 28.412 146.897 29.236 146.833 29.932H151.909ZM148.741 27.952C149.365 28.384 149.881 28.816 150.289 29.248L150.025 29.524C149.641 29.116 149.125 28.68 148.477 28.216L148.741 27.952ZM148.669 30.856C149.261 31.304 149.765 31.768 150.181 32.248L149.905 32.524C149.529 32.076 149.025 31.604 148.393 31.108L148.669 30.856ZM143.149 24.568C143.877 25.024 144.517 25.508 145.069 26.02L144.781 26.308C144.293 25.844 143.653 25.36 142.861 24.856L143.149 24.568ZM142.981 27.496C143.765 28.016 144.397 28.512 144.877 28.984L144.589 29.284C144.117 28.812 143.485 28.308 142.693 27.772L142.981 27.496ZM144.925 30.988C144.397 32.444 143.817 33.772 143.185 34.972L142.801 34.816C143.505 33.464 144.097 32.144 144.577 30.856L144.925 30.988ZM155.401 24.076C155.865 24.852 156.245 25.684 156.541 26.572C156.869 27.644 157.033 28.68 157.033 29.68C157.033 30.68 156.869 31.72 156.541 32.8C156.245 33.672 155.865 34.5 155.401 35.284H154.933C155.389 34.54 155.765 33.708 156.061 32.788C156.405 31.692 156.577 30.656 156.577 29.68C156.577 28.688 156.405 27.652 156.061 26.572C155.773 25.668 155.397 24.836 154.933 24.076H155.401ZM168.109 25.672C167.829 26.168 167.501 26.596 167.125 26.956L166.873 26.656C167.489 26.072 167.973 25.256 168.325 24.208L168.709 24.292C168.605 24.612 168.469 24.944 168.301 25.288H171.997V25.672H170.041C170.017 26.272 169.965 26.792 169.885 27.232H172.321V27.628H169.801C169.761 27.788 169.705 27.98 169.633 28.204C170.585 28.7 171.381 29.196 172.021 29.692L171.721 29.98C171.129 29.5 170.385 29.012 169.489 28.516C169.033 29.444 168.169 30.204 166.897 30.796L166.633 30.448C167.873 29.896 168.713 29.172 169.153 28.276C169.209 28.132 169.285 27.916 169.381 27.628H166.705V27.232H169.477C169.565 26.776 169.617 26.256 169.633 25.672H168.109ZM173.029 25.108H176.593V29.272H173.029V25.108ZM176.185 28.876V25.492H173.425V28.876H176.185ZM175.753 30.436V35.164H175.333V34.504H168.937V35.164H168.529V30.436H175.753ZM168.937 34.12H175.333V32.692H168.937V34.12ZM168.937 32.32H175.333V30.832H168.937V32.32ZM179.833 30.916V32.416H183.181V30.916H179.833ZM183.181 30.532V29.02H179.833V30.532H183.181ZM179.833 32.8V35.164H179.437V28.648H183.589V34.336C183.589 34.832 183.333 35.08 182.821 35.08H181.753L181.645 34.684L182.677 34.696C183.013 34.696 183.181 34.552 183.181 34.264V32.8H179.833ZM185.905 29.296C185.305 29.296 185.005 29 185.005 28.408V24.208H185.413V26.068C186.885 25.828 188.069 25.588 188.965 25.348L189.109 25.72C188.117 25.984 186.885 26.232 185.413 26.464V28.324C185.413 28.716 185.617 28.912 186.025 28.912H187.825C188.137 28.912 188.353 28.852 188.473 28.732C188.625 28.54 188.733 28.028 188.797 27.196L189.181 27.328C189.109 28.232 188.969 28.8 188.761 29.032C188.585 29.208 188.301 29.296 187.909 29.296H185.905ZM185.461 33.976C185.461 34.376 185.645 34.576 186.013 34.576H187.789C188.101 34.576 188.321 34.512 188.449 34.384C188.609 34.192 188.717 33.668 188.773 32.812L189.157 32.932C189.101 33.86 188.961 34.448 188.737 34.696C188.561 34.872 188.273 34.96 187.873 34.96H185.893C185.341 34.96 185.065 34.66 185.065 34.06V29.908H185.461V31.624C186.757 31.504 187.925 31.28 188.965 30.952L189.109 31.336C187.965 31.68 186.749 31.904 185.461 32.008V33.976ZM182.629 25.12C183.397 26.128 183.985 27.004 184.393 27.748L184.057 27.988C183.921 27.724 183.757 27.44 183.565 27.136C182.229 27.344 180.645 27.496 178.813 27.592L178.705 27.232C178.753 27.216 178.817 27.176 178.897 27.112C179.665 26.44 180.365 25.496 180.997 24.28L181.393 24.4C180.745 25.656 180.053 26.592 179.317 27.208C180.597 27.144 181.945 27.012 183.361 26.812C183.041 26.324 182.689 25.828 182.305 25.324L182.629 25.12ZM201.373 30.916L201.433 31.324L200.077 31.552V35.104H199.657V31.624L195.709 32.272L195.661 31.864L199.657 31.204V24.304H200.077V31.132L201.373 30.916ZM196.453 24.94C197.413 25.62 198.201 26.292 198.817 26.956L198.541 27.244C197.933 26.588 197.145 25.912 196.177 25.216L196.453 24.94ZM196.093 27.7C197.053 28.404 197.857 29.112 198.505 29.824L198.205 30.1C197.605 29.428 196.805 28.724 195.805 27.988L196.093 27.7ZM190.789 27.652H192.889V25.408C192.201 25.528 191.533 25.62 190.885 25.684L190.801 25.3C192.361 25.148 193.745 24.888 194.953 24.52L195.097 24.904C194.553 25.072 193.957 25.216 193.309 25.336V27.652H195.157V28.048H193.309V28.804C194.037 29.412 194.785 30.124 195.553 30.94L195.325 31.276C194.533 30.396 193.861 29.712 193.309 29.224V35.116H192.889V28.852C192.385 30.22 191.649 31.436 190.681 32.5L190.501 32.068C191.637 30.884 192.421 29.544 192.853 28.048H190.789V27.652ZM202.849 35.008L202.765 34.612C203.093 34.636 203.401 34.648 203.689 34.648C204.089 34.648 204.289 34.44 204.289 34.024V30.628C203.729 30.868 203.153 31.084 202.561 31.276L202.465 30.868C203.073 30.692 203.681 30.48 204.289 30.232V27.016H202.681V26.62H204.289V24.268H204.697V26.62H206.125V27.016H204.697V30.052C205.241 29.796 205.733 29.54 206.173 29.284V29.68C205.733 29.936 205.241 30.192 204.697 30.448V34.12C204.697 34.712 204.409 35.008 203.833 35.008H202.849ZM206.701 26.152H209.713V24.28H210.121V26.152H213.145V26.548H210.121V28.9H212.653V29.284C212.181 30.692 211.409 31.896 210.337 32.896C211.201 33.64 212.257 34.276 213.505 34.804L213.289 35.14C212.001 34.572 210.925 33.908 210.061 33.148C209.077 33.988 207.877 34.66 206.461 35.164L206.257 34.804C207.649 34.324 208.821 33.684 209.773 32.884C208.677 31.86 207.941 30.668 207.565 29.308H206.917V28.9H209.713V26.548H206.701V26.152ZM207.961 29.308C208.321 30.572 209.017 31.684 210.049 32.644C211.057 31.7 211.785 30.588 212.233 29.308H207.961ZM217.933 28.312V30.016H223.165V28.312H217.933ZM223.165 30.412H217.933V32.08H223.165V30.412ZM223.165 32.464H217.933V35.116H217.537V28.324C216.753 29.372 215.841 30.312 214.801 31.144L214.549 30.808C216.229 29.472 217.501 27.92 218.365 26.152H214.861V25.756H218.545C218.761 25.26 218.957 24.74 219.133 24.196L219.553 24.244C219.377 24.812 219.193 25.316 219.001 25.756H225.229V26.152H218.821C218.525 26.792 218.189 27.388 217.813 27.94H223.561V34.408C223.561 34.864 223.301 35.1 222.781 35.116H221.437L221.329 34.732C221.969 34.748 222.409 34.756 222.649 34.756C222.993 34.756 223.165 34.6 223.165 34.288V32.464ZM227.173 24.868H230.521V25.204C230.129 26.388 229.673 27.584 229.153 28.792C229.961 29.784 230.389 30.736 230.437 31.648C230.421 32.096 230.285 32.42 230.029 32.62C229.709 32.86 229.141 32.988 228.325 33.004L228.193 32.572C228.305 32.588 228.377 32.596 228.409 32.596C229.041 32.564 229.469 32.484 229.693 32.356C229.917 32.204 230.029 31.968 230.029 31.648C230.029 30.824 229.593 29.892 228.721 28.852C229.305 27.54 229.761 26.344 230.089 25.264H227.581V35.152H227.173V24.868ZM231.733 27.508V29.284H235.861V27.508H231.733ZM235.861 27.124V25.3H231.733V27.124H235.861ZM231.733 29.668V34.372C232.589 34.132 233.433 33.808 234.265 33.4L234.361 33.808C233.569 34.176 232.521 34.544 231.217 34.912L231.133 34.564C231.261 34.516 231.325 34.452 231.325 34.372V24.892H236.269V29.668H233.917C234.085 30.54 234.385 31.332 234.817 32.044C235.513 31.708 236.173 31.168 236.797 30.424L237.073 30.7C236.473 31.444 235.789 31.996 235.021 32.356C235.637 33.276 236.461 34.048 237.493 34.672L237.265 35.032C235.217 33.76 233.973 31.972 233.533 29.668H231.733ZM242.641 24.532C241.689 27.076 240.445 29.004 238.909 30.316L238.597 30.04C240.197 28.656 241.421 26.772 242.269 24.388L242.641 24.532ZM245.713 30.724C246.633 32.06 247.425 33.46 248.089 34.924L247.705 35.104C247.521 34.672 247.297 34.2 247.033 33.688C244.929 34.04 242.617 34.3 240.097 34.468L240.013 34.108C241.165 33.268 242.405 31.364 243.733 28.396L244.141 28.528C242.989 31.08 241.849 32.92 240.721 34.048C242.977 33.888 245.017 33.648 246.841 33.328C246.361 32.416 245.857 31.588 245.329 30.844L245.713 30.724ZM245.533 24.316C246.269 26.652 247.549 28.552 249.373 30.016L249.097 30.34C247.233 28.836 245.929 26.892 245.185 24.508L245.533 24.316ZM251.917 29.488H256.873V32.848H251.917V29.488ZM256.477 32.464V29.884H252.325V32.464H256.477ZM257.461 35.068L257.353 34.672L259.009 34.684C259.497 34.684 259.741 34.404 259.741 33.844V25.324H251.389V24.916H260.149V33.952C260.149 34.696 259.797 35.068 259.093 35.068H257.461ZM251.137 27.256H258.181V27.652H251.137V27.256ZM269.665 25.264C270.417 25.264 271.037 25.48 271.525 25.912C272.013 26.352 272.257 26.932 272.257 27.652C272.257 28.404 271.973 29.076 271.405 29.668C271.149 29.94 270.557 30.396 269.629 31.036C268.277 31.956 267.541 32.796 267.421 33.556H272.269V34H266.869C266.869 33.32 267.153 32.672 267.721 32.056C268.081 31.648 268.657 31.168 269.449 30.616C270.281 30.016 270.801 29.612 271.009 29.404C271.529 28.86 271.789 28.276 271.789 27.652C271.789 27.052 271.589 26.576 271.189 26.224C270.813 25.872 270.305 25.696 269.665 25.696C268.993 25.696 268.465 25.912 268.081 26.344C267.649 26.8 267.433 27.452 267.433 28.3H266.977C266.977 27.332 267.233 26.58 267.745 26.044C268.217 25.524 268.857 25.264 269.665 25.264ZM276.764 25.264C277.812 25.264 278.576 25.756 279.056 26.74C279.424 27.5 279.608 28.492 279.608 29.716C279.608 30.924 279.424 31.916 279.056 32.692C278.576 33.676 277.812 34.168 276.764 34.168C275.716 34.168 274.952 33.676 274.472 32.692C274.104 31.956 273.92 30.964 273.92 29.716C273.92 28.468 274.104 27.476 274.472 26.74C274.952 25.756 275.716 25.264 276.764 25.264ZM276.764 25.696C275.884 25.696 275.244 26.14 274.844 27.028C274.54 27.668 274.388 28.564 274.388 29.716C274.388 30.852 274.54 31.748 274.844 32.404C275.244 33.292 275.884 33.736 276.764 33.736C277.636 33.736 278.276 33.292 278.684 32.404C278.996 31.732 279.152 30.836 279.152 29.716C279.152 28.596 278.996 27.7 278.684 27.028C278.276 26.14 277.636 25.696 276.764 25.696ZM284.055 25.264C284.807 25.264 285.427 25.48 285.915 25.912C286.403 26.352 286.647 26.932 286.647 27.652C286.647 28.404 286.363 29.076 285.795 29.668C285.539 29.94 284.947 30.396 284.019 31.036C282.667 31.956 281.931 32.796 281.811 33.556H286.659V34H281.259C281.259 33.32 281.543 32.672 282.111 32.056C282.471 31.648 283.047 31.168 283.839 30.616C284.671 30.016 285.191 29.612 285.399 29.404C285.919 28.86 286.179 28.276 286.179 27.652C286.179 27.052 285.979 26.576 285.579 26.224C285.203 25.872 284.695 25.696 284.055 25.696C283.383 25.696 282.855 25.912 282.471 26.344C282.039 26.8 281.823 27.452 281.823 28.3H281.367C281.367 27.332 281.623 26.58 282.135 26.044C282.607 25.524 283.247 25.264 284.055 25.264ZM291.239 25.264C292.007 25.264 292.627 25.472 293.099 25.888C293.571 26.312 293.807 26.86 293.807 27.532C293.807 28.548 293.347 29.212 292.427 29.524C292.915 29.684 293.295 29.94 293.567 30.292C293.847 30.66 293.987 31.092 293.987 31.588C293.987 32.348 293.723 32.968 293.195 33.448C292.667 33.928 291.991 34.168 291.167 34.168C290.463 34.168 289.863 33.98 289.367 33.604C288.743 33.124 288.395 32.404 288.323 31.444H288.791C288.839 32.252 289.127 32.86 289.655 33.268C290.087 33.588 290.591 33.748 291.167 33.748C291.871 33.748 292.439 33.544 292.871 33.136C293.303 32.728 293.519 32.216 293.519 31.6C293.519 31.04 293.323 30.588 292.931 30.244C292.555 29.9 292.043 29.728 291.395 29.728H290.579V29.32H291.299C291.963 29.32 292.467 29.164 292.811 28.852C293.163 28.548 293.339 28.116 293.339 27.556C293.339 27.012 293.155 26.568 292.787 26.224C292.411 25.872 291.895 25.696 291.239 25.696C290.583 25.696 290.067 25.884 289.691 26.26C289.307 26.62 289.071 27.132 288.983 27.796H288.527C288.615 27.012 288.899 26.392 289.379 25.936C289.835 25.488 290.455 25.264 291.239 25.264ZM300.138 24.544C300.93 25.104 301.606 25.688 302.166 26.296L301.89 26.584C301.378 26.032 300.698 25.444 299.85 24.82L300.138 24.544ZM299.79 27.436C300.606 28.004 301.294 28.58 301.854 29.164L301.566 29.452C301.006 28.868 300.318 28.288 299.502 27.712L299.79 27.436ZM301.818 30.664C301.33 32.168 300.758 33.624 300.102 35.032L299.718 34.864C300.382 33.456 300.962 32.008 301.458 30.52L301.818 30.664ZM306.246 24.232C306.486 24.76 306.698 25.304 306.882 25.864H309.75V29.392H303.882C303.858 31.616 303.282 33.528 302.154 35.128L301.854 34.852C302.902 33.444 303.438 31.62 303.462 29.38V25.864H306.474C306.282 25.288 306.07 24.768 305.838 24.304L306.246 24.232ZM309.342 26.272H303.882V28.984H309.342V26.272ZM311.79 25.432H312.258V34H311.79V25.432ZM317.861 25.264C318.725 25.264 319.481 25.504 320.129 25.984C320.825 26.488 321.221 27.156 321.317 27.988H320.861C320.765 27.292 320.421 26.732 319.829 26.308C319.261 25.908 318.605 25.708 317.861 25.708C316.749 25.708 315.861 26.104 315.197 26.896C314.589 27.648 314.285 28.604 314.285 29.764C314.285 30.916 314.589 31.856 315.197 32.584C315.821 33.344 316.673 33.724 317.753 33.724C318.521 33.724 319.197 33.512 319.781 33.088C320.413 32.6 320.813 31.936 320.981 31.096H321.437C321.245 32.08 320.797 32.852 320.093 33.412C319.437 33.916 318.657 34.168 317.753 34.168C316.537 34.168 315.565 33.732 314.837 32.86C314.157 32.052 313.817 31.02 313.817 29.764C313.817 28.5 314.161 27.452 314.849 26.62C315.577 25.716 316.581 25.264 317.861 25.264ZM322.849 25.432H326.305C328.137 25.432 329.053 26.228 329.053 27.82C329.053 29.428 328.133 30.232 326.293 30.232H323.317V34H322.849V25.432ZM323.317 25.864V29.8H326.281C327.057 29.8 327.641 29.628 328.033 29.284C328.401 28.956 328.585 28.468 328.585 27.82C328.585 27.172 328.401 26.688 328.033 26.368C327.649 26.032 327.065 25.864 326.281 25.864H323.317ZM9.6 47.112V52.14H9.192V51.492H2.832V52.14H2.424V47.112H9.6ZM2.832 51.108H5.796V49.488H2.832V51.108ZM6.204 51.108H9.192V49.488H6.204V51.108ZM2.832 49.128H5.796V47.496H2.832V49.128ZM6.204 47.496V49.128H9.192V47.496H6.204ZM5.052 41.208C4.772 41.632 4.528 41.976 4.32 42.24H9.456V42.564C8.632 43.58 7.624 44.428 6.432 45.108C7.8 45.756 9.456 46.212 11.4 46.476L11.208 46.86C9.184 46.564 7.46 46.052 6.036 45.324C4.572 46.076 2.812 46.624 0.756 46.968L0.564 46.62C2.524 46.316 4.216 45.812 5.64 45.108C4.712 44.58 3.936 43.976 3.312 43.296C2.752 43.808 2.132 44.272 1.452 44.688L1.188 44.364C2.676 43.476 3.824 42.392 4.632 41.112L5.052 41.208ZM3.552 43.068C4.208 43.788 5.032 44.4 6.024 44.904C7.192 44.264 8.172 43.5 8.964 42.612H3.996C3.9 42.716 3.752 42.868 3.552 43.068ZM15.696 42.264C16.448 42.264 17.068 42.48 17.556 42.912C18.044 43.352 18.288 43.932 18.288 44.652C18.288 45.404 18.004 46.076 17.436 46.668C17.18 46.94 16.588 47.396 15.66 48.036C14.308 48.956 13.572 49.796 13.452 50.556H18.3V51H12.9C12.9 50.32 13.184 49.672 13.752 49.056C14.112 48.648 14.688 48.168 15.48 47.616C16.312 47.016 16.832 46.612 17.04 46.404C17.56 45.86 17.82 45.276 17.82 44.652C17.82 44.052 17.62 43.576 17.22 43.224C16.844 42.872 16.336 42.696 15.696 42.696C15.024 42.696 14.496 42.912 14.112 43.344C13.68 43.8 13.464 44.452 13.464 45.3H13.008C13.008 44.332 13.264 43.58 13.776 43.044C14.248 42.524 14.888 42.264 15.696 42.264ZM22.7953 42.264C23.8433 42.264 24.6073 42.756 25.0873 43.74C25.4553 44.5 25.6393 45.492 25.6393 46.716C25.6393 47.924 25.4553 48.916 25.0873 49.692C24.6073 50.676 23.8433 51.168 22.7953 51.168C21.7473 51.168 20.9833 50.676 20.5033 49.692C20.1353 48.956 19.9513 47.964 19.9513 46.716C19.9513 45.468 20.1353 44.476 20.5033 43.74C20.9833 42.756 21.7473 42.264 22.7953 42.264ZM22.7953 42.696C21.9153 42.696 21.2753 43.14 20.8753 44.028C20.5713 44.668 20.4193 45.564 20.4193 46.716C20.4193 47.852 20.5713 48.748 20.8753 49.404C21.2753 50.292 21.9153 50.736 22.7953 50.736C23.6673 50.736 24.3073 50.292 24.7153 49.404C25.0273 48.732 25.1833 47.836 25.1833 46.716C25.1833 45.596 25.0273 44.7 24.7153 44.028C24.3073 43.14 23.6673 42.696 22.7953 42.696ZM30.0866 42.264C30.8386 42.264 31.4586 42.48 31.9466 42.912C32.4346 43.352 32.6786 43.932 32.6786 44.652C32.6786 45.404 32.3946 46.076 31.8266 46.668C31.5706 46.94 30.9786 47.396 30.0506 48.036C28.6986 48.956 27.9626 49.796 27.8426 50.556H32.6906V51H27.2906C27.2906 50.32 27.5746 49.672 28.1426 49.056C28.5026 48.648 29.0786 48.168 29.8706 47.616C30.7026 47.016 31.2226 46.612 31.4306 46.404C31.9506 45.86 32.2106 45.276 32.2106 44.652C32.2106 44.052 32.0106 43.576 31.6106 43.224C31.2346 42.872 30.7266 42.696 30.0866 42.696C29.4146 42.696 28.8866 42.912 28.5026 43.344C28.0706 43.8 27.8546 44.452 27.8546 45.3H27.3986C27.3986 44.332 27.6546 43.58 28.1666 43.044C28.6386 42.524 29.2786 42.264 30.0866 42.264ZM37.2699 42.264C38.0379 42.264 38.6579 42.472 39.1299 42.888C39.6019 43.312 39.8379 43.86 39.8379 44.532C39.8379 45.548 39.3779 46.212 38.4579 46.524C38.9459 46.684 39.3259 46.94 39.5979 47.292C39.8779 47.66 40.0179 48.092 40.0179 48.588C40.0179 49.348 39.7539 49.968 39.2259 50.448C38.6979 50.928 38.0219 51.168 37.1979 51.168C36.4939 51.168 35.8939 50.98 35.3979 50.604C34.7739 50.124 34.4259 49.404 34.3539 48.444H34.8219C34.8699 49.252 35.1579 49.86 35.6859 50.268C36.1179 50.588 36.6219 50.748 37.1979 50.748C37.9019 50.748 38.4699 50.544 38.9019 50.136C39.3339 49.728 39.5499 49.216 39.5499 48.6C39.5499 48.04 39.3539 47.588 38.9619 47.244C38.5859 46.9 38.0739 46.728 37.4259 46.728H36.6099V46.32H37.3299C37.9939 46.32 38.4979 46.164 38.8419 45.852C39.1939 45.548 39.3699 45.116 39.3699 44.556C39.3699 44.012 39.1859 43.568 38.8179 43.224C38.4419 42.872 37.9259 42.696 37.2699 42.696C36.6139 42.696 36.0979 42.884 35.7219 43.26C35.3379 43.62 35.1019 44.132 35.0139 44.796H34.5579C34.6459 44.012 34.9299 43.392 35.4099 42.936C35.8659 42.488 36.4859 42.264 37.2699 42.264ZM44.3813 42.264C45.4293 42.264 46.1933 42.756 46.6733 43.74C47.0413 44.5 47.2253 45.492 47.2253 46.716C47.2253 47.924 47.0413 48.916 46.6733 49.692C46.1933 50.676 45.4293 51.168 44.3813 51.168C43.3333 51.168 42.5693 50.676 42.0893 49.692C41.7213 48.956 41.5373 47.964 41.5373 46.716C41.5373 45.468 41.7213 44.476 42.0893 43.74C42.5693 42.756 43.3333 42.264 44.3813 42.264ZM44.3813 42.696C43.5013 42.696 42.8613 43.14 42.4613 44.028C42.1573 44.668 42.0053 45.564 42.0053 46.716C42.0053 47.852 42.1573 48.748 42.4613 49.404C42.8613 50.292 43.5013 50.736 44.3813 50.736C45.2533 50.736 45.8933 50.292 46.3013 49.404C46.6133 48.732 46.7693 47.836 46.7693 46.716C46.7693 45.596 46.6133 44.7 46.3013 44.028C45.8933 43.14 45.2533 42.696 44.3813 42.696ZM51.5766 42.264C52.6246 42.264 53.3886 42.756 53.8686 43.74C54.2366 44.5 54.4206 45.492 54.4206 46.716C54.4206 47.924 54.2366 48.916 53.8686 49.692C53.3886 50.676 52.6246 51.168 51.5766 51.168C50.5286 51.168 49.7646 50.676 49.2846 49.692C48.9166 48.956 48.7326 47.964 48.7326 46.716C48.7326 45.468 48.9166 44.476 49.2846 43.74C49.7646 42.756 50.5286 42.264 51.5766 42.264ZM51.5766 42.696C50.6966 42.696 50.0566 43.14 49.6566 44.028C49.3526 44.668 49.2006 45.564 49.2006 46.716C49.2006 47.852 49.3526 48.748 49.6566 49.404C50.0566 50.292 50.6966 50.736 51.5766 50.736C52.4486 50.736 53.0886 50.292 53.4966 49.404C53.8086 48.732 53.9646 47.836 53.9646 46.716C53.9646 45.596 53.8086 44.7 53.4966 44.028C53.0886 43.14 52.4486 42.696 51.5766 42.696ZM59.2399 42.432V51H58.7719V43.032C58.1959 43.696 57.4959 44.144 56.6719 44.376V43.884C57.0639 43.772 57.4559 43.588 57.8479 43.332C58.2079 43.092 58.5319 42.792 58.8199 42.432H59.2399ZM66.0512 42.264C66.8192 42.264 67.4392 42.472 67.9112 42.888C68.3832 43.312 68.6192 43.86 68.6192 44.532C68.6192 45.548 68.1592 46.212 67.2392 46.524C67.7272 46.684 68.1072 46.94 68.3792 47.292C68.6592 47.66 68.7992 48.092 68.7992 48.588C68.7992 49.348 68.5352 49.968 68.0072 50.448C67.4792 50.928 66.8032 51.168 65.9792 51.168C65.2752 51.168 64.6752 50.98 64.1792 50.604C63.5552 50.124 63.2072 49.404 63.1352 48.444H63.6032C63.6512 49.252 63.9392 49.86 64.4672 50.268C64.8992 50.588 65.4032 50.748 65.9792 50.748C66.6832 50.748 67.2512 50.544 67.6832 50.136C68.1152 49.728 68.3312 49.216 68.3312 48.6C68.3312 48.04 68.1352 47.588 67.7432 47.244C67.3672 46.9 66.8552 46.728 66.2072 46.728H65.3912V46.32H66.1112C66.7752 46.32 67.2792 46.164 67.6232 45.852C67.9752 45.548 68.1512 45.116 68.1512 44.556C68.1512 44.012 67.9672 43.568 67.5992 43.224C67.2232 42.872 66.7072 42.696 66.0512 42.696C65.3952 42.696 64.8792 42.884 64.5032 43.26C64.1192 43.62 63.8832 44.132 63.7952 44.796H63.3392C63.4272 44.012 63.7112 43.392 64.1912 42.936C64.6472 42.488 65.2672 42.264 66.0512 42.264ZM73.2465 42.264C74.0145 42.264 74.6345 42.472 75.1065 42.888C75.5785 43.312 75.8145 43.86 75.8145 44.532C75.8145 45.548 75.3545 46.212 74.4345 46.524C74.9225 46.684 75.3025 46.94 75.5745 47.292C75.8545 47.66 75.9945 48.092 75.9945 48.588C75.9945 49.348 75.7305 49.968 75.2025 50.448C74.6745 50.928 73.9985 51.168 73.1745 51.168C72.4705 51.168 71.8705 50.98 71.3745 50.604C70.7505 50.124 70.4025 49.404 70.3305 48.444H70.7985C70.8465 49.252 71.1345 49.86 71.6625 50.268C72.0945 50.588 72.5985 50.748 73.1745 50.748C73.8785 50.748 74.4465 50.544 74.8785 50.136C75.3105 49.728 75.5265 49.216 75.5265 48.6C75.5265 48.04 75.3305 47.588 74.9385 47.244C74.5625 46.9 74.0505 46.728 73.4025 46.728H72.5865V46.32H73.3065C73.9705 46.32 74.4745 46.164 74.8185 45.852C75.1705 45.548 75.3465 45.116 75.3465 44.556C75.3465 44.012 75.1625 43.568 74.7945 43.224C74.4185 42.872 73.9025 42.696 73.2465 42.696C72.5905 42.696 72.0745 42.884 71.6985 43.26C71.3145 43.62 71.0785 44.132 70.9905 44.796H70.5345C70.6225 44.012 70.9065 43.392 71.3865 42.936C71.8425 42.488 72.4625 42.264 73.2465 42.264ZM80.2498 42.264C81.2738 42.264 82.0378 42.66 82.5418 43.452C82.9818 44.172 83.2018 45.192 83.2018 46.512C83.2018 47.808 82.9578 48.896 82.4698 49.776C81.9258 50.704 81.1818 51.168 80.2378 51.168C78.7578 51.168 77.8978 50.424 77.6578 48.936H78.1258C78.3418 50.136 79.0498 50.736 80.2498 50.736C81.0178 50.736 81.6338 50.336 82.0978 49.536C82.5298 48.776 82.7458 47.808 82.7458 46.632L82.7338 46.08H82.7098C82.5178 46.632 82.2018 47.08 81.7618 47.424C81.2818 47.768 80.7618 47.94 80.2018 47.94C79.3858 47.94 78.7378 47.68 78.2578 47.16C77.7698 46.648 77.5258 45.984 77.5258 45.168C77.5258 44.336 77.7778 43.644 78.2818 43.092C78.7858 42.54 79.4418 42.264 80.2498 42.264ZM80.2618 42.684C79.5658 42.684 79.0178 42.92 78.6178 43.392C78.1938 43.84 77.9818 44.432 77.9818 45.168C77.9818 45.88 78.1898 46.448 78.6058 46.872C79.0138 47.304 79.5618 47.52 80.2498 47.52C80.8738 47.52 81.4178 47.292 81.8818 46.836C82.3378 46.364 82.5658 45.808 82.5658 45.168C82.5658 44.512 82.3698 43.944 81.9778 43.464C81.5538 42.944 80.9818 42.684 80.2618 42.684ZM86.6771 41.796H93.2291V44.7H86.6771V41.796ZM92.8211 44.316V42.18H87.0851V44.316H92.8211ZM87.5651 46.512H84.6611V46.116H95.2331V46.512H87.9851L87.4811 48.324H93.4451C93.3731 50.092 93.2051 51.156 92.9411 51.516C92.6771 51.852 92.1731 52.02 91.4291 52.02C90.8291 52.02 90.2931 52.008 89.8211 51.984L89.6651 51.6C90.3051 51.624 90.8611 51.636 91.3331 51.636C92.0371 51.636 92.4771 51.476 92.6531 51.156C92.8051 50.852 92.9291 50.036 93.0251 48.708H87.0011L87.5651 46.512ZM96.5531 47.676H102.613V48.108H96.5531V47.676ZM107.287 42.432V51H106.819V43.032C106.243 43.696 105.543 44.144 104.719 44.376V43.884C105.111 43.772 105.503 43.588 105.895 43.332C106.255 43.092 106.579 42.792 106.867 42.432H107.287Z"
    fill="white" />
  <path
    d="M6.204 4.972V13.612H5.592V12.832H1.644V13.612H1.032V4.972H3.288V3.172H3.924V4.972H6.204ZM1.644 12.232H3.288V9.112H1.644V12.232ZM3.924 12.232H5.592V9.112H3.924V12.232ZM1.644 8.512H3.288V5.572H1.644V8.512ZM3.924 5.572V8.512H5.592V5.572H3.924ZM7.332 3.952H11.016V4.432C10.656 5.704 10.26 6.892 9.84 7.984C10.656 9.196 11.076 10.18 11.088 10.936C11.088 11.524 10.944 11.932 10.656 12.16C10.356 12.4 9.744 12.52 8.82 12.52L8.64 11.872C8.88 11.896 9.072 11.908 9.24 11.908C9.768 11.884 10.104 11.812 10.248 11.692C10.404 11.548 10.488 11.296 10.488 10.936C10.476 10.192 10.044 9.208 9.18 7.984C9.588 7 9.972 5.86 10.344 4.54H7.956V14.176H7.332V3.952ZM12.876 7.9H14.904V6.544H15.54V7.9H17.256V8.524H15.54V9.004C16.14 9.58 16.764 10.252 17.388 10.996L17.028 11.548C16.44 10.72 15.948 10.072 15.54 9.592V14.188H14.904V9.424C14.388 10.624 13.656 11.692 12.708 12.628L12.432 11.932C13.56 10.924 14.352 9.784 14.82 8.524H12.876V7.9ZM22.584 7.012V14.176H21.948V13.588H18.684V14.176H18.048V7.012H22.584ZM18.684 12.988H21.948V11.488H18.684V12.988ZM18.684 10.912H21.948V9.556H18.684V10.912ZM18.684 8.98H21.948V7.612H18.684V8.98ZM14.28 4.792C13.98 5.296 13.632 5.764 13.236 6.196L12.672 5.824C13.44 5.032 14.004 4.12 14.364 3.112L15 3.244C14.88 3.58 14.736 3.892 14.592 4.204H17.916V4.792H15.792C16.176 5.284 16.476 5.74 16.704 6.172L16.104 6.4C15.816 5.836 15.468 5.296 15.072 4.792H14.28ZM19.416 4.792C19.14 5.344 18.828 5.86 18.48 6.316L17.928 5.956C18.6 5.104 19.092 4.132 19.416 3.052L20.028 3.184C19.92 3.544 19.8 3.88 19.668 4.204H23.388V4.792H20.94C21.324 5.272 21.624 5.704 21.852 6.1L21.264 6.328C20.976 5.8 20.628 5.284 20.22 4.792H19.416ZM27 5.824C27.168 5.824 27.324 5.884 27.444 6.004C27.552 6.112 27.612 6.256 27.612 6.436C27.612 6.604 27.552 6.748 27.444 6.868C27.324 6.988 27.168 7.048 27 7.048C26.82 7.048 26.676 6.988 26.556 6.868C26.436 6.748 26.388 6.604 26.388 6.436C26.388 6.256 26.436 6.112 26.556 6.004C26.676 5.884 26.82 5.824 27 5.824ZM27 10.216C27.168 10.216 27.324 10.276 27.444 10.396C27.552 10.504 27.612 10.648 27.612 10.828C27.612 10.996 27.552 11.14 27.444 11.26C27.324 11.38 27.168 11.44 27 11.44C26.82 11.44 26.676 11.38 26.556 11.26C26.436 11.14 26.388 10.996 26.388 10.828C26.388 10.648 26.436 10.504 26.556 10.396C26.676 10.276 26.82 10.216 27 10.216ZM38.748 4.432H39.348V13H38.604V5.344C38.052 5.944 37.368 6.364 36.552 6.604V5.86C36.948 5.74 37.344 5.56 37.728 5.32C38.112 5.068 38.46 4.768 38.748 4.432ZM44.4658 4.264C45.2338 4.264 45.8698 4.48 46.3738 4.936C46.8778 5.38 47.1298 5.968 47.1298 6.712C47.1298 7.456 46.8418 8.128 46.2778 8.728C46.0018 9.016 45.4138 9.472 44.5018 10.096C43.2778 10.924 42.6058 11.668 42.4738 12.328H47.1418V13H41.5738C41.5738 12.28 41.8498 11.596 42.4258 10.96C42.7738 10.564 43.3738 10.072 44.2258 9.484C44.9698 8.956 45.4498 8.572 45.6778 8.344C46.1458 7.84 46.3858 7.288 46.3858 6.7C46.3858 6.136 46.2058 5.692 45.8578 5.38C45.5098 5.068 45.0418 4.912 44.4538 4.912C43.8298 4.912 43.3378 5.116 42.9778 5.536C42.5938 5.956 42.4018 6.568 42.4018 7.36H41.6578C41.6578 6.4 41.9218 5.644 42.4498 5.092C42.9538 4.54 43.6258 4.264 44.4658 4.264ZM51.6371 4.264C52.4291 4.264 53.0771 4.468 53.5691 4.888C54.0491 5.308 54.2891 5.872 54.2891 6.568C54.2891 7.552 53.8211 8.2 52.8971 8.512C53.3891 8.668 53.7731 8.92 54.0491 9.268C54.3251 9.616 54.4691 10.036 54.4691 10.54C54.4691 11.308 54.1931 11.944 53.6651 12.436C53.1251 12.916 52.4291 13.168 51.5771 13.168C50.8091 13.168 50.1731 12.964 49.6691 12.568C49.0451 12.088 48.7091 11.356 48.6371 10.396H49.3811C49.4171 11.128 49.6691 11.68 50.1491 12.064C50.5331 12.376 51.0011 12.532 51.5651 12.532C52.2251 12.532 52.7531 12.34 53.1611 11.968C53.5451 11.596 53.7371 11.128 53.7371 10.564C53.7371 10.024 53.5451 9.604 53.1851 9.292C52.8251 8.98 52.3451 8.836 51.7331 8.836H50.9771V8.236H51.6611C52.2731 8.236 52.7411 8.092 53.0771 7.816C53.3891 7.528 53.5571 7.132 53.5571 6.604C53.5571 6.1 53.3891 5.692 53.0651 5.38C52.7171 5.068 52.2371 4.912 51.6371 4.912C51.0371 4.912 50.5571 5.08 50.2091 5.428C49.8491 5.764 49.6331 6.232 49.5611 6.856H48.8291C48.9011 6.052 49.2011 5.416 49.7171 4.948C50.2091 4.492 50.8451 4.264 51.6371 4.264ZM58.8564 4.264C59.6244 4.264 60.2604 4.48 60.7644 4.936C61.2684 5.38 61.5204 5.968 61.5204 6.712C61.5204 7.456 61.2324 8.128 60.6684 8.728C60.3924 9.016 59.8044 9.472 58.8924 10.096C57.6684 10.924 56.9964 11.668 56.8644 12.328H61.5324V13H55.9644C55.9644 12.28 56.2404 11.596 56.8164 10.96C57.1644 10.564 57.7644 10.072 58.6164 9.484C59.3604 8.956 59.8404 8.572 60.0684 8.344C60.5364 7.84 60.7764 7.288 60.7764 6.7C60.7764 6.136 60.5964 5.692 60.2484 5.38C59.9004 5.068 59.4324 4.912 58.8444 4.912C58.2204 4.912 57.7284 5.116 57.3684 5.536C56.9844 5.956 56.7924 6.568 56.7924 7.36H56.0484C56.0484 6.4 56.3124 5.644 56.8404 5.092C57.3444 4.54 58.0164 4.264 58.8564 4.264ZM67.5878 4.264C68.8118 4.264 69.7958 4.624 70.5278 5.368C71.2118 6.052 71.5598 6.928 71.5598 7.996C71.5598 8.86 71.2838 9.628 70.7558 10.312C70.2398 10.948 69.6878 11.272 69.0878 11.272C68.5958 11.272 68.3318 10.996 68.2958 10.444C67.8518 11.008 67.3238 11.296 66.7118 11.296C66.2198 11.296 65.8238 11.128 65.5358 10.804C65.2358 10.468 65.0918 10.048 65.0918 9.556C65.0918 8.62 65.3678 7.828 65.9318 7.18C66.4598 6.544 67.0718 6.232 67.7918 6.232C68.3918 6.232 68.7758 6.544 68.9678 7.18L69.1718 6.46H69.7718L68.9078 9.724C68.8118 10.012 68.7758 10.24 68.7758 10.408C68.7758 10.624 68.8958 10.732 69.1478 10.732C69.5438 10.732 69.9398 10.48 70.3358 10C70.7918 9.424 71.0198 8.764 71.0198 7.996C71.0198 7.084 70.7078 6.34 70.1078 5.74C69.4598 5.116 68.6078 4.804 67.5518 4.804C66.4238 4.804 65.4878 5.176 64.7438 5.932C63.9878 6.676 63.6158 7.624 63.6158 8.764C63.6158 9.988 63.9758 10.948 64.7078 11.644C65.4277 12.316 66.3638 12.652 67.5398 12.652C68.4278 12.652 69.2078 12.484 69.8798 12.148C70.4558 11.848 70.9238 11.452 71.2838 10.948H71.9438C71.5238 11.644 70.9358 12.184 70.1678 12.568C69.3878 12.964 68.5117 13.168 67.5398 13.168C66.1718 13.168 65.0678 12.76 64.2398 11.968C63.3998 11.152 62.9798 10.084 62.9798 8.74C62.9798 7.492 63.4118 6.436 64.2758 5.584C65.1518 4.696 66.2558 4.264 67.5878 4.264ZM67.8758 6.82C67.3238 6.82 66.8318 7.072 66.4118 7.588C65.9558 8.128 65.7398 8.788 65.7398 9.568C65.7398 9.928 65.8238 10.204 66.0038 10.408C66.1838 10.624 66.4358 10.744 66.7478 10.744C67.0958 10.744 67.4318 10.6 67.7678 10.312C68.0798 10.048 68.2838 9.748 68.3798 9.412L68.6558 8.368C68.7278 8.08 68.7758 7.9 68.7758 7.816C68.7758 7.576 68.6918 7.36 68.5478 7.168C68.3798 6.928 68.1518 6.82 67.8758 6.82ZM75.8742 6.628C76.8582 6.628 77.5902 7.084 78.0462 8.02V6.796H78.7302V15.376H78.0102V11.704C77.5542 12.676 76.8222 13.168 75.8382 13.168C74.9502 13.168 74.2542 12.832 73.7742 12.184C73.3182 11.584 73.0902 10.828 73.0902 9.916C73.0902 8.98 73.3182 8.224 73.7862 7.624C74.2902 6.952 74.9862 6.628 75.8742 6.628ZM75.9462 7.24C75.2382 7.24 74.6982 7.504 74.3262 8.044C73.9902 8.512 73.8342 9.136 73.8342 9.916C73.8342 10.696 74.0022 11.32 74.3502 11.788C74.7102 12.292 75.2502 12.556 75.9702 12.556C76.6062 12.556 77.1102 12.316 77.4822 11.836C77.8422 11.356 78.0342 10.744 78.0342 10V9.868C78.0342 9.112 77.8542 8.5 77.5182 8.032C77.1342 7.504 76.6182 7.24 75.9462 7.24ZM82.7883 6.628C83.7723 6.628 84.5043 7.084 84.9603 8.02V6.796H85.6443V15.376H84.9243V11.704C84.4683 12.676 83.7363 13.168 82.7523 13.168C81.8643 13.168 81.1683 12.832 80.6883 12.184C80.2323 11.584 80.0043 10.828 80.0043 9.916C80.0043 8.98 80.2323 8.224 80.7003 7.624C81.2043 6.952 81.9003 6.628 82.7883 6.628ZM82.8603 7.24C82.1523 7.24 81.6123 7.504 81.2403 8.044C80.9043 8.512 80.7483 9.136 80.7483 9.916C80.7483 10.696 80.9163 11.32 81.2643 11.788C81.6243 12.292 82.1643 12.556 82.8843 12.556C83.5203 12.556 84.0243 12.316 84.3963 11.836C84.7563 11.356 84.9483 10.744 84.9483 10V9.868C84.9483 9.112 84.7683 8.5 84.4323 8.032C84.0483 7.504 83.5323 7.24 82.8603 7.24ZM87.9503 11.8C88.1183 11.8 88.2623 11.86 88.3823 11.98C88.5023 12.1 88.5623 12.244 88.5623 12.412C88.5623 12.58 88.5023 12.736 88.3823 12.856C88.2623 12.964 88.1183 13.024 87.9503 13.024C87.7703 13.024 87.6263 12.964 87.5183 12.856C87.3983 12.736 87.3383 12.58 87.3383 12.412C87.3383 12.244 87.3983 12.1 87.5183 11.98C87.6263 11.86 87.7703 11.8 87.9503 11.8ZM92.8681 6.628C93.6121 6.628 94.2121 6.808 94.6801 7.168C95.1481 7.528 95.4361 8.08 95.5321 8.824H94.8121C94.7281 8.296 94.5241 7.912 94.1881 7.648C93.8521 7.384 93.4081 7.252 92.8681 7.252C92.2201 7.252 91.6921 7.504 91.3081 8.008C90.9241 8.488 90.7441 9.136 90.7441 9.94C90.7441 10.732 90.9241 11.368 91.2841 11.836C91.6441 12.304 92.1721 12.544 92.8561 12.544C94.0081 12.544 94.6681 11.956 94.8481 10.78H95.5561C95.4361 11.56 95.1361 12.16 94.6681 12.568C94.2121 12.964 93.6001 13.168 92.8561 13.168C91.9441 13.168 91.2241 12.856 90.7201 12.232C90.2401 11.656 90.0121 10.888 90.0121 9.94C90.0121 9.004 90.2521 8.224 90.7441 7.612C91.2601 6.952 91.9681 6.628 92.8681 6.628ZM99.4211 6.628C100.333 6.628 101.065 6.952 101.617 7.612C102.121 8.224 102.373 8.992 102.373 9.904C102.373 10.816 102.121 11.572 101.617 12.184C101.065 12.832 100.333 13.168 99.4211 13.168C98.5091 13.168 97.7771 12.832 97.2251 12.184C96.7211 11.572 96.4691 10.816 96.4691 9.904C96.4691 8.992 96.7211 8.224 97.2371 7.612C97.7771 6.952 98.5091 6.628 99.4211 6.628ZM99.4211 7.252C98.7131 7.252 98.1611 7.516 97.7531 8.068C97.3811 8.548 97.2011 9.16 97.2011 9.904C97.2011 10.636 97.3811 11.248 97.7531 11.728C98.1611 12.268 98.7131 12.544 99.4211 12.544C100.129 12.544 100.693 12.268 101.101 11.728C101.461 11.236 101.653 10.624 101.653 9.904C101.653 9.16 101.461 8.548 101.101 8.068C100.693 7.516 100.129 7.252 99.4211 7.252ZM106.167 6.628C107.151 6.628 107.799 7.048 108.111 7.9C108.327 7.48 108.603 7.168 108.939 6.952C109.251 6.736 109.635 6.628 110.067 6.628C110.715 6.628 111.243 6.832 111.627 7.24C111.999 7.648 112.191 8.212 112.191 8.944V13H111.471V9.04C111.471 8.452 111.351 8.008 111.111 7.72C110.847 7.408 110.427 7.252 109.875 7.252C109.419 7.252 109.047 7.42 108.747 7.768C108.435 8.104 108.291 8.524 108.291 9.052V13H107.559V9.04C107.559 7.84 107.043 7.252 106.011 7.252C105.543 7.252 105.159 7.432 104.847 7.816C104.523 8.188 104.367 8.644 104.367 9.184V13H103.647V6.796H104.367V7.732C104.811 6.988 105.411 6.628 106.167 6.628Z"
    fill="white" />
</svg>