<svg width="574" height="18" viewBox="0 0 574 18" fill="none" xmlns="http://www.w3.org/2000/svg">
  <path
    d="M142.342 4.764C143.242 4.764 144.022 5.004 144.67 5.508C145.342 6.012 145.726 6.684 145.834 7.524H145.126C145.018 6.864 144.694 6.348 144.154 5.976C143.638 5.616 143.026 5.436 142.33 5.436C141.274 5.436 140.458 5.808 139.858 6.552C139.294 7.248 139.018 8.148 139.018 9.252C139.018 10.356 139.294 11.256 139.846 11.928C140.422 12.636 141.226 12.996 142.258 12.996C142.99 12.996 143.614 12.792 144.142 12.408C144.706 11.976 145.078 11.364 145.246 10.572H145.954C145.774 11.556 145.33 12.336 144.61 12.9C143.95 13.404 143.17 13.668 142.27 13.668C140.986 13.668 139.99 13.224 139.27 12.348C138.61 11.544 138.286 10.512 138.286 9.252C138.286 7.992 138.622 6.948 139.294 6.12C140.026 5.208 141.046 4.764 142.342 4.764ZM149.933 7.128C150.845 7.128 151.577 7.452 152.129 8.112C152.633 8.724 152.885 9.492 152.885 10.404C152.885 11.316 152.633 12.072 152.129 12.684C151.577 13.332 150.845 13.668 149.933 13.668C149.021 13.668 148.289 13.332 147.737 12.684C147.233 12.072 146.981 11.316 146.981 10.404C146.981 9.492 147.233 8.724 147.749 8.112C148.289 7.452 149.021 7.128 149.933 7.128ZM149.933 7.752C149.225 7.752 148.673 8.016 148.265 8.568C147.893 9.048 147.713 9.66 147.713 10.404C147.713 11.136 147.893 11.748 148.265 12.228C148.673 12.768 149.225 13.044 149.933 13.044C150.641 13.044 151.205 12.768 151.613 12.228C151.973 11.736 152.165 11.124 152.165 10.404C152.165 9.66 151.973 9.048 151.613 8.568C151.205 8.016 150.641 7.752 149.933 7.752ZM157.026 7.128C157.902 7.128 158.598 7.452 159.114 8.124C159.57 8.724 159.798 9.48 159.798 10.416C159.798 11.328 159.57 12.084 159.126 12.684C158.622 13.332 157.938 13.668 157.05 13.668C156.054 13.668 155.334 13.176 154.878 12.204V15.876H154.158V7.296H154.842V8.52C155.298 7.584 156.018 7.128 157.026 7.128ZM156.942 7.74C156.27 7.74 155.742 8.004 155.37 8.532C155.022 9 154.854 9.612 154.854 10.368V10.5C154.854 11.244 155.034 11.856 155.406 12.336C155.778 12.816 156.282 13.056 156.918 13.056C157.626 13.056 158.166 12.792 158.55 12.288C158.886 11.82 159.054 11.196 159.054 10.416C159.054 9.636 158.886 9.012 158.562 8.544C158.178 8.004 157.638 7.74 156.942 7.74ZM160.377 7.296H161.169L163.197 12.468L165.201 7.296H165.993L162.573 15.876H161.793L162.837 13.344L160.377 7.296ZM169.407 7.128C169.767 7.128 170.067 7.164 170.307 7.26V7.992C169.983 7.896 169.671 7.86 169.359 7.86C168.807 7.86 168.351 8.1 168.015 8.604C167.679 9.06 167.523 9.6 167.523 10.224V13.5H166.803V7.296H167.523V8.484C167.691 8.1 167.919 7.788 168.207 7.56C168.543 7.272 168.951 7.128 169.407 7.128ZM171.847 5.064C172.015 5.064 172.159 5.124 172.279 5.244C172.399 5.34 172.459 5.484 172.459 5.664C172.459 5.832 172.387 5.976 172.267 6.096C172.147 6.204 172.015 6.264 171.847 6.264C171.667 6.264 171.523 6.204 171.415 6.096C171.295 5.976 171.235 5.832 171.235 5.664C171.235 5.484 171.295 5.34 171.415 5.244C171.523 5.124 171.667 5.064 171.847 5.064ZM171.487 7.296H172.207V13.5H171.487V7.296ZM176.636 7.128C177.656 7.128 178.4 7.596 178.856 8.544V7.296H179.576V13.044C179.576 15.036 178.64 16.044 176.792 16.044C175.976 16.044 175.352 15.864 174.908 15.516C174.488 15.18 174.224 14.688 174.116 14.028H174.836C174.92 14.484 175.112 14.832 175.412 15.06C175.724 15.312 176.18 15.444 176.792 15.444C178.16 15.444 178.856 14.664 178.856 13.128V11.94C178.4 12.876 177.656 13.356 176.636 13.356C175.772 13.356 175.076 13.044 174.56 12.432C174.08 11.856 173.84 11.136 173.84 10.248C173.84 9.372 174.08 8.64 174.56 8.064C175.076 7.44 175.772 7.128 176.636 7.128ZM176.72 7.74C176.036 7.74 175.508 7.98 175.124 8.484C174.752 8.94 174.572 9.528 174.572 10.248C174.572 10.944 174.74 11.52 175.088 11.976C175.46 12.48 176 12.732 176.708 12.732C177.392 12.732 177.932 12.492 178.316 12.012C178.676 11.556 178.856 10.968 178.856 10.248C178.856 9.528 178.676 8.94 178.316 8.484C177.932 7.98 177.392 7.74 176.72 7.74ZM181.088 4.764H181.82V8.424C182.036 8.004 182.324 7.68 182.684 7.452C183.032 7.236 183.428 7.128 183.86 7.128C184.568 7.128 185.12 7.332 185.516 7.752C185.912 8.172 186.116 8.772 186.116 9.54V13.5H185.396V9.636C185.396 9.036 185.24 8.568 184.94 8.232C184.628 7.908 184.208 7.752 183.656 7.752C183.14 7.752 182.708 7.956 182.348 8.376C181.988 8.784 181.82 9.3 181.82 9.912V13.5H181.088V4.764ZM189.127 5.292V7.296H190.747V7.92H189.127V12.12C189.127 12.384 189.175 12.588 189.271 12.708C189.367 12.816 189.547 12.876 189.811 12.876H190.591V13.5H189.715C189.235 13.5 188.887 13.368 188.683 13.128C188.491 12.912 188.407 12.576 188.407 12.12V7.92H187.087V7.296H188.407V5.592L189.127 5.292ZM199.886 4.764C201.11 4.764 202.166 5.196 203.042 6.06C203.906 6.924 204.338 7.98 204.338 9.216C204.338 10.44 203.906 11.496 203.042 12.372C202.166 13.236 201.11 13.668 199.886 13.668C198.65 13.668 197.594 13.236 196.73 12.372C195.866 11.496 195.434 10.44 195.434 9.216C195.434 7.98 195.866 6.924 196.73 6.06C197.594 5.196 198.65 4.764 199.886 4.764ZM199.886 5.232C198.782 5.232 197.834 5.616 197.066 6.396C196.286 7.164 195.902 8.112 195.902 9.216C195.902 10.32 196.286 11.256 197.066 12.036C197.834 12.804 198.782 13.2 199.886 13.2C200.99 13.2 201.926 12.804 202.706 12.036C203.474 11.256 203.87 10.32 203.87 9.216C203.87 8.112 203.474 7.164 202.706 6.396C201.926 5.616 200.99 5.232 199.886 5.232ZM199.994 6.456C200.582 6.456 201.074 6.6 201.47 6.888C201.89 7.2 202.142 7.644 202.238 8.22H201.602C201.53 7.836 201.338 7.548 201.05 7.344C200.75 7.128 200.402 7.032 199.994 7.032C199.37 7.032 198.89 7.236 198.554 7.668C198.218 8.064 198.062 8.592 198.062 9.24C198.062 9.888 198.23 10.404 198.566 10.8C198.902 11.196 199.358 11.4 199.958 11.4C200.39 11.4 200.75 11.28 201.062 11.04C201.374 10.8 201.578 10.464 201.674 10.008H202.31C202.178 10.656 201.89 11.16 201.458 11.508C201.05 11.82 200.546 11.976 199.958 11.976C199.142 11.976 198.506 11.7 198.05 11.148C197.63 10.644 197.426 10.008 197.426 9.24C197.426 8.46 197.63 7.812 198.062 7.308C198.53 6.732 199.178 6.456 199.994 6.456ZM210.18 6H214.02C214.188 5.64 214.332 5.292 214.464 4.932C213.252 5.004 211.932 5.052 210.516 5.052L210.336 4.5C213.744 4.488 216.552 4.248 218.736 3.792L219.048 4.332C217.908 4.584 216.588 4.764 215.076 4.884C214.956 5.268 214.812 5.64 214.656 6H219.252V6.576H214.392C214.224 6.912 214.032 7.236 213.84 7.548H219.936V8.136H213.444C213.192 8.472 212.928 8.808 212.64 9.144H218.676V14.688H218.064V14.136H212.448V14.688H211.824V9.984C211.152 10.608 210.408 11.208 209.58 11.772L209.232 11.208C210.624 10.26 211.776 9.24 212.664 8.136H209.544V7.548H213.108C213.324 7.224 213.528 6.9 213.72 6.576H210.18V6ZM212.448 11.172V12.084H218.064V11.172H212.448ZM218.064 10.656V9.696H212.448V10.656H218.064ZM212.448 12.6V13.584H218.064V12.6H212.448ZM230.088 4.272V10.8H229.44V4.908H223.872V10.812H223.212V4.272H230.088ZM226.236 5.808H226.884V8.064C226.86 9.852 226.44 11.28 225.636 12.348C224.856 13.332 223.572 14.112 221.784 14.676L221.424 14.124C223.2 13.584 224.46 12.828 225.204 11.868C225.864 10.896 226.212 9.624 226.236 8.064V5.808ZM230.376 14.448H228.036C227.352 14.448 227.016 14.052 227.016 13.284V9.948H227.664V13.164C227.664 13.608 227.844 13.836 228.216 13.836H230.208C230.448 13.836 230.64 13.776 230.784 13.668C230.988 13.476 231.108 12.888 231.156 11.892L231.78 12.096C231.684 13.212 231.528 13.896 231.3 14.148C231.084 14.34 230.772 14.436 230.376 14.448ZM240.24 9.24C240.36 7.92 240.444 6.756 240.504 5.736L241.032 5.796C240.96 6.888 240.876 7.836 240.804 8.64H241.812C241.968 7.704 242.052 6.708 242.064 5.64V4.872H240.12V4.272H243.732V4.872H242.628V5.64C242.616 6.72 242.544 7.716 242.4 8.64H243.828V9.24H242.292C241.824 11.556 240.888 13.356 239.496 14.64L239.016 14.22C239.376 13.896 239.712 13.536 240 13.152L239.832 13.272C239.712 12.984 239.592 12.696 239.46 12.408C238.728 12.936 237.84 13.428 236.796 13.896L236.652 13.356C236.796 13.272 236.868 13.152 236.868 12.984V4.26H239.556V9.852H237.456V12.984C238.056 12.696 238.644 12.336 239.22 11.916C239.028 11.508 238.812 11.1 238.572 10.692L239.028 10.404C239.556 11.316 239.964 12.108 240.252 12.792C240.912 11.808 241.392 10.62 241.692 9.24H240.24ZM235.332 8.412V14.7H234.732V8.364C234.396 9.612 233.94 10.752 233.388 11.76L233.124 11.088C233.88 9.816 234.42 8.352 234.732 6.708V6.624H233.388V6.012H234.732V3.732H235.332V6.012H236.304V6.624H235.332V7.704C235.788 8.328 236.244 9.012 236.7 9.768L236.364 10.272C235.968 9.504 235.62 8.892 235.332 8.412ZM237.456 7.32V9.288H238.98V7.32H237.456ZM238.98 6.756V4.824H237.456V6.756H238.98ZM243.324 14.496H242.952C242.376 14.496 242.088 14.256 242.088 13.788V10.272H242.652V13.716C242.652 13.872 242.748 13.956 242.952 13.968H243.288C243.504 13.956 243.624 13.836 243.66 13.596C243.696 13.308 243.72 12.804 243.72 12.084L244.2 12.276C244.2 13.272 244.14 13.896 244.02 14.136C243.912 14.352 243.684 14.472 243.324 14.496ZM250.2 5.604C250.776 5.988 251.268 6.384 251.652 6.78L251.22 7.212C250.86 6.828 250.392 6.432 249.792 6.012L250.2 5.604ZM250.404 3.732H250.98C252.12 4.944 253.788 5.94 255.972 6.732L255.6 7.272C253.56 6.528 251.916 5.532 250.692 4.308C249.336 5.556 247.704 6.564 245.808 7.332L245.436 6.792C247.452 6 249.108 4.98 250.404 3.732ZM252.012 14.472H249.312C248.688 14.472 248.376 14.148 248.376 13.524V11.184H249.036V13.392C249.036 13.704 249.192 13.872 249.504 13.872H251.892C252.3 13.872 252.588 13.8 252.756 13.68C252.972 13.512 253.128 13.032 253.2 12.228L253.8 12.42C253.704 13.38 253.512 13.968 253.212 14.196C252.972 14.376 252.564 14.472 252.012 14.472ZM247.104 10.536L247.728 10.668C247.344 11.988 246.78 13.116 246.06 14.064L245.508 13.716C246.228 12.78 246.768 11.712 247.104 10.536ZM250.968 10.812C251.34 11.34 251.664 11.892 251.952 12.48L251.352 12.756C251.052 12.084 250.728 11.508 250.368 11.004L250.968 10.812ZM253.944 10.392C254.796 11.496 255.456 12.456 255.912 13.272L255.372 13.656C254.904 12.768 254.256 11.796 253.44 10.716L253.944 10.392ZM247.476 7.548H253.824V8.088C253.056 9.24 251.604 10.092 249.444 10.656L249.204 10.104C251.028 9.696 252.312 9.036 253.068 8.124H247.476V7.548ZM267.072 3.576H267.732C267.252 4.356 266.868 5.184 266.592 6.072C266.244 7.128 266.076 8.16 266.076 9.18C266.076 10.188 266.244 11.232 266.592 12.288C266.868 13.164 267.252 13.992 267.732 14.784H267.072C266.568 14.016 266.172 13.188 265.884 12.312C265.536 11.256 265.368 10.212 265.368 9.18C265.368 8.148 265.536 7.104 265.884 6.06C266.172 5.172 266.568 4.344 267.072 3.576ZM273.792 3.72H274.464V7.512H278.904V8.136H274.464V13.512H280.02V14.148H269.4V13.512H273.792V3.72ZM285.816 5.352C285.384 6.072 284.892 6.72 284.316 7.272L283.896 6.768C284.748 5.952 285.42 4.908 285.924 3.648L286.56 3.804C286.428 4.128 286.284 4.44 286.14 4.74H291.828V5.352H285.816ZM283.752 9.324H285.084C285.18 8.4 285.24 7.464 285.264 6.504H291.204C291.168 7.56 291.132 8.508 291.096 9.324H292.176V9.936H291.072C291.024 10.932 290.988 11.724 290.952 12.3H291.984V12.888H290.904C290.856 13.236 290.82 13.464 290.796 13.56C290.676 13.944 290.448 14.22 290.112 14.412C289.788 14.568 289.308 14.652 288.66 14.652H287.676L287.484 14.064C287.88 14.076 288.24 14.088 288.564 14.088C288.924 14.088 289.248 14.052 289.536 13.992C289.824 13.896 290.04 13.704 290.184 13.392C290.208 13.32 290.244 13.152 290.28 12.888H284.556C284.748 11.928 284.904 10.944 285.024 9.936H283.752V9.324ZM285.636 9.936C285.54 10.8 285.42 11.58 285.276 12.3H290.328C290.376 11.712 290.412 10.92 290.46 9.936H285.636ZM290.484 9.324C290.508 8.652 290.544 7.896 290.568 7.08H285.84C285.804 7.872 285.756 8.628 285.696 9.324H290.484ZM287.52 7.428C288.132 7.836 288.648 8.244 289.056 8.652L288.636 9.072C288.252 8.688 287.736 8.268 287.1 7.824L287.52 7.428ZM287.424 10.272C288.024 10.716 288.516 11.16 288.924 11.616L288.504 12.036C288.132 11.604 287.628 11.148 287.004 10.668L287.424 10.272ZM281.988 3.972C282.732 4.464 283.356 4.956 283.86 5.448L283.392 5.904C282.936 5.436 282.312 4.944 281.532 4.428L281.988 3.972ZM281.796 6.9C282.54 7.404 283.164 7.908 283.668 8.412L283.212 8.88C282.744 8.4 282.12 7.884 281.34 7.344L281.796 6.9ZM283.236 10.368L283.8 10.596C283.272 11.988 282.696 13.284 282.048 14.508L281.436 14.244C282.132 12.972 282.732 11.688 283.236 10.368ZM293.652 3.576H294.312C294.804 4.344 295.2 5.172 295.5 6.06C295.836 7.104 296.016 8.148 296.016 9.18C296.016 10.212 295.836 11.256 295.5 12.312C295.2 13.188 294.804 14.016 294.312 14.784H293.652C294.132 13.992 294.504 13.164 294.792 12.288C295.128 11.232 295.308 10.188 295.308 9.18C295.308 8.16 295.128 7.128 294.792 6.072C294.504 5.184 294.132 4.356 293.652 3.576ZM306.876 5.256C306.588 5.736 306.264 6.132 305.904 6.468L305.496 5.988C306.096 5.436 306.588 4.656 306.948 3.648L307.548 3.78C307.428 4.092 307.308 4.392 307.176 4.68H310.74V5.256H308.868C308.844 5.748 308.796 6.204 308.724 6.612H311.064V7.212H308.592C308.544 7.368 308.508 7.512 308.46 7.656C309.396 8.136 310.176 8.628 310.812 9.108L310.344 9.576C309.816 9.12 309.12 8.64 308.256 8.136C307.788 9.012 306.936 9.744 305.7 10.32L305.268 9.792C306.516 9.24 307.356 8.532 307.764 7.668C307.824 7.512 307.884 7.356 307.932 7.212H305.4V6.612H308.088C308.172 6.18 308.22 5.736 308.232 5.256H306.876ZM311.664 4.56H315.444V8.844H311.664V4.56ZM314.796 8.256V5.148H312.3V8.256H314.796ZM314.592 9.84V14.7H313.932V14.1H307.776V14.7H307.128V9.84H314.592ZM307.776 13.512H313.932V12.288H307.776V13.512ZM307.776 11.712H313.932V10.44H307.776V11.712ZM318.732 10.512V11.808H321.72V10.512H318.732ZM321.72 9.936V8.616H318.732V9.936H321.72ZM318.732 12.372V14.688H318.096V8.028H322.356V13.704C322.356 14.304 322.044 14.604 321.444 14.604H320.46L320.304 13.992L321.24 14.028C321.552 14.028 321.72 13.872 321.72 13.572V12.372H318.732ZM326.64 8.904H324.648C324 8.904 323.676 8.568 323.676 7.896V3.744H324.312V5.424C325.704 5.208 326.82 4.98 327.66 4.74L327.876 5.328C326.844 5.592 325.656 5.82 324.312 6.024V7.764C324.312 8.124 324.48 8.304 324.84 8.304H326.52C326.784 8.304 326.964 8.244 327.084 8.124C327.228 7.944 327.312 7.452 327.36 6.648L327.972 6.852C327.9 7.812 327.756 8.4 327.54 8.628C327.348 8.808 327.048 8.904 326.64 8.904ZM324.312 11.58V13.488C324.312 13.764 324.468 13.908 324.804 13.908H326.568C326.856 13.908 327.048 13.836 327.168 13.716C327.312 13.548 327.408 13.068 327.456 12.276L328.056 12.468C327.984 13.416 327.828 14.004 327.612 14.232C327.42 14.4 327.12 14.484 326.688 14.484H324.612C323.988 14.484 323.676 14.196 323.676 13.62V9.408H324.312V10.992C325.572 10.86 326.688 10.644 327.66 10.344L327.876 10.944C326.772 11.256 325.584 11.472 324.312 11.58ZM321.468 4.572C322.212 5.556 322.788 6.42 323.184 7.164L322.656 7.536C322.512 7.272 322.368 6.996 322.2 6.72C320.916 6.924 319.356 7.08 317.532 7.176L317.352 6.612C317.472 6.576 317.568 6.516 317.652 6.444C318.408 5.712 319.056 4.812 319.608 3.744L320.232 3.924C319.632 5.076 318.972 5.964 318.276 6.576C319.416 6.528 320.628 6.408 321.9 6.24C321.612 5.808 321.3 5.352 320.964 4.896L321.468 4.572ZM340.092 10.296L340.2 10.944L338.904 11.16V14.64H338.256V11.268L334.416 11.892L334.32 11.244L338.256 10.596V3.768H338.904V10.488L340.092 10.296ZM335.292 4.392C336.204 5.04 336.96 5.676 337.56 6.324L337.116 6.78C336.552 6.168 335.796 5.52 334.848 4.836L335.292 4.392ZM334.932 7.164C335.856 7.836 336.624 8.508 337.248 9.18L336.78 9.636C336.204 9 335.436 8.328 334.476 7.608L334.932 7.164ZM329.484 7.032H331.5V5.052C330.9 5.148 330.264 5.22 329.616 5.292L329.484 4.68C331.056 4.536 332.436 4.272 333.636 3.912L333.864 4.524C333.336 4.68 332.76 4.812 332.16 4.932V7.032H333.9V7.668H332.16V8.328C332.856 8.904 333.576 9.564 334.308 10.308L333.948 10.848C333.24 10.044 332.64 9.408 332.16 8.952V14.64H331.5V8.736C331.02 9.996 330.336 11.124 329.448 12.132L329.16 11.436C330.24 10.332 330.996 9.072 331.44 7.668H329.484V7.032ZM342.576 14.532H341.58L341.448 13.932C341.76 13.956 342.06 13.968 342.348 13.968C342.708 13.968 342.888 13.776 342.888 13.392V10.284C342.372 10.5 341.844 10.692 341.304 10.86L341.136 10.224C341.736 10.056 342.324 9.864 342.888 9.648V6.636H341.364V6H342.888V3.744H343.536V6H344.868V6.636H343.536V9.372C344.004 9.156 344.46 8.916 344.916 8.652V9.288C344.46 9.552 344.004 9.78 343.536 9.996V13.548C343.536 14.196 343.212 14.532 342.576 14.532ZM345.372 5.544H348.312V3.756H348.96V5.544H351.9V6.156H348.96V8.304H351.42V8.892C350.964 10.272 350.244 11.436 349.236 12.396C350.052 13.068 351.06 13.644 352.26 14.148L351.924 14.676C350.676 14.124 349.632 13.5 348.792 12.78C347.832 13.572 346.656 14.22 345.288 14.7L344.976 14.148C346.308 13.692 347.424 13.104 348.336 12.372C347.292 11.364 346.596 10.224 346.236 8.928H345.588V8.304H348.312V6.156H345.372V5.544ZM346.848 8.928C347.184 10.08 347.832 11.1 348.768 11.988C349.68 11.124 350.352 10.104 350.784 8.928H346.848ZM356.772 7.92V9.408H361.764V7.92H356.772ZM361.764 9.996H356.772V11.46H361.764V9.996ZM361.764 12.048H356.772V14.652H356.16V8.136C355.44 9.06 354.6 9.912 353.64 10.68L353.232 10.14C354.816 8.88 356.04 7.416 356.88 5.76H353.544V5.136H357.18C357.396 4.656 357.576 4.164 357.732 3.66L358.392 3.732C358.248 4.224 358.08 4.692 357.9 5.136H363.972V5.76H357.624C357.348 6.312 357.048 6.84 356.724 7.344H362.388V13.824C362.388 14.352 362.076 14.616 361.476 14.628H360.132L359.976 14.04C360.444 14.052 360.876 14.064 361.272 14.064C361.596 14.064 361.764 13.92 361.764 13.632V12.048ZM365.784 4.272H369.324V4.788C368.94 5.916 368.496 7.068 367.992 8.268C368.772 9.288 369.192 10.248 369.252 11.136C369.24 11.616 369.108 11.964 368.856 12.18C368.52 12.444 367.932 12.588 367.092 12.6L366.888 11.928C367.02 11.952 367.14 11.964 367.236 11.964C367.776 11.94 368.136 11.868 368.316 11.748C368.508 11.628 368.604 11.424 368.604 11.136C368.604 10.308 368.172 9.384 367.32 8.364C367.896 7.08 368.34 5.916 368.652 4.884H366.432V14.676H365.784V4.272ZM370.632 7.092V8.652H374.448V7.092H370.632ZM374.448 6.504V4.908H370.632V6.504H374.448ZM372.216 9.252H370.632V13.632C371.424 13.416 372.192 13.116 372.96 12.744L373.116 13.368C372.276 13.752 371.208 14.112 369.912 14.46L369.768 13.896C369.912 13.848 369.984 13.776 369.984 13.656V4.284H375.096V9.252H372.816C372.972 10.044 373.236 10.764 373.608 11.412C374.256 11.088 374.868 10.584 375.444 9.888L375.864 10.308C375.3 11.004 374.652 11.532 373.92 11.892C374.496 12.732 375.276 13.428 376.236 14.004L375.876 14.568C373.86 13.296 372.648 11.52 372.216 9.252ZM380.796 3.852L381.408 4.092C380.484 6.612 379.272 8.544 377.784 9.864L377.28 9.42C378.828 8.052 380.004 6.192 380.796 3.852ZM384.576 10.212C385.548 11.52 386.388 12.912 387.108 14.388L386.508 14.664C386.316 14.256 386.124 13.872 385.932 13.512C383.796 13.848 381.384 14.1 378.72 14.268L378.6 13.644C379.644 12.948 380.856 11.004 382.248 7.8L382.884 8.004C381.804 10.476 380.736 12.336 379.656 13.596C381.816 13.452 383.796 13.236 385.62 12.948C385.092 12.012 384.552 11.172 383.976 10.404L384.576 10.212ZM384.408 3.768C385.116 6.048 386.352 7.92 388.128 9.36L387.684 9.888C385.86 8.388 384.576 6.456 383.856 4.08L384.408 3.768ZM390.552 8.892H395.688V12.444H390.552V8.892ZM395.064 11.844V9.492H391.176V11.844H395.064ZM397.824 14.592H396.192L396.024 13.968L397.692 13.992C398.112 13.992 398.328 13.728 398.328 13.212V4.932H390.084V4.308H398.976V13.38C398.976 14.184 398.592 14.592 397.824 14.592ZM389.712 6.648H396.924V7.26H389.712V6.648ZM408.396 4.764C409.164 4.764 409.8 4.98 410.304 5.436C410.808 5.88 411.06 6.468 411.06 7.212C411.06 7.956 410.772 8.628 410.208 9.228C409.932 9.516 409.344 9.972 408.432 10.596C407.208 11.424 406.536 12.168 406.404 12.828H411.072V13.5H405.504C405.504 12.78 405.78 12.096 406.356 11.46C406.704 11.064 407.304 10.572 408.156 9.984C408.9 9.456 409.38 9.072 409.608 8.844C410.076 8.34 410.316 7.788 410.316 7.2C410.316 6.636 410.136 6.192 409.788 5.88C409.44 5.568 408.972 5.412 408.384 5.412C407.76 5.412 407.268 5.616 406.908 6.036C406.524 6.456 406.332 7.068 406.332 7.86H405.588C405.588 6.9 405.852 6.144 406.38 5.592C406.884 5.04 407.556 4.764 408.396 4.764ZM415.483 4.764C416.515 4.764 417.283 5.232 417.787 6.18C418.195 6.936 418.411 7.944 418.411 9.216C418.411 10.476 418.195 11.484 417.787 12.252C417.283 13.188 416.515 13.668 415.483 13.668C414.451 13.668 413.683 13.188 413.179 12.252C412.759 11.484 412.555 10.476 412.555 9.216C412.555 7.944 412.759 6.936 413.179 6.18C413.683 5.232 414.451 4.764 415.483 4.764ZM415.483 5.412C414.655 5.412 414.055 5.832 413.695 6.684C413.431 7.308 413.299 8.16 413.299 9.216C413.299 10.272 413.431 11.112 413.695 11.748C414.055 12.588 414.655 13.02 415.483 13.02C416.299 13.02 416.899 12.588 417.271 11.748C417.535 11.112 417.679 10.272 417.679 9.216C417.679 8.16 417.535 7.308 417.271 6.684C416.899 5.832 416.299 5.412 415.483 5.412ZM422.786 4.764C423.554 4.764 424.19 4.98 424.694 5.436C425.198 5.88 425.45 6.468 425.45 7.212C425.45 7.956 425.162 8.628 424.598 9.228C424.322 9.516 423.734 9.972 422.822 10.596C421.598 11.424 420.926 12.168 420.794 12.828H425.462V13.5H419.894C419.894 12.78 420.17 12.096 420.746 11.46C421.094 11.064 421.694 10.572 422.546 9.984C423.29 9.456 423.77 9.072 423.998 8.844C424.466 8.34 424.706 7.788 424.706 7.2C424.706 6.636 424.526 6.192 424.178 5.88C423.83 5.568 423.362 5.412 422.774 5.412C422.15 5.412 421.658 5.616 421.298 6.036C420.914 6.456 420.722 7.068 420.722 7.86H419.978C419.978 6.9 420.242 6.144 420.77 5.592C421.274 5.04 421.946 4.764 422.786 4.764ZM429.958 4.764C430.75 4.764 431.398 4.968 431.89 5.388C432.37 5.808 432.61 6.372 432.61 7.068C432.61 8.052 432.142 8.7 431.218 9.012C431.71 9.168 432.094 9.42 432.37 9.768C432.646 10.116 432.79 10.536 432.79 11.04C432.79 11.808 432.514 12.444 431.986 12.936C431.446 13.416 430.75 13.668 429.898 13.668C429.13 13.668 428.494 13.464 427.99 13.068C427.366 12.588 427.03 11.856 426.958 10.896H427.702C427.738 11.628 427.99 12.18 428.47 12.564C428.854 12.876 429.322 13.032 429.886 13.032C430.546 13.032 431.074 12.84 431.482 12.468C431.866 12.096 432.058 11.628 432.058 11.064C432.058 10.524 431.866 10.104 431.506 9.792C431.146 9.48 430.666 9.336 430.054 9.336H429.298V8.736H429.982C430.594 8.736 431.062 8.592 431.398 8.316C431.71 8.028 431.878 7.632 431.878 7.104C431.878 6.6 431.71 6.192 431.386 5.88C431.038 5.568 430.558 5.412 429.958 5.412C429.358 5.412 428.878 5.58 428.53 5.928C428.17 6.264 427.954 6.732 427.882 7.356H427.15C427.222 6.552 427.522 5.916 428.038 5.448C428.53 4.992 429.166 4.764 429.958 4.764ZM438.929 3.96C439.745 4.536 440.417 5.112 440.969 5.688L440.513 6.156C440.009 5.604 439.325 5.016 438.461 4.404L438.929 3.96ZM438.593 6.852C439.421 7.428 440.105 7.992 440.657 8.568L440.189 9.036C439.685 8.484 439.001 7.908 438.137 7.296L438.593 6.852ZM440.069 9.984L440.645 10.212C440.141 11.748 439.565 13.2 438.929 14.556L438.329 14.292C439.001 12.888 439.577 11.448 440.069 9.984ZM445.109 3.684C445.301 4.14 445.481 4.656 445.673 5.256H448.553V9H442.721C442.685 11.196 442.121 13.092 441.017 14.676L440.525 14.232C441.533 12.84 442.049 11.064 442.073 8.88V5.256H445.037C444.845 4.716 444.653 4.236 444.437 3.804L445.109 3.684ZM447.905 5.892H442.721V8.364H447.905V5.892ZM450.449 4.932H451.181V13.5H450.449V4.932ZM456.732 4.764C457.632 4.764 458.412 5.004 459.06 5.508C459.732 6.012 460.116 6.684 460.224 7.524H459.516C459.408 6.864 459.084 6.348 458.544 5.976C458.028 5.616 457.416 5.436 456.72 5.436C455.664 5.436 454.848 5.808 454.248 6.552C453.684 7.248 453.408 8.148 453.408 9.252C453.408 10.356 453.684 11.256 454.236 11.928C454.812 12.636 455.616 12.996 456.648 12.996C457.38 12.996 458.004 12.792 458.532 12.408C459.096 11.976 459.468 11.364 459.636 10.572H460.344C460.164 11.556 459.72 12.336 459 12.9C458.34 13.404 457.56 13.668 456.66 13.668C455.376 13.668 454.38 13.224 453.66 12.348C453 11.544 452.676 10.512 452.676 9.252C452.676 7.992 453.012 6.948 453.684 6.12C454.416 5.208 455.436 4.764 456.732 4.764ZM461.732 4.932H465.212C467.108 4.932 468.068 5.748 468.068 7.392C468.068 9.036 467.108 9.864 465.2 9.864H462.464V13.5H461.732V4.932ZM462.464 5.58V9.216H465.164C465.908 9.216 466.448 9.06 466.808 8.76C467.144 8.46 467.324 8.004 467.324 7.392C467.324 6.78 467.144 6.336 466.808 6.048C466.448 5.736 465.896 5.58 465.164 5.58H462.464ZM478.157 9.528V14.664H477.533V14.088H471.413V14.664H470.789V9.528H478.157ZM471.413 13.512H474.149V12.084H471.413V13.512ZM474.773 13.512H477.533V12.084H474.773V13.512ZM471.413 11.532H474.149V10.104H471.413V11.532ZM474.773 10.104V11.532H477.533V10.104H474.773ZM472.973 3.588L473.621 3.732C473.429 4.044 473.213 4.344 472.985 4.632H477.977V5.136C477.197 6.096 476.237 6.9 475.109 7.572C476.453 8.172 478.061 8.592 479.909 8.832L479.609 9.42C477.605 9.12 475.901 8.616 474.497 7.908C473.033 8.652 471.293 9.192 469.289 9.528L469.001 8.964C470.873 8.688 472.493 8.22 473.885 7.572C473.069 7.104 472.361 6.564 471.773 5.94C471.233 6.42 470.645 6.864 470.009 7.26L469.589 6.756C471.005 5.916 472.133 4.86 472.973 3.588ZM472.169 5.556C472.805 6.228 473.573 6.792 474.485 7.272C475.541 6.696 476.429 6.012 477.173 5.22H472.493C472.373 5.34 472.265 5.448 472.169 5.556ZM484.169 4.764C484.937 4.764 485.573 4.98 486.077 5.436C486.581 5.88 486.833 6.468 486.833 7.212C486.833 7.956 486.545 8.628 485.981 9.228C485.705 9.516 485.117 9.972 484.205 10.596C482.981 11.424 482.309 12.168 482.177 12.828H486.845V13.5H481.277C481.277 12.78 481.553 12.096 482.129 11.46C482.477 11.064 483.077 10.572 483.929 9.984C484.673 9.456 485.153 9.072 485.381 8.844C485.849 8.34 486.089 7.788 486.089 7.2C486.089 6.636 485.909 6.192 485.561 5.88C485.213 5.568 484.745 5.412 484.157 5.412C483.533 5.412 483.041 5.616 482.681 6.036C482.297 6.456 482.105 7.068 482.105 7.86H481.361C481.361 6.9 481.625 6.144 482.153 5.592C482.657 5.04 483.329 4.764 484.169 4.764ZM491.256 4.764C492.288 4.764 493.056 5.232 493.56 6.18C493.968 6.936 494.184 7.944 494.184 9.216C494.184 10.476 493.968 11.484 493.56 12.252C493.056 13.188 492.288 13.668 491.256 13.668C490.224 13.668 489.456 13.188 488.952 12.252C488.532 11.484 488.328 10.476 488.328 9.216C488.328 7.944 488.532 6.936 488.952 6.18C489.456 5.232 490.224 4.764 491.256 4.764ZM491.256 5.412C490.428 5.412 489.828 5.832 489.468 6.684C489.204 7.308 489.072 8.16 489.072 9.216C489.072 10.272 489.204 11.112 489.468 11.748C489.828 12.588 490.428 13.02 491.256 13.02C492.072 13.02 492.672 12.588 493.044 11.748C493.308 11.112 493.452 10.272 493.452 9.216C493.452 8.16 493.308 7.308 493.044 6.684C492.672 5.832 492.072 5.412 491.256 5.412ZM498.56 4.764C499.328 4.764 499.964 4.98 500.468 5.436C500.972 5.88 501.224 6.468 501.224 7.212C501.224 7.956 500.936 8.628 500.372 9.228C500.096 9.516 499.508 9.972 498.596 10.596C497.372 11.424 496.7 12.168 496.568 12.828H501.236V13.5H495.668C495.668 12.78 495.944 12.096 496.52 11.46C496.868 11.064 497.468 10.572 498.32 9.984C499.064 9.456 499.544 9.072 499.772 8.844C500.24 8.34 500.48 7.788 500.48 7.2C500.48 6.636 500.3 6.192 499.952 5.88C499.604 5.568 499.136 5.412 498.548 5.412C497.924 5.412 497.432 5.616 497.072 6.036C496.688 6.456 496.496 7.068 496.496 7.86H495.752C495.752 6.9 496.016 6.144 496.544 5.592C497.048 5.04 497.72 4.764 498.56 4.764ZM505.731 4.764C506.523 4.764 507.171 4.968 507.663 5.388C508.143 5.808 508.383 6.372 508.383 7.068C508.383 8.052 507.915 8.7 506.991 9.012C507.483 9.168 507.867 9.42 508.143 9.768C508.419 10.116 508.563 10.536 508.563 11.04C508.563 11.808 508.287 12.444 507.759 12.936C507.219 13.416 506.523 13.668 505.671 13.668C504.903 13.668 504.267 13.464 503.763 13.068C503.139 12.588 502.803 11.856 502.731 10.896H503.475C503.511 11.628 503.763 12.18 504.243 12.564C504.627 12.876 505.095 13.032 505.659 13.032C506.319 13.032 506.847 12.84 507.255 12.468C507.639 12.096 507.831 11.628 507.831 11.064C507.831 10.524 507.639 10.104 507.279 9.792C506.919 9.48 506.439 9.336 505.827 9.336H505.071V8.736H505.755C506.367 8.736 506.835 8.592 507.171 8.316C507.483 8.028 507.651 7.632 507.651 7.104C507.651 6.6 507.483 6.192 507.159 5.88C506.811 5.568 506.331 5.412 505.731 5.412C505.131 5.412 504.651 5.58 504.303 5.928C503.943 6.264 503.727 6.732 503.655 7.356H502.923C502.995 6.552 503.295 5.916 503.811 5.448C504.303 4.992 504.939 4.764 505.731 4.764ZM512.842 4.764C513.874 4.764 514.642 5.232 515.146 6.18C515.554 6.936 515.77 7.944 515.77 9.216C515.77 10.476 515.554 11.484 515.146 12.252C514.642 13.188 513.874 13.668 512.842 13.668C511.81 13.668 511.042 13.188 510.538 12.252C510.118 11.484 509.914 10.476 509.914 9.216C509.914 7.944 510.118 6.936 510.538 6.18C511.042 5.232 511.81 4.764 512.842 4.764ZM512.842 5.412C512.014 5.412 511.414 5.832 511.054 6.684C510.79 7.308 510.658 8.16 510.658 9.216C510.658 10.272 510.79 11.112 511.054 11.748C511.414 12.588 512.014 13.02 512.842 13.02C513.658 13.02 514.258 12.588 514.63 11.748C514.894 11.112 515.038 10.272 515.038 9.216C515.038 8.16 514.894 7.308 514.63 6.684C514.258 5.832 513.658 5.412 512.842 5.412ZM520.038 4.764C521.07 4.764 521.838 5.232 522.342 6.18C522.75 6.936 522.966 7.944 522.966 9.216C522.966 10.476 522.75 11.484 522.342 12.252C521.838 13.188 521.07 13.668 520.038 13.668C519.006 13.668 518.238 13.188 517.734 12.252C517.314 11.484 517.11 10.476 517.11 9.216C517.11 7.944 517.314 6.936 517.734 6.18C518.238 5.232 519.006 4.764 520.038 4.764ZM520.038 5.412C519.21 5.412 518.61 5.832 518.25 6.684C517.986 7.308 517.854 8.16 517.854 9.216C517.854 10.272 517.986 11.112 518.25 11.748C518.61 12.588 519.21 13.02 520.038 13.02C520.854 13.02 521.454 12.588 521.826 11.748C522.09 11.112 522.234 10.272 522.234 9.216C522.234 8.16 522.09 7.308 521.826 6.684C521.454 5.832 520.854 5.412 520.038 5.412ZM526.381 4.932H526.981V13.5H526.237V5.844C525.685 6.444 525.001 6.864 524.185 7.104V6.36C524.581 6.24 524.977 6.06 525.361 5.82C525.745 5.568 526.093 5.268 526.381 4.932ZM532.075 4.764C532.867 4.764 533.515 4.968 534.007 5.388C534.487 5.808 534.727 6.372 534.727 7.068C534.727 8.052 534.259 8.7 533.335 9.012C533.827 9.168 534.211 9.42 534.487 9.768C534.763 10.116 534.907 10.536 534.907 11.04C534.907 11.808 534.631 12.444 534.103 12.936C533.563 13.416 532.867 13.668 532.015 13.668C531.247 13.668 530.611 13.464 530.107 13.068C529.483 12.588 529.147 11.856 529.075 10.896H529.819C529.855 11.628 530.107 12.18 530.587 12.564C530.971 12.876 531.439 13.032 532.003 13.032C532.663 13.032 533.191 12.84 533.599 12.468C533.983 12.096 534.175 11.628 534.175 11.064C534.175 10.524 533.983 10.104 533.623 9.792C533.263 9.48 532.783 9.336 532.171 9.336H531.415V8.736H532.099C532.711 8.736 533.179 8.592 533.515 8.316C533.827 8.028 533.995 7.632 533.995 7.104C533.995 6.6 533.827 6.192 533.503 5.88C533.155 5.568 532.675 5.412 532.075 5.412C531.475 5.412 530.995 5.58 530.647 5.928C530.287 6.264 530.071 6.732 529.999 7.356H529.267C529.339 6.552 529.639 5.916 530.155 5.448C530.647 4.992 531.283 4.764 532.075 4.764ZM539.27 4.764C540.062 4.764 540.71 4.968 541.202 5.388C541.682 5.808 541.922 6.372 541.922 7.068C541.922 8.052 541.454 8.7 540.53 9.012C541.022 9.168 541.406 9.42 541.682 9.768C541.958 10.116 542.102 10.536 542.102 11.04C542.102 11.808 541.826 12.444 541.298 12.936C540.758 13.416 540.062 13.668 539.21 13.668C538.442 13.668 537.806 13.464 537.302 13.068C536.678 12.588 536.342 11.856 536.27 10.896H537.014C537.05 11.628 537.302 12.18 537.782 12.564C538.166 12.876 538.634 13.032 539.198 13.032C539.858 13.032 540.386 12.84 540.794 12.468C541.178 12.096 541.37 11.628 541.37 11.064C541.37 10.524 541.178 10.104 540.818 9.792C540.458 9.48 539.978 9.336 539.366 9.336H538.61V8.736H539.294C539.906 8.736 540.374 8.592 540.71 8.316C541.022 8.028 541.19 7.632 541.19 7.104C541.19 6.6 541.022 6.192 540.698 5.88C540.35 5.568 539.87 5.412 539.27 5.412C538.67 5.412 538.19 5.58 537.842 5.928C537.482 6.264 537.266 6.732 537.194 7.356H536.462C536.534 6.552 536.834 5.916 537.35 5.448C537.842 4.992 538.478 4.764 539.27 4.764ZM546.273 4.764C547.305 4.764 548.085 5.148 548.601 5.94C549.069 6.66 549.309 7.68 549.309 9C549.309 10.344 549.045 11.436 548.541 12.3C547.989 13.212 547.221 13.668 546.261 13.668C544.725 13.668 543.849 12.912 543.609 11.412H544.341C544.533 12.492 545.181 13.032 546.273 13.032C546.993 13.032 547.569 12.66 547.989 11.94C548.385 11.244 548.589 10.356 548.589 9.288V8.868H548.541C548.337 9.36 548.025 9.756 547.605 10.056C547.185 10.344 546.705 10.488 546.165 10.488C545.349 10.488 544.689 10.224 544.197 9.696C543.705 9.18 543.465 8.508 543.465 7.68C543.465 6.84 543.729 6.144 544.257 5.592C544.785 5.04 545.457 4.764 546.273 4.764ZM546.297 5.4C545.661 5.4 545.157 5.616 544.773 6.048C544.389 6.48 544.197 7.02 544.197 7.68C544.197 8.328 544.377 8.856 544.761 9.264C545.145 9.66 545.649 9.864 546.285 9.864C546.873 9.864 547.377 9.648 547.797 9.228C548.205 8.808 548.421 8.292 548.421 7.668C548.421 7.044 548.229 6.516 547.869 6.084C547.461 5.628 546.945 5.4 546.297 5.4ZM552.581 4.2H559.373V7.284H552.581V4.2ZM558.725 6.696V4.8H553.229V6.696H558.725ZM553.445 9.132H550.637V8.496H561.305V9.132H554.117L553.661 10.716H559.577C559.493 12.564 559.313 13.68 559.049 14.052C558.773 14.388 558.245 14.568 557.453 14.568C556.853 14.568 556.325 14.544 555.845 14.52L555.617 13.92C556.265 13.956 556.829 13.98 557.309 13.98C557.981 13.98 558.389 13.824 558.557 13.536C558.713 13.248 558.833 12.504 558.905 11.316H552.893L553.445 9.132ZM562.577 10.08H568.637V10.704H562.577V10.08ZM571.99 4.932H572.59V13.5H571.846V5.844C571.294 6.444 570.61 6.864 569.794 7.104V6.36C570.19 6.24 570.586 6.06 570.97 5.82C571.354 5.568 571.702 5.268 571.99 4.932Z"
    fill="white" />
  <path
    d="M6.20412 5.472V14.112H5.59212V13.332H1.64412V14.112H1.03212V5.472H3.28812V3.672H3.92412V5.472H6.20412ZM1.64412 12.732H3.28812V9.612H1.64412V12.732ZM3.92412 12.732H5.59212V9.612H3.92412V12.732ZM1.64412 9.012H3.28812V6.072H1.64412V9.012ZM3.92412 6.072V9.012H5.59212V6.072H3.92412ZM7.33212 4.452H11.0161V4.932C10.6561 6.204 10.2601 7.392 9.84012 8.484C10.6561 9.696 11.0761 10.68 11.0881 11.436C11.0881 12.024 10.9441 12.432 10.6561 12.66C10.3561 12.9 9.74412 13.02 8.82012 13.02L8.64012 12.372C8.88012 12.396 9.07212 12.408 9.24012 12.408C9.76812 12.384 10.1041 12.312 10.2481 12.192C10.4041 12.048 10.4881 11.796 10.4881 11.436C10.4761 10.692 10.0441 9.708 9.18012 8.484C9.58812 7.5 9.97212 6.36 10.3441 5.04H7.95612V14.676H7.33212V4.452ZM12.8761 8.4H14.9041V7.044H15.5401V8.4H17.2561V9.024H15.5401V9.504C16.1401 10.08 16.7641 10.752 17.3881 11.496L17.0281 12.048C16.4401 11.22 15.9481 10.572 15.5401 10.092V14.688H14.9041V9.924C14.3881 11.124 13.6561 12.192 12.7081 13.128L12.4321 12.432C13.5601 11.424 14.3521 10.284 14.8201 9.024H12.8761V8.4ZM22.5841 7.512V14.676H21.9481V14.088H18.6841V14.676H18.0481V7.512H22.5841ZM18.6841 13.488H21.9481V11.988H18.6841V13.488ZM18.6841 11.412H21.9481V10.056H18.6841V11.412ZM18.6841 9.48H21.9481V8.112H18.6841V9.48ZM14.2801 5.292C13.9801 5.796 13.6321 6.264 13.2361 6.696L12.6721 6.324C13.4401 5.532 14.0041 4.62 14.3641 3.612L15.0001 3.744C14.8801 4.08 14.7361 4.392 14.5921 4.704H17.9161V5.292H15.7921C16.1761 5.784 16.4761 6.24 16.7041 6.672L16.1041 6.9C15.8161 6.336 15.4681 5.796 15.0721 5.292H14.2801ZM19.4161 5.292C19.1401 5.844 18.8281 6.36 18.4801 6.816L17.9281 6.456C18.6001 5.604 19.0921 4.632 19.4161 3.552L20.0281 3.684C19.9201 4.044 19.8001 4.38 19.6681 4.704H23.3881V5.292H20.9401C21.3241 5.772 21.6241 6.204 21.8521 6.6L21.2641 6.828C20.9761 6.3 20.6281 5.784 20.2201 5.292H19.4161ZM27.0001 6.324C27.1681 6.324 27.3241 6.384 27.4441 6.504C27.5521 6.612 27.6121 6.756 27.6121 6.936C27.6121 7.104 27.5521 7.248 27.4441 7.368C27.3241 7.488 27.1681 7.548 27.0001 7.548C26.8201 7.548 26.6761 7.488 26.5561 7.368C26.4361 7.248 26.3881 7.104 26.3881 6.936C26.3881 6.756 26.4361 6.612 26.5561 6.504C26.6761 6.384 26.8201 6.324 27.0001 6.324ZM27.0001 10.716C27.1681 10.716 27.3241 10.776 27.4441 10.896C27.5521 11.004 27.6121 11.148 27.6121 11.328C27.6121 11.496 27.5521 11.64 27.4441 11.76C27.3241 11.88 27.1681 11.94 27.0001 11.94C26.8201 11.94 26.6761 11.88 26.5561 11.76C26.4361 11.64 26.3881 11.496 26.3881 11.328C26.3881 11.148 26.4361 11.004 26.5561 10.896C26.6761 10.776 26.8201 10.716 27.0001 10.716ZM38.7481 4.932H39.3481V13.5H38.6041V5.844C38.0521 6.444 37.3681 6.864 36.5521 7.104V6.36C36.9481 6.24 37.3441 6.06 37.7281 5.82C38.1121 5.568 38.4601 5.268 38.7481 4.932ZM44.4659 4.764C45.2339 4.764 45.8699 4.98 46.3739 5.436C46.8779 5.88 47.1299 6.468 47.1299 7.212C47.1299 7.956 46.8419 8.628 46.2779 9.228C46.0019 9.516 45.4139 9.972 44.5019 10.596C43.2779 11.424 42.6059 12.168 42.4739 12.828H47.1419V13.5H41.5739C41.5739 12.78 41.8499 12.096 42.4259 11.46C42.7739 11.064 43.3739 10.572 44.2259 9.984C44.9699 9.456 45.4499 9.072 45.6779 8.844C46.1459 8.34 46.3859 7.788 46.3859 7.2C46.3859 6.636 46.2059 6.192 45.8579 5.88C45.5099 5.568 45.0419 5.412 44.4539 5.412C43.8299 5.412 43.3379 5.616 42.9779 6.036C42.5939 6.456 42.4019 7.068 42.4019 7.86H41.6579C41.6579 6.9 41.9219 6.144 42.4499 5.592C42.9539 5.04 43.6259 4.764 44.4659 4.764ZM51.6372 4.764C52.4292 4.764 53.0772 4.968 53.5692 5.388C54.0492 5.808 54.2892 6.372 54.2892 7.068C54.2892 8.052 53.8212 8.7 52.8972 9.012C53.3892 9.168 53.7732 9.42 54.0492 9.768C54.3252 10.116 54.4692 10.536 54.4692 11.04C54.4692 11.808 54.1932 12.444 53.6652 12.936C53.1252 13.416 52.4292 13.668 51.5772 13.668C50.8092 13.668 50.1732 13.464 49.6692 13.068C49.0452 12.588 48.7092 11.856 48.6372 10.896H49.3812C49.4172 11.628 49.6692 12.18 50.1492 12.564C50.5332 12.876 51.0012 13.032 51.5652 13.032C52.2252 13.032 52.7532 12.84 53.1612 12.468C53.5452 12.096 53.7372 11.628 53.7372 11.064C53.7372 10.524 53.5452 10.104 53.1852 9.792C52.8252 9.48 52.3452 9.336 51.7332 9.336H50.9772V8.736H51.6612C52.2732 8.736 52.7412 8.592 53.0772 8.316C53.3892 8.028 53.5572 7.632 53.5572 7.104C53.5572 6.6 53.3892 6.192 53.0652 5.88C52.7172 5.568 52.2372 5.412 51.6372 5.412C51.0372 5.412 50.5572 5.58 50.2092 5.928C49.8492 6.264 49.6332 6.732 49.5612 7.356H48.8292C48.9012 6.552 49.2012 5.916 49.7172 5.448C50.2092 4.992 50.8452 4.764 51.6372 4.764ZM58.8566 4.764C59.6246 4.764 60.2606 4.98 60.7646 5.436C61.2686 5.88 61.5206 6.468 61.5206 7.212C61.5206 7.956 61.2326 8.628 60.6686 9.228C60.3926 9.516 59.8046 9.972 58.8926 10.596C57.6686 11.424 56.9966 12.168 56.8646 12.828H61.5326V13.5H55.9646C55.9646 12.78 56.2406 12.096 56.8166 11.46C57.1646 11.064 57.7646 10.572 58.6166 9.984C59.3606 9.456 59.8406 9.072 60.0686 8.844C60.5366 8.34 60.7766 7.788 60.7766 7.2C60.7766 6.636 60.5966 6.192 60.2486 5.88C59.9006 5.568 59.4326 5.412 58.8446 5.412C58.2206 5.412 57.7286 5.616 57.3686 6.036C56.9846 6.456 56.7926 7.068 56.7926 7.86H56.0486C56.0486 6.9 56.3126 6.144 56.8406 5.592C57.3446 5.04 58.0166 4.764 58.8566 4.764ZM67.5879 4.764C68.8119 4.764 69.7959 5.124 70.5279 5.868C71.2119 6.552 71.5599 7.428 71.5599 8.496C71.5599 9.36 71.2839 10.128 70.7559 10.812C70.2399 11.448 69.6879 11.772 69.0879 11.772C68.5959 11.772 68.3319 11.496 68.2959 10.944C67.8519 11.508 67.3239 11.796 66.7119 11.796C66.2199 11.796 65.8239 11.628 65.5359 11.304C65.2359 10.968 65.0919 10.548 65.0919 10.056C65.0919 9.12 65.3679 8.328 65.9319 7.68C66.4599 7.044 67.0719 6.732 67.7919 6.732C68.3919 6.732 68.7759 7.044 68.9679 7.68L69.1719 6.96H69.7719L68.9079 10.224C68.8119 10.512 68.7759 10.74 68.7759 10.908C68.7759 11.124 68.8959 11.232 69.1479 11.232C69.5439 11.232 69.9399 10.98 70.3359 10.5C70.7919 9.924 71.0199 9.264 71.0199 8.496C71.0199 7.584 70.7079 6.84 70.1079 6.24C69.4599 5.616 68.6079 5.304 67.5519 5.304C66.4239 5.304 65.4879 5.676 64.7439 6.432C63.9879 7.176 63.6159 8.124 63.6159 9.264C63.6159 10.488 63.9759 11.448 64.7079 12.144C65.4279 12.816 66.3639 13.152 67.5399 13.152C68.4279 13.152 69.2079 12.984 69.8799 12.648C70.4559 12.348 70.9239 11.952 71.2839 11.448H71.9439C71.5239 12.144 70.9359 12.684 70.1679 13.068C69.3879 13.464 68.5119 13.668 67.5399 13.668C66.1719 13.668 65.0679 13.26 64.2399 12.468C63.3999 11.652 62.9799 10.584 62.9799 9.24C62.9799 7.992 63.4119 6.936 64.2759 6.084C65.1519 5.196 66.2559 4.764 67.5879 4.764ZM67.8759 7.32C67.3239 7.32 66.8319 7.572 66.4119 8.088C65.9559 8.628 65.7399 9.288 65.7399 10.068C65.7399 10.428 65.8239 10.704 66.0039 10.908C66.1839 11.124 66.4359 11.244 66.7479 11.244C67.0959 11.244 67.4319 11.1 67.7679 10.812C68.0799 10.548 68.2839 10.248 68.3799 9.912L68.6559 8.868C68.7279 8.58 68.7759 8.4 68.7759 8.316C68.7759 8.076 68.6919 7.86 68.5479 7.668C68.3799 7.428 68.1519 7.32 67.8759 7.32ZM75.8743 7.128C76.8583 7.128 77.5903 7.584 78.0463 8.52V7.296H78.7303V15.876H78.0103V12.204C77.5543 13.176 76.8223 13.668 75.8383 13.668C74.9503 13.668 74.2543 13.332 73.7743 12.684C73.3183 12.084 73.0903 11.328 73.0903 10.416C73.0903 9.48 73.3183 8.724 73.7863 8.124C74.2903 7.452 74.9863 7.128 75.8743 7.128ZM75.9463 7.74C75.2383 7.74 74.6983 8.004 74.3263 8.544C73.9903 9.012 73.8343 9.636 73.8343 10.416C73.8343 11.196 74.0023 11.82 74.3503 12.288C74.7103 12.792 75.2503 13.056 75.9703 13.056C76.6063 13.056 77.1103 12.816 77.4823 12.336C77.8423 11.856 78.0343 11.244 78.0343 10.5V10.368C78.0343 9.612 77.8543 9 77.5183 8.532C77.1343 8.004 76.6183 7.74 75.9463 7.74ZM82.7884 7.128C83.7724 7.128 84.5044 7.584 84.9604 8.52V7.296H85.6444V15.876H84.9244V12.204C84.4684 13.176 83.7364 13.668 82.7524 13.668C81.8644 13.668 81.1684 13.332 80.6884 12.684C80.2324 12.084 80.0044 11.328 80.0044 10.416C80.0044 9.48 80.2324 8.724 80.7004 8.124C81.2044 7.452 81.9004 7.128 82.7884 7.128ZM82.8604 7.74C82.1524 7.74 81.6124 8.004 81.2404 8.544C80.9044 9.012 80.7484 9.636 80.7484 10.416C80.7484 11.196 80.9164 11.82 81.2644 12.288C81.6244 12.792 82.1644 13.056 82.8844 13.056C83.5204 13.056 84.0244 12.816 84.3964 12.336C84.7564 11.856 84.9484 11.244 84.9484 10.5V10.368C84.9484 9.612 84.7684 9 84.4324 8.532C84.0484 8.004 83.5324 7.74 82.8604 7.74ZM87.9505 12.3C88.1185 12.3 88.2625 12.36 88.3825 12.48C88.5025 12.6 88.5625 12.744 88.5625 12.912C88.5625 13.08 88.5025 13.236 88.3825 13.356C88.2625 13.464 88.1185 13.524 87.9505 13.524C87.7705 13.524 87.6265 13.464 87.5185 13.356C87.3985 13.236 87.3385 13.08 87.3385 12.912C87.3385 12.744 87.3985 12.6 87.5185 12.48C87.6265 12.36 87.7705 12.3 87.9505 12.3ZM92.8682 7.128C93.6122 7.128 94.2122 7.308 94.6802 7.668C95.1482 8.028 95.4362 8.58 95.5322 9.324H94.8122C94.7282 8.796 94.5242 8.412 94.1882 8.148C93.8522 7.884 93.4082 7.752 92.8682 7.752C92.2202 7.752 91.6922 8.004 91.3082 8.508C90.9242 8.988 90.7442 9.636 90.7442 10.44C90.7442 11.232 90.9242 11.868 91.2842 12.336C91.6442 12.804 92.1722 13.044 92.8562 13.044C94.0082 13.044 94.6682 12.456 94.8482 11.28H95.5562C95.4362 12.06 95.1362 12.66 94.6682 13.068C94.2122 13.464 93.6002 13.668 92.8562 13.668C91.9442 13.668 91.2242 13.356 90.7202 12.732C90.2402 12.156 90.0122 11.388 90.0122 10.44C90.0122 9.504 90.2522 8.724 90.7442 8.112C91.2602 7.452 91.9682 7.128 92.8682 7.128ZM99.4212 7.128C100.333 7.128 101.065 7.452 101.617 8.112C102.121 8.724 102.373 9.492 102.373 10.404C102.373 11.316 102.121 12.072 101.617 12.684C101.065 13.332 100.333 13.668 99.4212 13.668C98.5092 13.668 97.7772 13.332 97.2252 12.684C96.7212 12.072 96.4692 11.316 96.4692 10.404C96.4692 9.492 96.7212 8.724 97.2372 8.112C97.7772 7.452 98.5092 7.128 99.4212 7.128ZM99.4212 7.752C98.7132 7.752 98.1612 8.016 97.7532 8.568C97.3812 9.048 97.2012 9.66 97.2012 10.404C97.2012 11.136 97.3812 11.748 97.7532 12.228C98.1612 12.768 98.7132 13.044 99.4212 13.044C100.129 13.044 100.693 12.768 101.101 12.228C101.461 11.736 101.653 11.124 101.653 10.404C101.653 9.66 101.461 9.048 101.101 8.568C100.693 8.016 100.129 7.752 99.4212 7.752ZM106.167 7.128C107.151 7.128 107.799 7.548 108.111 8.4C108.327 7.98 108.603 7.668 108.939 7.452C109.251 7.236 109.635 7.128 110.067 7.128C110.715 7.128 111.243 7.332 111.627 7.74C111.999 8.148 112.191 8.712 112.191 9.444V13.5H111.471V9.54C111.471 8.952 111.351 8.508 111.111 8.22C110.847 7.908 110.427 7.752 109.875 7.752C109.419 7.752 109.047 7.92 108.747 8.268C108.435 8.604 108.291 9.024 108.291 9.552V13.5H107.559V9.54C107.559 8.34 107.043 7.752 106.011 7.752C105.543 7.752 105.159 7.932 104.847 8.316C104.523 8.688 104.367 9.144 104.367 9.684V13.5H103.647V7.296H104.367V8.232C104.811 7.488 105.411 7.128 106.167 7.128Z"
    fill="white" />
</svg>