<svg width="367" height="76" viewBox="0 0 367 76" fill="none" xmlns="http://www.w3.org/2000/svg">
  <path d="M366 1V48.5L343.5 71H9" stroke="#8D96C4" stroke-width="0.8" stroke-linecap="round" stroke-linejoin="round" />
  <path d="M333.5 61H259" stroke="#8D96C3" stroke-width="0.8" stroke-linecap="round" stroke-linejoin="round" />
  <circle cx="5" cy="71" r="4" stroke="#8D96C4" stroke-width="0.8" stroke-linecap="round" stroke-linejoin="round" />
  <path
    d="M253 61C253 61.5523 253.448 62 254 62C254.552 62 255 61.5523 255 61C255 60.4477 254.552 60 254 60C253.448 60 253 60.4477 253 61Z"
    fill="#1136F1" />
  <path
    d="M247 61C247 61.5523 247.448 62 248 62C248.552 62 249 61.5523 249 61C249 60.4477 248.552 60 248 60C247.448 60 247 60.4477 247 61Z"
    fill="#1136F1" />
  <path
    d="M241 61C241 61.5523 241.448 62 242 62C242.552 62 243 61.5523 243 61C243 60.4477 242.552 60 242 60C241.448 60 241 60.4477 241 61Z"
    fill="#1136F1" />
  <path
    d="M235 61C235 61.5523 235.448 62 236 62C236.552 62 237 61.5523 237 61C237 60.4477 236.552 60 236 60C235.448 60 235 60.4477 235 61Z"
    fill="#1136F1" />
  <path
    d="M229 61C229 61.5523 229.448 62 230 62C230.552 62 231 61.5523 231 61C231 60.4477 230.552 60 230 60C229.448 60 229 60.4477 229 61Z"
    fill="#1136F1" />
  <path
    d="M223 61C223 61.5523 223.448 62 224 62C224.552 62 225 61.5523 225 61C225 60.4477 224.552 60 224 60C223.448 60 223 60.4477 223 61Z"
    fill="#1136F1" />
  <path
    d="M217 61C217 61.5523 217.448 62 218 62C218.552 62 219 61.5523 219 61C219 60.4477 218.552 60 218 60C217.448 60 217 60.4477 217 61Z"
    fill="#1136F1" />
  <path
    d="M211 61C211 61.5523 211.448 62 212 62C212.552 62 213 61.5523 213 61C213 60.4477 212.552 60 212 60C211.448 60 211 60.4477 211 61Z"
    fill="#1136F1" />
  <path
    d="M205 61C205 61.5523 205.448 62 206 62C206.552 62 207 61.5523 207 61C207 60.4477 206.552 60 206 60C205.448 60 205 60.4477 205 61Z"
    fill="#1136F1" />
  <path
    d="M199 61C199 61.5523 199.448 62 200 62C200.552 62 201 61.5523 201 61C201 60.4477 200.552 60 200 60C199.448 60 199 60.4477 199 61Z"
    fill="#1136F1" />
  <path
    d="M193 61C193 61.5523 193.448 62 194 62C194.552 62 195 61.5523 195 61C195 60.4477 194.552 60 194 60C193.448 60 193 60.4477 193 61Z"
    fill="#1136F1" />
</svg>