<svg width="498" height="264" viewBox="0 0 498 264" fill="none" xmlns="http://www.w3.org/2000/svg">
  <path
    d="M3.28 47.2V36.88L76.88 30.48V40.8L3.28 47.2ZM141.76 16.64L146.32 16.24V12.08L141.76 12.48V16.64ZM141.76 27.68L146.32 27.28V23.12L141.76 23.52V27.68ZM134.56 64.32V57.12L124.72 58V50.96L134.56 50.08V45.84L126.72 46.56V39.44L134.56 38.72V34.72L127.04 35.36V28.96L134.56 28.32V24.16L124.16 25.04V18.16L134.56 17.28V13.12L127.04 13.76V7.36L134.56 6.72V1.51999L141.76 0.879998V6.08L152.88 5.12V15.68L157.28 15.28V22.16L152.88 22.56V33.12L141.76 34.08V38.08L153.76 37.04V44.16L141.76 45.2V49.44L155.28 48.24V55.28L141.76 56.48V63.68L134.56 64.32ZM115.36 50.16C116.213 46.2667 116.853 41.9733 117.28 37.28L110.56 37.84C109.813 38.48 109.44 39.04 109.44 39.52C108.693 37.9733 107.52 36.1867 105.92 34.16L99.6 34.72V42.48L107.52 41.84V46.32L113.36 43.52C113.947 45.9733 114.613 48.1867 115.36 50.16ZM107.76 78.88C106.48 76.32 104.987 74.1867 103.28 72.48C107.173 69.6533 110.213 65.52 112.4 60.08C110.48 56.6667 108.853 52.4267 107.52 47.36V50.4L99.6 51.04V62.56L106.08 57.28C106.88 60.2667 107.787 62.5867 108.8 64.24C104.587 67.7067 101.36 70.4 99.12 72.32C96.88 74.24 95.28 75.6533 94.32 76.56C93.4133 77.4667 92.7733 78.2133 92.4 78.8C91.92 77.84 91.2 76.7467 90.24 75.52C89.3333 74.2933 88.48 73.3067 87.68 72.56C88.5333 71.8133 89.44 70.64 90.4 69.04C91.4133 67.44 91.92 65.6533 91.92 63.68V51.76L84.08 52.4V43.84L91.92 43.2V35.44L86.96 35.84V31.52L86.72 31.76C86.24 30.8533 85.4667 29.68 84.4 28.24C83.3867 26.7467 82.4533 25.5467 81.6 24.64C86.1333 19.0933 89.4933 12.3733 91.68 4.47999L99.84 6C99.3067 7.81333 98.6667 9.68 97.92 11.6L106.8 10.8V19.36L94.08 20.48C92.8 22.9867 91.4133 25.3067 89.92 27.44L106.88 25.92V33.04C108.373 31.7067 109.653 30 110.72 27.92C112.16 25.2 113.813 20.9333 115.68 15.12L107.84 15.76V7.04L118.48 6.16L120.88 4.88L125.76 7.76C123.467 15.6533 120.747 22.9067 117.6 29.52L120.4 29.2H124.96C124.427 41.36 122.987 51.3067 120.64 59.04C123.573 62.1867 126.96 64.24 130.8 65.2C133.413 65.84 136.16 66.16 139.04 66.16C140.427 66.16 141.84 66.08 143.28 65.92L157.84 64.56C156.773 66.96 155.973 69.5733 155.44 72.4L142.72 73.52C140.907 73.7333 139.147 73.84 137.44 73.84C134.347 73.84 131.067 73.44 127.6 72.64C124.133 71.8933 120.747 69.9467 117.44 66.8C114.933 71.6533 111.707 75.68 107.76 78.88ZM202.16 17.52L224.64 15.52V10.32L202.16 12.32V17.52ZM202.16 29.92L224.64 27.92V22.72L202.16 24.72V29.92ZM193.52 38V5.68L233.6 2.16V34.48L193.52 38ZM166.4 79.76C166.08 77.2 165.2 74.3733 163.76 71.28C165.36 71.1733 166.827 71.0667 168.16 70.96C169.547 70.9067 170.507 70.8267 171.04 70.72C171.627 70.6667 172.027 70.5067 172.24 70.24C172.507 70.0267 172.64 69.6533 172.64 69.12V52.16L164.08 55.04L161.76 46.16C164.96 45.2533 168.587 44.1333 172.64 42.8V28.48L163.12 29.28V20.48L172.64 19.68V4.64L182 3.84V18.88L189.84 18.16V26.96L182 27.68V39.6L189.52 36.96L190.72 45.6L182 48.88V68.24C182 70.5867 181.733 72.4267 181.2 73.76C180.72 75.0933 179.813 76.1867 178.48 77.04C175.92 78.5333 171.893 79.44 166.4 79.76ZM186.88 75.12V66.64L208.24 64.8V54.48L192.24 55.84V47.44L208.24 46.08V38.64L217.92 37.76V45.2L234.08 43.84V52.24L217.92 53.6V63.92L237.28 62.24V70.72L186.88 75.12ZM259.04 70.56V21.2L242.4 22.64V12.72L287.68 8.72V18.64L270.88 20.16V69.52L259.04 70.56ZM284.754 71.76C281.234 71.76 278.327 70.6933 276.034 68.56C273.794 66.3733 272.674 63.36 272.674 59.52C272.674 54.72 274.727 50.8267 278.834 47.84C282.994 44.8 289.554 42.4267 298.514 40.72C298.46 38.48 297.847 36.6933 296.674 35.36C295.66 34.1867 294.087 33.6 291.954 33.6L290.834 33.68C286.727 34.2133 282.62 35.9733 278.514 38.96L274.274 31.6C276.94 29.68 279.847 28.0267 282.994 26.64C287.1 24.8267 291.074 23.92 294.914 23.92C305.1 23.92 310.194 30.0267 310.194 42.24V68.4L300.594 69.28L299.794 64.56H299.474C294.407 69.36 289.5 71.76 284.754 71.76ZM288.914 62.24C292.327 62.24 295.527 60.48 298.514 56.96V47.92C288.754 50.0533 283.874 53.28 283.874 57.6C283.874 59.36 284.434 60.5867 285.554 61.28C286.407 61.92 287.527 62.24 288.914 62.24Z"
    fill="white" />
  <path
    d="M9.888 143.376V128.208C7.168 130.768 5.312 132.48 4.32 133.344L1.536 128.64C3.808 126.88 6.592 124.544 9.888 121.632V113.904L7.392 116.16C6.784 115.136 5.92 113.968 4.8 112.656C3.68 111.312 2.56 110.08 1.44 108.96L5.376 105.504C6.944 106.944 8.448 108.496 9.888 110.16V98.64L15.408 98.16V142.896L9.888 143.376ZM29.904 141.504C29.68 139.904 29.088 138.176 28.128 136.32C32.416 136.128 34.672 135.92 34.896 135.696C35.056 135.536 35.136 135.312 35.136 135.024V124.8L24.288 125.712C25.408 126.864 26.512 128.128 27.6 129.504C28.688 130.88 29.52 132.144 30.096 133.296L25.104 136.464C24.592 135.28 23.824 133.968 22.8 132.528C21.776 131.056 20.688 129.696 19.536 128.448L24 125.76L16.944 126.384V121.152L19.536 120.912C18.736 119.248 17.84 117.904 16.848 116.88C20.4 115.888 23.776 114.592 26.976 112.992C25.984 111.776 24.848 110.672 23.568 109.68L27.792 106.896C29.2 107.856 30.448 108.976 31.536 110.256C34 108.528 36.08 106.576 37.776 104.4L28.08 105.264C25.552 107.44 22.928 109.312 20.208 110.88C19.248 109.76 17.984 108.624 16.416 107.472C21.952 104.592 26.128 101.072 28.944 96.912L34.848 97.872C34.272 98.704 33.632 99.52 32.928 100.32L41.136 99.6L42.096 99.312L45.84 100.896C41.52 110.272 33.056 116.912 20.448 120.816L35.136 119.568V114.912L40.8 114.384V119.04L45.984 118.608V123.84L40.8 124.272V134.592C40.8 135.968 40.624 137.072 40.272 137.904C39.408 139.984 35.952 141.184 29.904 141.504ZM54.864 143.568V119.04C53.808 120.576 52.736 121.968 51.648 123.216C51.36 122.448 50.896 121.488 50.256 120.336C49.648 119.184 49.088 118.256 48.576 117.552C53.184 112.4 56.816 106.096 59.472 98.64L64.896 99.84C63.648 103.296 62.128 106.704 60.336 110.064V143.088L54.864 143.568ZM67.392 136.272C66.144 135.408 64.512 134.528 62.496 133.632C65.28 129.696 67.232 124.832 68.352 119.04L73.92 119.712C72.384 126.272 70.208 131.792 67.392 136.272ZM72.624 142.176C72.496 141.312 72.24 140.352 71.856 139.296C71.504 138.24 71.104 137.328 70.656 136.56C72.8 136.432 74.368 136.32 75.36 136.224H75.456C75.968 136.224 76.224 135.92 76.224 135.312V110.832L70.656 111.312C69.28 114.288 67.776 116.88 66.144 119.088C65.6 118.576 64.864 118 63.936 117.36C63.04 116.688 62.24 116.144 61.536 115.728C65.28 110.896 68 104.896 69.696 97.728L75.264 98.496C74.624 100.992 73.872 103.44 73.008 105.84L89.52 104.4L90.432 104.112L94.464 104.544C93.824 109.024 93.136 112.8 92.4 115.872L87.552 115.488C87.808 113.888 88.064 111.984 88.32 109.776L81.888 110.352V134.928C81.888 136.304 81.728 137.424 81.408 138.288C81.12 139.152 80.544 139.856 79.68 140.4C78.016 141.392 75.664 141.984 72.624 142.176ZM88.464 134.304C88.176 132.096 87.584 129.6 86.688 126.816C85.824 124 84.8 121.376 83.616 118.944L88.704 116.784C89.984 119.216 91.088 121.808 92.016 124.56C92.944 127.28 93.584 129.744 93.936 131.952L88.464 134.304ZM104.832 133.536L112.464 132.864V123.456L104.832 124.128V133.536ZM104.832 119.184L112.464 118.512V110.736L104.832 111.408V119.184ZM99.648 142.512V106.848L105.072 106.368C105.744 103.68 106.208 101.072 106.464 98.544L112.704 98.832C111.872 101.36 111.04 103.728 110.208 105.936L117.648 105.264V113.04C120.496 108.432 122.656 103.088 124.128 97.008L129.6 97.824C129.088 99.904 128.464 101.984 127.728 104.064L141.216 102.864V104.784C140.96 115.184 140.592 123.088 140.112 128.496C139.696 133.232 139.008 136.192 138.048 137.376C137.376 138.304 136.672 138.976 135.936 139.392C135.232 139.84 134.4 140.192 133.44 140.448C131.424 140.8 128.912 141.04 125.904 141.168C125.84 140.368 125.632 139.456 125.28 138.432C124.96 137.44 124.544 136.56 124.032 135.792C127.328 135.728 129.712 135.616 131.184 135.456C132.048 135.392 132.752 135.056 133.296 134.448C134.576 133.488 135.424 124.848 135.84 108.528L125.568 109.44C124.288 112.48 122.88 115.136 121.344 117.408C120.704 116.864 119.472 116.064 117.648 115.008V137.424L104.832 138.576V142.08L99.648 142.512ZM128.4 128.88C127.088 126.256 124.864 122.752 121.728 118.368L126.192 115.44C129.488 119.664 131.84 123.008 133.248 125.472L128.4 128.88ZM173.568 120.624L182.4 119.856V116.976L173.568 117.744V120.624ZM173.568 113.568L182.4 112.8V110.016L173.568 110.784V113.568ZM173.568 106.56L182.4 105.792V103.008L173.568 103.776V106.56ZM169.824 133.968C168.32 132.176 166.208 130.128 163.488 127.824L167.424 124.32L168.384 125.088V99.696L187.872 98.016V123.84L168.864 125.472C171.104 127.36 172.8 128.912 173.952 130.128L169.824 133.968ZM154.32 127.344V117.888C152.688 120.896 150.88 123.376 148.896 125.328C148.448 124.72 147.872 124.08 147.168 123.408C146.496 122.704 145.856 122.128 145.248 121.68C148.608 118.736 151.328 114.944 153.408 110.304L146.448 110.88V106.032L154.32 105.36V98.592L159.744 98.112V104.88L166.512 104.304V109.152L159.744 109.728V111.504C160.416 111.856 161.264 112.336 162.288 112.944C163.344 113.552 164.336 114.16 165.264 114.768C166.224 115.376 166.912 115.824 167.328 116.112L164.352 120.96C163.136 119.744 161.6 118.368 159.744 116.832V126.864L154.32 127.344ZM150.816 141.024L145.584 138.912C147.44 135.872 148.832 132.448 149.76 128.64L154.848 130.224C153.6 134.832 152.256 138.432 150.816 141.024ZM162.432 141.648C160.512 141.648 159.056 141.264 158.064 140.496C157.072 139.76 156.576 138.144 156.576 135.648V129.072L162.24 128.544V135.024C162.24 135.76 162.432 136.208 162.816 136.368C163.04 136.464 163.392 136.512 163.872 136.512C164.288 136.512 164.768 136.48 165.312 136.416L172.992 135.744C174.08 135.712 174.8 135.328 175.152 134.592C175.536 133.856 175.776 132.32 175.872 129.984C176.48 130.368 177.28 130.704 178.272 130.992C179.264 131.28 180.176 131.456 181.008 131.52C180.72 134.912 180.032 137.248 178.944 138.528C177.856 139.84 176.016 140.576 173.424 140.736C166.704 141.344 163.04 141.648 162.432 141.648ZM185.328 137.184C184.304 135.2 182.928 132.88 181.2 130.224L179.664 127.728L184.656 124.992L186.144 127.104C188 129.696 189.504 132 190.656 134.016L185.328 137.184ZM204.864 115.824L211.152 115.296C212.528 114.08 213.712 112.784 214.704 111.408L204.864 112.272V115.824ZM205.392 108.096L215.088 107.28C215.76 106.384 216.416 105.456 217.056 104.496L208.08 105.264C207.248 106.224 206.352 107.168 205.392 108.096ZM217.488 114.72L227.472 113.856V110.304L220.272 110.928C219.472 112.272 218.544 113.536 217.488 114.72ZM209.568 142.464C209.408 140.512 208.896 138.848 208.032 137.472C209.856 137.472 211.44 137.408 212.784 137.28C214.064 137.248 215.136 136.88 216 136.176C217.12 135.376 217.68 134.176 217.68 132.576C217.68 132.064 217.616 131.504 217.488 130.896C211.632 135.344 205.296 138.816 198.48 141.312C197.264 139.616 196.192 138.336 195.264 137.472C198.976 136.352 202.688 134.864 206.4 133.008C210.112 131.152 213.216 129.216 215.712 127.2C215.328 126.624 214.88 126.08 214.368 125.568C209.6 129.216 204.384 132.064 198.72 134.112C197.728 132.704 196.704 131.536 195.648 130.608C201.696 128.752 206.944 126.256 211.392 123.12C210.72 122.672 210 122.24 209.232 121.824C205.488 124.32 201.44 126.336 197.088 127.872C196.8 127.392 196.368 126.784 195.792 126.048C195.248 125.28 194.752 124.656 194.304 124.176C197.856 123.056 201.168 121.664 204.24 120L199.488 120.432V113.184C198.976 113.568 198.432 113.952 197.856 114.336C197.408 113.696 196.816 113.024 196.08 112.32C195.344 111.584 194.656 111.024 194.016 110.64C197.12 108.688 199.776 106.608 201.984 104.4C204.224 102.16 205.968 100 207.216 97.92L213.168 98.544L211.728 100.704L220.224 99.936L221.04 99.648L224.928 101.856C224.064 103.392 222.976 105.008 221.664 106.704L233.136 105.696V117.504L213.936 119.184C216.752 120.816 218.912 122.656 220.416 124.704C224.128 122.464 227.376 120.176 230.16 117.84L234.768 120.864C232.752 122.24 230.656 123.584 228.48 124.896C229.44 126.72 230.736 128.416 232.368 129.984C234.032 131.552 236.016 132.72 238.32 133.488C237.68 134.16 236.992 135.008 236.256 136.032C235.552 137.024 234.976 137.936 234.528 138.768C232.032 137.648 229.904 136.064 228.144 134.016C226.416 131.936 225.04 129.76 224.016 127.488L222.384 128.304C222.928 129.84 223.2 131.312 223.2 132.72C223.2 133.552 223.008 134.704 222.624 136.176C222.272 137.616 221.264 138.912 219.6 140.064C218.672 140.768 217.76 141.264 216.864 141.552C216 141.872 214.96 142.08 213.744 142.176C212.528 142.304 211.136 142.4 209.568 142.464ZM255.312 127.536L272.832 126V123.216L255.312 124.752V127.536ZM255.312 107.472L272.832 105.936V103.296L255.312 104.832V107.472ZM255.312 120.72L272.832 119.184V116.544L255.312 118.08V120.72ZM255.312 114.048L272.832 112.512V109.968L255.312 111.504V114.048ZM245.712 143.808C244.56 142.56 243.168 141.312 241.536 140.064C243.744 139.136 245.984 138.016 248.256 136.704C250.528 135.392 252.48 134.08 254.112 132.768L242.304 133.824V128.688L249.792 128.016V100.8L278.64 98.256V125.472L285.888 124.848V129.984L273.936 131.04C278.992 132.8 283.2 134.48 286.56 136.08L281.856 140.64C280.224 139.712 278.144 138.688 275.616 137.568C273.12 136.448 270.544 135.44 267.888 134.544L270.528 131.328L256.176 132.576L260.208 135.12C258.256 136.688 255.968 138.256 253.344 139.824C250.72 141.392 248.176 142.72 245.712 143.808ZM308.544 125.232V99.792L331.776 97.776V123.216L326.112 123.696V103.152L313.92 104.256V124.8L308.544 125.232ZM290.352 139.296L289.2 133.968C291.184 133.36 293.44 132.624 295.968 131.76V120.48L290.832 120.96V115.728L295.968 115.248V106.8L290.112 107.328V102L306.96 100.512V105.84L301.488 106.32V114.768L305.952 114.384V119.616L301.488 120V129.888L306.912 127.968L307.632 133.056C304.592 134.176 301.568 135.28 298.56 136.368C295.552 137.424 292.816 138.4 290.352 139.296ZM307.344 142.656C306.96 142.112 306.416 141.456 305.712 140.688C305.008 139.952 304.368 139.376 303.792 138.96C311.568 134.096 315.952 127.904 316.944 120.384C317.2 118.304 317.328 116.336 317.328 114.48V106.896L322.608 106.464V114.192C322.608 117.52 322.208 120.784 321.408 123.984L324.528 123.696V134.256C324.528 135.376 324.864 135.936 325.536 135.936L328.368 135.648C328.976 135.648 329.392 135.12 329.616 134.064C329.84 133.008 329.984 130.944 330.048 127.872C331.424 128.704 332.912 129.264 334.512 129.552C334.32 133.232 333.824 135.824 333.024 137.328C332.224 138.832 330.656 139.648 328.32 139.776C325.536 140.032 323.952 140.16 323.568 140.16C322.224 140.16 321.168 139.856 320.4 139.248C319.664 138.672 319.296 137.376 319.296 135.36V129.696C316.832 134.912 312.848 139.232 307.344 142.656ZM344.784 143.52V118.32C343.6 119.856 342.4 121.264 341.184 122.544C339.936 120.368 338.72 118.544 337.536 117.072C342.656 111.952 346.704 105.616 349.68 98.064L355.488 99.456C354.176 102.688 352.624 105.904 350.832 109.104V126.624C353.872 124.896 356.944 122.8 360.048 120.336V98.064L366.24 97.536V114.864C370.144 111.024 373.552 106.784 376.464 102.144L381.936 105.408C377.296 112.032 372.064 117.792 366.24 122.688V131.904C366.24 133.28 366.352 134.144 366.576 134.496C366.832 134.816 367.264 134.976 367.872 134.976L374.064 134.4C375.056 134.4 375.728 133.696 376.08 132.288C376.432 130.88 376.688 128.224 376.848 124.32C377.616 124.864 378.528 125.344 379.584 125.76C380.64 126.176 381.6 126.448 382.464 126.576C382.208 131.216 381.536 134.576 380.448 136.656C379.36 138.736 377.424 139.872 374.64 140.064C369.232 140.544 366.336 140.784 365.952 140.784C363.936 140.784 362.448 140.24 361.488 139.152C360.528 138.064 360.048 135.792 360.048 132.336V127.392C358.192 128.672 356.368 129.824 354.576 130.848C353.584 129.536 352.336 128.336 350.832 127.248V142.992L344.784 143.52Z"
    fill="#274AFE" />
  <path
    d="M2.832 197.392C3.76 198.368 4.496 199.232 5.008 199.984L4.304 200.448C3.728 199.616 3.024 198.768 2.16 197.872L2.832 197.392ZM8.352 204.144C9.536 205.44 10.464 206.576 11.104 207.552L10.352 208.064C9.696 207.008 8.8 205.856 7.648 204.592L8.352 204.144ZM6.72 196.96H7.568V198.608C7.552 199.44 7.52 200.24 7.456 200.992H14.096C14.096 205.504 13.888 208.368 13.488 209.584C13.072 210.8 12.336 211.424 11.28 211.424C10.512 211.424 9.888 211.408 9.376 211.376L9.136 210.528C9.904 210.592 10.592 210.624 11.232 210.624C12.256 210.544 12.832 209.6 12.992 207.792C13.136 205.968 13.216 204 13.216 201.856H7.376C7.12 203.872 6.672 205.568 6.032 206.944C5.088 208.88 3.52 210.4 1.344 211.504L0.864 210.736C3.008 209.648 4.528 208.144 5.424 206.224C5.936 204.992 6.304 203.536 6.512 201.856H1.408V200.992H6.608C6.672 200.224 6.704 199.44 6.72 198.608V196.96ZM18.8 202.304C18.224 203.168 17.568 203.968 16.864 204.736L16.576 203.824C18.352 201.776 19.632 199.472 20.416 196.912L21.216 197.28C20.8 198.56 20.272 199.776 19.664 200.896V211.568H18.8V202.304ZM28.736 203.328C29.6 205.248 30.352 207.312 30.992 209.488L30.208 209.84C29.536 207.472 28.784 205.392 27.952 203.584L28.736 203.328ZM23.36 199.856C22.832 201.136 22.208 202.304 21.504 203.36L20.768 202.896C22 201.12 22.896 199.12 23.472 196.88L24.304 197.056C24.112 197.744 23.904 198.4 23.68 199.024H30.592V199.6C30.336 200.592 29.984 201.584 29.552 202.544L28.72 202.304C29.136 201.568 29.456 200.752 29.712 199.856H23.36ZM25.472 211.44H23.36L23.168 210.624C23.872 210.656 24.544 210.688 25.184 210.688C25.6 210.688 25.808 210.48 25.808 210.064V201.36H26.64V210.272C26.64 211.04 26.24 211.44 25.472 211.44ZM23.2 203.44L23.984 203.648C23.376 205.904 22.608 207.872 21.68 209.568L20.848 209.264C21.744 207.744 22.528 205.808 23.2 203.44ZM34.112 200.032H39.568V198.8H33.568V198.064H39.568V196.944H40.432V198.064H46.448V198.8H40.432V200.032H45.888V200.752H34.112V200.032ZM36.592 204.512H35.072V201.76H44.928V204.512H43.504L42.768 205.84H47.104V206.608H32.896V205.84H37.184L36.592 204.512ZM42.592 204.512H37.488L38.08 205.84H41.856L42.592 204.512ZM44.096 203.824V202.432H35.904V203.824H44.096ZM45.168 207.664V211.536H44.336V210.864H35.68V211.536H34.848V207.664H45.168ZM35.68 210.128H44.336V208.4H35.68V210.128ZM62.48 200.976V203.52H61.616V201.776H50.416V203.52H49.552V200.976H52C51.824 200.352 51.632 199.792 51.44 199.312L52.288 199.184C52.48 199.696 52.656 200.304 52.848 200.976H55.76C55.568 200.32 55.376 199.728 55.152 199.184L55.984 199.056C56.208 199.616 56.416 200.256 56.608 200.976H58.816C59.232 200.288 59.6 199.552 59.92 198.752L60.752 199.056C60.448 199.776 60.096 200.416 59.712 200.976H62.48ZM61.856 197.264L62.288 198.048C59.168 198.544 55.024 198.8 49.856 198.8L49.584 197.984C54.576 197.984 58.656 197.744 61.856 197.264ZM53.824 202.288L54.688 202.384C54.592 202.832 54.512 203.248 54.416 203.648H61.344V204.48H54.192C54.032 204.992 53.872 205.488 53.68 205.968H60.784V206.64C59.984 207.728 59.008 208.656 57.872 209.44C59.328 210.064 60.928 210.48 62.672 210.704L62.288 211.472C60.352 211.216 58.624 210.704 57.088 209.936C55.664 210.72 54.128 211.264 52.496 211.584L52.112 210.8C53.68 210.528 55.056 210.096 56.24 209.488C55.104 208.832 54.08 208.048 53.152 207.12C52.224 208.928 50.992 210.352 49.488 211.376L49.072 210.624C51.088 209.184 52.496 207.136 53.312 204.48H50.704V203.648H53.536C53.648 203.2 53.744 202.736 53.824 202.288ZM53.728 206.736C54.704 207.664 55.792 208.432 56.992 209.04C58.08 208.368 58.992 207.6 59.76 206.736H53.728ZM70.336 199.824V210.576H69.504V209.6H66.272V211.024H65.44V199.824H66.88C67.216 198.912 67.456 197.952 67.6 196.96L68.48 197.072C68.304 198.064 68.048 198.976 67.712 199.824H70.336ZM66.272 208.8H69.504V205.008H66.272V208.8ZM66.272 204.224H69.504V200.656H66.272V204.224ZM73.056 203.44C74.272 204.784 75.2 205.952 75.84 206.96L75.152 207.456C74.48 206.368 73.536 205.184 72.352 203.888L73.056 203.44ZM78.624 199.84C78.624 205.008 78.544 208.208 78.4 209.424C78.24 210.704 77.504 211.344 76.176 211.344C75.872 211.344 75.344 211.328 74.608 211.312L74.4 210.512C75.04 210.544 75.6 210.56 76.08 210.56C76.944 210.56 77.44 210.08 77.568 209.136C77.696 208.176 77.76 205.36 77.792 200.704H73.072C72.624 201.744 72.096 202.672 71.456 203.504L70.944 202.832C72.096 201.232 72.88 199.264 73.296 196.944L74.144 197.04C73.952 198.032 73.712 198.976 73.408 199.84H78.624ZM83.792 204.896V205.28C83.792 205.888 83.744 206.48 83.664 207.056H87.856V204.896H83.792ZM83.52 207.856C83.216 209.328 82.656 210.576 81.84 211.616L81.168 211.008C82.32 209.536 82.912 207.648 82.944 205.344V201.296C82.432 201.68 81.92 202.048 81.376 202.384L80.832 201.712C82.976 200.432 84.672 198.816 85.936 196.832L86.784 197.04C86.496 197.488 86.208 197.92 85.904 198.336H92.016V198.992C91.2 199.792 90.384 200.464 89.568 201.008H93.968V210.16C93.968 211.04 93.488 211.488 92.544 211.488H90.448L90.24 210.688C90.976 210.704 91.648 210.72 92.272 210.72C92.816 210.72 93.104 210.432 93.104 209.856V207.856H88.704V211.296H87.856V207.856H83.52ZM93.104 207.056V204.896H88.704V207.056H93.104ZM93.104 204.112V201.824H88.704V204.112H93.104ZM83.312 201.008H88.288C89.152 200.464 90 199.84 90.816 199.104H85.28C84.672 199.792 84.016 200.432 83.312 201.008ZM87.856 201.824H83.792V204.112H87.856V201.824ZM103.872 202.416H99.712V205.6H103.872V202.416ZM104.72 205.6H108.816V202.416H104.72V205.6ZM101.088 199.344C100.032 200.528 98.784 201.584 97.344 202.48L96.768 201.776C98.912 200.464 100.624 198.832 101.888 196.864L102.768 197.072C102.448 197.584 102.112 198.08 101.744 198.544H107.696V199.216C107.024 200.16 106.336 200.944 105.648 201.584H109.68V206.432H99.712V209.696C99.712 210.192 99.984 210.448 100.528 210.464H108.496C109.072 210.448 109.472 210.256 109.696 209.888C109.888 209.568 110.032 208.848 110.128 207.728L110.976 207.984C110.88 209.04 110.72 209.808 110.512 210.272C110.192 210.944 109.6 211.296 108.72 211.312H100.24C99.296 211.312 98.832 210.864 98.832 209.968V201.584H104.48C105.216 200.944 105.92 200.192 106.576 199.344H101.088ZM119.024 202.928H115.28V209.952C115.28 210.304 115.472 210.48 115.872 210.48H119.136C119.744 210.48 120.112 210.336 120.256 210.048C120.416 209.696 120.544 209.056 120.608 208.128L121.424 208.416C121.328 209.728 121.12 210.56 120.832 210.896C120.576 211.152 120.064 211.296 119.328 211.296H115.584C114.8 211.296 114.416 210.928 114.416 210.192V202.144H119.872V206.272C119.872 207.104 119.456 207.552 118.624 207.584C118.016 207.584 117.424 207.552 116.864 207.52L116.64 206.72C117.248 206.752 117.808 206.784 118.352 206.784C118.8 206.784 119.024 206.544 119.024 206.064V202.928ZM116.944 197.152H117.616C118.992 198.624 120.336 200.192 121.648 201.856L121.072 202.448C119.68 200.624 118.448 199.136 117.36 197.968C116.112 199.808 114.704 201.456 113.136 202.912L112.624 202.224C114.208 200.768 115.648 199.072 116.944 197.152ZM122.752 198.384H123.6V208.416H122.752V198.384ZM125.36 211.408H122.832L122.64 210.592C123.488 210.624 124.288 210.64 125.056 210.64C125.472 210.64 125.68 210.4 125.68 209.92V197.024H126.544V210.144C126.544 210.976 126.144 211.408 125.36 211.408ZM135.6 200.176C134.864 201.744 134 203.104 133.008 204.288L132.4 203.568C133.904 201.808 135.088 199.568 135.952 196.88L136.816 197.088C136.56 197.888 136.272 198.624 135.984 199.328H143.152V200.176H137.568V203.088H142.416V203.952H137.568V206.912H142.544V207.76H137.568V211.568H136.704V200.176H135.6ZM130.784 202.192C130.208 202.96 129.584 203.696 128.896 204.4L128.624 203.488C130.416 201.552 131.696 199.376 132.496 196.96L133.296 197.328C132.864 198.608 132.32 199.792 131.648 200.896V211.568H130.784V202.192ZM152.512 202.608C152.16 203.232 151.76 203.792 151.312 204.304L150.768 203.648C152.16 201.984 153.104 199.744 153.584 196.928L154.416 197.072C154.224 198.048 154 198.96 153.744 199.792H159.072V200.656H157.712C157.616 203.424 156.96 205.76 155.744 207.68C156.736 209.056 157.904 210.112 159.264 210.88L158.784 211.616C157.424 210.816 156.256 209.728 155.264 208.368C154.336 209.6 153.136 210.64 151.696 211.472L151.232 210.752C152.704 209.92 153.872 208.896 154.768 207.664C153.84 206.224 153.088 204.544 152.512 202.608ZM153.44 200.656C153.296 200.992 153.152 201.312 153.024 201.632C153.568 203.712 154.304 205.488 155.232 206.944C156.256 205.184 156.816 203.088 156.88 200.656H153.44ZM151.056 204.72V210.16H146.496V211.312H145.664V204.72H147.92V201.232H144.944V200.4H147.92V197.168H148.768V200.4H151.568V201.232H148.768V204.72H151.056ZM146.496 209.36H150.224V205.52H146.496V209.36ZM162.832 199.888H167.568V198.736H161.184V197.968H167.568V196.928H168.432V197.968H174.816V198.736H168.432V199.888H173.168V202.848H168.432V204.016H173.392V206.208H175.264V206.928H173.392V209.04H168.432V210.272C168.432 211.072 168 211.488 167.152 211.488H165.184L165.008 210.672C165.648 210.704 166.272 210.736 166.848 210.736C167.328 210.736 167.568 210.512 167.568 210.064V209.04H162.176V208.32H167.568V206.928H160.736V206.208H167.568V204.72H162.192V204.016H167.568V202.848H162.832V199.888ZM172.304 202.176V200.576H168.432V202.176H172.304ZM167.568 202.176V200.576H163.696V202.176H167.568ZM168.432 204.72V206.208H172.576V204.72H168.432ZM172.576 206.928H168.432V208.32H172.576V206.928ZM178.912 208.4C179.232 208.4 179.472 208.528 179.664 208.784C179.824 209.024 179.92 209.36 179.92 209.776C179.92 210.416 179.728 210.96 179.36 211.424C178.992 211.872 178.512 212.176 177.904 212.336V211.696C178.32 211.568 178.64 211.344 178.864 211.024C179.088 210.736 179.184 210.4 179.184 210.016C179.12 210.032 179.024 210.048 178.864 210.048C178.64 210.048 178.448 209.968 178.288 209.808C178.128 209.648 178.048 209.456 178.048 209.232C178.048 208.976 178.112 208.768 178.272 208.624C178.432 208.464 178.64 208.4 178.912 208.4ZM192.832 203.696H207.152V204.56H192.832V203.696ZM214.832 197.68H222.064V204.304H214.832V197.68ZM221.216 203.488V201.424H215.68V203.488H221.216ZM215.68 200.608H221.216V198.512H215.68V200.608ZM217.952 205.024H218.8V206.704H222.464V207.52H218.8V210.192H223.2V211.024H213.504V210.192H217.952V207.52H214.352V206.704H217.952V205.024ZM210.656 211.408H209.2L209.008 210.576C209.488 210.608 209.936 210.64 210.352 210.64C210.768 210.64 210.992 210.448 210.992 210.064V205.68C210.288 205.936 209.584 206.176 208.864 206.4L208.64 205.536C209.44 205.328 210.224 205.088 210.992 204.8V200.976H208.912V200.128H210.992V197.024H211.856V200.128H213.552V200.976H211.856V204.448C212.432 204.192 213.008 203.92 213.552 203.632V204.512C212.992 204.8 212.432 205.072 211.856 205.312V210.272C211.856 211.024 211.456 211.408 210.656 211.408ZM238.944 198.224V201.056H238.08V199.024H230.08V201.04H229.2V198.224H233.536C233.376 197.776 233.216 197.376 233.04 197.024L233.904 196.864C234.08 197.264 234.256 197.712 234.416 198.224H238.944ZM230.32 200.512H237.808V201.28H234.48V202.64H238.272V208.224H229.856V202.64H233.648V201.28H230.32V200.512ZM237.424 207.472V205.808H234.48V207.472H237.424ZM233.648 207.472V205.808H230.704V207.472H233.648ZM230.704 205.088H233.648V203.392H230.704V205.088ZM234.48 203.392V205.088H237.424V203.392H234.48ZM235.6 208.864C236.976 209.408 238.24 210.064 239.376 210.832L238.88 211.584C237.664 210.704 236.432 210.016 235.152 209.52L235.6 208.864ZM232.464 208.864L233.088 209.424C232.032 210.24 230.72 210.96 229.152 211.568L228.64 210.88C230.144 210.304 231.424 209.632 232.464 208.864ZM225.68 197.248C226.816 198.064 227.776 198.88 228.544 199.68L227.936 200.304C227.232 199.536 226.272 198.72 225.056 197.856L225.68 197.248ZM225.44 201.072C226.512 201.872 227.408 202.688 228.128 203.488L227.504 204.112C226.848 203.328 225.952 202.512 224.816 201.648L225.44 201.072ZM227.728 205.392L228.496 205.696C227.712 207.712 226.848 209.6 225.904 211.36L225.088 211.008C226.112 209.184 226.992 207.312 227.728 205.392ZM246.56 197.68H254.128V198.432C253.6 199.744 252.688 200.864 251.376 201.776C252.448 202.352 253.776 202.768 255.344 202.992L255.04 203.776C253.248 203.504 251.776 202.992 250.624 202.256C249.456 202.928 248.048 203.472 246.416 203.904L245.984 203.152C247.504 202.768 248.8 202.304 249.872 201.728C248.816 200.88 248.048 199.808 247.584 198.496H246.56V197.68ZM248.416 198.496C248.848 199.648 249.584 200.576 250.608 201.296C251.824 200.512 252.688 199.584 253.2 198.496H248.416ZM246.816 205.136H250.208V203.664H251.04V205.136H254.368V205.952H251.04V208.016H255.184V208.832H251.04V211.584H250.208V208.832H246.16V208.016H250.208V205.952H246.816V205.136ZM245.68 208.368V209.232C244.256 209.904 242.64 210.432 240.816 210.848L240.688 209.952C242.592 209.568 244.256 209.04 245.68 208.368ZM243.344 197.024L244.16 197.328C243.36 199.52 242.576 201.232 241.776 202.464C242.592 202.368 243.408 202.224 244.24 202.032C244.528 201.44 244.832 200.8 245.152 200.128L245.952 200.432C244.544 203.344 243.376 205.376 242.464 206.528C243.584 206.256 244.704 205.872 245.824 205.392V206.192C244.288 206.848 242.816 207.296 241.376 207.552L241.136 206.736C241.296 206.672 241.44 206.576 241.552 206.464C242.192 205.744 242.944 204.544 243.824 202.848C242.864 203.04 241.904 203.216 240.976 203.376L240.752 202.528C240.896 202.464 241.024 202.336 241.136 202.176C241.968 200.704 242.704 198.992 243.344 197.024ZM270.128 197.552L270.56 198.288C269.376 198.672 267.984 198.944 266.416 199.12V203.936H271.232V204.784H266.416V210.16H270.432V211.008H261.568V210.16H265.552V204.784H260.768V203.936H265.552V199.2C264.4 199.296 263.168 199.344 261.84 199.344L261.552 198.544C265.04 198.528 267.904 198.192 270.128 197.552ZM260.48 197.024L261.28 197.392C260.832 198.64 260.288 199.824 259.648 200.912V211.6H258.784V202.224C258.208 202.992 257.584 203.728 256.896 204.432L256.608 203.536C258.4 201.616 259.68 199.44 260.48 197.024ZM277.376 198.016H287.248V198.864H285.936V210.176C285.936 211.056 285.472 211.504 284.56 211.504H281.824L281.632 210.672C282.544 210.704 283.424 210.736 284.256 210.736C284.8 210.736 285.072 210.464 285.072 209.952V198.864H277.376V198.016ZM277.872 201.504H282.944V207.328H277.872V201.504ZM282.096 206.528V202.304H278.72V206.528H282.096ZM276.24 196.912L277.024 197.264C276.64 198.496 276.144 199.648 275.568 200.736V211.6H274.72V202.16C274.176 202.96 273.584 203.728 272.928 204.448L272.64 203.552C274.304 201.6 275.504 199.376 276.24 196.912ZM290.864 204.272C290.736 207.056 290.208 209.472 289.28 211.536L288.624 210.96C289.568 208.944 290.048 206.336 290.064 203.168V197.696H297.552V201.36H294.768V203.456H297.872V204.272H294.768V206.464H297.296V211.424H296.48V210.688H292.352V211.424H291.552V206.464H293.92V204.272H290.864ZM293.92 201.36H290.896V203.456H293.92V201.36ZM292.352 209.888H296.48V207.232H292.352V209.888ZM296.72 198.512H290.896V200.576H296.72V198.512ZM298.88 198.384H299.744V207.984H298.88V198.384ZM301.248 211.408H298.96L298.768 210.592C299.536 210.624 300.256 210.64 300.944 210.64C301.456 210.64 301.712 210.368 301.712 209.84V197.024H302.576V210.048C302.576 210.944 302.128 211.408 301.248 211.408ZM311.856 206.88V208.208H317.2V206.88H311.856ZM317.2 206.192V204.784H311.856V206.192H317.2ZM311.856 208.912V211.52H311.024V204.048H318.016V210.272C318.016 211.056 317.632 211.456 316.864 211.456H315.584L315.36 210.672L316.592 210.704C316.992 210.704 317.2 210.496 317.2 210.096V208.912H311.856ZM314.16 196.96H315.024V198.064H318.864V198.8H315.024V200.096H318.32V200.816H315.024V202.096H319.312V202.848H309.808V202.672L309.168 202.832C308.896 201.808 308.56 200.832 308.144 199.904L308.768 199.68C309.152 200.512 309.504 201.472 309.808 202.544V202.096H314.16V200.816H310.816V200.096H314.16V198.8H310.272V198.064H314.16V196.96ZM305.216 200.016L305.904 200.08C305.872 201.68 305.696 203.216 305.376 204.672L304.688 204.464C304.992 203.056 305.168 201.584 305.216 200.016ZM306.88 197.024H307.744V211.488H306.88V197.024ZM324 207.824C324.544 207.824 325.008 208 325.408 208.368C325.792 208.736 325.984 209.2 325.984 209.744C325.984 210.288 325.792 210.736 325.408 211.12C325.008 211.472 324.544 211.664 324 211.664C323.456 211.664 322.976 211.472 322.592 211.12C322.208 210.752 322.016 210.288 322.016 209.744C322.016 209.184 322.208 208.72 322.592 208.368C322.976 208 323.456 207.824 324 207.824ZM324 208.496C323.632 208.496 323.328 208.608 323.088 208.864C322.832 209.088 322.704 209.392 322.704 209.744C322.704 210.096 322.832 210.384 323.088 210.624C323.328 210.864 323.632 210.992 324 210.992C324.352 210.992 324.656 210.864 324.912 210.624C325.168 210.384 325.296 210.096 325.296 209.744C325.296 209.392 325.168 209.104 324.912 208.864C324.656 208.608 324.352 208.496 324 208.496ZM340.576 198.576H341.728L346.304 210H345.232L343.904 206.592H338.4L337.072 210H336L340.576 198.576ZM338.72 205.76H343.584L341.184 199.632H341.136L338.72 205.76ZM347.609 198.576H348.585V210H347.609V198.576ZM353.475 204.496C352.707 205.312 351.811 206.128 350.803 206.944L350.531 206.08C352.979 204.112 354.579 202.208 355.315 200.368H350.979V199.568H356.195V200.288C355.779 201.376 355.171 202.432 354.339 203.488V203.904C354.659 204.112 354.979 204.336 355.283 204.592C355.827 204.256 356.355 203.744 356.851 203.072L357.363 203.584C356.915 204.208 356.403 204.704 355.843 205.056C356.387 205.504 356.883 205.984 357.363 206.496L356.883 207.248C356.051 206.224 355.203 205.376 354.339 204.704V211.6H353.475V204.496ZM353.555 196.976C353.971 197.76 354.291 198.496 354.515 199.168L353.747 199.456C353.459 198.688 353.107 197.936 352.707 197.2L353.555 196.976ZM359.747 196.992H360.595V202.288C362.099 203.296 363.635 204.448 365.187 205.744L364.691 206.496C363.075 205.056 361.715 203.952 360.595 203.168V211.552H359.747V196.992ZM373.747 196.912C374.035 197.52 374.323 198.192 374.579 198.96H380.435V199.776H373.011C371.827 201.664 370.803 202.976 369.955 203.696C372.499 203.568 375.027 203.36 377.555 203.056C377.091 202.432 376.595 201.808 376.051 201.168L376.723 200.736C378.147 202.4 379.235 203.84 379.971 205.072L379.267 205.584C378.915 205.008 378.531 204.4 378.083 203.776C375.251 204.08 372.147 204.32 368.787 204.512L368.579 203.712C368.659 203.68 368.723 203.664 368.771 203.648C369.635 203.168 370.755 201.888 372.147 199.776H367.347V198.96H373.715C373.459 198.256 373.155 197.632 372.835 197.072L373.747 196.912ZM371.299 205.152H372.147C372.019 207.008 371.651 208.368 371.011 209.232C370.307 210.128 369.139 210.896 367.523 211.536L366.963 210.848C368.483 210.288 369.571 209.616 370.211 208.848C370.835 208.08 371.203 206.848 371.299 205.152ZM378.931 211.312H376.499C375.475 211.312 374.963 210.816 374.963 209.84V204.96H375.827V209.68C375.827 210.224 376.131 210.496 376.739 210.496H378.723C379.091 210.496 379.379 210.416 379.603 210.256C379.891 209.984 380.083 209.136 380.163 207.728L380.963 207.984C380.851 209.552 380.611 210.528 380.259 210.88C379.971 211.152 379.523 211.296 378.931 211.312ZM384.707 202.144C384.099 203.008 383.427 203.808 382.691 204.576L382.419 203.68C384.259 201.664 385.587 199.376 386.387 196.816L387.187 197.184C386.739 198.464 386.211 199.648 385.571 200.768V211.6H384.707V202.144ZM388.067 198.576H396.019V199.344C393.683 201.712 392.099 203.392 391.267 204.384C390.259 205.504 389.555 206.512 389.139 207.408C388.851 208.032 388.707 208.56 388.707 209.008C388.707 209.344 388.803 209.632 389.027 209.856C389.283 210.08 389.763 210.192 390.467 210.192H394.803C395.331 210.176 395.715 209.984 395.955 209.6C396.147 209.168 396.259 208.24 396.259 206.816L397.107 207.072C397.107 208.704 396.947 209.76 396.627 210.272C396.323 210.768 395.795 211.024 395.059 211.024H390.307C389.379 211.024 388.739 210.848 388.387 210.512C388.003 210.096 387.827 209.6 387.827 209.008C387.827 208.48 387.987 207.904 388.275 207.264C388.691 206.304 389.427 205.232 390.515 204.016C391.555 202.816 392.963 201.296 394.755 199.44H388.067V198.576ZM405.203 196.944H406.051V198.624H412.355V199.44H406.051V201.744H411.155V206.656H400.835V201.744H405.203V196.944ZM410.307 205.84V202.56H401.699V205.84H410.307ZM400.787 207.472L401.523 207.84C400.915 209.248 400.211 210.464 399.395 211.488L398.691 210.992C399.507 210 400.211 208.832 400.787 207.472ZM404.019 207.92C404.339 208.992 404.643 210.16 404.899 211.408L404.019 211.616C403.811 210.272 403.539 209.104 403.203 208.096L404.019 207.92ZM407.379 207.776C407.859 208.88 408.291 210.08 408.659 211.376L407.795 211.584C407.459 210.208 407.059 208.992 406.579 207.952L407.379 207.776ZM410.739 207.488C411.763 208.848 412.531 210.032 413.075 211.056L412.371 211.552C411.795 210.464 411.011 209.264 410.035 207.936L410.739 207.488ZM419.603 208.512V209.344C418.195 209.952 416.579 210.448 414.787 210.832L414.659 210C416.547 209.632 418.195 209.136 419.603 208.512ZM417.251 196.944L418.051 197.264C417.251 199.504 416.467 201.248 415.667 202.496C416.403 202.4 417.139 202.256 417.907 202.08C418.179 201.472 418.467 200.848 418.771 200.192L419.539 200.48C418.163 203.392 417.043 205.408 416.179 206.544C417.331 206.32 418.467 206.032 419.587 205.648V206.432C418.083 206.928 416.611 207.28 415.171 207.472L414.947 206.704C415.107 206.64 415.235 206.56 415.331 206.464C415.939 205.744 416.675 204.544 417.523 202.864C416.611 203.056 415.731 203.216 414.867 203.344L414.659 202.576C414.787 202.512 414.899 202.416 414.995 202.272C415.859 200.752 416.611 198.976 417.251 196.944ZM424.067 199.12H421.171V203.856H424.067V199.12ZM424.067 204.672H421.171V209.568H424.067V204.672ZM424.867 209.568H427.747V204.672H424.867V209.568ZM424.867 203.856H427.747V199.12H424.867V203.856ZM427.747 210.368H421.171V211.472H420.355V198.32H428.563V211.472H427.747V210.368ZM436.339 202.928H431.683V202.08H443.443C443.379 204.608 443.331 206.096 443.283 206.576C443.219 207.488 443.059 208.112 442.803 208.432C442.515 208.752 442.019 208.928 441.283 208.928C440.835 208.928 440.259 208.944 439.587 208.944L439.363 208.096C439.923 208.096 440.499 208.112 441.075 208.112C441.539 208.112 441.875 207.984 442.099 207.744C442.323 207.504 442.467 206.912 442.515 205.984C442.531 205.536 442.547 204.512 442.563 202.928H437.187V211.52H436.339V202.928ZM430.979 198.624H434.803V196.96H435.683V198.624H440.099V196.96H440.979V198.624H444.803V199.488H440.979V201.12H440.099V199.488H435.683V201.104H434.803V199.488H430.979V198.624ZM448.803 208.4C449.123 208.4 449.363 208.528 449.555 208.784C449.715 209.024 449.811 209.36 449.811 209.776C449.811 210.416 449.619 210.96 449.251 211.424C448.883 211.872 448.403 212.176 447.795 212.336V211.696C448.211 211.568 448.531 211.344 448.755 211.024C448.979 210.736 449.075 210.4 449.075 210.016C449.011 210.032 448.915 210.048 448.755 210.048C448.531 210.048 448.339 209.968 448.179 209.808C448.019 209.648 447.939 209.456 447.939 209.232C447.939 208.976 448.003 208.768 448.163 208.624C448.323 208.464 448.531 208.4 448.803 208.4ZM476.323 198.144V210.928H475.459V209.6H471.267V211.072H470.419V198.144H476.323ZM471.267 208.784H475.459V198.96H471.267V208.784ZM463.075 201.456H465.971V198.88C465.123 199.024 464.243 199.136 463.347 199.2L463.059 198.4C465.379 198.24 467.379 197.824 469.043 197.168L469.459 197.904C468.595 198.224 467.715 198.496 466.803 198.704V201.456H469.635V202.272H466.803V203.184C467.747 204.048 468.707 205.024 469.667 206.128L469.155 206.864C468.243 205.648 467.459 204.688 466.803 203.984V211.488H465.971V203.872C465.267 205.536 464.291 207.04 463.027 208.368L462.659 207.456C464.227 205.936 465.331 204.224 465.971 202.304V202.272H463.075V201.456ZM478.931 198.144H492.851V198.992H484.563V199.664C484.547 200.736 484.483 201.744 484.387 202.672H491.251C491.219 206.816 491.027 209.296 490.643 210.128C490.259 210.928 489.603 211.344 488.659 211.344C488.083 211.344 487.395 211.328 486.595 211.312L486.355 210.48C487.203 210.512 487.907 210.528 488.451 210.544C489.267 210.512 489.779 210.128 489.987 209.376C490.195 208.624 490.323 206.672 490.371 203.504H484.275C484.051 204.992 483.715 206.272 483.235 207.36C482.419 209.136 481.075 210.528 479.203 211.552L478.707 210.784C480.531 209.792 481.827 208.416 482.611 206.656C483.315 204.864 483.667 202.528 483.699 199.664V198.992H478.931V198.144ZM0.976 243.648H7.648V239.264C5.984 239.408 4.176 239.488 2.256 239.488L1.984 238.672C6.656 238.656 10.48 238.208 13.456 237.344L13.888 238.112C12.352 238.592 10.56 238.944 8.512 239.168V243.648H15.024V244.496H8.512V251.52H7.648V244.496H0.976V243.648ZM22.832 237.68H30.064V244.304H22.832V237.68ZM29.216 243.488V241.424H23.68V243.488H29.216ZM23.68 240.608H29.216V238.512H23.68V240.608ZM25.952 245.024H26.8V246.704H30.464V247.52H26.8V250.192H31.2V251.024H21.504V250.192H25.952V247.52H22.352V246.704H25.952V245.024ZM18.656 251.408H17.2L17.008 250.576C17.488 250.608 17.936 250.64 18.352 250.64C18.768 250.64 18.992 250.448 18.992 250.064V245.68C18.288 245.936 17.584 246.176 16.864 246.4L16.64 245.536C17.44 245.328 18.224 245.088 18.992 244.8V240.976H16.912V240.128H18.992V237.024H19.856V240.128H21.552V240.976H19.856V244.448C20.432 244.192 21.008 243.92 21.552 243.632V244.512C20.992 244.8 20.432 245.072 19.856 245.312V250.272C19.856 251.024 19.456 251.408 18.656 251.408ZM33.936 237.12C35.024 238.016 35.936 238.912 36.672 239.808L36.064 240.416C35.392 239.552 34.48 238.656 33.344 237.696L33.936 237.12ZM43.312 251.264C42.432 251.264 41.488 251.248 40.464 251.232C39.424 251.2 38.592 251.104 37.968 250.928C37.344 250.736 36.784 250.352 36.272 249.744C36.048 249.456 35.856 249.328 35.664 249.328C35.216 249.328 34.512 250.08 33.552 251.616L32.896 251.024C33.792 249.616 34.592 248.784 35.264 248.544V243.424H32.896V242.592H36.08V248.576C36.24 248.672 36.416 248.816 36.592 249.024C36.992 249.504 37.424 249.856 37.888 250.08C38.416 250.272 39.152 250.384 40.096 250.416C40.896 250.432 41.936 250.448 43.184 250.448H45.488C46.256 250.416 46.864 250.4 47.28 250.384L47.072 251.264H43.312ZM39.328 239.824C39.04 240.432 38.72 241.008 38.368 241.52L37.664 241.056C38.432 239.952 39.008 238.704 39.376 237.296L40.192 237.472C40.032 238.016 39.872 238.528 39.68 239.008H42.048V236.976H42.864V239.008H46.272V239.824H42.864V242.192H47.072V242.992H37.376V242.192H42.048V239.824H39.328ZM38.816 244.48H45.76V248.784H38.816V244.48ZM44.928 247.984V245.296H39.648V247.984H44.928ZM49.408 239.152H50.24V247.472H49.408V239.152ZM52.224 236.992H53.056V244.672C53.008 247.808 51.984 250.112 49.968 251.568L49.328 250.992C51.216 249.68 52.192 247.568 52.224 244.672V236.992ZM54.176 237.728H63.104V238.56H59.072V240.928H62.576V248.672C62.576 249.472 62.208 249.888 61.504 249.888H60.32L60.096 249.04L61.216 249.072C61.568 249.072 61.744 248.88 61.744 248.496V241.744H59.072V251.568H58.24V241.744H55.568V249.936H54.736V240.928H58.24V238.56H54.176V237.728ZM66.832 242.24C66.272 243.168 65.648 244.032 64.96 244.848L64.656 243.872C66.256 241.872 67.408 239.6 68.112 237.072L68.896 237.44C68.56 238.56 68.16 239.616 67.696 240.608V251.52H66.832V242.24ZM77.36 240.016V237.744H78.176V240.8H70.048V237.776H70.88V240.016H73.712V237.04H74.576V240.016H77.36ZM71.296 245.904V247.472H74.64V245.904H71.296ZM71.296 248.176V249.872H74.64V248.176H71.296ZM71.296 250.64V251.456H70.48V244.912C70 245.664 69.488 246.336 68.928 246.944L68.384 246.304C69.568 245.024 70.528 243.392 71.232 241.424L72.048 241.616C71.888 242.064 71.712 242.496 71.536 242.912H74.784C74.544 242.4 74.272 241.92 73.968 241.488L74.8 241.36C75.088 241.808 75.344 242.336 75.6 242.912H78.784V243.664H75.44V245.184H78.304V245.904H75.44V247.472H78.352V248.176H75.44V249.872H79.168V250.64H71.296ZM74.64 243.664H71.296V245.184H74.64V243.664ZM85.712 236.864L86.528 237.248C85.952 238.624 85.216 239.904 84.336 241.088V251.6H83.472V242.16C82.704 243.024 81.856 243.856 80.928 244.624L80.656 243.728C82.992 241.712 84.672 239.424 85.712 236.864ZM92.928 251.296H89.808C88.816 251.296 88.32 250.784 88.32 249.792V244.608C87.568 245.04 86.816 245.44 86.048 245.808L85.632 244.976C86.576 244.56 87.472 244.096 88.32 243.6V237.04H89.184V243.056C90.944 241.904 92.496 240.56 93.808 239.056L94.4 239.728C92.928 241.376 91.184 242.832 89.184 244.08V249.664C89.184 250.192 89.456 250.464 90.016 250.464H92.784C93.232 250.464 93.568 250.32 93.776 250.064C93.984 249.776 94.112 248.8 94.176 247.12L94.976 247.376C94.88 249.216 94.704 250.336 94.432 250.736C94.144 251.104 93.648 251.296 92.928 251.296ZM98.64 242.384V245.344H100.976V242.384H98.64ZM100.976 241.568V238.544H98.64V241.568H100.976ZM98.608 246.16C98.496 248.384 98.08 250.208 97.344 251.648L96.672 251.024C97.408 249.52 97.776 247.6 97.808 245.28V237.696H101.84V250.24C101.84 251.072 101.408 251.504 100.576 251.504H99.44L99.216 250.688C99.6 250.704 99.968 250.72 100.304 250.72C100.752 250.72 100.976 250.448 100.976 249.936V246.16H98.608ZM105.52 240.848C106.144 241.968 106.704 243.04 107.216 244.048C107.6 242.992 107.92 241.824 108.144 240.576L108.928 240.704C108.624 242.304 108.208 243.728 107.68 244.992C108.224 246.128 108.704 247.184 109.088 248.16L108.432 248.624C108.08 247.744 107.696 246.832 107.264 245.904C106.688 247.056 106.016 248.048 105.248 248.896L104.72 248.24C105.552 247.312 106.256 246.224 106.832 244.976C106.24 243.792 105.584 242.544 104.864 241.248L105.52 240.848ZM106.848 236.96C107.056 237.536 107.248 238.208 107.44 238.944H111.248V239.792H102.8V238.944H106.576C106.384 238.272 106.192 237.664 105.984 237.12L106.848 236.96ZM104.192 250.656V251.44H103.376V241.84H104.192V249.856H109.792V241.808H110.608V251.408H109.792V250.656H104.192ZM113.712 237.248C114.816 238 115.744 238.768 116.48 239.536L115.872 240.128C115.184 239.392 114.272 238.624 113.12 237.824L113.712 237.248ZM113.504 241.024C114.544 241.792 115.424 242.576 116.128 243.36L115.52 243.952C114.88 243.216 114 242.432 112.896 241.6L113.504 241.024ZM115.632 245.408L116.384 245.712C115.584 247.728 114.704 249.616 113.728 251.376L112.896 251.024C113.952 249.2 114.864 247.328 115.632 245.408ZM119.744 243.184H124.192V248.32H119.744V243.184ZM123.392 247.552V243.968H120.528V247.552H123.392ZM125.12 251.456H123.072L122.832 250.608L124.832 250.64C125.408 250.64 125.696 250.4 125.696 249.92V238.496H118.096V251.504H117.248V237.664H126.544V250.112C126.544 251.008 126.064 251.456 125.12 251.456ZM119.264 240.512H124.688V241.328H119.264V240.512ZM130.912 248.4C131.232 248.4 131.472 248.528 131.664 248.784C131.824 249.024 131.92 249.36 131.92 249.776C131.92 250.416 131.728 250.96 131.36 251.424C130.992 251.872 130.512 252.176 129.904 252.336V251.696C130.32 251.568 130.64 251.344 130.864 251.024C131.088 250.736 131.184 250.4 131.184 250.016C131.12 250.032 131.024 250.048 130.864 250.048C130.64 250.048 130.448 249.968 130.288 249.808C130.128 249.648 130.048 249.456 130.048 249.232C130.048 248.976 130.112 248.768 130.272 248.624C130.432 248.464 130.64 248.4 130.912 248.4ZM145.712 240.32H148.72V236.864H149.584V240.32H154.416V236.928H155.28V240.32H158.304V241.152H155.28V245.296H159.104V246.144H144.896V245.296H148.72V241.152H145.712V240.32ZM149.584 245.296H154.416V241.152H149.584V245.296ZM149.872 246.928L150.528 247.504C149.184 249.024 147.504 250.352 145.52 251.504L144.928 250.736C146.88 249.648 148.528 248.368 149.872 246.928ZM154.24 246.96C156.16 248.24 157.76 249.536 159.056 250.816L158.368 251.472C157.2 250.24 155.616 248.928 153.616 247.552L154.24 246.96ZM167.024 242.928H163.28V249.952C163.28 250.304 163.472 250.48 163.872 250.48H167.136C167.744 250.48 168.112 250.336 168.256 250.048C168.416 249.696 168.544 249.056 168.608 248.128L169.424 248.416C169.328 249.728 169.12 250.56 168.832 250.896C168.576 251.152 168.064 251.296 167.328 251.296H163.584C162.8 251.296 162.416 250.928 162.416 250.192V242.144H167.872V246.272C167.872 247.104 167.456 247.552 166.624 247.584C166.016 247.584 165.424 247.552 164.864 247.52L164.64 246.72C165.248 246.752 165.808 246.784 166.352 246.784C166.8 246.784 167.024 246.544 167.024 246.064V242.928ZM164.944 237.152H165.616C166.992 238.624 168.336 240.192 169.648 241.856L169.072 242.448C167.68 240.624 166.448 239.136 165.36 237.968C164.112 239.808 162.704 241.456 161.136 242.912L160.624 242.224C162.208 240.768 163.648 239.072 164.944 237.152ZM170.752 238.384H171.6V248.416H170.752V238.384ZM173.36 251.408H170.832L170.64 250.592C171.488 250.624 172.288 250.64 173.056 250.64C173.472 250.64 173.68 250.4 173.68 249.92V237.024H174.544V250.144C174.544 250.976 174.144 251.408 173.36 251.408ZM188.656 237.648V241.216H179.456V242.496C179.456 243.056 179.744 243.344 180.32 243.36H188.864C189.264 243.36 189.552 243.232 189.712 242.992C189.84 242.784 189.952 242.336 190.016 241.632L190.8 241.888C190.72 242.608 190.608 243.12 190.448 243.44C190.192 243.904 189.744 244.144 189.072 244.16H180.048C179.088 244.16 178.608 243.696 178.608 242.768V237.648H188.656ZM179.456 240.432H187.824V238.448H179.456V240.432ZM176.752 246.736H180.976C180.976 246.304 180.992 245.664 180.992 244.816H181.856C181.856 245.76 181.84 246.4 181.824 246.736H186.32V244.832H187.184V246.736H191.28V247.552H187.184V251.456H186.32V247.552H181.712C181.344 249.52 180.176 250.848 178.192 251.52L177.744 250.768C179.504 250.224 180.56 249.152 180.88 247.552H176.752V246.736ZM200.048 237.68H205.904V245.376H200.048V237.68ZM205.056 244.608V243.024H200.896V244.608H205.056ZM200.896 242.288H205.056V240.784H200.896V242.288ZM200.896 240.048H205.056V238.48H200.896V240.048ZM196.624 241.488V245.712H195.76V241.024C195.04 242.48 194.096 243.792 192.944 244.96L192.624 244.128C193.952 242.912 194.976 241.488 195.712 239.84H192.992V239.008H195.76V237.168H196.624V239.008H198.848V239.84H196.624V240.72C197.488 241.36 198.352 242.08 199.248 242.896L198.752 243.616C197.92 242.72 197.216 242.016 196.624 241.488ZM194.544 246.688L195.392 246.88C194.976 248.416 194.368 249.728 193.6 250.848L192.848 250.368C193.616 249.28 194.192 248.064 194.544 246.688ZM202.048 251.216H198.112C197.184 251.216 196.736 250.736 196.736 249.776V246.464H197.6V249.6C197.6 250.112 197.856 250.368 198.384 250.368H201.888C202.32 250.368 202.624 250.288 202.784 250.128C203.008 249.888 203.168 249.232 203.248 248.144L204.064 248.416C203.968 249.728 203.744 250.544 203.408 250.848C203.136 251.088 202.688 251.216 202.048 251.216ZM199.776 246.192C200.576 247.04 201.2 247.776 201.632 248.4L200.928 248.896C200.48 248.208 199.856 247.456 199.088 246.624L199.776 246.192ZM204.784 246.304C205.872 247.68 206.688 248.88 207.264 249.92L206.544 250.432C205.936 249.312 205.12 248.08 204.08 246.736L204.784 246.304ZM209.216 237.728H222.752V238.592H214.224L213.504 241.504H220.48L219.152 250.128H223.184V250.976H208.96V250.128H218.32L218.816 246.992H211.312L213.344 238.592H209.216V237.728ZM218.944 246.176L219.568 242.32H213.312L212.368 246.176H218.944ZM225.488 238.192H231.184V239.008H225.488V238.192ZM224.848 242.496H231.808V243.36H228.048C227.328 246 226.704 247.84 226.176 248.88C227.6 248.624 229.008 248.224 230.416 247.696C229.968 246.768 229.536 245.92 229.088 245.152L229.824 244.8C230.608 246.176 231.344 247.664 232.048 249.296L231.28 249.68C231.088 249.232 230.912 248.8 230.736 248.416C229.024 249.024 227.168 249.504 225.168 249.872L224.96 249.056C225.04 249.024 225.104 249.008 225.136 248.976C225.648 248.304 226.336 246.432 227.2 243.36H224.848V242.496ZM234.384 237.008H235.248V240.352H238.768C238.768 245.184 238.688 248.192 238.544 249.344C238.384 250.704 237.648 251.392 236.32 251.392C236.032 251.392 235.552 251.376 234.88 251.344L234.672 250.592C235.28 250.608 235.792 250.624 236.24 250.624C237.072 250.624 237.568 250.096 237.712 249.072C237.84 248.176 237.904 245.536 237.936 241.184H235.248V241.424C235.2 246.048 234.08 249.424 231.888 251.568L231.232 250.992C233.296 249.008 234.352 245.808 234.384 241.424V241.184H232.128V240.352H234.384V237.008ZM247.328 251.376H244.8L244.592 250.496C245.44 250.528 246.24 250.56 247.008 250.56C247.568 250.56 247.856 250.272 247.856 249.712V237.216H248.752V249.936C248.752 250.896 248.272 251.376 247.328 251.376ZM243.584 240.928L244.448 241.264C243.664 244.464 242.64 246.912 241.36 248.592L240.608 247.952C241.92 246.224 242.912 243.872 243.584 240.928ZM252.256 240.56C253.616 243.44 254.656 245.968 255.376 248.112L254.592 248.656C253.824 246.352 252.784 243.824 251.472 241.04L252.256 240.56ZM256.816 240.864H258.96V237.168H259.84V240.864H263.392V237.008H264.256V240.864H267.792V237.008H268.64V240.864H271.168V241.712H268.64V246.752H263.392V241.712H259.84V250.048H270.624V250.912H258.96V241.712H256.816V240.864ZM264.256 241.712V245.888H267.792V241.712H264.256ZM274.592 237.664H285.472V243.792H282.24C283.296 245.152 285.008 246.224 287.344 246.992L286.976 247.76C284.304 246.752 282.432 245.424 281.344 243.792H278.64C277.52 245.344 275.68 246.624 273.104 247.648L272.624 246.896C274.976 246.096 276.688 245.056 277.76 243.792H274.592V237.664ZM284.624 243.024V241.088H280.432V243.024H284.624ZM279.568 243.024V241.088H275.44V243.024H279.568ZM275.44 240.336H279.568V238.448H275.44V240.336ZM280.432 238.448V240.336H284.624V238.448H280.432ZM277.28 245.632H278.144C278.144 246.88 277.952 247.952 277.6 248.816C277.104 249.968 276 250.896 274.304 251.616L273.744 250.912C275.216 250.32 276.208 249.552 276.72 248.608C277.088 247.824 277.28 246.832 277.28 245.632ZM282.096 245.648H282.976V251.6H282.096V245.648ZM292 247.824C292.544 247.824 293.008 248 293.408 248.368C293.792 248.736 293.984 249.2 293.984 249.744C293.984 250.288 293.792 250.736 293.408 251.12C293.008 251.472 292.544 251.664 292 251.664C291.456 251.664 290.976 251.472 290.592 251.12C290.208 250.752 290.016 250.288 290.016 249.744C290.016 249.184 290.208 248.72 290.592 248.368C290.976 248 291.456 247.824 292 247.824ZM292 248.496C291.632 248.496 291.328 248.608 291.088 248.864C290.832 249.088 290.704 249.392 290.704 249.744C290.704 250.096 290.832 250.384 291.088 250.624C291.328 250.864 291.632 250.992 292 250.992C292.352 250.992 292.656 250.864 292.912 250.624C293.168 250.384 293.296 250.096 293.296 249.744C293.296 249.392 293.168 249.104 292.912 248.864C292.656 248.608 292.352 248.496 292 248.496Z"
    fill="white" />
</svg>