<svg width="203" height="64" viewBox="0 0 203 64" fill="none" xmlns="http://www.w3.org/2000/svg">
  <path
    d="M0 32C0 14.3269 14.3269 0 32 0H171C188.673 0 203 14.3269 203 32C203 49.6731 188.673 64 171 64H32C14.3269 64 0 49.6731 0 32Z"
    fill="#C0C6E3" />
  <path
    d="M45.3773 10.0474C35.9493 10.6329 29.4083 15.5919 25.6444 24.2105C24.6578 26.4795 24.3106 28.9132 24 31.3653C24 32.0972 24 32.8292 24 33.5611C24.0548 33.8905 24.1279 34.2198 24.1462 34.5492C24.676 40.3682 27.1426 45.2539 31.3998 49.2247C33.6472 51.3107 36.26 52.8661 39.1651 53.8542C40.1152 54.1836 40.9008 53.9457 40.9556 53.2321C41.047 51.7316 40.9922 50.2311 40.9922 48.694C40.645 48.7489 40.3892 48.7672 40.1517 48.8038C37.2649 49.243 34.2867 48.5294 33.0442 45.3088C32.6423 44.2841 31.5825 43.5155 30.8151 42.6372C30.5593 42.3444 30.2487 42.0699 29.9747 41.7772C30.0112 41.6491 30.066 41.5393 30.1026 41.4112C30.7238 41.4478 31.3816 41.3929 31.9845 41.5759C33.1721 41.9236 33.9578 42.8202 34.6155 43.8449C35.9859 46.0224 38.288 46.7361 40.645 45.7297C40.8643 45.6382 41.047 45.4003 41.1566 45.1807C41.5403 44.3024 41.8875 43.4057 42.2529 42.5091C42.2894 42.5274 42.2164 42.4908 42.1433 42.4725C41.8692 42.4176 41.6134 42.381 41.3393 42.3261C38.8362 41.887 36.5523 41.0818 34.7252 39.1788C32.1672 36.5072 31.0161 29.2975 34.2501 25.711C34.4328 25.5097 34.4876 25.1071 34.4146 24.8327C34.0126 23.2956 34.1222 21.7768 34.4876 20.2397C34.6886 19.398 35.182 19.0869 35.9128 19.3614C37.3745 19.9103 38.8362 20.5142 40.2431 21.2095C40.7912 21.484 41.248 21.6121 41.8509 21.4657C45.0667 20.7155 48.3006 20.7155 51.5164 21.4657C52.0828 21.5938 52.5396 21.5572 53.0512 21.2095C54.4763 20.2763 55.9745 19.4895 57.7286 19.2882C58.3132 19.215 58.6056 19.398 58.77 20.0018C59.2085 21.5572 59.373 23.0943 58.9527 24.668C58.8797 24.9608 58.8979 25.4182 59.0806 25.6378C60.652 27.6323 61.2001 29.8831 61.0722 32.3717C60.7981 37.6783 58.295 40.8073 53.3069 42.0333C52.5213 42.2163 51.7356 42.3444 50.8586 42.5091C52.0828 43.9181 52.3386 45.5101 52.3203 47.1936C52.302 48.9319 52.3203 50.652 52.3203 52.3904C52.3203 53.8725 52.905 54.2751 54.3301 53.7811C64.3062 50.3409 70.7376 39.6911 69.0932 29.2792C67.193 17.5315 57.217 9.29715 45.3773 10.0474Z"
    fill="black" />
  <path
    d="M96.0249 29.8099C93.3573 29.8099 90.6715 29.8099 88.0039 29.8099C87.5106 29.8099 87.2913 30.0112 87.3096 30.5235C87.3279 31.6763 87.3461 32.8292 87.3096 33.982C87.273 34.6956 87.5836 34.8603 88.2231 34.842C89.1184 34.8054 90.032 34.8237 90.9821 34.8237C90.9821 36.617 90.9821 38.3004 90.9821 40.1303C89.9772 40.1852 89.0088 40.2767 88.0587 40.2767C85.5921 40.2767 83.9111 39.0873 83.1072 36.7451C82.1388 33.9454 82.1571 31.0725 82.7783 28.1996C83.4361 25.1986 85.044 23.6433 88.077 23.4603C89.9224 23.3505 91.8226 23.6433 93.6679 23.9543C94.5084 24.1007 94.7459 23.9543 94.8738 23.1858C95.02 22.3258 95.2758 21.4657 95.4768 20.624C95.7874 19.3431 95.7509 19.2333 94.4719 18.8124C91.9687 17.989 89.4108 17.9341 86.8528 18.0439C82.1388 18.2635 78.8135 20.8436 77.4797 25.345C76.3286 29.2243 76.2555 33.1951 77.096 37.1476C77.7172 40.0937 79.1058 42.5457 81.81 44.0828C83.6919 45.1624 85.7931 45.5284 87.9308 45.6382C90.708 45.7663 93.3939 45.3637 95.8788 44.0645C96.2442 43.8815 96.6827 43.3874 96.6827 43.0398C96.7375 38.886 96.7192 34.7139 96.7192 30.5601C96.7192 30.0478 96.5365 29.8099 96.0249 29.8099Z"
    fill="black" />
  <path
    d="M140.625 19.8005C140.625 19.215 140.406 18.9771 139.821 18.9954C138.487 19.0137 137.153 19.032 135.801 18.9954C135.125 18.9771 134.906 19.2333 134.924 19.9103C134.961 22.527 134.943 25.1437 134.943 27.7421C134.943 28.0715 134.943 28.3826 134.943 28.7486C132.385 28.7486 129.973 28.7486 127.451 28.7486C127.451 28.3826 127.451 28.0532 127.451 27.7238C127.451 25.1986 127.415 22.6734 127.47 20.1665C127.488 19.215 127.159 18.9405 126.264 18.9954C125.076 19.0686 123.888 19.0503 122.701 18.9954C122.007 18.9771 121.732 19.1967 121.732 19.9286C121.751 28.0166 121.751 36.0863 121.732 44.1743C121.732 44.8879 121.933 45.2356 122.719 45.199C123.962 45.1624 125.204 45.1624 126.465 45.199C127.214 45.2173 127.47 44.9428 127.47 44.1926C127.433 41.2099 127.451 38.2455 127.451 35.2629C127.451 34.842 127.451 34.4211 127.451 33.982C129.991 33.982 132.421 33.982 134.943 33.982C134.943 34.3662 134.943 34.6956 134.943 35.025C134.943 38.0991 134.961 41.155 134.924 44.2292C134.924 44.9428 135.143 45.2173 135.856 45.199C137.172 45.1624 138.469 45.1807 139.784 45.199C140.406 45.199 140.643 44.9611 140.643 44.3207C140.625 36.1412 140.625 27.9617 140.625 19.8005Z"
    fill="black" />
  <path
    d="M158.512 27.303C157.27 27.3396 156.009 27.3579 154.767 27.303C153.945 27.2664 153.744 27.5592 153.744 28.346C153.78 32.024 153.762 35.702 153.744 39.38C153.744 39.6911 153.634 40.1669 153.415 40.295C152.373 40.9354 151.204 41.2465 150.016 40.8988C149.523 40.7524 149.084 40.1852 148.81 39.7094C148.591 39.3252 148.646 38.7579 148.628 38.2821C148.609 34.9152 148.609 31.53 148.628 28.163C148.628 27.5409 148.463 27.2847 147.805 27.303C146.435 27.3396 145.065 27.3213 143.694 27.303C143.165 27.303 142.927 27.4494 142.927 28.0349C142.945 32.1338 142.89 36.2327 142.982 40.3316C143.055 43.3508 144.644 45.0343 147.604 45.5101C148.445 45.6382 149.322 45.748 150.144 45.6016C151.88 45.2722 153.579 44.7415 155.351 44.2841C155.333 44.9977 155.826 45.2539 156.63 45.1807C157.27 45.1258 157.909 45.1441 158.549 45.1807C159.17 45.199 159.389 44.9428 159.389 44.3024C159.371 38.9226 159.371 33.5428 159.389 28.163C159.444 27.486 159.17 27.2847 158.512 27.303Z"
    fill="black" />
  <path
    d="M117.548 40.9903C117.494 40.9903 117.42 40.9903 117.366 40.9903C115.995 40.8805 115.411 40.2584 115.392 38.886C115.392 36.8548 115.392 34.8054 115.392 32.7743C115.392 32.5364 115.447 32.3168 115.465 32.0423C116.562 32.0423 117.585 32.024 118.626 32.0423C119.156 32.0423 119.412 31.841 119.412 31.2921C119.394 30.1942 119.394 29.0962 119.412 28.0166C119.43 27.4311 119.156 27.303 118.626 27.303C117.603 27.3213 116.562 27.303 115.392 27.303C115.392 25.7842 115.411 24.3935 115.374 23.0028C115.374 22.7283 115.137 22.2526 115.009 22.2526C113.291 22.1977 111.574 22.216 109.765 22.216C109.765 24.0458 109.765 25.7293 109.765 27.4311C109.326 27.5409 108.979 27.6323 108.632 27.7055C106.878 28.1081 106.878 28.1081 106.878 29.9014C106.878 30.3588 106.896 30.8163 106.878 31.2738C106.841 31.8227 107.097 32.0423 107.627 32.0423C108.321 32.024 109.016 32.0423 109.801 32.0423C109.801 32.4449 109.801 32.7743 109.801 33.1036C109.801 35.3178 109.765 37.5319 109.82 39.7643C109.893 43.2593 111.592 45.1807 114.881 45.5284C115.63 45.6016 116.397 45.6016 117.165 45.5467C119.522 45.382 119.522 45.3637 119.522 43.0398C119.485 41.0635 119.485 41.0635 117.548 40.9903Z"
    fill="black" />
  <path
    d="M105.124 36.1778C105.124 33.5428 105.106 30.8895 105.124 28.2545C105.124 27.5775 104.941 27.2664 104.192 27.303C102.858 27.3579 101.525 27.3396 100.172 27.303C99.6243 27.2847 99.4051 27.486 99.4051 28.0349C99.4051 33.433 99.4051 38.8494 99.4051 44.2475C99.4051 44.8696 99.6792 45.1075 100.282 45.1075C101.525 45.0892 102.785 45.0526 104.028 45.1258C104.886 45.1624 105.142 44.833 105.124 44.0096C105.106 41.4112 105.124 38.7945 105.124 36.1778Z"
    fill="black" />
  <path
    d="M102.328 19.5627C100.574 19.5627 99.1676 21.0083 99.1858 22.7832C99.2041 24.5216 100.574 25.9123 102.292 25.9123C104.064 25.9123 105.435 24.5399 105.416 22.7283C105.416 20.9717 104.046 19.5627 102.328 19.5627Z"
    fill="black" />
  <path
    d="M178.081 30.5601C177.24 28.1813 175.413 26.9553 172.892 26.7723C171.065 26.6442 169.329 26.9919 167.593 27.8885C167.575 27.5592 167.538 27.3762 167.538 27.1932C167.538 24.7595 167.52 22.3258 167.557 19.9103C167.575 19.1967 167.319 18.9405 166.606 18.9771C165.419 19.032 164.231 18.9954 163.044 18.9954C161.838 18.9954 161.838 18.9954 161.838 20.2214C161.838 27.6323 161.838 35.0433 161.838 42.4542C161.838 45.1807 161.838 45.1441 164.597 45.1807C165.528 45.199 166.278 45.1258 166.168 43.7717C168.196 45.2539 170.352 45.6931 172.672 45.5833C175.194 45.4735 177.112 44.4122 177.953 41.9785C179.232 38.2272 179.415 34.3662 178.081 30.5601ZM172.892 39.5264C172.654 40.4048 171.996 40.8805 171.083 40.972C170.663 41.0086 170.224 41.0269 169.804 40.972C167.684 40.7341 167.447 40.4597 167.447 38.3553C167.447 37.6234 167.447 36.8914 167.447 36.1595C167.447 35.3178 167.429 34.476 167.447 33.6343C167.447 33.3598 167.465 33.067 167.483 32.7926C167.502 32.4815 167.776 32.0423 168.05 31.9325C168.708 31.658 169.438 31.4568 170.151 31.3653C171.485 31.2006 172.508 31.841 172.91 33.1219C173.549 35.2629 173.44 37.4221 172.892 39.5264Z"
    fill="black" />
</svg>