<svg width="128" height="64" viewBox="0 0 128 64" fill="none" xmlns="http://www.w3.org/2000/svg">
  <rect x="0.75" y="0.75" width="126.5" height="62.5" rx="31.25" stroke="#E2DBC9" stroke-width="1.5" />
  <path fill-rule="evenodd" clip-rule="evenodd"
    d="M93.2919 43.7146C92.9113 43.334 92.9113 42.717 93.2919 42.3364L102.654 32.9745L23.9745 32.9745C23.4363 32.9745 23 32.5382 23 32C23 31.4618 23.4363 31.0255 23.9745 31.0255L102.654 31.0255L93.2919 21.6636C92.9113 21.283 92.9113 20.666 93.2919 20.2854C93.6724 19.9049 94.2895 19.9049 94.67 20.2854L105.696 31.3109C106.076 31.6915 106.076 32.3085 105.696 32.6891L94.67 43.7146C94.2895 44.0951 93.6724 44.0951 93.2919 43.7146Z"
    fill="#E2DBC9" />
</svg>