<svg width="32" height="32" viewBox="0 0 32 32" fill="none" xmlns="http://www.w3.org/2000/svg">
  <path
    d="M8.66669 23.4167C9.0809 23.4167 9.41669 23.0809 9.41669 22.6667C9.41669 22.2525 9.0809 21.9167 8.66669 21.9167V23.4167ZM23.3334 21.9167C22.9191 21.9167 22.5834 22.2525 22.5834 22.6667C22.5834 23.0809 22.9191 23.4167 23.3334 23.4167V21.9167ZM25.3249 11.0051L24.5758 10.9676C24.5593 11.2993 24.7628 11.6024 25.076 11.7126L25.3249 11.0051ZM12.0852 11.7351L11.6574 12.3511C11.9044 12.5227 12.2301 12.5301 12.4847 12.3698C12.7393 12.2096 12.8735 11.9128 12.8256 11.6158L12.0852 11.7351ZM11.5137 18.8365C11.1984 19.1051 11.1605 19.5784 11.4291 19.8938C11.6977 20.2091 12.1711 20.2469 12.4864 19.9783L11.5137 18.8365ZM16 16L16.4864 15.4291C16.2061 15.1903 15.794 15.1903 15.5137 15.4291L16 16ZM19.5137 19.9783C19.829 20.2469 20.3023 20.2091 20.571 19.8938C20.8396 19.5784 20.8017 19.1051 20.4864 18.8365L19.5137 19.9783ZM15.25 25.3333C15.25 25.7475 15.5858 26.0833 16 26.0833C16.4142 26.0833 16.75 25.7475 16.75 25.3333H15.25ZM8.66669 21.9167C5.76719 21.9167 3.41669 19.5662 3.41669 16.6667H1.91669C1.91669 20.3946 4.93876 23.4167 8.66669 23.4167V21.9167ZM3.41669 16.6667C3.41669 13.7672 5.76719 11.4167 8.66669 11.4167V9.91667C4.93877 9.91667 1.91669 12.9387 1.91669 16.6667H3.41669ZM28.5834 16.6667C28.5834 19.5662 26.2328 21.9167 23.3334 21.9167V23.4167C27.0613 23.4167 30.0834 20.3946 30.0834 16.6667H28.5834ZM12.75 10.6667C12.75 7.39898 15.399 4.75 18.6667 4.75V3.25C14.5706 3.25 11.25 6.57055 11.25 10.6667H12.75ZM18.6667 4.75C21.9344 4.75 24.5834 7.39898 24.5834 10.6667H26.0834C26.0834 6.57055 22.7628 3.25 18.6667 3.25V4.75ZM24.5834 10.6667C24.5834 10.7677 24.5808 10.868 24.5758 10.9676L26.074 11.0426C26.0802 10.918 26.0834 10.7927 26.0834 10.6667H24.5834ZM25.076 11.7126C27.12 12.4316 28.5834 14.3792 28.5834 16.6667H30.0834C30.0834 13.723 28.1994 11.2212 25.5738 10.2976L25.076 11.7126ZM12.8256 11.6158C12.7759 11.3072 12.75 10.9902 12.75 10.6667H11.25C11.25 11.0704 11.2824 11.4672 11.3447 11.8544L12.8256 11.6158ZM8.66669 11.4167C9.77927 11.4167 10.809 11.7619 11.6574 12.3511L12.513 11.1191C11.4215 10.361 10.0949 9.91667 8.66669 9.91667V11.4167ZM12.4864 19.9783L16.4864 16.5709L15.5137 15.4291L11.5137 18.8365L12.4864 19.9783ZM15.5137 16.5709L19.5137 19.9783L20.4864 18.8365L16.4864 15.4291L15.5137 16.5709ZM15.25 16V25.3333H16.75V16H15.25Z"
    fill="white" />
</svg>