<svg width="72" height="24" viewBox="0 0 72 24" fill="none" xmlns="http://www.w3.org/2000/svg">
  <path
    d="M12.3186 18.2177C12.3186 16.942 12.3186 15.8703 12.3186 14.5946C14.9522 14.5946 17.5858 14.5946 20.2619 14.5946C20.3469 13.9822 20.3894 13.574 20.4319 13.1147C21.3664 13.1147 22.2584 13.1147 23.2354 13.1147C23.3204 13.523 23.4053 13.9312 23.4903 14.4925C25.6991 14.4925 27.8655 14.4925 30.0743 14.4925C30.4142 14.4925 30.7965 14.4925 31.1363 14.4925C32.1982 14.5436 32.9204 15.309 32.8779 16.3806C32.8779 17.4523 32.1558 18.2177 31.0938 18.2177C28.885 18.2177 26.7186 18.2177 24.5097 18.2177C24.1699 18.2177 23.8301 18.2177 23.4053 18.2177C23.4053 18.8301 23.4053 19.3914 23.4053 20.0548C24.3398 20.0548 25.2743 20.0548 26.1664 20.0548C28.2478 20.0548 30.3292 20.0548 32.4106 20.0548C33.3876 20.0548 34.0673 20.9223 34.0248 21.9429C34.0248 22.9125 33.3451 23.78 32.4531 23.78C25.1469 23.78 17.8407 23.729 10.5345 23.729C10.492 23.729 10.492 23.6779 10.3646 23.6269C10.3646 22.5553 10.3646 21.4326 10.3646 20.1569C13.6354 20.1569 16.9062 20.1569 20.2195 20.1569C20.2195 19.4424 20.2195 18.9321 20.2195 18.2177C17.6708 18.2177 15.0372 18.2177 12.3186 18.2177Z"
    fill="white" />
  <path
    d="M42.0531 11.1756C40.0991 11.1756 38.315 11.1756 36.446 11.1756C36.446 9.59365 36.446 8.11377 36.446 6.48081C38.2726 6.48081 40.0566 6.48081 42.0531 6.48081C42.0531 4.38858 42.0531 2.44944 42.0531 0.40824C43.4124 0.40824 44.6442 0.40824 46.0035 0.40824C46.0035 2.34738 46.0035 4.28652 46.0035 6.32772C48.1274 6.32772 50.1664 6.32772 52.2903 6.32772C52.2903 7.96068 52.2903 9.44056 52.2903 11.0735C50.2938 11.0735 48.2549 11.0735 46.0885 11.0735C46.0885 13.1657 46.046 15.1049 46.131 17.0951C46.1735 18.0646 46.8956 18.1667 47.5752 18.1667C49.1469 18.1667 50.6761 18.1667 52.2903 18.1667C52.2903 19.6976 52.2903 21.2285 52.2903 22.7084C50.1664 22.7084 48 22.9635 45.8761 22.6573C43.7097 22.3512 42.1381 19.6976 42.0956 16.993C42.0531 15.1049 42.0531 13.2168 42.0531 11.1756Z"
    fill="white" />
  <path
    d="M7.17876 7.55244C7.17876 8.98129 7.17876 10.206 7.17876 11.6348C7.94336 11.0735 8.58053 10.5632 9.34513 10.0019C9.93982 10.8694 10.5345 11.7369 11.2566 12.7575C10.4071 13.4209 9.64248 14.2374 8.75044 14.6966C7.43363 15.309 7.05133 16.2275 7.09381 17.9115C7.17876 20.6161 5.26726 23.2187 3.05841 23.5759C2.16637 23.729 1.23186 23.5759 0.254867 23.5759C0.254867 22.5042 0.254867 21.3816 0.254867 20.2079C1.40177 19.7486 2.93097 20.7182 3.78053 19.0342C4.0354 18.4729 4.12035 17.8095 4.29027 17.044C2.76106 17.1971 1.44425 17.3502 0 17.5543C0.0849558 16.2786 0.127434 15.1559 0.169912 14.0333C1.27434 13.8291 2.29381 13.625 3.31327 13.4209C3.95044 13.3188 4.16283 12.9106 4.16283 12.1451C4.12035 10.6653 4.16283 9.23643 4.16283 7.60347C2.80354 7.60347 1.57168 7.60347 0.254867 7.60347C0.254867 6.37875 0.254867 5.25609 0.254867 4.03137C1.5292 4.03137 2.80354 4.03137 4.12035 4.03137C4.12035 2.65356 4.12035 1.42884 4.12035 0.05103C5.13982 0.05103 6.07434 0.05103 7.13628 0.05103C7.13628 1.27575 7.13628 2.5515 7.13628 3.98034C8.28319 3.98034 9.34513 3.98034 10.4496 3.98034C10.4496 5.20506 10.4496 6.32772 10.4496 7.55244C9.38761 7.55244 8.36814 7.55244 7.17876 7.55244Z"
    fill="white" />
  <path fill-rule="evenodd" clip-rule="evenodd"
    d="M32.1133 12.4003H12.3611V0H27.0159C30.3292 0 32.1133 2.19429 32.1133 6.1236V12.4003ZM28.5451 4.43961C28.548 4.4293 28.5507 4.41898 28.5532 4.40866C28.5677 4.34886 28.5766 4.28959 28.585 4.2339C28.5965 4.15683 28.6071 4.08662 28.6301 4.03137L28.6183 4.02748C28.6218 4.01176 28.6257 3.99605 28.6301 3.98034C28.5328 3.94847 28.4337 3.91439 28.3335 3.87993C27.9524 3.7489 27.5558 3.61251 27.1858 3.5721C23.4903 3.5721 19.7522 3.5721 16.0566 3.62313C15.9066 3.62313 15.7565 3.71161 15.5977 3.80521C15.4869 3.87055 15.3718 3.93838 15.2496 3.98034C15.3277 4.02728 15.4099 4.08862 15.4935 4.15111C15.6828 4.29241 15.8799 4.43961 16.0566 4.43961C18.1837 4.47368 20.3108 4.46226 22.4252 4.4509C23.4777 4.44525 24.527 4.43961 25.5717 4.43961H28.5451ZM28.995 8.46037C29.0008 8.46396 29.0066 8.4675 29.0124 8.47099C28.9532 8.50655 28.8888 8.5607 28.8229 8.61617C28.6996 8.71988 28.5709 8.8282 28.4602 8.8282H15.5469C15.5044 8.8282 15.4513 8.80268 15.3982 8.77717C15.3451 8.75165 15.292 8.72614 15.2496 8.72614C15.2496 8.57305 15.2496 8.47099 15.2071 8.31789C15.2571 8.29788 15.3087 8.2759 15.3613 8.25349C15.4998 8.1945 15.6453 8.13259 15.7859 8.09585C15.8737 8.059 15.9631 8.02778 16.0566 8.01171C17.4331 8.01171 18.8049 8.00602 20.1735 8.00034C22.9015 7.98901 25.6173 7.97773 28.3327 8.01171C28.5063 8.01171 28.6602 8.13009 28.8213 8.25397C28.8967 8.31195 28.9736 8.37114 29.0549 8.41995C29.0354 8.43163 29.0155 8.4453 28.995 8.46037Z"
    fill="white" />
  <path fill-rule="evenodd" clip-rule="evenodd"
    d="M66.4779 7.88686C66.4496 8.20442 66.4212 8.52197 66.3929 8.93025C66.0531 8.82819 65.7982 8.72614 65.5858 8.52201C63.377 7.55244 61.1681 7.50141 58.9168 8.26686C55.6885 9.38953 53.5221 12.3493 53.4372 15.7172C53.3522 18.9832 55.3062 21.9429 58.5345 23.2697C61.2956 24.4434 64.0566 24.1882 66.6478 22.6063C67.1575 22.3001 67.4549 22.3001 67.9221 22.7594C69.154 23.9841 70.5982 23.9331 72 23.729V19.1363C71.7791 19.1158 71.5718 19.0954 71.3645 19.075C71.0536 19.0444 70.7426 19.0138 70.3858 18.9832V7.39935H66.5204C66.5062 7.56941 66.492 7.72814 66.4779 7.88686ZM58.5196 13.803C59.5022 12.8891 60.6637 12.6491 61.8903 12.6044C63.2496 12.6044 64.5664 12.9106 65.5858 14.0843C65.5858 14.0842 65.5859 14.0844 65.5858 14.0843C66.6408 15.1998 66.6477 16.5673 65.6893 17.686C65.6832 17.6932 65.677 17.7003 65.6708 17.7074C65.6707 17.7075 65.6709 17.7073 65.6708 17.7074C63.8866 19.8504 59.8513 19.7996 58.1097 17.6564C57.1752 16.5337 57.1752 15.36 58.1097 14.2374C58.2425 14.0779 58.3792 13.9336 58.5196 13.803Z"
    fill="white" />
</svg>