<svg width="498" height="249" viewBox="0 0 498 249" fill="none" xmlns="http://www.w3.org/2000/svg">
  <path
    d="M94.28 47.7V37.38L167.88 30.98V41.3L94.28 47.7ZM232.76 17.14L237.32 16.74V12.58L232.76 12.98V17.14ZM232.76 28.18L237.32 27.78V23.62L232.76 24.02V28.18ZM225.56 64.82V57.62L215.72 58.5V51.46L225.56 50.58V46.34L217.72 47.06V39.94L225.56 39.22V35.22L218.04 35.86V29.46L225.56 28.82V24.66L215.16 25.54V18.66L225.56 17.78V13.62L218.04 14.26V7.86L225.56 7.22V2.01999L232.76 1.38V6.58L243.88 5.62V16.18L248.28 15.78V22.66L243.88 23.06V33.62L232.76 34.58V38.58L244.76 37.54V44.66L232.76 45.7V49.94L246.28 48.74V55.78L232.76 56.98V64.18L225.56 64.82ZM206.36 50.66C207.213 46.7667 207.853 42.4733 208.28 37.78L201.56 38.34C200.813 38.98 200.44 39.54 200.44 40.02C199.693 38.4733 198.52 36.6867 196.92 34.66L190.6 35.22V42.98L198.52 42.34V46.82L204.36 44.02C204.947 46.4733 205.613 48.6867 206.36 50.66ZM198.76 79.38C197.48 76.82 195.987 74.6867 194.28 72.98C198.173 70.1533 201.213 66.02 203.4 60.58C201.48 57.1667 199.853 52.9267 198.52 47.86V50.9L190.6 51.54V63.06L197.08 57.78C197.88 60.7667 198.787 63.0867 199.8 64.74C195.587 68.2067 192.36 70.9 190.12 72.82C187.88 74.74 186.28 76.1533 185.32 77.06C184.413 77.9667 183.773 78.7133 183.4 79.3C182.92 78.34 182.2 77.2467 181.24 76.02C180.333 74.7933 179.48 73.8067 178.68 73.06C179.533 72.3133 180.44 71.14 181.4 69.54C182.413 67.94 182.92 66.1533 182.92 64.18V52.26L175.08 52.9V44.34L182.92 43.7V35.94L177.96 36.34V32.02L177.72 32.26C177.24 31.3533 176.467 30.18 175.4 28.74C174.387 27.2467 173.453 26.0467 172.6 25.14C177.133 19.5933 180.493 12.8733 182.68 4.97999L190.84 6.5C190.307 8.31333 189.667 10.18 188.92 12.1L197.8 11.3V19.86L185.08 20.98C183.8 23.4867 182.413 25.8067 180.92 27.94L197.88 26.42V33.54C199.373 32.2067 200.653 30.5 201.72 28.42C203.16 25.7 204.813 21.4333 206.68 15.62L198.84 16.26V7.54L209.48 6.66L211.88 5.38L216.76 8.26C214.467 16.1533 211.747 23.4067 208.6 30.02L211.4 29.7H215.96C215.427 41.86 213.987 51.8067 211.64 59.54C214.573 62.6867 217.96 64.74 221.8 65.7C224.413 66.34 227.16 66.66 230.04 66.66C231.427 66.66 232.84 66.58 234.28 66.42L248.84 65.06C247.773 67.46 246.973 70.0733 246.44 72.9L233.72 74.02C231.907 74.2333 230.147 74.34 228.44 74.34C225.347 74.34 222.067 73.94 218.6 73.14C215.133 72.3933 211.747 70.4467 208.44 67.3C205.933 72.1533 202.707 76.18 198.76 79.38ZM293.16 18.02L315.64 16.02V10.82L293.16 12.82V18.02ZM293.16 30.42L315.64 28.42V23.22L293.16 25.22V30.42ZM284.52 38.5V6.18L324.6 2.66V34.98L284.52 38.5ZM257.4 80.26C257.08 77.7 256.2 74.8733 254.76 71.78C256.36 71.6733 257.827 71.5667 259.16 71.46C260.547 71.4067 261.507 71.3267 262.04 71.22C262.627 71.1667 263.027 71.0067 263.24 70.74C263.507 70.5267 263.64 70.1533 263.64 69.62V52.66L255.08 55.54L252.76 46.66C255.96 45.7533 259.587 44.6333 263.64 43.3V28.98L254.12 29.78V20.98L263.64 20.18V5.14L273 4.34V19.38L280.84 18.66V27.46L273 28.18V40.1L280.52 37.46L281.72 46.1L273 49.38V68.74C273 71.0867 272.733 72.9267 272.2 74.26C271.72 75.5933 270.813 76.6867 269.48 77.54C266.92 79.0333 262.893 79.94 257.4 80.26ZM277.88 75.62V67.14L299.24 65.3V54.98L283.24 56.34V47.94L299.24 46.58V39.14L308.92 38.26V45.7L325.08 44.34V52.74L308.92 54.1V64.42L328.28 62.74V71.22L277.88 75.62ZM350.04 71.06V21.7L333.4 23.14V13.22L378.68 9.22V19.14L361.88 20.66V70.02L350.04 71.06ZM375.754 72.26C372.234 72.26 369.327 71.1933 367.034 69.06C364.794 66.8733 363.674 63.86 363.674 60.02C363.674 55.22 365.727 51.3267 369.834 48.34C373.994 45.3 380.554 42.9267 389.514 41.22C389.46 38.98 388.847 37.1933 387.674 35.86C386.66 34.6867 385.087 34.1 382.954 34.1L381.834 34.18C377.727 34.7133 373.62 36.4733 369.514 39.46L365.274 32.1C367.94 30.18 370.847 28.5267 373.994 27.14C378.1 25.3267 382.074 24.42 385.914 24.42C396.1 24.42 401.194 30.5267 401.194 42.74V68.9L391.594 69.78L390.794 65.06H390.474C385.407 69.86 380.5 72.26 375.754 72.26ZM379.914 62.74C383.327 62.74 386.527 60.98 389.514 57.46V48.42C379.754 50.5533 374.874 53.78 374.874 58.1C374.874 59.86 375.434 61.0867 376.554 61.78C377.407 62.42 378.527 62.74 379.914 62.74Z"
    fill="white" />
  <path
    d="M66.888 143.876V128.708C64.168 131.268 62.312 132.98 61.32 133.844L58.536 129.14C60.808 127.38 63.592 125.044 66.888 122.132V114.404L64.392 116.66C63.784 115.636 62.92 114.468 61.8 113.156C60.68 111.812 59.56 110.58 58.44 109.46L62.376 106.004C63.944 107.444 65.448 108.996 66.888 110.66V99.14L72.408 98.66V143.396L66.888 143.876ZM86.904 142.004C86.68 140.404 86.088 138.676 85.128 136.82C89.416 136.628 91.672 136.42 91.896 136.196C92.056 136.036 92.136 135.812 92.136 135.524V125.3L81.288 126.212C82.408 127.364 83.512 128.628 84.6 130.004C85.688 131.38 86.52 132.644 87.096 133.796L82.104 136.964C81.592 135.78 80.824 134.468 79.8 133.028C78.776 131.556 77.688 130.196 76.536 128.948L81 126.26L73.944 126.884V121.652L76.536 121.412C75.736 119.748 74.84 118.404 73.848 117.38C77.4 116.388 80.776 115.092 83.976 113.492C82.984 112.276 81.848 111.172 80.568 110.18L84.792 107.396C86.2 108.356 87.448 109.476 88.536 110.756C91 109.028 93.08 107.076 94.776 104.9L85.08 105.764C82.552 107.94 79.928 109.812 77.208 111.38C76.248 110.26 74.984 109.124 73.416 107.972C78.952 105.092 83.128 101.572 85.944 97.412L91.848 98.372C91.272 99.204 90.632 100.02 89.928 100.82L98.136 100.1L99.096 99.812L102.84 101.396C98.52 110.772 90.056 117.412 77.448 121.316L92.136 120.068V115.412L97.8 114.884V119.54L102.984 119.108V124.34L97.8 124.772V135.092C97.8 136.468 97.624 137.572 97.272 138.404C96.408 140.484 92.952 141.684 86.904 142.004ZM111.864 144.068V119.54C110.808 121.076 109.736 122.468 108.648 123.716C108.36 122.948 107.896 121.988 107.256 120.836C106.648 119.684 106.088 118.756 105.576 118.052C110.184 112.9 113.816 106.596 116.472 99.14L121.896 100.34C120.648 103.796 119.128 107.204 117.336 110.564V143.588L111.864 144.068ZM124.392 136.772C123.144 135.908 121.512 135.028 119.496 134.132C122.28 130.196 124.232 125.332 125.352 119.54L130.92 120.212C129.384 126.772 127.208 132.292 124.392 136.772ZM129.624 142.676C129.496 141.812 129.24 140.852 128.856 139.796C128.504 138.74 128.104 137.828 127.656 137.06C129.8 136.932 131.368 136.82 132.36 136.724H132.456C132.968 136.724 133.224 136.42 133.224 135.812V111.332L127.656 111.812C126.28 114.788 124.776 117.38 123.144 119.588C122.6 119.076 121.864 118.5 120.936 117.86C120.04 117.188 119.24 116.644 118.536 116.228C122.28 111.396 125 105.396 126.696 98.228L132.264 98.996C131.624 101.492 130.872 103.94 130.008 106.34L146.52 104.9L147.432 104.612L151.464 105.044C150.824 109.524 150.136 113.3 149.4 116.372L144.552 115.988C144.808 114.388 145.064 112.484 145.32 110.276L138.888 110.852V135.428C138.888 136.804 138.728 137.924 138.408 138.788C138.12 139.652 137.544 140.356 136.68 140.9C135.016 141.892 132.664 142.484 129.624 142.676ZM145.464 134.804C145.176 132.596 144.584 130.1 143.688 127.316C142.824 124.5 141.8 121.876 140.616 119.444L145.704 117.284C146.984 119.716 148.088 122.308 149.016 125.06C149.944 127.78 150.584 130.244 150.936 132.452L145.464 134.804ZM161.832 134.036L169.464 133.364V123.956L161.832 124.628V134.036ZM161.832 119.684L169.464 119.012V111.236L161.832 111.908V119.684ZM156.648 143.012V107.348L162.072 106.868C162.744 104.18 163.208 101.572 163.464 99.044L169.704 99.332C168.872 101.86 168.04 104.228 167.208 106.436L174.648 105.764V113.54C177.496 108.932 179.656 103.588 181.128 97.508L186.6 98.324C186.088 100.404 185.464 102.484 184.728 104.564L198.216 103.364V105.284C197.96 115.684 197.592 123.588 197.112 128.996C196.696 133.732 196.008 136.692 195.048 137.876C194.376 138.804 193.672 139.476 192.936 139.892C192.232 140.34 191.4 140.692 190.44 140.948C188.424 141.3 185.912 141.54 182.904 141.668C182.84 140.868 182.632 139.956 182.28 138.932C181.96 137.94 181.544 137.06 181.032 136.292C184.328 136.228 186.712 136.116 188.184 135.956C189.048 135.892 189.752 135.556 190.296 134.948C191.576 133.988 192.424 125.348 192.84 109.028L182.568 109.94C181.288 112.98 179.88 115.636 178.344 117.908C177.704 117.364 176.472 116.564 174.648 115.508V137.924L161.832 139.076V142.58L156.648 143.012ZM185.4 129.38C184.088 126.756 181.864 123.252 178.728 118.868L183.192 115.94C186.488 120.164 188.84 123.508 190.248 125.972L185.4 129.38ZM230.568 121.124L239.4 120.356V117.476L230.568 118.244V121.124ZM230.568 114.068L239.4 113.3V110.516L230.568 111.284V114.068ZM230.568 107.06L239.4 106.292V103.508L230.568 104.276V107.06ZM226.824 134.468C225.32 132.676 223.208 130.628 220.488 128.324L224.424 124.82L225.384 125.588V100.196L244.872 98.516V124.34L225.864 125.972C228.104 127.86 229.8 129.412 230.952 130.628L226.824 134.468ZM211.32 127.844V118.388C209.688 121.396 207.88 123.876 205.896 125.828C205.448 125.22 204.872 124.58 204.168 123.908C203.496 123.204 202.856 122.628 202.248 122.18C205.608 119.236 208.328 115.444 210.408 110.804L203.448 111.38V106.532L211.32 105.86V99.092L216.744 98.612V105.38L223.512 104.804V109.652L216.744 110.228V112.004C217.416 112.356 218.264 112.836 219.288 113.444C220.344 114.052 221.336 114.66 222.264 115.268C223.224 115.876 223.912 116.324 224.328 116.612L221.352 121.46C220.136 120.244 218.6 118.868 216.744 117.332V127.364L211.32 127.844ZM207.816 141.524L202.584 139.412C204.44 136.372 205.832 132.948 206.76 129.14L211.848 130.724C210.6 135.332 209.256 138.932 207.816 141.524ZM219.432 142.148C217.512 142.148 216.056 141.764 215.064 140.996C214.072 140.26 213.576 138.644 213.576 136.148V129.572L219.24 129.044V135.524C219.24 136.26 219.432 136.708 219.816 136.868C220.04 136.964 220.392 137.012 220.872 137.012C221.288 137.012 221.768 136.98 222.312 136.916L229.992 136.244C231.08 136.212 231.8 135.828 232.152 135.092C232.536 134.356 232.776 132.82 232.872 130.484C233.48 130.868 234.28 131.204 235.272 131.492C236.264 131.78 237.176 131.956 238.008 132.02C237.72 135.412 237.032 137.748 235.944 139.028C234.856 140.34 233.016 141.076 230.424 141.236C223.704 141.844 220.04 142.148 219.432 142.148ZM242.328 137.684C241.304 135.7 239.928 133.38 238.2 130.724L236.664 128.228L241.656 125.492L243.144 127.604C245 130.196 246.504 132.5 247.656 134.516L242.328 137.684ZM261.864 116.324L268.152 115.796C269.528 114.58 270.712 113.284 271.704 111.908L261.864 112.772V116.324ZM262.392 108.596L272.088 107.78C272.76 106.884 273.416 105.956 274.056 104.996L265.08 105.764C264.248 106.724 263.352 107.668 262.392 108.596ZM274.488 115.22L284.472 114.356V110.804L277.272 111.428C276.472 112.772 275.544 114.036 274.488 115.22ZM266.568 142.964C266.408 141.012 265.896 139.348 265.032 137.972C266.856 137.972 268.44 137.908 269.784 137.78C271.064 137.748 272.136 137.38 273 136.676C274.12 135.876 274.68 134.676 274.68 133.076C274.68 132.564 274.616 132.004 274.488 131.396C268.632 135.844 262.296 139.316 255.48 141.812C254.264 140.116 253.192 138.836 252.264 137.972C255.976 136.852 259.688 135.364 263.4 133.508C267.112 131.652 270.216 129.716 272.712 127.7C272.328 127.124 271.88 126.58 271.368 126.068C266.6 129.716 261.384 132.564 255.72 134.612C254.728 133.204 253.704 132.036 252.648 131.108C258.696 129.252 263.944 126.756 268.392 123.62C267.72 123.172 267 122.74 266.232 122.324C262.488 124.82 258.44 126.836 254.088 128.372C253.8 127.892 253.368 127.284 252.792 126.548C252.248 125.78 251.752 125.156 251.304 124.676C254.856 123.556 258.168 122.164 261.24 120.5L256.488 120.932V113.684C255.976 114.068 255.432 114.452 254.856 114.836C254.408 114.196 253.816 113.524 253.08 112.82C252.344 112.084 251.656 111.524 251.016 111.14C254.12 109.188 256.776 107.108 258.984 104.9C261.224 102.66 262.968 100.5 264.216 98.42L270.168 99.044L268.728 101.204L277.224 100.436L278.04 100.148L281.928 102.356C281.064 103.892 279.976 105.508 278.664 107.204L290.136 106.196V118.004L270.936 119.684C273.752 121.316 275.912 123.156 277.416 125.204C281.128 122.964 284.376 120.676 287.16 118.34L291.768 121.364C289.752 122.74 287.656 124.084 285.48 125.396C286.44 127.22 287.736 128.916 289.368 130.484C291.032 132.052 293.016 133.22 295.32 133.988C294.68 134.66 293.992 135.508 293.256 136.532C292.552 137.524 291.976 138.436 291.528 139.268C289.032 138.148 286.904 136.564 285.144 134.516C283.416 132.436 282.04 130.26 281.016 127.988L279.384 128.804C279.928 130.34 280.2 131.812 280.2 133.22C280.2 134.052 280.008 135.204 279.624 136.676C279.272 138.116 278.264 139.412 276.6 140.564C275.672 141.268 274.76 141.764 273.864 142.052C273 142.372 271.96 142.58 270.744 142.676C269.528 142.804 268.136 142.9 266.568 142.964ZM312.312 128.036L329.832 126.5V123.716L312.312 125.252V128.036ZM312.312 107.972L329.832 106.436V103.796L312.312 105.332V107.972ZM312.312 121.22L329.832 119.684V117.044L312.312 118.58V121.22ZM312.312 114.548L329.832 113.012V110.468L312.312 112.004V114.548ZM302.712 144.308C301.56 143.06 300.168 141.812 298.536 140.564C300.744 139.636 302.984 138.516 305.256 137.204C307.528 135.892 309.48 134.58 311.112 133.268L299.304 134.324V129.188L306.792 128.516V101.3L335.64 98.756V125.972L342.888 125.348V130.484L330.936 131.54C335.992 133.3 340.2 134.98 343.56 136.58L338.856 141.14C337.224 140.212 335.144 139.188 332.616 138.068C330.12 136.948 327.544 135.94 324.888 135.044L327.528 131.828L313.176 133.076L317.208 135.62C315.256 137.188 312.968 138.756 310.344 140.324C307.72 141.892 305.176 143.22 302.712 144.308ZM365.544 125.732V100.292L388.776 98.276V123.716L383.112 124.196V103.652L370.92 104.756V125.3L365.544 125.732ZM347.352 139.796L346.2 134.468C348.184 133.86 350.44 133.124 352.968 132.26V120.98L347.832 121.46V116.228L352.968 115.748V107.3L347.112 107.828V102.5L363.96 101.012V106.34L358.488 106.82V115.268L362.952 114.884V120.116L358.488 120.5V130.388L363.912 128.468L364.632 133.556C361.592 134.676 358.568 135.78 355.56 136.868C352.552 137.924 349.816 138.9 347.352 139.796ZM364.344 143.156C363.96 142.612 363.416 141.956 362.712 141.188C362.008 140.452 361.368 139.876 360.792 139.46C368.568 134.596 372.952 128.404 373.944 120.884C374.2 118.804 374.328 116.836 374.328 114.98V107.396L379.608 106.964V114.692C379.608 118.02 379.208 121.284 378.408 124.484L381.528 124.196V134.756C381.528 135.876 381.864 136.436 382.536 136.436L385.368 136.148C385.976 136.148 386.392 135.62 386.616 134.564C386.84 133.508 386.984 131.444 387.048 128.372C388.424 129.204 389.912 129.764 391.512 130.052C391.32 133.732 390.824 136.324 390.024 137.828C389.224 139.332 387.656 140.148 385.32 140.276C382.536 140.532 380.952 140.66 380.568 140.66C379.224 140.66 378.168 140.356 377.4 139.748C376.664 139.172 376.296 137.876 376.296 135.86V130.196C373.832 135.412 369.848 139.732 364.344 143.156ZM401.784 144.02V118.82C400.6 120.356 399.4 121.764 398.184 123.044C396.936 120.868 395.72 119.044 394.536 117.572C399.656 112.452 403.704 106.116 406.68 98.564L412.488 99.956C411.176 103.188 409.624 106.404 407.832 109.604V127.124C410.872 125.396 413.944 123.3 417.048 120.836V98.564L423.24 98.036V115.364C427.144 111.524 430.552 107.284 433.464 102.644L438.936 105.908C434.296 112.532 429.064 118.292 423.24 123.188V132.404C423.24 133.78 423.352 134.644 423.576 134.996C423.832 135.316 424.264 135.476 424.872 135.476L431.064 134.9C432.056 134.9 432.728 134.196 433.08 132.788C433.432 131.38 433.688 128.724 433.848 124.82C434.616 125.364 435.528 125.844 436.584 126.26C437.64 126.676 438.6 126.948 439.464 127.076C439.208 131.716 438.536 135.076 437.448 137.156C436.36 139.236 434.424 140.372 431.64 140.564C426.232 141.044 423.336 141.284 422.952 141.284C420.936 141.284 419.448 140.74 418.488 139.652C417.528 138.564 417.048 136.292 417.048 132.836V127.892C415.192 129.172 413.368 130.324 411.576 131.348C410.584 130.036 409.336 128.836 407.832 127.748V143.492L401.784 144.02Z"
    fill="#274AFE" />
  <path
    d="M4.96144 181.956C5.92144 182.969 6.6521 183.849 7.15344 184.596L6.70544 184.9C6.09744 184.015 5.3721 183.135 4.52944 182.26L4.96144 181.956ZM10.3854 188.74C11.5801 190.031 12.5294 191.193 13.2334 192.228L12.7694 192.564C12.0868 191.487 11.1428 190.303 9.93744 189.012L10.3854 188.74ZM9.15344 181.508H9.68144V182.836C9.68144 183.764 9.63877 184.697 9.55344 185.636H16.2414C16.2414 190.009 16.0441 192.82 15.6494 194.068C15.2334 195.273 14.5028 195.876 13.4574 195.876C12.9028 195.876 12.2948 195.865 11.6334 195.844L11.4894 195.3C12.1934 195.332 12.8388 195.348 13.4254 195.348C14.5881 195.273 15.2601 194.287 15.4414 192.388C15.6121 190.361 15.6974 188.292 15.6974 186.18H9.48944C9.26544 188.207 8.83344 189.913 8.19344 191.3C7.25477 193.252 5.68677 194.804 3.48944 195.956L3.18544 195.476C5.31877 194.388 6.87077 192.831 7.84144 190.804C8.38544 189.492 8.75344 187.951 8.94544 186.18H3.74544V185.636H9.00944C9.09477 184.751 9.14277 183.817 9.15344 182.836V181.508ZM21.2334 186.292C20.5828 187.337 19.8628 188.292 19.0734 189.156L18.8974 188.596C20.7321 186.463 22.0388 184.084 22.8174 181.46L23.3134 181.7C22.8974 182.98 22.3908 184.185 21.7934 185.316V196.036H21.2334V186.292ZM30.7694 187.86C31.6974 189.887 32.4868 191.972 33.1374 194.116L32.6414 194.324C31.9268 191.988 31.1321 189.892 30.2574 188.036L30.7694 187.86ZM25.5214 184.212C24.9988 185.481 24.3534 186.687 23.5854 187.828L23.1214 187.54C24.3694 185.759 25.2974 183.705 25.9054 181.38L26.4494 181.492C26.2361 182.239 25.9961 182.964 25.7294 183.668H32.7374V184.036C32.4921 185.017 32.1348 186.02 31.6654 187.044L31.1374 186.884C31.5854 186.02 31.9321 185.129 32.1774 184.212H25.5214ZM25.6174 195.908L25.5054 195.38C26.2308 195.412 26.9241 195.428 27.5854 195.428C28.0121 195.428 28.2254 195.215 28.2254 194.788V185.86H28.7534V194.932C28.7534 195.583 28.4281 195.908 27.7774 195.908H25.6174ZM26.1294 188.084C25.5214 190.345 24.7321 192.335 23.7614 194.052L23.2334 193.86C24.1508 192.335 24.9508 190.361 25.6334 187.94L26.1294 188.084ZM36.4814 184.676H42.0014V183.188H35.9054V182.708H42.0014V181.476H42.5454V182.708H48.6574V183.188H42.5454V184.676H48.0654V185.156H36.4814V184.676ZM38.9774 188.916H37.4414V186.34H47.1054V188.916H45.6494L44.7854 190.468H49.3454V190.98H35.2014V190.468H39.6494L38.9774 188.916ZM45.0734 188.916H39.5374L40.2094 190.468H44.2094L45.0734 188.916ZM46.5774 188.452V186.788H37.9854V188.452H46.5774ZM47.3454 192.228V195.988H46.8174V195.252H37.7454V195.988H37.2174V192.228H47.3454ZM37.7454 194.772H46.8174V192.708H37.7454V194.772ZM64.5934 185.62V188.02H64.0494V186.132H52.5294V188.02H51.9854V185.62H54.4814C54.2788 184.873 54.0761 184.255 53.8734 183.764L54.4174 183.668C54.6414 184.265 54.8441 184.916 55.0254 185.62H58.2414C58.0494 184.937 57.8308 184.276 57.5854 183.636L58.1134 183.54C58.3694 184.169 58.5881 184.863 58.7694 185.62H61.1374C61.5961 184.905 61.9961 184.127 62.3374 183.284L62.8654 183.476C62.5134 184.319 62.1241 185.033 61.6974 185.62H64.5934ZM64.4814 182.404C61.3774 182.916 57.2388 183.172 52.0654 183.172L51.8894 182.644C56.9348 182.644 61.0414 182.393 64.2094 181.892L64.4814 182.404ZM56.8334 186.836C56.7588 187.22 56.6521 187.705 56.5134 188.292H63.5534V188.836H56.3694C56.1774 189.487 55.9801 190.063 55.7774 190.564H62.9614V190.996C62.0974 192.169 61.0628 193.172 59.8574 194.004C61.3508 194.697 63.0308 195.167 64.8974 195.412L64.6414 195.892C62.7108 195.636 60.9454 195.113 59.3454 194.324C57.9161 195.135 56.3694 195.7 54.7054 196.02L54.4654 195.524C56.1401 195.215 57.5854 194.719 58.8014 194.036C57.5428 193.332 56.4068 192.452 55.3934 191.396C54.4974 193.284 53.2654 194.756 51.6974 195.812L51.4254 195.332C53.5161 193.839 54.9828 191.673 55.8254 188.836H53.0414V188.292H55.9694C56.0441 187.983 56.1508 187.476 56.2894 186.772L56.8334 186.836ZM55.6974 191.076C56.7428 192.153 57.9428 193.039 59.2974 193.732C60.5028 192.964 61.5054 192.079 62.3054 191.076H55.6974ZM72.4814 184.468V195.044H71.9374V193.988H68.3854V195.492H67.8414V184.468H69.2494C69.6014 183.54 69.8574 182.553 70.0174 181.508L70.5614 181.588C70.3801 182.655 70.1188 183.615 69.7774 184.468H72.4814ZM68.3854 193.476H71.9374V189.396H68.3854V193.476ZM68.3854 188.884H71.9374V185.012H68.3854V188.884ZM75.1214 187.972C76.4441 189.38 77.4254 190.569 78.0654 191.54L77.6334 191.86C76.9508 190.804 75.9694 189.604 74.6894 188.26L75.1214 187.972ZM80.7854 184.5C80.7854 189.449 80.7108 192.537 80.5614 193.764C80.4121 195.119 79.6868 195.796 78.3854 195.796L76.8814 195.78L76.7374 195.268L78.3534 195.284C79.3241 195.284 79.8841 194.751 80.0334 193.684C80.1508 192.724 80.2254 189.844 80.2574 185.044H75.2014C74.7534 186.1 74.2094 187.065 73.5694 187.94L73.2494 187.508C74.4441 185.876 75.2601 183.871 75.6974 181.492L76.2254 181.556C76.0441 182.569 75.7774 183.551 75.4254 184.5H80.7854ZM85.8894 189.284V189.796C85.8788 190.479 85.8308 191.124 85.7454 191.732H90.2894V189.284H85.8894ZM85.6494 192.26C85.3614 193.743 84.8121 195.012 84.0014 196.068L83.5854 195.684C84.7268 194.159 85.3134 192.207 85.3454 189.828V185.652H90.6094C91.6548 184.991 92.5934 184.265 93.4254 183.476H87.4734C86.3534 184.756 85.0308 185.865 83.5054 186.804L83.1694 186.388C85.4308 185.012 87.1694 183.337 88.3854 181.364L88.9134 181.508C88.6041 181.999 88.2628 182.489 87.8894 182.98H94.1774V183.396C93.2814 184.281 92.3588 185.033 91.4094 185.652H96.1134V194.708C96.1134 195.54 95.6921 195.956 94.8494 195.956H92.7374L92.5934 195.428C93.5961 195.449 94.2894 195.46 94.6734 195.46C95.2708 195.46 95.5694 195.145 95.5694 194.516V192.26H90.8174V195.764H90.2894V192.26H85.6494ZM95.5694 191.732V189.284H90.8174V191.732H95.5694ZM95.5694 188.772V186.18H90.8174V188.772H95.5694ZM90.2894 186.18H85.8894V188.772H90.2894V186.18ZM106.305 186.74H101.777V190.26H106.305V186.74ZM106.833 190.26H111.265V186.74H106.833V190.26ZM103.297 183.7C102.241 184.895 100.972 185.961 99.4894 186.9L99.1374 186.468C101.367 185.081 103.089 183.396 104.305 181.412L104.849 181.54C104.444 182.201 104.071 182.751 103.729 183.188H109.809V183.62C109.063 184.655 108.289 185.519 107.489 186.212H111.809V190.788H101.777V194.436C101.777 194.948 102.065 195.215 102.641 195.236H110.865C111.484 195.215 111.921 195.001 112.177 194.596C112.391 194.223 112.535 193.465 112.609 192.324L113.153 192.484C113.057 193.572 112.903 194.335 112.689 194.772C112.359 195.423 111.783 195.759 110.961 195.78H102.513C101.649 195.78 101.217 195.369 101.217 194.548V186.212H106.689C107.585 185.465 108.385 184.628 109.089 183.7H103.297ZM121.489 187.236H117.377V194.724C117.377 195.044 117.564 195.204 117.937 195.204H121.441C122.092 195.204 122.503 195.055 122.673 194.756C122.855 194.361 122.977 193.679 123.041 192.708L123.569 192.884C123.473 194.185 123.276 195.007 122.977 195.348C122.721 195.604 122.231 195.732 121.505 195.732H117.825C117.153 195.732 116.817 195.428 116.817 194.82V186.74H122.033V190.74C122.012 191.561 121.623 191.977 120.865 191.988C120.471 191.988 119.889 191.967 119.121 191.924L118.961 191.412C119.772 191.455 120.369 191.476 120.753 191.476C121.244 191.476 121.489 191.204 121.489 190.66V187.236ZM119.809 181.748C121.228 183.284 122.577 184.868 123.857 186.5L123.489 186.884C122.167 185.167 120.881 183.625 119.633 182.26C118.311 184.191 116.86 185.876 115.281 187.316L114.961 186.884C116.561 185.433 118.028 183.721 119.361 181.748H119.809ZM125.137 182.916H125.681V193.028H125.137V182.916ZM125.089 195.876L124.977 195.348C125.905 195.38 126.785 195.396 127.617 195.396C127.959 195.396 128.129 195.193 128.129 194.788V181.556H128.673V194.916C128.673 195.556 128.385 195.876 127.809 195.876H125.089ZM137.745 184.516C137.02 186.052 136.135 187.444 135.089 188.692L134.705 188.26C136.295 186.383 137.505 184.116 138.337 181.46L138.865 181.588C138.631 182.345 138.337 183.145 137.985 183.988H145.425V184.516H139.633V187.748H144.625V188.292H139.633V191.572H144.817V192.1H139.633V196.02H139.089V184.516H137.745ZM133.217 186.212C132.556 187.161 131.863 187.999 131.137 188.724L130.961 188.164C132.807 186.191 134.135 183.977 134.945 181.524L135.441 181.764C134.993 183.055 134.433 184.255 133.761 185.364V196.02H133.217V186.212ZM154.785 186.74C154.337 187.529 153.879 188.196 153.409 188.74L153.057 188.324C154.487 186.639 155.457 184.351 155.969 181.46L156.497 181.556C156.327 182.505 156.081 183.471 155.761 184.452H161.313V184.996H159.825C159.761 187.823 159.084 190.223 157.793 192.196C158.828 193.668 160.055 194.804 161.473 195.604L161.185 196.084C159.756 195.241 158.524 194.095 157.489 192.644C156.519 193.945 155.292 195.028 153.809 195.892L153.521 195.428C155.036 194.564 156.252 193.487 157.169 192.196C156.167 190.649 155.372 188.831 154.785 186.74ZM155.569 184.996L155.105 186.1C155.703 188.34 156.492 190.217 157.473 191.732C158.636 189.876 159.244 187.631 159.297 184.996H155.569ZM153.233 189.316V194.564H148.561V195.78H148.033V189.316H150.353V185.588H147.249V185.044H150.353V181.7H150.881V185.044H153.809V185.588H150.881V189.316H153.233ZM148.561 194.052H152.705V189.844H148.561V194.052ZM165.265 184.436H170.001V183.124H163.489V182.612H170.001V181.46H170.545V182.612H177.057V183.124H170.545V184.436H175.281V187.252H170.545V188.58H175.521V190.82H177.505V191.316H175.521V193.412H170.545V194.852C170.545 195.588 170.167 195.956 169.409 195.956H167.441L167.329 195.428C168.001 195.46 168.631 195.476 169.217 195.476C169.74 195.476 170.001 195.225 170.001 194.724V193.412H164.481V192.932H170.001V191.316H163.041V190.82H170.001V189.076H164.497V188.58H170.001V187.252H165.265V184.436ZM174.737 186.788V184.916H170.545V186.788H174.737ZM170.001 186.788V184.916H165.809V186.788H170.001ZM170.545 189.076V190.82H174.993V189.076H170.545ZM174.993 191.316H170.545V192.932H174.993V191.316ZM181.073 193.236C181.585 193.236 181.841 193.583 181.841 194.276C181.841 195.428 181.388 196.255 180.481 196.756L180.209 196.34C180.903 195.86 181.265 195.241 181.297 194.484L181.089 194.5C180.897 194.5 180.737 194.447 180.609 194.34C180.492 194.233 180.433 194.079 180.433 193.876C180.433 193.663 180.487 193.503 180.593 193.396C180.711 193.289 180.871 193.236 181.073 193.236ZM195.153 188.356H209.377V188.9H195.153V188.356ZM217.201 182.308H224.225V188.66H217.201V182.308ZM223.697 188.132V185.764H217.729V188.132H223.697ZM217.729 185.236H223.697V182.852H217.729V185.236ZM220.385 189.444H220.913V191.364H224.689V191.892H220.913V194.932H225.441V195.476H215.809V194.932H220.385V191.892H216.657V191.364H220.385V189.444ZM211.457 195.876L211.345 195.348C212.007 195.369 212.471 195.38 212.737 195.38C213.196 195.38 213.425 195.183 213.425 194.788V189.956C212.572 190.287 211.809 190.548 211.137 190.74L210.993 190.212C211.815 189.999 212.625 189.732 213.425 189.412V185.316H211.233V184.788H213.425V181.556H213.969V184.788H215.777V185.316H213.969V189.188C214.695 188.857 215.308 188.559 215.809 188.292V188.852C215.233 189.151 214.62 189.444 213.969 189.732V194.932C213.969 195.561 213.623 195.876 212.929 195.876H211.457ZM241.153 182.868V185.54H240.609V183.38H232.097V185.524H231.553V182.868H235.985C235.836 182.399 235.649 181.951 235.425 181.524L235.985 181.428C236.135 181.748 236.321 182.228 236.545 182.868H241.153ZM232.625 185.108H240.049V185.62H236.609V187.188H240.465V192.596H232.209V187.188H236.065V185.62H232.625V185.108ZM239.921 192.1V190.148H236.609V192.1H239.921ZM236.065 192.1V190.148H232.753V192.1H236.065ZM232.753 189.668H236.065V187.7H232.753V189.668ZM236.609 187.7V189.668H239.921V187.7H236.609ZM237.777 193.444C239.185 194.031 240.449 194.724 241.569 195.524L241.265 195.988C240.007 195.071 238.748 194.361 237.489 193.86L237.777 193.444ZM235.233 193.812C234.167 194.665 232.881 195.391 231.377 195.988L231.057 195.556C232.561 194.948 233.82 194.244 234.833 193.444L235.233 193.812ZM227.809 181.86C228.961 182.607 229.948 183.391 230.769 184.212L230.385 184.58C229.66 183.855 228.673 183.071 227.425 182.228L227.809 181.86ZM227.505 185.764C228.593 186.521 229.527 187.3 230.305 188.1L229.905 188.484C229.212 187.727 228.289 186.948 227.137 186.148L227.505 185.764ZM230.689 190.068C229.879 192.073 228.961 194.02 227.937 195.908L227.409 195.668C228.476 193.791 229.409 191.86 230.209 189.876L230.689 190.068ZM248.881 182.324H256.337V182.804C255.761 184.191 254.769 185.359 253.361 186.308C254.471 186.969 255.873 187.439 257.569 187.716L257.361 188.212C255.537 187.903 254.044 187.369 252.881 186.612C251.676 187.327 250.247 187.908 248.593 188.356L248.321 187.876C249.889 187.471 251.249 186.937 252.401 186.276C251.217 185.38 250.385 184.239 249.905 182.852H248.881V182.324ZM250.433 182.852C250.892 184.132 251.703 185.177 252.865 185.988C254.199 185.124 255.159 184.079 255.745 182.852H250.433ZM249.121 189.78H252.625V188.164H253.169V189.78H256.609V190.308H253.169V192.66H257.425V193.188H253.169V196.052H252.625V193.188H248.465V192.66H252.625V190.308H249.121V189.78ZM247.953 193.588C246.556 194.239 244.924 194.777 243.057 195.204L242.977 194.644C244.855 194.26 246.513 193.721 247.953 193.028V193.588ZM246.369 181.78C245.495 184.148 244.636 185.94 243.793 187.156C244.679 187.049 245.633 186.879 246.657 186.644L247.617 184.66L248.113 184.852C246.577 187.999 245.329 190.143 244.369 191.284C245.564 191.007 246.801 190.601 248.081 190.068V190.58C246.609 191.209 245.143 191.652 243.681 191.908L243.521 191.396C243.617 191.353 243.708 191.295 243.793 191.22C244.508 190.431 245.367 189.087 246.369 187.188C245.356 187.391 244.327 187.572 243.281 187.732L243.137 187.204C243.233 187.161 243.313 187.087 243.377 186.98C244.316 185.487 245.137 183.689 245.841 181.588L246.369 181.78ZM272.641 182.628C271.479 183.023 270.124 183.311 268.577 183.492V188.564H273.457V189.108H268.577V194.596H272.657V195.14H263.969V194.596H268.033V189.108H263.185V188.564H268.033V183.556C266.807 183.673 265.553 183.732 264.273 183.732L264.081 183.22C267.505 183.199 270.263 182.841 272.353 182.148L272.641 182.628ZM263.409 181.812C262.951 183.113 262.401 184.297 261.761 185.364V196.068H261.217V186.212C260.609 187.108 259.911 187.956 259.121 188.756L258.945 188.196C260.791 186.223 262.113 184.025 262.913 181.604L263.409 181.812ZM279.649 182.628H289.473V183.172H288.081V194.868C288.081 195.604 287.665 195.972 286.833 195.972H284.081L283.969 195.444C285.207 195.465 286.097 195.476 286.641 195.476C287.239 195.476 287.537 195.231 287.537 194.74V183.172H279.649V182.628ZM280.241 186.116H285.169V191.748H280.241V186.116ZM284.625 191.22V186.628H280.785V191.22H284.625ZM279.169 181.716C278.775 182.985 278.279 184.159 277.681 185.236V196.068H277.153V186.148C276.535 187.129 275.873 188.004 275.169 188.772L274.993 188.212C276.711 186.217 277.937 183.972 278.673 181.476L279.169 181.716ZM292.993 188.628C292.876 191.444 292.343 193.887 291.393 195.956L290.977 195.604C291.98 193.513 292.487 190.841 292.497 187.588V182.324H299.777V185.764H296.881V188.1H300.145V188.628H296.881V191.076H299.537V195.892H299.009V195.06H294.369V195.892H293.857V191.076H296.353V188.628H292.993ZM296.353 185.764H293.025V187.844L293.009 188.1H296.353V185.764ZM294.369 194.548H299.009V191.588H294.369V194.548ZM299.249 182.868H293.025V185.252H299.249V182.868ZM301.313 182.916H301.857V192.452H301.313V182.916ZM301.265 195.876L301.169 195.348C301.937 195.38 302.663 195.396 303.345 195.396C303.9 195.396 304.177 195.097 304.177 194.5V181.556H304.721V194.644C304.721 195.465 304.327 195.876 303.537 195.876H301.265ZM314.033 191.252V192.836H319.665V191.252H314.033ZM319.665 190.836V189.172H314.033V190.836H319.665ZM314.033 193.252V195.988H313.489V188.724H320.193V194.356C320.193 195.401 319.82 195.924 319.073 195.924H317.889L317.761 195.46L318.913 195.476C319.415 195.476 319.665 195.065 319.665 194.244V193.252H314.033ZM316.593 181.364H317.153V182.708H321.089V183.156H317.153V184.74H320.561V185.172H317.153V186.756H321.537V187.188H312.113V187.124L311.793 187.204C311.409 186.223 310.929 185.279 310.353 184.372L310.737 184.244C311.26 185.033 311.719 185.897 312.113 186.836V186.756H316.593V185.172H313.137V184.74H316.593V183.156H312.577V182.708H316.593V181.364ZM308.321 184.548C308.257 186.073 307.916 187.556 307.297 188.996L306.865 188.884C307.484 187.487 307.825 186.031 307.889 184.516L308.321 184.548ZM309.313 181.556H309.857V195.956H309.313V181.556ZM326.273 192.42C326.796 192.42 327.239 192.596 327.601 192.948C327.975 193.3 328.161 193.737 328.161 194.26C328.161 194.772 327.975 195.204 327.601 195.556C327.239 195.908 326.796 196.084 326.273 196.084C325.751 196.084 325.308 195.913 324.945 195.572C324.572 195.209 324.385 194.772 324.385 194.26C324.385 193.716 324.572 193.279 324.945 192.948C325.297 192.596 325.74 192.42 326.273 192.42ZM326.273 192.916C325.879 192.916 325.553 193.044 325.297 193.3C325.031 193.556 324.897 193.876 324.897 194.26C324.897 194.623 325.031 194.932 325.297 195.188C325.553 195.444 325.879 195.572 326.273 195.572C326.636 195.572 326.961 195.444 327.249 195.188C327.516 194.921 327.649 194.612 327.649 194.26C327.649 193.897 327.516 193.583 327.249 193.316C326.972 193.049 326.647 192.916 326.273 192.916ZM342.929 183.076H343.697L348.337 194.5H347.649L346.209 190.884H340.433L338.977 194.5H338.273L342.929 183.076ZM340.657 190.308H345.985L343.345 183.748H343.297L340.657 190.308ZM349.728 183.076H350.352V194.5H349.728V183.076ZM355.503 188.548C354.671 189.476 353.695 190.388 352.575 191.284L352.399 190.756C354.937 188.708 356.585 186.703 357.343 184.74H352.847V184.228H357.903V184.692C357.487 185.791 356.868 186.857 356.047 187.892V188.42C356.452 188.697 356.799 188.959 357.087 189.204C357.695 188.873 358.249 188.351 358.751 187.636L359.103 187.988C358.633 188.649 358.095 189.167 357.487 189.54C358.041 189.999 358.591 190.527 359.135 191.124L358.815 191.604C357.897 190.516 356.975 189.625 356.047 188.932V196.068H355.503V188.548ZM355.231 181.524C355.679 182.335 356.004 183.028 356.207 183.604L355.711 183.796C355.412 183.039 355.071 182.335 354.687 181.684L355.231 181.524ZM361.743 181.54H362.271V186.852C363.871 187.951 365.439 189.161 366.975 190.484L366.655 190.948C364.927 189.401 363.465 188.217 362.271 187.396V196.004H361.743V181.54ZM375.359 181.364C375.711 182.047 376.025 182.799 376.303 183.62H382.543V184.148H374.559C373.353 186.367 372.292 187.887 371.375 188.708C374.244 188.591 377.081 188.399 379.887 188.132C379.311 187.268 378.697 186.42 378.047 185.588L378.495 185.3C379.817 187.007 380.836 188.505 381.551 189.796L381.103 190.132C380.847 189.663 380.548 189.156 380.207 188.612C379.055 188.719 378.191 188.793 377.615 188.836V194.356C377.615 194.911 377.956 195.188 378.639 195.188H380.863C381.268 195.188 381.567 195.108 381.759 194.948C382.079 194.66 382.271 193.785 382.335 192.324L382.847 192.484C382.751 194.009 382.537 194.959 382.207 195.332C381.94 195.599 381.54 195.732 381.007 195.732H378.479C377.551 195.732 377.087 195.305 377.087 194.452V188.868L374.111 189.076C373.983 191.06 373.588 192.505 372.927 193.412C372.191 194.415 370.969 195.268 369.263 195.972L368.911 195.556C370.553 194.884 371.721 194.095 372.415 193.188C373.076 192.292 373.46 190.932 373.567 189.108C372.905 189.151 371.913 189.204 370.591 189.268L370.463 188.756L370.591 188.708C371.444 188.153 372.575 186.633 373.983 184.148H368.927V183.62H375.775C375.476 182.831 375.145 182.116 374.783 181.476L375.359 181.364ZM386.703 186.116C386.052 187.108 385.3 188.047 384.447 188.932L384.287 188.372C386.217 186.249 387.588 183.903 388.399 181.332L388.895 181.572C388.457 182.841 387.908 184.057 387.247 185.22V196.068H386.703V186.116ZM389.951 183.22H397.759V183.716C395.337 186.212 393.743 187.908 392.975 188.804C391.919 189.999 391.177 191.076 390.751 192.036C390.441 192.687 390.287 193.241 390.287 193.7C390.287 194.063 390.415 194.356 390.671 194.58C390.959 194.804 391.497 194.916 392.287 194.916H396.687C397.263 194.905 397.679 194.703 397.935 194.308C398.169 193.839 398.287 192.879 398.287 191.428L398.815 191.588C398.815 193.167 398.665 194.212 398.367 194.724C398.057 195.215 397.551 195.46 396.847 195.46H392.175C391.268 195.46 390.633 195.311 390.271 195.012C389.919 194.66 389.743 194.223 389.743 193.7C389.743 193.177 389.887 192.612 390.175 192.004C390.601 190.991 391.375 189.86 392.495 188.612C393.679 187.257 395.172 185.647 396.975 183.78H389.951V183.22ZM407.183 181.444H407.727V183.236H414.127V183.764H407.727V186.356H412.847V191.012H402.799V186.356H407.183V181.444ZM412.303 190.484V186.884H403.343V190.484H412.303ZM403.231 192.212C402.623 193.631 401.892 194.868 401.039 195.924L400.607 195.62C401.46 194.575 402.175 193.364 402.751 191.988L403.231 192.212ZM405.695 192.388C406.047 193.529 406.345 194.724 406.591 195.972L406.031 196.084C405.796 194.665 405.513 193.471 405.183 192.5L405.695 192.388ZM409.071 192.292C409.572 193.38 410.009 194.596 410.383 195.94L409.839 196.052C409.476 194.655 409.055 193.439 408.575 192.404L409.071 192.292ZM412.495 192.036C413.508 193.38 414.297 194.591 414.863 195.668L414.415 195.988C413.871 194.953 413.081 193.732 412.047 192.324L412.495 192.036ZM421.439 193.716C419.988 194.345 418.377 194.847 416.607 195.22L416.527 194.692C418.436 194.297 420.073 193.791 421.439 193.172V193.716ZM419.775 181.716C418.889 184.127 418.031 185.945 417.199 187.172C418.073 187.076 418.959 186.916 419.855 186.692L420.767 184.756L421.263 184.932C419.801 188.036 418.607 190.148 417.679 191.268C418.991 191.023 420.239 190.697 421.423 190.292V190.804C419.897 191.295 418.436 191.641 417.039 191.844L416.895 191.348C417.023 191.284 417.108 191.231 417.151 191.188C417.844 190.377 418.66 189.055 419.599 187.22C418.479 187.444 417.513 187.615 416.703 187.732L416.559 187.236C416.633 187.215 416.708 187.145 416.783 187.028C417.721 185.524 418.548 183.679 419.263 181.492L419.775 181.716ZM426.031 183.46H422.815V188.5H426.031V183.46ZM426.031 189.028H422.815V194.228H426.031V189.028ZM426.559 194.228H429.791V189.028H426.559V194.228ZM426.559 188.5H429.791V183.46H426.559V188.5ZM429.791 194.74H422.815V195.94H422.287V182.948H430.303V195.94H429.791V194.74ZM438.335 187.268H433.551V186.74H445.135C445.103 189.076 445.071 190.468 445.039 190.916C444.975 191.876 444.815 192.532 444.559 192.884C444.281 193.225 443.791 193.396 443.087 193.396L441.407 193.412L441.279 192.868L442.959 192.884C443.471 192.884 443.849 192.745 444.095 192.468C444.361 192.201 444.516 191.561 444.559 190.548L444.591 187.268H438.863V195.988H438.335V187.268ZM432.847 183.284H436.815V181.492H437.375V183.284H442.079V181.492H442.639V183.284H446.607V183.828H442.639V185.588H442.079V183.828H437.375V185.572H436.815V183.828H432.847V183.284ZM450.527 193.236C451.039 193.236 451.295 193.583 451.295 194.276C451.295 195.428 450.841 196.255 449.935 196.756L449.663 196.34C450.356 195.86 450.719 195.241 450.751 194.484L450.543 194.5C450.351 194.5 450.191 194.447 450.063 194.34C449.945 194.233 449.887 194.079 449.887 193.876C449.887 193.663 449.94 193.503 450.047 193.396C450.164 193.289 450.324 193.236 450.527 193.236ZM477.999 182.788V195.412H477.455V194.004H472.895V195.54H472.351V182.788H477.999ZM472.895 193.492H477.455V183.316H472.895V193.492ZM464.943 186.1H467.951V183.188C466.991 183.359 466.052 183.481 465.135 183.556L464.943 183.044C467.225 182.884 469.22 182.463 470.927 181.78L471.199 182.26C470.324 182.58 469.423 182.852 468.495 183.076V186.1H471.439V186.628H468.495V187.652C469.444 188.537 470.415 189.572 471.407 190.756L471.087 191.204C470.063 189.903 469.199 188.895 468.495 188.18V195.988H467.951V187.732C467.225 189.599 466.169 191.257 464.783 192.708L464.559 192.148C466.18 190.527 467.3 188.687 467.919 186.628H464.943V186.1ZM480.799 182.804H494.655V183.332H486.271V183.972C486.271 185.177 486.207 186.292 486.079 187.316H492.911C492.879 191.369 492.671 193.796 492.287 194.596C491.892 195.396 491.204 195.796 490.223 195.796L488.415 195.78L488.271 195.236C489.007 195.268 489.609 195.284 490.079 195.284C491.049 195.252 491.663 194.841 491.919 194.052C492.153 193.273 492.303 191.209 492.367 187.86H486.015C485.78 189.396 485.433 190.692 484.975 191.748C484.153 193.561 482.804 194.985 480.927 196.02L480.623 195.54C482.436 194.548 483.764 193.119 484.607 191.252C485.332 189.407 485.705 186.98 485.727 183.972V183.332H480.799V182.804ZM98.008 228.292H104.808V223.588C102.984 223.759 101.117 223.844 99.208 223.844L99.016 223.316C103.795 223.295 107.645 222.841 110.568 221.956L110.84 222.452C109.24 222.953 107.411 223.316 105.352 223.54V228.292H111.992V228.836H105.352V235.988H104.808V228.836H98.008V228.292ZM119.928 222.308H126.952V228.66H119.928V222.308ZM126.424 228.132V225.764H120.456V228.132H126.424ZM120.456 225.236H126.424V222.852H120.456V225.236ZM123.112 229.444H123.64V231.364H127.416V231.892H123.64V234.932H128.168V235.476H118.536V234.932H123.112V231.892H119.384V231.364H123.112V229.444ZM114.184 235.876L114.072 235.348C114.733 235.369 115.197 235.38 115.464 235.38C115.923 235.38 116.152 235.183 116.152 234.788V229.956C115.299 230.287 114.536 230.548 113.864 230.74L113.72 230.212C114.541 229.999 115.352 229.732 116.152 229.412V225.316H113.96V224.788H116.152V221.556H116.696V224.788H118.504V225.316H116.696V229.188C117.421 228.857 118.035 228.559 118.536 228.292V228.852C117.96 229.151 117.347 229.444 116.696 229.732V234.932C116.696 235.561 116.349 235.876 115.656 235.876H114.184ZM130.808 221.716C131.907 222.612 132.824 223.513 133.56 224.42L133.176 224.804C132.493 223.94 131.581 223.028 130.44 222.068L130.808 221.716ZM140.296 235.716C139.763 235.716 138.813 235.705 137.448 235.684C136.371 235.652 135.549 235.545 134.984 235.364C134.355 235.161 133.789 234.751 133.288 234.132C133.075 233.855 132.867 233.716 132.664 233.716C132.163 233.716 131.4 234.5 130.376 236.068L129.944 235.7C130.936 234.196 131.757 233.364 132.408 233.204V227.78H129.944V227.236H132.936V233.22C133.128 233.295 133.341 233.465 133.576 233.732C133.981 234.233 134.44 234.596 134.952 234.82C135.496 235.012 136.243 235.124 137.192 235.156C138.195 235.177 139.203 235.188 140.216 235.188L144.312 235.14L144.184 235.716H140.296ZM136.2 224.164C135.891 224.772 135.539 225.353 135.144 225.908L134.68 225.62C135.501 224.543 136.115 223.295 136.52 221.876L137.048 221.988C136.877 222.564 136.675 223.113 136.44 223.636H139.192V221.508H139.72V223.636H143.24V224.164H139.72V226.724H144.04V227.252H134.408V226.724H139.192V224.164H136.2ZM135.8 229.012H142.776V233.204H135.8V229.012ZM142.248 232.692V229.54H136.328V232.692H142.248ZM151.384 222.372H160.2V222.916H156.072V225.444H159.4V233.108C159.4 233.833 159.075 234.196 158.424 234.196H157.336L157.192 233.652L158.248 233.668C158.653 233.668 158.856 233.444 158.856 232.996V225.972H156.072V235.892H155.528V225.972H152.744V234.388H152.2V225.444H155.528V222.916H151.384V222.372ZM146.68 223.684H147.224V231.94H146.68V223.684ZM149.496 221.652H150.04V229.124C149.987 232.271 148.877 234.564 146.712 236.004L146.296 235.652C148.397 234.308 149.464 232.132 149.496 229.124V221.652ZM163.992 226.244C163.405 227.3 162.712 228.292 161.912 229.22L161.736 228.628C163.421 226.537 164.616 224.217 165.32 221.668L165.832 221.892C165.459 223.108 165.027 224.217 164.536 225.22V235.988H163.992V226.244ZM174.52 224.692V222.308H175.048V225.204H167.208V222.34H167.752V224.692H170.888V221.572H171.432V224.692H174.52ZM168.152 230.276V232.084H171.8V230.276H168.152ZM168.152 232.564V234.5H171.8V232.564H168.152ZM168.152 235.012V235.924H167.624V228.884C167.08 229.812 166.483 230.623 165.832 231.316L165.464 230.9C166.723 229.545 167.688 227.892 168.36 225.94L168.888 226.068C168.707 226.601 168.515 227.092 168.312 227.54H171.976C171.699 226.911 171.416 226.388 171.128 225.972L171.656 225.876C171.965 226.367 172.248 226.921 172.504 227.54H175.752V228.036H172.312V229.796H175.272V230.276H172.312V232.084H175.32V232.564H172.312V234.5H176.136V235.012H168.152ZM171.8 228.036H168.152V229.796H171.8V228.036ZM183.32 221.748C182.755 223.06 182.04 224.292 181.176 225.444V236.068H180.632V226.132C179.8 227.124 178.888 228.031 177.896 228.852L177.72 228.292C180.077 226.287 181.773 224.025 182.808 221.508L183.32 221.748ZM186.808 235.764C185.912 235.764 185.464 235.321 185.464 234.436V228.916C184.568 229.439 183.725 229.892 182.936 230.276L182.664 229.748C183.699 229.279 184.632 228.783 185.464 228.26V221.556H186.008V227.924C187.853 226.729 189.469 225.327 190.856 223.716L191.24 224.132C189.779 225.828 188.035 227.311 186.008 228.58V234.356C186.008 234.932 186.323 235.22 186.952 235.22H189.816C190.328 235.22 190.696 235.076 190.92 234.788C191.144 234.5 191.288 233.46 191.352 231.668L191.864 231.828C191.768 233.684 191.597 234.804 191.352 235.188C191.085 235.572 190.605 235.764 189.912 235.764H186.808ZM195.48 226.756V230.02H198.152V226.756H195.48ZM198.152 226.228V222.884H195.48V226.228H198.152ZM195.464 230.548C195.357 232.799 194.925 234.644 194.168 236.084L193.752 235.7C194.52 234.132 194.92 232.153 194.952 229.764V222.34H198.696V234.788C198.696 235.577 198.328 235.972 197.592 235.972H196.44L196.28 235.444C196.835 235.465 197.208 235.476 197.4 235.476C197.901 235.476 198.152 235.183 198.152 234.596V230.548H195.464ZM202.376 225.412C203.016 226.543 203.629 227.695 204.216 228.868C204.664 227.748 205.021 226.489 205.288 225.092L205.8 225.188C205.469 226.82 205.043 228.255 204.52 229.492C205.128 230.719 205.624 231.817 206.008 232.788L205.592 233.092C205.229 232.175 204.787 231.167 204.264 230.068C203.677 231.295 202.952 232.388 202.088 233.348L201.752 232.932C202.637 231.951 203.379 230.799 203.976 229.476C203.336 228.185 202.659 226.921 201.944 225.684L202.376 225.412ZM203.656 221.508C203.912 222.105 204.136 222.804 204.328 223.604H208.2V224.132H199.848V223.604H203.768C203.597 222.943 203.384 222.276 203.128 221.604L203.656 221.508ZM201.032 235.06V235.908H200.504V226.372H201.032V234.532H206.952V226.34H207.48V235.876H206.952V235.06H201.032ZM210.6 221.86C211.699 222.617 212.632 223.385 213.4 224.164L213.016 224.532C212.333 223.817 211.4 223.049 210.216 222.228L210.6 221.86ZM210.36 225.636C211.437 226.404 212.339 227.188 213.064 227.988L212.68 228.372C212.029 227.625 211.128 226.831 209.976 225.988L210.36 225.636ZM213.336 230.1C212.525 232.084 211.587 233.993 210.52 235.828L209.992 235.62C211.112 233.732 212.067 231.828 212.856 229.908L213.336 230.1ZM216.744 227.828H221.192V232.708H216.744V227.828ZM220.664 232.196V228.34H217.256V232.196H220.664ZM220.072 235.924L219.928 235.38L221.976 235.396C222.584 235.396 222.888 235.161 222.888 234.692V222.82H214.856V235.972H214.328V222.292H223.432V234.804C223.432 235.551 223.005 235.924 222.152 235.924H220.072ZM216.216 225.156H221.736V225.684H216.216V225.156ZM227.8 233.236C228.312 233.236 228.568 233.583 228.568 234.276C228.568 235.428 228.115 236.255 227.208 236.756L226.936 236.34C227.629 235.86 227.992 235.241 228.024 234.484L227.816 234.5C227.624 234.5 227.464 234.447 227.336 234.34C227.219 234.233 227.16 234.079 227.16 233.876C227.16 233.663 227.213 233.503 227.32 233.396C227.437 233.289 227.597 233.236 227.8 233.236ZM242.744 224.964H245.88V221.38H246.424V224.964H251.576V221.444H252.12V224.964H255.272V225.508H252.12V229.972H256.056V230.5H241.944V229.972H245.88V225.508H242.744V224.964ZM246.424 229.972H251.576V225.508H246.424V229.972ZM247.416 231.892C246.051 233.439 244.365 234.783 242.36 235.924L242.008 235.46C243.981 234.329 245.651 233.017 247.016 231.524L247.416 231.892ZM251.096 231.556C253.037 232.857 254.659 234.169 255.96 235.492L255.544 235.892C254.328 234.644 252.712 233.316 250.696 231.908L251.096 231.556ZM264.216 227.236H260.104V234.724C260.104 235.044 260.291 235.204 260.664 235.204H264.168C264.819 235.204 265.229 235.055 265.4 234.756C265.581 234.361 265.704 233.679 265.768 232.708L266.296 232.884C266.2 234.185 266.003 235.007 265.704 235.348C265.448 235.604 264.957 235.732 264.232 235.732H260.552C259.88 235.732 259.544 235.428 259.544 234.82V226.74H264.76V230.74C264.739 231.561 264.349 231.977 263.592 231.988C263.197 231.988 262.616 231.967 261.848 231.924L261.688 231.412C262.499 231.455 263.096 231.476 263.48 231.476C263.971 231.476 264.216 231.204 264.216 230.66V227.236ZM262.536 221.748C263.955 223.284 265.304 224.868 266.584 226.5L266.216 226.884C264.893 225.167 263.608 223.625 262.36 222.26C261.037 224.191 259.587 225.876 258.008 227.316L257.688 226.884C259.288 225.433 260.755 223.721 262.088 221.748H262.536ZM267.864 222.916H268.408V233.028H267.864V222.916ZM267.816 235.876L267.704 235.348C268.632 235.38 269.512 235.396 270.344 235.396C270.685 235.396 270.856 235.193 270.856 234.788V221.556H271.4V234.916C271.4 235.556 271.112 235.876 270.536 235.876H267.816ZM285.512 222.276V225.604H276.296V227.108C276.296 227.705 276.6 228.015 277.208 228.036H285.864C286.323 228.036 286.653 227.903 286.856 227.636C287.016 227.38 287.128 226.889 287.192 226.164L287.688 226.324C287.624 227.007 287.507 227.524 287.336 227.876C287.069 228.324 286.605 228.548 285.944 228.548H277.096C276.2 228.548 275.752 228.111 275.752 227.236V222.276H285.512ZM276.296 225.092H284.984V222.788H276.296V225.092ZM273.784 231.38H278.12C278.141 230.889 278.152 230.196 278.152 229.3H278.696C278.696 230.409 278.685 231.103 278.664 231.38H283.48V229.316H284.024V231.38H288.248V231.908H284.024V235.892H283.48V231.908H278.6C278.28 233.913 277.112 235.263 275.096 235.956L274.792 235.492C276.68 234.884 277.768 233.689 278.056 231.908H273.784V231.38ZM297.192 222.324H302.744V229.748H297.192V222.324ZM302.2 229.236V227.412H297.736V229.236H302.2ZM297.736 226.916H302.2V225.172H297.736V226.916ZM297.736 224.66H302.2V222.836H297.736V224.66ZM293.48 230.164H292.936V225.06C292.189 226.66 291.171 228.111 289.88 229.412L289.656 228.884C291.075 227.54 292.152 225.977 292.888 224.196H290.04V223.652H292.936V221.7H293.48V223.652H295.848V224.196H293.48V225.22C294.44 225.967 295.352 226.761 296.216 227.604L295.896 228.068C295.032 227.14 294.227 226.367 293.48 225.748V230.164ZM292.28 231.348C291.832 232.873 291.208 234.191 290.408 235.3L289.928 234.996C290.749 233.897 291.357 232.639 291.752 231.22L292.28 231.348ZM295.096 235.684C294.285 235.684 293.88 235.252 293.88 234.388V230.964H294.424V234.276C294.424 234.852 294.707 235.14 295.272 235.14H298.84C299.331 235.14 299.677 235.055 299.88 234.884C300.147 234.617 300.328 233.897 300.424 232.724L300.936 232.884C300.84 234.185 300.621 234.996 300.28 235.316C300.013 235.561 299.565 235.684 298.936 235.684H295.096ZM296.616 230.74C297.491 231.657 298.136 232.425 298.552 233.044L298.104 233.364C297.613 232.639 296.973 231.86 296.184 231.028L296.616 230.74ZM301.64 230.9C302.771 232.329 303.613 233.551 304.168 234.564L303.72 234.884C303.112 233.775 302.275 232.537 301.208 231.172L301.64 230.9ZM306.264 222.372H319.704V222.932H311.08L310.312 226.148H317.336L315.976 234.884H320.168V235.412H306.024V234.884H315.432L315.992 231.38H308.504L310.504 222.932H306.264V222.372ZM316.072 230.852L316.744 226.676H310.184L309.176 230.852H316.072ZM322.552 222.836H328.12V223.364H322.552V222.836ZM321.896 227.156H328.76V227.7H324.92C324.131 230.58 323.448 232.537 322.872 233.572C324.461 233.316 326.04 232.884 327.608 232.276C327.181 231.359 326.707 230.457 326.184 229.572L326.664 229.332C327.485 230.772 328.237 232.287 328.92 233.876L328.44 234.116C328.387 233.977 328.285 233.743 328.136 233.412L327.832 232.724C326.136 233.332 324.253 233.833 322.184 234.228L322.056 233.7L322.168 233.652C322.723 232.959 323.464 230.975 324.392 227.7H321.896V227.156ZM331.544 221.556H332.088V224.58H335.64C335.64 229.604 335.565 232.745 335.416 234.004C335.288 235.231 334.691 235.844 333.624 235.844L332.008 235.812L331.88 235.316C332.755 235.337 333.331 235.348 333.608 235.348C334.323 235.348 334.744 234.873 334.872 233.924C335 232.857 335.08 229.919 335.112 225.108H332.088V225.3C332.045 230.175 330.893 233.748 328.632 236.02L328.2 235.636C330.397 233.492 331.512 230.047 331.544 225.3V225.108H329.304V224.58H331.544V221.556ZM341.736 235.844L341.624 235.284C342.424 235.316 343.187 235.332 343.912 235.332C344.627 235.332 344.984 234.959 344.984 234.212V221.748H345.544V234.34C345.544 235.343 345.059 235.844 344.088 235.844H341.736ZM341.336 225.668C340.515 228.857 339.453 231.273 338.152 232.916L337.688 232.516C339.053 230.788 340.093 228.436 340.808 225.46L341.336 225.668ZM348.984 225.108C350.424 228.031 351.533 230.607 352.312 232.836L351.848 233.172C351.037 230.857 349.923 228.271 348.504 225.412L348.984 225.108ZM353.864 225.524H356.104V221.7H356.664V225.524H360.552V221.556H361.096V225.524H364.952V221.556H365.48V225.524H368.12V226.052H365.48V231.092H360.552V226.052H356.664V234.804H367.576V235.348H356.104V226.052H353.864V225.524ZM361.096 226.052V230.548H364.952V226.052H361.096ZM371.688 222.276H382.376V228.18H378.984C380.051 229.684 381.821 230.852 384.296 231.684L384.056 232.164C381.357 231.172 379.48 229.844 378.424 228.18H375.576C374.488 229.748 372.627 231.044 369.992 232.068L369.688 231.588C372.173 230.724 373.949 229.588 375.016 228.18H371.688V222.276ZM381.832 227.668V225.46H377.272V227.668H381.832ZM376.728 227.668V225.46H372.232V227.668H376.728ZM372.232 224.964H376.728V222.788H372.232V224.964ZM377.272 222.788V224.964H381.832V222.788H377.272ZM374.968 230.164C374.968 231.391 374.792 232.436 374.44 233.3C373.939 234.441 372.835 235.364 371.128 236.068L370.776 235.62C372.28 235.012 373.304 234.223 373.848 233.252C374.232 232.42 374.424 231.391 374.424 230.164H374.968ZM379.272 230.18H379.832V236.052H379.272V230.18ZM389 232.42C389.523 232.42 389.965 232.596 390.328 232.948C390.701 233.3 390.888 233.737 390.888 234.26C390.888 234.772 390.701 235.204 390.328 235.556C389.965 235.908 389.523 236.084 389 236.084C388.477 236.084 388.035 235.913 387.672 235.572C387.299 235.209 387.112 234.772 387.112 234.26C387.112 233.716 387.299 233.279 387.672 232.948C388.024 232.596 388.467 232.42 389 232.42ZM389 232.916C388.605 232.916 388.28 233.044 388.024 233.3C387.757 233.556 387.624 233.876 387.624 234.26C387.624 234.623 387.757 234.932 388.024 235.188C388.28 235.444 388.605 235.572 389 235.572C389.363 235.572 389.688 235.444 389.976 235.188C390.243 234.921 390.376 234.612 390.376 234.26C390.376 233.897 390.243 233.583 389.976 233.316C389.699 233.049 389.373 232.916 389 232.916Z"
    fill="white" />
</svg>