<svg width="912" height="184" viewBox="0 0 912 184" fill="none" xmlns="http://www.w3.org/2000/svg">
  <path
    d="M25.296 10.512L38.784 9.312V6.192L25.296 7.392V10.512ZM25.296 17.952L38.784 16.752V13.632L25.296 14.832V17.952ZM20.112 22.8V3.408L44.16 1.296V20.688L20.112 22.8ZM3.84 47.856C3.648 46.32 3.12 44.624 2.256 42.768C3.216 42.704 4.096 42.64 4.896 42.576C5.728 42.544 6.304 42.496 6.624 42.432C6.976 42.4 7.216 42.304 7.344 42.144C7.504 42.016 7.584 41.792 7.584 41.472V31.296L2.448 33.024L1.056 27.696C2.976 27.152 5.152 26.48 7.584 25.68V17.088L1.872 17.568V12.288L7.584 11.808V2.784L13.2 2.304V11.328L17.904 10.896V16.176L13.2 16.608V23.76L17.712 22.176L18.432 27.36L13.2 29.328V40.944C13.2 42.352 13.04 43.456 12.72 44.256C12.432 45.056 11.888 45.712 11.088 46.224C9.552 47.12 7.136 47.664 3.84 47.856ZM16.128 45.072V39.984L28.944 38.88V32.688L19.344 33.504V28.464L28.944 27.648V23.184L34.752 22.656V27.12L44.448 26.304V31.344L34.752 32.16V38.352L46.368 37.344V42.432L16.128 45.072ZM59.424 42.336V12.72L49.44 13.584V7.632L76.608 5.232V11.184L66.528 12.096V41.712L59.424 42.336ZM74.8523 43.056C72.7403 43.056 70.9963 42.416 69.6203 41.136C68.2763 39.824 67.6043 38.016 67.6043 35.712C67.6043 32.832 68.8363 30.496 71.3003 28.704C73.7963 26.88 77.7323 25.456 83.1083 24.432C83.0763 23.088 82.7083 22.016 82.0043 21.216C81.3963 20.512 80.4523 20.16 79.1723 20.16L78.5003 20.208C76.0363 20.528 73.5723 21.584 71.1083 23.376L68.5643 18.96C70.1643 17.808 71.9083 16.816 73.7963 15.984C76.2603 14.896 78.6443 14.352 80.9483 14.352C87.0603 14.352 90.1163 18.016 90.1163 25.344V41.04L84.3563 41.568L83.8763 38.736H83.6843C80.6443 41.616 77.7003 43.056 74.8523 43.056ZM77.3483 37.344C79.3963 37.344 81.3163 36.288 83.1083 34.176V28.752C77.2523 30.032 74.3243 31.968 74.3243 34.56C74.3243 35.616 74.6603 36.352 75.3323 36.768C75.8443 37.152 76.5163 37.344 77.3483 37.344ZM109.98 45.648V40.368L121.596 39.36V28.416L111.852 29.232V23.952L121.596 23.136V15.168L127.356 14.64V22.608L136.86 21.792V27.072L127.356 27.888V38.832L138.732 37.824V43.104L109.98 45.648ZM101.772 47.52V30.816C100.46 32.128 99.0516 33.36 97.5476 34.512C96.7156 32.56 95.7716 30.816 94.7156 29.28C99.7716 25.344 103.756 20.384 106.668 14.4L96.2516 15.312V9.84L109.212 8.688C110.044 6.384 110.748 4.096 111.324 1.824L117.324 2.736C116.78 4.56 116.172 6.368 115.5 8.16L138.876 6.096V11.568L113.196 13.824C111.628 17.312 109.756 20.624 107.58 23.76V46.992L101.772 47.52ZM150.012 47.52V29.856C148.22 31.68 146.396 33.248 144.54 34.56C144.316 33.728 143.98 32.736 143.532 31.584C143.116 30.4 142.732 29.52 142.38 28.944C147.468 25.584 151.58 21.088 154.716 15.456L143.772 16.416V11.28L152.172 10.512C151.18 8.656 149.884 6.8 148.284 4.944L152.796 2.208C154.716 4.16 156.172 6.048 157.164 7.872L153.372 10.416L157.836 10.032L158.796 9.696L161.82 11.664C160.412 15.344 158.572 18.848 156.3 22.176C157.58 23.168 159.42 24.736 161.82 26.88L162.684 27.6L159.132 32.688C158.236 31.408 157.068 29.952 155.628 28.32V47.04L150.012 47.52ZM160.188 45.168V39.504L171.756 38.496V20.688L162.3 21.504V15.984L171.756 15.168V1.104L177.66 0.575998V14.64L186.732 13.824V19.344L177.66 20.16V37.968L187.884 37.056V42.72L160.188 45.168ZM193.596 46.56V5.184L234.108 1.632V7.104L199.164 10.176V40.608L235.356 37.44V42.912L193.596 46.56ZM204.588 38.016C203.148 36.448 201.692 35.104 200.22 33.984C204.636 31.264 208.78 27.984 212.652 24.144C209.036 21.296 205.548 18.72 202.188 16.416L206.172 12.528L216.588 19.872C219.468 16.544 221.916 13.088 223.932 9.504L229.356 11.184C226.924 15.344 224.092 19.312 220.86 23.088C225.02 26.128 228.364 28.896 230.892 31.392L226.38 36.048C224.044 33.552 220.876 30.688 216.876 27.456C212.908 31.552 208.812 35.072 204.588 38.016Z"
    fill="white" />
  <path
    d="M6.928 77.808H13.952V84.16H6.928V77.808ZM13.424 83.632V81.264H7.456V83.632H13.424ZM7.456 80.736H13.424V78.352H7.456V80.736ZM10.112 84.944H10.64V86.864H14.416V87.392H10.64V90.432H15.168V90.976H5.536V90.432H10.112V87.392H6.384V86.864H10.112V84.944ZM1.184 91.376L1.072 90.848C1.73333 90.8693 2.19733 90.88 2.464 90.88C2.92267 90.88 3.152 90.6827 3.152 90.288V85.456C2.29867 85.7867 1.536 86.048 0.864 86.24L0.72 85.712C1.54133 85.4987 2.352 85.232 3.152 84.912V80.816H0.96V80.288H3.152V77.056H3.696V80.288H5.504V80.816H3.696V84.688C4.42133 84.3573 5.03467 84.0587 5.536 83.792V84.352C4.96 84.6507 4.34667 84.944 3.696 85.232V90.432C3.696 91.0613 3.34933 91.376 2.656 91.376H1.184ZM16.304 78.576H25.664V79.152H21.312V90H20.688V79.152H16.304V78.576ZM30.4008 81.504C31.5314 81.504 32.3741 81.824 32.9288 82.464C33.3981 82.9973 33.6328 83.728 33.6328 84.656V90H33.0408V88.224C32.6994 88.7147 32.2354 89.1573 31.6488 89.552C30.9448 90 30.1821 90.224 29.3608 90.224C28.5714 90.224 27.9261 90.0213 27.4248 89.616C26.9234 89.1893 26.6728 88.624 26.6728 87.92C26.6728 86.864 27.1154 86.1013 28.0008 85.632C28.6834 85.2587 29.6168 85.072 30.8008 85.072L33.0248 85.056V84.72C33.0248 82.9493 32.1448 82.064 30.3848 82.064C29.5954 82.064 28.9608 82.24 28.4808 82.592C27.9474 82.9653 27.6328 83.4987 27.5368 84.192H26.9288C27.0568 83.296 27.4354 82.6187 28.0648 82.16C28.6408 81.7227 29.4194 81.504 30.4008 81.504ZM33.0248 85.6L30.8168 85.616C28.4701 85.6267 27.2968 86.4 27.2968 87.936C27.2968 88.4587 27.4941 88.88 27.8888 89.2C28.2834 89.5093 28.8114 89.664 29.4728 89.664C30.3688 89.664 31.1954 89.3493 31.9528 88.72C32.6674 88.0907 33.0248 87.4507 33.0248 86.8V85.6ZM48.9923 78.08V91.52H48.4483V90.4H42.4643V91.536H41.9203V78.08H48.9923ZM42.4643 89.872H48.4483V86.368H42.4643V89.872ZM42.4643 85.84H48.4483V82.464H42.4643V85.84ZM42.4643 81.936H48.4483V78.608H42.4643V81.936ZM38.6562 91.504H38.1283V82.176C37.5523 84.128 36.7203 85.872 35.6323 87.408L35.4243 86.88C36.7149 85.1093 37.6056 83.1093 38.0963 80.88H35.6483V80.352H38.1283V77.024H38.6562V80.352H40.9443V80.88H38.6562V81.92C39.4456 82.784 40.2296 83.76 41.0083 84.848L40.7043 85.296C39.8616 84.0587 39.1789 83.1307 38.6562 82.512V91.504ZM53.4243 81.6C52.8163 82.6133 52.1389 83.5467 51.3923 84.4L51.2163 83.824C52.9229 81.744 54.1443 79.4293 54.8802 76.88L55.3923 77.12C55.0083 78.4 54.5283 79.5787 53.9523 80.656V91.568H53.4243V81.6ZM55.6643 79.408H65.9363V79.952H55.6643V79.408ZM57.1683 81.76H64.5283V82.272H57.1683V81.76ZM57.1683 84.016H64.5283V84.544H57.1683V84.016ZM64.7523 86.352V91.52H64.2083V90.592H57.5043V91.52H56.9443V86.352H64.7523ZM57.5043 90.064H64.2083V86.88H57.5043V90.064ZM60.4963 76.96C60.8589 77.6107 61.1363 78.224 61.3283 78.8L60.8483 78.992C60.6029 78.3307 60.3096 77.7067 59.9683 77.12L60.4963 76.96ZM71.3123 78.576H72.0803L76.7203 90H76.0323L74.5923 86.384H68.8163L67.3603 90H66.6562L71.3123 78.576ZM69.0403 85.808H74.3683L71.7283 79.248H71.6803L69.0403 85.808ZM78.1108 78.576H78.7348V90H78.1108V78.576ZM83.1814 78.096H93.0374V84.848H83.1814V78.096ZM92.4774 84.32V78.64H83.7414V84.32H92.4774ZM90.7014 86.032C92.4934 87.952 93.912 89.6853 94.9574 91.232L94.4934 91.568C93.48 89.9893 92.072 88.24 90.2694 86.32L90.7014 86.032ZM85.9494 86.272C84.7867 88.288 83.416 90.048 81.8374 91.552L81.3734 91.216C82.9414 89.7867 84.3067 88.0587 85.4694 86.032L85.9494 86.272ZM99.5014 77.664H108.925V82.864H99.5014V77.664ZM108.381 82.368V80.544H100.045V82.368H108.381ZM100.045 80.048H108.381V78.16H100.045V80.048ZM104.029 84.944H97.1174V84.432H111.149V84.944H104.557V87.312H109.421V87.84H104.557V90.624C105.389 90.72 106.419 90.768 107.645 90.768C108.968 90.768 110.093 90.752 111.021 90.72L110.861 91.28C109.987 91.28 108.931 91.2693 107.693 91.248C105.069 91.248 103.309 91.04 102.413 90.624C101.528 90.2187 100.733 89.3867 100.029 88.128C99.4107 89.472 98.5894 90.5653 97.5654 91.408L97.1974 90.992C98.7227 89.7227 99.7574 87.9947 100.301 85.808L100.829 85.904C100.669 86.512 100.477 87.088 100.253 87.632C100.968 88.976 101.795 89.84 102.733 90.224C103.011 90.3307 103.443 90.4373 104.029 90.544V84.944ZM119.901 78.848H114.093V78.32H126.269V78.848H120.445V90.08H126.957V90.624H113.245V90.08H119.901V78.848ZM129.133 78.72H133.197V76.96H133.757V78.72H138.461V76.96H139.021V78.72H143.085V79.264H139.021V81.008H138.461V79.264H133.757V81.008H133.197V79.264H129.133V78.72ZM130.493 82.048H140.781V82.592C136.6 84.7893 133.752 86.608 132.237 88.048C131.459 88.7947 131.059 89.4187 131.037 89.92C131.037 90.3893 131.4 90.624 132.125 90.624H139.581C140.296 90.624 140.856 90.5173 141.261 90.304C141.72 90.0267 142.045 89.04 142.237 87.344L142.749 87.552C142.557 89.248 142.221 90.272 141.741 90.624C141.283 90.976 140.579 91.152 139.629 91.152H132.205C131.043 91.152 130.461 90.7573 130.461 89.968C130.461 89.2747 131 88.448 132.077 87.488C133.571 86.1547 136.152 84.5227 139.821 82.592H130.493V82.048ZM146.909 88.736C147.421 88.736 147.677 89.0827 147.677 89.776C147.677 90.928 147.224 91.7547 146.317 92.256L146.045 91.84C146.739 91.36 147.101 90.7413 147.133 89.984L146.925 90C146.733 90 146.573 89.9467 146.445 89.84C146.328 89.7333 146.269 89.5787 146.269 89.376C146.269 89.1627 146.323 89.0027 146.429 88.896C146.547 88.7893 146.707 88.736 146.909 88.736ZM163.069 81.792C162.419 82.8373 161.699 83.792 160.909 84.656L160.733 84.096C162.568 81.9627 163.875 79.584 164.653 76.96L165.149 77.2C164.733 78.48 164.227 79.6853 163.629 80.816V91.536H163.069V81.792ZM172.605 83.36C173.533 85.3867 174.323 87.472 174.973 89.616L174.477 89.824C173.763 87.488 172.968 85.392 172.093 83.536L172.605 83.36ZM167.357 79.712C166.835 80.9813 166.189 82.1867 165.421 83.328L164.957 83.04C166.205 81.2587 167.133 79.2053 167.741 76.88L168.285 76.992C168.072 77.7387 167.832 78.464 167.565 79.168H174.573V79.536C174.328 80.5173 173.971 81.52 173.501 82.544L172.973 82.384C173.421 81.52 173.768 80.6293 174.013 79.712H167.357ZM167.453 91.408L167.341 90.88C168.067 90.912 168.76 90.928 169.421 90.928C169.848 90.928 170.061 90.7147 170.061 90.288V81.36H170.589V90.432C170.589 91.0827 170.264 91.408 169.613 91.408H167.453ZM167.965 83.584C167.357 85.8453 166.568 87.8347 165.597 89.552L165.069 89.36C165.987 87.8347 166.787 85.8613 167.469 83.44L167.965 83.584ZM184.285 85.184C183.251 85.536 182.173 85.856 181.053 86.144V89.984C181.053 90.8693 180.653 91.312 179.853 91.312H178.109L177.997 90.784C178.573 90.816 179.133 90.832 179.677 90.832C180.232 90.832 180.509 90.5013 180.509 89.84V86.272C179.24 86.56 178.072 86.7893 177.005 86.96L176.925 86.432C178.12 86.2293 179.315 85.9947 180.509 85.728V82.128H176.973V81.6H180.509V78.704C179.464 78.9173 178.477 79.0827 177.549 79.2L177.437 78.672C179.773 78.4053 181.832 77.9307 183.613 77.248L183.805 77.776C182.909 78.096 181.992 78.3627 181.053 78.576V81.6H185.565C185.469 80.224 185.421 78.704 185.421 77.04H185.965C185.965 78.7467 186.013 80.2667 186.109 81.6H191.245V82.128H186.157C186.275 83.4613 186.44 84.5653 186.653 85.44C186.76 85.92 186.909 86.448 187.101 87.024C188.061 85.9573 188.867 84.736 189.517 83.36L189.997 83.616C189.261 85.1627 188.365 86.4907 187.309 87.6C187.587 88.3253 187.891 88.9387 188.221 89.44C188.819 90.2827 189.309 90.704 189.693 90.704C190.163 90.6933 190.557 89.68 190.877 87.664L191.357 87.92C190.995 90.16 190.472 91.28 189.789 91.28C189.203 91.28 188.552 90.7947 187.837 89.824C187.475 89.28 187.16 88.6773 186.893 88.016C185.667 89.2 184.248 90.112 182.637 90.752L182.333 90.272C184.019 89.6213 185.469 88.6827 186.685 87.456C186.451 86.8267 186.259 86.176 186.109 85.504C185.896 84.5653 185.731 83.44 185.613 82.128H181.053V85.6C182.141 85.3333 183.219 85.008 184.285 84.624V85.184ZM187.725 77.264C188.888 78.0853 189.875 78.9227 190.685 79.776L190.301 80.16C189.565 79.3707 188.579 78.5227 187.341 77.616L187.725 77.264ZM198.973 91.392L198.861 90.864C199.971 90.8853 200.771 90.896 201.261 90.896C201.827 90.896 202.109 90.5813 202.109 89.952V80.688H201.149C199.645 84.112 196.979 86.912 193.149 89.088L192.861 88.624C196.531 86.608 199.117 83.9627 200.621 80.688H193.085V80.16H202.109V77.024H202.637V80.16H206.893V80.688H202.637V90.096C202.637 90.96 202.243 91.392 201.453 91.392H198.973ZM211.501 77.664H220.925V82.864H211.501V77.664ZM220.381 82.368V80.544H212.045V82.368H220.381ZM212.045 80.048H220.381V78.16H212.045V80.048ZM216.029 84.944H209.117V84.432H223.149V84.944H216.557V87.312H221.421V87.84H216.557V90.624C217.389 90.72 218.419 90.768 219.645 90.768C220.968 90.768 222.093 90.752 223.021 90.72L222.861 91.28C221.987 91.28 220.931 91.2693 219.693 91.248C217.069 91.248 215.309 91.04 214.413 90.624C213.528 90.2187 212.733 89.3867 212.029 88.128C211.411 89.472 210.589 90.5653 209.565 91.408L209.197 90.992C210.723 89.7227 211.757 87.9947 212.301 85.808L212.829 85.904C212.669 86.512 212.477 87.088 212.253 87.632C212.968 88.976 213.795 89.84 214.733 90.224C215.011 90.3307 215.443 90.4373 216.029 90.544V84.944ZM231.325 82.736H227.213V90.224C227.213 90.544 227.4 90.704 227.773 90.704H231.277C231.928 90.704 232.339 90.5547 232.509 90.256C232.691 89.8613 232.813 89.1787 232.877 88.208L233.405 88.384C233.309 89.6853 233.112 90.5067 232.813 90.848C232.557 91.104 232.067 91.232 231.341 91.232H227.661C226.989 91.232 226.653 90.928 226.653 90.32V82.24H231.869V86.24C231.848 87.0613 231.459 87.4773 230.701 87.488C230.307 87.488 229.725 87.4667 228.957 87.424L228.797 86.912C229.608 86.9547 230.205 86.976 230.589 86.976C231.08 86.976 231.325 86.704 231.325 86.16V82.736ZM229.645 77.248C231.064 78.784 232.413 80.368 233.693 82L233.325 82.384C232.003 80.6667 230.717 79.1253 229.469 77.76C228.147 79.6907 226.696 81.376 225.117 82.816L224.797 82.384C226.397 80.9333 227.864 79.2213 229.197 77.248H229.645ZM234.973 78.416H235.517V88.528H234.973V78.416ZM234.925 91.376L234.813 90.848C235.741 90.88 236.621 90.896 237.453 90.896C237.795 90.896 237.965 90.6933 237.965 90.288V77.056H238.509V90.416C238.509 91.056 238.221 91.376 237.645 91.376H234.925ZM247.581 80.016C246.856 81.552 245.971 82.944 244.925 84.192L244.541 83.76C246.131 81.8827 247.341 79.616 248.173 76.96L248.701 77.088C248.467 77.8453 248.173 78.6453 247.821 79.488H255.261V80.016H249.469V83.248H254.461V83.792H249.469V87.072H254.653V87.6H249.469V91.52H248.925V80.016H247.581ZM243.053 81.712C242.392 82.6613 241.699 83.4987 240.973 84.224L240.797 83.664C242.643 81.6907 243.971 79.4773 244.781 77.024L245.277 77.264C244.829 78.5547 244.269 79.7547 243.597 80.864V91.52H243.053V81.712ZM258.685 78.864H263.149V76.96H263.693V78.864H267.885V79.392H263.693V81.84H265.965C267.512 80.7627 268.904 79.4933 270.141 78.032L270.557 78.352C269.459 79.6533 268.232 80.816 266.877 81.84H271.197V82.384H266.109C265.907 82.5227 265.603 82.72 265.197 82.976C264.173 83.584 263.053 84.144 261.837 84.656H268.989V91.536H268.429V90.656H260.701V91.536H260.157V85.312C259.101 85.6747 258.093 85.9893 257.133 86.256L256.909 85.744C259.757 85.072 262.307 84.0693 264.557 82.736C265.016 82.448 265.208 82.3307 265.133 82.384H257.085V81.84H263.149V79.392H258.685V78.864ZM260.701 87.888V90.144H268.429V87.888H260.701ZM268.429 87.376V85.168H260.701V87.376H268.429ZM276.109 80.608C276.291 80.608 276.445 80.672 276.573 80.8C276.691 80.9173 276.749 81.0667 276.749 81.248C276.749 81.408 276.691 81.5573 276.573 81.696C276.445 81.824 276.291 81.888 276.109 81.888C275.928 81.888 275.773 81.824 275.645 81.696C275.528 81.5787 275.469 81.4293 275.469 81.248C275.469 81.056 275.528 80.9067 275.645 80.8C275.773 80.672 275.928 80.608 276.109 80.608ZM276.109 86.464C276.621 86.464 276.877 86.816 276.877 87.52C276.877 88.672 276.424 89.4987 275.517 90L275.245 89.584C275.939 89.104 276.301 88.4853 276.333 87.728L276.125 87.744C275.912 87.744 275.752 87.6907 275.645 87.584C275.528 87.4773 275.469 87.3227 275.469 87.12C275.469 86.896 275.523 86.7307 275.629 86.624C275.736 86.5173 275.896 86.464 276.109 86.464ZM4.656 118.576H5.424L10.064 130H9.376L7.936 126.384H2.16L0.704 130H0L4.656 118.576ZM2.384 125.808H7.712L5.072 119.248H5.024L2.384 125.808ZM11.4545 118.576H12.0785V130H11.4545V118.576ZM14.6211 131.344L14.5091 130.816C14.9465 130.848 15.3571 130.864 15.7411 130.864C16.2745 130.864 16.5411 130.587 16.5411 130.032V125.504C15.7945 125.824 15.0265 126.112 14.2371 126.368L14.1091 125.824C14.9198 125.589 15.7305 125.307 16.5411 124.976V120.688H14.3971V120.16H16.5411V117.024H17.0851V120.16H18.9891V120.688H17.0851V124.736C17.8105 124.395 18.4665 124.053 19.0531 123.712V124.24C18.4665 124.581 17.8105 124.923 17.0851 125.264V130.16C17.0851 130.949 16.7011 131.344 15.9331 131.344H14.6211ZM19.7571 119.536H23.7731V117.04H24.3171V119.536H28.3491V120.064H24.3171V123.2H27.6931V123.712C27.0638 125.589 26.0345 127.195 24.6051 128.528C25.7571 129.52 27.1651 130.368 28.8291 131.072L28.5411 131.52C26.8238 130.763 25.3891 129.877 24.2371 128.864C22.9251 129.984 21.3251 130.88 19.4371 131.552L19.1651 131.072C21.0211 130.432 22.5838 129.579 23.8531 128.512C22.3918 127.147 21.4105 125.557 20.9091 123.744H20.0451V123.2H23.7731V120.064H19.7571V119.536ZM21.4371 123.744C21.9171 125.429 22.8451 126.912 24.2211 128.192C25.5651 126.933 26.5358 125.451 27.1331 123.744H21.4371ZM30.7491 121.008H37.1811V116.976H37.7251V121.008H44.1731V121.536H38.5091C39.6291 124.491 41.6665 127.099 44.6211 129.36L44.2691 129.808C41.1971 127.355 39.1011 124.597 37.9811 121.536H37.7251V131.488H37.1811V121.536H36.9411C35.7251 124.992 33.5811 127.808 30.5091 129.984L30.2211 129.504C33.1438 127.488 35.2025 124.832 36.3971 121.536H30.7491V121.008ZM40.2691 117.024C41.2825 118.037 42.0718 118.96 42.6371 119.792L42.2051 120.096C41.6291 119.232 40.8398 118.299 39.8371 117.296L40.2691 117.024ZM57.0851 117.072C57.9491 117.723 58.6478 118.352 59.1811 118.96L58.7971 119.312C58.2851 118.725 57.5918 118.091 56.7171 117.408L57.0851 117.072ZM59.2451 122.016C58.5731 124.224 57.7038 126.069 56.6371 127.552C56.9358 128.277 57.2718 128.907 57.6451 129.44C58.2745 130.283 58.7971 130.704 59.2131 130.704C59.6398 130.672 59.9971 129.771 60.2851 128L60.7811 128.272C60.4398 130.277 59.9545 131.28 59.3251 131.28C58.6958 131.28 58.0025 130.795 57.2451 129.824C56.8611 129.291 56.5305 128.699 56.2531 128.048C55.0478 129.552 53.6291 130.667 51.9971 131.392L51.6931 130.944C53.4105 130.187 54.8558 129.04 56.0291 127.504C55.8051 126.928 55.5918 126.256 55.3891 125.488C55.0478 124.016 54.8291 122.251 54.7331 120.192H48.6211V123.36H52.5411C52.5411 125.707 52.4665 127.312 52.3171 128.176C52.1785 128.901 51.7518 129.291 51.0371 129.344C50.6211 129.344 50.1411 129.328 49.5971 129.296L49.4211 128.8C50.2318 128.821 50.7491 128.832 50.9731 128.832C51.4531 128.8 51.7411 128.48 51.8371 127.872C51.9438 127.051 51.9971 125.728 51.9971 123.904H48.6211V124.96C48.5678 127.701 47.9758 129.888 46.8451 131.52L46.4291 131.136C47.4958 129.653 48.0505 127.595 48.0931 124.96V119.664H54.7011C54.6691 118.8 54.6531 117.904 54.6531 116.976H55.1971C55.1971 118.032 55.2185 118.928 55.2611 119.664H60.4611V120.192H55.2931C55.3891 122.293 55.6025 124.032 55.9331 125.408C56.0825 125.984 56.2425 126.507 56.4131 126.976C57.3945 125.557 58.1731 123.835 58.7491 121.808L59.2451 122.016ZM64.1411 117.456C65.1011 118.469 65.8318 119.349 66.3331 120.096L65.8851 120.4C65.2771 119.515 64.5518 118.635 63.7091 117.76L64.1411 117.456ZM69.5651 124.24C70.7598 125.531 71.7091 126.693 72.4131 127.728L71.9491 128.064C71.2665 126.987 70.3225 125.803 69.1171 124.512L69.5651 124.24ZM68.3331 117.008H68.8611V118.336C68.8611 119.264 68.8185 120.197 68.7331 121.136H75.4211C75.4211 125.509 75.2238 128.32 74.8291 129.568C74.4131 130.773 73.6825 131.376 72.6371 131.376C72.0825 131.376 71.4745 131.365 70.8131 131.344L70.6691 130.8C71.3731 130.832 72.0185 130.848 72.6051 130.848C73.7678 130.773 74.4398 129.787 74.6211 127.888C74.7918 125.861 74.8771 123.792 74.8771 121.68H68.6691C68.4451 123.707 68.0131 125.413 67.3731 126.8C66.4345 128.752 64.8665 130.304 62.6691 131.456L62.3651 130.976C64.4985 129.888 66.0505 128.331 67.0211 126.304C67.5651 124.992 67.9331 123.451 68.1251 121.68H62.9251V121.136H68.1891C68.2745 120.251 68.3225 119.317 68.3331 118.336V117.008ZM79.8531 119.024H91.0531V119.552H79.8531V119.024ZM78.3971 129.088H92.4931V129.616H78.3971V129.088ZM101.341 120.176C100.829 121.616 100.136 122.821 99.2611 123.792L98.8131 123.472C100.242 121.915 101.16 119.749 101.565 116.976L102.093 117.056C101.954 117.995 101.762 118.859 101.517 119.648H107.821V120.016C107.48 121.424 107.021 122.832 106.445 124.24L105.869 124.064C106.466 122.837 106.92 121.541 107.229 120.176H101.341ZM94.9251 117.504C96.2478 119.072 97.2345 120.405 97.8851 121.504L97.4371 121.824C96.6905 120.587 95.6985 119.248 94.4611 117.808L94.9251 117.504ZM97.9491 124.336C97.1171 126.651 96.1518 128.923 95.0531 131.152L94.4931 130.912C95.6451 128.704 96.6371 126.448 97.4691 124.144L97.9491 124.336ZM103.709 121.616C103.709 122.64 103.65 123.605 103.533 124.512C104.557 127.275 106.28 129.451 108.701 131.04L108.317 131.488C106.045 129.92 104.397 127.909 103.373 125.456C103.288 125.84 103.165 126.309 103.005 126.864C102.312 128.784 100.85 130.336 98.6211 131.52L98.2691 131.072C100.306 130.005 101.672 128.635 102.365 126.96C102.888 125.509 103.154 123.728 103.165 121.616H103.709ZM116.669 122.736H112.557V130.224C112.557 130.544 112.744 130.704 113.117 130.704H116.621C117.272 130.704 117.682 130.555 117.853 130.256C118.034 129.861 118.157 129.179 118.221 128.208L118.749 128.384C118.653 129.685 118.456 130.507 118.157 130.848C117.901 131.104 117.41 131.232 116.685 131.232H113.005C112.333 131.232 111.997 130.928 111.997 130.32V122.24H117.213V126.24C117.192 127.061 116.802 127.477 116.045 127.488C115.65 127.488 115.069 127.467 114.301 127.424L114.141 126.912C114.952 126.955 115.549 126.976 115.933 126.976C116.424 126.976 116.669 126.704 116.669 126.16V122.736ZM114.989 117.248C116.408 118.784 117.757 120.368 119.037 122L118.669 122.384C117.346 120.667 116.061 119.125 114.813 117.76C113.49 119.691 112.04 121.376 110.461 122.816L110.141 122.384C111.741 120.933 113.208 119.221 114.541 117.248H114.989ZM120.317 118.416H120.861V128.528H120.317V118.416ZM120.269 131.376L120.157 130.848C121.085 130.88 121.965 130.896 122.797 130.896C123.138 130.896 123.309 130.693 123.309 130.288V117.056H123.853V130.416C123.853 131.056 123.565 131.376 122.989 131.376H120.269ZM132.925 120.016C132.2 121.552 131.314 122.944 130.269 124.192L129.885 123.76C131.474 121.883 132.685 119.616 133.517 116.96L134.045 117.088C133.81 117.845 133.517 118.645 133.165 119.488H140.605V120.016H134.813V123.248H139.805V123.792H134.813V127.072H139.997V127.6H134.813V131.52H134.269V120.016H132.925ZM128.397 121.712C127.736 122.661 127.042 123.499 126.317 124.224L126.141 123.664C127.986 121.691 129.314 119.477 130.125 117.024L130.621 117.264C130.173 118.555 129.613 119.755 128.941 120.864V131.52H128.397V121.712ZM147.661 119.968V130.544H147.117V129.488H143.565V130.992H143.021V119.968H144.429C144.781 119.04 145.037 118.053 145.197 117.008L145.741 117.088C145.56 118.155 145.298 119.115 144.957 119.968H147.661ZM143.565 128.976H147.117V124.896H143.565V128.976ZM143.565 124.384H147.117V120.512H143.565V124.384ZM150.301 123.472C151.624 124.88 152.605 126.069 153.245 127.04L152.813 127.36C152.13 126.304 151.149 125.104 149.869 123.76L150.301 123.472ZM155.965 120C155.965 124.949 155.89 128.037 155.741 129.264C155.592 130.619 154.866 131.296 153.565 131.296L152.061 131.28L151.917 130.768L153.533 130.784C154.504 130.784 155.064 130.251 155.213 129.184C155.33 128.224 155.405 125.344 155.437 120.544H150.381C149.933 121.6 149.389 122.565 148.749 123.44L148.429 123.008C149.624 121.376 150.44 119.371 150.877 116.992L151.405 117.056C151.224 118.069 150.957 119.051 150.605 120H155.965ZM158.365 119.312H160.669V116.96H161.213V119.312H163.517V119.856H161.213V122.928H163.245V123.408C162.893 125.371 162.285 127.035 161.421 128.4C161.73 128.795 162.045 129.093 162.365 129.296C163.549 130.181 165.426 130.629 167.997 130.64C169.49 130.64 171.037 130.624 172.637 130.592L172.525 131.168H168.237C165.357 131.168 163.261 130.656 161.949 129.632C161.64 129.397 161.368 129.131 161.133 128.832C160.386 129.867 159.512 130.699 158.509 131.328L158.237 130.832C159.229 130.213 160.082 129.403 160.797 128.4C159.976 127.227 159.373 125.579 158.989 123.456H158.317V122.928H160.669V119.856H158.365V119.312ZM159.501 123.456C159.885 125.365 160.418 126.859 161.101 127.936C161.858 126.677 162.397 125.184 162.717 123.456H159.501ZM164.893 128.976L164.749 128.432L166.269 128.464C166.76 128.464 167.005 128.197 167.005 127.664V123.984C166.141 124.912 165.106 125.733 163.901 126.448L163.693 125.936C164.962 125.211 166.066 124.32 167.005 123.264V118.352H164.029V117.84H167.517V127.824C167.517 128.592 167.138 128.976 166.381 128.976H164.893ZM169.405 129.008L169.261 128.464L170.797 128.496C171.266 128.496 171.501 128.219 171.501 127.664V123.504C170.701 124.475 169.73 125.36 168.589 126.16L168.381 125.664C169.576 124.853 170.616 123.888 171.501 122.768V118.368H168.509V117.856H172.013V127.824C172.013 128.613 171.645 129.008 170.909 129.008H169.405ZM168.989 119.568C169.49 120.453 169.928 121.429 170.301 122.496L169.837 122.688C169.453 121.621 169.01 120.635 168.509 119.728L168.989 119.568ZM164.637 119.776C165.117 120.683 165.544 121.648 165.917 122.672L165.469 122.88C165.074 121.76 164.637 120.773 164.157 119.92L164.637 119.776ZM175.725 122.176V125.424H178.333V122.176H175.725ZM178.333 121.68V118.304H175.725V121.68H178.333ZM175.709 125.936C175.624 128.197 175.25 130.043 174.589 131.472L174.189 131.12C174.85 129.584 175.186 127.632 175.197 125.264V117.808H178.845V130.56C178.845 131.179 178.514 131.488 177.853 131.488H176.621L176.493 130.976C177.048 130.997 177.448 131.008 177.693 131.008C178.12 131.008 178.333 130.8 178.333 130.384V125.936H175.709ZM180.141 118.56H183.917C183.714 117.984 183.506 117.477 183.293 117.04L183.853 116.944C184.098 117.499 184.301 118.037 184.461 118.56H188.237V119.072H186.509C186.392 119.851 186.189 120.624 185.901 121.392H188.477V123.728H187.933V121.904H180.413V123.696H179.869V121.392H182.509C182.285 120.539 182.034 119.765 181.757 119.072H180.141V118.56ZM185.357 121.392C185.666 120.656 185.874 119.883 185.981 119.072H182.317C182.573 119.787 182.813 120.56 183.037 121.392H185.357ZM179.789 124.592H184.125C183.933 123.952 183.709 123.349 183.453 122.784L183.981 122.688C184.216 123.221 184.44 123.856 184.653 124.592H188.557V125.12H182.973C182.941 125.835 182.872 126.48 182.765 127.056H187.421C187.41 129.296 187.165 130.613 186.685 131.008C186.44 131.189 186.109 131.312 185.693 131.376C185.266 131.419 184.957 131.44 184.765 131.44H184.141L183.997 130.944H184.845C185.528 130.944 186.013 130.832 186.301 130.608C186.632 130.341 186.824 129.323 186.877 127.552H182.653C182.205 129.269 181.304 130.603 179.949 131.552L179.661 131.104C181.442 129.856 182.365 127.861 182.429 125.12H179.789V124.592ZM192.253 128.736C192.765 128.736 193.021 129.083 193.021 129.776C193.021 130.928 192.568 131.755 191.661 132.256L191.389 131.84C192.082 131.36 192.445 130.741 192.477 129.984L192.269 130C192.077 130 191.917 129.947 191.789 129.84C191.672 129.733 191.613 129.579 191.613 129.376C191.613 129.163 191.666 129.003 191.773 128.896C191.89 128.789 192.05 128.736 192.253 128.736ZM215.261 116.976H215.837V122.48H220.237V123.024H215.837V130.416H220.829V130.96H211.565V130.416H215.261V116.976ZM207.757 117.152C208.888 118.037 209.853 118.933 210.653 119.84L210.285 120.224C209.57 119.392 208.6 118.491 207.373 117.52L207.757 117.152ZM206.269 122.096H209.341V129.76C210.056 129.227 210.802 128.587 211.581 127.84L211.725 128.432C210.861 129.275 209.864 130.069 208.733 130.816L208.509 130.336C208.712 130.155 208.813 129.995 208.813 129.856V122.64H206.269V122.096ZM226.397 120.336H229.869C230.093 119.707 230.253 119.061 230.349 118.4H224.157V124.16C224.114 127.189 223.618 129.632 222.669 131.488L222.253 131.12C223.106 129.456 223.56 127.136 223.613 124.16V117.856H236.301V118.4H230.893C230.786 119.061 230.626 119.707 230.413 120.336H235.037V126.064H231.133V130.544C231.133 131.163 230.818 131.472 230.189 131.472H228.573L228.461 130.944C229.186 130.965 229.698 130.976 229.997 130.976C230.381 130.976 230.573 130.789 230.573 130.416V126.064H226.397V120.336ZM234.493 125.552V123.44H226.941V125.552H234.493ZM226.941 122.944H234.493V120.848H226.941V122.944ZM228.237 127.44C227.469 128.805 226.584 129.968 225.581 130.928L225.133 130.608C226.125 129.659 226.994 128.523 227.741 127.2L228.237 127.44ZM233.597 127.2C234.781 128.544 235.677 129.701 236.285 130.672L235.837 131.008C235.186 129.92 234.29 128.741 233.149 127.472L233.597 127.2ZM244.669 122.736H240.557V130.224C240.557 130.544 240.744 130.704 241.117 130.704H244.621C245.272 130.704 245.682 130.555 245.853 130.256C246.034 129.861 246.157 129.179 246.221 128.208L246.749 128.384C246.653 129.685 246.456 130.507 246.157 130.848C245.901 131.104 245.41 131.232 244.685 131.232H241.005C240.333 131.232 239.997 130.928 239.997 130.32V122.24H245.213V126.24C245.192 127.061 244.802 127.477 244.045 127.488C243.65 127.488 243.069 127.467 242.301 127.424L242.141 126.912C242.952 126.955 243.549 126.976 243.933 126.976C244.424 126.976 244.669 126.704 244.669 126.16V122.736ZM242.989 117.248C244.408 118.784 245.757 120.368 247.037 122L246.669 122.384C245.346 120.667 244.061 119.125 242.813 117.76C241.49 119.691 240.04 121.376 238.461 122.816L238.141 122.384C239.741 120.933 241.208 119.221 242.541 117.248H242.989ZM248.317 118.416H248.861V128.528H248.317V118.416ZM248.269 131.376L248.157 130.848C249.085 130.88 249.965 130.896 250.797 130.896C251.138 130.896 251.309 130.693 251.309 130.288V117.056H251.853V130.416C251.853 131.056 251.565 131.376 250.989 131.376H248.269ZM260.925 120.016C260.2 121.552 259.314 122.944 258.269 124.192L257.885 123.76C259.474 121.883 260.685 119.616 261.517 116.96L262.045 117.088C261.81 117.845 261.517 118.645 261.165 119.488H268.605V120.016H262.813V123.248H267.805V123.792H262.813V127.072H267.997V127.6H262.813V131.52H262.269V120.016H260.925ZM256.397 121.712C255.736 122.661 255.042 123.499 254.317 124.224L254.141 123.664C255.986 121.691 257.314 119.477 258.125 117.024L258.621 117.264C258.173 118.555 257.613 119.755 256.941 120.864V131.52H256.397V121.712ZM273.229 117.872H281.629V122.56H273.229V117.872ZM281.069 122.016V118.416H273.789V122.016H281.069ZM276.317 124.768V131.28H275.773V130.384H271.709V131.28H271.165V124.768H276.317ZM271.709 129.856H275.773V125.296H271.709V129.856ZM283.725 124.768V131.28H283.181V130.384H278.973V131.28H278.429V124.768H283.725ZM278.973 129.856H283.181V125.296H278.973V129.856ZM286.477 118.416H290.477V116.928H291.021V118.416H295.885V116.928H296.429V118.416H300.429V118.944H296.429V120.288H295.885V118.944H291.021V120.288H290.477V118.944H286.477V118.416ZM291.773 121.136C291.112 122 290.472 122.693 289.853 123.216C290.653 124.528 291.053 126.155 291.053 128.096C291.053 129.461 290.877 130.416 290.525 130.96C290.237 131.28 289.837 131.44 289.325 131.44L287.773 131.424L287.613 130.912C288.274 130.933 288.797 130.944 289.181 130.944C289.64 130.944 289.97 130.795 290.173 130.496C290.397 130.048 290.509 129.232 290.509 128.048C290.509 127.397 290.456 126.736 290.349 126.064C289.4 127.131 288.232 128.016 286.845 128.72L286.541 128.272C288.088 127.504 289.309 126.56 290.205 125.44C290.024 124.736 289.773 124.107 289.453 123.552C288.61 124.203 287.661 124.779 286.605 125.28L286.317 124.832C287.405 124.363 288.36 123.792 289.181 123.12C288.658 122.373 287.976 121.755 287.133 121.264L287.565 120.912C288.386 121.424 289.058 122.048 289.581 122.784C290.221 122.229 290.797 121.584 291.309 120.848L291.773 121.136ZM292.205 123.824H295.709C295.752 122.16 295.773 121.205 295.773 120.96H296.317C296.317 121.76 296.301 122.688 296.269 123.744L296.285 123.824H300.189V124.368H296.381C296.957 127.259 298.349 129.472 300.557 131.008L300.189 131.424C298.077 129.899 296.722 127.84 296.125 125.248C295.666 127.712 294.376 129.792 292.253 131.488L291.901 131.104C294.173 129.248 295.437 127.045 295.693 124.496V124.368H292.205V123.824ZM297.869 120.624C298.786 121.435 299.49 122.155 299.981 122.784L299.565 123.088C299.053 122.416 298.349 121.68 297.453 120.88L297.869 120.624ZM304.589 124.224C303.917 124.928 303.176 125.568 302.365 126.144L302.205 125.616C304.061 124.261 305.378 122.752 306.157 121.088L306.637 121.296C306.221 122.128 305.72 122.901 305.133 123.616V131.504H304.589V124.224ZM306.541 117.216C305.613 118.955 304.221 120.443 302.365 121.68L302.189 121.136C304.013 119.888 305.309 118.512 306.077 117.008L306.541 117.216ZM308.061 117.664H315.261V122.416H308.061V117.664ZM314.733 121.92V120.256H308.589V121.92H314.733ZM308.589 119.792H314.733V118.144H308.589V119.792ZM307.213 123.904H316.349V124.416H314.189V126.32H316.685V126.816H314.189V130.368C314.189 131.072 313.821 131.424 313.085 131.424H311.277L311.165 130.896C311.773 130.928 312.349 130.944 312.893 130.944C313.405 130.944 313.661 130.709 313.661 130.24V126.816H306.669V126.32H313.661V124.416H307.213V123.904ZM308.541 127.664C309.522 128.56 310.274 129.36 310.797 130.064L310.365 130.352C309.768 129.584 309.021 128.784 308.125 127.952L308.541 127.664ZM318.749 117.792H332.173V118.32H325.741V120.16H330.797V126.112H325.597C325.405 127.371 325.026 128.363 324.461 129.088C326.786 130.176 329.554 130.784 332.765 130.912L332.621 131.424C329.325 131.296 326.488 130.645 324.109 129.472C323.064 130.485 321.208 131.152 318.541 131.472L318.301 130.976C320.861 130.699 322.632 130.117 323.613 129.232C322.514 128.635 321.533 127.952 320.669 127.184L321.101 126.88C321.976 127.659 322.93 128.315 323.965 128.848C324.498 128.165 324.861 127.253 325.053 126.112H320.173V120.16H325.197V118.32H318.749V117.792ZM330.269 125.616V123.36H325.741V124.224C325.73 124.597 325.704 125.061 325.661 125.616H330.269ZM325.117 125.616C325.17 125.115 325.197 124.651 325.197 124.224V123.36H320.717V125.616H325.117ZM320.717 122.864H325.197V120.672H320.717V122.864ZM325.741 120.672V122.864H330.269V120.672H325.741ZM335.277 117.296C336.589 118.192 337.64 119.051 338.429 119.872L338.029 120.272C337.25 119.44 336.205 118.571 334.893 117.664L335.277 117.296ZM334.893 121.056C336.077 121.92 337.069 122.784 337.869 123.648L337.485 124.032C336.781 123.232 335.789 122.357 334.509 121.408L334.893 121.056ZM338.205 125.648C337.362 127.653 336.424 129.552 335.389 131.344L334.861 131.136C335.992 129.205 336.941 127.312 337.709 125.456L338.205 125.648ZM339.213 125.36V124.816H343.293V122.768H343.837V124.816H348.077V125.36H344.653C345.421 127.077 346.749 128.619 348.637 129.984L348.285 130.416C346.29 128.901 344.925 127.216 344.189 125.36H343.837V131.456H343.293V125.36H342.941C342.109 127.472 340.648 129.211 338.557 130.576L338.285 130.112C340.248 128.896 341.645 127.312 342.477 125.36H339.213ZM347.853 117.792V120.496H347.325V118.32H339.805V120.512H339.261V117.792H347.853ZM342.685 119.888C341.917 121.381 340.925 122.512 339.709 123.28L339.309 122.928C340.578 122.128 341.544 121.051 342.205 119.696L342.685 119.888ZM344.685 119.648C345.89 120.864 346.818 121.947 347.469 122.896L347.037 123.216C346.344 122.171 345.421 121.067 344.269 119.904L344.685 119.648ZM355.661 119.968V130.544H355.117V129.488H351.565V130.992H351.021V119.968H352.429C352.781 119.04 353.037 118.053 353.197 117.008L353.741 117.088C353.56 118.155 353.298 119.115 352.957 119.968H355.661ZM351.565 128.976H355.117V124.896H351.565V128.976ZM351.565 124.384H355.117V120.512H351.565V124.384ZM358.301 123.472C359.624 124.88 360.605 126.069 361.245 127.04L360.813 127.36C360.13 126.304 359.149 125.104 357.869 123.76L358.301 123.472ZM363.965 120C363.965 124.949 363.89 128.037 363.741 129.264C363.592 130.619 362.866 131.296 361.565 131.296L360.061 131.28L359.917 130.768L361.533 130.784C362.504 130.784 363.064 130.251 363.213 129.184C363.33 128.224 363.405 125.344 363.437 120.544H358.381C357.933 121.6 357.389 122.565 356.749 123.44L356.429 123.008C357.624 121.376 358.44 119.371 358.877 116.992L359.405 117.056C359.224 118.069 358.957 119.051 358.605 120H363.965ZM367.245 117.6H373.805V121.68H370.557L370.845 122.96H374.701V123.44H366.253V122.96H370.301L370.029 121.68H367.245V117.6ZM373.277 121.232V119.888H367.773V121.232H373.277ZM367.773 119.44H373.277V118.048H367.773V119.44ZM367.389 124.656H373.693V127.472H370.797V130.512C370.797 131.099 370.509 131.392 369.933 131.392H368.749L368.637 130.88C369.021 130.912 369.394 130.928 369.757 130.928C370.098 130.928 370.269 130.752 370.269 130.4V127.472H367.389V124.656ZM373.165 127.024V125.12H367.917V127.024H373.165ZM368.333 128.544C367.853 129.579 367.293 130.491 366.653 131.28L366.237 130.992C366.877 130.245 367.421 129.355 367.869 128.32L368.333 128.544ZM372.621 128.336C373.282 129.264 373.778 130.043 374.109 130.672L373.693 130.976C373.341 130.261 372.85 129.467 372.221 128.592L372.621 128.336ZM379.885 117.712C378.69 118.907 377.122 119.904 375.181 120.704L374.941 120.224C376.786 119.509 378.322 118.539 379.549 117.312L379.885 117.712ZM380.269 121.92C379.053 123.36 377.48 124.549 375.549 125.488L375.293 125.008C377.16 124.144 378.701 122.981 379.917 121.52L380.269 121.92ZM380.701 125.792C379.325 128.448 377.309 130.352 374.653 131.504L374.445 131.008C377.026 129.877 378.968 128.027 380.269 125.456L380.701 125.792ZM390.253 122.08H393.709V127.968H390.253V122.08ZM393.197 127.472V122.576H390.749V127.472H393.197ZM392.045 117.056C391.906 117.909 391.72 118.645 391.485 119.264H396.077V130.128C396.077 130.992 395.688 131.424 394.909 131.424H392.893L392.733 130.88L394.733 130.896C395.277 130.896 395.549 130.603 395.549 130.016V119.808H388.477V131.488H387.933V119.264H390.925C391.192 118.507 391.378 117.744 391.485 116.976L392.045 117.056ZM386.461 118.576V129.952H385.917V128.848H383.517V130.336H382.989V118.576H386.461ZM383.517 128.336H385.917V119.12H383.517V128.336ZM404.429 117.056H405.005V118.256C405.005 118.757 404.984 119.435 404.941 120.288H411.149C411.096 123.061 410.994 125.264 410.845 126.896C410.685 128.517 410.424 129.68 410.061 130.384C409.72 131.013 409.144 131.36 408.333 131.424H406.301L406.157 130.896L408.045 130.912C409.016 130.912 409.656 130.293 409.965 129.056C410.285 127.776 410.493 125.029 410.589 120.816H404.893C404.701 123.205 404.253 125.195 403.549 126.784C402.642 128.747 401.128 130.309 399.005 131.472L398.685 130.992C400.765 129.883 402.269 128.315 403.197 126.288C403.794 124.763 404.173 122.939 404.333 120.816H399.389V120.288H404.365C404.408 119.392 404.429 118.715 404.429 118.256V117.056ZM427.725 118.288V130.912H427.181V129.504H422.621V131.04H422.077V118.288H427.725ZM422.621 128.992H427.181V118.816H422.621V128.992ZM414.669 121.6H417.677V118.688C416.717 118.859 415.778 118.981 414.861 119.056L414.669 118.544C416.952 118.384 418.946 117.963 420.653 117.28L420.925 117.76C420.05 118.08 419.149 118.352 418.221 118.576V121.6H421.165V122.128H418.221V123.152C419.17 124.037 420.141 125.072 421.133 126.256L420.813 126.704C419.789 125.403 418.925 124.395 418.221 123.68V131.488H417.677V123.232C416.952 125.099 415.896 126.757 414.509 128.208L414.285 127.648C415.906 126.027 417.026 124.187 417.645 122.128H414.669V121.6ZM430.749 117.792H444.173V118.32H437.741V120.16H442.797V126.112H437.597C437.405 127.371 437.026 128.363 436.461 129.088C438.786 130.176 441.554 130.784 444.765 130.912L444.621 131.424C441.325 131.296 438.488 130.645 436.109 129.472C435.064 130.485 433.208 131.152 430.541 131.472L430.301 130.976C432.861 130.699 434.632 130.117 435.613 129.232C434.514 128.635 433.533 127.952 432.669 127.184L433.101 126.88C433.976 127.659 434.93 128.315 435.965 128.848C436.498 128.165 436.861 127.253 437.053 126.112H432.173V120.16H437.197V118.32H430.749V117.792ZM442.269 125.616V123.36H437.741V124.224C437.73 124.597 437.704 125.061 437.661 125.616H442.269ZM437.117 125.616C437.17 125.115 437.197 124.651 437.197 124.224V123.36H432.717V125.616H437.117ZM432.717 122.864H437.197V120.672H432.717V122.864ZM437.741 120.672V122.864H442.269V120.672H437.741ZM447.277 117.488C448.354 118.235 449.272 119.013 450.029 119.824L449.645 120.192C448.941 119.456 448.029 118.672 446.909 117.84L447.277 117.488ZM456.813 131.216C456.28 131.216 455.341 131.205 453.997 131.184C452.93 131.152 452.12 131.045 451.565 130.864C450.925 130.672 450.349 130.261 449.837 129.632C449.634 129.355 449.432 129.216 449.229 129.216C448.76 129.216 448.029 129.973 447.037 131.488L446.605 131.12C447.544 129.669 448.338 128.864 448.989 128.704V123.28H446.509V122.736H449.517V128.72C449.709 128.795 449.922 128.965 450.157 129.232C450.541 129.723 451 130.085 451.533 130.32C452.056 130.512 452.786 130.624 453.725 130.656C454.728 130.677 455.73 130.688 456.733 130.688L460.573 130.64L460.445 131.216H456.813ZM452.285 117.936H459.293V118.48H452.285V117.936ZM451.245 121.648H460.157V122.176H457.293V127.872C457.293 128.224 457.49 128.4 457.885 128.4H458.845C459.112 128.4 459.309 128.352 459.437 128.256C459.682 128.075 459.826 127.365 459.869 126.128L460.397 126.304C460.333 127.531 460.178 128.293 459.933 128.592C459.741 128.805 459.421 128.912 458.973 128.912H457.741C457.432 128.912 457.192 128.827 457.021 128.656C456.85 128.485 456.765 128.261 456.765 127.984V122.176H454.509C454.477 123.584 454.322 124.757 454.045 125.696C453.629 127.061 452.701 128.176 451.261 129.04L450.925 128.592C452.184 127.867 453.042 126.896 453.501 125.68C453.789 124.72 453.949 123.552 453.981 122.176H451.245V121.648ZM467.661 119.968V130.544H467.117V129.488H463.565V130.992H463.021V119.968H464.429C464.781 119.04 465.037 118.053 465.197 117.008L465.741 117.088C465.56 118.155 465.298 119.115 464.957 119.968H467.661ZM463.565 128.976H467.117V124.896H463.565V128.976ZM463.565 124.384H467.117V120.512H463.565V124.384ZM470.301 123.472C471.624 124.88 472.605 126.069 473.245 127.04L472.813 127.36C472.13 126.304 471.149 125.104 469.869 123.76L470.301 123.472ZM475.965 120C475.965 124.949 475.89 128.037 475.741 129.264C475.592 130.619 474.866 131.296 473.565 131.296L472.061 131.28L471.917 130.768L473.533 130.784C474.504 130.784 475.064 130.251 475.213 129.184C475.33 128.224 475.405 125.344 475.437 120.544H470.381C469.933 121.6 469.389 122.565 468.749 123.44L468.429 123.008C469.624 121.376 470.44 119.371 470.877 116.992L471.405 117.056C471.224 118.069 470.957 119.051 470.605 120H475.965ZM480.429 121.76C479.821 122.699 479.122 123.595 478.333 124.448L478.157 123.872C479.992 121.813 481.298 119.525 482.077 117.008L482.573 117.232C482.146 118.544 481.613 119.755 480.973 120.864V131.568H480.429V121.76ZM483.133 119.264H486.349C486.541 118.528 486.717 117.776 486.877 117.008L487.421 117.056L486.909 119.264H492.077V119.808H486.765C486.552 120.576 486.312 121.387 486.045 122.24H492.733V122.768H485.869C485.538 123.728 485.202 124.587 484.861 125.344H491.773V125.824C491.005 127.115 489.8 128.379 488.157 129.616C489.032 130.085 489.874 130.608 490.685 131.184L490.381 131.664C488.418 130.267 486.408 129.168 484.349 128.368L484.637 127.92C485.618 128.325 486.632 128.8 487.677 129.344C489.181 128.277 490.354 127.12 491.197 125.872H484.157C484.616 124.773 485.01 123.739 485.341 122.768H482.429V122.24H485.501C485.778 121.387 486.018 120.576 486.221 119.808H483.133V119.264ZM503.453 125.568H500.477V127.616H503.453V125.568ZM503.453 128.096H500.477V130.128H503.453V128.096ZM503.949 130.128H506.941V128.096H503.949V130.128ZM506.941 130.624H500.477V131.536H499.949V125.072H507.469V131.536H506.941V130.624ZM503.949 127.616H506.941V125.568H503.949V127.616ZM503.421 118.368C502.056 118.475 500.717 118.528 499.405 118.528L499.229 118.048C502.717 118.027 505.549 117.707 507.725 117.088L507.981 117.536C506.786 117.899 505.437 118.16 503.933 118.32V121.232H505.565C506.034 120.496 506.429 119.739 506.749 118.96L507.245 119.152C506.893 119.952 506.504 120.645 506.077 121.232H508.477V121.744H504.653C505.581 122.843 506.968 123.803 508.813 124.624L508.557 125.088C506.744 124.267 505.293 123.152 504.205 121.744H503.933V124.64H503.421V121.744H503.181C502.381 123.131 501.026 124.267 499.117 125.152L498.845 124.704C500.669 123.936 501.97 122.949 502.749 121.744H499.261V121.232H501.325C501.08 120.656 500.765 120.091 500.381 119.536L500.861 119.36C501.234 119.904 501.56 120.528 501.837 121.232H503.421V118.368ZM494.589 131.376L494.477 130.848C494.925 130.88 495.346 130.896 495.741 130.896C496.221 130.896 496.461 130.624 496.461 130.08V125.392C495.682 125.723 494.984 125.984 494.365 126.176L494.221 125.648C495.053 125.413 495.8 125.152 496.461 124.864V120.8H494.397V120.272H496.461V117.056H497.005V120.272H498.573V120.8H497.005V124.624C497.357 124.453 497.874 124.176 498.557 123.792V124.336C498.152 124.571 497.634 124.837 497.005 125.136V130.224C497.005 130.992 496.648 131.376 495.933 131.376H494.589ZM513.453 127.92C513.976 127.92 514.418 128.096 514.781 128.448C515.154 128.8 515.341 129.237 515.341 129.76C515.341 130.272 515.154 130.704 514.781 131.056C514.418 131.408 513.976 131.584 513.453 131.584C512.93 131.584 512.488 131.413 512.125 131.072C511.752 130.709 511.565 130.272 511.565 129.76C511.565 129.216 511.752 128.779 512.125 128.448C512.477 128.096 512.92 127.92 513.453 127.92ZM513.453 128.416C513.058 128.416 512.733 128.544 512.477 128.8C512.21 129.056 512.077 129.376 512.077 129.76C512.077 130.123 512.21 130.432 512.477 130.688C512.733 130.944 513.058 131.072 513.453 131.072C513.816 131.072 514.141 130.944 514.429 130.688C514.696 130.421 514.829 130.112 514.829 129.76C514.829 129.397 514.696 129.083 514.429 128.816C514.152 128.549 513.826 128.416 513.453 128.416ZM3.472 162.08H7.696C7.81333 161.227 7.872 160.347 7.872 159.44H8.416C8.416 160.4 8.368 161.28 8.272 162.08H12.528V162.624H8.192C8.11733 163.072 8.02133 163.515 7.904 163.952C9.77067 165.477 11.3013 166.971 12.496 168.432L12.112 168.832C10.9813 167.403 9.53067 165.941 7.76 164.448C7.12 166.272 5.76 167.744 3.68 168.864L3.328 168.432C5.22667 167.429 6.496 166.123 7.136 164.512C7.328 163.947 7.488 163.317 7.616 162.624H3.472V162.08ZM14.192 157.936V171.488H13.648V170.608H2.352V171.488H1.808V157.936H14.192ZM2.352 170.064H13.648V158.48H2.352V170.064ZM21.392 157.456H21.92V162.368H24.688V162.896H21.92V169.184C22.8907 168.928 23.8453 168.64 24.784 168.32V168.88C22.4053 169.68 19.6907 170.32 16.64 170.8L16.56 170.256L18.224 169.984V160.144H18.768V169.888C19.7387 169.685 20.6133 169.493 21.392 169.312V157.456ZM31.056 160.64C29.7227 161.728 28.1973 162.619 26.48 163.312V169.488C26.48 170.117 26.7947 170.432 27.424 170.432H28.848C29.3813 170.432 29.7653 170.299 30 170.032C30.2987 169.637 30.496 168.549 30.592 166.768L31.104 166.944C31.008 168.811 30.7733 169.984 30.4 170.464C30.112 170.805 29.632 170.976 28.96 170.976H27.248C26.3733 170.976 25.936 170.517 25.936 169.6V157.2H26.48V162.752C28.0693 162.091 29.488 161.243 30.736 160.208L31.056 160.64ZM34.8 168.736C35.312 168.736 35.568 169.083 35.568 169.776C35.568 170.928 35.1147 171.755 34.208 172.256L33.936 171.84C34.6293 171.36 34.992 170.741 35.024 169.984L34.816 170C34.624 170 34.464 169.947 34.336 169.84C34.2187 169.733 34.16 169.579 34.16 169.376C34.16 169.163 34.2133 169.003 34.32 168.896C34.4373 168.789 34.5973 168.736 34.8 168.736ZM54.928 157.808H61.952V164.16H54.928V157.808ZM61.424 163.632V161.264H55.456V163.632H61.424ZM55.456 160.736H61.424V158.352H55.456V160.736ZM58.112 164.944H58.64V166.864H62.416V167.392H58.64V170.432H63.168V170.976H53.536V170.432H58.112V167.392H54.384V166.864H58.112V164.944ZM49.184 171.376L49.072 170.848C49.7333 170.869 50.1973 170.88 50.464 170.88C50.9227 170.88 51.152 170.683 51.152 170.288V165.456C50.2987 165.787 49.536 166.048 48.864 166.24L48.72 165.712C49.5413 165.499 50.352 165.232 51.152 164.912V160.816H48.96V160.288H51.152V157.056H51.696V160.288H53.504V160.816H51.696V164.688C52.4213 164.357 53.0347 164.059 53.536 163.792V164.352C52.96 164.651 52.3467 164.944 51.696 165.232V170.432C51.696 171.061 51.3493 171.376 50.656 171.376H49.184ZM64.304 158.576H73.664V159.152H69.312V170H68.688V159.152H64.304V158.576ZM78.4008 161.504C79.5314 161.504 80.3741 161.824 80.9288 162.464C81.3981 162.997 81.6328 163.728 81.6328 164.656V170H81.0408V168.224C80.6994 168.715 80.2354 169.157 79.6488 169.552C78.9448 170 78.1821 170.224 77.3608 170.224C76.5714 170.224 75.9261 170.021 75.4248 169.616C74.9234 169.189 74.6728 168.624 74.6728 167.92C74.6728 166.864 75.1154 166.101 76.0008 165.632C76.6834 165.259 77.6168 165.072 78.8008 165.072L81.0248 165.056V164.72C81.0248 162.949 80.1448 162.064 78.3848 162.064C77.5954 162.064 76.9608 162.24 76.4808 162.592C75.9474 162.965 75.6328 163.499 75.5368 164.192H74.9288C75.0568 163.296 75.4354 162.619 76.0648 162.16C76.6408 161.723 77.4194 161.504 78.4008 161.504ZM81.0248 165.6L78.8168 165.616C76.4701 165.627 75.2968 166.4 75.2968 167.936C75.2968 168.459 75.4941 168.88 75.8888 169.2C76.2834 169.509 76.8114 169.664 77.4728 169.664C78.3688 169.664 79.1954 169.349 79.9528 168.72C80.6674 168.091 81.0248 167.451 81.0248 166.8V165.6ZM83.7122 158.64C85.6323 158.395 87.3123 157.963 88.7523 157.344L88.9443 157.872C88.2296 158.16 87.5416 158.389 86.8802 158.56V161.6H89.1043V162.128H86.8802V163.136C87.7229 164.075 88.5603 165.125 89.3923 166.288L89.0723 166.72C88.1869 165.387 87.4563 164.373 86.8802 163.68V171.472H86.3363V163.392C85.6856 165.312 84.7629 167.003 83.5683 168.464L83.3443 167.904C84.7736 166.219 85.7709 164.293 86.3363 162.128H83.7923V161.6H86.3363V158.704C85.5256 158.896 84.6883 159.056 83.8243 159.184L83.7122 158.64ZM90.3843 158.176H96.6723V165.072H90.3843V158.176ZM96.1443 164.528V158.704H90.9283V164.528H96.1443ZM92.2563 166.704C91.4776 168.507 90.5283 170.101 89.4083 171.488L88.9603 171.168C90.0589 169.845 90.9976 168.277 91.7763 166.464L92.2563 166.704ZM95.0723 166.4C96.3203 168.171 97.2909 169.771 97.9843 171.2L97.5203 171.52C96.8056 170.027 95.8403 168.411 94.6243 166.672L95.0723 166.4ZM102.736 171.456H102.208V162.032C101.632 164.059 100.784 165.861 99.6643 167.44L99.4243 166.864C100.715 165.115 101.616 163.12 102.128 160.88H99.6323V160.352H102.208V157.024H102.736V160.352H104.896V160.88H102.736V162.288C103.451 163.173 104.203 164.208 104.992 165.392L104.672 165.856C103.915 164.597 103.27 163.616 102.736 162.912V171.456ZM106.704 158.384H104.624V157.84H111.792V158.208C111.387 159.883 111.008 161.232 110.656 162.256H112.992V162.592C112.672 164.843 111.872 166.747 110.592 168.304C111.467 169.296 112.528 170.197 113.776 171.008L113.44 171.456C112.182 170.645 111.115 169.733 110.24 168.72C109.216 169.819 107.974 170.736 106.512 171.472L106.208 170.96C107.691 170.245 108.912 169.349 109.872 168.272C108.56 166.64 107.648 164.725 107.136 162.528C106.848 166.475 105.872 169.429 104.208 171.392L103.792 171.04C105.702 168.789 106.672 165.189 106.704 160.24V158.384ZM110.208 167.856C111.35 166.427 112.091 164.725 112.432 162.752H109.984C110.336 161.813 110.742 160.357 111.2 158.384H107.232V160.56C107.584 163.408 108.576 165.84 110.208 167.856ZM115.744 162H121.184C121.579 161.445 121.878 160.875 122.08 160.288L117.456 160.48L117.36 159.968C118.587 159.52 119.92 158.544 121.36 157.04L121.888 157.216C120.758 158.421 119.632 159.339 118.512 159.968C121.435 159.872 123.979 159.739 126.144 159.568C125.568 159.024 124.928 158.464 124.224 157.888L124.64 157.6C126.272 158.944 127.499 160.085 128.32 161.024L127.872 161.328C127.456 160.848 127.035 160.405 126.608 160C125.648 160.075 124.326 160.16 122.64 160.256C122.427 160.864 122.144 161.445 121.792 162H129.392V162.512H124.96C125.963 163.771 127.622 164.752 129.936 165.456L129.68 165.968C127.174 165.104 125.414 163.952 124.4 162.512H121.408C120.203 164.005 118.299 165.2 115.696 166.096L115.44 165.6C117.83 164.843 119.606 163.813 120.768 162.512H115.744V162ZM123.376 163.76C122.299 165.093 120.646 166.144 118.416 166.912L118.16 166.464C120.326 165.728 121.915 164.736 122.928 163.488L123.376 163.76ZM127.536 166.144C126.075 168.768 122.912 170.603 118.048 171.648L117.712 171.216C122.598 170.149 125.712 168.384 127.056 165.92L127.536 166.144ZM125.408 165.088C123.638 167.189 121.286 168.507 118.352 169.04L118.032 168.592C120.987 168.101 123.296 166.832 124.96 164.784L125.408 165.088ZM135.408 159.824L135.088 162.96H144.048C144.048 167.227 143.83 169.701 143.392 170.384C142.944 171.024 142 171.344 140.56 171.344L138.32 171.328L138.16 170.816L140.432 170.88C141.894 170.88 142.768 170.523 143.056 169.808C143.366 169.061 143.52 166.949 143.52 163.472H134.448L135.152 156.928L135.712 156.976L135.472 159.28H144.72V159.824H135.408ZM131.664 166.672H141.472V167.216H131.664V166.672ZM147.824 171.344L147.712 170.816C148.15 170.848 148.56 170.864 148.944 170.864C149.478 170.864 149.744 170.587 149.744 170.032V165.504C148.998 165.824 148.23 166.112 147.44 166.368L147.312 165.824C148.123 165.589 148.934 165.307 149.744 164.976V160.688H147.6V160.16H149.744V157.024H150.288V160.16H152.192V160.688H150.288V164.736C151.014 164.395 151.67 164.053 152.256 163.712V164.24C151.67 164.581 151.014 164.923 150.288 165.264V170.16C150.288 170.949 149.904 171.344 149.136 171.344H147.824ZM152.96 159.536H156.976V157.04H157.52V159.536H161.552V160.064H157.52V163.2H160.896V163.712C160.267 165.589 159.238 167.195 157.808 168.528C158.96 169.52 160.368 170.368 162.032 171.072L161.744 171.52C160.027 170.763 158.592 169.877 157.44 168.864C156.128 169.984 154.528 170.88 152.64 171.552L152.368 171.072C154.224 170.432 155.787 169.579 157.056 168.512C155.595 167.147 154.614 165.557 154.112 163.744H153.248V163.2H156.976V160.064H152.96V159.536ZM154.64 163.744C155.12 165.429 156.048 166.912 157.424 168.192C158.768 166.933 159.739 165.451 160.336 163.744H154.64ZM163.952 161.008H170.384V156.976H170.928V161.008H177.376V161.536H171.712C172.832 164.491 174.87 167.099 177.824 169.36L177.472 169.808C174.4 167.355 172.304 164.597 171.184 161.536H170.928V171.488H170.384V161.536H170.144C168.928 164.992 166.784 167.808 163.712 169.984L163.424 169.504C166.347 167.488 168.406 164.832 169.6 161.536H163.952V161.008ZM173.472 157.024C174.486 158.037 175.275 158.96 175.84 159.792L175.408 160.096C174.832 159.232 174.043 158.299 173.04 157.296L173.472 157.024ZM189.04 157.04H189.584V162.128H193.456V162.672H189.584V170.416H193.856V170.96H184.672V170.416H189.04V162.672H185.2V162.128H189.04V157.04ZM182.112 164.144C181.376 164.944 180.528 165.744 179.568 166.544L179.392 166C181.856 163.941 183.435 161.963 184.128 160.064H179.792V159.536H184.672V160.016C184.267 161.179 183.59 162.347 182.64 163.52V163.648C183.59 164.213 184.459 164.885 185.248 165.664L184.944 166.128C184.198 165.349 183.43 164.715 182.64 164.224V171.488H182.112V164.144ZM182.08 156.944C182.432 157.637 182.726 158.309 182.96 158.96L182.464 159.136C182.219 158.453 181.915 157.776 181.552 157.104L182.08 156.944ZM199.584 160.368C201.131 161.541 202.592 162.741 203.968 163.968C205.024 162.699 205.92 161.205 206.656 159.488L207.136 159.76C206.368 161.531 205.446 163.056 204.368 164.336C205.723 165.552 206.982 166.816 208.144 168.128L207.744 168.528C206.731 167.355 205.488 166.096 204.016 164.752C202.534 166.395 200.816 167.637 198.864 168.48L198.56 167.984C200.502 167.184 202.187 165.984 203.616 164.384C202.24 163.157 200.763 161.941 199.184 160.736L199.584 160.368ZM196.832 157.728H209.296V158.256H197.36V170.288H209.728V170.816H196.832V157.728ZM212.4 160.464H215.536V156.88H216.08V160.464H221.232V156.944H221.776V160.464H224.928V161.008H221.776V165.472H225.712V166H211.6V165.472H215.536V161.008H212.4V160.464ZM216.08 165.472H221.232V161.008H216.08V165.472ZM217.072 167.392C215.707 168.939 214.022 170.283 212.016 171.424L211.664 170.96C213.638 169.829 215.307 168.517 216.672 167.024L217.072 167.392ZM220.752 167.056C222.694 168.357 224.315 169.669 225.616 170.992L225.2 171.392C223.984 170.144 222.368 168.816 220.352 167.408L220.752 167.056ZM240.384 163.296H236.928V165.024H240.912V165.52H236.928V167.392H241.36V167.888H236.928V169.936H236.384V167.888H232.528V167.392H236.384V165.52H233.008V165.024H236.384V163.296H233.344V162.784H236.384V161.056H232.56V160.56H236.384V158.784H233.344V158.288H236.384V156.976H236.928V158.288H240.384V160.56H241.648V161.056H240.384V163.296ZM236.928 158.784V160.56H239.84V158.784H236.928ZM236.928 161.056V162.784H239.84V161.056H236.928ZM236.688 170.592C238.363 170.592 240.08 170.576 241.84 170.544L241.744 171.088H236.928C234.134 171.088 232.134 170.672 230.928 169.84C230.619 169.605 230.358 169.355 230.144 169.088C229.568 169.952 228.87 170.693 228.048 171.312L227.696 170.864C228.539 170.267 229.238 169.531 229.792 168.656C229.142 167.728 228.614 166.528 228.208 165.056L228.656 164.896C229.083 166.293 229.552 167.392 230.064 168.192C230.768 166.837 231.163 165.216 231.248 163.328H228.208V162.88C229.254 161.504 230.198 160.069 231.04 158.576H228.048V158.032H231.696V158.496C230.758 160.171 229.835 161.605 228.928 162.8H231.776V163.168C231.712 165.312 231.254 167.141 230.4 168.656C230.71 169.061 231.062 169.371 231.456 169.584C232.63 170.224 234.374 170.56 236.688 170.592ZM245.456 168.736C245.968 168.736 246.224 169.083 246.224 169.776C246.224 170.928 245.771 171.755 244.864 172.256L244.592 171.84C245.286 171.36 245.648 170.741 245.68 169.984L245.472 170C245.28 170 245.12 169.947 244.992 169.84C244.875 169.733 244.816 169.579 244.816 169.376C244.816 169.163 244.87 169.003 244.976 168.896C245.094 168.789 245.254 168.736 245.456 168.736ZM268.464 156.976H269.04V162.48H273.44V163.024H269.04V170.416H274.032V170.96H264.768V170.416H268.464V156.976ZM260.96 157.152C262.091 158.037 263.056 158.933 263.856 159.84L263.488 160.224C262.774 159.392 261.803 158.491 260.576 157.52L260.96 157.152ZM259.472 162.096H262.544V169.76C263.259 169.227 264.006 168.587 264.784 167.84L264.928 168.432C264.064 169.275 263.067 170.069 261.936 170.816L261.712 170.336C261.915 170.155 262.016 169.995 262.016 169.856V162.64H259.472V162.096ZM275.952 157.792H289.376V158.32H282.944V160.16H288V166.112H282.8C282.608 167.371 282.23 168.363 281.664 169.088C283.99 170.176 286.758 170.784 289.968 170.912L289.824 171.424C286.528 171.296 283.691 170.645 281.312 169.472C280.267 170.485 278.411 171.152 275.744 171.472L275.504 170.976C278.064 170.699 279.835 170.117 280.816 169.232C279.718 168.635 278.736 167.952 277.872 167.184L278.304 166.88C279.179 167.659 280.134 168.315 281.168 168.848C281.702 168.165 282.064 167.253 282.256 166.112H277.376V160.16H282.4V158.32H275.952V157.792ZM287.472 165.616V163.36H282.944V164.224C282.934 164.597 282.907 165.061 282.864 165.616H287.472ZM282.32 165.616C282.374 165.115 282.4 164.651 282.4 164.224V163.36H277.92V165.616H282.32ZM277.92 162.864H282.4V160.672H277.92V162.864ZM282.944 160.672V162.864H287.472V160.672H282.944ZM299.344 157.28C298.896 157.781 298.422 158.219 297.92 158.592H303.072V159.056C301.344 162.128 298.139 163.84 293.456 164.192L293.2 163.68C294.8 163.573 296.246 163.307 297.536 162.88C296.971 162.165 296.363 161.52 295.712 160.944L296.192 160.704C296.854 161.301 297.472 161.963 298.048 162.688C299.979 161.899 301.44 160.704 302.432 159.104H297.184C295.958 159.861 294.464 160.432 292.704 160.816L292.384 160.336C295.264 159.76 297.424 158.656 298.864 157.024L299.344 157.28ZM297.68 166.992C298.32 167.643 298.966 168.416 299.616 169.312C301.696 168.437 303.296 167.115 304.416 165.344H299.184C297.755 166.059 296.027 166.56 294 166.848L293.68 166.368C297.168 165.984 299.766 164.875 301.472 163.04L301.936 163.312C301.435 163.845 300.832 164.347 300.128 164.816H305.104V165.264C302.864 169.104 298.667 171.077 292.512 171.184L292.288 170.64C294.912 170.608 297.19 170.235 299.12 169.52C298.512 168.677 297.867 167.915 297.184 167.232L297.68 166.992ZM314.976 157.04C314.976 158.245 314.939 159.419 314.864 160.56C315.76 165.083 318.123 168.523 321.952 170.88L321.6 171.344C317.952 168.987 315.648 165.819 314.688 161.84C313.888 165.701 311.547 168.869 307.664 171.344L307.328 170.864C311.872 168.016 314.224 164.277 314.384 159.648L314.416 157.04H314.976ZM328.864 159.968V170.544H328.32V169.488H324.768V170.992H324.224V159.968H325.632C325.984 159.04 326.24 158.053 326.4 157.008L326.944 157.088C326.763 158.155 326.502 159.115 326.16 159.968H328.864ZM324.768 168.976H328.32V164.896H324.768V168.976ZM324.768 164.384H328.32V160.512H324.768V164.384ZM331.504 163.472C332.827 164.88 333.808 166.069 334.448 167.04L334.016 167.36C333.334 166.304 332.352 165.104 331.072 163.76L331.504 163.472ZM337.168 160C337.168 164.949 337.094 168.037 336.944 169.264C336.795 170.619 336.07 171.296 334.768 171.296L333.264 171.28L333.12 170.768L334.736 170.784C335.707 170.784 336.267 170.251 336.416 169.184C336.534 168.224 336.608 165.344 336.64 160.544H331.584C331.136 161.6 330.592 162.565 329.952 163.44L329.632 163.008C330.827 161.376 331.643 159.371 332.08 156.992L332.608 157.056C332.427 158.069 332.16 159.051 331.808 160H337.168ZM341.632 160.352H351.072V158.272H341.216V157.76H351.616V163.408H340.8V162.896H351.072V160.848H341.632V160.352ZM343.568 165.264C343.014 166.459 342.358 167.499 341.6 168.384L341.168 168.064C341.915 167.2 342.55 166.187 343.072 165.024L343.568 165.264ZM352.032 165.072C351.499 166.149 350.854 167.109 350.096 167.952L349.648 167.632C350.363 166.885 350.992 165.952 351.536 164.832L352.032 165.072ZM347.056 164.256C347.056 164.907 347.003 165.552 346.896 166.192C347.728 168.517 350.048 170.08 353.856 170.88L353.632 171.392C349.899 170.56 347.584 169.072 346.688 166.928C345.91 169.061 343.76 170.576 340.24 171.472L340 170.96C343.478 170.128 345.552 168.683 346.224 166.624C346.406 166.048 346.502 165.259 346.512 164.256H347.056ZM358.528 160.928H363.744V161.424H358.528V160.928ZM359.136 162.768H363.264V165.76H359.136V162.768ZM362.736 165.28V163.264H359.68V165.28H362.736ZM369.168 158.672V159.2H365.008C365.094 160.608 365.259 161.723 365.504 162.544C365.654 163.141 365.856 163.701 366.112 164.224C366.87 163.168 367.483 161.899 367.952 160.416L368.416 160.656C367.883 162.299 367.206 163.659 366.384 164.736C366.534 164.96 366.678 165.168 366.816 165.36C367.339 165.915 367.814 166.192 368.24 166.192C368.582 166.192 368.928 165.451 369.28 163.968L369.744 164.224C369.307 165.877 368.822 166.704 368.288 166.704C367.659 166.704 367.04 166.384 366.432 165.744C366.294 165.573 366.16 165.381 366.032 165.168C365.424 165.84 364.795 166.363 364.144 166.736L363.84 166.288C364.566 165.883 365.2 165.349 365.744 164.688C365.446 164.112 365.19 163.472 364.976 162.768C364.71 161.797 364.539 160.608 364.464 159.2H357.52V161.392C357.478 163.536 356.971 165.269 356 166.592L355.584 166.208C356.459 165.056 356.923 163.451 356.976 161.392V158.672H364.432C364.411 158.309 364.4 157.733 364.4 156.944H364.944C364.944 157.733 364.955 158.309 364.976 158.672H367.472C367.227 158.107 366.928 157.611 366.576 157.184L367.104 157.088C367.392 157.525 367.686 158.053 367.984 158.672H369.168ZM358 167.008C357.552 168.523 356.918 169.845 356.096 170.976L355.616 170.672C356.448 169.573 357.072 168.315 357.488 166.896L358 167.008ZM361.296 171.28C360.304 171.28 359.808 170.784 359.808 169.792V166.848H360.368V169.68C360.368 170.384 360.731 170.736 361.456 170.736H364.256C364.822 170.736 365.216 170.656 365.44 170.496C365.739 170.272 365.942 169.643 366.048 168.608L366.56 168.768C366.464 169.931 366.224 170.656 365.84 170.944C365.552 171.168 365.056 171.28 364.352 171.28H361.296ZM367.36 167.344C368.448 168.475 369.264 169.456 369.808 170.288L369.376 170.608C368.758 169.691 367.936 168.699 366.912 167.632L367.36 167.344ZM362.416 166.816C363.238 167.669 363.856 168.405 364.272 169.024L363.856 169.312C363.398 168.619 362.774 167.872 361.984 167.072L362.416 166.816ZM373.552 164.512C372.998 165.259 372.342 166.016 371.584 166.784L371.424 166.256C373.387 164.197 374.656 162.192 375.232 160.24H371.696V159.728H375.76V160.192C375.398 161.419 374.843 162.597 374.096 163.728V163.856C374.331 164.059 374.608 164.325 374.928 164.656C375.355 164.368 375.771 163.893 376.176 163.232L376.512 163.568C376.128 164.219 375.707 164.699 375.248 165.008C375.611 165.392 376 165.877 376.416 166.464L376.128 166.912C375.488 165.941 374.811 165.12 374.096 164.448V171.552H373.552V164.512ZM381.104 156.992H381.648V159.152H385.296V159.44C385.126 160.357 384.87 161.243 384.528 162.096L384.032 161.968C384.31 161.253 384.544 160.491 384.736 159.68H381.648V163.472H384.464V163.968C383.974 165.728 383.163 167.237 382.032 168.496C383.078 169.467 384.368 170.293 385.904 170.976L385.6 171.44C384.022 170.704 382.72 169.845 381.696 168.864C380.598 169.952 379.243 170.832 377.632 171.504L377.328 171.024C378.95 170.373 380.278 169.531 381.312 168.496C380.043 167.195 379.19 165.701 378.752 164.016H377.968V164.544C377.958 167.232 377.334 169.536 376.096 171.456L375.648 171.072C376.79 169.397 377.387 167.243 377.44 164.608V159.152H381.104V156.992ZM381.104 159.68H377.968V163.472H381.104V159.68ZM381.648 168.128C382.694 166.987 383.451 165.616 383.92 164.016H379.264C379.68 165.563 380.475 166.933 381.648 168.128ZM373.456 157.024C373.83 157.76 374.123 158.453 374.336 159.104L373.84 159.296C373.574 158.528 373.264 157.824 372.912 157.184L373.456 157.024ZM397.28 156.768H402.176V157.328H397.872V166.576H397.28V156.768ZM409.872 162.736H405.76V170.224C405.76 170.544 405.947 170.704 406.32 170.704H409.824C410.475 170.704 410.886 170.555 411.056 170.256C411.238 169.861 411.36 169.179 411.424 168.208L411.952 168.384C411.856 169.685 411.659 170.507 411.36 170.848C411.104 171.104 410.614 171.232 409.888 171.232H406.208C405.536 171.232 405.2 170.928 405.2 170.32V162.24H410.416V166.24C410.395 167.061 410.006 167.477 409.248 167.488C408.854 167.488 408.272 167.467 407.504 167.424L407.344 166.912C408.155 166.955 408.752 166.976 409.136 166.976C409.627 166.976 409.872 166.704 409.872 166.16V162.736ZM408.192 157.248C409.611 158.784 410.96 160.368 412.24 162L411.872 162.384C410.55 160.667 409.264 159.125 408.016 157.76C406.694 159.691 405.243 161.376 403.664 162.816L403.344 162.384C404.944 160.933 406.411 159.221 407.744 157.248H408.192ZM413.52 158.416H414.064V168.528H413.52V158.416ZM413.472 171.376L413.36 170.848C414.288 170.88 415.168 170.896 416 170.896C416.342 170.896 416.512 170.693 416.512 170.288V157.056H417.056V170.416C417.056 171.056 416.768 171.376 416.192 171.376H413.472ZM426.128 160.016C425.403 161.552 424.518 162.944 423.472 164.192L423.088 163.76C424.678 161.883 425.888 159.616 426.72 156.96L427.248 157.088C427.014 157.845 426.72 158.645 426.368 159.488H433.808V160.016H428.016V163.248H433.008V163.792H428.016V167.072H433.2V167.6H428.016V171.52H427.472V160.016H426.128ZM421.6 161.712C420.939 162.661 420.246 163.499 419.52 164.224L419.344 163.664C421.19 161.691 422.518 159.477 423.328 157.024L423.824 157.264C423.376 158.555 422.816 159.755 422.144 160.864V171.52H421.6V161.712ZM439.44 161.904H440.032V171.712H435.136V171.152H439.44V161.904ZM453.456 168.736C453.968 168.736 454.224 169.083 454.224 169.776C454.224 170.928 453.771 171.755 452.864 172.256L452.592 171.84C453.286 171.36 453.648 170.741 453.68 169.984L453.472 170C453.28 170 453.12 169.947 452.992 169.84C452.875 169.733 452.816 169.579 452.816 169.376C452.816 169.163 452.87 169.003 452.976 168.896C453.094 168.789 453.254 168.736 453.456 168.736ZM467.536 163.856H481.76V164.4H467.536V163.856ZM497.6 165.632C497.515 166.88 497.344 167.685 497.088 168.048C496.832 168.421 496.363 168.608 495.68 168.608H492.896C492.064 168.608 491.648 168.219 491.648 167.44V162.416H496.224V158.688H491.296V158.16H496.768V162.944H492.208V167.328C492.208 167.819 492.48 168.064 493.024 168.064H495.584C496.16 168.064 496.544 167.888 496.736 167.536C496.907 167.195 497.024 166.501 497.088 165.456L497.6 165.632ZM484.128 159.344H487.008V156.96H487.552V159.344H490.416V159.856H487.552V162.736H490.672V163.248H487.84V166.048H490.336V166.56H487.84V169.952L488.24 170.128C489.328 170.491 491.68 170.672 495.296 170.672C496.278 170.672 497.152 170.661 497.92 170.64L497.824 171.2H495.408C491.366 171.2 488.832 170.976 487.808 170.528C486.752 170.048 485.83 169.131 485.04 167.776C484.763 169.184 484.358 170.448 483.824 171.568L483.408 171.184C484.326 169.221 484.816 167.008 484.88 164.544L485.392 164.608C485.36 165.419 485.286 166.229 485.168 167.04C485.798 168.235 486.512 169.104 487.312 169.648V163.248H483.792V162.736H487.008V159.856H484.128V159.344ZM505.584 157.808H512.608V164.16H505.584V157.808ZM512.08 163.632V161.264H506.112V163.632H512.08ZM506.112 160.736H512.08V158.352H506.112V160.736ZM508.768 164.944H509.296V166.864H513.072V167.392H509.296V170.432H513.824V170.976H504.192V170.432H508.768V167.392H505.04V166.864H508.768V164.944ZM499.84 171.376L499.728 170.848C500.39 170.869 500.854 170.88 501.12 170.88C501.579 170.88 501.808 170.683 501.808 170.288V165.456C500.955 165.787 500.192 166.048 499.52 166.24L499.376 165.712C500.198 165.499 501.008 165.232 501.808 164.912V160.816H499.616V160.288H501.808V157.056H502.352V160.288H504.16V160.816H502.352V164.688C503.078 164.357 503.691 164.059 504.192 163.792V164.352C503.616 164.651 503.003 164.944 502.352 165.232V170.432C502.352 171.061 502.006 171.376 501.312 171.376H499.84ZM516.464 157.216C517.563 158.112 518.48 159.013 519.216 159.92L518.832 160.304C518.15 159.44 517.238 158.528 516.096 157.568L516.464 157.216ZM525.952 171.216C525.419 171.216 524.47 171.205 523.104 171.184C522.027 171.152 521.206 171.045 520.64 170.864C520.011 170.661 519.446 170.251 518.944 169.632C518.731 169.355 518.523 169.216 518.32 169.216C517.819 169.216 517.056 170 516.032 171.568L515.6 171.2C516.592 169.696 517.414 168.864 518.064 168.704V163.28H515.6V162.736H518.592V168.72C518.784 168.795 518.998 168.965 519.232 169.232C519.638 169.733 520.096 170.096 520.608 170.32C521.152 170.512 521.899 170.624 522.848 170.656C523.851 170.677 524.859 170.688 525.872 170.688L529.968 170.64L529.84 171.216H525.952ZM521.856 159.664C521.547 160.272 521.195 160.853 520.8 161.408L520.336 161.12C521.158 160.043 521.771 158.795 522.176 157.376L522.704 157.488C522.534 158.064 522.331 158.613 522.096 159.136H524.848V157.008H525.376V159.136H528.896V159.664H525.376V162.224H529.696V162.752H520.064V162.224H524.848V159.664H521.856ZM521.456 164.512H528.432V168.704H521.456V164.512ZM527.904 168.192V165.04H521.984V168.192H527.904ZM537.04 159.648H540.224V157.04H540.768V159.648H544.176V164.464H545.712V165.008H540.816C541.872 167.525 543.595 169.52 545.984 170.992L545.616 171.408C543.174 169.808 541.43 167.744 540.384 165.216C539.744 168.043 538.272 170.096 535.968 171.376L535.632 170.944C537.904 169.749 539.328 167.771 539.904 165.008H536.16V164.464H540C540.15 163.6 540.224 162.709 540.224 161.792V160.176H537.04V159.648ZM540.768 160.176V161.664C540.768 162.635 540.694 163.568 540.544 164.464H543.632V160.176H540.768ZM532.592 160.064C532.55 161.653 532.331 163.179 531.936 164.64L531.456 164.496C531.83 163.131 532.048 161.637 532.112 160.016L532.592 160.064ZM535.616 159.68C536.086 160.779 536.491 161.973 536.832 163.264L536.352 163.392C536.032 162.176 535.632 160.987 535.152 159.824L535.616 159.68ZM533.888 157.056H534.432V171.456H533.888V157.056ZM548.624 164.048C549.126 161.904 549.478 160.016 549.68 158.384C549.872 158.405 550.022 158.416 550.128 158.416C554.043 158.405 557.227 158.011 559.68 157.232L559.952 157.712C557.435 158.459 554.16 158.848 550.128 158.88C549.851 160.683 549.558 162.224 549.248 163.504H554.512V160.192H555.056V163.504H561.136V164.048H555.056V170.112C555.056 171.008 554.646 171.456 553.824 171.456H551.712L551.6 170.928C552.539 170.949 553.216 170.96 553.632 170.96C554.219 170.96 554.512 170.629 554.512 169.968V164.048H548.624ZM551.248 165.84C550.363 167.76 549.334 169.408 548.16 170.784L547.696 170.464C548.87 169.131 549.894 167.509 550.768 165.6L551.248 165.84ZM558.144 165.504C559.232 167.115 560.219 168.843 561.104 170.688L560.624 170.944C559.707 169.013 558.715 167.28 557.648 165.744L558.144 165.504ZM566.656 167.92C567.179 167.92 567.622 168.096 567.984 168.448C568.358 168.8 568.544 169.237 568.544 169.76C568.544 170.272 568.358 170.704 567.984 171.056C567.622 171.408 567.179 171.584 566.656 171.584C566.134 171.584 565.691 171.413 565.328 171.072C564.955 170.709 564.768 170.272 564.768 169.76C564.768 169.216 564.955 168.779 565.328 168.448C565.68 168.096 566.123 167.92 566.656 167.92ZM566.656 168.416C566.262 168.416 565.936 168.544 565.68 168.8C565.414 169.056 565.28 169.376 565.28 169.76C565.28 170.123 565.414 170.432 565.68 170.688C565.936 170.944 566.262 171.072 566.656 171.072C567.019 171.072 567.344 170.944 567.632 170.688C567.899 170.421 568.032 170.112 568.032 169.76C568.032 169.397 567.899 169.083 567.632 168.816C567.355 168.549 567.03 168.416 566.656 168.416Z"
    fill="white" />
</svg>