<svg width="580" height="184" viewBox="0 0 580 184" fill="none" xmlns="http://www.w3.org/2000/svg">
  <path
    d="M196.796 10.512L210.284 9.312V6.192L196.796 7.392V10.512ZM196.796 17.952L210.284 16.752V13.632L196.796 14.832V17.952ZM191.612 22.8V3.408L215.66 1.296V20.688L191.612 22.8ZM175.34 47.856C175.148 46.32 174.62 44.624 173.756 42.768C174.716 42.704 175.596 42.64 176.396 42.576C177.228 42.544 177.804 42.496 178.124 42.432C178.476 42.4 178.716 42.304 178.844 42.144C179.004 42.016 179.084 41.792 179.084 41.472V31.296L173.948 33.024L172.556 27.696C174.476 27.152 176.652 26.48 179.084 25.68V17.088L173.372 17.568V12.288L179.084 11.808V2.784L184.7 2.304V11.328L189.404 10.896V16.176L184.7 16.608V23.76L189.212 22.176L189.932 27.36L184.7 29.328V40.944C184.7 42.352 184.54 43.456 184.22 44.256C183.932 45.056 183.388 45.712 182.588 46.224C181.052 47.12 178.636 47.664 175.34 47.856ZM187.628 45.072V39.984L200.444 38.88V32.688L190.844 33.504V28.464L200.444 27.648V23.184L206.252 22.656V27.12L215.948 26.304V31.344L206.252 32.16V38.352L217.868 37.344V42.432L187.628 45.072ZM230.924 42.336V12.72L220.94 13.584V7.632L248.108 5.232V11.184L238.028 12.096V41.712L230.924 42.336ZM246.352 43.056C244.24 43.056 242.496 42.416 241.12 41.136C239.776 39.824 239.104 38.016 239.104 35.712C239.104 32.832 240.336 30.496 242.8 28.704C245.296 26.88 249.232 25.456 254.608 24.432C254.576 23.088 254.208 22.016 253.504 21.216C252.896 20.512 251.952 20.16 250.672 20.16L250 20.208C247.536 20.528 245.072 21.584 242.608 23.376L240.064 18.96C241.664 17.808 243.408 16.816 245.296 15.984C247.76 14.896 250.144 14.352 252.448 14.352C258.56 14.352 261.616 18.016 261.616 25.344V41.04L255.856 41.568L255.376 38.736H255.184C252.144 41.616 249.2 43.056 246.352 43.056ZM248.848 37.344C250.896 37.344 252.816 36.288 254.608 34.176V28.752C248.752 30.032 245.824 31.968 245.824 34.56C245.824 35.616 246.16 36.352 246.832 36.768C247.344 37.152 248.016 37.344 248.848 37.344ZM281.48 45.648V40.368L293.096 39.36V28.416L283.352 29.232V23.952L293.096 23.136V15.168L298.856 14.64V22.608L308.36 21.792V27.072L298.856 27.888V38.832L310.232 37.824V43.104L281.48 45.648ZM273.272 47.52V30.816C271.96 32.128 270.552 33.36 269.048 34.512C268.216 32.56 267.272 30.816 266.216 29.28C271.272 25.344 275.256 20.384 278.168 14.4L267.752 15.312V9.84L280.712 8.688C281.544 6.384 282.248 4.096 282.824 1.824L288.824 2.736C288.28 4.56 287.672 6.368 287 8.16L310.376 6.096V11.568L284.696 13.824C283.128 17.312 281.256 20.624 279.08 23.76V46.992L273.272 47.52ZM321.512 47.52V29.856C319.72 31.68 317.896 33.248 316.04 34.56C315.816 33.728 315.48 32.736 315.032 31.584C314.616 30.4 314.232 29.52 313.88 28.944C318.968 25.584 323.08 21.088 326.216 15.456L315.272 16.416V11.28L323.672 10.512C322.68 8.656 321.384 6.8 319.784 4.944L324.296 2.208C326.216 4.16 327.672 6.048 328.664 7.872L324.872 10.416L329.336 10.032L330.296 9.696L333.32 11.664C331.912 15.344 330.072 18.848 327.8 22.176C329.08 23.168 330.92 24.736 333.32 26.88L334.184 27.6L330.632 32.688C329.736 31.408 328.568 29.952 327.128 28.32V47.04L321.512 47.52ZM331.688 45.168V39.504L343.256 38.496V20.688L333.8 21.504V15.984L343.256 15.168V1.104L349.16 0.575998V14.64L358.232 13.824V19.344L349.16 20.16V37.968L359.384 37.056V42.72L331.688 45.168ZM365.096 46.56V5.184L405.608 1.632V7.104L370.664 10.176V40.608L406.856 37.44V42.912L365.096 46.56ZM376.088 38.016C374.648 36.448 373.192 35.104 371.72 33.984C376.136 31.264 380.28 27.984 384.152 24.144C380.536 21.296 377.048 18.72 373.688 16.416L377.672 12.528L388.088 19.872C390.968 16.544 393.416 13.088 395.432 9.504L400.856 11.184C398.424 15.344 395.592 19.312 392.36 23.088C396.52 26.128 399.864 28.896 402.392 31.392L397.88 36.048C395.544 33.552 392.376 30.688 388.376 27.456C384.408 31.552 380.312 35.072 376.088 38.016Z"
    fill="white" />
  <path
    d="M152.873 77.808H159.897V84.16H152.873V77.808ZM159.369 83.632V81.264H153.401V83.632H159.369ZM153.401 80.736H159.369V78.352H153.401V80.736ZM156.057 84.944H156.585V86.864H160.361V87.392H156.585V90.432H161.113V90.976H151.481V90.432H156.057V87.392H152.329V86.864H156.057V84.944ZM147.129 91.376L147.017 90.848C147.679 90.8693 148.143 90.88 148.409 90.88C148.868 90.88 149.097 90.6827 149.097 90.288V85.456C148.244 85.7867 147.481 86.048 146.809 86.24L146.665 85.712C147.487 85.4987 148.297 85.232 149.097 84.912V80.816H146.905V80.288H149.097V77.056H149.641V80.288H151.449V80.816H149.641V84.688C150.367 84.3573 150.98 84.0587 151.481 83.792V84.352C150.905 84.6507 150.292 84.944 149.641 85.232V90.432C149.641 91.0613 149.295 91.376 148.601 91.376H147.129ZM162.249 78.576H171.609V79.152H167.257V90H166.633V79.152H162.249V78.576ZM176.346 81.504C177.477 81.504 178.319 81.824 178.874 82.464C179.343 82.9973 179.578 83.728 179.578 84.656V90H178.986V88.224C178.645 88.7147 178.181 89.1573 177.594 89.552C176.89 90 176.127 90.224 175.306 90.224C174.517 90.224 173.871 90.0213 173.37 89.616C172.869 89.1893 172.618 88.624 172.618 87.92C172.618 86.864 173.061 86.1013 173.946 85.632C174.629 85.2587 175.562 85.072 176.746 85.072L178.97 85.056V84.72C178.97 82.9493 178.09 82.064 176.33 82.064C175.541 82.064 174.906 82.24 174.426 82.592C173.893 82.9653 173.578 83.4987 173.482 84.192H172.874C173.002 83.296 173.381 82.6187 174.01 82.16C174.586 81.7227 175.365 81.504 176.346 81.504ZM178.97 85.6L176.762 85.616C174.415 85.6267 173.242 86.4 173.242 87.936C173.242 88.4587 173.439 88.88 173.834 89.2C174.229 89.5093 174.757 89.664 175.418 89.664C176.314 89.664 177.141 89.3493 177.898 88.72C178.613 88.0907 178.97 87.4507 178.97 86.8V85.6ZM194.938 78.08V91.52H194.394V90.4H188.41V91.536H187.866V78.08H194.938ZM188.41 89.872H194.394V86.368H188.41V89.872ZM188.41 85.84H194.394V82.464H188.41V85.84ZM188.41 81.936H194.394V78.608H188.41V81.936ZM184.602 91.504H184.074V82.176C183.498 84.128 182.666 85.872 181.578 87.408L181.37 86.88C182.66 85.1093 183.551 83.1093 184.042 80.88H181.594V80.352H184.074V77.024H184.602V80.352H186.89V80.88H184.602V81.92C185.391 82.784 186.175 83.76 186.954 84.848L186.65 85.296C185.807 84.0587 185.124 83.1307 184.602 82.512V91.504ZM199.37 81.6C198.762 82.6133 198.084 83.5467 197.338 84.4L197.162 83.824C198.868 81.744 200.09 79.4293 200.826 76.88L201.338 77.12C200.954 78.4 200.474 79.5787 199.898 80.656V91.568H199.37V81.6ZM201.61 79.408H211.882V79.952H201.61V79.408ZM203.114 81.76H210.474V82.272H203.114V81.76ZM203.114 84.016H210.474V84.544H203.114V84.016ZM210.698 86.352V91.52H210.154V90.592H203.45V91.52H202.89V86.352H210.698ZM203.45 90.064H210.154V86.88H203.45V90.064ZM206.442 76.96C206.804 77.6107 207.082 78.224 207.274 78.8L206.794 78.992C206.548 78.3307 206.255 77.7067 205.914 77.12L206.442 76.96ZM217.258 78.576H218.026L222.666 90H221.978L220.538 86.384H214.762L213.306 90H212.602L217.258 78.576ZM214.986 85.808H220.314L217.674 79.248H217.626L214.986 85.808ZM224.056 78.576H224.68V90H224.056V78.576ZM229.127 78.096H238.983V84.848H229.127V78.096ZM238.423 84.32V78.64H229.687V84.32H238.423ZM236.647 86.032C238.439 87.952 239.857 89.6853 240.903 91.232L240.439 91.568C239.425 89.9893 238.017 88.24 236.215 86.32L236.647 86.032ZM231.895 86.272C230.732 88.288 229.361 90.048 227.783 91.552L227.319 91.216C228.887 89.7867 230.252 88.0587 231.415 86.032L231.895 86.272ZM245.447 77.664H254.871V82.864H245.447V77.664ZM254.327 82.368V80.544H245.991V82.368H254.327ZM245.991 80.048H254.327V78.16H245.991V80.048ZM249.975 84.944H243.063V84.432H257.095V84.944H250.503V87.312H255.367V87.84H250.503V90.624C251.335 90.72 252.364 90.768 253.591 90.768C254.913 90.768 256.039 90.752 256.967 90.72L256.807 91.28C255.932 91.28 254.876 91.2693 253.639 91.248C251.015 91.248 249.255 91.04 248.359 90.624C247.473 90.2187 246.679 89.3867 245.975 88.128C245.356 89.472 244.535 90.5653 243.511 91.408L243.143 90.992C244.668 89.7227 245.703 87.9947 246.247 85.808L246.775 85.904C246.615 86.512 246.423 87.088 246.199 87.632C246.913 88.976 247.74 89.84 248.679 90.224C248.956 90.3307 249.388 90.4373 249.975 90.544V84.944ZM265.847 78.848H260.039V78.32H272.215V78.848H266.391V90.08H272.903V90.624H259.191V90.08H265.847V78.848ZM275.079 78.72H279.143V76.96H279.703V78.72H284.407V76.96H284.967V78.72H289.031V79.264H284.967V81.008H284.407V79.264H279.703V81.008H279.143V79.264H275.079V78.72ZM276.439 82.048H286.727V82.592C282.545 84.7893 279.697 86.608 278.183 88.048C277.404 88.7947 277.004 89.4187 276.983 89.92C276.983 90.3893 277.345 90.624 278.071 90.624H285.527C286.241 90.624 286.801 90.5173 287.207 90.304C287.665 90.0267 287.991 89.04 288.183 87.344L288.695 87.552C288.503 89.248 288.167 90.272 287.687 90.624C287.228 90.976 286.524 91.152 285.575 91.152H278.151C276.988 91.152 276.407 90.7573 276.407 89.968C276.407 89.2747 276.945 88.448 278.023 87.488C279.516 86.1547 282.097 84.5227 285.767 82.592H276.439V82.048ZM292.855 88.736C293.367 88.736 293.623 89.0827 293.623 89.776C293.623 90.928 293.169 91.7547 292.263 92.256L291.991 91.84C292.684 91.36 293.047 90.7413 293.079 89.984L292.871 90C292.679 90 292.519 89.9467 292.391 89.84C292.273 89.7333 292.215 89.5787 292.215 89.376C292.215 89.1627 292.268 89.0027 292.375 88.896C292.492 88.7893 292.652 88.736 292.855 88.736ZM309.015 81.792C308.364 82.8373 307.644 83.792 306.855 84.656L306.679 84.096C308.513 81.9627 309.82 79.584 310.599 76.96L311.095 77.2C310.679 78.48 310.172 79.6853 309.575 80.816V91.536H309.015V81.792ZM318.551 83.36C319.479 85.3867 320.268 87.472 320.919 89.616L320.423 89.824C319.708 87.488 318.913 85.392 318.039 83.536L318.551 83.36ZM313.303 79.712C312.78 80.9813 312.135 82.1867 311.367 83.328L310.903 83.04C312.151 81.2587 313.079 79.2053 313.687 76.88L314.231 76.992C314.017 77.7387 313.777 78.464 313.511 79.168H320.519V79.536C320.273 80.5173 319.916 81.52 319.447 82.544L318.919 82.384C319.367 81.52 319.713 80.6293 319.959 79.712H313.303ZM313.399 91.408L313.287 90.88C314.012 90.912 314.705 90.928 315.367 90.928C315.793 90.928 316.007 90.7147 316.007 90.288V81.36H316.535V90.432C316.535 91.0827 316.209 91.408 315.559 91.408H313.399ZM313.911 83.584C313.303 85.8453 312.513 87.8347 311.543 89.552L311.015 89.36C311.932 87.8347 312.732 85.8613 313.415 83.44L313.911 83.584ZM330.231 85.184C329.196 85.536 328.119 85.856 326.999 86.144V89.984C326.999 90.8693 326.599 91.312 325.799 91.312H324.055L323.943 90.784C324.519 90.816 325.079 90.832 325.623 90.832C326.177 90.832 326.455 90.5013 326.455 89.84V86.272C325.185 86.56 324.017 86.7893 322.951 86.96L322.871 86.432C324.065 86.2293 325.26 85.9947 326.455 85.728V82.128H322.919V81.6H326.455V78.704C325.409 78.9173 324.423 79.0827 323.495 79.2L323.383 78.672C325.719 78.4053 327.777 77.9307 329.559 77.248L329.751 77.776C328.855 78.096 327.937 78.3627 326.999 78.576V81.6H331.511C331.415 80.224 331.367 78.704 331.367 77.04H331.911C331.911 78.7467 331.959 80.2667 332.055 81.6H337.191V82.128H332.103C332.22 83.4613 332.385 84.5653 332.599 85.44C332.705 85.92 332.855 86.448 333.047 87.024C334.007 85.9573 334.812 84.736 335.463 83.36L335.943 83.616C335.207 85.1627 334.311 86.4907 333.255 87.6C333.532 88.3253 333.836 88.9387 334.167 89.44C334.764 90.2827 335.255 90.704 335.639 90.704C336.108 90.6933 336.503 89.68 336.823 87.664L337.303 87.92C336.94 90.16 336.417 91.28 335.735 91.28C335.148 91.28 334.497 90.7947 333.783 89.824C333.42 89.28 333.105 88.6773 332.839 88.016C331.612 89.2 330.193 90.112 328.583 90.752L328.279 90.272C329.964 89.6213 331.415 88.6827 332.631 87.456C332.396 86.8267 332.204 86.176 332.055 85.504C331.841 84.5653 331.676 83.44 331.559 82.128H326.999V85.6C328.087 85.3333 329.164 85.008 330.231 84.624V85.184ZM333.671 77.264C334.833 78.0853 335.82 78.9227 336.631 79.776L336.247 80.16C335.511 79.3707 334.524 78.5227 333.287 77.616L333.671 77.264ZM344.919 91.392L344.807 90.864C345.916 90.8853 346.716 90.896 347.207 90.896C347.772 90.896 348.055 90.5813 348.055 89.952V80.688H347.095C345.591 84.112 342.924 86.912 339.095 89.088L338.807 88.624C342.476 86.608 345.063 83.9627 346.567 80.688H339.031V80.16H348.055V77.024H348.583V80.16H352.839V80.688H348.583V90.096C348.583 90.96 348.188 91.392 347.399 91.392H344.919ZM357.447 77.664H366.871V82.864H357.447V77.664ZM366.327 82.368V80.544H357.991V82.368H366.327ZM357.991 80.048H366.327V78.16H357.991V80.048ZM361.975 84.944H355.063V84.432H369.095V84.944H362.503V87.312H367.367V87.84H362.503V90.624C363.335 90.72 364.364 90.768 365.591 90.768C366.913 90.768 368.039 90.752 368.967 90.72L368.807 91.28C367.932 91.28 366.876 91.2693 365.639 91.248C363.015 91.248 361.255 91.04 360.359 90.624C359.473 90.2187 358.679 89.3867 357.975 88.128C357.356 89.472 356.535 90.5653 355.511 91.408L355.143 90.992C356.668 89.7227 357.703 87.9947 358.247 85.808L358.775 85.904C358.615 86.512 358.423 87.088 358.199 87.632C358.913 88.976 359.74 89.84 360.679 90.224C360.956 90.3307 361.388 90.4373 361.975 90.544V84.944ZM377.271 82.736H373.159V90.224C373.159 90.544 373.345 90.704 373.719 90.704H377.223C377.873 90.704 378.284 90.5547 378.455 90.256C378.636 89.8613 378.759 89.1787 378.823 88.208L379.351 88.384C379.255 89.6853 379.057 90.5067 378.759 90.848C378.503 91.104 378.012 91.232 377.287 91.232H373.607C372.935 91.232 372.599 90.928 372.599 90.32V82.24H377.815V86.24C377.793 87.0613 377.404 87.4773 376.647 87.488C376.252 87.488 375.671 87.4667 374.903 87.424L374.743 86.912C375.553 86.9547 376.151 86.976 376.535 86.976C377.025 86.976 377.271 86.704 377.271 86.16V82.736ZM375.591 77.248C377.009 78.784 378.359 80.368 379.639 82L379.271 82.384C377.948 80.6667 376.663 79.1253 375.415 77.76C374.092 79.6907 372.641 81.376 371.063 82.816L370.743 82.384C372.343 80.9333 373.809 79.2213 375.143 77.248H375.591ZM380.919 78.416H381.463V88.528H380.919V78.416ZM380.871 91.376L380.759 90.848C381.687 90.88 382.567 90.896 383.399 90.896C383.74 90.896 383.911 90.6933 383.911 90.288V77.056H384.455V90.416C384.455 91.056 384.167 91.376 383.591 91.376H380.871ZM393.527 80.016C392.801 81.552 391.916 82.944 390.871 84.192L390.487 83.76C392.076 81.8827 393.287 79.616 394.119 76.96L394.647 77.088C394.412 77.8453 394.119 78.6453 393.767 79.488H401.207V80.016H395.415V83.248H400.407V83.792H395.415V87.072H400.599V87.6H395.415V91.52H394.871V80.016H393.527ZM388.999 81.712C388.337 82.6613 387.644 83.4987 386.919 84.224L386.743 83.664C388.588 81.6907 389.916 79.4773 390.727 77.024L391.223 77.264C390.775 78.5547 390.215 79.7547 389.543 80.864V91.52H388.999V81.712ZM404.631 78.864H409.095V76.96H409.639V78.864H413.831V79.392H409.639V81.84H411.911C413.457 80.7627 414.849 79.4933 416.087 78.032L416.503 78.352C415.404 79.6533 414.177 80.816 412.823 81.84H417.143V82.384H412.055C411.852 82.5227 411.548 82.72 411.143 82.976C410.119 83.584 408.999 84.144 407.783 84.656H414.935V91.536H414.375V90.656H406.647V91.536H406.103V85.312C405.047 85.6747 404.039 85.9893 403.079 86.256L402.855 85.744C405.703 85.072 408.252 84.0693 410.503 82.736C410.961 82.448 411.153 82.3307 411.079 82.384H403.031V81.84H409.095V79.392H404.631V78.864ZM406.647 87.888V90.144H414.375V87.888H406.647ZM414.375 87.376V85.168H406.647V87.376H414.375ZM422.055 80.608C422.236 80.608 422.391 80.672 422.519 80.8C422.636 80.9173 422.695 81.0667 422.695 81.248C422.695 81.408 422.636 81.5573 422.519 81.696C422.391 81.824 422.236 81.888 422.055 81.888C421.873 81.888 421.719 81.824 421.591 81.696C421.473 81.5787 421.415 81.4293 421.415 81.248C421.415 81.056 421.473 80.9067 421.591 80.8C421.719 80.672 421.873 80.608 422.055 80.608ZM422.055 86.464C422.567 86.464 422.823 86.816 422.823 87.52C422.823 88.672 422.369 89.4987 421.463 90L421.191 89.584C421.884 89.104 422.247 88.4853 422.279 87.728L422.071 87.744C421.857 87.744 421.697 87.6907 421.591 87.584C421.473 87.4773 421.415 87.3227 421.415 87.12C421.415 86.896 421.468 86.7307 421.575 86.624C421.681 86.5173 421.841 86.464 422.055 86.464ZM31.9294 118.576H32.6974L37.3374 130H36.6494L35.2094 126.384H29.4334L27.9774 130H27.2734L31.9294 118.576ZM29.6574 125.808H34.9854L32.3454 119.248H32.2974L29.6574 125.808ZM38.7279 118.576H39.3519V130H38.7279V118.576ZM41.8946 131.344L41.7826 130.816C42.2199 130.848 42.6306 130.864 43.0146 130.864C43.5479 130.864 43.8146 130.587 43.8146 130.032V125.504C43.0679 125.824 42.2999 126.112 41.5106 126.368L41.3826 125.824C42.1932 125.589 43.0039 125.307 43.8146 124.976V120.688H41.6706V120.16H43.8146V117.024H44.3586V120.16H46.2626V120.688H44.3586V124.736C45.0839 124.395 45.7399 124.053 46.3266 123.712V124.24C45.7399 124.581 45.0839 124.923 44.3586 125.264V130.16C44.3586 130.949 43.9746 131.344 43.2066 131.344H41.8946ZM47.0306 119.536H51.0466V117.04H51.5906V119.536H55.6226V120.064H51.5906V123.2H54.9666V123.712C54.3372 125.589 53.3079 127.195 51.8786 128.528C53.0306 129.52 54.4386 130.368 56.1026 131.072L55.8146 131.52C54.0972 130.763 52.6626 129.877 51.5106 128.864C50.1986 129.984 48.5986 130.88 46.7106 131.552L46.4386 131.072C48.2946 130.432 49.8572 129.579 51.1266 128.512C49.6652 127.147 48.6839 125.557 48.1826 123.744H47.3186V123.2H51.0466V120.064H47.0306V119.536ZM48.7106 123.744C49.1906 125.429 50.1186 126.912 51.4946 128.192C52.8386 126.933 53.8092 125.451 54.4066 123.744H48.7106ZM58.0226 121.008H64.4546V116.976H64.9986V121.008H71.4466V121.536H65.7826C66.9026 124.491 68.9399 127.099 71.8946 129.36L71.5426 129.808C68.4706 127.355 66.3746 124.597 65.2546 121.536H64.9986V131.488H64.4546V121.536H64.2146C62.9986 124.992 60.8546 127.808 57.7826 129.984L57.4946 129.504C60.4172 127.488 62.4759 124.832 63.6706 121.536H58.0226V121.008ZM67.5426 117.024C68.5559 118.037 69.3452 118.96 69.9106 119.792L69.4786 120.096C68.9026 119.232 68.1132 118.299 67.1106 117.296L67.5426 117.024ZM84.3586 117.072C85.2226 117.723 85.9212 118.352 86.4546 118.96L86.0706 119.312C85.5586 118.725 84.8652 118.091 83.9906 117.408L84.3586 117.072ZM86.5186 122.016C85.8466 124.224 84.9772 126.069 83.9106 127.552C84.2092 128.277 84.5452 128.907 84.9186 129.44C85.5479 130.283 86.0706 130.704 86.4866 130.704C86.9132 130.672 87.2706 129.771 87.5586 128L88.0546 128.272C87.7132 130.277 87.2279 131.28 86.5986 131.28C85.9692 131.28 85.2759 130.795 84.5186 129.824C84.1346 129.291 83.8039 128.699 83.5266 128.048C82.3212 129.552 80.9026 130.667 79.2706 131.392L78.9666 130.944C80.6839 130.187 82.1292 129.04 83.3026 127.504C83.0786 126.928 82.8652 126.256 82.6626 125.488C82.3212 124.016 82.1026 122.251 82.0066 120.192H75.8946V123.36H79.8146C79.8146 125.707 79.7399 127.312 79.5906 128.176C79.4519 128.901 79.0252 129.291 78.3106 129.344C77.8946 129.344 77.4146 129.328 76.8706 129.296L76.6946 128.8C77.5052 128.821 78.0226 128.832 78.2466 128.832C78.7266 128.8 79.0146 128.48 79.1106 127.872C79.2172 127.051 79.2706 125.728 79.2706 123.904H75.8946V124.96C75.8412 127.701 75.2492 129.888 74.1186 131.52L73.7026 131.136C74.7692 129.653 75.3239 127.595 75.3666 124.96V119.664H81.9746C81.9426 118.8 81.9266 117.904 81.9266 116.976H82.4706C82.4706 118.032 82.4919 118.928 82.5346 119.664H87.7346V120.192H82.5666C82.6626 122.293 82.8759 124.032 83.2066 125.408C83.3559 125.984 83.5159 126.507 83.6866 126.976C84.6679 125.557 85.4466 123.835 86.0226 121.808L86.5186 122.016ZM91.4146 117.456C92.3746 118.469 93.1052 119.349 93.6066 120.096L93.1586 120.4C92.5506 119.515 91.8252 118.635 90.9826 117.76L91.4146 117.456ZM96.8386 124.24C98.0332 125.531 98.9826 126.693 99.6866 127.728L99.2226 128.064C98.5399 126.987 97.5959 125.803 96.3906 124.512L96.8386 124.24ZM95.6066 117.008H96.1346V118.336C96.1346 119.264 96.0919 120.197 96.0066 121.136H102.695C102.695 125.509 102.497 128.32 102.103 129.568C101.687 130.773 100.956 131.376 99.9106 131.376C99.3559 131.376 98.7479 131.365 98.0866 131.344L97.9426 130.8C98.6466 130.832 99.2919 130.848 99.8786 130.848C101.041 130.773 101.713 129.787 101.895 127.888C102.065 125.861 102.151 123.792 102.151 121.68H95.9426C95.7186 123.707 95.2866 125.413 94.6466 126.8C93.7079 128.752 92.1399 130.304 89.9426 131.456L89.6386 130.976C91.7719 129.888 93.3239 128.331 94.2946 126.304C94.8386 124.992 95.2066 123.451 95.3986 121.68H90.1986V121.136H95.4626C95.5479 120.251 95.5959 119.317 95.6066 118.336V117.008ZM107.127 119.024H118.327V119.552H107.127V119.024ZM105.671 129.088H119.767V129.616H105.671V129.088ZM128.615 120.176C128.103 121.616 127.409 122.821 126.535 123.792L126.087 123.472C127.516 121.915 128.433 119.749 128.839 116.976L129.367 117.056C129.228 117.995 129.036 118.859 128.791 119.648H135.095V120.016C134.753 121.424 134.295 122.832 133.719 124.24L133.143 124.064C133.74 122.837 134.193 121.541 134.503 120.176H128.615ZM122.199 117.504C123.521 119.072 124.508 120.405 125.159 121.504L124.711 121.824C123.964 120.587 122.972 119.248 121.735 117.808L122.199 117.504ZM125.223 124.336C124.391 126.651 123.425 128.923 122.327 131.152L121.767 130.912C122.919 128.704 123.911 126.448 124.743 124.144L125.223 124.336ZM130.983 121.616C130.983 122.64 130.924 123.605 130.807 124.512C131.831 127.275 133.553 129.451 135.975 131.04L135.591 131.488C133.319 129.92 131.671 127.909 130.647 125.456C130.561 125.84 130.439 126.309 130.279 126.864C129.585 128.784 128.124 130.336 125.895 131.52L125.543 131.072C127.58 130.005 128.945 128.635 129.639 126.96C130.161 125.509 130.428 123.728 130.439 121.616H130.983ZM143.943 122.736H139.831V130.224C139.831 130.544 140.017 130.704 140.391 130.704H143.895C144.545 130.704 144.956 130.555 145.127 130.256C145.308 129.861 145.431 129.179 145.495 128.208L146.023 128.384C145.927 129.685 145.729 130.507 145.431 130.848C145.175 131.104 144.684 131.232 143.959 131.232H140.279C139.607 131.232 139.271 130.928 139.271 130.32V122.24H144.487V126.24C144.465 127.061 144.076 127.477 143.319 127.488C142.924 127.488 142.343 127.467 141.575 127.424L141.415 126.912C142.225 126.955 142.823 126.976 143.207 126.976C143.697 126.976 143.943 126.704 143.943 126.16V122.736ZM142.263 117.248C143.681 118.784 145.031 120.368 146.311 122L145.943 122.384C144.62 120.667 143.335 119.125 142.087 117.76C140.764 119.691 139.313 121.376 137.735 122.816L137.415 122.384C139.015 120.933 140.481 119.221 141.815 117.248H142.263ZM147.591 118.416H148.135V128.528H147.591V118.416ZM147.543 131.376L147.431 130.848C148.359 130.88 149.239 130.896 150.071 130.896C150.412 130.896 150.583 130.693 150.583 130.288V117.056H151.127V130.416C151.127 131.056 150.839 131.376 150.263 131.376H147.543ZM160.199 120.016C159.473 121.552 158.588 122.944 157.543 124.192L157.159 123.76C158.748 121.883 159.959 119.616 160.791 116.96L161.319 117.088C161.084 117.845 160.791 118.645 160.439 119.488H167.879V120.016H162.087V123.248H167.079V123.792H162.087V127.072H167.271V127.6H162.087V131.52H161.543V120.016H160.199ZM155.671 121.712C155.009 122.661 154.316 123.499 153.591 124.224L153.415 123.664C155.26 121.691 156.588 119.477 157.399 117.024L157.895 117.264C157.447 118.555 156.887 119.755 156.215 120.864V131.52H155.671V121.712ZM174.935 119.968V130.544H174.391V129.488H170.839V130.992H170.295V119.968H171.703C172.055 119.04 172.311 118.053 172.471 117.008L173.015 117.088C172.833 118.155 172.572 119.115 172.231 119.968H174.935ZM170.839 128.976H174.391V124.896H170.839V128.976ZM170.839 124.384H174.391V120.512H170.839V124.384ZM177.575 123.472C178.897 124.88 179.879 126.069 180.519 127.04L180.087 127.36C179.404 126.304 178.423 125.104 177.143 123.76L177.575 123.472ZM183.239 120C183.239 124.949 183.164 128.037 183.015 129.264C182.865 130.619 182.14 131.296 180.839 131.296L179.335 131.28L179.191 130.768L180.807 130.784C181.777 130.784 182.337 130.251 182.487 129.184C182.604 128.224 182.679 125.344 182.711 120.544H177.655C177.207 121.6 176.663 122.565 176.023 123.44L175.703 123.008C176.897 121.376 177.713 119.371 178.151 116.992L178.679 117.056C178.497 118.069 178.231 119.051 177.879 120H183.239ZM185.639 119.312H187.943V116.96H188.487V119.312H190.791V119.856H188.487V122.928H190.519V123.408C190.167 125.371 189.559 127.035 188.695 128.4C189.004 128.795 189.319 129.093 189.639 129.296C190.823 130.181 192.7 130.629 195.271 130.64C196.764 130.64 198.311 130.624 199.911 130.592L199.799 131.168H195.511C192.631 131.168 190.535 130.656 189.223 129.632C188.913 129.397 188.641 129.131 188.407 128.832C187.66 129.867 186.785 130.699 185.783 131.328L185.511 130.832C186.503 130.213 187.356 129.403 188.071 128.4C187.249 127.227 186.647 125.579 186.263 123.456H185.591V122.928H187.943V119.856H185.639V119.312ZM186.775 123.456C187.159 125.365 187.692 126.859 188.375 127.936C189.132 126.677 189.671 125.184 189.991 123.456H186.775ZM192.167 128.976L192.023 128.432L193.543 128.464C194.033 128.464 194.279 128.197 194.279 127.664V123.984C193.415 124.912 192.38 125.733 191.175 126.448L190.967 125.936C192.236 125.211 193.34 124.32 194.279 123.264V118.352H191.303V117.84H194.791V127.824C194.791 128.592 194.412 128.976 193.655 128.976H192.167ZM196.679 129.008L196.535 128.464L198.071 128.496C198.54 128.496 198.775 128.219 198.775 127.664V123.504C197.975 124.475 197.004 125.36 195.863 126.16L195.655 125.664C196.849 124.853 197.889 123.888 198.775 122.768V118.368H195.783V117.856H199.287V127.824C199.287 128.613 198.919 129.008 198.183 129.008H196.679ZM196.263 119.568C196.764 120.453 197.201 121.429 197.575 122.496L197.111 122.688C196.727 121.621 196.284 120.635 195.783 119.728L196.263 119.568ZM191.911 119.776C192.391 120.683 192.817 121.648 193.191 122.672L192.743 122.88C192.348 121.76 191.911 120.773 191.431 119.92L191.911 119.776ZM202.999 122.176V125.424H205.607V122.176H202.999ZM205.607 121.68V118.304H202.999V121.68H205.607ZM202.983 125.936C202.897 128.197 202.524 130.043 201.863 131.472L201.463 131.12C202.124 129.584 202.46 127.632 202.471 125.264V117.808H206.119V130.56C206.119 131.179 205.788 131.488 205.127 131.488H203.895L203.767 130.976C204.321 130.997 204.721 131.008 204.967 131.008C205.393 131.008 205.607 130.8 205.607 130.384V125.936H202.983ZM207.415 118.56H211.191C210.988 117.984 210.78 117.477 210.567 117.04L211.127 116.944C211.372 117.499 211.575 118.037 211.735 118.56H215.511V119.072H213.783C213.665 119.851 213.463 120.624 213.175 121.392H215.751V123.728H215.207V121.904H207.687V123.696H207.143V121.392H209.783C209.559 120.539 209.308 119.765 209.031 119.072H207.415V118.56ZM212.631 121.392C212.94 120.656 213.148 119.883 213.255 119.072H209.591C209.847 119.787 210.087 120.56 210.311 121.392H212.631ZM207.063 124.592H211.399C211.207 123.952 210.983 123.349 210.727 122.784L211.255 122.688C211.489 123.221 211.713 123.856 211.927 124.592H215.831V125.12H210.247C210.215 125.835 210.145 126.48 210.039 127.056H214.695C214.684 129.296 214.439 130.613 213.959 131.008C213.713 131.189 213.383 131.312 212.967 131.376C212.54 131.419 212.231 131.44 212.039 131.44H211.415L211.271 130.944H212.119C212.801 130.944 213.287 130.832 213.575 130.608C213.905 130.341 214.097 129.323 214.151 127.552H209.927C209.479 129.269 208.577 130.603 207.223 131.552L206.935 131.104C208.716 129.856 209.639 127.861 209.703 125.12H207.063V124.592ZM219.527 128.736C220.039 128.736 220.295 129.083 220.295 129.776C220.295 130.928 219.841 131.755 218.935 132.256L218.663 131.84C219.356 131.36 219.719 130.741 219.751 129.984L219.543 130C219.351 130 219.191 129.947 219.063 129.84C218.945 129.733 218.887 129.579 218.887 129.376C218.887 129.163 218.94 129.003 219.047 128.896C219.164 128.789 219.324 128.736 219.527 128.736ZM242.535 116.976H243.111V122.48H247.511V123.024H243.111V130.416H248.103V130.96H238.839V130.416H242.535V116.976ZM235.031 117.152C236.161 118.037 237.127 118.933 237.927 119.84L237.559 120.224C236.844 119.392 235.873 118.491 234.647 117.52L235.031 117.152ZM233.543 122.096H236.615V129.76C237.329 129.227 238.076 128.587 238.855 127.84L238.999 128.432C238.135 129.275 237.137 130.069 236.007 130.816L235.783 130.336C235.985 130.155 236.087 129.995 236.087 129.856V122.64H233.543V122.096ZM253.671 120.336H257.143C257.367 119.707 257.527 119.061 257.623 118.4H251.431V124.16C251.388 127.189 250.892 129.632 249.943 131.488L249.527 131.12C250.38 129.456 250.833 127.136 250.887 124.16V117.856H263.575V118.4H258.167C258.06 119.061 257.9 119.707 257.687 120.336H262.311V126.064H258.407V130.544C258.407 131.163 258.092 131.472 257.463 131.472H255.847L255.735 130.944C256.46 130.965 256.972 130.976 257.271 130.976C257.655 130.976 257.847 130.789 257.847 130.416V126.064H253.671V120.336ZM261.767 125.552V123.44H254.215V125.552H261.767ZM254.215 122.944H261.767V120.848H254.215V122.944ZM255.511 127.44C254.743 128.805 253.857 129.968 252.855 130.928L252.407 130.608C253.399 129.659 254.268 128.523 255.015 127.2L255.511 127.44ZM260.871 127.2C262.055 128.544 262.951 129.701 263.559 130.672L263.111 131.008C262.46 129.92 261.564 128.741 260.423 127.472L260.871 127.2ZM271.943 122.736H267.831V130.224C267.831 130.544 268.017 130.704 268.391 130.704H271.895C272.545 130.704 272.956 130.555 273.127 130.256C273.308 129.861 273.431 129.179 273.495 128.208L274.023 128.384C273.927 129.685 273.729 130.507 273.431 130.848C273.175 131.104 272.684 131.232 271.959 131.232H268.279C267.607 131.232 267.271 130.928 267.271 130.32V122.24H272.487V126.24C272.465 127.061 272.076 127.477 271.319 127.488C270.924 127.488 270.343 127.467 269.575 127.424L269.415 126.912C270.225 126.955 270.823 126.976 271.207 126.976C271.697 126.976 271.943 126.704 271.943 126.16V122.736ZM270.263 117.248C271.681 118.784 273.031 120.368 274.311 122L273.943 122.384C272.62 120.667 271.335 119.125 270.087 117.76C268.764 119.691 267.313 121.376 265.735 122.816L265.415 122.384C267.015 120.933 268.481 119.221 269.815 117.248H270.263ZM275.591 118.416H276.135V128.528H275.591V118.416ZM275.543 131.376L275.431 130.848C276.359 130.88 277.239 130.896 278.071 130.896C278.412 130.896 278.583 130.693 278.583 130.288V117.056H279.127V130.416C279.127 131.056 278.839 131.376 278.263 131.376H275.543ZM288.199 120.016C287.473 121.552 286.588 122.944 285.543 124.192L285.159 123.76C286.748 121.883 287.959 119.616 288.791 116.96L289.319 117.088C289.084 117.845 288.791 118.645 288.439 119.488H295.879V120.016H290.087V123.248H295.079V123.792H290.087V127.072H295.271V127.6H290.087V131.52H289.543V120.016H288.199ZM283.671 121.712C283.009 122.661 282.316 123.499 281.591 124.224L281.415 123.664C283.26 121.691 284.588 119.477 285.399 117.024L285.895 117.264C285.447 118.555 284.887 119.755 284.215 120.864V131.52H283.671V121.712ZM300.503 117.872H308.903V122.56H300.503V117.872ZM308.343 122.016V118.416H301.063V122.016H308.343ZM303.591 124.768V131.28H303.047V130.384H298.983V131.28H298.439V124.768H303.591ZM298.983 129.856H303.047V125.296H298.983V129.856ZM310.999 124.768V131.28H310.455V130.384H306.247V131.28H305.703V124.768H310.999ZM306.247 129.856H310.455V125.296H306.247V129.856ZM313.751 118.416H317.751V116.928H318.295V118.416H323.159V116.928H323.703V118.416H327.703V118.944H323.703V120.288H323.159V118.944H318.295V120.288H317.751V118.944H313.751V118.416ZM319.047 121.136C318.385 122 317.745 122.693 317.127 123.216C317.927 124.528 318.327 126.155 318.327 128.096C318.327 129.461 318.151 130.416 317.799 130.96C317.511 131.28 317.111 131.44 316.599 131.44L315.047 131.424L314.887 130.912C315.548 130.933 316.071 130.944 316.455 130.944C316.913 130.944 317.244 130.795 317.447 130.496C317.671 130.048 317.783 129.232 317.783 128.048C317.783 127.397 317.729 126.736 317.623 126.064C316.673 127.131 315.505 128.016 314.119 128.72L313.815 128.272C315.361 127.504 316.583 126.56 317.479 125.44C317.297 124.736 317.047 124.107 316.727 123.552C315.884 124.203 314.935 124.779 313.879 125.28L313.591 124.832C314.679 124.363 315.633 123.792 316.455 123.12C315.932 122.373 315.249 121.755 314.407 121.264L314.839 120.912C315.66 121.424 316.332 122.048 316.855 122.784C317.495 122.229 318.071 121.584 318.583 120.848L319.047 121.136ZM319.479 123.824H322.983C323.025 122.16 323.047 121.205 323.047 120.96H323.591C323.591 121.76 323.575 122.688 323.543 123.744L323.559 123.824H327.463V124.368H323.655C324.231 127.259 325.623 129.472 327.831 131.008L327.463 131.424C325.351 129.899 323.996 127.84 323.399 125.248C322.94 127.712 321.649 129.792 319.527 131.488L319.175 131.104C321.447 129.248 322.711 127.045 322.967 124.496V124.368H319.479V123.824ZM325.143 120.624C326.06 121.435 326.764 122.155 327.255 122.784L326.839 123.088C326.327 122.416 325.623 121.68 324.727 120.88L325.143 120.624ZM331.863 124.224C331.191 124.928 330.449 125.568 329.639 126.144L329.479 125.616C331.335 124.261 332.652 122.752 333.431 121.088L333.911 121.296C333.495 122.128 332.993 122.901 332.407 123.616V131.504H331.863V124.224ZM333.815 117.216C332.887 118.955 331.495 120.443 329.639 121.68L329.463 121.136C331.287 119.888 332.583 118.512 333.351 117.008L333.815 117.216ZM335.335 117.664H342.535V122.416H335.335V117.664ZM342.007 121.92V120.256H335.863V121.92H342.007ZM335.863 119.792H342.007V118.144H335.863V119.792ZM334.487 123.904H343.623V124.416H341.463V126.32H343.959V126.816H341.463V130.368C341.463 131.072 341.095 131.424 340.359 131.424H338.551L338.439 130.896C339.047 130.928 339.623 130.944 340.167 130.944C340.679 130.944 340.935 130.709 340.935 130.24V126.816H333.943V126.32H340.935V124.416H334.487V123.904ZM335.815 127.664C336.796 128.56 337.548 129.36 338.071 130.064L337.639 130.352C337.041 129.584 336.295 128.784 335.399 127.952L335.815 127.664ZM346.023 117.792H359.447V118.32H353.015V120.16H358.071V126.112H352.871C352.679 127.371 352.3 128.363 351.735 129.088C354.06 130.176 356.828 130.784 360.039 130.912L359.895 131.424C356.599 131.296 353.761 130.645 351.383 129.472C350.337 130.485 348.481 131.152 345.815 131.472L345.575 130.976C348.135 130.699 349.905 130.117 350.887 129.232C349.788 128.635 348.807 127.952 347.943 127.184L348.375 126.88C349.249 127.659 350.204 128.315 351.239 128.848C351.772 128.165 352.135 127.253 352.327 126.112H347.447V120.16H352.471V118.32H346.023V117.792ZM357.543 125.616V123.36H353.015V124.224C353.004 124.597 352.977 125.061 352.935 125.616H357.543ZM352.391 125.616C352.444 125.115 352.471 124.651 352.471 124.224V123.36H347.991V125.616H352.391ZM347.991 122.864H352.471V120.672H347.991V122.864ZM353.015 120.672V122.864H357.543V120.672H353.015ZM362.551 117.296C363.863 118.192 364.913 119.051 365.703 119.872L365.303 120.272C364.524 119.44 363.479 118.571 362.167 117.664L362.551 117.296ZM362.167 121.056C363.351 121.92 364.343 122.784 365.143 123.648L364.759 124.032C364.055 123.232 363.063 122.357 361.783 121.408L362.167 121.056ZM365.479 125.648C364.636 127.653 363.697 129.552 362.663 131.344L362.135 131.136C363.265 129.205 364.215 127.312 364.983 125.456L365.479 125.648ZM366.487 125.36V124.816H370.567V122.768H371.111V124.816H375.351V125.36H371.927C372.695 127.077 374.023 128.619 375.911 129.984L375.559 130.416C373.564 128.901 372.199 127.216 371.463 125.36H371.111V131.456H370.567V125.36H370.215C369.383 127.472 367.921 129.211 365.831 130.576L365.559 130.112C367.521 128.896 368.919 127.312 369.751 125.36H366.487ZM375.127 117.792V120.496H374.599V118.32H367.079V120.512H366.535V117.792H375.127ZM369.959 119.888C369.191 121.381 368.199 122.512 366.983 123.28L366.583 122.928C367.852 122.128 368.817 121.051 369.479 119.696L369.959 119.888ZM371.959 119.648C373.164 120.864 374.092 121.947 374.743 122.896L374.311 123.216C373.617 122.171 372.695 121.067 371.543 119.904L371.959 119.648ZM382.935 119.968V130.544H382.391V129.488H378.839V130.992H378.295V119.968H379.703C380.055 119.04 380.311 118.053 380.471 117.008L381.015 117.088C380.833 118.155 380.572 119.115 380.231 119.968H382.935ZM378.839 128.976H382.391V124.896H378.839V128.976ZM378.839 124.384H382.391V120.512H378.839V124.384ZM385.575 123.472C386.897 124.88 387.879 126.069 388.519 127.04L388.087 127.36C387.404 126.304 386.423 125.104 385.143 123.76L385.575 123.472ZM391.239 120C391.239 124.949 391.164 128.037 391.015 129.264C390.865 130.619 390.14 131.296 388.839 131.296L387.335 131.28L387.191 130.768L388.807 130.784C389.777 130.784 390.337 130.251 390.487 129.184C390.604 128.224 390.679 125.344 390.711 120.544H385.655C385.207 121.6 384.663 122.565 384.023 123.44L383.703 123.008C384.897 121.376 385.713 119.371 386.151 116.992L386.679 117.056C386.497 118.069 386.231 119.051 385.879 120H391.239ZM394.519 117.6H401.079V121.68H397.831L398.119 122.96H401.975V123.44H393.527V122.96H397.575L397.303 121.68H394.519V117.6ZM400.551 121.232V119.888H395.047V121.232H400.551ZM395.047 119.44H400.551V118.048H395.047V119.44ZM394.663 124.656H400.967V127.472H398.071V130.512C398.071 131.099 397.783 131.392 397.207 131.392H396.023L395.911 130.88C396.295 130.912 396.668 130.928 397.031 130.928C397.372 130.928 397.543 130.752 397.543 130.4V127.472H394.663V124.656ZM400.439 127.024V125.12H395.191V127.024H400.439ZM395.607 128.544C395.127 129.579 394.567 130.491 393.927 131.28L393.511 130.992C394.151 130.245 394.695 129.355 395.143 128.32L395.607 128.544ZM399.895 128.336C400.556 129.264 401.052 130.043 401.383 130.672L400.967 130.976C400.615 130.261 400.124 129.467 399.495 128.592L399.895 128.336ZM407.159 117.712C405.964 118.907 404.396 119.904 402.455 120.704L402.215 120.224C404.06 119.509 405.596 118.539 406.823 117.312L407.159 117.712ZM407.543 121.92C406.327 123.36 404.753 124.549 402.823 125.488L402.567 125.008C404.433 124.144 405.975 122.981 407.191 121.52L407.543 121.92ZM407.975 125.792C406.599 128.448 404.583 130.352 401.927 131.504L401.719 131.008C404.3 129.877 406.241 128.027 407.543 125.456L407.975 125.792ZM417.527 122.08H420.983V127.968H417.527V122.08ZM420.471 127.472V122.576H418.023V127.472H420.471ZM419.319 117.056C419.18 117.909 418.993 118.645 418.759 119.264H423.351V130.128C423.351 130.992 422.961 131.424 422.183 131.424H420.167L420.007 130.88L422.007 130.896C422.551 130.896 422.823 130.603 422.823 130.016V119.808H415.751V131.488H415.207V119.264H418.199C418.465 118.507 418.652 117.744 418.759 116.976L419.319 117.056ZM413.735 118.576V129.952H413.191V128.848H410.791V130.336H410.263V118.576H413.735ZM410.791 128.336H413.191V119.12H410.791V128.336ZM431.703 117.056H432.279V118.256C432.279 118.757 432.257 119.435 432.215 120.288H438.423C438.369 123.061 438.268 125.264 438.119 126.896C437.959 128.517 437.697 129.68 437.335 130.384C436.993 131.013 436.417 131.36 435.607 131.424H433.575L433.431 130.896L435.319 130.912C436.289 130.912 436.929 130.293 437.239 129.056C437.559 127.776 437.767 125.029 437.863 120.816H432.167C431.975 123.205 431.527 125.195 430.823 126.784C429.916 128.747 428.401 130.309 426.279 131.472L425.959 130.992C428.039 129.883 429.543 128.315 430.471 126.288C431.068 124.763 431.447 122.939 431.607 120.816H426.663V120.288H431.639C431.681 119.392 431.703 118.715 431.703 118.256V117.056ZM454.999 118.288V130.912H454.455V129.504H449.895V131.04H449.351V118.288H454.999ZM449.895 128.992H454.455V118.816H449.895V128.992ZM441.943 121.6H444.951V118.688C443.991 118.859 443.052 118.981 442.135 119.056L441.943 118.544C444.225 118.384 446.22 117.963 447.927 117.28L448.199 117.76C447.324 118.08 446.423 118.352 445.495 118.576V121.6H448.439V122.128H445.495V123.152C446.444 124.037 447.415 125.072 448.407 126.256L448.087 126.704C447.063 125.403 446.199 124.395 445.495 123.68V131.488H444.951V123.232C444.225 125.099 443.169 126.757 441.783 128.208L441.559 127.648C443.18 126.027 444.3 124.187 444.919 122.128H441.943V121.6ZM458.023 117.792H471.447V118.32H465.015V120.16H470.071V126.112H464.871C464.679 127.371 464.3 128.363 463.735 129.088C466.06 130.176 468.828 130.784 472.039 130.912L471.895 131.424C468.599 131.296 465.761 130.645 463.383 129.472C462.337 130.485 460.481 131.152 457.815 131.472L457.575 130.976C460.135 130.699 461.905 130.117 462.887 129.232C461.788 128.635 460.807 127.952 459.943 127.184L460.375 126.88C461.249 127.659 462.204 128.315 463.239 128.848C463.772 128.165 464.135 127.253 464.327 126.112H459.447V120.16H464.471V118.32H458.023V117.792ZM469.543 125.616V123.36H465.015V124.224C465.004 124.597 464.977 125.061 464.935 125.616H469.543ZM464.391 125.616C464.444 125.115 464.471 124.651 464.471 124.224V123.36H459.991V125.616H464.391ZM459.991 122.864H464.471V120.672H459.991V122.864ZM465.015 120.672V122.864H469.543V120.672H465.015ZM474.551 117.488C475.628 118.235 476.545 119.013 477.303 119.824L476.919 120.192C476.215 119.456 475.303 118.672 474.183 117.84L474.551 117.488ZM484.087 131.216C483.553 131.216 482.615 131.205 481.271 131.184C480.204 131.152 479.393 131.045 478.839 130.864C478.199 130.672 477.623 130.261 477.111 129.632C476.908 129.355 476.705 129.216 476.503 129.216C476.033 129.216 475.303 129.973 474.311 131.488L473.879 131.12C474.817 129.669 475.612 128.864 476.263 128.704V123.28H473.783V122.736H476.791V128.72C476.983 128.795 477.196 128.965 477.431 129.232C477.815 129.723 478.273 130.085 478.807 130.32C479.329 130.512 480.06 130.624 480.999 130.656C482.001 130.677 483.004 130.688 484.007 130.688L487.847 130.64L487.719 131.216H484.087ZM479.559 117.936H486.567V118.48H479.559V117.936ZM478.519 121.648H487.431V122.176H484.567V127.872C484.567 128.224 484.764 128.4 485.159 128.4H486.119C486.385 128.4 486.583 128.352 486.711 128.256C486.956 128.075 487.1 127.365 487.143 126.128L487.671 126.304C487.607 127.531 487.452 128.293 487.207 128.592C487.015 128.805 486.695 128.912 486.247 128.912H485.015C484.705 128.912 484.465 128.827 484.295 128.656C484.124 128.485 484.039 128.261 484.039 127.984V122.176H481.783C481.751 123.584 481.596 124.757 481.319 125.696C480.903 127.061 479.975 128.176 478.535 129.04L478.199 128.592C479.457 127.867 480.316 126.896 480.775 125.68C481.063 124.72 481.223 123.552 481.255 122.176H478.519V121.648ZM494.935 119.968V130.544H494.391V129.488H490.839V130.992H490.295V119.968H491.703C492.055 119.04 492.311 118.053 492.471 117.008L493.015 117.088C492.833 118.155 492.572 119.115 492.231 119.968H494.935ZM490.839 128.976H494.391V124.896H490.839V128.976ZM490.839 124.384H494.391V120.512H490.839V124.384ZM497.575 123.472C498.897 124.88 499.879 126.069 500.519 127.04L500.087 127.36C499.404 126.304 498.423 125.104 497.143 123.76L497.575 123.472ZM503.239 120C503.239 124.949 503.164 128.037 503.015 129.264C502.865 130.619 502.14 131.296 500.839 131.296L499.335 131.28L499.191 130.768L500.807 130.784C501.777 130.784 502.337 130.251 502.487 129.184C502.604 128.224 502.679 125.344 502.711 120.544H497.655C497.207 121.6 496.663 122.565 496.023 123.44L495.703 123.008C496.897 121.376 497.713 119.371 498.151 116.992L498.679 117.056C498.497 118.069 498.231 119.051 497.879 120H503.239ZM507.703 121.76C507.095 122.699 506.396 123.595 505.607 124.448L505.431 123.872C507.265 121.813 508.572 119.525 509.351 117.008L509.847 117.232C509.42 118.544 508.887 119.755 508.247 120.864V131.568H507.703V121.76ZM510.407 119.264H513.623C513.815 118.528 513.991 117.776 514.151 117.008L514.695 117.056L514.183 119.264H519.351V119.808H514.039C513.825 120.576 513.585 121.387 513.319 122.24H520.007V122.768H513.143C512.812 123.728 512.476 124.587 512.135 125.344H519.047V125.824C518.279 127.115 517.073 128.379 515.431 129.616C516.305 130.085 517.148 130.608 517.959 131.184L517.655 131.664C515.692 130.267 513.681 129.168 511.623 128.368L511.911 127.92C512.892 128.325 513.905 128.8 514.951 129.344C516.455 128.277 517.628 127.12 518.471 125.872H511.431C511.889 124.773 512.284 123.739 512.615 122.768H509.703V122.24H512.775C513.052 121.387 513.292 120.576 513.495 119.808H510.407V119.264ZM530.727 125.568H527.751V127.616H530.727V125.568ZM530.727 128.096H527.751V130.128H530.727V128.096ZM531.223 130.128H534.215V128.096H531.223V130.128ZM534.215 130.624H527.751V131.536H527.223V125.072H534.743V131.536H534.215V130.624ZM531.223 127.616H534.215V125.568H531.223V127.616ZM530.695 118.368C529.329 118.475 527.991 118.528 526.679 118.528L526.503 118.048C529.991 118.027 532.823 117.707 534.999 117.088L535.255 117.536C534.06 117.899 532.711 118.16 531.207 118.32V121.232H532.839C533.308 120.496 533.703 119.739 534.023 118.96L534.519 119.152C534.167 119.952 533.777 120.645 533.351 121.232H535.751V121.744H531.927C532.855 122.843 534.241 123.803 536.087 124.624L535.831 125.088C534.017 124.267 532.567 123.152 531.479 121.744H531.207V124.64H530.695V121.744H530.455C529.655 123.131 528.3 124.267 526.391 125.152L526.119 124.704C527.943 123.936 529.244 122.949 530.023 121.744H526.535V121.232H528.599C528.353 120.656 528.039 120.091 527.655 119.536L528.135 119.36C528.508 119.904 528.833 120.528 529.111 121.232H530.695V118.368ZM521.863 131.376L521.751 130.848C522.199 130.88 522.62 130.896 523.015 130.896C523.495 130.896 523.735 130.624 523.735 130.08V125.392C522.956 125.723 522.257 125.984 521.639 126.176L521.495 125.648C522.327 125.413 523.073 125.152 523.735 124.864V120.8H521.671V120.272H523.735V117.056H524.279V120.272H525.847V120.8H524.279V124.624C524.631 124.453 525.148 124.176 525.831 123.792V124.336C525.425 124.571 524.908 124.837 524.279 125.136V130.224C524.279 130.992 523.921 131.376 523.207 131.376H521.863ZM540.727 127.92C541.249 127.92 541.692 128.096 542.055 128.448C542.428 128.8 542.615 129.237 542.615 129.76C542.615 130.272 542.428 130.704 542.055 131.056C541.692 131.408 541.249 131.584 540.727 131.584C540.204 131.584 539.761 131.413 539.399 131.072C539.025 130.709 538.839 130.272 538.839 129.76C538.839 129.216 539.025 128.779 539.399 128.448C539.751 128.096 540.193 127.92 540.727 127.92ZM540.727 128.416C540.332 128.416 540.007 128.544 539.751 128.8C539.484 129.056 539.351 129.376 539.351 129.76C539.351 130.123 539.484 130.432 539.751 130.688C540.007 130.944 540.332 131.072 540.727 131.072C541.089 131.072 541.415 130.944 541.703 130.688C541.969 130.421 542.103 130.112 542.103 129.76C542.103 129.397 541.969 129.083 541.703 128.816C541.425 128.549 541.1 128.416 540.727 128.416ZM4.14388 162.08H8.36788C8.48521 161.227 8.54388 160.347 8.54388 159.44H9.08788C9.08788 160.4 9.03988 161.28 8.94388 162.08H13.1999V162.624H8.86388C8.78921 163.072 8.69321 163.515 8.57588 163.952C10.4425 165.477 11.9732 166.971 13.1679 168.432L12.7839 168.832C11.6532 167.403 10.2025 165.941 8.43188 164.448C7.79188 166.272 6.43188 167.744 4.35188 168.864L3.99988 168.432C5.89854 167.429 7.16788 166.123 7.80788 164.512C7.99988 163.947 8.15988 163.317 8.28788 162.624H4.14388V162.08ZM14.8639 157.936V171.488H14.3199V170.608H3.02387V171.488H2.47988V157.936H14.8639ZM3.02387 170.064H14.3199V158.48H3.02387V170.064ZM22.0639 157.456H22.5919V162.368H25.3599V162.896H22.5919V169.184C23.5625 168.928 24.5172 168.64 25.4559 168.32V168.88C23.0772 169.68 20.3625 170.32 17.3119 170.8L17.2319 170.256L18.8959 169.984V160.144H19.4399V169.888C20.4105 169.685 21.2852 169.493 22.0639 169.312V157.456ZM31.7279 160.64C30.3945 161.728 28.8692 162.619 27.1519 163.312V169.488C27.1519 170.117 27.4665 170.432 28.0959 170.432H29.5199C30.0532 170.432 30.4372 170.299 30.6719 170.032C30.9705 169.637 31.1679 168.549 31.2639 166.768L31.7759 166.944C31.6799 168.811 31.4452 169.984 31.0719 170.464C30.7839 170.805 30.3039 170.976 29.6319 170.976H27.9199C27.0452 170.976 26.6079 170.517 26.6079 169.6V157.2H27.1519V162.752C28.7412 162.091 30.1599 161.243 31.4079 160.208L31.7279 160.64ZM35.4719 168.736C35.9839 168.736 36.2399 169.083 36.2399 169.776C36.2399 170.928 35.7865 171.755 34.8799 172.256L34.6079 171.84C35.3012 171.36 35.6639 170.741 35.6959 169.984L35.4879 170C35.2959 170 35.1359 169.947 35.0079 169.84C34.8905 169.733 34.8319 169.579 34.8319 169.376C34.8319 169.163 34.8852 169.003 34.9919 168.896C35.1092 168.789 35.2692 168.736 35.4719 168.736ZM55.5999 157.808H62.6239V164.16H55.5999V157.808ZM62.0959 163.632V161.264H56.1279V163.632H62.0959ZM56.1279 160.736H62.0959V158.352H56.1279V160.736ZM58.7839 164.944H59.3119V166.864H63.0879V167.392H59.3119V170.432H63.8399V170.976H54.2079V170.432H58.7839V167.392H55.0559V166.864H58.7839V164.944ZM49.8559 171.376L49.7439 170.848C50.4052 170.869 50.8692 170.88 51.1359 170.88C51.5945 170.88 51.8239 170.683 51.8239 170.288V165.456C50.9705 165.787 50.2079 166.048 49.5359 166.24L49.3919 165.712C50.2132 165.499 51.0239 165.232 51.8239 164.912V160.816H49.6319V160.288H51.8239V157.056H52.3679V160.288H54.1759V160.816H52.3679V164.688C53.0932 164.357 53.7065 164.059 54.2079 163.792V164.352C53.6319 164.651 53.0185 164.944 52.3679 165.232V170.432C52.3679 171.061 52.0212 171.376 51.3279 171.376H49.8559ZM64.9759 158.576H74.3359V159.152H69.9839V170H69.3599V159.152H64.9759V158.576ZM79.0726 161.504C80.2033 161.504 81.046 161.824 81.6006 162.464C82.07 162.997 82.3046 163.728 82.3046 164.656V170H81.7126V168.224C81.3713 168.715 80.9073 169.157 80.3206 169.552C79.6166 170 78.854 170.224 78.0326 170.224C77.2433 170.224 76.598 170.021 76.0966 169.616C75.5953 169.189 75.3446 168.624 75.3446 167.92C75.3446 166.864 75.7873 166.101 76.6726 165.632C77.3553 165.259 78.2886 165.072 79.4726 165.072L81.6966 165.056V164.72C81.6966 162.949 80.8166 162.064 79.0566 162.064C78.2673 162.064 77.6326 162.24 77.1526 162.592C76.6193 162.965 76.3046 163.499 76.2086 164.192H75.6006C75.7286 163.296 76.1073 162.619 76.7366 162.16C77.3126 161.723 78.0913 161.504 79.0726 161.504ZM81.6966 165.6L79.4886 165.616C77.142 165.627 75.9686 166.4 75.9686 167.936C75.9686 168.459 76.166 168.88 76.5606 169.2C76.9553 169.509 77.4833 169.664 78.1446 169.664C79.0406 169.664 79.8673 169.349 80.6246 168.72C81.3393 168.091 81.6966 167.451 81.6966 166.8V165.6ZM84.3841 158.64C86.3041 158.395 87.9841 157.963 89.4241 157.344L89.6161 157.872C88.9015 158.16 88.2135 158.389 87.5521 158.56V161.6H89.7761V162.128H87.5521V163.136C88.3948 164.075 89.2321 165.125 90.0641 166.288L89.7441 166.72C88.8588 165.387 88.1281 164.373 87.5521 163.68V171.472H87.0081V163.392C86.3575 165.312 85.4348 167.003 84.2401 168.464L84.0161 167.904C85.4455 166.219 86.4428 164.293 87.0081 162.128H84.4641V161.6H87.0081V158.704C86.1975 158.896 85.3601 159.056 84.4961 159.184L84.3841 158.64ZM91.0561 158.176H97.3441V165.072H91.0561V158.176ZM96.8161 164.528V158.704H91.6001V164.528H96.8161ZM92.9281 166.704C92.1495 168.507 91.2001 170.101 90.0801 171.488L89.6321 171.168C90.7308 169.845 91.6695 168.277 92.4481 166.464L92.9281 166.704ZM95.7441 166.4C96.9921 168.171 97.9628 169.771 98.6561 171.2L98.1921 171.52C97.4775 170.027 96.5121 168.411 95.2961 166.672L95.7441 166.4ZM103.408 171.456H102.88V162.032C102.304 164.059 101.456 165.861 100.336 167.44L100.096 166.864C101.387 165.115 102.288 163.12 102.8 160.88H100.304V160.352H102.88V157.024H103.408V160.352H105.568V160.88H103.408V162.288C104.123 163.173 104.875 164.208 105.664 165.392L105.344 165.856C104.587 164.597 103.941 163.616 103.408 162.912V171.456ZM107.376 158.384H105.296V157.84H112.464V158.208C112.059 159.883 111.68 161.232 111.328 162.256H113.664V162.592C113.344 164.843 112.544 166.747 111.264 168.304C112.139 169.296 113.2 170.197 114.448 171.008L114.112 171.456C112.853 170.645 111.787 169.733 110.912 168.72C109.888 169.819 108.645 170.736 107.184 171.472L106.88 170.96C108.363 170.245 109.584 169.349 110.544 168.272C109.232 166.64 108.32 164.725 107.808 162.528C107.52 166.475 106.544 169.429 104.88 171.392L104.464 171.04C106.373 168.789 107.344 165.189 107.376 160.24V158.384ZM110.88 167.856C112.021 166.427 112.763 164.725 113.104 162.752H110.656C111.008 161.813 111.413 160.357 111.872 158.384H107.904V160.56C108.256 163.408 109.248 165.84 110.88 167.856ZM116.416 162H121.856C122.251 161.445 122.549 160.875 122.752 160.288L118.128 160.48L118.032 159.968C119.259 159.52 120.592 158.544 122.032 157.04L122.56 157.216C121.429 158.421 120.304 159.339 119.184 159.968C122.107 159.872 124.651 159.739 126.816 159.568C126.24 159.024 125.6 158.464 124.896 157.888L125.312 157.6C126.944 158.944 128.171 160.085 128.992 161.024L128.544 161.328C128.128 160.848 127.707 160.405 127.28 160C126.32 160.075 124.997 160.16 123.312 160.256C123.099 160.864 122.816 161.445 122.464 162H130.064V162.512H125.632C126.635 163.771 128.293 164.752 130.608 165.456L130.352 165.968C127.845 165.104 126.085 163.952 125.072 162.512H122.08C120.875 164.005 118.971 165.2 116.368 166.096L116.112 165.6C118.501 164.843 120.277 163.813 121.44 162.512H116.416V162ZM124.048 163.76C122.971 165.093 121.317 166.144 119.088 166.912L118.832 166.464C120.997 165.728 122.587 164.736 123.6 163.488L124.048 163.76ZM128.208 166.144C126.747 168.768 123.584 170.603 118.72 171.648L118.384 171.216C123.269 170.149 126.384 168.384 127.728 165.92L128.208 166.144ZM126.08 165.088C124.309 167.189 121.957 168.507 119.024 169.04L118.704 168.592C121.659 168.101 123.968 166.832 125.632 164.784L126.08 165.088ZM136.08 159.824L135.76 162.96H144.72C144.72 167.227 144.501 169.701 144.064 170.384C143.616 171.024 142.672 171.344 141.232 171.344L138.992 171.328L138.832 170.816L141.104 170.88C142.565 170.88 143.44 170.523 143.728 169.808C144.037 169.061 144.192 166.949 144.192 163.472H135.12L135.824 156.928L136.384 156.976L136.144 159.28H145.392V159.824H136.08ZM132.336 166.672H142.144V167.216H132.336V166.672ZM148.496 171.344L148.384 170.816C148.821 170.848 149.232 170.864 149.616 170.864C150.149 170.864 150.416 170.587 150.416 170.032V165.504C149.669 165.824 148.901 166.112 148.112 166.368L147.984 165.824C148.795 165.589 149.605 165.307 150.416 164.976V160.688H148.272V160.16H150.416V157.024H150.96V160.16H152.864V160.688H150.96V164.736C151.685 164.395 152.341 164.053 152.928 163.712V164.24C152.341 164.581 151.685 164.923 150.96 165.264V170.16C150.96 170.949 150.576 171.344 149.808 171.344H148.496ZM153.632 159.536H157.648V157.04H158.192V159.536H162.224V160.064H158.192V163.2H161.568V163.712C160.939 165.589 159.909 167.195 158.48 168.528C159.632 169.52 161.04 170.368 162.704 171.072L162.416 171.52C160.699 170.763 159.264 169.877 158.112 168.864C156.8 169.984 155.2 170.88 153.312 171.552L153.04 171.072C154.896 170.432 156.459 169.579 157.728 168.512C156.267 167.147 155.285 165.557 154.784 163.744H153.92V163.2H157.648V160.064H153.632V159.536ZM155.312 163.744C155.792 165.429 156.72 166.912 158.096 168.192C159.44 166.933 160.411 165.451 161.008 163.744H155.312ZM164.624 161.008H171.056V156.976H171.6V161.008H178.048V161.536H172.384C173.504 164.491 175.541 167.099 178.496 169.36L178.144 169.808C175.072 167.355 172.976 164.597 171.856 161.536H171.6V171.488H171.056V161.536H170.816C169.6 164.992 167.456 167.808 164.384 169.984L164.096 169.504C167.019 167.488 169.077 164.832 170.272 161.536H164.624V161.008ZM174.144 157.024C175.157 158.037 175.947 158.96 176.512 159.792L176.08 160.096C175.504 159.232 174.715 158.299 173.712 157.296L174.144 157.024ZM189.712 157.04H190.256V162.128H194.128V162.672H190.256V170.416H194.528V170.96H185.344V170.416H189.712V162.672H185.872V162.128H189.712V157.04ZM182.784 164.144C182.048 164.944 181.2 165.744 180.24 166.544L180.064 166C182.528 163.941 184.107 161.963 184.8 160.064H180.464V159.536H185.344V160.016C184.939 161.179 184.261 162.347 183.312 163.52V163.648C184.261 164.213 185.131 164.885 185.92 165.664L185.616 166.128C184.869 165.349 184.101 164.715 183.312 164.224V171.488H182.784V164.144ZM182.752 156.944C183.104 157.637 183.397 158.309 183.632 158.96L183.136 159.136C182.891 158.453 182.587 157.776 182.224 157.104L182.752 156.944ZM200.256 160.368C201.803 161.541 203.264 162.741 204.64 163.968C205.696 162.699 206.592 161.205 207.328 159.488L207.808 159.76C207.04 161.531 206.117 163.056 205.04 164.336C206.395 165.552 207.653 166.816 208.816 168.128L208.416 168.528C207.403 167.355 206.16 166.096 204.688 164.752C203.205 166.395 201.488 167.637 199.536 168.48L199.232 167.984C201.173 167.184 202.859 165.984 204.288 164.384C202.912 163.157 201.435 161.941 199.856 160.736L200.256 160.368ZM197.504 157.728H209.968V158.256H198.032V170.288H210.4V170.816H197.504V157.728ZM213.072 160.464H216.208V156.88H216.752V160.464H221.904V156.944H222.448V160.464H225.6V161.008H222.448V165.472H226.384V166H212.272V165.472H216.208V161.008H213.072V160.464ZM216.752 165.472H221.904V161.008H216.752V165.472ZM217.744 167.392C216.379 168.939 214.693 170.283 212.688 171.424L212.336 170.96C214.309 169.829 215.979 168.517 217.344 167.024L217.744 167.392ZM221.424 167.056C223.365 168.357 224.987 169.669 226.288 170.992L225.872 171.392C224.656 170.144 223.04 168.816 221.024 167.408L221.424 167.056ZM241.056 163.296H237.6V165.024H241.584V165.52H237.6V167.392H242.032V167.888H237.6V169.936H237.056V167.888H233.2V167.392H237.056V165.52H233.68V165.024H237.056V163.296H234.016V162.784H237.056V161.056H233.232V160.56H237.056V158.784H234.016V158.288H237.056V156.976H237.6V158.288H241.056V160.56H242.32V161.056H241.056V163.296ZM237.6 158.784V160.56H240.512V158.784H237.6ZM237.6 161.056V162.784H240.512V161.056H237.6ZM237.36 170.592C239.035 170.592 240.752 170.576 242.512 170.544L242.416 171.088H237.6C234.805 171.088 232.805 170.672 231.6 169.84C231.291 169.605 231.029 169.355 230.816 169.088C230.24 169.952 229.541 170.693 228.72 171.312L228.368 170.864C229.211 170.267 229.909 169.531 230.464 168.656C229.813 167.728 229.285 166.528 228.88 165.056L229.328 164.896C229.755 166.293 230.224 167.392 230.736 168.192C231.44 166.837 231.835 165.216 231.92 163.328H228.88V162.88C229.925 161.504 230.869 160.069 231.712 158.576H228.72V158.032H232.368V158.496C231.429 160.171 230.507 161.605 229.6 162.8H232.448V163.168C232.384 165.312 231.925 167.141 231.072 168.656C231.381 169.061 231.733 169.371 232.128 169.584C233.301 170.224 235.045 170.56 237.36 170.592ZM246.128 168.736C246.64 168.736 246.896 169.083 246.896 169.776C246.896 170.928 246.443 171.755 245.536 172.256L245.264 171.84C245.957 171.36 246.32 170.741 246.352 169.984L246.144 170C245.952 170 245.792 169.947 245.664 169.84C245.547 169.733 245.488 169.579 245.488 169.376C245.488 169.163 245.541 169.003 245.648 168.896C245.765 168.789 245.925 168.736 246.128 168.736ZM269.136 156.976H269.712V162.48H274.112V163.024H269.712V170.416H274.704V170.96H265.44V170.416H269.136V156.976ZM261.632 157.152C262.763 158.037 263.728 158.933 264.528 159.84L264.16 160.224C263.445 159.392 262.475 158.491 261.248 157.52L261.632 157.152ZM260.144 162.096H263.216V169.76C263.931 169.227 264.677 168.587 265.456 167.84L265.6 168.432C264.736 169.275 263.739 170.069 262.608 170.816L262.384 170.336C262.587 170.155 262.688 169.995 262.688 169.856V162.64H260.144V162.096ZM276.624 157.792H290.048V158.32H283.616V160.16H288.672V166.112H283.472C283.28 167.371 282.901 168.363 282.336 169.088C284.661 170.176 287.429 170.784 290.64 170.912L290.496 171.424C287.2 171.296 284.363 170.645 281.984 169.472C280.939 170.485 279.083 171.152 276.416 171.472L276.176 170.976C278.736 170.699 280.507 170.117 281.488 169.232C280.389 168.635 279.408 167.952 278.544 167.184L278.976 166.88C279.851 167.659 280.805 168.315 281.84 168.848C282.373 168.165 282.736 167.253 282.928 166.112H278.048V160.16H283.072V158.32H276.624V157.792ZM288.144 165.616V163.36H283.616V164.224C283.605 164.597 283.579 165.061 283.536 165.616H288.144ZM282.992 165.616C283.045 165.115 283.072 164.651 283.072 164.224V163.36H278.592V165.616H282.992ZM278.592 162.864H283.072V160.672H278.592V162.864ZM283.616 160.672V162.864H288.144V160.672H283.616ZM300.016 157.28C299.568 157.781 299.093 158.219 298.592 158.592H303.744V159.056C302.016 162.128 298.811 163.84 294.128 164.192L293.872 163.68C295.472 163.573 296.917 163.307 298.208 162.88C297.643 162.165 297.035 161.52 296.384 160.944L296.864 160.704C297.525 161.301 298.144 161.963 298.72 162.688C300.651 161.899 302.112 160.704 303.104 159.104H297.856C296.629 159.861 295.136 160.432 293.376 160.816L293.056 160.336C295.936 159.76 298.096 158.656 299.536 157.024L300.016 157.28ZM298.352 166.992C298.992 167.643 299.637 168.416 300.288 169.312C302.368 168.437 303.968 167.115 305.088 165.344H299.856C298.427 166.059 296.699 166.56 294.672 166.848L294.352 166.368C297.84 165.984 300.437 164.875 302.144 163.04L302.608 163.312C302.107 163.845 301.504 164.347 300.8 164.816H305.776V165.264C303.536 169.104 299.339 171.077 293.184 171.184L292.96 170.64C295.584 170.608 297.861 170.235 299.792 169.52C299.184 168.677 298.539 167.915 297.856 167.232L298.352 166.992ZM315.648 157.04C315.648 158.245 315.611 159.419 315.536 160.56C316.432 165.083 318.795 168.523 322.624 170.88L322.272 171.344C318.624 168.987 316.32 165.819 315.36 161.84C314.56 165.701 312.219 168.869 308.336 171.344L308 170.864C312.544 168.016 314.896 164.277 315.056 159.648L315.088 157.04H315.648ZM329.536 159.968V170.544H328.992V169.488H325.44V170.992H324.896V159.968H326.304C326.656 159.04 326.912 158.053 327.072 157.008L327.616 157.088C327.435 158.155 327.173 159.115 326.832 159.968H329.536ZM325.44 168.976H328.992V164.896H325.44V168.976ZM325.44 164.384H328.992V160.512H325.44V164.384ZM332.176 163.472C333.499 164.88 334.48 166.069 335.12 167.04L334.688 167.36C334.005 166.304 333.024 165.104 331.744 163.76L332.176 163.472ZM337.84 160C337.84 164.949 337.765 168.037 337.616 169.264C337.467 170.619 336.741 171.296 335.44 171.296L333.936 171.28L333.792 170.768L335.408 170.784C336.379 170.784 336.939 170.251 337.088 169.184C337.205 168.224 337.28 165.344 337.312 160.544H332.256C331.808 161.6 331.264 162.565 330.624 163.44L330.304 163.008C331.499 161.376 332.315 159.371 332.752 156.992L333.28 157.056C333.099 158.069 332.832 159.051 332.48 160H337.84ZM342.304 160.352H351.744V158.272H341.888V157.76H352.288V163.408H341.472V162.896H351.744V160.848H342.304V160.352ZM344.24 165.264C343.685 166.459 343.029 167.499 342.272 168.384L341.84 168.064C342.587 167.2 343.221 166.187 343.744 165.024L344.24 165.264ZM352.704 165.072C352.171 166.149 351.525 167.109 350.768 167.952L350.32 167.632C351.035 166.885 351.664 165.952 352.208 164.832L352.704 165.072ZM347.728 164.256C347.728 164.907 347.675 165.552 347.568 166.192C348.4 168.517 350.72 170.08 354.528 170.88L354.304 171.392C350.571 170.56 348.256 169.072 347.36 166.928C346.581 169.061 344.432 170.576 340.912 171.472L340.672 170.96C344.149 170.128 346.224 168.683 346.896 166.624C347.077 166.048 347.173 165.259 347.184 164.256H347.728ZM359.2 160.928H364.416V161.424H359.2V160.928ZM359.808 162.768H363.936V165.76H359.808V162.768ZM363.408 165.28V163.264H360.352V165.28H363.408ZM369.84 158.672V159.2H365.68C365.765 160.608 365.931 161.723 366.176 162.544C366.325 163.141 366.528 163.701 366.784 164.224C367.541 163.168 368.155 161.899 368.624 160.416L369.088 160.656C368.555 162.299 367.877 163.659 367.056 164.736C367.205 164.96 367.349 165.168 367.488 165.36C368.011 165.915 368.485 166.192 368.912 166.192C369.253 166.192 369.6 165.451 369.952 163.968L370.416 164.224C369.979 165.877 369.493 166.704 368.96 166.704C368.331 166.704 367.712 166.384 367.104 165.744C366.965 165.573 366.832 165.381 366.704 165.168C366.096 165.84 365.467 166.363 364.816 166.736L364.512 166.288C365.237 165.883 365.872 165.349 366.416 164.688C366.117 164.112 365.861 163.472 365.648 162.768C365.381 161.797 365.211 160.608 365.136 159.2H358.192V161.392C358.149 163.536 357.643 165.269 356.672 166.592L356.256 166.208C357.131 165.056 357.595 163.451 357.648 161.392V158.672H365.104C365.083 158.309 365.072 157.733 365.072 156.944H365.616C365.616 157.733 365.627 158.309 365.648 158.672H368.144C367.899 158.107 367.6 157.611 367.248 157.184L367.776 157.088C368.064 157.525 368.357 158.053 368.656 158.672H369.84ZM358.672 167.008C358.224 168.523 357.589 169.845 356.768 170.976L356.288 170.672C357.12 169.573 357.744 168.315 358.16 166.896L358.672 167.008ZM361.968 171.28C360.976 171.28 360.48 170.784 360.48 169.792V166.848H361.04V169.68C361.04 170.384 361.403 170.736 362.128 170.736H364.928C365.493 170.736 365.888 170.656 366.112 170.496C366.411 170.272 366.613 169.643 366.72 168.608L367.232 168.768C367.136 169.931 366.896 170.656 366.512 170.944C366.224 171.168 365.728 171.28 365.024 171.28H361.968ZM368.032 167.344C369.12 168.475 369.936 169.456 370.48 170.288L370.048 170.608C369.429 169.691 368.608 168.699 367.584 167.632L368.032 167.344ZM363.088 166.816C363.909 167.669 364.528 168.405 364.944 169.024L364.528 169.312C364.069 168.619 363.445 167.872 362.656 167.072L363.088 166.816ZM374.224 164.512C373.669 165.259 373.013 166.016 372.256 166.784L372.096 166.256C374.059 164.197 375.328 162.192 375.904 160.24H372.368V159.728H376.432V160.192C376.069 161.419 375.515 162.597 374.768 163.728V163.856C375.003 164.059 375.28 164.325 375.6 164.656C376.027 164.368 376.443 163.893 376.848 163.232L377.184 163.568C376.8 164.219 376.379 164.699 375.92 165.008C376.283 165.392 376.672 165.877 377.088 166.464L376.8 166.912C376.16 165.941 375.483 165.12 374.768 164.448V171.552H374.224V164.512ZM381.776 156.992H382.32V159.152H385.968V159.44C385.797 160.357 385.541 161.243 385.2 162.096L384.704 161.968C384.981 161.253 385.216 160.491 385.408 159.68H382.32V163.472H385.136V163.968C384.645 165.728 383.835 167.237 382.704 168.496C383.749 169.467 385.04 170.293 386.576 170.976L386.272 171.44C384.693 170.704 383.392 169.845 382.368 168.864C381.269 169.952 379.915 170.832 378.304 171.504L378 171.024C379.621 170.373 380.949 169.531 381.984 168.496C380.715 167.195 379.861 165.701 379.424 164.016H378.64V164.544C378.629 167.232 378.005 169.536 376.768 171.456L376.32 171.072C377.461 169.397 378.059 167.243 378.112 164.608V159.152H381.776V156.992ZM381.776 159.68H378.64V163.472H381.776V159.68ZM382.32 168.128C383.365 166.987 384.123 165.616 384.592 164.016H379.936C380.352 165.563 381.147 166.933 382.32 168.128ZM374.128 157.024C374.501 157.76 374.795 158.453 375.008 159.104L374.512 159.296C374.245 158.528 373.936 157.824 373.584 157.184L374.128 157.024ZM397.952 156.768H402.848V157.328H398.544V166.576H397.952V156.768ZM410.544 162.736H406.432V170.224C406.432 170.544 406.619 170.704 406.992 170.704H410.496C411.147 170.704 411.557 170.555 411.728 170.256C411.909 169.861 412.032 169.179 412.096 168.208L412.624 168.384C412.528 169.685 412.331 170.507 412.032 170.848C411.776 171.104 411.285 171.232 410.56 171.232H406.88C406.208 171.232 405.872 170.928 405.872 170.32V162.24H411.088V166.24C411.067 167.061 410.677 167.477 409.92 167.488C409.525 167.488 408.944 167.467 408.176 167.424L408.016 166.912C408.827 166.955 409.424 166.976 409.808 166.976C410.299 166.976 410.544 166.704 410.544 166.16V162.736ZM408.864 157.248C410.283 158.784 411.632 160.368 412.912 162L412.544 162.384C411.221 160.667 409.936 159.125 408.688 157.76C407.365 159.691 405.915 161.376 404.336 162.816L404.016 162.384C405.616 160.933 407.083 159.221 408.416 157.248H408.864ZM414.192 158.416H414.736V168.528H414.192V158.416ZM414.144 171.376L414.032 170.848C414.96 170.88 415.84 170.896 416.672 170.896C417.013 170.896 417.184 170.693 417.184 170.288V157.056H417.728V170.416C417.728 171.056 417.44 171.376 416.864 171.376H414.144ZM426.8 160.016C426.075 161.552 425.189 162.944 424.144 164.192L423.76 163.76C425.349 161.883 426.56 159.616 427.392 156.96L427.92 157.088C427.685 157.845 427.392 158.645 427.04 159.488H434.48V160.016H428.688V163.248H433.68V163.792H428.688V167.072H433.872V167.6H428.688V171.52H428.144V160.016H426.8ZM422.272 161.712C421.611 162.661 420.917 163.499 420.192 164.224L420.016 163.664C421.861 161.691 423.189 159.477 424 157.024L424.496 157.264C424.048 158.555 423.488 159.755 422.816 160.864V171.52H422.272V161.712ZM440.112 161.904H440.704V171.712H435.808V171.152H440.112V161.904ZM454.128 168.736C454.64 168.736 454.896 169.083 454.896 169.776C454.896 170.928 454.443 171.755 453.536 172.256L453.264 171.84C453.957 171.36 454.32 170.741 454.352 169.984L454.144 170C453.952 170 453.792 169.947 453.664 169.84C453.547 169.733 453.488 169.579 453.488 169.376C453.488 169.163 453.541 169.003 453.648 168.896C453.765 168.789 453.925 168.736 454.128 168.736ZM468.208 163.856H482.432V164.4H468.208V163.856ZM498.272 165.632C498.187 166.88 498.016 167.685 497.76 168.048C497.504 168.421 497.035 168.608 496.352 168.608H493.568C492.736 168.608 492.32 168.219 492.32 167.44V162.416H496.896V158.688H491.968V158.16H497.44V162.944H492.88V167.328C492.88 167.819 493.152 168.064 493.696 168.064H496.256C496.832 168.064 497.216 167.888 497.408 167.536C497.579 167.195 497.696 166.501 497.76 165.456L498.272 165.632ZM484.8 159.344H487.68V156.96H488.224V159.344H491.088V159.856H488.224V162.736H491.344V163.248H488.512V166.048H491.008V166.56H488.512V169.952L488.912 170.128C490 170.491 492.352 170.672 495.968 170.672C496.949 170.672 497.824 170.661 498.592 170.64L498.496 171.2H496.08C492.037 171.2 489.504 170.976 488.48 170.528C487.424 170.048 486.501 169.131 485.712 167.776C485.435 169.184 485.029 170.448 484.496 171.568L484.08 171.184C484.997 169.221 485.488 167.008 485.552 164.544L486.064 164.608C486.032 165.419 485.957 166.229 485.84 167.04C486.469 168.235 487.184 169.104 487.984 169.648V163.248H484.464V162.736H487.68V159.856H484.8V159.344ZM506.256 157.808H513.28V164.16H506.256V157.808ZM512.752 163.632V161.264H506.784V163.632H512.752ZM506.784 160.736H512.752V158.352H506.784V160.736ZM509.44 164.944H509.968V166.864H513.744V167.392H509.968V170.432H514.496V170.976H504.864V170.432H509.44V167.392H505.712V166.864H509.44V164.944ZM500.512 171.376L500.4 170.848C501.061 170.869 501.525 170.88 501.792 170.88C502.251 170.88 502.48 170.683 502.48 170.288V165.456C501.627 165.787 500.864 166.048 500.192 166.24L500.048 165.712C500.869 165.499 501.68 165.232 502.48 164.912V160.816H500.288V160.288H502.48V157.056H503.024V160.288H504.832V160.816H503.024V164.688C503.749 164.357 504.363 164.059 504.864 163.792V164.352C504.288 164.651 503.675 164.944 503.024 165.232V170.432C503.024 171.061 502.677 171.376 501.984 171.376H500.512ZM517.136 157.216C518.235 158.112 519.152 159.013 519.888 159.92L519.504 160.304C518.821 159.44 517.909 158.528 516.768 157.568L517.136 157.216ZM526.624 171.216C526.091 171.216 525.141 171.205 523.776 171.184C522.699 171.152 521.877 171.045 521.312 170.864C520.683 170.661 520.117 170.251 519.616 169.632C519.403 169.355 519.195 169.216 518.992 169.216C518.491 169.216 517.728 170 516.704 171.568L516.272 171.2C517.264 169.696 518.085 168.864 518.736 168.704V163.28H516.272V162.736H519.264V168.72C519.456 168.795 519.669 168.965 519.904 169.232C520.309 169.733 520.768 170.096 521.28 170.32C521.824 170.512 522.571 170.624 523.52 170.656C524.523 170.677 525.531 170.688 526.544 170.688L530.64 170.64L530.512 171.216H526.624ZM522.528 159.664C522.219 160.272 521.867 160.853 521.472 161.408L521.008 161.12C521.829 160.043 522.443 158.795 522.848 157.376L523.376 157.488C523.205 158.064 523.003 158.613 522.768 159.136H525.52V157.008H526.048V159.136H529.568V159.664H526.048V162.224H530.368V162.752H520.736V162.224H525.52V159.664H522.528ZM522.128 164.512H529.104V168.704H522.128V164.512ZM528.576 168.192V165.04H522.656V168.192H528.576ZM537.712 159.648H540.896V157.04H541.44V159.648H544.848V164.464H546.384V165.008H541.488C542.544 167.525 544.267 169.52 546.656 170.992L546.288 171.408C543.845 169.808 542.101 167.744 541.056 165.216C540.416 168.043 538.944 170.096 536.64 171.376L536.304 170.944C538.576 169.749 540 167.771 540.576 165.008H536.832V164.464H540.672C540.821 163.6 540.896 162.709 540.896 161.792V160.176H537.712V159.648ZM541.44 160.176V161.664C541.44 162.635 541.365 163.568 541.216 164.464H544.304V160.176H541.44ZM533.264 160.064C533.221 161.653 533.003 163.179 532.608 164.64L532.128 164.496C532.501 163.131 532.72 161.637 532.784 160.016L533.264 160.064ZM536.288 159.68C536.757 160.779 537.163 161.973 537.504 163.264L537.024 163.392C536.704 162.176 536.304 160.987 535.824 159.824L536.288 159.68ZM534.56 157.056H535.104V171.456H534.56V157.056ZM549.296 164.048C549.797 161.904 550.149 160.016 550.352 158.384C550.544 158.405 550.693 158.416 550.8 158.416C554.715 158.405 557.899 158.011 560.352 157.232L560.624 157.712C558.107 158.459 554.832 158.848 550.8 158.88C550.523 160.683 550.229 162.224 549.92 163.504H555.184V160.192H555.728V163.504H561.808V164.048H555.728V170.112C555.728 171.008 555.317 171.456 554.496 171.456H552.384L552.272 170.928C553.211 170.949 553.888 170.96 554.304 170.96C554.891 170.96 555.184 170.629 555.184 169.968V164.048H549.296ZM551.92 165.84C551.035 167.76 550.005 169.408 548.832 170.784L548.368 170.464C549.541 169.131 550.565 167.509 551.44 165.6L551.92 165.84ZM558.816 165.504C559.904 167.115 560.891 168.843 561.776 170.688L561.296 170.944C560.379 169.013 559.387 167.28 558.32 165.744L558.816 165.504ZM567.328 167.92C567.851 167.92 568.293 168.096 568.656 168.448C569.029 168.8 569.216 169.237 569.216 169.76C569.216 170.272 569.029 170.704 568.656 171.056C568.293 171.408 567.851 171.584 567.328 171.584C566.805 171.584 566.363 171.413 566 171.072C565.627 170.709 565.44 170.272 565.44 169.76C565.44 169.216 565.627 168.779 566 168.448C566.352 168.096 566.795 167.92 567.328 167.92ZM567.328 168.416C566.933 168.416 566.608 168.544 566.352 168.8C566.085 169.056 565.952 169.376 565.952 169.76C565.952 170.123 566.085 170.432 566.352 170.688C566.608 170.944 566.933 171.072 567.328 171.072C567.691 171.072 568.016 170.944 568.304 170.688C568.571 170.421 568.704 170.112 568.704 169.76C568.704 169.397 568.571 169.083 568.304 168.816C568.027 168.549 567.701 168.416 567.328 168.416Z"
    fill="white" />
</svg>