<svg width="1213" height="148" viewBox="0 0 1213 148" fill="none" xmlns="http://www.w3.org/2000/svg">
  <g opacity="0.24">
    <mask id="path-1-outside-1_294_1412" maskUnits="userSpaceOnUse" x="0.98584" y="-1" width="1212" height="149"
      fill="black">
      <rect fill="white" x="0.98584" y="-1" width="1212" height="149" />
      <path
        d="M42.4155 146.777C26.2046 146.777 14.8114 141.146 8.23584 129.883C4.06917 122.591 1.98584 113.053 1.98584 101.27C1.98584 93.0664 2.92985 84.5052 4.81787 75.5859C6.771 66.6016 9.01709 58.6589 11.5562 51.7578C14.1603 44.8568 17.4481 38.2161 21.4194 31.8359C25.3908 25.3906 29.8504 19.8893 34.7983 15.332C39.7463 10.7096 45.5731 7.03125 52.2788 4.29688C59.0496 1.5625 65.7879 0.195312 72.4937 0.195312C79.2645 0.195312 85.1239 1.04167 90.0718 2.73438C95.0197 4.42708 100.163 7.25911 105.501 11.2305L90.5601 35.3516C89.8439 34.6354 88.672 33.724 87.0444 32.6172C85.4168 31.5104 83.8218 30.599 82.2593 29.8828C78.2228 27.8646 74.2515 26.8555 70.3452 26.8555C66.5041 26.8555 63.1187 27.9948 60.189 30.2734C57.2593 32.487 54.7528 35.2214 52.6694 38.4766C50.6512 41.7318 48.7306 45.638 46.9077 50.1953C44.1082 57.2266 41.6994 65.3971 39.6812 74.707C37.728 83.9518 36.7515 91.9271 36.7515 98.6328C36.7515 112.891 41.5366 120.02 51.1069 120.02C57.2267 120.02 67.0249 116.569 80.5015 109.668L74.4468 138.477C64.7463 144.01 54.0692 146.777 42.4155 146.777ZM157.072 2.14844C172.762 2.14844 183.602 5.69661 189.591 12.793C193.498 17.4805 195.451 23.763 195.451 31.6406C195.451 35.8073 194.93 40.3971 193.888 45.4102C190.307 62.3372 181.876 74.6745 168.595 82.4219L182.658 144.922H146.623L136.173 91.0156H134.416L122.99 144.922H88.9077L119.181 2.14844H157.072ZM142.521 64.6484C147.013 64.6484 150.594 63.1185 153.263 60.0586C155.998 56.9987 158.048 52.3438 159.416 46.0938C160.001 43.2292 160.294 40.6576 160.294 38.3789C160.294 31.8685 156.876 28.6133 150.041 28.6133H147.697L139.982 64.6484H142.521ZM281.298 28.6133H244.677L238.525 57.4219H272.509L266.845 83.9844H232.861L225.634 118.164H262.255L256.591 144.922H185.791L216.064 2.14844H286.865L281.298 28.6133ZM369.49 144.922H335.115L334.626 109.961H305.818L290.486 144.922H256.208L322.126 1.5625H364.412L369.49 144.922ZM334.529 82.9102L334.041 45.3125C329.809 55.2083 324.373 67.7409 317.732 82.9102H334.529ZM476.333 29.0039H449.771L425.162 144.922H391.177L415.787 29.0039H389.224L394.888 2.14844H481.998L476.333 29.0039ZM557.689 28.6133H521.068L514.916 57.4219H548.9L543.236 83.9844H509.251L502.025 118.164H538.646L532.982 144.922H462.181L492.455 2.14844H563.255L557.689 28.6133ZM619.033 120.215C622.483 120.215 625.348 119.076 627.626 116.797C629.97 114.453 631.598 111.23 632.509 107.129C632.639 105.632 632.77 104.329 632.9 103.223C633.03 102.051 632.9 100.846 632.509 99.6094C632.119 98.3073 631.761 97.2005 631.435 96.2891C631.11 95.3125 630.556 94.3034 629.775 93.2617C628.994 92.1549 628.31 91.2109 627.724 90.4297C627.138 89.6484 626.357 88.8021 625.38 87.8906C624.404 86.9792 623.525 86.2305 622.744 85.6445C622.028 84.9935 621.181 84.2448 620.205 83.3984C612.978 77.4089 608.03 71.0938 605.361 64.4531C603.798 60.612 603.017 56.7057 603.017 52.7344C603.017 48.6979 603.44 44.7591 604.287 40.918C606.956 28.418 612.815 18.5221 621.865 11.2305C630.979 3.8737 641.494 0.195312 653.408 0.195312C665.322 0.195312 676.324 3.67839 686.416 10.6445L670.595 35.7422C665.712 32.8125 662.783 31.1198 661.806 30.6641C660.83 30.2083 659.853 29.7526 658.876 29.2969C657.9 28.8411 657.119 28.5156 656.533 28.3203C655.947 28.125 655.231 27.9297 654.384 27.7344C652.822 27.2786 651.292 27.0508 649.794 27.0508C646.995 27.0508 644.586 28.2552 642.568 30.6641C640.55 33.0078 639.085 36.2305 638.173 40.332C637.718 41.7643 637.587 43.2292 637.783 44.7266C637.978 46.224 638.141 47.526 638.271 48.6328C638.401 49.6745 638.824 50.8138 639.541 52.0508C640.257 53.2227 640.908 54.2318 641.494 55.0781C642.08 55.8594 642.893 56.7708 643.935 57.8125C645.758 59.5703 647.646 61.1979 649.599 62.6953C657.021 68.5547 662.229 74.7396 665.224 81.25C667.112 85.1562 668.056 89.1276 668.056 93.1641C668.056 97.2005 667.666 101.009 666.884 104.59C664.02 118.197 658.16 128.646 649.306 135.938C640.452 143.164 629.319 146.777 615.908 146.777C602.561 146.777 591.429 143.945 582.509 138.281L589.345 106.25C601.52 115.56 611.416 120.215 619.033 120.215ZM771.873 29.0039H745.31L720.701 144.922H686.716L711.326 29.0039H684.763L690.427 2.14844H777.537L771.873 29.0039ZM815.044 4.00391C821.88 1.33464 829.302 0 837.31 0C845.318 0 852.154 1.33464 857.818 4.00391C863.482 6.60807 867.844 10.1562 870.904 14.6484C876.112 22.3307 878.716 32.6497 878.716 45.6055C878.716 53.4831 877.74 62.1094 875.787 71.4844C873.833 80.7943 871.555 88.9323 868.951 95.8984C866.412 102.799 863.156 109.44 859.185 115.82C855.214 122.201 850.754 127.637 845.806 132.129C840.858 136.556 834.966 140.104 828.13 142.773C821.294 145.443 813.873 146.777 805.865 146.777C797.857 146.777 790.988 145.443 785.259 142.773C779.53 140.104 775.136 136.523 772.076 132.031C766.867 124.414 764.263 113.965 764.263 100.684C764.263 92.6758 765.24 84.082 767.193 74.9023C769.146 65.6576 771.392 57.5846 773.931 50.6836C776.535 43.7174 779.823 37.0768 783.794 30.7617C787.766 24.3815 792.258 18.9779 797.271 14.5508C802.284 10.1237 808.208 6.60807 815.044 4.00391ZM798.931 98.8281C798.931 112.826 803.163 119.824 811.626 119.824C824.387 119.824 834.055 104.329 840.63 73.3398C842.909 62.7279 844.048 53.9388 844.048 46.9727C844.048 33.5612 839.882 26.8555 831.548 26.8555C825.103 26.8555 819.406 30.7943 814.458 38.6719C809.511 46.5495 805.409 58.1055 802.154 73.3398C800.005 83.431 798.931 91.9271 798.931 98.8281ZM944.447 2.14844C960.137 2.14844 970.977 5.69661 976.966 12.793C980.873 17.4805 982.826 23.763 982.826 31.6406C982.826 35.8073 982.305 40.3971 981.263 45.4102C977.682 62.3372 969.251 74.6745 955.97 82.4219L970.033 144.922H933.998L923.548 91.0156H921.791L910.365 144.922H876.283L906.556 2.14844H944.447ZM929.896 64.6484C934.388 64.6484 937.969 63.1185 940.638 60.0586C943.373 56.9987 945.423 52.3438 946.791 46.0938C947.376 43.2292 947.669 40.6576 947.669 38.3789C947.669 31.8685 944.251 28.6133 937.416 28.6133H935.072L927.357 64.6484H929.896ZM1005.78 144.922H973.166L1003.44 2.14844H1036.06L1005.78 144.922ZM1122.2 28.6133H1085.58L1079.42 57.4219H1113.41L1107.74 83.9844H1073.76L1066.53 118.164H1103.15L1097.49 144.922H1026.69L1056.96 2.14844H1127.76L1122.2 28.6133ZM1143.88 120.215C1147.33 120.215 1150.2 119.076 1152.48 116.797C1154.82 114.453 1156.45 111.23 1157.36 107.129C1157.49 105.632 1157.62 104.329 1157.75 103.223C1157.88 102.051 1157.75 100.846 1157.36 99.6094C1156.97 98.3073 1156.61 97.2005 1156.29 96.2891C1155.96 95.3125 1155.41 94.3034 1154.63 93.2617C1153.85 92.1549 1153.16 91.2109 1152.58 90.4297C1151.99 89.6484 1151.21 88.8021 1150.23 87.8906C1149.26 86.9792 1148.38 86.2305 1147.6 85.6445C1146.88 84.9935 1146.03 84.2448 1145.06 83.3984C1137.83 77.4089 1132.88 71.0938 1130.21 64.4531C1128.65 60.612 1127.87 56.7057 1127.87 52.7344C1127.87 48.6979 1128.29 44.7591 1129.14 40.918C1131.81 28.418 1137.67 18.5221 1146.72 11.2305C1155.83 3.8737 1166.35 0.195312 1178.26 0.195312C1190.17 0.195312 1201.18 3.67839 1211.27 10.6445L1195.45 35.7422C1190.56 32.8125 1187.63 31.1198 1186.66 30.6641C1185.68 30.2083 1184.7 29.7526 1183.73 29.2969C1182.75 28.8411 1181.97 28.5156 1181.38 28.3203C1180.8 28.125 1180.08 27.9297 1179.24 27.7344C1177.67 27.2786 1176.14 27.0508 1174.65 27.0508C1171.85 27.0508 1169.44 28.2552 1167.42 30.6641C1165.4 33.0078 1163.94 36.2305 1163.02 40.332C1162.57 41.7643 1162.44 43.2292 1162.63 44.7266C1162.83 46.224 1162.99 47.526 1163.12 48.6328C1163.25 49.6745 1163.68 50.8138 1164.39 52.0508C1165.11 53.2227 1165.76 54.2318 1166.35 55.0781C1166.93 55.8594 1167.74 56.7708 1168.79 57.8125C1170.61 59.5703 1172.5 61.1979 1174.45 62.6953C1181.87 68.5547 1187.08 74.7396 1190.08 81.25C1191.96 85.1562 1192.91 89.1276 1192.91 93.1641C1192.91 97.2005 1192.52 101.009 1191.74 104.59C1188.87 118.197 1183.01 128.646 1174.16 135.938C1165.3 143.164 1154.17 146.777 1140.76 146.777C1127.41 146.777 1116.28 143.945 1107.36 138.281L1114.2 106.25C1126.37 115.56 1136.27 120.215 1143.88 120.215Z" />
    </mask>
    <path
      d="M42.4155 146.777C26.2046 146.777 14.8114 141.146 8.23584 129.883C4.06917 122.591 1.98584 113.053 1.98584 101.27C1.98584 93.0664 2.92985 84.5052 4.81787 75.5859C6.771 66.6016 9.01709 58.6589 11.5562 51.7578C14.1603 44.8568 17.4481 38.2161 21.4194 31.8359C25.3908 25.3906 29.8504 19.8893 34.7983 15.332C39.7463 10.7096 45.5731 7.03125 52.2788 4.29688C59.0496 1.5625 65.7879 0.195312 72.4937 0.195312C79.2645 0.195312 85.1239 1.04167 90.0718 2.73438C95.0197 4.42708 100.163 7.25911 105.501 11.2305L90.5601 35.3516C89.8439 34.6354 88.672 33.724 87.0444 32.6172C85.4168 31.5104 83.8218 30.599 82.2593 29.8828C78.2228 27.8646 74.2515 26.8555 70.3452 26.8555C66.5041 26.8555 63.1187 27.9948 60.189 30.2734C57.2593 32.487 54.7528 35.2214 52.6694 38.4766C50.6512 41.7318 48.7306 45.638 46.9077 50.1953C44.1082 57.2266 41.6994 65.3971 39.6812 74.707C37.728 83.9518 36.7515 91.9271 36.7515 98.6328C36.7515 112.891 41.5366 120.02 51.1069 120.02C57.2267 120.02 67.0249 116.569 80.5015 109.668L74.4468 138.477C64.7463 144.01 54.0692 146.777 42.4155 146.777ZM157.072 2.14844C172.762 2.14844 183.602 5.69661 189.591 12.793C193.498 17.4805 195.451 23.763 195.451 31.6406C195.451 35.8073 194.93 40.3971 193.888 45.4102C190.307 62.3372 181.876 74.6745 168.595 82.4219L182.658 144.922H146.623L136.173 91.0156H134.416L122.99 144.922H88.9077L119.181 2.14844H157.072ZM142.521 64.6484C147.013 64.6484 150.594 63.1185 153.263 60.0586C155.998 56.9987 158.048 52.3438 159.416 46.0938C160.001 43.2292 160.294 40.6576 160.294 38.3789C160.294 31.8685 156.876 28.6133 150.041 28.6133H147.697L139.982 64.6484H142.521ZM281.298 28.6133H244.677L238.525 57.4219H272.509L266.845 83.9844H232.861L225.634 118.164H262.255L256.591 144.922H185.791L216.064 2.14844H286.865L281.298 28.6133ZM369.49 144.922H335.115L334.626 109.961H305.818L290.486 144.922H256.208L322.126 1.5625H364.412L369.49 144.922ZM334.529 82.9102L334.041 45.3125C329.809 55.2083 324.373 67.7409 317.732 82.9102H334.529ZM476.333 29.0039H449.771L425.162 144.922H391.177L415.787 29.0039H389.224L394.888 2.14844H481.998L476.333 29.0039ZM557.689 28.6133H521.068L514.916 57.4219H548.9L543.236 83.9844H509.251L502.025 118.164H538.646L532.982 144.922H462.181L492.455 2.14844H563.255L557.689 28.6133ZM619.033 120.215C622.483 120.215 625.348 119.076 627.626 116.797C629.97 114.453 631.598 111.23 632.509 107.129C632.639 105.632 632.77 104.329 632.9 103.223C633.03 102.051 632.9 100.846 632.509 99.6094C632.119 98.3073 631.761 97.2005 631.435 96.2891C631.11 95.3125 630.556 94.3034 629.775 93.2617C628.994 92.1549 628.31 91.2109 627.724 90.4297C627.138 89.6484 626.357 88.8021 625.38 87.8906C624.404 86.9792 623.525 86.2305 622.744 85.6445C622.028 84.9935 621.181 84.2448 620.205 83.3984C612.978 77.4089 608.03 71.0938 605.361 64.4531C603.798 60.612 603.017 56.7057 603.017 52.7344C603.017 48.6979 603.44 44.7591 604.287 40.918C606.956 28.418 612.815 18.5221 621.865 11.2305C630.979 3.8737 641.494 0.195312 653.408 0.195312C665.322 0.195312 676.324 3.67839 686.416 10.6445L670.595 35.7422C665.712 32.8125 662.783 31.1198 661.806 30.6641C660.83 30.2083 659.853 29.7526 658.876 29.2969C657.9 28.8411 657.119 28.5156 656.533 28.3203C655.947 28.125 655.231 27.9297 654.384 27.7344C652.822 27.2786 651.292 27.0508 649.794 27.0508C646.995 27.0508 644.586 28.2552 642.568 30.6641C640.55 33.0078 639.085 36.2305 638.173 40.332C637.718 41.7643 637.587 43.2292 637.783 44.7266C637.978 46.224 638.141 47.526 638.271 48.6328C638.401 49.6745 638.824 50.8138 639.541 52.0508C640.257 53.2227 640.908 54.2318 641.494 55.0781C642.08 55.8594 642.893 56.7708 643.935 57.8125C645.758 59.5703 647.646 61.1979 649.599 62.6953C657.021 68.5547 662.229 74.7396 665.224 81.25C667.112 85.1562 668.056 89.1276 668.056 93.1641C668.056 97.2005 667.666 101.009 666.884 104.59C664.02 118.197 658.16 128.646 649.306 135.938C640.452 143.164 629.319 146.777 615.908 146.777C602.561 146.777 591.429 143.945 582.509 138.281L589.345 106.25C601.52 115.56 611.416 120.215 619.033 120.215ZM771.873 29.0039H745.31L720.701 144.922H686.716L711.326 29.0039H684.763L690.427 2.14844H777.537L771.873 29.0039ZM815.044 4.00391C821.88 1.33464 829.302 0 837.31 0C845.318 0 852.154 1.33464 857.818 4.00391C863.482 6.60807 867.844 10.1562 870.904 14.6484C876.112 22.3307 878.716 32.6497 878.716 45.6055C878.716 53.4831 877.74 62.1094 875.787 71.4844C873.833 80.7943 871.555 88.9323 868.951 95.8984C866.412 102.799 863.156 109.44 859.185 115.82C855.214 122.201 850.754 127.637 845.806 132.129C840.858 136.556 834.966 140.104 828.13 142.773C821.294 145.443 813.873 146.777 805.865 146.777C797.857 146.777 790.988 145.443 785.259 142.773C779.53 140.104 775.136 136.523 772.076 132.031C766.867 124.414 764.263 113.965 764.263 100.684C764.263 92.6758 765.24 84.082 767.193 74.9023C769.146 65.6576 771.392 57.5846 773.931 50.6836C776.535 43.7174 779.823 37.0768 783.794 30.7617C787.766 24.3815 792.258 18.9779 797.271 14.5508C802.284 10.1237 808.208 6.60807 815.044 4.00391ZM798.931 98.8281C798.931 112.826 803.163 119.824 811.626 119.824C824.387 119.824 834.055 104.329 840.63 73.3398C842.909 62.7279 844.048 53.9388 844.048 46.9727C844.048 33.5612 839.882 26.8555 831.548 26.8555C825.103 26.8555 819.406 30.7943 814.458 38.6719C809.511 46.5495 805.409 58.1055 802.154 73.3398C800.005 83.431 798.931 91.9271 798.931 98.8281ZM944.447 2.14844C960.137 2.14844 970.977 5.69661 976.966 12.793C980.873 17.4805 982.826 23.763 982.826 31.6406C982.826 35.8073 982.305 40.3971 981.263 45.4102C977.682 62.3372 969.251 74.6745 955.97 82.4219L970.033 144.922H933.998L923.548 91.0156H921.791L910.365 144.922H876.283L906.556 2.14844H944.447ZM929.896 64.6484C934.388 64.6484 937.969 63.1185 940.638 60.0586C943.373 56.9987 945.423 52.3438 946.791 46.0938C947.376 43.2292 947.669 40.6576 947.669 38.3789C947.669 31.8685 944.251 28.6133 937.416 28.6133H935.072L927.357 64.6484H929.896ZM1005.78 144.922H973.166L1003.44 2.14844H1036.06L1005.78 144.922ZM1122.2 28.6133H1085.58L1079.42 57.4219H1113.41L1107.74 83.9844H1073.76L1066.53 118.164H1103.15L1097.49 144.922H1026.69L1056.96 2.14844H1127.76L1122.2 28.6133ZM1143.88 120.215C1147.33 120.215 1150.2 119.076 1152.48 116.797C1154.82 114.453 1156.45 111.23 1157.36 107.129C1157.49 105.632 1157.62 104.329 1157.75 103.223C1157.88 102.051 1157.75 100.846 1157.36 99.6094C1156.97 98.3073 1156.61 97.2005 1156.29 96.2891C1155.96 95.3125 1155.41 94.3034 1154.63 93.2617C1153.85 92.1549 1153.16 91.2109 1152.58 90.4297C1151.99 89.6484 1151.21 88.8021 1150.23 87.8906C1149.26 86.9792 1148.38 86.2305 1147.6 85.6445C1146.88 84.9935 1146.03 84.2448 1145.06 83.3984C1137.83 77.4089 1132.88 71.0938 1130.21 64.4531C1128.65 60.612 1127.87 56.7057 1127.87 52.7344C1127.87 48.6979 1128.29 44.7591 1129.14 40.918C1131.81 28.418 1137.67 18.5221 1146.72 11.2305C1155.83 3.8737 1166.35 0.195312 1178.26 0.195312C1190.17 0.195312 1201.18 3.67839 1211.27 10.6445L1195.45 35.7422C1190.56 32.8125 1187.63 31.1198 1186.66 30.6641C1185.68 30.2083 1184.7 29.7526 1183.73 29.2969C1182.75 28.8411 1181.97 28.5156 1181.38 28.3203C1180.8 28.125 1180.08 27.9297 1179.24 27.7344C1177.67 27.2786 1176.14 27.0508 1174.65 27.0508C1171.85 27.0508 1169.44 28.2552 1167.42 30.6641C1165.4 33.0078 1163.94 36.2305 1163.02 40.332C1162.57 41.7643 1162.44 43.2292 1162.63 44.7266C1162.83 46.224 1162.99 47.526 1163.12 48.6328C1163.25 49.6745 1163.68 50.8138 1164.39 52.0508C1165.11 53.2227 1165.76 54.2318 1166.35 55.0781C1166.93 55.8594 1167.74 56.7708 1168.79 57.8125C1170.61 59.5703 1172.5 61.1979 1174.45 62.6953C1181.87 68.5547 1187.08 74.7396 1190.08 81.25C1191.96 85.1562 1192.91 89.1276 1192.91 93.1641C1192.91 97.2005 1192.52 101.009 1191.74 104.59C1188.87 118.197 1183.01 128.646 1174.16 135.938C1165.3 143.164 1154.17 146.777 1140.76 146.777C1127.41 146.777 1116.28 143.945 1107.36 138.281L1114.2 106.25C1126.37 115.56 1136.27 120.215 1143.88 120.215Z"
      stroke="url(#paint0_linear_294_1412)" stroke-width="2" mask="url(#path-1-outside-1_294_1412)" />
  </g>
  <defs>
    <linearGradient id="paint0_linear_294_1412" x1="123.544" y1="-18.1437" x2="1095.28" y2="275.92"
      gradientUnits="userSpaceOnUse">
      <stop stop-color="#AED0E3" stop-opacity="0.8" />
      <stop offset="0.441652" stop-color="#D4EEFD" />
      <stop offset="1" stop-color="#AED0E3" stop-opacity="0.32" />
    </linearGradient>
  </defs>
</svg>