<svg width="352" height="64" viewBox="0 0 352 64" fill="none" xmlns="http://www.w3.org/2000/svg">
  <path
    d="M0.5 32C0.5 14.3269 14.8269 0 32.5 0H319.5C337.173 0 351.5 14.3269 351.5 32C351.5 49.6731 337.173 64 319.5 64H32.5C14.8269 64 0.5 49.6731 0.5 32Z"
    fill="#FFA2F8" />
  <path
    d="M29.1 23.06L32.62 22.76L32.18 21.16C31.8733 20.12 31.5733 19.04 31.28 17.92L30.9 16.44H30.8C30.4133 18.1333 29.9933 19.7867 29.54 21.4L29.1 23.06ZM24.42 29.56L29.16 14.34L32.64 14.02L37.4 28.44L34.3 28.7L33.26 25L28.46 25.42L27.42 29.3L24.42 29.56ZM41.7739 29.42C40.7739 29.42 40.0139 29.0733 39.4939 28.38C38.9739 27.6733 38.7139 26.62 38.7139 25.22V18.22L41.6539 17.98V24.6C41.6539 25.4533 41.7806 26.0467 42.0339 26.38C42.2472 26.6733 42.5672 26.82 42.9939 26.82L43.2139 26.8C44.0539 26.76 44.8139 26.2267 45.4939 25.2V17.64L48.4339 17.38V28.58L46.0339 28.78L45.8139 27.2L45.7339 27.22C45.2672 27.8333 44.7472 28.3333 44.1739 28.72C43.4806 29.1867 42.6806 29.42 41.7739 29.42ZM55.2283 29.18C54.1349 29.18 53.3216 28.84 52.7883 28.16C52.2549 27.48 51.9883 26.52 51.9883 25.28V20.32L50.4083 20.46V18.28L52.1483 17.98L52.4883 14.92L54.9283 14.72V17.74L57.6883 17.5V19.82L54.9283 20.06V25.02C54.9283 26.1933 55.3549 26.78 56.2083 26.78C56.6216 26.78 57.0683 26.66 57.5483 26.42L58.0283 28.52C57.4283 28.8133 56.6416 29.0267 55.6683 29.16L55.2283 29.18ZM63.7956 29.3C63.0356 29.3 62.2823 29.12 61.5356 28.76C60.789 28.4 60.1623 27.8067 59.6556 26.98C59.149 26.1533 58.8956 25.12 58.8956 23.88C58.8956 22.64 59.149 21.56 59.6556 20.64C60.1623 19.7067 60.8223 18.9733 61.6356 18.44C62.5956 17.8133 63.6356 17.5 64.7556 17.5C65.5156 17.5 66.269 17.68 67.0156 18.04C67.7623 18.4 68.389 18.9933 68.8956 19.82C69.4023 20.6467 69.6556 21.68 69.6556 22.92C69.6556 24.16 69.4023 25.2467 68.8956 26.18C68.389 27.1 67.729 27.8267 66.9156 28.36C65.9556 28.9867 64.9156 29.3 63.7956 29.3ZM64.2756 26.88C65.0356 26.8 65.6223 26.4333 66.0356 25.78C66.449 25.1133 66.6556 24.2533 66.6556 23.2C66.6556 22.1467 66.449 21.32 66.0356 20.72C65.6623 20.1867 65.1356 19.92 64.4556 19.92H64.2756C63.5156 20 62.929 20.3733 62.5156 21.04C62.1023 21.7067 61.8956 22.56 61.8956 23.6C61.8956 24.6667 62.1023 25.4933 62.5156 26.08C62.889 26.6133 63.4156 26.88 64.0956 26.88H64.2756ZM72.3552 29.46V14.64C75.5018 14.3733 77.2218 14.24 77.5152 14.24C78.5685 14.24 79.5685 14.4333 80.5152 14.82C81.4752 15.2067 82.2485 15.92 82.8352 16.96C83.4352 17.9867 83.7352 19.3333 83.7352 21C83.7352 23.4933 83.0885 25.42 81.7952 26.78C80.5152 28.1267 78.7752 28.9 76.5752 29.1L72.3552 29.46ZM75.3152 26.82L76.2352 26.74C79.2218 26.5133 80.7152 24.6933 80.7152 21.28C80.7152 19.4667 80.3152 18.2133 79.5152 17.52C78.8618 16.9333 77.9885 16.64 76.8952 16.64C76.7085 16.64 76.1818 16.68 75.3152 16.76V26.82ZM85.8708 29.34V14.52L88.8308 14.26V26.6L94.8508 26.08V28.56L85.8708 29.34ZM108.433 16.54L110.333 16.36C110.56 15.7733 110.747 15.2067 110.893 14.66L107.853 14.92C108.12 15.4667 108.313 16.0067 108.433 16.54ZM103.933 18.86V16.92L106.333 16.72C106.213 16.2667 106.067 15.8267 105.893 15.4L107.413 14.96L104.493 15.22V13.34L108.253 13L107.913 12.16L110.033 11.52C110.247 11.9067 110.44 12.3333 110.613 12.8L114.273 12.48V14.36L111.373 14.62L113.073 14.76L112.653 15.68L112.413 16.18L114.713 15.98V17.92L103.933 18.86ZM99.0533 31.26C98.9333 30.9533 98.7533 30.6 98.5133 30.2C98.2733 29.8133 98.0533 29.5 97.8533 29.26C98.1066 29.0733 98.3666 28.7933 98.6333 28.42C98.9133 28.0333 99.0533 27.62 99.0533 27.18V24.5L96.6733 24.7V22.58L99.0533 22.38V20.42L97.6733 20.54V19.12C97.4999 19.3333 97.3266 19.5267 97.1533 19.7C97.0599 19.42 96.8999 19.0533 96.6733 18.6C96.4599 18.1467 96.2599 17.78 96.0733 17.5C97.2999 16.2067 98.2333 14.6067 98.8733 12.7L100.933 13.16C100.8 13.5733 100.64 14 100.453 14.44L103.493 14.16V16.3L99.3533 16.66C99.0066 17.2733 98.6399 17.84 98.2533 18.36L103.273 17.92V20.04L101.293 20.22V22.18L103.733 21.96V24.08L101.293 24.3V27.02L103.433 25.64C103.527 26.4133 103.693 27.0867 103.933 27.66C102.68 28.5267 101.72 29.1933 101.053 29.66C100.4 30.1267 99.9266 30.4733 99.6333 30.7C99.3533 30.9267 99.1599 31.1133 99.0533 31.26ZM106.833 23.92L111.793 23.48V22.6L106.833 23.04V23.92ZM106.833 21.68L111.793 21.24V20.36L106.833 20.8V21.68ZM104.093 30.92C103.973 30.64 103.793 30.3333 103.553 30C103.327 29.68 103.093 29.42 102.853 29.22C104.173 28.7933 105.073 28.28 105.553 27.68C106.033 27.08 106.307 26.3267 106.373 25.42L104.753 25.56V19.52L113.993 18.7V24.74L111.993 24.92V27.64C111.993 27.88 112.013 28.0333 112.053 28.1C112.093 28.1533 112.153 28.18 112.233 28.18L112.913 28.12C113.007 28.12 113.08 28.0733 113.133 27.98C113.187 27.8867 113.227 27.7133 113.253 27.46C113.28 27.1933 113.3 26.8133 113.313 26.32C113.767 26.6 114.373 26.7933 115.133 26.9C115.053 27.94 114.86 28.6667 114.553 29.08C114.26 29.5067 113.8 29.74 113.173 29.78C112.133 29.8733 111.54 29.92 111.393 29.92C110.833 29.92 110.427 29.7867 110.173 29.52C109.92 29.2533 109.793 28.7 109.793 27.86V25.12L108.613 25.22C108.52 26.5533 108.153 27.68 107.513 28.6C106.887 29.52 105.747 30.2933 104.093 30.92ZM124.853 19.28L126.893 19.1C127.173 18.6333 127.353 18.2067 127.433 17.82L124.853 18.04V19.28ZM124.653 16.36L127.673 16.1C127.953 15.7533 128.227 15.3733 128.493 14.96L125.533 15.22C125.253 15.6067 124.96 15.9867 124.653 16.36ZM129.053 18.92L131.593 18.7V17.46L129.353 17.66C129.3 18.0467 129.2 18.4667 129.053 18.92ZM118.413 31.32V21.32C118.04 21.8667 117.66 22.36 117.273 22.8C117.153 22.4933 116.96 22.1067 116.693 21.64C116.44 21.16 116.207 20.7667 115.993 20.46C117.82 18.3133 119.26 15.6933 120.313 12.6L122.553 13.1C122.06 14.5533 121.453 15.9933 120.733 17.42C121.76 16.6067 122.633 15.7333 123.353 14.8C124.073 13.8667 124.64 12.9733 125.053 12.12L127.293 12.36C127.24 12.44 127.193 12.5267 127.153 12.62L126.733 13.38L129.793 13.12L130.233 12.96L131.573 13.84C131.147 14.52 130.673 15.2 130.153 15.88L133.773 15.56V20.2L128.033 20.7C127.94 20.8333 127.833 20.9667 127.713 21.1C128.433 21.66 128.987 22.32 129.373 23.08C130.627 22.2933 131.733 21.52 132.693 20.76L134.253 22.08C133.64 22.4933 133.02 22.8867 132.393 23.26H132.373C132.933 24.98 133.873 26.22 135.193 26.98C134.953 27.22 134.693 27.52 134.413 27.88C134.133 28.24 133.9 28.58 133.713 28.9C132.273 27.8733 131.253 26.3067 130.653 24.2C130.587 24.24 130.513 24.2733 130.433 24.3C130.273 24.3933 130.12 24.4733 129.973 24.54C130.16 25.2467 130.253 25.9267 130.253 26.58C130.253 26.8733 130.213 27.32 130.133 27.92C130.067 28.5067 129.833 29.04 129.433 29.52C128.913 30.1867 128.26 30.54 127.473 30.58C127.1 30.6333 126.7 30.66 126.273 30.66C126.233 29.9133 126.053 29.2533 125.733 28.68H126.213C126.52 28.68 126.767 28.6733 126.953 28.66C127.153 28.6467 127.32 28.6067 127.453 28.54C127.587 28.4733 127.7 28.3467 127.793 28.16C128.033 27.84 128.153 27.32 128.153 26.6C126.407 28.0933 124.553 29.28 122.593 30.16C122.14 29.5333 121.687 29.02 121.233 28.62C122.447 28.18 123.653 27.6067 124.853 26.9C126.053 26.18 127.047 25.4333 127.833 24.66C127.753 24.4333 127.667 24.2133 127.573 24C126.067 25.2933 124.46 26.34 122.753 27.14C122.607 26.9133 122.413 26.6733 122.173 26.42C121.947 26.1533 121.727 25.94 121.513 25.78C122.447 25.4333 123.393 24.9933 124.353 24.46C125.327 23.9133 126.133 23.36 126.773 22.8C126.64 22.6267 126.5 22.48 126.353 22.36C125.42 23.0933 124.153 23.7667 122.553 24.38C122.167 23.9267 121.747 23.5 121.293 23.1C123.027 22.42 124.347 21.7067 125.253 20.96L122.773 21.16V18.34L122.213 18.86C122.04 18.6067 121.807 18.3467 121.513 18.08C121.233 17.8 120.967 17.5867 120.713 17.44C120.7 17.4933 120.693 22.06 120.693 31.14L118.413 31.32ZM138.753 31.32V23.62C138.26 25.3267 137.693 26.7467 137.053 27.88C136.827 27.16 136.473 26.3933 135.993 25.58C136.567 24.7133 137.08 23.6467 137.533 22.38C137.987 21.1133 138.34 19.8533 138.593 18.6L136.413 18.78V16.58L138.753 16.38V12.66L140.733 12.48V16.2L142.633 16.04V18.24L140.733 18.4V19C140.907 19.24 141.14 19.6 141.433 20.08C141.727 20.5467 142.013 21.0133 142.293 21.48C142.573 21.9333 142.767 22.26 142.873 22.46L141.593 24.18C141.447 23.7667 141.16 23.0533 140.733 22.04V31.14L138.753 31.32ZM143.633 30.98C143.5 30.7 143.307 30.4 143.053 30.08C142.8 29.7733 142.547 29.52 142.293 29.32C143.68 28.64 144.627 27.8333 145.133 26.9C145.653 25.9533 145.953 24.84 146.033 23.56L143.353 23.8V21.86L147.853 21.46C147.76 20.9533 147.64 20.4667 147.493 20L149.733 19.44C149.973 20.0667 150.147 20.6733 150.253 21.26L154.313 20.9V22.84L148.293 23.36C148.253 23.84 148.193 24.2933 148.113 24.72L153.693 24.24L153.633 25.06C153.487 27.4867 153.187 28.92 152.733 29.36C152.36 29.8 151.887 30.0533 151.313 30.12C150.767 30.2267 150 30.3067 149.013 30.36C148.987 30.04 148.92 29.7067 148.813 29.36C148.72 29.0133 148.593 28.7067 148.433 28.44C148.807 28.44 149.153 28.4333 149.473 28.42C149.793 28.3933 150.033 28.3733 150.193 28.36C150.353 28.3467 150.473 28.3333 150.553 28.32C150.647 28.2933 150.733 28.2333 150.813 28.14C150.987 27.9667 151.133 27.3733 151.253 26.36L147.633 26.68C147.113 28.4267 145.78 29.86 143.633 30.98ZM147.713 17.44L150.033 17.24C150.26 16.56 150.44 15.9 150.573 15.26L147.113 15.56C147.38 16.2 147.58 16.8267 147.713 17.44ZM143.013 21.34V17.84L145.453 17.64C145.333 17.08 145.18 16.5467 144.993 16.04L146.613 15.62L143.353 15.9V14L147.793 13.6C147.713 13.08 147.6 12.5733 147.453 12.08L149.653 11.6C149.853 12.1867 150.007 12.7867 150.113 13.4L154.313 13.04V14.94L151.373 15.2L152.933 15.3L152.233 17.04L154.693 16.82V20.28L152.453 20.48V18.86L145.173 19.5V21.16L143.013 21.34ZM157.433 29.5V14.68L160.453 14.42L164.753 21.94L166.233 25H166.333L166.233 23.96C166.047 22.5333 165.953 21.1667 165.953 19.86V13.94L168.753 13.68V28.5L165.753 28.76L161.473 21.22L159.973 18.18H159.873L159.973 19.22C160.147 20.6067 160.233 21.9733 160.233 23.32V29.26L157.433 29.5ZM175.632 29.3C174.872 29.3 174.118 29.12 173.372 28.76C172.625 28.4 171.998 27.8067 171.492 26.98C170.985 26.1533 170.732 25.12 170.732 23.88C170.732 22.64 170.985 21.56 171.492 20.64C171.998 19.7067 172.658 18.9733 173.472 18.44C174.432 17.8133 175.472 17.5 176.592 17.5C177.352 17.5 178.105 17.68 178.852 18.04C179.598 18.4 180.225 18.9933 180.732 19.82C181.238 20.6467 181.492 21.68 181.492 22.92C181.492 24.16 181.238 25.2467 180.732 26.18C180.225 27.1 179.565 27.8267 178.752 28.36C177.792 28.9867 176.752 29.3 175.632 29.3ZM176.112 26.88C176.872 26.8 177.458 26.4333 177.872 25.78C178.285 25.1133 178.492 24.2533 178.492 23.2C178.492 22.1467 178.285 21.32 177.872 20.72C177.498 20.1867 176.972 19.92 176.292 19.92H176.112C175.352 20 174.765 20.3733 174.352 21.04C173.938 21.7067 173.732 22.56 173.732 23.6C173.732 24.6667 173.938 25.4933 174.352 26.08C174.725 26.6133 175.252 26.88 175.932 26.88H176.112ZM185.377 29.28H185.217C184.75 29.28 184.357 29.1267 184.037 28.82C183.717 28.5 183.557 28.0667 183.557 27.52C183.557 26.9733 183.73 26.5 184.077 26.1C184.463 25.66 184.957 25.44 185.557 25.44C186.023 25.44 186.417 25.6 186.737 25.92C187.057 26.2267 187.217 26.6533 187.217 27.2C187.217 27.7333 187.043 28.2 186.697 28.6C186.363 29 185.923 29.2267 185.377 29.28ZM191.921 23.38L195.381 23.08V20.2C195.381 19.5333 195.414 18.5067 195.481 17.12H195.401C195.174 17.6267 194.781 18.4333 194.221 19.54L191.921 23.38ZM195.381 28.92V25.34L189.061 25.9V23.88L194.581 14.58L198.121 14.26V22.84L199.861 22.7V24.96L198.121 25.1V28.68L195.381 28.92Z"
    fill="#3E00C0" />
  <path
    d="M26.828 39.436C27.524 40.132 28.052 40.756 28.436 41.308L27.548 41.92C27.14 41.356 26.612 40.732 25.964 40.06L26.828 39.436ZM31.136 44.476C31.964 45.388 32.6 46.192 33.056 46.876L32.048 47.572C31.592 46.816 30.992 45.976 30.224 45.052L31.136 44.476ZM29.3 39.16H30.416V40.852C30.404 41.26 30.38 41.656 30.356 42.04H35.264C35.264 45.544 35.108 47.764 34.808 48.724C34.484 49.684 33.92 50.164 33.104 50.164C32.48 50.164 31.964 50.14 31.544 50.104L31.244 49C31.892 49.06 32.492 49.096 33.032 49.096C33.584 49.048 33.896 48.412 33.98 47.188C34.052 45.952 34.1 44.608 34.1 43.156H30.248C30.056 44.656 29.708 45.916 29.216 46.936C28.508 48.34 27.344 49.42 25.712 50.188L25.076 49.18C26.684 48.364 27.776 47.332 28.352 46.072C28.7 45.244 28.952 44.272 29.12 43.156H25.484V42.04H29.24C29.264 41.656 29.288 41.26 29.3 40.852V39.16ZM43.916 39.244H45.068V42.676H47.72V43.792H45.068V48.712H47.996V49.828H40.916V48.712H43.916V43.792H41.336V42.676H43.916V39.244ZM38.732 45.52C38.3 45.952 37.832 46.372 37.328 46.78L36.968 45.58C38.54 44.296 39.608 43.048 40.16 41.824H37.256V40.732H38.948C38.768 40.276 38.576 39.844 38.372 39.412L39.452 39.112C39.692 39.7 39.896 40.24 40.04 40.732H41.312V41.692C41.012 42.532 40.544 43.372 39.896 44.212C40.568 44.596 41.204 45.028 41.78 45.532L41.132 46.516C40.7 46.072 40.268 45.7 39.848 45.388V50.212H38.732V45.52ZM52.604 41.524C53.66 42.328 54.656 43.132 55.568 43.936C56.192 43.108 56.732 42.172 57.188 41.116L58.22 41.668C57.716 42.832 57.128 43.852 56.456 44.728C57.32 45.52 58.124 46.324 58.844 47.116L57.956 48.004C57.308 47.236 56.552 46.432 55.688 45.616C54.68 46.696 53.504 47.512 52.172 48.088L51.512 47.056C52.772 46.54 53.876 45.796 54.812 44.812C53.9 43.996 52.88 43.168 51.776 42.328L52.604 41.524ZM49.784 39.616H59.408V40.708H50.876V48.664H59.78V49.756H49.784V39.616ZM62.108 39.568H70.892V40.588H67.076V41.908H71.72V42.928H61.28V41.908H65.924V40.588H62.108V39.568ZM70.424 43.732V47.764H69.296V44.764H63.8V47.86H62.672V43.732H70.424ZM67.46 47.56C69.032 48.052 70.472 48.64 71.768 49.336L71.168 50.284C69.776 49.492 68.348 48.868 66.884 48.412L67.46 47.56ZM66.056 45.244L67.16 45.34C66.98 47.08 66.608 48.232 66.032 48.808C65.432 49.528 63.98 49.996 61.688 50.2L61.232 49.18C63.176 49.072 64.46 48.724 65.084 48.136C65.636 47.584 65.96 46.612 66.056 45.244ZM75.812 39.112L76.892 39.268C76.844 39.652 76.808 40.024 76.76 40.384H79.148V41.404H76.592C76.532 41.74 76.46 42.076 76.388 42.388H78.788V48.976C78.788 49.696 78.464 50.068 77.828 50.068H77.108L76.856 49.096L77.516 49.144C77.72 49.144 77.828 49.012 77.828 48.76V43.312H74.312V50.08H73.34V42.388H75.32C75.392 42.064 75.452 41.74 75.512 41.404H72.992V40.384H75.668C75.728 39.952 75.776 39.532 75.812 39.112ZM74.66 45.04H75.152C75.008 44.644 74.852 44.272 74.66 43.936L75.464 43.636C75.632 44.032 75.8 44.5 75.944 45.04H76.244C76.412 44.584 76.568 44.092 76.712 43.576L77.54 43.888C77.396 44.308 77.24 44.692 77.084 45.04H77.504V45.904H76.556V46.78H77.564V47.644H76.556V49.792H75.596V47.644H74.588V46.78H75.596V45.904H74.66V45.04ZM79.16 42.292H80.72C80.744 40.948 80.756 39.928 80.756 39.208H81.8C81.8 40.06 81.788 41.092 81.776 42.292H83.72V43.372H81.896C82.268 45.988 82.988 48.028 84.068 49.468L83.312 50.296C82.4 48.964 81.764 47.344 81.404 45.436C80.996 47.368 80.336 48.988 79.436 50.284L78.74 49.492C79.856 47.716 80.504 45.676 80.672 43.372H79.16V42.292ZM82.808 39.712C83.264 40.372 83.624 40.948 83.864 41.452L83.072 42.004C82.808 41.464 82.46 40.864 82.028 40.204L82.808 39.712ZM88.34 40.264C89.336 40.264 90.116 40.468 90.68 40.9C91.28 41.344 91.616 42.028 91.7 42.964H90.404C90.284 42.412 90.068 42.004 89.732 41.764C89.396 41.512 88.916 41.392 88.268 41.392C87.704 41.392 87.272 41.476 86.972 41.644C86.6 41.836 86.42 42.148 86.42 42.58C86.42 42.964 86.624 43.264 87.056 43.492C87.248 43.6 87.74 43.78 88.544 44.02C89.696 44.38 90.452 44.656 90.788 44.86C91.52 45.304 91.892 45.916 91.892 46.708C91.892 47.476 91.592 48.076 90.992 48.52C90.392 48.952 89.552 49.168 88.472 49.168C87.428 49.168 86.612 48.952 86.024 48.544C85.316 48.04 84.932 47.248 84.86 46.168H86.156C86.252 46.84 86.492 47.332 86.876 47.62C87.224 47.884 87.752 48.016 88.472 48.016C89.12 48.016 89.636 47.896 90.02 47.68C90.404 47.464 90.596 47.164 90.596 46.78C90.596 46.3 90.32 45.928 89.78 45.652C89.588 45.556 89.024 45.364 88.076 45.076C87.02 44.74 86.372 44.512 86.108 44.368C85.448 43.972 85.124 43.396 85.124 42.652C85.124 41.896 85.436 41.308 86.072 40.876C86.672 40.468 87.428 40.264 88.34 40.264ZM94.8735 40.792V42.796H96.2895V43.852H94.8735V47.452C94.8735 47.62 94.9095 47.74 94.9815 47.824C95.0535 47.896 95.1615 47.944 95.3175 47.944H96.1335V49H95.1135C94.5855 49 94.1895 48.856 93.9495 48.58C93.7095 48.316 93.6015 47.944 93.6015 47.452V43.852H92.4495V42.796H93.6015V41.32L94.8735 40.792ZM100.11 42.628C101.022 42.628 101.694 42.856 102.126 43.312C102.498 43.708 102.69 44.284 102.69 45.04V49H101.514V48.124C101.274 48.436 100.974 48.688 100.614 48.868C100.206 49.06 99.7258 49.168 99.1738 49.168C98.5258 49.168 98.0218 49 97.6618 48.676C97.2658 48.352 97.0738 47.932 97.0738 47.416C97.0738 46.72 97.3498 46.18 97.9018 45.808C98.4058 45.448 99.1258 45.268 100.038 45.244L101.43 45.208V44.956C101.43 44.092 100.962 43.66 100.026 43.66C99.6298 43.66 99.3058 43.732 99.0658 43.876C98.7778 44.044 98.5978 44.296 98.5258 44.644L97.2658 44.536C97.3978 43.864 97.7338 43.36 98.2618 43.048C98.7178 42.76 99.3418 42.628 100.11 42.628ZM101.43 46.132L100.122 46.168C98.9578 46.192 98.3818 46.6 98.3818 47.368C98.3818 47.608 98.4778 47.8 98.6818 47.956C98.8738 48.112 99.1378 48.196 99.4618 48.196C100.002 48.196 100.458 48.028 100.842 47.704C101.226 47.38 101.43 46.972 101.43 46.492V46.132ZM104.146 40.264H105.418V43.72C105.922 42.988 106.546 42.628 107.314 42.628C108.202 42.628 108.898 42.952 109.414 43.6C109.882 44.2 110.122 44.956 110.122 45.868C110.122 46.816 109.882 47.596 109.402 48.196C108.874 48.844 108.166 49.168 107.254 49.168C106.402 49.168 105.766 48.856 105.334 48.256V49H104.146V40.264ZM107.026 43.66C106.546 43.66 106.162 43.84 105.874 44.224C105.538 44.632 105.382 45.172 105.382 45.844V45.952C105.382 46.576 105.514 47.08 105.778 47.476C106.078 47.908 106.51 48.136 107.062 48.136C107.686 48.136 108.142 47.908 108.442 47.464C108.682 47.08 108.814 46.552 108.814 45.868C108.814 45.184 108.682 44.656 108.418 44.296C108.118 43.864 107.65 43.66 107.026 43.66ZM111.462 40.264H112.734V49H111.462V40.264ZM116.946 42.628C117.954 42.628 118.734 42.964 119.262 43.66C119.742 44.284 119.994 45.148 120.006 46.252H115.302C115.35 46.852 115.506 47.32 115.794 47.644C116.082 47.956 116.478 48.124 116.982 48.124C117.426 48.124 117.786 48.016 118.062 47.812C118.278 47.644 118.458 47.368 118.626 47.008H119.898C119.754 47.584 119.478 48.076 119.046 48.46C118.506 48.928 117.822 49.168 116.994 49.168C116.082 49.168 115.35 48.88 114.822 48.316C114.246 47.716 113.958 46.912 113.958 45.892C113.958 44.968 114.222 44.2 114.774 43.576C115.302 42.94 116.034 42.628 116.946 42.628ZM116.982 43.672C116.502 43.672 116.13 43.804 115.842 44.092C115.578 44.368 115.398 44.764 115.326 45.292H118.674C118.554 44.212 117.99 43.672 116.982 43.672ZM125.207 40.432H128.327C129.707 40.432 130.751 40.816 131.471 41.596C132.143 42.316 132.479 43.36 132.479 44.716C132.479 46.06 132.131 47.104 131.447 47.848C130.727 48.616 129.683 49 128.303 49H125.207V40.432ZM126.515 41.548V47.884H128.063C129.143 47.884 129.947 47.62 130.451 47.104C130.943 46.588 131.195 45.796 131.195 44.716C131.195 43.612 130.943 42.82 130.463 42.316C129.959 41.8 129.167 41.548 128.087 41.548H126.515ZM134.589 40.312C134.841 40.312 135.057 40.384 135.225 40.552C135.393 40.708 135.477 40.912 135.477 41.164C135.477 41.416 135.381 41.62 135.213 41.788C135.045 41.944 134.829 42.028 134.589 42.028C134.337 42.028 134.133 41.944 133.965 41.788C133.797 41.62 133.713 41.404 133.713 41.164C133.713 40.912 133.797 40.708 133.965 40.552C134.133 40.384 134.337 40.312 134.589 40.312ZM133.953 42.796H135.225V49H133.953V42.796ZM139.395 40.432H140.691V41.512H139.575C139.371 41.512 139.215 41.56 139.119 41.668C139.023 41.764 138.975 41.932 138.975 42.16V42.796H141.483V42.124C141.483 41.596 141.627 41.176 141.915 40.888C142.203 40.576 142.623 40.432 143.175 40.432H144.459V41.512H143.343C143.151 41.512 142.995 41.56 142.899 41.668C142.803 41.764 142.755 41.932 142.755 42.16V42.796H144.375V43.84H142.755V49H141.483V43.84H138.975V49H137.715V43.84H136.287V42.796H137.715V42.124C137.715 41.596 137.859 41.176 138.147 40.888C138.435 40.576 138.843 40.432 139.395 40.432ZM145.243 42.796H146.515V46.576C146.515 47.104 146.623 47.488 146.851 47.728C147.067 47.968 147.427 48.1 147.919 48.1C148.255 48.1 148.555 47.956 148.843 47.692C149.131 47.416 149.335 47.044 149.443 46.588V42.796H150.715V49H149.443V48.16C148.915 48.832 148.267 49.168 147.487 49.168C145.987 49.168 145.243 48.328 145.243 46.66V42.796ZM154.485 42.628C156.093 42.628 156.981 43.276 157.125 44.584H155.889C155.793 44.248 155.649 44.02 155.445 43.888C155.229 43.744 154.893 43.672 154.461 43.672C154.077 43.672 153.789 43.72 153.597 43.84C153.369 43.96 153.261 44.152 153.261 44.392C153.261 44.608 153.429 44.788 153.765 44.944C153.981 45.04 154.389 45.16 155.013 45.316C155.721 45.484 156.249 45.688 156.585 45.904C157.077 46.216 157.329 46.648 157.329 47.2C157.329 48.508 156.405 49.168 154.569 49.168C152.865 49.168 151.953 48.436 151.809 46.996H153.057C153.129 47.416 153.285 47.716 153.501 47.884C153.717 48.04 154.053 48.124 154.533 48.124C155.517 48.124 156.021 47.836 156.021 47.284C156.021 46.984 155.829 46.744 155.469 46.576C155.277 46.48 154.857 46.36 154.221 46.216C153.489 46.048 152.973 45.868 152.685 45.676C152.205 45.376 151.965 44.956 151.965 44.428C151.965 43.864 152.193 43.42 152.661 43.108C153.129 42.784 153.741 42.628 154.485 42.628ZM159.304 40.312C159.556 40.312 159.772 40.384 159.94 40.552C160.108 40.708 160.192 40.912 160.192 41.164C160.192 41.416 160.096 41.62 159.928 41.788C159.76 41.944 159.544 42.028 159.304 42.028C159.052 42.028 158.848 41.944 158.68 41.788C158.512 41.62 158.428 41.404 158.428 41.164C158.428 40.912 158.512 40.708 158.68 40.552C158.848 40.384 159.052 40.312 159.304 40.312ZM158.668 42.796H159.94V49H158.668V42.796ZM164.517 42.628C165.453 42.628 166.209 42.94 166.773 43.564C167.325 44.176 167.613 44.956 167.613 45.904C167.613 46.84 167.337 47.62 166.785 48.22C166.209 48.844 165.453 49.168 164.517 49.168C163.581 49.168 162.825 48.844 162.249 48.22C161.697 47.62 161.421 46.84 161.421 45.904C161.421 44.956 161.697 44.176 162.261 43.564C162.825 42.94 163.581 42.628 164.517 42.628ZM164.517 43.672C163.929 43.672 163.473 43.9 163.149 44.368C162.861 44.764 162.729 45.28 162.729 45.904C162.729 46.528 162.861 47.032 163.149 47.428C163.473 47.884 163.929 48.124 164.517 48.124C165.105 48.124 165.561 47.884 165.897 47.428C166.185 47.02 166.329 46.516 166.329 45.904C166.329 45.28 166.185 44.764 165.897 44.368C165.561 43.9 165.105 43.672 164.517 43.672ZM171.966 42.628C173.502 42.628 174.282 43.468 174.282 45.172V49H173.01V45.28C173.01 44.224 172.518 43.696 171.558 43.696C171.198 43.696 170.874 43.816 170.61 44.08C170.322 44.368 170.142 44.764 170.094 45.268V49H168.822V42.796H170.094V43.564C170.334 43.252 170.61 43.024 170.922 42.868C171.234 42.7 171.582 42.628 171.966 42.628ZM179.072 40.432H180.548L182.216 47.104H182.264L184.016 40.432H185.384L187.136 47.104H187.184L188.852 40.432H190.328L187.856 49H186.464L184.724 42.388H184.676L182.936 49H181.532L179.072 40.432ZM193.739 42.628C194.747 42.628 195.527 42.964 196.055 43.66C196.535 44.284 196.787 45.148 196.799 46.252H192.095C192.143 46.852 192.299 47.32 192.587 47.644C192.875 47.956 193.271 48.124 193.775 48.124C194.219 48.124 194.579 48.016 194.855 47.812C195.071 47.644 195.251 47.368 195.419 47.008H196.691C196.547 47.584 196.271 48.076 195.839 48.46C195.299 48.928 194.615 49.168 193.787 49.168C192.875 49.168 192.143 48.88 191.615 48.316C191.039 47.716 190.751 46.912 190.751 45.892C190.751 44.968 191.015 44.2 191.567 43.576C192.095 42.94 192.827 42.628 193.739 42.628ZM193.775 43.672C193.295 43.672 192.923 43.804 192.635 44.092C192.371 44.368 192.191 44.764 192.119 45.292H195.467C195.347 44.212 194.783 43.672 193.775 43.672ZM197.884 40.264H199.156V43.72C199.66 42.988 200.284 42.628 201.052 42.628C201.94 42.628 202.636 42.952 203.152 43.6C203.62 44.2 203.86 44.956 203.86 45.868C203.86 46.816 203.62 47.596 203.14 48.196C202.612 48.844 201.904 49.168 200.992 49.168C200.14 49.168 199.504 48.856 199.072 48.256V49H197.884V40.264ZM200.764 43.66C200.284 43.66 199.9 43.84 199.612 44.224C199.276 44.632 199.12 45.172 199.12 45.844V45.952C199.12 46.576 199.252 47.08 199.516 47.476C199.816 47.908 200.248 48.136 200.8 48.136C201.424 48.136 201.88 47.908 202.18 47.464C202.42 47.08 202.552 46.552 202.552 45.868C202.552 45.184 202.42 44.656 202.156 44.296C201.856 43.864 201.388 43.66 200.764 43.66ZM205.056 42.796H206.328V46.576C206.328 47.104 206.436 47.488 206.664 47.728C206.88 47.968 207.24 48.1 207.732 48.1C208.068 48.1 208.368 47.956 208.656 47.692C208.944 47.416 209.148 47.044 209.256 46.588V42.796H210.528V49H209.256V48.16C208.728 48.832 208.08 49.168 207.3 49.168C205.8 49.168 205.056 48.328 205.056 46.66V42.796ZM212.882 40.312C213.134 40.312 213.35 40.384 213.518 40.552C213.686 40.708 213.77 40.912 213.77 41.164C213.77 41.416 213.674 41.62 213.506 41.788C213.338 41.944 213.122 42.028 212.882 42.028C212.63 42.028 212.426 41.944 212.258 41.788C212.09 41.62 212.006 41.404 212.006 41.164C212.006 40.912 212.09 40.708 212.258 40.552C212.426 40.384 212.63 40.312 212.882 40.312ZM212.246 42.796H213.518V49H212.246V42.796ZM216.272 39.772H224.888V40.876H216.272V39.772ZM215.12 43.084H225.956V44.224H220.268C219.236 46.288 218.336 47.764 217.556 48.652C219.524 48.532 221.492 48.328 223.436 48.052C223.052 47.368 222.632 46.66 222.176 45.94L223.088 45.376C224.18 46.996 225.02 48.412 225.62 49.612L224.6 50.32C224.408 49.912 224.216 49.504 224 49.096C221.588 49.432 218.972 49.696 216.14 49.888L215.84 48.724C215.96 48.688 216.056 48.652 216.116 48.616C216.848 48.064 217.808 46.6 218.996 44.224H215.12V43.084ZM227 41.068H228.464C228.308 40.492 228.14 39.976 227.948 39.496L229.088 39.304C229.244 39.82 229.4 40.408 229.544 41.068H230.864V42.148H227V41.068ZM228.188 42.7C228.404 44.056 228.584 45.616 228.752 47.368L227.84 47.596C227.684 46.012 227.492 44.476 227.252 43L228.188 42.7ZM230.816 47.416V48.508C229.712 48.916 228.524 49.252 227.252 49.528L226.964 48.4C227.66 48.292 228.344 48.148 229.016 47.98C229.256 46.276 229.436 44.476 229.556 42.58L230.576 42.724C230.432 44.512 230.24 46.168 229.988 47.704L230.816 47.416ZM236.348 41.392V39.652H237.428V42.388H231.524V39.652H232.616V41.392H233.912V39.184H235.016V41.392H236.348ZM231.104 43.156H237.932V44.212H234.884C234.812 44.524 234.716 44.824 234.62 45.124H237.668V49.192C237.668 49.852 237.38 50.188 236.804 50.188H236.264L235.988 49.168L236.468 49.216C236.588 49.216 236.648 49.132 236.648 48.976V46.132H235.82V49.972H234.872V46.132H234.14V49.984H233.192V46.132H232.388V50.188H231.368V45.124H233.504C233.612 44.824 233.696 44.524 233.768 44.212H231.104V43.156ZM239.528 41.044H241.412V40.528H239.132V39.664H241.412V39.16H242.42V39.664H244.568V40.528H242.42V41.044H244.304V43.276H242.42V43.36C243.092 43.612 243.788 43.912 244.484 44.248L243.908 45.112C243.332 44.68 242.828 44.332 242.42 44.08V45.208H241.412V44.044C240.764 44.572 240.092 44.992 239.42 45.328L238.94 44.428C239.732 44.188 240.524 43.804 241.316 43.276H239.528V41.044ZM243.404 42.52V41.812H242.42V42.52H243.404ZM241.412 42.52V41.812H240.428V42.52H241.412ZM246.2 41.032C246.14 41.152 246.08 41.26 246.032 41.38C246.344 41.992 246.74 42.508 247.232 42.94C247.652 42.46 247.94 41.824 248.084 41.032H246.2ZM246.452 43.576C246.044 43.18 245.708 42.76 245.444 42.316C245.288 42.508 245.132 42.7 244.976 42.88L244.316 42.04C245.036 41.248 245.516 40.288 245.78 39.136L246.8 39.268C246.728 39.544 246.656 39.808 246.584 40.072H249.716V41.032H249.08C248.9 42.064 248.552 42.892 248.048 43.54C248.6 43.876 249.224 44.14 249.92 44.344L249.332 45.244C248.54 44.98 247.844 44.644 247.268 44.236C246.692 44.62 245.936 44.944 245.024 45.208L244.64 44.284C245.36 44.092 245.972 43.864 246.452 43.576ZM243.872 46.504H239.756V45.52H249.308V46.504H245V47.272H248.576V48.232H245V49.012H249.884V50.02H239.156V49.012H240.98V46.924H242.036V49.012H243.872V46.504ZM256.1 39.136H256.94C258.452 40.84 260.18 42.184 262.148 43.168L261.536 44.26C260.876 43.9 260.252 43.516 259.676 43.108V43.96H253.364V43.084C252.764 43.516 252.128 43.912 251.456 44.284L250.856 43.18C252.956 42.1 254.708 40.744 256.1 39.136ZM253.664 42.868H259.352C258.296 42.076 257.348 41.176 256.52 40.168C255.716 41.152 254.768 42.052 253.664 42.868ZM260.432 45.244V50.224H259.328V49.576H253.712V50.224H252.608V45.244H260.432ZM253.712 48.496H259.328V46.312H253.712V48.496ZM267.668 40H269.9C269.792 39.724 269.672 39.472 269.552 39.232L270.704 39.04C270.8 39.328 270.896 39.652 270.992 40H273.452V40.936H272.54C272.444 41.308 272.336 41.656 272.192 41.992H273.836V42.952H267.308V41.992H268.964C268.844 41.608 268.724 41.26 268.604 40.936H267.668V40ZM271.112 41.992C271.268 41.644 271.388 41.296 271.484 40.936H269.672C269.768 41.272 269.876 41.62 269.972 41.992H271.112ZM267.956 43.48H273.128V47.44H271.916V48.736C271.916 49.024 272.048 49.18 272.336 49.18H272.672C272.84 49.18 272.96 49.12 273.032 49.012C273.128 48.88 273.188 48.496 273.212 47.872L274.136 48.16C274.052 49.096 273.908 49.66 273.716 49.852C273.524 50.02 273.236 50.104 272.852 50.104H272.048C271.244 50.104 270.848 49.72 270.848 48.964V47.44H270.044C269.9 48.112 269.648 48.676 269.288 49.108C268.88 49.612 268.16 50.02 267.128 50.308L266.732 49.36C267.524 49.156 268.088 48.868 268.448 48.496C268.7 48.208 268.88 47.86 268.988 47.44H267.956V43.48ZM272.096 46.54V45.868H268.988V46.54H272.096ZM268.988 45.04H272.096V44.368H268.988V45.04ZM264.344 39.124L265.436 39.364C265.34 39.736 265.256 40.084 265.16 40.42H267.044V41.512H264.812C264.644 41.992 264.452 42.436 264.248 42.856H266.936V43.876H265.772V45.1H267.212V46.156H265.772V48.58C266.132 48.412 266.48 48.196 266.828 47.932L267.032 48.904C266.372 49.324 265.604 49.672 264.74 49.936L264.308 49C264.548 48.904 264.668 48.76 264.668 48.556V46.156H263.264V45.1H264.668V43.876H264.14V43.072C264.032 43.288 263.924 43.48 263.816 43.672L262.892 43.084C263.564 41.86 264.056 40.54 264.344 39.124ZM278.6 42.256C278.504 42.304 278.432 42.352 278.36 42.4L277.664 41.56C278.768 40.96 279.716 40.12 280.508 39.052L281.66 39.316L281.228 39.892H284.108V40.612C283.856 40.948 283.604 41.236 283.364 41.5H285.428V44.32H281.984C282.392 44.764 282.728 45.244 282.968 45.76C283.712 45.424 284.348 45.016 284.864 44.536L285.608 45.388C285.26 45.664 284.888 45.916 284.504 46.132C284.816 47.128 285.368 48.016 286.148 48.796L285.392 49.732C284.6 48.772 284.012 47.716 283.652 46.564L283.316 46.708C283.412 47.092 283.472 47.512 283.496 47.944C283.496 48.796 283.352 49.384 283.064 49.72C282.824 49.996 282.368 50.176 281.72 50.248C281.504 50.272 281.276 50.284 281.024 50.284L280.676 49.264C281.036 49.264 281.348 49.252 281.588 49.24C281.816 49.216 282.008 49.132 282.152 48.964C282.284 48.784 282.356 48.448 282.356 47.944C282.356 47.884 282.344 47.824 282.344 47.776C281.36 48.64 280.088 49.36 278.528 49.936L277.952 48.964C279.764 48.388 281.18 47.644 282.188 46.744C282.14 46.552 282.068 46.372 281.996 46.204C281.132 46.96 279.98 47.584 278.552 48.076L278 47.14C279.536 46.696 280.724 46.132 281.576 45.436C281.456 45.268 281.348 45.112 281.228 44.98C280.508 45.604 279.584 46.036 278.432 46.288L278.012 45.352C279.02 45.148 279.812 44.8 280.4 44.32H278.6V42.256ZM281.948 41.5C282.224 41.272 282.5 41.02 282.764 40.756H280.472C280.196 41.02 279.92 41.272 279.656 41.5H281.948ZM284.324 43.396V42.424H282.668C282.584 42.772 282.488 43.096 282.368 43.396H284.324ZM281.192 43.396C281.36 43.096 281.492 42.772 281.576 42.424H279.704V43.396H281.192ZM276.248 43.864C275.948 44.296 275.624 44.716 275.276 45.124L274.904 43.9C275.96 42.52 276.728 40.912 277.232 39.064L278.288 39.568C278.048 40.384 277.748 41.164 277.388 41.908V50.224H276.248V43.864Z"
    fill="#0E1418" />
</svg>