<svg width="320" height="64" viewBox="0 0 320 64" fill="none" xmlns="http://www.w3.org/2000/svg">
  <path
    d="M0.5 32C0.5 14.3269 14.8269 0 32.5 0H287.5C305.173 0 319.5 14.3269 319.5 32C319.5 49.6731 305.173 64 287.5 64H32.5C14.8269 64 0.5 49.6731 0.5 32Z"
    fill="#3400E7" />
  <path
    d="M32.4297 23.2637H35.2715C35.2324 24.3314 35.0176 25.2331 34.627 25.9688C34.2363 26.6979 33.6797 27.2513 32.957 27.6289C32.2409 28.0065 31.375 28.1953 30.3594 28.1953C29.5716 28.1953 28.8717 28.0651 28.2598 27.8047C27.6478 27.5378 27.127 27.1471 26.6973 26.6328C26.2676 26.1185 25.9421 25.4837 25.7207 24.7285C25.5059 23.9668 25.3984 23.0911 25.3984 22.1016V19.6895C25.3984 18.6999 25.5124 17.8242 25.7402 17.0625C25.9746 16.3008 26.3066 15.6628 26.7363 15.1484C27.1725 14.6276 27.6966 14.237 28.3086 13.9766C28.9271 13.7096 29.6237 13.5762 30.3984 13.5762C31.4336 13.5762 32.2995 13.7715 32.9961 14.1621C33.6927 14.5527 34.2298 15.1224 34.6074 15.8711C34.9915 16.6133 35.2227 17.5215 35.3008 18.5957H32.4492C32.4297 17.9186 32.3516 17.388 32.2148 17.0039C32.0846 16.6133 31.8763 16.3398 31.5898 16.1836C31.3034 16.0208 30.9062 15.9395 30.3984 15.9395C30.0208 15.9395 29.6953 16.0078 29.4219 16.1445C29.1484 16.2747 28.9238 16.4863 28.748 16.7793C28.5723 17.0723 28.4421 17.4564 28.3574 17.9316C28.2793 18.4069 28.2402 18.9863 28.2402 19.6699V22.1016C28.2402 22.7721 28.276 23.3451 28.3477 23.8203C28.4193 24.2891 28.5332 24.6732 28.6895 24.9727C28.8457 25.2721 29.0573 25.4902 29.3242 25.627C29.5977 25.7637 29.9427 25.832 30.3594 25.832C30.8411 25.832 31.2285 25.7604 31.5215 25.6172C31.821 25.474 32.0423 25.2168 32.1855 24.8457C32.3288 24.4746 32.4102 23.9473 32.4297 23.2637ZM39.793 17.4336V28H37.0488V17.4336H39.793ZM36.9219 14.6992C36.9219 14.276 37.0553 13.9277 37.3223 13.6543C37.5957 13.3743 37.9603 13.2344 38.416 13.2344C38.8783 13.2344 39.2428 13.3743 39.5098 13.6543C39.7767 13.9277 39.9102 14.276 39.9102 14.6992C39.9102 15.1159 39.7734 15.4642 39.5 15.7441C39.2331 16.0176 38.875 16.1543 38.4258 16.1543C37.9635 16.1543 37.5957 16.0176 37.3223 15.7441C37.0553 15.4642 36.9219 15.1159 36.9219 14.6992ZM45.0762 25.8906L46.7754 17.4336H49.627L46.7266 28H45.0176L45.0762 25.8906ZM44.0703 17.4336L45.7988 25.9004L45.8281 28H44.1094L41.209 17.4336H44.0703ZM53.8164 17.4336V28H51.0723V17.4336H53.8164ZM50.9453 14.6992C50.9453 14.276 51.0788 13.9277 51.3457 13.6543C51.6191 13.3743 51.9837 13.2344 52.4395 13.2344C52.9017 13.2344 53.2663 13.3743 53.5332 13.6543C53.8001 13.9277 53.9336 14.276 53.9336 14.6992C53.9336 15.1159 53.7969 15.4642 53.5234 15.7441C53.2565 16.0176 52.8984 16.1543 52.4492 16.1543C51.987 16.1543 51.6191 16.0176 51.3457 15.7441C51.0788 15.4642 50.9453 15.1159 50.9453 14.6992ZM60.5938 17.4336V19.4941H55.2031V17.4336H60.5938ZM56.4434 14.8262H59.168V24.7773C59.168 25.0703 59.1973 25.2949 59.2559 25.4512C59.3145 25.6074 59.4023 25.7181 59.5195 25.7832C59.6432 25.8418 59.806 25.8711 60.0078 25.8711C60.1445 25.8711 60.2715 25.8646 60.3887 25.8516C60.5059 25.832 60.5938 25.8125 60.6523 25.793V27.9316C60.4375 28.0163 60.2096 28.0814 59.9688 28.127C59.7344 28.1725 59.4544 28.1953 59.1289 28.1953C58.582 28.1953 58.1068 28.0911 57.7031 27.8828C57.306 27.6745 56.9967 27.3424 56.7754 26.8867C56.554 26.4245 56.4434 25.819 56.4434 25.0703V14.8262ZM66.7754 25.5684V20.6855C66.7754 20.3665 66.7363 20.1126 66.6582 19.9238C66.5866 19.735 66.4759 19.5983 66.3262 19.5137C66.1829 19.4225 66.0072 19.377 65.7988 19.377C65.5645 19.377 65.3691 19.4258 65.2129 19.5234C65.0566 19.6211 64.9395 19.7611 64.8613 19.9434C64.7897 20.1257 64.7539 20.3438 64.7539 20.5977H62.0098C62.0098 20.1419 62.0977 19.7122 62.2734 19.3086C62.4492 18.8984 62.7064 18.5404 63.0449 18.2344C63.39 17.9219 63.8001 17.6777 64.2754 17.502C64.7507 17.3262 65.2845 17.2383 65.877 17.2383C66.5801 17.2383 67.2051 17.3587 67.752 17.5996C68.2988 17.834 68.7318 18.2083 69.0508 18.7227C69.3698 19.237 69.5293 19.9043 69.5293 20.7246V25.4316C69.5293 26.0241 69.5586 26.5059 69.6172 26.877C69.6823 27.248 69.7767 27.5671 69.9004 27.834V28H67.1465C67.0228 27.707 66.9284 27.3424 66.8633 26.9062C66.8047 26.4635 66.7754 26.0176 66.7754 25.5684ZM67.1074 21.5449L67.1172 23.1855H66.1113C65.8509 23.1855 65.623 23.2279 65.4277 23.3125C65.2389 23.3971 65.0794 23.5176 64.9492 23.6738C64.819 23.8236 64.7214 23.9993 64.6562 24.2012C64.5977 24.403 64.5684 24.6178 64.5684 24.8457C64.5684 25.0996 64.6042 25.3145 64.6758 25.4902C64.7474 25.666 64.8548 25.7995 64.998 25.8906C65.1413 25.9818 65.3105 26.0273 65.5059 26.0273C65.8053 26.0273 66.0658 25.9655 66.2871 25.8418C66.5085 25.7181 66.6712 25.5684 66.7754 25.3926C66.8861 25.2168 66.9219 25.054 66.8828 24.9043L67.5078 25.9688C67.4297 26.2096 67.3223 26.4603 67.1855 26.7207C67.0553 26.9811 66.8893 27.222 66.6875 27.4434C66.4857 27.6647 66.235 27.847 65.9355 27.9902C65.6426 28.127 65.2943 28.1953 64.8906 28.1953C64.3242 28.1953 63.8066 28.0651 63.3379 27.8047C62.8691 27.5443 62.498 27.1797 62.2246 26.7109C61.9577 26.2422 61.8242 25.6855 61.8242 25.041C61.8242 24.5072 61.9089 24.0254 62.0781 23.5957C62.2539 23.1595 62.5143 22.7917 62.8594 22.4922C63.2044 22.1862 63.6406 21.9518 64.168 21.7891C64.6953 21.6263 65.3138 21.5449 66.0234 21.5449H67.1074ZM74.4219 17.4336V28H71.6777V17.4336H74.4219ZM71.5508 14.6992C71.5508 14.276 71.6842 13.9277 71.9512 13.6543C72.2246 13.3743 72.5892 13.2344 73.0449 13.2344C73.5072 13.2344 73.8717 13.3743 74.1387 13.6543C74.4056 13.9277 74.5391 14.276 74.5391 14.6992C74.5391 15.1159 74.4023 15.4642 74.1289 15.7441C73.862 16.0176 73.5039 16.1543 73.0547 16.1543C72.5924 16.1543 72.2246 16.0176 71.9512 15.7441C71.6842 15.4642 71.5508 15.1159 71.5508 14.6992ZM86.1797 22.9902H83.2695V20.6172H86.1797C86.5833 20.6172 86.9121 20.526 87.166 20.3438C87.4264 20.1615 87.6152 19.9108 87.7324 19.5918C87.8496 19.2663 87.9082 18.9017 87.9082 18.498C87.9082 18.0879 87.8464 17.707 87.7227 17.3555C87.6055 16.9974 87.4199 16.7077 87.166 16.4863C86.9186 16.265 86.5898 16.1543 86.1797 16.1543H84.1875V28H81.3359V13.7812H86.1797C87.1367 13.7812 87.9603 13.9831 88.6504 14.3867C89.3405 14.7904 89.8678 15.347 90.2324 16.0566C90.6035 16.7598 90.7891 17.5671 90.7891 18.4785C90.7891 19.3965 90.6035 20.194 90.2324 20.8711C89.8678 21.5417 89.3405 22.0625 88.6504 22.4336C87.9603 22.8047 87.1367 22.9902 86.1797 22.9902ZM92.1172 23.0781V22.3652C92.1172 21.5384 92.2148 20.806 92.4102 20.168C92.612 19.5299 92.8984 18.9961 93.2695 18.5664C93.6406 18.1302 94.0866 17.8014 94.6074 17.5801C95.1348 17.3522 95.724 17.2383 96.375 17.2383C97.0326 17.2383 97.6217 17.3522 98.1426 17.5801C98.6699 17.8014 99.1191 18.1302 99.4902 18.5664C99.8678 18.9961 100.158 19.5299 100.359 20.168C100.561 20.806 100.662 21.5384 100.662 22.3652V23.0781C100.662 23.8984 100.561 24.6276 100.359 25.2656C100.158 25.9036 99.8678 26.4408 99.4902 26.877C99.1191 27.3132 98.6732 27.6419 98.1523 27.8633C97.6315 28.0846 97.0456 28.1953 96.3945 28.1953C95.7435 28.1953 95.1543 28.0846 94.627 27.8633C94.1061 27.6419 93.6569 27.3132 93.2793 26.877C92.9017 26.4408 92.612 25.9036 92.4102 25.2656C92.2148 24.6276 92.1172 23.8984 92.1172 23.0781ZM94.8516 22.3652V23.0781C94.8516 23.5664 94.8841 23.9896 94.9492 24.3477C95.0208 24.7057 95.1217 25.002 95.252 25.2363C95.3887 25.4707 95.5514 25.6432 95.7402 25.7539C95.929 25.8646 96.1471 25.9199 96.3945 25.9199C96.6419 25.9199 96.8633 25.8646 97.0586 25.7539C97.2539 25.6432 97.4134 25.4707 97.5371 25.2363C97.6673 25.002 97.7617 24.7057 97.8203 24.3477C97.8854 23.9896 97.918 23.5664 97.918 23.0781V22.3652C97.918 21.89 97.8822 21.4733 97.8105 21.1152C97.7389 20.7507 97.638 20.4544 97.5078 20.2266C97.3776 19.9922 97.2148 19.8164 97.0195 19.6992C96.8307 19.5755 96.6159 19.5137 96.375 19.5137C96.1341 19.5137 95.9193 19.5755 95.7305 19.6992C95.5482 19.8164 95.3887 19.9922 95.252 20.2266C95.1217 20.4544 95.0208 20.7507 94.9492 21.1152C94.8841 21.4733 94.8516 21.89 94.8516 22.3652ZM107.078 25.1484C107.078 24.9661 107.016 24.8034 106.893 24.6602C106.769 24.5169 106.574 24.3704 106.307 24.2207C106.04 24.0645 105.685 23.8919 105.242 23.7031C104.76 23.5078 104.334 23.306 103.963 23.0977C103.592 22.8893 103.276 22.6582 103.016 22.4043C102.762 22.1504 102.57 21.8607 102.439 21.5352C102.309 21.2096 102.244 20.8385 102.244 20.4219C102.244 19.9727 102.326 19.5592 102.488 19.1816C102.658 18.7975 102.898 18.4622 103.211 18.1758C103.523 17.8828 103.904 17.6549 104.354 17.4922C104.809 17.3229 105.32 17.2383 105.887 17.2383C106.681 17.2383 107.361 17.3783 107.928 17.6582C108.501 17.9316 108.94 18.3158 109.246 18.8105C109.552 19.3053 109.705 19.8815 109.705 20.5391H106.971C106.971 20.3047 106.935 20.0964 106.863 19.9141C106.792 19.7253 106.674 19.5788 106.512 19.4746C106.355 19.3704 106.144 19.3184 105.877 19.3184C105.682 19.3184 105.506 19.3607 105.35 19.4453C105.2 19.5299 105.079 19.6439 104.988 19.7871C104.904 19.9238 104.861 20.0866 104.861 20.2754C104.861 20.4186 104.891 20.5456 104.949 20.6562C105.014 20.7669 105.115 20.8743 105.252 20.9785C105.389 21.0827 105.571 21.1934 105.799 21.3105C106.033 21.4212 106.32 21.5449 106.658 21.6816C107.361 21.9421 107.938 22.222 108.387 22.5215C108.842 22.821 109.181 23.1725 109.402 23.5762C109.624 23.9733 109.734 24.4648 109.734 25.0508C109.734 25.5195 109.643 25.946 109.461 26.3301C109.285 26.7142 109.028 27.0462 108.689 27.3262C108.351 27.6061 107.944 27.821 107.469 27.9707C107 28.1204 106.476 28.1953 105.896 28.1953C105.044 28.1953 104.324 28.026 103.738 27.6875C103.152 27.349 102.71 26.916 102.41 26.3887C102.111 25.8548 101.961 25.3014 101.961 24.7285H104.559C104.572 25.0801 104.637 25.3568 104.754 25.5586C104.878 25.7539 105.044 25.8906 105.252 25.9688C105.46 26.0469 105.691 26.0859 105.945 26.0859C106.199 26.0859 106.408 26.0534 106.57 25.9883C106.74 25.9167 106.867 25.8092 106.951 25.666C107.036 25.5163 107.078 25.3438 107.078 25.1484ZM115.73 28.1953C115.008 28.1953 114.367 28.0846 113.807 27.8633C113.253 27.6419 112.785 27.3229 112.4 26.9062C112.016 26.4831 111.723 25.972 111.521 25.373C111.32 24.7741 111.219 24.0905 111.219 23.3223V22.4531C111.219 21.5938 111.316 20.8418 111.512 20.1973C111.707 19.5462 111.984 18.9993 112.342 18.5566C112.7 18.1139 113.139 17.7852 113.66 17.5703C114.188 17.349 114.783 17.2383 115.447 17.2383C116.111 17.2383 116.694 17.349 117.195 17.5703C117.703 17.7852 118.123 18.1107 118.455 18.5469C118.787 18.9766 119.038 19.5104 119.207 20.1484C119.376 20.7865 119.461 21.5286 119.461 22.375V23.625H112.381V21.7012H116.775V21.457C116.775 21.0273 116.73 20.6693 116.639 20.3828C116.548 20.0898 116.404 19.8717 116.209 19.7285C116.014 19.5853 115.753 19.5137 115.428 19.5137C115.154 19.5137 114.923 19.569 114.734 19.6797C114.546 19.7904 114.396 19.9629 114.285 20.1973C114.174 20.4316 114.093 20.7376 114.041 21.1152C113.989 21.4863 113.963 21.9323 113.963 22.4531V23.3223C113.963 23.8105 114.005 24.2207 114.09 24.5527C114.174 24.8783 114.298 25.1452 114.461 25.3535C114.63 25.5553 114.835 25.7018 115.076 25.793C115.317 25.8776 115.597 25.9199 115.916 25.9199C116.398 25.9199 116.831 25.8353 117.215 25.666C117.605 25.4902 117.938 25.2526 118.211 24.9531L119.305 26.6133C119.116 26.8607 118.855 27.1081 118.523 27.3555C118.191 27.6029 117.794 27.8047 117.332 27.9609C116.87 28.1172 116.336 28.1953 115.73 28.1953ZM125.73 25.1484C125.73 24.9661 125.669 24.8034 125.545 24.6602C125.421 24.5169 125.226 24.3704 124.959 24.2207C124.692 24.0645 124.337 23.8919 123.895 23.7031C123.413 23.5078 122.986 23.306 122.615 23.0977C122.244 22.8893 121.928 22.6582 121.668 22.4043C121.414 22.1504 121.222 21.8607 121.092 21.5352C120.962 21.2096 120.896 20.8385 120.896 20.4219C120.896 19.9727 120.978 19.5592 121.141 19.1816C121.31 18.7975 121.551 18.4622 121.863 18.1758C122.176 17.8828 122.557 17.6549 123.006 17.4922C123.462 17.3229 123.973 17.2383 124.539 17.2383C125.333 17.2383 126.014 17.3783 126.58 17.6582C127.153 17.9316 127.592 18.3158 127.898 18.8105C128.204 19.3053 128.357 19.8815 128.357 20.5391H125.623C125.623 20.3047 125.587 20.0964 125.516 19.9141C125.444 19.7253 125.327 19.5788 125.164 19.4746C125.008 19.3704 124.796 19.3184 124.529 19.3184C124.334 19.3184 124.158 19.3607 124.002 19.4453C123.852 19.5299 123.732 19.6439 123.641 19.7871C123.556 19.9238 123.514 20.0866 123.514 20.2754C123.514 20.4186 123.543 20.5456 123.602 20.6562C123.667 20.7669 123.768 20.8743 123.904 20.9785C124.041 21.0827 124.223 21.1934 124.451 21.3105C124.686 21.4212 124.972 21.5449 125.311 21.6816C126.014 21.9421 126.59 22.222 127.039 22.5215C127.495 22.821 127.833 23.1725 128.055 23.5762C128.276 23.9733 128.387 24.4648 128.387 25.0508C128.387 25.5195 128.296 25.946 128.113 26.3301C127.938 26.7142 127.68 27.0462 127.342 27.3262C127.003 27.6061 126.596 27.821 126.121 27.9707C125.652 28.1204 125.128 28.1953 124.549 28.1953C123.696 28.1953 122.977 28.026 122.391 27.6875C121.805 27.349 121.362 26.916 121.062 26.3887C120.763 25.8548 120.613 25.3014 120.613 24.7285H123.211C123.224 25.0801 123.289 25.3568 123.406 25.5586C123.53 25.7539 123.696 25.8906 123.904 25.9688C124.113 26.0469 124.344 26.0859 124.598 26.0859C124.852 26.0859 125.06 26.0534 125.223 25.9883C125.392 25.9167 125.519 25.8092 125.604 25.666C125.688 25.5163 125.73 25.3438 125.73 25.1484ZM141.648 23.2637H144.49C144.451 24.3314 144.236 25.2331 143.846 25.9688C143.455 26.6979 142.898 27.2513 142.176 27.6289C141.46 28.0065 140.594 28.1953 139.578 28.1953C138.79 28.1953 138.09 28.0651 137.479 27.8047C136.867 27.5378 136.346 27.1471 135.916 26.6328C135.486 26.1185 135.161 25.4837 134.939 24.7285C134.725 23.9668 134.617 23.0911 134.617 22.1016V19.6895C134.617 18.6999 134.731 17.8242 134.959 17.0625C135.193 16.3008 135.525 15.6628 135.955 15.1484C136.391 14.6276 136.915 14.237 137.527 13.9766C138.146 13.7096 138.842 13.5762 139.617 13.5762C140.652 13.5762 141.518 13.7715 142.215 14.1621C142.911 14.5527 143.449 15.1224 143.826 15.8711C144.21 16.6133 144.441 17.5215 144.52 18.5957H141.668C141.648 17.9186 141.57 17.388 141.434 17.0039C141.303 16.6133 141.095 16.3398 140.809 16.1836C140.522 16.0208 140.125 15.9395 139.617 15.9395C139.24 15.9395 138.914 16.0078 138.641 16.1445C138.367 16.2747 138.143 16.4863 137.967 16.7793C137.791 17.0723 137.661 17.4564 137.576 17.9316C137.498 18.4069 137.459 18.9863 137.459 19.6699V22.1016C137.459 22.7721 137.495 23.3451 137.566 23.8203C137.638 24.2891 137.752 24.6732 137.908 24.9727C138.064 25.2721 138.276 25.4902 138.543 25.627C138.816 25.7637 139.161 25.832 139.578 25.832C140.06 25.832 140.447 25.7604 140.74 25.6172C141.04 25.474 141.261 25.2168 141.404 24.8457C141.548 24.4746 141.629 23.9473 141.648 23.2637ZM148.875 19.7871V28H146.141V17.4336H148.719L148.875 19.7871ZM151.365 17.3555L151.326 20.0801C151.202 20.054 151.053 20.0345 150.877 20.0215C150.708 20.0085 150.558 20.002 150.428 20.002C150.122 20.002 149.861 20.0508 149.646 20.1484C149.432 20.2396 149.253 20.3796 149.109 20.5684C148.973 20.7507 148.868 20.9785 148.797 21.252C148.725 21.5254 148.683 21.8346 148.67 22.1797L148.152 21.9844C148.152 21.2943 148.204 20.6628 148.309 20.0898C148.419 19.5104 148.582 19.0091 148.797 18.5859C149.012 18.1562 149.269 17.8242 149.568 17.5898C149.874 17.3555 150.219 17.2383 150.604 17.2383C150.734 17.2383 150.87 17.2513 151.014 17.2773C151.163 17.2969 151.281 17.3229 151.365 17.3555ZM156.824 28.1953C156.102 28.1953 155.46 28.0846 154.9 27.8633C154.347 27.6419 153.878 27.3229 153.494 26.9062C153.11 26.4831 152.817 25.972 152.615 25.373C152.413 24.7741 152.312 24.0905 152.312 23.3223V22.4531C152.312 21.5938 152.41 20.8418 152.605 20.1973C152.801 19.5462 153.077 18.9993 153.436 18.5566C153.794 18.1139 154.233 17.7852 154.754 17.5703C155.281 17.349 155.877 17.2383 156.541 17.2383C157.205 17.2383 157.788 17.349 158.289 17.5703C158.797 17.7852 159.217 18.1107 159.549 18.5469C159.881 18.9766 160.132 19.5104 160.301 20.1484C160.47 20.7865 160.555 21.5286 160.555 22.375V23.625H153.475V21.7012H157.869V21.457C157.869 21.0273 157.824 20.6693 157.732 20.3828C157.641 20.0898 157.498 19.8717 157.303 19.7285C157.107 19.5853 156.847 19.5137 156.521 19.5137C156.248 19.5137 156.017 19.569 155.828 19.6797C155.639 19.7904 155.49 19.9629 155.379 20.1973C155.268 20.4316 155.187 20.7376 155.135 21.1152C155.083 21.4863 155.057 21.9323 155.057 22.4531V23.3223C155.057 23.8105 155.099 24.2207 155.184 24.5527C155.268 24.8783 155.392 25.1452 155.555 25.3535C155.724 25.5553 155.929 25.7018 156.17 25.793C156.411 25.8776 156.691 25.9199 157.01 25.9199C157.492 25.9199 157.924 25.8353 158.309 25.666C158.699 25.4902 159.031 25.2526 159.305 24.9531L160.398 26.6133C160.21 26.8607 159.949 27.1081 159.617 27.3555C159.285 27.6029 158.888 27.8047 158.426 27.9609C157.964 28.1172 157.43 28.1953 156.824 28.1953ZM166.795 25.5684V20.6855C166.795 20.3665 166.756 20.1126 166.678 19.9238C166.606 19.735 166.495 19.5983 166.346 19.5137C166.202 19.4225 166.027 19.377 165.818 19.377C165.584 19.377 165.389 19.4258 165.232 19.5234C165.076 19.6211 164.959 19.7611 164.881 19.9434C164.809 20.1257 164.773 20.3438 164.773 20.5977H162.029C162.029 20.1419 162.117 19.7122 162.293 19.3086C162.469 18.8984 162.726 18.5404 163.064 18.2344C163.41 17.9219 163.82 17.6777 164.295 17.502C164.77 17.3262 165.304 17.2383 165.896 17.2383C166.6 17.2383 167.225 17.3587 167.771 17.5996C168.318 17.834 168.751 18.2083 169.07 18.7227C169.389 19.237 169.549 19.9043 169.549 20.7246V25.4316C169.549 26.0241 169.578 26.5059 169.637 26.877C169.702 27.248 169.796 27.5671 169.92 27.834V28H167.166C167.042 27.707 166.948 27.3424 166.883 26.9062C166.824 26.4635 166.795 26.0176 166.795 25.5684ZM167.127 21.5449L167.137 23.1855H166.131C165.87 23.1855 165.643 23.2279 165.447 23.3125C165.258 23.3971 165.099 23.5176 164.969 23.6738C164.839 23.8236 164.741 23.9993 164.676 24.2012C164.617 24.403 164.588 24.6178 164.588 24.8457C164.588 25.0996 164.624 25.3145 164.695 25.4902C164.767 25.666 164.874 25.7995 165.018 25.8906C165.161 25.9818 165.33 26.0273 165.525 26.0273C165.825 26.0273 166.085 25.9655 166.307 25.8418C166.528 25.7181 166.691 25.5684 166.795 25.3926C166.906 25.2168 166.941 25.054 166.902 24.9043L167.527 25.9688C167.449 26.2096 167.342 26.4603 167.205 26.7207C167.075 26.9811 166.909 27.222 166.707 27.4434C166.505 27.6647 166.255 27.847 165.955 27.9902C165.662 28.127 165.314 28.1953 164.91 28.1953C164.344 28.1953 163.826 28.0651 163.357 27.8047C162.889 27.5443 162.518 27.1797 162.244 26.7109C161.977 26.2422 161.844 25.6855 161.844 25.041C161.844 24.5072 161.928 24.0254 162.098 23.5957C162.273 23.1595 162.534 22.7917 162.879 22.4922C163.224 22.1862 163.66 21.9518 164.188 21.7891C164.715 21.6263 165.333 21.5449 166.043 21.5449H167.127ZM176.18 17.4336V19.4941H170.789V17.4336H176.18ZM172.029 14.8262H174.754V24.7773C174.754 25.0703 174.783 25.2949 174.842 25.4512C174.9 25.6074 174.988 25.7181 175.105 25.7832C175.229 25.8418 175.392 25.8711 175.594 25.8711C175.73 25.8711 175.857 25.8646 175.975 25.8516C176.092 25.832 176.18 25.8125 176.238 25.793V27.9316C176.023 28.0163 175.796 28.0814 175.555 28.127C175.32 28.1725 175.04 28.1953 174.715 28.1953C174.168 28.1953 173.693 28.0911 173.289 27.8828C172.892 27.6745 172.583 27.3424 172.361 26.8867C172.14 26.4245 172.029 25.819 172.029 25.0703V14.8262ZM177.098 23.0781V22.3652C177.098 21.5384 177.195 20.806 177.391 20.168C177.592 19.5299 177.879 18.9961 178.25 18.5664C178.621 18.1302 179.067 17.8014 179.588 17.5801C180.115 17.3522 180.704 17.2383 181.355 17.2383C182.013 17.2383 182.602 17.3522 183.123 17.5801C183.65 17.8014 184.1 18.1302 184.471 18.5664C184.848 18.9961 185.138 19.5299 185.34 20.168C185.542 20.806 185.643 21.5384 185.643 22.3652V23.0781C185.643 23.8984 185.542 24.6276 185.34 25.2656C185.138 25.9036 184.848 26.4408 184.471 26.877C184.1 27.3132 183.654 27.6419 183.133 27.8633C182.612 28.0846 182.026 28.1953 181.375 28.1953C180.724 28.1953 180.135 28.0846 179.607 27.8633C179.087 27.6419 178.637 27.3132 178.26 26.877C177.882 26.4408 177.592 25.9036 177.391 25.2656C177.195 24.6276 177.098 23.8984 177.098 23.0781ZM179.832 22.3652V23.0781C179.832 23.5664 179.865 23.9896 179.93 24.3477C180.001 24.7057 180.102 25.002 180.232 25.2363C180.369 25.4707 180.532 25.6432 180.721 25.7539C180.91 25.8646 181.128 25.9199 181.375 25.9199C181.622 25.9199 181.844 25.8646 182.039 25.7539C182.234 25.6432 182.394 25.4707 182.518 25.2363C182.648 25.002 182.742 24.7057 182.801 24.3477C182.866 23.9896 182.898 23.5664 182.898 23.0781V22.3652C182.898 21.89 182.863 21.4733 182.791 21.1152C182.719 20.7507 182.618 20.4544 182.488 20.2266C182.358 19.9922 182.195 19.8164 182 19.6992C181.811 19.5755 181.596 19.5137 181.355 19.5137C181.115 19.5137 180.9 19.5755 180.711 19.6992C180.529 19.8164 180.369 19.9922 180.232 20.2266C180.102 20.4544 180.001 20.7507 179.93 21.1152C179.865 21.4733 179.832 21.89 179.832 22.3652ZM190.105 19.7871V28H187.371V17.4336H189.949L190.105 19.7871ZM192.596 17.3555L192.557 20.0801C192.433 20.054 192.283 20.0345 192.107 20.0215C191.938 20.0085 191.788 20.002 191.658 20.002C191.352 20.002 191.092 20.0508 190.877 20.1484C190.662 20.2396 190.483 20.3796 190.34 20.5684C190.203 20.7507 190.099 20.9785 190.027 21.252C189.956 21.5254 189.913 21.8346 189.9 22.1797L189.383 21.9844C189.383 21.2943 189.435 20.6628 189.539 20.0898C189.65 19.5104 189.812 19.0091 190.027 18.5859C190.242 18.1562 190.499 17.8242 190.799 17.5898C191.105 17.3555 191.45 17.2383 191.834 17.2383C191.964 17.2383 192.101 17.2513 192.244 17.2773C192.394 17.2969 192.511 17.3229 192.596 17.3555ZM198.68 25.1484C198.68 24.9661 198.618 24.8034 198.494 24.6602C198.37 24.5169 198.175 24.3704 197.908 24.2207C197.641 24.0645 197.286 23.8919 196.844 23.7031C196.362 23.5078 195.936 23.306 195.564 23.0977C195.193 22.8893 194.878 22.6582 194.617 22.4043C194.363 22.1504 194.171 21.8607 194.041 21.5352C193.911 21.2096 193.846 20.8385 193.846 20.4219C193.846 19.9727 193.927 19.5592 194.09 19.1816C194.259 18.7975 194.5 18.4622 194.812 18.1758C195.125 17.8828 195.506 17.6549 195.955 17.4922C196.411 17.3229 196.922 17.2383 197.488 17.2383C198.283 17.2383 198.963 17.3783 199.529 17.6582C200.102 17.9316 200.542 18.3158 200.848 18.8105C201.154 19.3053 201.307 19.8815 201.307 20.5391H198.572C198.572 20.3047 198.536 20.0964 198.465 19.9141C198.393 19.7253 198.276 19.5788 198.113 19.4746C197.957 19.3704 197.745 19.3184 197.479 19.3184C197.283 19.3184 197.107 19.3607 196.951 19.4453C196.801 19.5299 196.681 19.6439 196.59 19.7871C196.505 19.9238 196.463 20.0866 196.463 20.2754C196.463 20.4186 196.492 20.5456 196.551 20.6562C196.616 20.7669 196.717 20.8743 196.854 20.9785C196.99 21.0827 197.173 21.1934 197.4 21.3105C197.635 21.4212 197.921 21.5449 198.26 21.6816C198.963 21.9421 199.539 22.222 199.988 22.5215C200.444 22.821 200.783 23.1725 201.004 23.5762C201.225 23.9733 201.336 24.4648 201.336 25.0508C201.336 25.5195 201.245 25.946 201.062 26.3301C200.887 26.7142 200.63 27.0462 200.291 27.3262C199.952 27.6061 199.546 27.821 199.07 27.9707C198.602 28.1204 198.077 28.1953 197.498 28.1953C196.645 28.1953 195.926 28.026 195.34 27.6875C194.754 27.349 194.311 26.916 194.012 26.3887C193.712 25.8548 193.562 25.3014 193.562 24.7285H196.16C196.173 25.0801 196.238 25.3568 196.355 25.5586C196.479 25.7539 196.645 25.8906 196.854 25.9688C197.062 26.0469 197.293 26.0859 197.547 26.0859C197.801 26.0859 198.009 26.0534 198.172 25.9883C198.341 25.9167 198.468 25.8092 198.553 25.666C198.637 25.5163 198.68 25.3438 198.68 25.1484ZM217.762 13.7812V28H214.998L210.535 19.1035V28H207.82V13.7812H210.545L215.047 22.7754V13.7812H217.762ZM219.617 23.0781V22.3652C219.617 21.5384 219.715 20.806 219.91 20.168C220.112 19.5299 220.398 18.9961 220.77 18.5664C221.141 18.1302 221.587 17.8014 222.107 17.5801C222.635 17.3522 223.224 17.2383 223.875 17.2383C224.533 17.2383 225.122 17.3522 225.643 17.5801C226.17 17.8014 226.619 18.1302 226.99 18.5664C227.368 18.9961 227.658 19.5299 227.859 20.168C228.061 20.806 228.162 21.5384 228.162 22.3652V23.0781C228.162 23.8984 228.061 24.6276 227.859 25.2656C227.658 25.9036 227.368 26.4408 226.99 26.877C226.619 27.3132 226.173 27.6419 225.652 27.8633C225.132 28.0846 224.546 28.1953 223.895 28.1953C223.243 28.1953 222.654 28.0846 222.127 27.8633C221.606 27.6419 221.157 27.3132 220.779 26.877C220.402 26.4408 220.112 25.9036 219.91 25.2656C219.715 24.6276 219.617 23.8984 219.617 23.0781ZM222.352 22.3652V23.0781C222.352 23.5664 222.384 23.9896 222.449 24.3477C222.521 24.7057 222.622 25.002 222.752 25.2363C222.889 25.4707 223.051 25.6432 223.24 25.7539C223.429 25.8646 223.647 25.9199 223.895 25.9199C224.142 25.9199 224.363 25.8646 224.559 25.7539C224.754 25.6432 224.913 25.4707 225.037 25.2363C225.167 25.002 225.262 24.7057 225.32 24.3477C225.385 23.9896 225.418 23.5664 225.418 23.0781V22.3652C225.418 21.89 225.382 21.4733 225.311 21.1152C225.239 20.7507 225.138 20.4544 225.008 20.2266C224.878 19.9922 224.715 19.8164 224.52 19.6992C224.331 19.5755 224.116 19.5137 223.875 19.5137C223.634 19.5137 223.419 19.5755 223.23 19.6992C223.048 19.8164 222.889 19.9922 222.752 20.2266C222.622 20.4544 222.521 20.7507 222.449 21.1152C222.384 21.4733 222.352 21.89 222.352 22.3652ZM230.115 26.6035C230.115 26.1738 230.258 25.8158 230.545 25.5293C230.831 25.2363 231.219 25.0898 231.707 25.0898C232.195 25.0898 232.583 25.2363 232.869 25.5293C233.156 25.8158 233.299 26.1738 233.299 26.6035C233.299 27.0332 233.156 27.3913 232.869 27.6777C232.583 27.9642 232.195 28.1074 231.707 28.1074C231.219 28.1074 230.831 27.9642 230.545 27.6777C230.258 27.3913 230.115 27.0332 230.115 26.6035ZM244.119 22.6484V24.9238H235.438L235.311 23.1367L240.145 13.7812H242.312L240.096 17.9414L237.986 22.6484H244.119ZM242.908 13.7812V28H240.164V13.7812H242.908ZM248.221 21.5547L246.033 21.0078L246.746 13.7812H253.611V16.125H248.992L248.729 19.1816C248.878 19.0775 249.1 18.9635 249.393 18.8398C249.692 18.7161 250.024 18.6543 250.389 18.6543C250.975 18.6543 251.495 18.7617 251.951 18.9766C252.407 19.1914 252.791 19.5039 253.104 19.9141C253.416 20.3242 253.654 20.8255 253.816 21.418C253.979 22.0104 254.061 22.681 254.061 23.4297C254.061 24.0612 253.973 24.6634 253.797 25.2363C253.628 25.8092 253.37 26.3171 253.025 26.7598C252.68 27.2025 252.247 27.554 251.727 27.8145C251.206 28.0684 250.597 28.1953 249.9 28.1953C249.373 28.1953 248.862 28.1042 248.367 27.9219C247.879 27.7396 247.439 27.4694 247.049 27.1113C246.658 26.7467 246.346 26.3105 246.111 25.8027C245.877 25.2884 245.76 24.7025 245.76 24.0449H248.465C248.491 24.429 248.566 24.7643 248.689 25.0508C248.82 25.3307 248.982 25.5456 249.178 25.6953C249.38 25.8451 249.614 25.9199 249.881 25.9199C250.141 25.9199 250.366 25.8548 250.555 25.7246C250.743 25.5879 250.893 25.3991 251.004 25.1582C251.115 24.9173 251.196 24.6374 251.248 24.3184C251.3 23.9928 251.326 23.6445 251.326 23.2734C251.326 22.8958 251.29 22.554 251.219 22.248C251.154 21.9421 251.049 21.6816 250.906 21.4668C250.77 21.2454 250.594 21.0762 250.379 20.959C250.164 20.8353 249.91 20.7734 249.617 20.7734C249.22 20.7734 248.921 20.8581 248.719 21.0273C248.523 21.1901 248.357 21.3659 248.221 21.5547Z"
    fill="#1AFF74" />
  <path
    d="M28.7 38.388L29.684 38.988C29.132 39.972 28.568 40.788 28.004 41.412C27.428 42.06 26.636 42.744 25.604 43.464L24.98 42.468C25.748 42.036 26.468 41.448 27.14 40.692C27.692 40.056 28.208 39.288 28.7 38.388ZM29.048 43.932H26.804V42.84H34.064C34.016 44.376 33.944 45.612 33.824 46.572C33.704 47.508 33.512 48.168 33.236 48.54C32.96 48.9 32.516 49.104 31.904 49.14H29.636L29.324 48.012C30.032 48.036 30.704 48.06 31.328 48.06C31.928 48.06 32.336 47.808 32.528 47.304C32.72 46.776 32.852 45.648 32.912 43.932H30.2C29.912 45.18 29.528 46.176 29.048 46.92C28.424 47.784 27.5 48.576 26.276 49.272L25.544 48.324C26.624 47.748 27.452 47.1 28.004 46.392C28.448 45.756 28.796 44.94 29.048 43.932ZM32.348 38.232C33.008 40.032 34.22 41.46 35.996 42.516L35.228 43.416C33.38 42.216 32.084 40.68 31.352 38.796L32.348 38.232ZM38.792 40.656H46.22V43.26H38.792V40.656ZM45.116 42.288V41.616H39.896V42.288H45.116ZM42.524 38.136C42.692 38.412 42.848 38.724 43.004 39.06H47.744V40.128H37.256V39.06H41.708C41.552 38.796 41.384 38.556 41.204 38.34L42.524 38.136ZM36.992 46.068H42.152V45.72L44.42 44.808H38.156V43.8H46.7V44.604C45.716 45.036 44.564 45.504 43.268 46.008V46.068H48.008V47.1H43.268V47.988C43.268 48.816 42.86 49.236 42.056 49.236H40.388L40.088 48.204C40.724 48.252 41.228 48.288 41.6 48.288C41.96 48.288 42.152 48.072 42.152 47.664V47.1H36.992V46.068ZM54.332 38.1L55.352 38.628C55.184 38.808 55.028 38.976 54.872 39.132H58.076V40.02C56.78 42.324 54.38 43.632 50.864 43.92L50.384 42.888C51.392 42.828 52.292 42.696 53.084 42.48C52.748 42.072 52.388 41.7 52.028 41.364L53.012 40.896C53.408 41.28 53.792 41.688 54.152 42.12C55.256 41.652 56.132 40.992 56.768 40.14H53.54C52.604 40.692 51.512 41.1 50.252 41.376L49.58 40.332C51.704 39.948 53.288 39.204 54.332 38.1ZM54.14 45.6C54.572 46.032 54.98 46.488 55.364 46.98C56.54 46.452 57.488 45.744 58.184 44.844H54.896C53.852 45.324 52.628 45.708 51.224 45.984L50.54 44.964C53.156 44.712 55.088 43.944 56.312 42.648L57.284 43.176C57.068 43.404 56.828 43.62 56.588 43.812H59.648V44.7C57.932 47.508 54.74 48.972 50.06 49.092L49.604 48C51.416 48 52.976 47.796 54.284 47.388C53.912 46.908 53.528 46.464 53.132 46.08L54.14 45.6ZM67.94 41.28H65.324V40.212H66.944C66.644 39.612 66.32 39.084 65.984 38.616L66.932 38.172C67.28 38.688 67.616 39.252 67.94 39.876L67.28 40.212H69.032C69.368 39.564 69.656 38.868 69.908 38.124L71 38.496C70.748 39.144 70.472 39.708 70.16 40.212H71.696V41.28H69.08V42.792H71.336V43.86H69.08V45.42H72.02V46.5H69.08V49.272H67.94V46.5H65.036V45.42H67.94V43.86H65.696V42.792H67.94V41.28ZM63.776 43.416V49.248H62.684V43.596C62.348 44.508 61.952 45.36 61.472 46.128L60.86 45.192C61.664 44.112 62.252 42.888 62.612 41.508H61.28V40.416H62.684V38.172H63.776V40.416H64.88V41.508H63.776V42.132C64.256 42.636 64.748 43.2 65.252 43.824L64.64 44.736C64.304 44.208 64.016 43.764 63.776 43.416ZM75.62 44.364V44.448C75.608 44.832 75.584 45.192 75.548 45.528H78.152V44.364H75.62ZM75.38 46.536C75.128 47.592 74.684 48.516 74.048 49.284L73.172 48.492C74.036 47.46 74.48 46.14 74.504 44.532V41.88C74.252 42.06 74 42.228 73.748 42.396L73.016 41.52C74.444 40.692 75.656 39.54 76.664 38.076L77.816 38.34C77.648 38.58 77.492 38.82 77.336 39.048H81.656V39.888C81.2 40.332 80.744 40.716 80.288 41.052H83.156V48.024C83.156 48.792 82.712 49.176 81.836 49.176H80.324L80.048 48.12C80.576 48.156 81.056 48.18 81.512 48.18C81.86 48.18 82.04 47.988 82.04 47.628V46.536H79.268V49.02H78.152V46.536H75.38ZM82.04 45.528V44.364H79.268V45.528H82.04ZM82.04 43.356V42.084H79.268V43.356H82.04ZM75.548 41.052H78.68C79.148 40.752 79.616 40.416 80.084 40.032H76.556C76.22 40.392 75.884 40.74 75.548 41.052ZM78.152 42.084H75.62V43.356H78.152V42.084ZM90.152 42.576H87.596V44.46H90.152V42.576ZM91.292 44.46H93.824V42.576H91.292V44.46ZM88.412 40.224C87.98 40.692 87.512 41.124 87.032 41.508H90.86C91.244 41.148 91.628 40.716 92.036 40.224H88.412ZM86.444 41.964C86.192 42.132 85.952 42.3 85.712 42.456L84.944 41.532C86.408 40.704 87.656 39.552 88.7 38.088L89.864 38.34C89.672 38.64 89.468 38.928 89.264 39.192H93.512V40.056C93.128 40.62 92.744 41.1 92.372 41.508H94.976V45.54H87.596V47.412C87.596 47.76 87.788 47.94 88.148 47.94H93.716C94.088 47.916 94.34 47.808 94.46 47.592C94.556 47.424 94.664 46.944 94.76 46.152L95.876 46.512C95.78 47.292 95.66 47.844 95.54 48.18C95.324 48.732 94.844 49.02 94.1 49.044H87.668C86.852 49.044 86.444 48.648 86.444 47.856V41.964ZM98.588 46.224C99.092 46.572 99.572 46.98 100.028 47.46C100.412 47.856 100.772 48.276 101.108 48.732L100.328 49.392C100.016 48.936 99.656 48.516 99.272 48.108C98.84 47.652 98.384 47.232 97.904 46.848L98.588 46.224ZM112.688 40.86C113.324 41.652 113.912 42.408 114.452 43.128C114.884 42.312 115.22 41.436 115.484 40.5L116.612 40.692C116.252 41.988 115.784 43.14 115.208 44.16C115.904 45.168 116.504 46.092 116.996 46.932L115.964 47.64C115.532 46.872 115.052 46.08 114.5 45.264C113.78 46.26 112.94 47.124 111.98 47.844L111.212 46.872C112.232 46.104 113.096 45.216 113.792 44.208C113.168 43.32 112.496 42.396 111.752 41.436L112.688 40.86ZM110.288 38.568H118.268V43.476C118.268 45.312 118.316 46.488 118.436 47.004C118.532 47.508 118.652 47.772 118.796 47.772C118.904 47.772 119 47.292 119.072 46.344L120.092 46.836C119.936 47.748 119.768 48.372 119.588 48.684C119.384 48.972 119.156 49.128 118.916 49.128C118.292 49.128 117.836 48.744 117.548 47.988C117.248 47.244 117.104 45.744 117.104 43.476V39.672H111.428V43.32C111.404 45.672 110.912 47.652 109.964 49.248L109.004 48.468C109.82 47.1 110.252 45.384 110.288 43.32V38.568ZM123.752 43.356V49.188H122.636V43.644C122.288 44.64 121.856 45.552 121.352 46.38L120.86 45.144C121.652 44.088 122.24 42.876 122.612 41.508H121.136V40.416H122.636V38.172H123.752V40.416H124.964V41.508H123.752V42.048C124.232 42.576 124.7 43.14 125.18 43.764C126.14 43.38 126.98 42.948 127.7 42.468C127.268 42.06 126.896 41.64 126.584 41.196C126.32 41.52 126.032 41.82 125.744 42.108L125.024 41.232C125.84 40.488 126.536 39.468 127.112 38.148L128.204 38.4C128.084 38.664 127.976 38.928 127.856 39.168H131.108V40.044C130.7 40.956 130.124 41.772 129.368 42.492C130.148 42.996 131.06 43.416 132.092 43.776L131.576 44.856C130.388 44.352 129.38 43.8 128.552 43.176C127.808 43.728 126.932 44.208 125.948 44.616H131.024V49.212H129.92V48.756H126.956V49.212H125.84V44.664C125.648 44.736 125.456 44.808 125.276 44.88L124.928 44.424L124.652 44.844C124.304 44.244 124.004 43.752 123.752 43.356ZM126.956 47.7H129.92V45.672H126.956V47.7ZM128.48 41.856C129.044 41.352 129.5 40.824 129.848 40.248H127.244C127.208 40.296 127.172 40.356 127.148 40.404C127.496 40.932 127.94 41.412 128.48 41.856ZM136.688 39.084H138.308V38.196H139.376V39.084H141.044V38.196H142.124V39.084H143.888V40.092H142.124V40.86H141.044V40.092H139.376V40.86H138.308V40.092H136.688V39.084ZM140.108 46.908C139.964 47.148 139.82 47.376 139.664 47.58C139.112 48.276 138.14 48.828 136.748 49.236L136.352 48.3C137.504 47.976 138.344 47.52 138.848 46.932C138.92 46.836 138.98 46.764 139.028 46.692H136.424V45.66H139.532C139.604 45.432 139.664 45.192 139.712 44.952H137.252V41.148H143.156V44.952H140.72L140.576 45.66H143.912V46.692H141.14C141.812 47.364 142.784 47.928 144.056 48.372L143.288 49.284C141.848 48.66 140.78 47.868 140.108 46.908ZM135.656 43.404V49.2H134.576V43.764C134.252 44.724 133.856 45.6 133.388 46.404L132.896 45.144C133.652 44.1 134.216 42.912 134.576 41.592V41.484H133.28V40.44H134.576V38.232H135.656V40.44H136.82V41.484H135.656V42.156C136.148 42.732 136.652 43.392 137.168 44.112L136.568 45.012C136.22 44.364 135.92 43.836 135.656 43.404ZM142.124 44.088V43.476H138.272V44.088H142.124ZM138.272 42.636H142.124V42.036H138.272V42.636ZM145.568 38.616H151.304V39.624H150.176V41.172H151.568V42.228H150.176V44.772H149.072V42.228H147.728C147.584 43.416 147.152 44.316 146.408 44.916L145.544 44.16C146.12 43.716 146.48 43.068 146.612 42.228H145.256V41.172H146.684V39.624H145.568V38.616ZM147.788 39.624V41.172H149.072V39.624H147.788ZM152.096 38.976H153.188V43.092H152.096V38.976ZM145.868 45.78H149.984V44.904H151.112V45.78H155.144V46.824H151.112V47.94H155.804V48.984H145.196V47.94H149.984V46.824H145.868V45.78ZM154.28 44.904H152.672L152.42 43.848C152.936 43.896 153.428 43.92 153.896 43.92C154.136 43.92 154.268 43.728 154.268 43.356V38.316H155.36V43.62C155.36 44.472 155 44.904 154.28 44.904ZM157.46 38.676H167.492V39.768H161.924C161.288 40.812 160.568 41.676 159.752 42.372C161.456 42.252 163.124 42.072 164.756 41.808C164.444 41.448 164.132 41.1 163.808 40.752L164.732 40.164C165.836 41.328 166.688 42.336 167.276 43.2L166.328 43.872C166.088 43.512 165.824 43.14 165.536 42.768C163.112 43.14 160.628 43.392 158.072 43.512L157.76 42.528C158.876 41.904 159.824 40.992 160.604 39.768H157.46V38.676ZM157.964 44.904H161.924V43.668H163.076V44.904H166.964V45.984H163.076V47.676H167.816V48.792H157.184V47.676H161.924V45.984H157.964V44.904ZM172.688 39.084H174.308V38.196H175.376V39.084H177.044V38.196H178.124V39.084H179.888V40.092H178.124V40.86H177.044V40.092H175.376V40.86H174.308V40.092H172.688V39.084ZM176.108 46.908C175.964 47.148 175.82 47.376 175.664 47.58C175.112 48.276 174.14 48.828 172.748 49.236L172.352 48.3C173.504 47.976 174.344 47.52 174.848 46.932C174.92 46.836 174.98 46.764 175.028 46.692H172.424V45.66H175.532C175.604 45.432 175.664 45.192 175.712 44.952H173.252V41.148H179.156V44.952H176.72L176.576 45.66H179.912V46.692H177.14C177.812 47.364 178.784 47.928 180.056 48.372L179.288 49.284C177.848 48.66 176.78 47.868 176.108 46.908ZM171.656 43.404V49.2H170.576V43.764C170.252 44.724 169.856 45.6 169.388 46.404L168.896 45.144C169.652 44.1 170.216 42.912 170.576 41.592V41.484H169.28V40.44H170.576V38.232H171.656V40.44H172.82V41.484H171.656V42.156C172.148 42.732 172.652 43.392 173.168 44.112L172.568 45.012C172.22 44.364 171.92 43.836 171.656 43.404ZM178.124 44.088V43.476H174.272V44.088H178.124ZM174.272 42.636H178.124V42.036H174.272V42.636ZM181.568 38.616H187.304V39.624H186.176V41.172H187.568V42.228H186.176V44.772H185.072V42.228H183.728C183.584 43.416 183.152 44.316 182.408 44.916L181.544 44.16C182.12 43.716 182.48 43.068 182.612 42.228H181.256V41.172H182.684V39.624H181.568V38.616ZM183.788 39.624V41.172H185.072V39.624H183.788ZM188.096 38.976H189.188V43.092H188.096V38.976ZM181.868 45.78H185.984V44.904H187.112V45.78H191.144V46.824H187.112V47.94H191.804V48.984H181.196V47.94H185.984V46.824H181.868V45.78ZM190.28 44.904H188.672L188.42 43.848C188.936 43.896 189.428 43.92 189.896 43.92C190.136 43.92 190.268 43.728 190.268 43.356V38.316H191.36V43.62C191.36 44.472 191 44.904 190.28 44.904ZM199.916 38.244H201.068V41.676H203.72V42.792H201.068V47.712H203.996V48.828H196.916V47.712H199.916V42.792H197.336V41.676H199.916V38.244ZM194.732 44.52C194.3 44.952 193.832 45.372 193.328 45.78L192.968 44.58C194.54 43.296 195.608 42.048 196.16 40.824H193.256V39.732H194.948C194.768 39.276 194.576 38.844 194.372 38.412L195.452 38.112C195.692 38.7 195.896 39.24 196.04 39.732H197.312V40.692C197.012 41.532 196.544 42.372 195.896 43.212C196.568 43.596 197.204 44.028 197.78 44.532L197.132 45.516C196.7 45.072 196.268 44.7 195.848 44.388V49.212H194.732V44.52ZM208.604 40.524C209.66 41.328 210.656 42.132 211.568 42.936C212.192 42.108 212.732 41.172 213.188 40.116L214.22 40.668C213.716 41.832 213.128 42.852 212.456 43.728C213.32 44.52 214.124 45.324 214.844 46.116L213.956 47.004C213.308 46.236 212.552 45.432 211.688 44.616C210.68 45.696 209.504 46.512 208.172 47.088L207.512 46.056C208.772 45.54 209.876 44.796 210.812 43.812C209.9 42.996 208.88 42.168 207.776 41.328L208.604 40.524ZM205.784 38.616H215.408V39.708H206.876V47.664H215.78V48.756H205.784V38.616Z"
    fill="white" />
</svg>