<svg width="325" height="64" viewBox="0 0 325 64" fill="none" xmlns="http://www.w3.org/2000/svg">
  <path
    d="M0.5 32C0.5 14.3269 14.8269 0 32.5 0H292.5C310.173 0 324.5 14.3269 324.5 32C324.5 49.6731 310.173 64 292.5 64H32.5C14.8269 64 0.5 49.6731 0.5 32Z"
    fill="#F13E3A" />
  <path
    d="M26.32 24.5V11.72L32.94 11.14V13.3L28.68 13.66V24.28L26.32 24.5ZM40.7 29.18C39.6867 29.18 38.72 28.96 37.8 28.52C36.88 28.0667 36.1133 27.3067 35.5 26.24C34.8867 25.16 34.58 23.7933 34.58 22.14C34.58 20.5133 34.8933 19.1 35.52 17.9C36.1467 16.6867 36.9733 15.7333 38 15.04C39.04 14.3333 40.1933 13.92 41.46 13.8L41.96 13.78C42.7067 13.78 43.4133 13.92 44.08 14.2C44.7467 14.4667 45.32 14.84 45.8 15.32L44.26 17.34C43.58 16.6733 42.74 16.34 41.74 16.34H41.52C40.3733 16.4467 39.4333 16.9867 38.7 17.96C37.9667 18.92 37.6 20.1933 37.6 21.78C37.6 23.3933 37.9467 24.62 38.64 25.46C39.2667 26.2333 40.0933 26.62 41.12 26.62L41.46 26.6C42.7267 26.4267 43.7467 25.8533 44.52 24.88L46.08 26.58C44.8533 28.1133 43.28 28.9733 41.36 29.16L40.7 29.18ZM47.4628 29.42V13.46L50.4028 13.2V17.22L50.2628 19.34C51.3161 18.1933 52.4895 17.54 53.7828 17.38L54.1628 17.36C55.1761 17.36 55.9428 17.7133 56.4628 18.42C56.9828 19.1267 57.2428 20.18 57.2428 21.58V28.56L54.3028 28.82V22.2C54.3028 21.3333 54.1761 20.7333 53.9228 20.4C53.7095 20.12 53.3828 19.98 52.9428 19.98C52.4095 19.98 51.9361 20.1267 51.5228 20.42C51.1761 20.6733 50.8028 21.02 50.4028 21.46V29.16L47.4628 29.42ZM62.7158 29.44C61.8358 29.44 61.1091 29.1733 60.5358 28.64C59.9758 28.0933 59.6958 27.34 59.6958 26.38C59.6958 25.18 60.2091 24.2067 61.2358 23.46C62.2758 22.7 63.9158 22.1067 66.1558 21.68C66.1424 21.12 65.9891 20.6733 65.6958 20.34C65.4424 20.0467 65.0491 19.9 64.5158 19.9L64.2358 19.92C63.2091 20.0533 62.1824 20.4933 61.1558 21.24L60.0958 19.4C60.7624 18.92 61.4891 18.5067 62.2758 18.16C63.3024 17.7067 64.2958 17.48 65.2558 17.48C67.8024 17.48 69.0758 19.0067 69.0758 22.06V28.6L66.6758 28.82L66.4758 27.64H66.3958C65.1291 28.84 63.9024 29.44 62.7158 29.44ZM63.7558 27.06C64.6091 27.06 65.4091 26.62 66.1558 25.74V23.48C63.7158 24.0133 62.4958 24.82 62.4958 25.9C62.4958 26.34 62.6358 26.6467 62.9158 26.82C63.1291 26.98 63.4091 27.06 63.7558 27.06ZM75.3611 29.18C74.2678 29.18 73.4544 28.84 72.9211 28.16C72.3878 27.48 72.1211 26.52 72.1211 25.28V20.32L70.5411 20.46V18.28L72.2811 17.98L72.6211 14.92L75.0611 14.72V17.74L77.8211 17.5V19.82L75.0611 20.06V25.02C75.0611 26.1933 75.4878 26.78 76.3411 26.78C76.7544 26.78 77.2011 26.66 77.6811 26.42L78.1611 28.52C77.5611 28.8133 76.7744 29.0267 75.8011 29.16L75.3611 29.18ZM84.3595 16.78V14.54L89.6195 14.08C89.4195 13.56 89.2062 13.0667 88.9795 12.6L91.3395 11.76C91.7129 12.44 92.0462 13.1333 92.3395 13.84L97.2595 13.42V15.66L84.3595 16.78ZM81.6195 19.96C81.4195 19.2267 81.0929 18.38 80.6395 17.42C80.1995 16.46 79.7329 15.5533 79.2395 14.7L81.2795 13.42C82.5195 15.4467 83.3729 17.1267 83.8395 18.46L81.6195 19.96ZM81.4195 30.3L78.9995 29.58C79.9729 27.5533 80.9395 25.0933 81.8995 22.2L84.0595 23C83.2195 25.6267 82.3395 28.06 81.4195 30.3ZM85.1395 30.1C84.5529 29.62 83.9329 29.2 83.2795 28.84C84.3062 27.56 85.1862 26.0867 85.9195 24.42L88.1395 24.92C87.7129 25.8267 87.2329 26.7467 86.6995 27.68C86.1662 28.6133 85.6462 29.42 85.1395 30.1ZM87.7395 21.54L93.6395 21.04V19.08L87.7395 19.58V21.54ZM87.6595 30.76C87.5395 30.12 87.2662 29.4133 86.8395 28.64C87.3062 28.6267 87.7662 28.6067 88.2195 28.58C88.6729 28.54 88.9795 28.5133 89.1395 28.5C89.2995 28.4733 89.4062 28.4333 89.4595 28.38C89.5262 28.3267 89.5595 28.24 89.5595 28.12V23.36L85.4595 23.72V17.8L96.0795 16.88V22.8L92.0795 23.14V27.96C92.0795 28.5467 92.0062 29.0067 91.8595 29.34C91.4729 30.1667 90.0729 30.64 87.6595 30.76ZM95.3595 28.9C94.9062 27.7 94.1729 26.2533 93.1595 24.56L95.2195 23.58C96.2195 25.1133 96.9862 26.5 97.5195 27.74L95.3595 28.9ZM103.7 28.5L113.36 27.66V25.74L103.7 26.58V28.5ZM101.44 31.36V24.74L115.74 23.48V30.1L113.36 30.32V29.7L103.7 30.54V31.16L101.44 31.36ZM104.86 21.3L112.08 20.66V19.26L104.86 19.9V21.3ZM102.66 23.4V18.2L114.42 17.16V22.36L102.66 23.4ZM99.9995 19.38V14.8L107.2 14.18C107 13.6733 106.78 13.2 106.54 12.76L108.98 11.82C109.38 12.5 109.726 13.2 110.02 13.92L117.12 13.3V17.88L114.62 18.1V15.86L102.38 16.94V19.18L99.9995 19.38ZM125.4 28.2L131.46 27.66V26.56L125.4 27.1V28.2ZM125.4 25.36L131.46 24.82V23.76L125.4 24.3V25.36ZM125.58 22.36L131.52 21.84C131.28 21.5467 131.053 21.24 130.84 20.92L126.28 21.32C126.08 21.6667 125.846 22.0133 125.58 22.36ZM122.92 31.22V25.16C122.253 25.76 121.513 26.3133 120.7 26.82C120.54 26.5133 120.3 26.1867 119.98 25.84C119.673 25.48 119.373 25.2067 119.08 25.02C120.746 24.0067 122.113 22.86 123.18 21.58L119.5 21.9V19.86L124.72 19.42L125.26 18.42L121.26 18.78V16.9L126.06 16.48L126.32 15.58L120.52 16.08V14.08L126.76 13.54C126.84 13.0733 126.9 12.6267 126.94 12.2L129.48 12.22C129.44 12.5667 129.38 12.9333 129.3 13.32L136.46 12.68V14.68L128.88 15.34L128.64 16.24L135.86 15.62V17.5L127.92 18.2C127.8 18.52 127.66 18.84 127.5 19.16L137.58 18.28V20.32L133.52 20.68C134.76 21.9067 136.26 22.7733 138.02 23.28C137.74 23.5467 137.446 23.8867 137.14 24.3C136.833 24.7 136.586 25.0667 136.4 25.4C135.586 25.0933 134.813 24.6933 134.08 24.2V30.18L131.46 30.4V29.64L125.4 30.18V31.02L122.92 31.22ZM144.08 27.18L152.96 26.42V21.94L144.08 22.7V27.18ZM144.08 20.34L152.96 19.58V15.28L144.08 16.04V20.34ZM141.62 31.1V13.86L155.52 12.64V29.84L152.96 30.08V28.82L144.08 29.58V30.88L141.62 31.1ZM159.08 31.66V29.5L163.34 29.14V18.52L165.72 18.3V31.08L159.08 31.66ZM184.12 29.3C182.32 29.3 180.733 28.7333 179.36 27.6L181.06 25.4C182.126 26.28 183.306 26.72 184.6 26.72H184.82C185.593 26.64 186.18 26.4333 186.58 26.1C186.98 25.7533 187.18 25.32 187.18 24.8C187.18 24.28 186.986 23.9067 186.6 23.68C186.226 23.4533 185.726 23.24 185.1 23.04L182.98 22.34C182.473 22.18 181.993 21.9467 181.54 21.64C181.086 21.3333 180.713 20.9333 180.42 20.44C180.126 19.9467 179.98 19.34 179.98 18.62C179.98 17.4067 180.453 16.36 181.4 15.48C182.346 14.5867 183.58 14.06 185.1 13.9L185.72 13.88C187.266 13.88 188.606 14.38 189.74 15.38L188.24 17.38C187.44 16.74 186.526 16.42 185.5 16.42L185.1 16.44C183.686 16.6133 182.98 17.1933 182.98 18.18C182.98 18.5267 183.08 18.8 183.28 19C183.48 19.2 183.746 19.3667 184.08 19.5C184.253 19.5667 185.3 19.92 187.22 20.56C188.126 20.84 188.846 21.2733 189.38 21.86C189.926 22.4333 190.2 23.2533 190.2 24.32C190.2 25.5333 189.72 26.62 188.76 27.58C187.813 28.5267 186.48 29.0933 184.76 29.28L184.12 29.3ZM191.916 33.72V18.22L194.316 18.02L194.536 19.16H194.596C195.836 17.9867 197.056 17.4 198.256 17.4C199.469 17.4 200.443 17.86 201.176 18.78C201.923 19.7 202.296 21.02 202.296 22.74C202.296 24.02 202.069 25.1333 201.616 26.08C201.163 27.0133 200.576 27.7467 199.856 28.28C199.016 28.9067 198.163 29.22 197.296 29.22C196.389 29.22 195.543 28.8933 194.756 28.24L194.856 30.06V33.46L191.916 33.72ZM196.636 26.88C197.436 26.88 198.089 26.5267 198.596 25.82C199.049 25.1933 199.276 24.2667 199.276 23.04C199.276 20.9467 198.616 19.9 197.296 19.9C196.456 19.9 195.643 20.3533 194.856 21.26V26.18C195.483 26.6467 196.076 26.88 196.636 26.88ZM208.987 29.3C208.227 29.3 207.474 29.12 206.727 28.76C205.98 28.4 205.354 27.8067 204.847 26.98C204.34 26.1533 204.087 25.12 204.087 23.88C204.087 22.64 204.34 21.56 204.847 20.64C205.354 19.7067 206.014 18.9733 206.827 18.44C207.787 17.8133 208.827 17.5 209.947 17.5C210.707 17.5 211.46 17.68 212.207 18.04C212.954 18.4 213.58 18.9933 214.087 19.82C214.594 20.6467 214.847 21.68 214.847 22.92C214.847 24.16 214.594 25.2467 214.087 26.18C213.58 27.1 212.92 27.8267 212.107 28.36C211.147 28.9867 210.107 29.3 208.987 29.3ZM209.467 26.88C210.227 26.8 210.814 26.4333 211.227 25.78C211.64 25.1133 211.847 24.2533 211.847 23.2C211.847 22.1467 211.64 21.32 211.227 20.72C210.854 20.1867 210.327 19.92 209.647 19.92H209.467C208.707 20 208.12 20.3733 207.707 21.04C207.294 21.7067 207.087 22.56 207.087 23.6C207.087 24.6667 207.294 25.4933 207.707 26.08C208.08 26.6133 208.607 26.88 209.287 26.88H209.467ZM217.307 29.42V18.22L219.707 18.02L219.927 19.48L219.987 19.46C220.467 18.9267 221.007 18.4667 221.607 18.08C222.327 17.6 223.127 17.36 224.007 17.36C225.02 17.36 225.787 17.7133 226.307 18.42C226.827 19.1267 227.087 20.18 227.087 21.58V28.56L224.147 28.82V22.2C224.147 21.3333 224.02 20.7333 223.767 20.4C223.553 20.12 223.227 19.98 222.787 19.98C222.253 19.98 221.78 20.1267 221.367 20.42C221.02 20.6733 220.647 21.02 220.247 21.46V29.16L217.307 29.42ZM233.319 29.3H232.979C231.512 29.3 230.206 28.8933 229.059 28.08L230.399 26.14C231.279 26.78 232.179 27.1 233.099 27.1L233.399 27.08C234.479 26.9733 235.019 26.5333 235.019 25.76C235.019 25.3733 234.812 25.0867 234.399 24.9C233.986 24.7 233.499 24.52 232.939 24.36C232.472 24.28 231.919 24.0733 231.279 23.74C230.212 23.2067 229.679 22.3867 229.679 21.28C229.679 20.28 230.052 19.4333 230.799 18.74C231.546 18.0333 232.566 17.6133 233.859 17.48L234.339 17.46C235.579 17.46 236.686 17.82 237.659 18.54L236.339 20.44C235.606 19.9333 234.859 19.68 234.099 19.68H233.939C233.432 19.7333 233.052 19.8733 232.799 20.1C232.559 20.3133 232.439 20.58 232.439 20.9C232.439 21.2733 232.626 21.54 232.999 21.7C233.426 21.9 233.979 22.0867 234.659 22.26C235.166 22.3933 235.652 22.5733 236.119 22.8C236.599 23.0133 236.992 23.32 237.299 23.72C237.619 24.12 237.779 24.6667 237.779 25.36C237.779 26.3467 237.399 27.2133 236.639 27.96C235.892 28.6933 234.786 29.14 233.319 29.3ZM244.221 29.3C243.461 29.3 242.708 29.12 241.961 28.76C241.215 28.4 240.588 27.8067 240.081 26.98C239.575 26.1533 239.321 25.12 239.321 23.88C239.321 22.64 239.575 21.56 240.081 20.64C240.588 19.7067 241.248 18.9733 242.061 18.44C243.021 17.8133 244.061 17.5 245.181 17.5C245.941 17.5 246.695 17.68 247.441 18.04C248.188 18.4 248.815 18.9933 249.321 19.82C249.828 20.6467 250.081 21.68 250.081 22.92C250.081 24.16 249.828 25.2467 249.321 26.18C248.815 27.1 248.155 27.8267 247.341 28.36C246.381 28.9867 245.341 29.3 244.221 29.3ZM244.701 26.88C245.461 26.8 246.048 26.4333 246.461 25.78C246.875 25.1133 247.081 24.2533 247.081 23.2C247.081 22.1467 246.875 21.32 246.461 20.72C246.088 20.1867 245.561 19.92 244.881 19.92H244.701C243.941 20 243.355 20.3733 242.941 21.04C242.528 21.7067 242.321 22.56 242.321 23.6C242.321 24.6667 242.528 25.4933 242.941 26.08C243.315 26.6133 243.841 26.88 244.521 26.88H244.701ZM252.541 29.24V18.04L254.941 17.84L255.161 19.8L255.221 19.78C256.114 18.22 257.174 17.38 258.401 17.26L258.861 17.24C259.221 17.24 259.508 17.2867 259.721 17.38L259.221 19.96C258.968 19.8933 258.701 19.86 258.421 19.86L258.041 19.88C257.588 19.9067 257.128 20.1133 256.661 20.5C256.194 20.8733 255.801 21.4733 255.481 22.3V28.98L252.541 29.24Z"
    fill="#FEF1FF" />
  <path
    d="M29.048 40.264C30.14 40.264 31.004 40.504 31.64 41.008C32.252 41.488 32.636 42.196 32.792 43.156H31.472C31.352 42.58 31.088 42.148 30.68 41.86C30.272 41.56 29.72 41.416 29.048 41.416C28.22 41.416 27.56 41.692 27.068 42.268C26.54 42.868 26.288 43.696 26.288 44.752C26.288 45.784 26.516 46.576 26.996 47.128C27.5 47.728 28.292 48.028 29.36 48.028C29.78 48.028 30.176 47.968 30.548 47.872C30.908 47.776 31.22 47.632 31.508 47.452V45.592H29.144V44.476H32.816V48.076C32.372 48.424 31.856 48.688 31.268 48.88C30.644 49.072 29.96 49.168 29.216 49.168C27.848 49.168 26.792 48.736 26.036 47.872C25.328 47.068 24.98 46.024 24.98 44.752C24.98 43.468 25.328 42.412 26.036 41.584C26.78 40.696 27.788 40.264 29.048 40.264ZM35.1669 40.312C35.4189 40.312 35.6349 40.384 35.8029 40.552C35.9709 40.708 36.0549 40.912 36.0549 41.164C36.0549 41.416 35.9589 41.62 35.7909 41.788C35.6229 41.944 35.4069 42.028 35.1669 42.028C34.9149 42.028 34.7109 41.944 34.5429 41.788C34.3749 41.62 34.2909 41.404 34.2909 41.164C34.2909 40.912 34.3749 40.708 34.5429 40.552C34.7109 40.384 34.9149 40.312 35.1669 40.312ZM34.5309 42.796H35.8029V49H34.5309V42.796ZM39.4087 40.792V42.796H40.8247V43.852H39.4087V47.452C39.4087 47.62 39.4447 47.74 39.5167 47.824C39.5887 47.896 39.6967 47.944 39.8527 47.944H40.6687V49H39.6487C39.1207 49 38.7247 48.856 38.4847 48.58C38.2447 48.316 38.1367 47.944 38.1367 47.452V43.852H36.9847V42.796H38.1367V41.32L39.4087 40.792ZM41.8489 40.264H43.1209V43.672C43.3489 43.312 43.6369 43.036 43.9849 42.868C44.2969 42.7 44.6449 42.628 45.0409 42.628C45.7849 42.628 46.3489 42.844 46.7329 43.288C47.0929 43.708 47.2729 44.332 47.2729 45.148V49H46.0009V45.364C46.0009 44.812 45.8809 44.404 45.6649 44.116C45.4249 43.816 45.0529 43.672 44.5729 43.672C44.1409 43.672 43.7929 43.84 43.5289 44.188C43.2529 44.536 43.1209 44.98 43.1209 45.52V49H41.8489V40.264ZM48.7161 42.796H49.9881V46.576C49.9881 47.104 50.0961 47.488 50.3241 47.728C50.5401 47.968 50.9001 48.1 51.3921 48.1C51.7281 48.1 52.0281 47.956 52.3161 47.692C52.6041 47.416 52.8081 47.044 52.9161 46.588V42.796H54.1881V49H52.9161V48.16C52.3881 48.832 51.7401 49.168 50.9601 49.168C49.4601 49.168 48.7161 48.328 48.7161 46.66V42.796ZM55.6419 40.264H56.9139V43.72C57.4179 42.988 58.0419 42.628 58.8099 42.628C59.6979 42.628 60.3939 42.952 60.9099 43.6C61.3779 44.2 61.6179 44.956 61.6179 45.868C61.6179 46.816 61.3779 47.596 60.8979 48.196C60.3699 48.844 59.6619 49.168 58.7499 49.168C57.8979 49.168 57.2619 48.856 56.8299 48.256V49H55.6419V40.264ZM58.5219 43.66C58.0419 43.66 57.6579 43.84 57.3699 44.224C57.0339 44.632 56.8779 45.172 56.8779 45.844V45.952C56.8779 46.576 57.0099 47.08 57.2739 47.476C57.5739 47.908 58.0059 48.136 58.5579 48.136C59.1819 48.136 59.6379 47.908 59.9379 47.464C60.1779 47.08 60.3099 46.552 60.3099 45.868C60.3099 45.184 60.1779 44.656 59.9139 44.296C59.6139 43.864 59.1459 43.66 58.5219 43.66ZM64.0498 41.344H62.7178V40.24H66.4978V41.344H65.2018V46.408C65.6698 46.252 66.1138 46.084 66.5458 45.916V47.056C65.4898 47.488 64.2778 47.896 62.9098 48.268L62.5738 47.14C63.0778 47.02 63.5698 46.888 64.0498 46.756V41.344ZM66.8818 39.58H73.6018V40.684H70.8058C70.7458 41.044 70.6738 41.38 70.6018 41.704H73.1218V47.512H72.0178V42.76H68.4297V47.512H67.3378V41.704H69.4738C69.5698 41.368 69.6418 41.032 69.6898 40.684H66.8818V39.58ZM71.3338 47.44C72.2938 48.136 73.0858 48.82 73.7338 49.492L72.9178 50.308C72.3658 49.648 71.5858 48.94 70.5778 48.172L71.3338 47.44ZM69.6178 43.36H70.7578V45.46C70.6978 46.756 70.3378 47.812 69.6898 48.604C69.0538 49.324 68.0218 49.876 66.5818 50.284L65.9578 49.312C67.3498 48.928 68.3098 48.448 68.8138 47.872C69.2938 47.248 69.5698 46.444 69.6178 45.46V43.36ZM84.2818 39.652V50.224H83.1298V49.516H77.0818V50.248H75.9178V39.652H84.2818ZM77.0818 48.412H83.1298V46.42H77.0818V48.412ZM77.0818 45.388H83.1298V43.54H77.0818V45.388ZM77.0818 42.484H83.1298V40.756H77.0818V42.484ZM93.7858 39.076H97.7338V40.12H94.9498V46.432H93.7858V39.076ZM98.6818 41.26H100.122V39.16H101.226V41.26H102.402V42.364H101.226V43.144C101.682 43.66 102.126 44.224 102.582 44.848L101.946 45.808C101.67 45.256 101.43 44.788 101.226 44.404V50.2H100.122V44.716C99.8098 45.676 99.4258 46.552 98.9698 47.368L98.4778 46.108C99.2098 45.004 99.7498 43.756 100.098 42.364H98.6818V41.26ZM102.846 40.108H105.486C105.366 39.82 105.234 39.544 105.09 39.292L106.23 39.1C106.35 39.4 106.482 39.736 106.614 40.108H109.254V41.116H108.126C108.03 41.536 107.922 41.932 107.778 42.304H109.374V44.26H108.294V43.288H103.782V44.272H102.702V42.304H104.394C104.274 41.872 104.154 41.476 104.022 41.116H102.846V40.108ZM106.698 42.304C106.842 41.92 106.95 41.524 107.034 41.116H105.15C105.258 41.476 105.366 41.872 105.462 42.304H106.698ZM102.714 44.728H105.558C105.438 44.368 105.306 44.044 105.162 43.744L106.29 43.552C106.434 43.912 106.566 44.296 106.686 44.728H109.494V45.76H105.558C105.534 46.072 105.498 46.36 105.45 46.648H108.774C108.774 48.46 108.582 49.516 108.198 49.828C108.042 49.948 107.802 50.032 107.49 50.104C107.214 50.152 106.938 50.176 106.662 50.176H106.038L105.738 49.168H106.854C107.118 49.168 107.322 49.108 107.442 49.012C107.562 48.904 107.634 48.448 107.67 47.632H105.186C104.754 48.808 103.962 49.72 102.81 50.356L102.21 49.396C103.614 48.688 104.37 47.476 104.49 45.76H102.714V44.728ZM110.658 44.032H121.518V45.16H110.658V44.032ZM125.238 42.928H126.402V50.284H122.454V49.24H125.238V42.928ZM136.11 40.876C135.942 41.116 135.75 41.32 135.546 41.5L134.946 40.756C135.39 40.396 135.69 39.928 135.846 39.328L136.722 39.46C136.674 39.652 136.614 39.832 136.554 40H137.202V39.172H138.234V40H139.578V40.876H138.234V41.512H139.746V42.424H138.606V43.384C138.966 43.264 139.338 43.12 139.71 42.976L139.878 43.792C139.182 44.092 138.486 44.344 137.778 44.548L137.382 43.708C137.55 43.612 137.646 43.492 137.646 43.36V42.424H136.95C136.89 43.048 136.77 43.516 136.602 43.84C136.362 44.248 135.954 44.608 135.378 44.92L134.73 44.092C135.198 43.876 135.534 43.636 135.738 43.348C135.87 43.144 135.966 42.832 136.026 42.424H134.97V41.512H137.202V40.876H136.11ZM141.042 40.876C140.874 41.128 140.706 41.344 140.526 41.512H142.266V40.876H141.042ZM140.466 41.512L139.89 40.816C140.31 40.432 140.598 39.928 140.742 39.292L141.618 39.424C141.57 39.628 141.51 39.82 141.45 40H142.266V39.172H143.286V40H144.894V40.876H143.286V41.512H145.206V42.424H143.646V43.228C143.646 43.396 143.706 43.492 143.826 43.492H144.174C144.27 43.492 144.354 43.468 144.426 43.432C144.498 43.384 144.558 43.168 144.594 42.76L145.446 43.048C145.362 43.696 145.254 44.068 145.122 44.176C144.978 44.284 144.714 44.344 144.354 44.356H143.514C143.238 44.356 143.022 44.26 142.878 44.092C142.734 43.924 142.674 43.708 142.674 43.456V42.424H142.158C142.086 42.928 141.978 43.324 141.822 43.6C141.57 43.96 141.174 44.272 140.622 44.536L139.986 43.744C140.442 43.576 140.754 43.36 140.946 43.12C141.066 42.952 141.162 42.724 141.222 42.424H140.07V41.512H140.466ZM144.042 44.704V48.184H142.95V45.712H137.31V48.292H136.23V44.704H144.042ZM140.838 48.052C142.518 48.388 144.066 48.82 145.458 49.324L144.846 50.284C143.358 49.696 141.834 49.24 140.274 48.904L140.838 48.052ZM139.794 46.216L140.886 46.336C140.718 47.392 140.214 48.244 139.362 48.892C138.618 49.468 137.286 49.924 135.366 50.26L134.922 49.204C136.566 48.964 137.742 48.628 138.462 48.172C139.182 47.692 139.626 47.044 139.794 46.216ZM148.482 39.076H149.55C149.046 39.892 148.662 40.72 148.398 41.56C148.038 42.592 147.87 43.636 147.87 44.68C147.87 45.712 148.038 46.756 148.398 47.8C148.662 48.628 149.046 49.456 149.55 50.284H148.482C147.918 49.492 147.486 48.676 147.186 47.836C146.814 46.816 146.634 45.772 146.634 44.692C146.634 43.6 146.814 42.544 147.186 41.536C147.486 40.672 147.918 39.856 148.482 39.076ZM155.274 40.264H156.546V49H155.358V48.256C154.926 48.856 154.278 49.168 153.438 49.168C152.526 49.168 151.806 48.844 151.29 48.196C150.81 47.596 150.57 46.816 150.57 45.868C150.57 44.956 150.798 44.2 151.278 43.6C151.782 42.952 152.49 42.628 153.378 42.628C154.134 42.628 154.77 42.988 155.274 43.72V40.264ZM153.666 43.66C153.042 43.66 152.574 43.864 152.274 44.296C152.01 44.656 151.878 45.184 151.878 45.868C151.878 46.552 151.998 47.08 152.25 47.464C152.538 47.908 153.006 48.136 153.63 48.136C154.182 48.136 154.602 47.908 154.914 47.476C155.178 47.08 155.31 46.576 155.31 45.952V45.844C155.31 45.172 155.142 44.632 154.83 44.224C154.518 43.84 154.134 43.66 153.666 43.66ZM160.778 42.628C161.69 42.628 162.362 42.856 162.794 43.312C163.166 43.708 163.358 44.284 163.358 45.04V49H162.182V48.124C161.942 48.436 161.642 48.688 161.282 48.868C160.874 49.06 160.394 49.168 159.842 49.168C159.194 49.168 158.69 49 158.33 48.676C157.934 48.352 157.742 47.932 157.742 47.416C157.742 46.72 158.018 46.18 158.57 45.808C159.074 45.448 159.794 45.268 160.706 45.244L162.098 45.208V44.956C162.098 44.092 161.63 43.66 160.694 43.66C160.298 43.66 159.974 43.732 159.734 43.876C159.446 44.044 159.266 44.296 159.194 44.644L157.934 44.536C158.066 43.864 158.402 43.36 158.93 43.048C159.386 42.76 160.01 42.628 160.778 42.628ZM162.098 46.132L160.79 46.168C159.626 46.192 159.05 46.6 159.05 47.368C159.05 47.608 159.146 47.8 159.35 47.956C159.542 48.112 159.806 48.196 160.13 48.196C160.67 48.196 161.126 48.028 161.51 47.704C161.894 47.38 162.098 46.972 162.098 46.492V46.132ZM164.634 39.076H165.702C166.254 39.856 166.686 40.672 166.998 41.536C167.358 42.544 167.55 43.6 167.55 44.692C167.55 45.772 167.358 46.816 166.998 47.836C166.686 48.676 166.254 49.492 165.702 50.284H164.634C165.126 49.456 165.51 48.628 165.786 47.8C166.134 46.756 166.314 45.712 166.314 44.68C166.314 43.636 166.134 42.592 165.786 41.56C165.51 40.72 165.126 39.892 164.634 39.076ZM177.522 39.82V47.044C177.786 46.96 178.038 46.876 178.278 46.804V47.884C176.694 48.4 174.882 48.88 172.818 49.324L172.506 48.232C172.794 48.172 173.07 48.112 173.346 48.064V39.82H177.522ZM174.462 47.824C175.134 47.668 175.794 47.512 176.418 47.356V45.916H174.462V47.824ZM174.462 44.896H176.418V43.336H174.462V44.896ZM174.462 42.304H176.418V40.864H174.462V42.304ZM179.49 39.22H180.618V41.524H183.234C183.234 45.424 183.174 47.836 183.054 48.748C182.922 49.66 182.31 50.128 181.206 50.128C181.014 50.128 180.678 50.104 180.21 50.08L179.934 49.072C180.354 49.108 180.714 49.132 181.026 49.132C181.578 49.132 181.89 48.832 181.986 48.256C182.058 47.692 182.094 45.82 182.118 42.628H180.618V42.748C180.582 46.192 179.742 48.712 178.11 50.308L177.258 49.552C178.722 48.148 179.466 45.88 179.49 42.748V42.628H178.122V41.524H179.49V39.22ZM186.474 39.076H187.542C187.038 39.892 186.654 40.72 186.39 41.56C186.03 42.592 185.862 43.636 185.862 44.68C185.862 45.712 186.03 46.756 186.39 47.8C186.654 48.628 187.038 49.456 187.542 50.284H186.474C185.91 49.492 185.478 48.676 185.178 47.836C184.806 46.816 184.626 45.772 184.626 44.692C184.626 43.6 184.806 42.544 185.178 41.536C185.478 40.672 185.91 39.856 186.474 39.076ZM191.382 42.628C192.198 42.628 192.822 42.952 193.278 43.624V42.796H194.55V48.592C194.55 50.56 193.578 51.544 191.658 51.544C190.794 51.544 190.134 51.376 189.678 51.052C189.222 50.716 188.946 50.212 188.826 49.528H190.098C190.17 49.888 190.314 50.152 190.554 50.308C190.782 50.452 191.154 50.536 191.658 50.536C192.738 50.536 193.278 49.948 193.278 48.784V47.824C192.822 48.508 192.198 48.856 191.382 48.856C190.542 48.856 189.858 48.568 189.342 48.004C188.814 47.44 188.562 46.696 188.562 45.76C188.562 44.824 188.814 44.08 189.342 43.504C189.858 42.916 190.542 42.628 191.382 42.628ZM191.574 43.66C191.034 43.66 190.614 43.84 190.326 44.224C190.014 44.584 189.87 45.1 189.87 45.76C189.87 46.36 189.99 46.84 190.23 47.188C190.506 47.596 190.95 47.812 191.574 47.812C192.114 47.812 192.534 47.632 192.846 47.272C193.134 46.9 193.29 46.396 193.29 45.76C193.29 45.112 193.134 44.596 192.846 44.224C192.534 43.84 192.114 43.66 191.574 43.66ZM198.614 42.628C199.622 42.628 200.402 42.964 200.93 43.66C201.41 44.284 201.662 45.148 201.674 46.252H196.97C197.018 46.852 197.174 47.32 197.462 47.644C197.75 47.956 198.146 48.124 198.65 48.124C199.094 48.124 199.454 48.016 199.73 47.812C199.946 47.644 200.126 47.368 200.294 47.008H201.566C201.422 47.584 201.146 48.076 200.714 48.46C200.174 48.928 199.49 49.168 198.662 49.168C197.75 49.168 197.018 48.88 196.49 48.316C195.914 47.716 195.626 46.912 195.626 45.892C195.626 44.968 195.89 44.2 196.442 43.576C196.97 42.94 197.702 42.628 198.614 42.628ZM198.65 43.672C198.17 43.672 197.798 43.804 197.51 44.092C197.246 44.368 197.066 44.764 196.994 45.292H200.342C200.222 44.212 199.658 43.672 198.65 43.672ZM202.579 39.076H203.647C204.199 39.856 204.631 40.672 204.943 41.536C205.303 42.544 205.495 43.6 205.495 44.692C205.495 45.772 205.303 46.816 204.943 47.836C204.631 48.676 204.199 49.492 203.647 50.284H202.579C203.071 49.456 203.455 48.628 203.731 47.8C204.079 46.756 204.259 45.712 204.259 44.68C204.259 43.636 204.079 42.592 203.731 41.56C203.455 40.72 203.071 39.892 202.579 39.076Z"
    fill="white" />
</svg>