<svg width="346" height="64" viewBox="0 0 346 64" fill="none" xmlns="http://www.w3.org/2000/svg">
  <path
    d="M0.5 32C0.5 14.3269 14.8269 0 32.5 0H313.5C331.173 0 345.5 14.3269 345.5 32C345.5 49.6731 331.173 64 313.5 64H32.5C14.8269 64 0.5 49.6731 0.5 32Z"
    fill="#1D5E48" />
  <path
    d="M29.1 23.06L32.62 22.76L32.18 21.16C31.8733 20.12 31.5733 19.04 31.28 17.92L30.9 16.44H30.8C30.4133 18.1333 29.9933 19.7867 29.54 21.4L29.1 23.06ZM24.42 29.56L29.16 14.34L32.64 14.02L37.4 28.44L34.3 28.7L33.26 25L28.46 25.42L27.42 29.3L24.42 29.56ZM38.8925 29.42V18.22L41.2925 18.02L41.5125 19.48L41.5725 19.46C42.0525 18.9267 42.5925 18.4667 43.1925 18.08C43.9125 17.6 44.7125 17.36 45.5925 17.36C46.6058 17.36 47.3725 17.7133 47.8925 18.42C48.4125 19.1267 48.6725 20.18 48.6725 21.58V28.56L45.7325 28.82V22.2C45.7325 21.3333 45.6058 20.7333 45.3525 20.4C45.1392 20.12 44.8125 19.98 44.3725 19.98C43.8392 19.98 43.3658 20.1267 42.9525 20.42C42.6058 20.6733 42.2325 21.02 41.8325 21.46V29.16L38.8925 29.42ZM51.705 29.12V17.92L54.645 17.68V28.88L51.705 29.12ZM53.185 16H52.985C52.5583 16 52.1983 15.88 51.905 15.64C51.6117 15.3867 51.465 15.0133 51.465 14.52C51.465 14.04 51.625 13.64 51.945 13.32C52.305 12.96 52.785 12.78 53.385 12.78C53.7983 12.78 54.1517 12.9 54.445 13.14C54.7383 13.38 54.885 13.74 54.885 14.22C54.885 14.7133 54.725 15.12 54.405 15.44C54.0983 15.76 53.6917 15.9467 53.185 16ZM57.7792 29.7V18.5L60.1792 18.3L60.3992 19.78H60.4592C60.9259 19.2333 61.4392 18.7667 61.9992 18.38C62.6659 17.9133 63.4059 17.68 64.2192 17.68C65.6059 17.68 66.5259 18.2467 66.9792 19.38C67.4859 18.78 68.0259 18.2667 68.5992 17.84C69.2926 17.3333 70.0526 17.08 70.8792 17.08C71.8926 17.08 72.6659 17.4333 73.1992 18.14C73.7459 18.8333 74.0192 19.8867 74.0192 21.3V28.28L71.0792 28.54V21.92C71.0792 21.0533 70.9526 20.4533 70.6992 20.12C70.4859 19.84 70.1659 19.7 69.7392 19.7L69.5192 19.72C68.8792 19.7733 68.1592 20.2533 67.3592 21.16V28.86L64.4392 29.12V22.5C64.4392 21.6333 64.3059 21.0333 64.0392 20.7C63.8259 20.42 63.5059 20.28 63.0792 20.28L62.8592 20.3C62.2192 20.3533 61.5059 20.8333 60.7192 21.74V29.44L57.7792 29.7ZM79.5166 29.44C78.6366 29.44 77.9099 29.1733 77.3366 28.64C76.7766 28.0933 76.4966 27.34 76.4966 26.38C76.4966 25.18 77.0099 24.2067 78.0366 23.46C79.0766 22.7 80.7166 22.1067 82.9566 21.68C82.9432 21.12 82.7899 20.6733 82.4966 20.34C82.2432 20.0467 81.8499 19.9 81.3166 19.9L81.0366 19.92C80.0099 20.0533 78.9832 20.4933 77.9566 21.24L76.8966 19.4C77.5632 18.92 78.2899 18.5067 79.0766 18.16C80.1032 17.7067 81.0966 17.48 82.0566 17.48C84.6032 17.48 85.8766 19.0067 85.8766 22.06V28.6L83.4766 28.82L83.2766 27.64H83.1966C81.9299 28.84 80.7032 29.44 79.5166 29.44ZM80.5566 27.06C81.4099 27.06 82.2099 26.62 82.9566 25.74V23.48C80.5166 24.0133 79.2966 24.82 79.2966 25.9C79.2966 26.34 79.4366 26.6467 79.7166 26.82C79.9299 26.98 80.2099 27.06 80.5566 27.06ZM92.1619 29.18C91.0685 29.18 90.2552 28.84 89.7219 28.16C89.1885 27.48 88.9219 26.52 88.9219 25.28V20.32L87.3419 20.46V18.28L89.0819 17.98L89.4219 14.92L91.8619 14.72V17.74L94.6219 17.5V19.82L91.8619 20.06V25.02C91.8619 26.1933 92.2885 26.78 93.1419 26.78C93.5552 26.78 94.0019 26.66 94.4819 26.42L94.9619 28.52C94.3619 28.8133 93.5752 29.0267 92.6019 29.16L92.1619 29.18ZM100.829 29.24C100.003 29.24 99.2092 29.0667 98.4492 28.72C97.6892 28.36 97.0626 27.7667 96.5692 26.94C96.0759 26.1 95.8292 25.0667 95.8292 23.84C95.8292 22.6267 96.0759 21.56 96.5692 20.64C97.0759 19.72 97.7226 18.9867 98.5092 18.44C99.4292 17.8 100.429 17.48 101.509 17.48C102.829 17.48 103.863 17.92 104.609 18.8C105.356 19.68 105.729 20.8867 105.729 22.42C105.729 22.98 105.683 23.44 105.589 23.8L98.6892 24.4C98.8226 25.3067 99.1626 25.9733 99.7092 26.4C100.176 26.76 100.743 26.94 101.409 26.94C102.449 26.94 103.416 26.6 104.309 25.92L105.309 27.64C104.149 28.5333 102.849 29.06 101.409 29.22L100.829 29.24ZM98.6492 22.44L103.209 22.04C103.209 21.2933 103.036 20.7133 102.689 20.3C102.396 19.94 101.956 19.76 101.369 19.76C100.649 19.76 100.029 20.02 99.5092 20.54C99.0559 20.9933 98.7692 21.6267 98.6492 22.44ZM108.39 29.46V14.64C111.537 14.3733 113.257 14.24 113.55 14.24C114.604 14.24 115.604 14.4333 116.55 14.82C117.51 15.2067 118.284 15.92 118.87 16.96C119.47 17.9867 119.77 19.3333 119.77 21C119.77 23.4933 119.124 25.42 117.83 26.78C116.55 28.1267 114.81 28.9 112.61 29.1L108.39 29.46ZM111.35 26.82L112.27 26.74C115.257 26.5133 116.75 24.6933 116.75 21.28C116.75 19.4667 116.35 18.2133 115.55 17.52C114.897 16.9333 114.024 16.64 112.93 16.64C112.744 16.64 112.217 16.68 111.35 16.76V26.82ZM121.842 29.12V17.92L124.782 17.68V28.88L121.842 29.12ZM123.322 16H123.122C122.695 16 122.335 15.88 122.042 15.64C121.748 15.3867 121.602 15.0133 121.602 14.52C121.602 14.04 121.762 13.64 122.082 13.32C122.442 12.96 122.922 12.78 123.522 12.78C123.935 12.78 124.288 12.9 124.582 13.14C124.875 13.38 125.022 13.74 125.022 14.22C125.022 14.7133 124.862 15.12 124.542 15.44C124.235 15.76 123.828 15.9467 123.322 16ZM128.416 29.44V20.56L126.916 20.7V18.52L128.416 18.26V17.48C128.416 16.3333 128.736 15.3533 129.376 14.54C130.016 13.7133 131.043 13.2267 132.456 13.08L133.016 13.06C133.683 13.06 134.243 13.14 134.696 13.3L134.156 15.52C133.876 15.4 133.536 15.34 133.136 15.34L132.796 15.36C132.356 15.4 132.003 15.58 131.736 15.9C131.483 16.2067 131.356 16.6533 131.356 17.24V18L135.396 17.64V16.74C135.396 15.5667 135.696 14.5667 136.296 13.74C136.896 12.9 137.889 12.4067 139.276 12.26L139.756 12.24C140.436 12.24 140.989 12.3133 141.416 12.46L140.876 14.68C140.543 14.5867 140.216 14.54 139.896 14.54C138.843 14.54 138.316 15.1667 138.316 16.42V17.38L140.436 17.2V19.52L138.316 19.7V28.58L135.396 28.84V19.96L131.356 20.32V29.2L128.416 29.44ZM148.89 25.78L153.09 25.42V24.2L148.89 24.56V25.78ZM146.45 23.36L155.33 22.58V21.84L146.45 22.62V23.36ZM146.89 17.06L151.23 16.68C150.617 16.3733 150.037 16.12 149.49 15.92C149.73 15.7333 149.957 15.52 150.17 15.28L147.69 15.5C147.93 15.86 148.104 16.18 148.21 16.46L146.89 17.06ZM151.81 16.62L155.23 16.32C154.937 15.88 154.57 15.42 154.13 14.94L153.07 15.04C152.657 15.64 152.237 16.1667 151.81 16.62ZM146.45 21.28L155.33 20.5V19.76L146.45 20.54V21.28ZM146.45 19.22L155.33 18.44V17.74L146.45 18.52V19.22ZM143.51 31.38C143.337 31.1267 143.11 30.8467 142.83 30.54C142.55 30.2333 142.27 29.9733 141.99 29.76C143.924 29.1867 145.17 28.58 145.73 27.94L141.73 28.28V26.4L146.49 26V24.78L144.05 24.98V17.3L146.05 17.12C145.85 16.6667 145.584 16.2 145.25 15.72L144.83 15.76C144.257 16.5867 143.677 17.2867 143.09 17.86C142.864 17.6867 142.557 17.4867 142.17 17.26C141.797 17.0333 141.464 16.8533 141.17 16.72C142.504 15.5467 143.53 14.1267 144.25 12.46L146.47 12.88L146.03 13.78L150.45 13.38V14.96C151.29 14 151.924 12.9333 152.35 11.76L154.61 12.1C154.49 12.42 154.357 12.74 154.21 13.06L159.71 12.58V14.46L156.77 14.72C157.05 15.0133 157.264 15.2867 157.41 15.54L156.07 16.26L157.85 16.1V23.78L155.55 23.98V25.2L159.77 24.82V26.7L155.55 27.08V30.28L153.09 30.5V27.3L148.59 27.68C148.017 29.16 146.324 30.3933 143.51 31.38ZM166.37 16.62C165.944 16.3 165.384 15.9667 164.69 15.62C163.997 15.2733 163.317 14.9733 162.65 14.72L163.95 12.86C164.604 13.06 165.284 13.32 165.99 13.64C166.71 13.9467 167.297 14.2467 167.75 14.54L166.37 16.62ZM165.21 22.02C164.797 21.7133 164.237 21.3933 163.53 21.06C162.824 20.7133 162.137 20.4267 161.47 20.2L162.73 18.3C163.384 18.5 164.064 18.7467 164.77 19.04C165.49 19.3333 166.077 19.6267 166.53 19.92L165.21 22.02ZM164.19 31.1L162.17 29.66C163.384 27.86 164.644 25.6533 165.95 23.04L167.71 24.48C166.604 26.7467 165.43 28.9533 164.19 31.1ZM168.73 30.46C168.517 29.6867 168.237 28.9133 167.89 28.14C168.33 27.9667 168.764 27.5067 169.19 26.76C169.39 26.4533 169.69 25.8933 170.09 25.08C170.49 24.2667 170.897 23.3333 171.31 22.28L167.55 22.62V20.38L172.29 19.96V17.14L168.35 17.48V15.22L172.29 14.88V11.9L174.71 11.7V14.68L178.79 14.32V16.58L174.71 16.94V19.76L179.53 19.34V21.58L174.09 22.04C173.25 23.9867 172.324 25.78 171.31 27.42L176.01 26.54C175.584 25.8333 175.137 25.1867 174.67 24.6L176.61 23.46C177.29 24.3 177.937 25.2067 178.55 26.18C179.177 27.1533 179.63 28.0467 179.91 28.86L177.77 30.12C177.637 29.6 177.41 29.0333 177.09 28.42C174.89 28.8733 173.224 29.2267 172.09 29.48C170.97 29.7333 170.177 29.9267 169.71 30.06C169.244 30.1933 168.917 30.3267 168.73 30.46ZM184.27 31.3V23.94C183.524 24.7 182.764 25.3533 181.99 25.9C181.897 25.5533 181.757 25.14 181.57 24.66C181.397 24.1667 181.237 23.8 181.09 23.56C183.21 22.16 184.924 20.2867 186.23 17.94L181.67 18.34V16.2L185.17 15.88C184.757 15.1067 184.217 14.3333 183.55 13.56L185.43 12.42C186.23 13.2333 186.837 14.02 187.25 14.78L185.67 15.84L187.53 15.68L187.93 15.54L189.19 16.36C188.604 17.8933 187.837 19.3533 186.89 20.74C187.424 21.1533 188.19 21.8067 189.19 22.7L189.55 23L188.07 25.12C187.697 24.5867 187.21 23.98 186.61 23.3V31.1L184.27 31.3ZM188.51 30.32V27.96L193.33 27.54V20.12L189.39 20.46V18.16L193.33 17.82V11.96L195.79 11.74V17.6L199.57 17.26V19.56L195.79 19.9V27.32L200.05 26.94V29.3L188.51 30.32ZM202.43 30.9V13.66L219.31 12.18V14.46L204.75 15.74V28.42L219.83 27.1V29.38L202.43 30.9ZM207.01 27.34C206.41 26.6867 205.804 26.1267 205.19 25.66C207.03 24.5267 208.757 23.16 210.37 21.56C208.864 20.3733 207.41 19.3 206.01 18.34L207.67 16.72L212.01 19.78C213.21 18.3933 214.23 16.9533 215.07 15.46L217.33 16.16C216.317 17.8933 215.137 19.5467 213.79 21.12C215.524 22.3867 216.917 23.54 217.97 24.58L216.09 26.52C215.117 25.48 213.797 24.2867 212.13 22.94C210.477 24.6467 208.77 26.1133 207.01 27.34ZM221.95 19.7V17.46L229.39 16.82V15.28L223.45 15.8V13.6L238.31 12.3V14.5L231.95 15.06V16.6L239.55 15.92V18.16L221.95 19.7ZM223.99 27.44V20.62L237.71 19.42V25.98L235.11 26.22V21.84L226.47 22.6V27.24L223.99 27.44ZM223.31 31.36C223.15 31.08 222.917 30.7667 222.61 30.42C222.304 30.0733 221.99 29.78 221.67 29.54C226.124 28.42 228.624 27.16 229.17 25.76C229.317 25.3867 229.39 25.04 229.39 24.72V23.1L232.05 22.86V24.56C232.05 25.8 231.524 26.92 230.47 27.92C229.137 29.2 226.75 30.3467 223.31 31.36ZM238.53 30.06C236.81 29.42 234.417 28.72 231.35 27.96L232.53 26.08C233.677 26.3067 234.944 26.5933 236.33 26.94C237.717 27.2733 238.864 27.5933 239.77 27.9L238.53 30.06ZM245.87 30.08V27.16L244.15 27.32V25.64L245.87 25.48V24.32L244.35 24.46V22.78L246.75 22.56C247.19 21.52 247.517 20.5867 247.73 19.76L249.25 19.98L248.95 20.68C248.697 21.3067 248.437 21.8933 248.17 22.44L249.19 22.36V24.04L247.65 24.16V25.32L249.41 25.18V26.86L247.65 27V29.92L245.87 30.08ZM245.47 22.6C245.244 22 244.89 21.3133 244.41 20.54L245.55 19.94C246.044 20.7133 246.41 21.3733 246.65 21.92L245.47 22.6ZM241.97 31.38V18.22L245.63 17.9V16.32L241.51 16.68V14.68L245.63 14.32V12.52L247.89 12.32V14.12L251.85 13.78V15.78L247.89 16.12V17.7L251.61 17.38C251.61 24.8467 251.604 28.6467 251.59 28.78C253.364 26.3267 254.284 23.1667 254.35 19.3L252.05 19.5V17.3L254.39 17.1V11.74L256.71 11.54V12.94L258.49 12.14C259.157 13.3533 259.657 14.42 259.99 15.34L258.03 16.26C257.71 15.26 257.27 14.2 256.71 13.08V16.9L259.93 16.62V18.82L256.85 19.08C257.37 23.36 258.464 26.2733 260.13 27.82C259.864 28.0733 259.57 28.4 259.25 28.8C258.93 29.1867 258.67 29.5467 258.47 29.88C257.284 28.64 256.41 26.92 255.85 24.72C255.357 26.84 254.45 28.8067 253.13 30.62C252.664 30.0867 252.13 29.64 251.53 29.28C251.317 30.16 250.35 30.6333 248.63 30.7C248.55 30.0867 248.37 29.48 248.09 28.88C249.01 28.8267 249.49 28.7733 249.53 28.72C249.584 28.6667 249.61 28.5933 249.61 28.5V19.46L243.91 19.96V31.22L241.97 31.38ZM270.55 18.12L271.65 18.02C272.41 17.38 273.13 16.7133 273.81 16.02L270.55 16.3V18.12ZM268.03 25.26L274.91 24.66V23.38L268.03 23.98V25.26ZM268.03 28.42L274.91 27.82V26.46L268.03 27.06V28.42ZM265.65 31.2V24.66C264.637 25.2067 263.617 25.72 262.59 26.2C262.43 25.9333 262.21 25.62 261.93 25.26C261.65 24.9 261.39 24.6 261.15 24.36C263.79 23.2933 266.264 21.9667 268.57 20.38L261.77 20.98V18.88L268.19 18.32V16.5L263.49 16.92V14.86L268.19 14.44V12.28L270.55 12.08V14.24L274.89 13.86V14.84C275.65 13.96 276.337 13.0533 276.95 12.12L278.99 12.98C277.844 14.66 276.53 16.24 275.05 17.72L279.69 17.32V19.42L272.49 20.04C271.73 20.6667 270.944 21.2733 270.13 21.86L277.41 21.22V30.1L274.91 30.32V29.8L268.03 30.4V31L265.65 31.2Z"
    fill="#EEA3FF" />
  <path
    d="M26.828 39.436C27.524 40.132 28.052 40.756 28.436 41.308L27.548 41.92C27.14 41.356 26.612 40.732 25.964 40.06L26.828 39.436ZM31.136 44.476C31.964 45.388 32.6 46.192 33.056 46.876L32.048 47.572C31.592 46.816 30.992 45.976 30.224 45.052L31.136 44.476ZM29.3 39.16H30.416V40.852C30.404 41.26 30.38 41.656 30.356 42.04H35.264C35.264 45.544 35.108 47.764 34.808 48.724C34.484 49.684 33.92 50.164 33.104 50.164C32.48 50.164 31.964 50.14 31.544 50.104L31.244 49C31.892 49.06 32.492 49.096 33.032 49.096C33.584 49.048 33.896 48.412 33.98 47.188C34.052 45.952 34.1 44.608 34.1 43.156H30.248C30.056 44.656 29.708 45.916 29.216 46.936C28.508 48.34 27.344 49.42 25.712 50.188L25.076 49.18C26.684 48.364 27.776 47.332 28.352 46.072C28.7 45.244 28.952 44.272 29.12 43.156H25.484V42.04H29.24C29.264 41.656 29.288 41.26 29.3 40.852V39.16ZM43.916 39.244H45.068V42.676H47.72V43.792H45.068V48.712H47.996V49.828H40.916V48.712H43.916V43.792H41.336V42.676H43.916V39.244ZM38.732 45.52C38.3 45.952 37.832 46.372 37.328 46.78L36.968 45.58C38.54 44.296 39.608 43.048 40.16 41.824H37.256V40.732H38.948C38.768 40.276 38.576 39.844 38.372 39.412L39.452 39.112C39.692 39.7 39.896 40.24 40.04 40.732H41.312V41.692C41.012 42.532 40.544 43.372 39.896 44.212C40.568 44.596 41.204 45.028 41.78 45.532L41.132 46.516C40.7 46.072 40.268 45.7 39.848 45.388V50.212H38.732V45.52ZM52.604 41.524C53.66 42.328 54.656 43.132 55.568 43.936C56.192 43.108 56.732 42.172 57.188 41.116L58.22 41.668C57.716 42.832 57.128 43.852 56.456 44.728C57.32 45.52 58.124 46.324 58.844 47.116L57.956 48.004C57.308 47.236 56.552 46.432 55.688 45.616C54.68 46.696 53.504 47.512 52.172 48.088L51.512 47.056C52.772 46.54 53.876 45.796 54.812 44.812C53.9 43.996 52.88 43.168 51.776 42.328L52.604 41.524ZM49.784 39.616H59.408V40.708H50.876V48.664H59.78V49.756H49.784V39.616ZM71.228 47.176C70.796 47.164 70.448 46.984 70.16 46.648C69.656 46.06 69.404 44.86 69.404 43.036V41.74H68.072C68.048 42.604 67.94 43.372 67.76 44.068C68.276 44.452 68.768 44.884 69.236 45.352L68.588 46.324C68.18 45.892 67.772 45.52 67.364 45.184C66.968 46.036 66.416 46.744 65.708 47.296L64.868 46.552C65.576 46.012 66.104 45.316 66.452 44.452C66.092 44.188 65.744 43.96 65.396 43.768L66.008 42.88C66.272 43.024 66.524 43.192 66.776 43.36C66.872 42.856 66.932 42.316 66.956 41.74H65.684V40.624H66.956V39.148H68.072V40.624H70.52V43.036C70.52 44.332 70.604 45.22 70.796 45.712C70.868 45.928 70.94 46.048 71.012 46.048C71.072 46.048 71.132 45.88 71.192 45.556C71.24 45.232 71.264 44.848 71.276 44.392L72.14 44.824C72.08 45.88 71.948 46.552 71.756 46.852C71.612 47.068 71.444 47.176 71.228 47.176ZM61.208 40.576H62.816V39.148H63.956V40.576H65.324V41.68H63.956V43.24C64.388 43.12 64.82 43 65.24 42.856V43.948C64.808 44.068 64.388 44.188 63.956 44.296V46.012C63.956 46.792 63.584 47.188 62.852 47.188H61.712L61.448 46.096C61.796 46.144 62.132 46.18 62.456 46.18C62.696 46.18 62.816 46.024 62.816 45.736V44.572C62.276 44.692 61.724 44.812 61.16 44.908L60.896 43.84C61.544 43.756 62.192 43.648 62.816 43.516V41.68H61.208V40.576ZM62.444 47.476L63.404 47.944C62.972 48.856 62.48 49.648 61.916 50.32L60.98 49.636C61.544 49.036 62.036 48.316 62.444 47.476ZM65.324 47.812C65.564 48.496 65.78 49.228 65.972 50.02L64.832 50.284C64.676 49.42 64.484 48.676 64.256 48.028L65.324 47.812ZM67.808 47.644C68.156 48.364 68.456 49.156 68.72 49.996L67.592 50.26C67.364 49.348 67.076 48.556 66.74 47.872L67.808 47.644ZM70.112 47.284C70.832 48.172 71.372 48.952 71.756 49.612L70.808 50.284C70.412 49.552 69.872 48.748 69.188 47.872L70.112 47.284ZM82.064 50.14H81.08L80.792 49.072L81.836 49.096C82.148 49.096 82.316 48.88 82.316 48.46V40.744H77.804V39.688H83.42V48.772C83.42 49.684 82.964 50.14 82.064 50.14ZM73.556 41.152H74.66V50.248H73.556V41.152ZM75.56 39.04C76.112 39.688 76.604 40.408 77.024 41.176L76.004 41.716C75.548 40.876 75.056 40.144 74.528 39.496L75.56 39.04ZM85.52 39.904H89.984V40.996H85.52V39.904ZM85.076 43.144H90.416V44.248H87.716C87.284 45.892 86.912 47.092 86.6 47.86C87.392 47.692 88.196 47.452 89 47.152C88.724 46.564 88.448 46.012 88.172 45.496L89.132 45.028C89.684 46.036 90.212 47.152 90.716 48.364L89.732 48.868L89.42 48.1C88.16 48.532 86.804 48.88 85.34 49.144L85.064 48.064C85.184 48.04 85.256 48.004 85.304 47.968C85.628 47.5 86.06 46.264 86.612 44.248H85.076V43.144ZM92.048 39.196H93.176V41.524H95.768C95.768 45.436 95.708 47.848 95.6 48.76C95.468 49.672 94.856 50.128 93.764 50.128C93.572 50.128 93.236 50.104 92.756 50.08L92.492 49.072C92.924 49.108 93.296 49.132 93.608 49.132C94.136 49.132 94.436 48.844 94.532 48.268C94.604 47.704 94.64 45.82 94.664 42.628H93.176V42.736C93.14 46.192 92.312 48.712 90.68 50.308L89.828 49.552C91.28 48.136 92.024 45.868 92.048 42.736V42.628H90.524V41.524H92.048V39.196ZM100.64 45.148V46.528H102.02V45.148H100.64ZM103.004 46.528H104.384V45.148H103.004V46.528ZM104.384 44.212V42.856H103.004V44.212H104.384ZM102.02 42.856H100.64V44.212H102.02V42.856ZM97.136 39.736H107.864V40.84H97.136V39.736ZM106.388 42.772H107.492V50.212H106.388V49.66H98.636V50.212H97.532V42.808H98.636V48.58H106.388V42.772ZM99.548 41.824H105.476V47.56H99.548V41.824ZM110.48 41.656C110.288 42.1 110.048 42.472 109.784 42.76L108.86 42.1C109.436 41.476 109.796 40.624 109.952 39.52L111.02 39.688C110.96 40.024 110.9 40.336 110.828 40.612H111.92V39.196H113.048V40.612H115.196V41.656H113.048V42.94H115.544V44.008H113.048V45.016H115.364V48.22C115.364 49.012 114.956 49.408 114.14 49.408H113.552L113.264 48.34L113.792 48.388C114.116 48.388 114.284 48.244 114.284 47.98V46.072H113.048V50.236H111.92V46.072H110.684V49.492H109.58V45.016H111.92V44.008H109.112V42.94H111.92V41.656H110.48ZM116.108 40.276H117.212V47.62H116.108V40.276ZM118.424 50.128H116.636L116.384 49.036C116.96 49.084 117.5 49.108 118.028 49.108C118.34 49.108 118.496 48.94 118.496 48.616V39.196H119.624V48.904C119.624 49.72 119.216 50.128 118.424 50.128ZM126.428 41.872C125.876 43.024 125.252 44.02 124.568 44.86L123.752 43.876C124.748 42.712 125.6 41.104 126.296 39.064L127.448 39.316C127.28 39.82 127.1 40.3 126.92 40.756H131.864V41.872H128.012V43.588H131.384V44.692H128.012V46.456H131.408V47.548H128.012V50.26H126.86V41.872H126.428ZM122.336 43.852C122 44.26 121.628 44.668 121.244 45.064L120.86 43.84C122.096 42.484 123.008 40.9 123.596 39.1L124.676 39.604C124.364 40.516 123.968 41.38 123.488 42.196V50.26H122.336V43.852ZM134.516 41.848H139.196L138.32 41.284C138.908 40.6 139.328 39.868 139.58 39.088L140.672 39.328C140.6 39.508 140.54 39.688 140.48 39.856H143.708V40.816H141.92C142.088 41.032 142.22 41.248 142.328 41.44L141.404 41.776C141.224 41.44 141.02 41.128 140.804 40.816H140.012C139.796 41.188 139.544 41.536 139.28 41.848H142.628V46.72H141.224V47.344H143.852V48.34H141.224V50.26H140.108V48.34H136.916C136.796 48.652 136.64 48.916 136.448 49.144C136.028 49.624 135.356 49.984 134.42 50.248L133.832 49.348C134.66 49.12 135.224 48.832 135.536 48.496C135.584 48.436 135.62 48.388 135.644 48.34H133.148V47.344H135.992L136.016 47.092V46.72H134.516V41.848ZM137.144 46.72V47.092C137.144 47.176 137.132 47.26 137.132 47.344H140.108V46.72H137.144ZM141.512 45.856V45.304H135.632V45.856H141.512ZM135.632 44.512H141.512V44.02H135.632V44.512ZM135.632 43.24H141.512V42.712H135.632V43.24ZM135.056 40.864C134.78 41.32 134.468 41.752 134.12 42.136L133.172 41.536C133.892 40.768 134.408 39.952 134.72 39.064L135.8 39.304C135.716 39.52 135.632 39.712 135.56 39.904H138.344V40.864H137.012C137.156 41.056 137.276 41.248 137.384 41.428L136.448 41.764C136.28 41.452 136.088 41.152 135.872 40.864H135.056ZM151.352 39.184H152.504V40.996H155.492V42.1H152.504V44.08H155.816V45.184H151.916C151.232 46.792 150.632 47.98 150.104 48.748C151.424 48.604 152.732 48.388 154.028 48.124C153.716 47.476 153.392 46.876 153.068 46.324L154.172 45.964C154.88 47.164 155.504 48.436 156.032 49.804L154.952 50.284C154.796 49.876 154.64 49.48 154.484 49.12C152.696 49.468 150.752 49.744 148.652 49.96L148.388 48.964C148.484 48.928 148.568 48.892 148.628 48.856C149.156 48.388 149.84 47.164 150.68 45.184H148.028V44.08H151.352V42.1H148.604V40.996H151.352V39.184ZM146.144 39.28C146.912 39.88 147.56 40.468 148.1 41.056L147.284 41.884C146.828 41.32 146.168 40.72 145.316 40.072L146.144 39.28ZM145.844 42.088C146.552 42.688 147.152 43.288 147.656 43.888L146.828 44.704C146.408 44.14 145.808 43.528 145.028 42.88L145.844 42.088ZM147.008 45.472L148.04 45.892C147.524 47.392 146.948 48.808 146.324 50.14L145.184 49.636C145.88 48.28 146.492 46.888 147.008 45.472ZM158.108 39.568H166.892V40.588H163.076V41.908H167.72V42.928H157.28V41.908H161.924V40.588H158.108V39.568ZM166.424 43.732V47.764H165.296V44.764H159.8V47.86H158.672V43.732H166.424ZM163.46 47.56C165.032 48.052 166.472 48.64 167.768 49.336L167.168 50.284C165.776 49.492 164.348 48.868 162.884 48.412L163.46 47.56ZM162.056 45.244L163.16 45.34C162.98 47.08 162.608 48.232 162.032 48.808C161.432 49.528 159.98 49.996 157.688 50.2L157.232 49.18C159.176 49.072 160.46 48.724 161.084 48.136C161.636 47.584 161.96 46.612 162.056 45.244ZM171.812 39.112L172.892 39.268C172.844 39.652 172.808 40.024 172.76 40.384H175.148V41.404H172.592C172.532 41.74 172.46 42.076 172.388 42.388H174.788V48.976C174.788 49.696 174.464 50.068 173.828 50.068H173.108L172.856 49.096L173.516 49.144C173.72 49.144 173.828 49.012 173.828 48.76V43.312H170.312V50.08H169.34V42.388H171.32C171.392 42.064 171.452 41.74 171.512 41.404H168.992V40.384H171.668C171.728 39.952 171.776 39.532 171.812 39.112ZM170.66 45.04H171.152C171.008 44.644 170.852 44.272 170.66 43.936L171.464 43.636C171.632 44.032 171.8 44.5 171.944 45.04H172.244C172.412 44.584 172.568 44.092 172.712 43.576L173.54 43.888C173.396 44.308 173.24 44.692 173.084 45.04H173.504V45.904H172.556V46.78H173.564V47.644H172.556V49.792H171.596V47.644H170.588V46.78H171.596V45.904H170.66V45.04ZM175.16 42.292H176.72C176.744 40.948 176.756 39.928 176.756 39.208H177.8C177.8 40.06 177.788 41.092 177.776 42.292H179.72V43.372H177.896C178.268 45.988 178.988 48.028 180.068 49.468L179.312 50.296C178.4 48.964 177.764 47.344 177.404 45.436C176.996 47.368 176.336 48.988 175.436 50.284L174.74 49.492C175.856 47.716 176.504 45.676 176.672 43.372H175.16V42.292ZM178.808 39.712C179.264 40.372 179.624 40.948 179.864 41.452L179.072 42.004C178.808 41.464 178.46 40.864 178.028 40.204L178.808 39.712ZM191.216 39.256L191.768 40.264C190.736 40.624 189.596 40.84 188.348 40.924V42.868H192.056V43.96H190.904V50.248H189.788V43.96H188.348V45.172C188.288 47.284 187.82 48.964 186.944 50.224L186.14 49.36C186.824 48.352 187.196 46.96 187.244 45.172V39.988C188.72 39.964 190.04 39.712 191.216 39.256ZM181.196 40.108H183.332C183.188 39.796 183.02 39.496 182.84 39.22L184.016 39.028C184.16 39.352 184.316 39.712 184.46 40.108H186.68V41.164H181.196V40.108ZM181.076 42.832H182.348C182.192 42.412 182.012 42.016 181.808 41.656L182.804 41.284C182.996 41.716 183.188 42.232 183.356 42.832H184.496C184.688 42.328 184.856 41.812 185 41.272L186.02 41.632C185.876 42.076 185.708 42.472 185.528 42.832H186.752V43.876H184.532V44.956H186.548V45.988H184.532V49.204C184.532 49.924 184.136 50.284 183.344 50.284H182.72L182.468 49.228C182.648 49.276 182.816 49.3 182.972 49.3C183.26 49.3 183.404 49.18 183.404 48.94V45.988H181.268V44.956H183.404V43.876H181.076V42.832ZM181.988 46.516L183.02 46.732C182.732 47.944 182.336 49 181.808 49.9L180.872 49.3C181.4 48.436 181.772 47.5 181.988 46.516ZM185.744 46.432C186.056 47.2 186.308 47.896 186.488 48.52L185.528 48.88C185.336 48.136 185.096 47.404 184.808 46.684L185.744 46.432ZM194.804 46.192V47.068H197.276V46.192H194.804ZM197.276 45.256V44.332H194.804V45.256H197.276ZM194.804 48.016V50.26H193.7V43.336H198.38V48.928C198.38 49.756 197.984 50.176 197.216 50.176H196.28L196.004 49.108L196.856 49.156C197.132 49.156 197.276 49 197.276 48.688V48.016H194.804ZM202.472 44.476H200.516C199.676 44.476 199.268 44.02 199.268 43.108V39.208H200.396V40.624C201.632 40.432 202.64 40.24 203.42 40.024L203.792 41.032C202.808 41.26 201.68 41.476 200.396 41.668V42.868C200.396 43.252 200.54 43.456 200.828 43.456H202.256C202.448 43.456 202.58 43.396 202.664 43.276C202.76 43.132 202.832 42.724 202.856 42.052L203.924 42.4C203.828 43.396 203.66 43.996 203.444 44.2C203.228 44.38 202.904 44.476 202.472 44.476ZM200.396 47.248V48.712C200.396 48.928 200.528 49.036 200.816 49.036H202.268C202.46 49.036 202.604 48.976 202.688 48.868C202.784 48.724 202.856 48.316 202.892 47.644L203.924 47.98C203.828 48.988 203.672 49.588 203.456 49.78C203.252 49.96 202.928 50.056 202.484 50.056H200.492C199.676 50.056 199.268 49.684 199.268 48.964V44.896H200.396V46.216C201.524 46.096 202.532 45.892 203.42 45.628L203.792 46.648C202.736 46.936 201.596 47.128 200.396 47.248ZM197.516 40C198.224 40.948 198.764 41.776 199.148 42.472L198.212 43.144C198.092 42.904 197.96 42.652 197.816 42.4C196.568 42.592 195.068 42.736 193.316 42.832L193.004 41.884C193.208 41.812 193.376 41.716 193.52 41.596C194.252 40.78 194.816 39.964 195.2 39.148L196.292 39.472C195.788 40.456 195.224 41.236 194.6 41.836C195.44 41.788 196.352 41.692 197.324 41.572C197.108 41.236 196.88 40.9 196.64 40.552L197.516 40ZM209.372 39.196H210.524V40.468C210.512 40.828 210.5 41.176 210.476 41.524H215.048C215 43.636 214.928 45.34 214.808 46.648C214.688 47.932 214.484 48.832 214.196 49.348C213.908 49.84 213.452 50.104 212.816 50.152H211.148L210.836 49.048C211.34 49.072 211.808 49.084 212.252 49.084C212.888 49.084 213.308 48.688 213.5 47.908C213.704 47.08 213.836 45.316 213.896 42.628H210.38C210.188 44.296 209.84 45.7 209.324 46.828C208.604 48.304 207.44 49.444 205.832 50.236L205.22 49.276C206.804 48.412 207.872 47.32 208.448 45.988C208.82 45.052 209.084 43.924 209.228 42.628H205.856V41.524H209.324C209.348 41.164 209.36 40.816 209.372 40.468V39.196Z"
    fill="white" />
</svg>