<svg width="166" height="64" viewBox="0 0 166 64" fill="none" xmlns="http://www.w3.org/2000/svg">
  <path
    d="M0 32C0 14.3269 14.3269 0 32 0H134C151.673 0 166 14.3269 166 32C166 49.6731 151.673 64 134 64H32C14.3269 64 0 49.6731 0 32Z"
    fill="#173CB3" />
  <path
    d="M124.81 32C124.81 36.5 106.048 54 82.9048 54C59.7614 54 41 37 41 32C41 27 59.7614 10 82.9048 10C106.048 10 124.81 27.5 124.81 32Z"
    fill="white" />
  <circle cx="80.9048" cy="32" r="14" fill="#2A98F7" />
  <circle cx="80.9048" cy="32" r="6" fill="#0E1418" />
</svg>