<svg width="64" height="64" viewBox="0 0 64 64" fill="none" xmlns="http://www.w3.org/2000/svg">
  <path
    d="M33.4207 8.27325C32.3328 7.90892 31.6672 7.90892 30.5793 8.27325C27.9254 9.16206 28.0406 14.7868 28.8606 20.3363C26.7843 15.1249 24.0606 10.2023 21.3191 10.7657C20.1954 10.9967 19.6196 11.3308 18.8616 12.192C17.0387 14.263 19.8534 18.964 23.2819 23.301C18.9374 19.882 14.2302 17.0776 12.1632 18.9051C11.3037 19.665 10.9708 20.2415 10.7423 21.3658C10.1888 24.0898 15.0467 26.7845 20.223 28.844C14.7104 28.0391 9.15601 27.9435 8.27325 30.5793C7.90892 31.6672 7.90892 32.3328 8.27325 33.4207C9.15601 36.0565 14.7104 35.9609 20.223 35.156C15.0467 37.2155 10.1887 39.9102 10.7423 42.6342C10.9708 43.7585 11.3036 44.335 12.1631 45.0949C14.2301 46.9224 18.9373 44.118 23.2817 40.6991C19.8533 45.0361 17.0386 49.737 18.8615 51.808C19.6195 52.6692 20.1953 53.0033 21.319 53.2343C24.0605 53.7977 26.7844 48.8749 28.8607 43.6635C28.0406 49.213 27.9254 54.8379 30.5793 55.7267C31.6672 56.0911 32.3328 56.0911 33.4207 55.7267C36.0746 54.8379 35.9594 49.2128 35.1393 43.6631C37.2156 48.8747 39.9395 53.7977 42.681 53.2343C43.8048 53.0033 44.3805 52.6692 45.1385 51.808C46.9615 49.737 44.1468 45.0361 40.7184 40.6991C45.0628 44.118 49.7699 46.9224 51.8369 45.0949C52.6964 44.335 53.0293 43.7585 53.2578 42.6342C53.8113 39.9102 48.9535 37.2156 43.7772 35.156C49.2896 35.9609 54.844 36.0565 55.7267 33.4207C56.0911 32.3328 56.0911 31.6672 55.7267 30.5793C54.844 27.9435 49.2896 28.0391 43.7772 28.844C48.9534 26.7844 53.8113 24.0898 53.2578 21.3658C53.0293 20.2415 52.6964 19.665 51.8369 18.9051C49.7699 17.0776 45.0627 19.882 40.7182 23.301C44.1467 18.964 46.9614 14.263 45.1385 12.192C44.3805 11.3308 43.8047 10.9967 42.681 10.7657C39.9395 10.2023 37.2156 15.1251 35.1393 20.3366C35.9594 14.787 36.0746 9.16207 33.4207 8.27325Z"
    fill="#F6CE0C" />
</svg>