<svg width="385" height="140" viewBox="0 0 385 140" fill="none" xmlns="http://www.w3.org/2000/svg">
  <path d="M54.9469 17.5H201.303L217.776 1H384V34.5L375.514 43C378.343 45.8333 384 51.5 384 51.5V139.5" stroke="#8D96C4"
    stroke-width="0.8" stroke-linecap="round" stroke-linejoin="round" />
  <path fill-rule="evenodd" clip-rule="evenodd" d="M58.4403 14L52.7321 21H50.4536L56.1618 14L58.4403 14Z"
    fill="#8D96C3" />
  <path fill-rule="evenodd" clip-rule="evenodd" d="M54.4469 14L48.7387 21H46.4602L52.1684 14L54.4469 14Z"
    fill="#8D96C3" />
  <path fill-rule="evenodd" clip-rule="evenodd" d="M50.4536 14L44.7453 21H42.4668L48.1751 14L50.4536 14Z"
    fill="#8D96C3" />
  <path fill-rule="evenodd" clip-rule="evenodd" d="M46.4602 14L40.752 21H38.4735L44.1817 14L46.4602 14Z"
    fill="#8D96C3" />
  <path fill-rule="evenodd" clip-rule="evenodd" d="M42.4668 14L36.7586 21H34.4801L40.1883 14L42.4668 14Z"
    fill="#8D96C3" />
  <path fill-rule="evenodd" clip-rule="evenodd" d="M38.4735 14L32.7652 21H30.4867L36.195 14L38.4735 14Z"
    fill="#8D96C3" />
  <path fill-rule="evenodd" clip-rule="evenodd" d="M34.4801 14L28.7719 21H26.4934L32.2016 14L34.4801 14Z"
    fill="#8D96C3" />
  <path fill-rule="evenodd" clip-rule="evenodd" d="M30.4867 14L24.7785 21H22.5L28.2082 14L30.4867 14Z" fill="#8D96C3" />
  <path d="M14.7785 21H12.5L18.2082 14H20.4867L14.7785 21Z" fill="#1136F1" />
  <path d="M10.7785 21H8.5L14.2082 14H16.4867L10.7785 21Z" fill="#1136F1" />
  <path d="M6.77849 21H4.5L10.2082 14H12.4867L6.77849 21Z" fill="#1136F1" />
  <path d="M2.77849 21H0.5L6.20824 14H8.48673L2.77849 21Z" fill="#1136F1" />
</svg>