<svg width="336" height="92" viewBox="0 0 336 92" fill="none" xmlns="http://www.w3.org/2000/svg">
  <path d="M5 9.5V52L29.5 76.5H79L93.5 91H335.5" stroke="#8D96C3" stroke-width="0.5" stroke-linecap="round"
    stroke-linejoin="round" />
  <path d="M94.8297 83.4475H97.1082L91.3999 76.4475H89.1214L94.8297 83.4475Z" fill="#8D96C3" />
  <path d="M98.8297 83.4475H101.108L95.3999 76.4475H93.1214L98.8297 83.4475Z" fill="#8D96C3" />
  <path d="M102.83 83.4475H105.108L99.3999 76.4475H97.1214L102.83 83.4475Z" fill="#8D96C3" />
  <path d="M106.83 83.4475H109.108L103.4 76.4475H101.121L106.83 83.4475Z" fill="#8D96C3" />
  <path d="M117.154 83.4475H119.432L113.724 76.4475H111.445L117.154 83.4475Z" fill="#1136F1" />
  <path d="M121.147 83.4475H123.425L117.717 76.4475H115.439L121.147 83.4475Z" fill="#1136F1" />
  <path d="M125.14 83.4475H127.419L121.711 76.4475H119.432L125.14 83.4475Z" fill="#1136F1" />
  <path d="M129.134 83.4475H131.412L125.704 76.4475H123.425L129.134 83.4475Z" fill="#1136F1" />
  <path d="M133.127 83.4475H135.406L129.697 76.4475H127.419L133.127 83.4475Z" fill="#1136F1" />
  <path d="M137.12 83.4475H139.399L133.691 76.4475H131.412L137.12 83.4475Z" fill="#1136F1" />
  <path d="M141.114 83.4475H143.392L137.684 76.4475H135.406L141.114 83.4475Z" fill="#1136F1" />
  <path d="M145.107 83.4475H147.386L141.677 76.4475H139.399L145.107 83.4475Z" fill="#1136F1" />
  <path d="M149.101 83.4475H151.379L145.671 76.4475H143.392L149.101 83.4475Z" fill="#1136F1" />
  <path d="M153.094 83.4475H155.372L149.664 76.4475H147.386L153.094 83.4475Z" fill="#1136F1" />
  <path d="M157.087 83.4475H159.366L153.658 76.4475H151.379L157.087 83.4475Z" fill="#1136F1" />
  <path d="M161.081 83.4475H163.359L157.651 76.4475H155.372L161.081 83.4475Z" fill="#1136F1" />
  <circle cx="5" cy="5.37048" r="4" stroke="#8D96C3" stroke-width="0.8" stroke-linecap="round"
    stroke-linejoin="round" />
</svg>