<svg width="254" height="64" viewBox="0 0 254 64" fill="none" xmlns="http://www.w3.org/2000/svg">
  <path
    d="M182.305 0H46.8696L33.7313 17.9402H38.2391L36.3252 20.9402H31.5343L0 64H48.2899L52.6643 57.1429H74.1159L69.7414 64L92.3217 64L96.6962 57.1429H118.148L113.773 64L207.13 64L214.215 54.3257H206.135L208.049 51.3257H216.412L254 0H197.757L193.382 6.85714H177.93L182.305 0Z"
    fill="#1136F1" />
  <path
    d="M73.6563 30.824L79.1523 30.344V24.488L73.6563 24.968V30.824ZM67.5363 43.928C67.2803 43.608 66.9283 43.264 66.4803 42.896C66.0323 42.528 65.6163 42.232 65.2323 42.008C66.9603 40.792 68.2163 39.488 69.0003 38.096C69.8003 36.704 70.2963 35.288 70.4883 33.848L65.3043 34.304V31.568L70.7283 31.088V25.232L66.0963 25.64V22.952L86.3523 21.176V23.864L82.1523 24.224V30.08L87.0723 29.648V32.384L82.1523 32.816V42.584L79.1523 42.848V33.08L73.4883 33.584C73.3123 35.408 72.7843 37.216 71.9043 39.008C71.0403 40.784 69.5843 42.424 67.5363 43.928ZM93.6963 34.64C94.2563 32.816 94.6403 30.768 94.8483 28.496L93.2643 28.64C92.9443 30.368 92.5923 31.984 92.2083 33.488C92.7203 33.856 93.2163 34.24 93.6963 34.64ZM90.5763 43.904C90.3843 43.552 90.1283 43.176 89.8083 42.776C89.5043 42.376 89.2003 42.048 88.8963 41.792C90.4643 40.768 91.7203 39.28 92.6643 37.328C91.5443 36.336 90.4323 35.44 89.3283 34.64C89.8083 33.024 90.2563 31.104 90.6723 28.88L89.0883 29V26.384L91.1283 26.216C91.3683 24.584 91.5523 23.032 91.6803 21.56L94.3683 21.488C94.2083 22.928 93.9923 24.424 93.7203 25.976C94.8883 25.88 95.6323 25.8 95.9523 25.736L97.5843 25.808C97.3763 30.064 96.8003 33.592 95.8563 36.392C96.7363 37.176 97.4403 37.912 97.9683 38.6L96.2643 41.12C95.8643 40.528 95.3203 39.88 94.6323 39.176C93.6083 41.112 92.2563 42.688 90.5763 43.904ZM98.5203 31.856C98.2003 30.8 97.8963 29.936 97.6083 29.264C98.0883 29.088 98.5923 28.552 99.1203 27.656C99.4403 27.16 99.9283 26.24 100.584 24.896C101.256 23.552 101.864 22.088 102.408 20.504L105.384 21.032C104.296 23.656 103.056 26.08 101.664 28.304L107.328 27.44C106.736 26.448 106.12 25.544 105.48 24.728L107.76 23.384C108.592 24.392 109.368 25.48 110.088 26.648C110.808 27.8 111.344 28.856 111.696 29.816L109.248 31.352C109.152 31.032 108.944 30.512 108.624 29.792C106 30.256 104.008 30.616 102.648 30.872C101.288 31.112 100.32 31.304 99.7443 31.448C99.1843 31.576 98.7763 31.712 98.5203 31.856ZM101.496 39.488L107.376 38.984V34.928L101.496 35.432V39.488ZM98.9043 43.208V33.176L110.088 32.192V42.2L107.376 42.44V41.504L101.496 42.008V42.968L98.9043 43.208ZM124.8 25.256L131.544 24.656V23.096L124.8 23.696V25.256ZM124.8 28.976L131.544 28.376V26.816L124.8 27.416V28.976ZM122.208 31.4V21.704L134.232 20.648V30.344L122.208 31.4ZM114.072 43.928C113.976 43.16 113.712 42.312 113.28 41.384C113.76 41.352 114.2 41.32 114.6 41.288C115.016 41.272 115.304 41.248 115.464 41.216C115.64 41.2 115.76 41.152 115.824 41.072C115.904 41.008 115.944 40.896 115.944 40.736V35.648L113.376 36.512L112.68 33.848C113.64 33.576 114.728 33.24 115.944 32.84V28.544L113.088 28.784V26.144L115.944 25.904V21.392L118.752 21.152V25.664L121.104 25.448V28.088L118.752 28.304V31.88L121.008 31.088L121.368 33.68L118.752 34.664V40.472C118.752 41.176 118.672 41.728 118.512 42.128C118.368 42.528 118.096 42.856 117.696 43.112C116.928 43.56 115.72 43.832 114.072 43.928ZM120.216 42.536V39.992L126.624 39.44V36.344L121.824 36.752V34.232L126.624 33.824V31.592L129.528 31.328V33.56L134.376 33.152V35.672L129.528 36.08V39.176L135.336 38.672V41.216L120.216 42.536ZM142.44 41.216C141.128 41.216 140.152 40.808 139.512 39.992C138.872 39.176 138.552 38.024 138.552 36.536V30.584L136.656 30.752V28.136L138.744 27.776L139.152 24.104L142.08 23.864V27.488L145.392 27.2V29.984L142.08 30.272V36.224C142.08 37.632 142.592 38.336 143.616 38.336C144.112 38.336 144.648 38.192 145.224 37.904L145.8 40.424C145.08 40.776 144.136 41.032 142.968 41.192L142.44 41.216ZM150.516 41.528C149.46 41.528 148.588 41.208 147.9 40.568C147.228 39.912 146.892 39.008 146.892 37.856C146.892 36.416 147.508 35.248 148.74 34.352C149.988 33.44 151.956 32.728 154.644 32.216C154.628 31.544 154.444 31.008 154.092 30.608C153.788 30.256 153.316 30.08 152.676 30.08L152.34 30.104C151.108 30.264 149.876 30.792 148.644 31.688L147.372 29.48C148.172 28.904 149.044 28.408 149.988 27.992C151.22 27.448 152.412 27.176 153.564 27.176C156.62 27.176 158.148 29.008 158.148 32.672V40.52L155.268 40.784L155.028 39.368H154.932C153.412 40.808 151.94 41.528 150.516 41.528ZM151.764 38.672C152.788 38.672 153.748 38.144 154.644 37.088V34.376C151.716 35.016 150.252 35.984 150.252 37.28C150.252 37.808 150.42 38.176 150.756 38.384C151.012 38.576 151.348 38.672 151.764 38.672Z"
    fill="white" />
  <path
    d="M178.444 35L182 32M182 32L178.444 29M182 32H174M168 32C168 37.5228 172.477 42 178 42C183.523 42 188 37.5228 188 32C188 26.4772 183.523 22 178 22C172.477 22 168 26.4772 168 32Z"
    stroke="white" stroke-linecap="round" stroke-linejoin="round" />
</svg>