<svg width="430" height="180" viewBox="0 0 430 180" fill="none" xmlns="http://www.w3.org/2000/svg">
  <path fill-rule="evenodd" clip-rule="evenodd"
    d="M37.3607 19.7365L34.1618 20.0179V19.7365H24.6743V26.3153H53.0921L80.8759 23.8767C80.7635 24.7942 80.6021 25.6071 80.3916 26.3153H89.8626C89.8976 26.0952 89.9305 25.8719 89.9614 25.6454C86.6381 25.3774 83.6632 24.6807 81.0367 23.5552V19.7365H37.3607Z"
    fill="white" />
  <path fill-rule="evenodd" clip-rule="evenodd"
    d="M28.212 40.1965C30.6241 41.322 33.7866 41.8847 37.6995 41.8847C39.8436 41.8847 42.2557 41.7507 44.9358 41.4827L67.5655 39.4729L27.1508 39.4729C27.4731 39.7627 27.8268 40.0039 28.212 40.1965ZM73.9612 46.0517V40.8396L64.4736 41.7239V46.0517H73.9612ZM43.4081 46.0517V43.573L33.9206 44.3769V46.0517H43.4081Z"
    fill="white" />
  <path fill-rule="evenodd" clip-rule="evenodd"
    d="M39.7815 65.7883C40.9879 63.7755 41.8484 61.6496 42.3628 59.4104L44.6657 59.2095H17.5988V61.581L31.9104 60.2947C30.9835 62.2411 29.5706 64.0723 27.6718 65.7883H39.7815ZM64.4736 65.7883V59.2095H73.9611V65.7883H64.4736Z"
    fill="white" />
  <path fill-rule="evenodd" clip-rule="evenodd"
    d="M209.79 44.1358L220.885 43.171V28.0572L209.79 29.0219V44.1358ZM179.397 73.8812V31.6748L168.543 32.6396V23.3944L179.397 22.4296V5.46673L189.367 4.5824V21.5453L200.302 20.5806V1.92943L209.79 1.1255V19.7767L220.885 18.812V0.884321L230.936 0V17.9276L241.549 16.9629V26.2081L230.936 27.1728V51.0496L200.302 53.7025V29.8258L189.367 30.7905V63.7517L239.458 59.4104V68.6556L179.397 73.8812ZM148.764 38.5886L133.97 39.8749V35.0513L148.764 33.7651V38.5886ZM148.764 26.7709L133.97 28.0572V23.3944L148.764 22.1081V26.7709ZM148.764 15.0335L133.97 16.3198V11.657L148.764 10.3707V15.0335ZM117.085 51.9339C121.641 55.7927 125.179 59.2228 127.698 62.2242L134.613 55.7927C132.683 53.7561 129.842 51.1567 126.09 47.9946L157.93 45.2613V2.00982L125.286 4.82358V47.3515L123.678 46.0652L117.085 51.9339ZM101.728 35.2925V51.1299L110.814 50.326V33.5239C113.923 36.0965 116.496 38.4011 118.532 40.4377L123.517 32.318C122.821 31.8356 121.668 31.0853 120.06 30.067C118.506 29.0487 116.844 28.0304 115.075 27.012C113.36 25.9937 111.939 25.1898 110.814 24.6003V21.6257L122.151 20.661V12.5413L110.814 13.506V2.17061L101.728 2.97454V14.31L88.5422 15.4355V23.5552L100.201 22.5904C96.7165 30.3618 92.1604 36.7128 86.5322 41.6436C87.5506 42.3939 88.6227 43.3586 89.7483 44.5377C90.9275 45.6632 91.8924 46.7351 92.6428 47.7534C95.9661 44.4841 98.9946 40.3305 101.728 35.2925ZM87.095 70.5047L95.8589 74.042C98.271 69.7007 100.522 63.6713 102.613 55.9535L94.09 53.3006C92.5356 59.6784 90.2039 65.4131 87.095 70.5047ZM108 73.1576C109.661 74.4439 112.1 75.0871 115.316 75.0871C116.335 75.0871 122.472 74.5779 133.729 73.5596C138.07 73.2916 141.152 72.0589 142.975 69.8615C144.797 67.7177 145.95 63.8052 146.432 58.1241C145.039 58.0169 143.511 57.7222 141.849 57.2398C140.188 56.7575 138.848 56.1947 137.829 55.5516C137.668 59.464 137.266 62.0366 136.623 63.2693C136.033 64.502 134.827 65.1451 133.005 65.1987L120.141 66.3242C119.229 66.4314 118.425 66.485 117.728 66.485C116.924 66.485 116.335 66.4046 115.96 66.2438C115.316 65.9759 114.995 65.2255 114.995 63.9928V53.1398L105.507 54.0241V65.0379C105.507 69.2184 106.338 71.9249 108 73.1576ZM146.754 55.9535C149.648 60.4019 151.953 64.2876 153.669 67.6105L162.593 62.3046C160.664 58.9281 158.144 55.0692 155.035 50.728L152.543 47.1907L144.181 51.7731L146.754 55.9535ZM24.3005 19.7364L24.3004 14.2296L61.7681 10.9334V16.7217L27.4994 19.7364H71.1753L71.1752 2.17061L14.8129 7.07458V31.1925C14.8129 35.2283 15.6383 37.9884 17.2894 39.4729H57.7041L63.1349 38.9906C69.0312 38.6154 73.1585 37.4899 75.517 35.6141C77.8132 33.7773 79.308 30.6777 80.0012 26.3153H70.5302C70.1382 27.6341 69.576 28.5899 68.8436 29.1827C67.7179 30.0402 65.6274 30.5761 62.5721 30.7905L34.9136 33.2023C32.5551 33.4167 30.6522 33.5239 29.205 33.5239C27.9185 33.5239 26.9537 33.4435 26.3105 33.2827C24.9704 32.8539 24.3004 31.8088 24.3004 30.1474V27.9768L43.2307 26.3153H14.8129V19.7364H24.3005ZM11.1947 75.1675C12.4276 76.5609 13.3656 77.8204 14.0089 78.9459C24.5148 73.8544 30.679 67.3425 32.5015 59.4104L54.6122 57.481V59.2094H61.8811V65.7883H54.6122V75.0067L64.0998 74.1223V56.5967L80.904 55.1496V46.4672L64.0998 47.9142V46.0518H54.6122V48.7985L33.5467 50.6476V46.0518H24.0592V51.4515L7.73743 52.8986V59.2094H32.5857L30.2828 59.4104C29.7683 61.6495 28.9079 63.7755 27.7015 65.7883H17.8105C15.3174 68.0414 11.9865 70.0959 7.81783 71.9517C8.88986 72.7557 10.0155 73.8276 11.1947 75.1675ZM7.73743 61.3816V61.581L19.729 60.5033C19.7635 60.4339 19.7973 60.3644 19.8304 60.2947L7.73743 61.3816ZM280.625 30.4689L266.554 31.7552V25.9669L280.625 24.6807V30.4689ZM280.625 17.5257L266.554 18.812V13.0237L280.625 11.7374V17.5257ZM304.343 15.4355L290.273 16.7217V10.9334L304.343 9.64716V15.4355ZM304.343 28.3787L290.273 29.665V23.8767L304.343 22.5904V28.3787ZM257.549 74.8459C258.835 76.2394 259.827 77.5257 260.524 78.7048C265.777 76.2394 269.717 73.5328 272.343 70.5851C275.023 67.6909 276.765 64.77 277.569 61.8222C278.427 58.8209 278.856 56.0339 278.856 53.4613V47.9142L272.021 48.5574C275.72 45.3417 278.936 41.858 281.67 38.1063L289.951 37.3827C292.578 40.7593 295.713 43.707 299.358 46.226L293.328 46.7083V75.0067L303.298 74.2027V48.7985C307.533 51.1567 312.062 52.9254 316.886 54.1045C317.637 52.6574 318.601 51.1299 319.781 49.5221C321.014 47.8606 322.166 46.4672 323.238 45.3417C314.662 43.841 307.318 40.8664 301.208 36.418L314.313 35.2925V1.1255L256.986 6.10987V40.2769L269.77 39.1514C263.713 44.7789 256.477 49.2273 248.061 52.4966C249.133 53.4613 250.259 54.6404 251.438 56.0339C252.618 57.3738 253.582 58.6333 254.333 59.8124C259.479 57.5078 264.356 54.5868 268.966 51.0496V53.9437C268.966 55.6588 268.645 57.5346 268.001 59.5712C267.358 61.5542 265.938 63.5909 263.74 65.6811C261.596 67.7177 258.326 69.6471 253.931 71.4694C255.056 72.3805 256.262 73.506 257.549 74.8459Z"
    fill="white" />
  <path fill-rule="evenodd" clip-rule="evenodd"
    d="M30.2111 19.7365L27.0122 20.0179V19.7365H17.5247V26.3153H45.9425L73.7262 23.8767C73.6138 24.7942 73.4524 25.6071 73.2419 26.3153H82.7129C82.7479 26.0952 82.7808 25.8719 82.8117 25.6454C79.4884 25.3774 76.5135 24.6807 73.887 23.5552V19.7365H30.2111Z"
    fill="white" />
  <path fill-rule="evenodd" clip-rule="evenodd"
    d="M21.0625 40.1965C23.4745 41.322 26.637 41.8847 30.55 41.8847C32.6941 41.8847 35.1061 41.7507 37.7862 41.4827L60.416 39.4729L20.0012 39.4729C20.3235 39.7627 20.6772 40.0039 21.0625 40.1965ZM66.8116 46.0517V40.8396L57.3241 41.7239V46.0517H66.8116ZM36.2586 46.0517V43.573L26.771 44.3769V46.0517H36.2586Z"
    fill="white" />
  <path fill-rule="evenodd" clip-rule="evenodd"
    d="M32.6321 65.7883C33.8385 63.7755 34.6989 61.6496 35.2134 59.4104L37.5163 59.2095H10.4493V61.581L24.761 60.2947C23.8341 62.2411 22.4212 64.0723 20.5224 65.7883H32.6321ZM57.3242 65.7883V59.2095H66.8117V65.7883H57.3242Z"
    fill="white" />
  <path fill-rule="evenodd" clip-rule="evenodd"
    d="M202.64 44.1358L213.736 43.171V28.0572L202.64 29.0219V44.1358ZM172.248 73.8812V31.6748L161.393 32.6396V23.3944L172.248 22.4296V5.46673L182.218 4.5824V21.5453L193.153 20.5806V1.92943L202.64 1.1255V19.7767L213.736 18.812V0.884321L223.786 0V17.9276L234.399 16.9629V26.2081L223.786 27.1728V51.0496L193.153 53.7025V29.8258L182.218 30.7905V63.7517L232.309 59.4104V68.6556L172.248 73.8812ZM141.614 38.5886L126.82 39.8749V35.0513L141.614 33.7651V38.5886ZM141.614 26.7709L126.82 28.0572V23.3944L141.614 22.1081V26.7709ZM141.614 15.0335L126.82 16.3198V11.657L141.614 10.3707V15.0335ZM109.936 51.9339C114.492 55.7927 118.03 59.2228 120.549 62.2242L127.464 55.7927C125.534 53.7561 122.693 51.1567 118.941 47.9946L150.78 45.2613V2.00982L118.137 4.82358V47.3515L116.529 46.0652L109.936 51.9339ZM94.5788 51.1299L103.664 50.326V33.5239C106.773 36.0965 109.346 38.4011 111.383 40.4377L116.368 32.318C115.671 31.8356 114.519 31.0853 112.911 30.067C111.356 29.0487 109.694 28.0304 107.926 27.012C106.21 25.9937 104.79 25.1898 103.664 24.6003V21.6257L115.001 20.661V12.5413L103.664 13.506V2.17061L94.5788 2.97454V14.31L81.3927 15.4355V23.5552L93.0511 22.5904C89.567 30.3618 85.0108 36.7128 79.3826 41.6436C80.4011 42.3939 81.4731 43.3586 82.5988 44.5377C83.778 45.6632 84.7428 46.7351 85.4933 47.7534C88.8166 44.4841 91.8451 40.3305 94.5788 35.2925V51.1299ZM79.9454 70.5047L88.7094 74.042C91.1214 69.7007 93.3727 63.6713 95.4632 55.9535L86.9405 53.3006C85.386 59.6784 83.0544 65.4131 79.9454 70.5047ZM100.85 73.1576C102.512 74.4439 104.951 75.0871 108.167 75.0871C109.185 75.0871 115.323 74.5779 126.579 73.5596C130.921 73.2916 134.003 72.0589 135.825 69.8615C137.648 67.7177 138.8 63.8052 139.283 58.1241C137.889 58.0169 136.361 57.7222 134.7 57.2398C133.038 56.7575 131.698 56.1947 130.68 55.5516C130.519 59.464 130.117 62.0366 129.474 63.2693C128.884 64.502 127.678 65.1451 125.855 65.1987L112.991 66.3242C112.08 66.4314 111.276 66.485 110.579 66.485C109.775 66.485 109.185 66.4046 108.81 66.2438C108.167 65.9759 107.845 65.2255 107.845 63.9928V53.1398L98.3577 54.0241V65.0379C98.3577 69.2184 99.1885 71.9249 100.85 73.1576ZM139.604 55.9535C142.499 60.4019 144.804 64.2876 146.519 67.6105L155.444 62.3046C153.514 58.9281 150.995 55.0692 147.886 50.728L145.393 47.1907L137.031 51.7731L139.604 55.9535ZM17.1509 19.7364V14.2296L54.6186 10.9334V16.7217L20.3498 19.7364H64.0257V2.17061L7.66333 7.07458V19.7364H17.1509ZM7.66333 26.3153V31.1925C7.66333 35.2283 8.48882 37.9884 10.1399 39.4729H50.5546L55.9854 38.9906C61.8816 38.6154 66.009 37.4899 68.3675 35.6141C70.6637 33.7773 72.1584 30.6777 72.8516 26.3153H63.3806C62.9886 27.6341 62.4264 28.5899 61.694 29.1827C60.5684 30.0402 58.4779 30.5761 55.4226 30.7905L27.764 33.2023C25.4055 33.4167 23.5027 33.5239 22.0555 33.5239C20.769 33.5239 19.8042 33.4435 19.1609 33.2827C17.8209 32.8539 17.1509 31.8088 17.1509 30.1474V27.9768L36.0811 26.3153H7.66333ZM4.04521 75.1675C5.27806 76.5609 6.21608 77.8204 6.85931 78.9459C14.4105 75.2864 19.7187 70.8931 22.7839 65.7661C22.7795 65.7735 22.7751 65.7809 22.7706 65.7883H10.6609C8.16777 68.0414 4.83691 70.0959 0.668289 71.9517C1.74033 72.7557 2.86597 73.8276 4.04521 75.1675ZM0.587891 52.8986V59.2094H27.6548L47.4627 57.481V59.2094H56.9503V56.5967L73.7544 55.1496V46.4672L56.9503 47.9142L56.9503 46.0518H47.4628L47.4627 41.724V48.7985L26.3972 50.6476L26.3972 46.0518H16.9097V51.4515L0.587891 52.8986ZM56.9503 74.1223V65.7883H47.4627V75.0067L56.9503 74.1223ZM273.475 30.4689L259.404 31.7552V25.9669L273.475 24.6807V30.4689ZM273.475 17.5257L259.404 18.812V13.0237L273.475 11.7374V17.5257ZM297.194 15.4355L283.123 16.7217V10.9334L297.194 9.64716V15.4355ZM297.194 28.3787L283.123 29.665V23.8767L297.194 22.5904V28.3787ZM250.399 74.8459C251.686 76.2394 252.677 77.5257 253.374 78.7048C258.627 76.2394 262.567 73.5328 265.194 70.5851C267.874 67.6909 269.616 64.77 270.42 61.8222C271.277 58.8209 271.706 56.0339 271.706 53.4613V47.9142L264.872 48.5574C268.57 45.3417 271.787 41.858 274.52 38.1063L282.802 37.3827C285.428 40.7593 288.564 43.707 292.209 46.226L286.179 46.7083V75.0067L296.149 74.2027V48.7985C300.383 51.1567 304.912 52.9254 309.737 54.1045C310.487 52.6574 311.452 51.1299 312.631 49.5221C313.864 47.8606 315.016 46.4672 316.088 45.3417C307.512 43.841 300.169 40.8664 294.058 36.418L307.164 35.2925V1.1255L249.837 6.10987V40.2769L262.621 39.1514C256.564 44.7789 249.327 49.2273 240.912 52.4966C241.984 53.4613 243.11 54.6404 244.289 56.0339C245.468 57.3738 246.433 58.6333 247.183 59.8124C252.329 57.5078 257.207 54.5868 261.817 51.0496V53.9437C261.817 55.6588 261.495 57.5346 260.852 59.5712C260.209 61.5542 258.788 63.5909 256.59 65.6811C254.446 67.7177 251.177 69.6471 246.781 71.4694C247.907 72.3805 249.113 73.506 250.399 74.8459Z"
    fill="white" />
  <path fill-rule="evenodd" clip-rule="evenodd"
    d="M37.3607 19.7365L34.1618 20.0179V19.7365H24.6743V26.3153H53.0921L80.8759 23.8767C80.7635 24.7942 80.6021 25.6071 80.3916 26.3153H89.8626C89.8976 26.0952 89.9305 25.8719 89.9614 25.6454C86.6381 25.3774 83.6632 24.6807 81.0367 23.5552V19.7365H37.3607Z"
    fill="#1136F1" style="mix-blend-mode:multiply" />
  <path fill-rule="evenodd" clip-rule="evenodd"
    d="M28.212 40.1965C30.6241 41.322 33.7866 41.8847 37.6995 41.8847C39.8436 41.8847 42.2557 41.7507 44.9358 41.4827L67.5655 39.4729L27.1508 39.4729C27.4731 39.7627 27.8268 40.0039 28.212 40.1965ZM73.9612 46.0517V40.8396L64.4736 41.7239V46.0517H73.9612ZM43.4081 46.0517V43.573L33.9206 44.3769V46.0517H43.4081Z"
    fill="#1136F1" style="mix-blend-mode:multiply" />
  <path fill-rule="evenodd" clip-rule="evenodd"
    d="M39.7815 65.7883C40.9879 63.7755 41.8484 61.6496 42.3628 59.4104L44.6657 59.2095H17.5988V61.581L31.9104 60.2947C30.9835 62.2411 29.5706 64.0723 27.6718 65.7883H39.7815ZM64.4736 65.7883V59.2095H73.9611V65.7883H64.4736Z"
    fill="#1136F1" style="mix-blend-mode:multiply" />
  <path fill-rule="evenodd" clip-rule="evenodd"
    d="M209.79 44.1358L220.885 43.171V28.0572L209.79 29.0219V44.1358ZM179.397 73.8812V31.6748L168.543 32.6396V23.3944L179.397 22.4296V5.46673L189.367 4.5824V21.5453L200.302 20.5806V1.92943L209.79 1.1255V19.7767L220.885 18.812V0.884321L230.936 0V17.9276L241.549 16.9629V26.2081L230.936 27.1728V51.0496L200.302 53.7025V29.8258L189.367 30.7905V63.7517L239.458 59.4104V68.6556L179.397 73.8812ZM148.764 38.5886L133.97 39.8749V35.0513L148.764 33.7651V38.5886ZM148.764 26.7709L133.97 28.0572V23.3944L148.764 22.1081V26.7709ZM148.764 15.0335L133.97 16.3198V11.657L148.764 10.3707V15.0335ZM117.085 51.9339C121.641 55.7927 125.179 59.2228 127.698 62.2242L134.613 55.7927C132.683 53.7561 129.842 51.1567 126.09 47.9946L157.93 45.2613V2.00982L125.286 4.82358V47.3515L123.678 46.0652L117.085 51.9339ZM101.728 35.2925V51.1299L110.814 50.326V33.5239C113.923 36.0965 116.496 38.4011 118.532 40.4377L123.517 32.318C122.821 31.8356 121.668 31.0853 120.06 30.067C118.506 29.0487 116.844 28.0304 115.075 27.012C113.36 25.9937 111.939 25.1898 110.814 24.6003V21.6257L122.151 20.661V12.5413L110.814 13.506V2.17061L101.728 2.97454V14.31L88.5422 15.4355V23.5552L100.201 22.5904C96.7165 30.3618 92.1604 36.7128 86.5322 41.6436C87.5506 42.3939 88.6227 43.3586 89.7483 44.5377C90.9275 45.6632 91.8924 46.7351 92.6428 47.7534C95.9661 44.4841 98.9946 40.3305 101.728 35.2925ZM87.095 70.5047L95.8589 74.042C98.271 69.7007 100.522 63.6713 102.613 55.9535L94.09 53.3006C92.5356 59.6784 90.2039 65.4131 87.095 70.5047ZM108 73.1576C109.661 74.4439 112.1 75.0871 115.316 75.0871C116.335 75.0871 122.472 74.5779 133.729 73.5596C138.07 73.2916 141.152 72.0589 142.975 69.8615C144.797 67.7177 145.95 63.8052 146.432 58.1241C145.039 58.0169 143.511 57.7222 141.849 57.2398C140.188 56.7575 138.848 56.1947 137.829 55.5516C137.668 59.464 137.266 62.0366 136.623 63.2693C136.033 64.502 134.827 65.1451 133.005 65.1987L120.141 66.3242C119.229 66.4314 118.425 66.485 117.728 66.485C116.924 66.485 116.335 66.4046 115.96 66.2438C115.316 65.9759 114.995 65.2255 114.995 63.9928V53.1398L105.507 54.0241V65.0379C105.507 69.2184 106.338 71.9249 108 73.1576ZM146.754 55.9535C149.648 60.4019 151.953 64.2876 153.669 67.6105L162.593 62.3046C160.664 58.9281 158.144 55.0692 155.035 50.728L152.543 47.1907L144.181 51.7731L146.754 55.9535ZM24.3005 19.7364L24.3004 14.2296L61.7681 10.9334V16.7217L27.4994 19.7364H71.1753L71.1752 2.17061L14.8129 7.07458V31.1925C14.8129 35.2283 15.6383 37.9884 17.2894 39.4729H57.7041L63.1349 38.9906C69.0312 38.6154 73.1585 37.4899 75.517 35.6141C77.8132 33.7773 79.308 30.6777 80.0012 26.3153H70.5302C70.1382 27.6341 69.576 28.5899 68.8436 29.1827C67.7179 30.0402 65.6274 30.5761 62.5721 30.7905L34.9136 33.2023C32.5551 33.4167 30.6522 33.5239 29.205 33.5239C27.9185 33.5239 26.9537 33.4435 26.3105 33.2827C24.9704 32.8539 24.3004 31.8088 24.3004 30.1474V27.9768L43.2307 26.3153H14.8129V19.7364H24.3005ZM11.1947 75.1675C12.4276 76.5609 13.3656 77.8204 14.0089 78.9459C24.5148 73.8544 30.679 67.3425 32.5015 59.4104L54.6122 57.481V59.2094H61.8811V65.7883H54.6122V75.0067L64.0998 74.1223V56.5967L80.904 55.1496V46.4672L64.0998 47.9142V46.0518H54.6122V48.7985L33.5467 50.6476V46.0518H24.0592V51.4515L7.73743 52.8986V59.2094H32.5857L30.2828 59.4104C29.7683 61.6495 28.9079 63.7755 27.7015 65.7883H17.8105C15.3174 68.0414 11.9865 70.0959 7.81783 71.9517C8.88986 72.7557 10.0155 73.8276 11.1947 75.1675ZM7.73743 61.3816V61.581L19.729 60.5033C19.7635 60.4339 19.7973 60.3644 19.8304 60.2947L7.73743 61.3816ZM280.625 30.4689L266.554 31.7552V25.9669L280.625 24.6807V30.4689ZM280.625 17.5257L266.554 18.812V13.0237L280.625 11.7374V17.5257ZM304.343 15.4355L290.273 16.7217V10.9334L304.343 9.64716V15.4355ZM304.343 28.3787L290.273 29.665V23.8767L304.343 22.5904V28.3787ZM257.549 74.8459C258.835 76.2394 259.827 77.5257 260.524 78.7048C265.777 76.2394 269.717 73.5328 272.343 70.5851C275.023 67.6909 276.765 64.77 277.569 61.8222C278.427 58.8209 278.856 56.0339 278.856 53.4613V47.9142L272.021 48.5574C275.72 45.3417 278.936 41.858 281.67 38.1063L289.951 37.3827C292.578 40.7593 295.713 43.707 299.358 46.226L293.328 46.7083V75.0067L303.298 74.2027V48.7985C307.533 51.1567 312.062 52.9254 316.886 54.1045C317.637 52.6574 318.601 51.1299 319.781 49.5221C321.014 47.8606 322.166 46.4672 323.238 45.3417C314.662 43.841 307.318 40.8664 301.208 36.418L314.313 35.2925V1.1255L256.986 6.10987V40.2769L269.77 39.1514C263.713 44.7789 256.477 49.2273 248.061 52.4966C249.133 53.4613 250.259 54.6404 251.438 56.0339C252.618 57.3738 253.582 58.6333 254.333 59.8124C259.479 57.5078 264.356 54.5868 268.966 51.0496V53.9437C268.966 55.6588 268.645 57.5346 268.001 59.5712C267.358 61.5542 265.938 63.5909 263.74 65.6811C261.596 67.7177 258.326 69.6471 253.931 71.4694C255.056 72.3805 256.262 73.506 257.549 74.8459Z"
    fill="#1136F1" style="mix-blend-mode:multiply" />
  <path fill-rule="evenodd" clip-rule="evenodd"
    d="M30.2111 19.7365L27.0122 20.0179V19.7365H17.5247V26.3153H45.9425L73.7262 23.8767C73.6138 24.7942 73.4524 25.6071 73.2419 26.3153H82.7129C82.7479 26.0952 82.7808 25.8719 82.8117 25.6454C79.4884 25.3774 76.5135 24.6807 73.887 23.5552V19.7365H30.2111Z"
    fill="#FF4FF8" style="mix-blend-mode:multiply" />
  <path fill-rule="evenodd" clip-rule="evenodd"
    d="M21.0625 40.1965C23.4745 41.322 26.637 41.8847 30.55 41.8847C32.6941 41.8847 35.1061 41.7507 37.7862 41.4827L60.416 39.4729L20.0012 39.4729C20.3235 39.7627 20.6772 40.0039 21.0625 40.1965ZM66.8116 46.0517V40.8396L57.3241 41.7239V46.0517H66.8116ZM36.2586 46.0517V43.573L26.771 44.3769V46.0517H36.2586Z"
    fill="#FF4FF8" style="mix-blend-mode:multiply" />
  <path fill-rule="evenodd" clip-rule="evenodd"
    d="M32.6321 65.7883C33.8385 63.7755 34.6989 61.6496 35.2134 59.4104L37.5163 59.2095H10.4493V61.581L24.761 60.2947C23.8341 62.2411 22.4212 64.0723 20.5224 65.7883H32.6321ZM57.3242 65.7883V59.2095H66.8117V65.7883H57.3242Z"
    fill="#FF4FF8" style="mix-blend-mode:multiply" />
  <path fill-rule="evenodd" clip-rule="evenodd"
    d="M20.3498 19.7365L17.1509 20.0179V19.7365H7.66333V26.3153H36.0811L63.8649 23.8767C63.7525 24.7942 63.5911 25.6071 63.3806 26.3153H72.8516C72.8866 26.0952 72.9195 25.8719 72.9504 25.6454C69.6271 25.3774 66.6522 24.6807 64.0257 23.5552V19.7365H20.3498Z"
    fill="#FF4FF8" style="mix-blend-mode:multiply" />
  <path
    d="M20.0454 20.0179L57.5131 16.7217V10.9334L20.0454 14.2296V20.0179ZM24.95 33.5239C26.3972 33.5239 28.3001 33.4167 30.6586 33.2023L58.3171 30.7905C61.3724 30.5761 63.4629 30.0402 64.5886 29.1827C65.7142 28.2715 66.4378 26.5029 66.7594 23.8767L20.0454 27.9768V30.1474C20.0454 31.8088 20.7154 32.8539 22.0555 33.2827C22.6987 33.4435 23.6635 33.5239 24.95 33.5239ZM23.5831 41.8848C19.6702 41.8848 16.5077 41.322 14.0956 40.1965C11.7371 39.0174 10.5579 36.0161 10.5579 31.1925V7.07458L66.9202 2.17061V23.5552C69.5467 24.6807 72.5216 25.3774 75.8449 25.6454C75.2017 30.3618 73.6741 33.6847 71.262 35.6141C68.9035 37.4899 64.7762 38.6154 58.88 38.9906L30.8194 41.4828C28.1393 41.7508 25.7272 41.8848 23.5831 41.8848ZM9.75384 78.9459C9.11062 77.8204 8.17259 76.5609 6.93974 75.1675C5.7605 73.8276 4.63486 72.7557 3.56282 71.9517C10.9063 68.6824 15.65 64.7968 17.7941 60.2948L3.48242 61.581V52.8986L19.8042 51.4515V44.3769L29.2917 43.573V50.6476L50.3573 48.7985V41.724L59.8448 40.8396V47.9142L76.649 46.4672V55.1496L59.8448 56.5967V74.1223L50.3573 75.0067V57.481L28.2465 59.4104C26.424 67.3425 20.2598 73.8544 9.75384 78.9459Z"
    fill="white" />
  <path
    d="M129.715 39.8749L144.509 38.5886V33.7651L129.715 35.0513V39.8749ZM129.715 28.0572L144.509 26.7709V22.1081L129.715 23.3944V28.0572ZM129.715 16.3198L144.509 15.0335V10.3707L129.715 11.657V16.3198ZM123.443 62.2242C120.924 59.2228 117.386 55.7927 112.83 51.9339L119.423 46.0652L121.031 47.3515V4.82358L153.675 2.00982V45.2613L121.835 47.9946C125.587 51.1567 128.428 53.7561 130.358 55.7927L123.443 62.2242ZM97.4733 51.1299V35.2925C94.7396 40.3305 91.7111 44.4841 88.3878 47.7534C87.6374 46.7351 86.6725 45.6632 85.4933 44.5377C84.3676 43.3586 83.2956 42.3939 82.2772 41.6436C87.9054 36.7128 92.4615 30.3618 95.9456 22.5904L84.2872 23.5552V15.4355L97.4733 14.31V2.97454L106.559 2.17061V13.506L117.896 12.5413V20.661L106.559 21.6257V24.6003C107.684 25.1898 109.105 25.9937 110.82 27.012C112.589 28.0304 114.251 29.0487 115.805 30.067C117.413 31.0853 118.566 31.8356 119.262 32.318L114.277 40.4377C112.241 38.4011 109.668 36.0965 106.559 33.5239V50.326L97.4733 51.1299ZM91.6039 74.042L82.84 70.5047C85.9489 65.4131 88.2806 59.6784 89.835 53.3006L98.3577 55.9535C96.2673 63.6713 94.016 69.7007 91.6039 74.042ZM111.061 75.0871C107.845 75.0871 105.406 74.4439 103.745 73.1576C102.083 71.9249 101.252 69.2184 101.252 65.0379V54.0241L110.74 53.1398V63.9928C110.74 65.2255 111.061 65.9759 111.705 66.2438C112.08 66.4046 112.669 66.485 113.473 66.485C114.17 66.485 114.974 66.4314 115.886 66.3242L128.75 65.1987C130.572 65.1451 131.778 64.502 132.368 63.2693C133.011 62.0366 133.413 59.464 133.574 55.5516C134.593 56.1947 135.933 56.7575 137.594 57.2398C139.256 57.7222 140.784 58.0169 142.177 58.1241C141.695 63.8052 140.542 67.7177 138.72 69.8615C136.897 72.0589 133.815 73.2916 129.474 73.5596C118.217 74.5779 112.08 75.0871 111.061 75.0871ZM149.413 67.6105C147.698 64.2876 145.393 60.4019 142.499 55.9535L139.926 51.7731L148.288 47.1907L150.78 50.728C153.889 55.0692 156.409 58.9281 158.338 62.3046L149.413 67.6105Z"
    fill="white" />
  <path
    d="M205.535 44.1358L216.63 43.171V28.0572L205.535 29.0219V44.1358ZM175.142 73.8812V31.6748L164.288 32.6396V23.3944L175.142 22.4296V5.46673L185.112 4.5824V21.5453L196.047 20.5806V1.92943L205.535 1.1255V19.7767L216.63 18.812V0.884321L226.681 0V17.9276L237.294 16.9629V26.2081L226.681 27.1728V51.0496L196.047 53.7025V29.8258L185.112 30.7905V63.7517L235.203 59.4104V68.6556L175.142 73.8812Z"
    fill="white" />
  <path
    d="M262.299 31.7552L276.37 30.4689V24.6807L262.299 25.9669V31.7552ZM262.299 18.812L276.37 17.5257V11.7374L262.299 13.0237V18.812ZM286.018 16.7217L300.088 15.4355V9.64716L286.018 10.9334V16.7217ZM286.018 29.665L300.088 28.3787V22.5904L286.018 23.8767V29.665ZM256.269 78.7048C255.572 77.5257 254.58 76.2394 253.294 74.8459C252.007 73.506 250.801 72.3805 249.676 71.4694C254.071 69.6471 257.341 67.7177 259.485 65.6811C261.683 63.5909 263.103 61.5542 263.746 59.5712C264.389 57.5346 264.711 55.6588 264.711 53.9437V51.0496C260.101 54.5868 255.224 57.5078 250.078 59.8124C249.327 58.6333 248.363 57.3738 247.183 56.0339C246.004 54.6404 244.878 53.4613 243.806 52.4966C252.222 49.2273 259.458 44.7789 265.515 39.1514L252.731 40.2769V6.10987L310.058 1.1255V35.2925L296.953 36.418C303.063 40.8664 310.407 43.841 318.983 45.3417C317.911 46.4672 316.759 47.8606 315.526 49.5221C314.346 51.1299 313.382 52.6574 312.631 54.1045C307.807 52.9254 303.278 51.1567 299.043 48.7985V74.2027L289.073 75.0067V46.7083L295.103 46.226C291.458 43.707 288.323 40.7593 285.696 37.3827L277.415 38.1063C274.681 41.858 271.465 45.3417 267.766 48.5574L274.601 47.9142V53.4613C274.601 56.0339 274.172 58.8209 273.314 61.8222C272.51 64.77 270.768 67.6909 268.088 70.5851C265.462 73.5328 261.522 76.2394 256.269 78.7048Z"
    fill="white" />
  <path fill-rule="evenodd" clip-rule="evenodd" d="M197.325 139.482V140.125L127.053 146.235H123.355V139.482H197.325Z"
    fill="white" />
  <path fill-rule="evenodd" clip-rule="evenodd"
    d="M281.31 180C280.345 179.089 279.032 178.017 277.37 176.784C275.762 175.605 274.369 174.748 273.189 174.212C275.173 170.782 276.647 167.057 277.612 163.037C278.576 159.017 279.193 154.971 279.461 150.898C279.729 146.825 279.863 143.046 279.863 139.562V116.088L312.667 113.193C312.453 109.335 312.346 105.395 312.346 101.376L322.396 100.491V103.466C322.396 106.467 322.45 109.442 322.557 112.389L334.858 111.264C331.589 109.013 328.158 106.976 324.567 105.154L330.356 98.9639C332.661 99.9286 335.046 101.108 337.512 102.501C339.977 103.895 341.961 105.208 343.461 106.44L339.602 110.862L347.964 110.138V119.625L323.12 121.795C323.87 129.888 324.942 137.124 326.336 143.502C329.498 137.874 332.071 131.711 334.054 125.011L343.622 126.539C340.245 137.311 335.636 146.905 329.793 155.319C332.151 161 334.617 163.841 337.19 163.841H337.351C339.173 163.841 340.245 159.044 340.567 149.451C341.693 150.469 342.979 151.407 344.426 152.264C345.927 153.068 347.348 153.685 348.688 154.113C347.991 161.456 346.678 166.548 344.748 169.388C342.818 172.175 339.843 173.569 335.823 173.569C330.517 173.569 326.202 170.433 322.878 164.163C318.805 168.772 314.275 172.818 309.29 176.302C308.486 175.23 307.387 173.971 305.994 172.523C304.654 171.13 303.448 169.978 302.376 169.067C308.593 165.101 314.061 160.277 318.778 154.596C316.098 145.485 314.248 134.846 313.23 122.68L289.913 124.69V133.292L309.773 131.523L309.692 134.096C309.692 150.817 308.835 160.036 307.119 161.751C305.726 163.787 303.876 165.047 301.572 165.529C299.32 165.958 296.238 166.28 292.325 166.494C292.218 165.101 291.923 163.627 291.441 162.072C291.012 160.465 290.422 159.044 289.672 157.812C292.781 157.812 295.086 157.731 296.587 157.57C297.659 157.463 298.463 157.061 298.999 156.364C299.696 155.346 300.151 150.281 300.366 141.17L289.913 142.055C289.645 158.294 286.777 170.942 281.31 180ZM255.501 114.721L232.908 116.731V111.505L255.501 109.495V114.721ZM255.501 127.182L232.908 129.192V123.966L255.501 121.956V127.182ZM224.224 104.833V137.311L264.506 133.774V101.295L224.224 104.833ZM194.314 170.755C195.762 173.863 196.646 176.704 196.968 179.276C202.489 178.955 206.536 178.044 209.108 176.543C210.448 175.686 211.36 174.587 211.842 173.247C212.378 171.907 212.646 170.058 212.646 167.7V148.245L221.41 144.949L220.204 136.266L212.646 138.919V126.941L220.526 126.217V117.374L212.646 118.097V102.984L203.239 103.787V118.901L193.671 119.705V128.548L203.239 127.745V142.135C199.165 143.475 195.52 144.6 192.304 145.511L194.636 154.435L203.239 151.541V168.584C203.239 169.12 203.105 169.495 202.837 169.71C202.623 169.978 202.221 170.138 201.631 170.192C201.095 170.299 200.13 170.38 198.736 170.433C197.396 170.54 195.922 170.648 194.314 170.755ZM217.551 166.092V174.614L268.204 170.192V161.67L248.747 163.359V152.988L264.988 151.621V143.18L248.747 144.547V137.07L239.018 137.954V145.431L222.938 146.798V155.239L239.018 153.872V164.243L217.551 166.092ZM113.429 146.235V146.557L117.128 146.235H113.429ZM113.429 139.482H187.4V129.754L113.429 136.186V139.482ZM400.387 121.715C401.62 122.841 402.611 123.912 403.362 124.931C412.152 119.143 419.844 111.88 426.437 103.144L417.352 100.25C414.94 103.787 411.831 107.218 408.025 110.54C404.219 113.81 400.413 116.543 396.608 118.741C397.894 119.598 399.154 120.59 400.387 121.715ZM397.733 141.813C400.306 143.582 402.531 145.619 404.407 147.923C413.251 141.813 421.023 134.176 427.724 125.011L418.96 122.197C416.494 125.896 413.305 129.486 409.392 132.97C405.479 136.454 401.593 139.402 397.733 141.813ZM381.572 133.131L372.246 133.935V116.65L381.572 115.846V133.131ZM356.808 176.624C358.202 177.803 359.301 178.875 360.105 179.839C364.715 174.426 367.85 168.557 369.512 162.233C371.174 155.909 372.058 149.424 372.165 142.778L381.572 141.974V177.347L390.899 176.543V141.17L398.618 140.447V131.603L390.899 132.327V115.042L397.573 114.399V105.476L355.522 109.174V118.097L363.401 117.454V134.739L354.075 135.543V144.386L363.321 143.582C363.16 148.995 362.356 154.274 360.909 159.419C359.462 164.565 356.862 169.388 353.11 173.89C354.235 174.587 355.468 175.498 356.808 176.624ZM393.633 168.423C396.259 170.406 398.484 172.791 400.306 175.578C412.527 168.289 422.229 158.455 429.412 146.074L420.327 143.341C417.486 148.54 413.68 153.31 408.909 157.651C404.192 161.938 399.1 165.529 393.633 168.423Z"
    fill="white" />
  <path fill-rule="evenodd" clip-rule="evenodd" d="M187.4 139.482V140.125L117.128 146.235H113.429V139.482H187.4Z"
    fill="white" />
  <path fill-rule="evenodd" clip-rule="evenodd"
    d="M271.384 180C270.42 179.089 269.106 178.017 267.445 176.784C265.837 175.605 264.443 174.748 263.264 174.212C265.247 170.782 266.721 167.057 267.686 163.037C268.651 159.017 269.267 154.971 269.535 150.898C269.803 146.825 269.937 143.046 269.937 139.562V116.088L302.742 113.193C302.527 109.335 302.42 105.395 302.42 101.376L312.47 100.491V103.466C312.47 106.467 312.524 109.442 312.631 112.389L324.933 111.264C321.663 109.013 318.232 106.976 314.641 105.154L320.43 98.9639C322.735 99.9286 325.12 101.108 327.586 102.501C330.052 103.895 332.035 105.208 333.536 106.44L329.677 110.862L338.038 110.138V119.625L313.194 121.795C313.944 129.888 315.016 137.124 316.41 143.502C319.573 137.874 322.145 131.711 324.129 125.011L333.697 126.539C330.32 137.311 325.71 146.905 319.867 155.319C322.226 161 324.692 163.841 327.264 163.841H327.425C329.248 163.841 330.32 159.044 330.641 149.451C331.767 150.469 333.053 151.407 334.501 152.264C336.002 153.068 337.422 153.685 338.762 154.113C338.065 161.456 336.752 166.548 334.822 169.388C332.893 172.175 329.918 173.569 325.898 173.569C320.591 173.569 316.276 170.433 312.953 164.163C308.879 168.772 304.35 172.818 299.365 176.302C298.561 175.23 297.462 173.971 296.068 172.523C294.728 171.13 293.522 169.978 292.45 169.067C298.668 165.101 304.135 160.277 308.852 154.596C306.172 145.485 304.323 134.846 303.304 122.68L279.988 124.69V133.292L299.847 131.523L299.767 134.096C299.767 150.817 298.909 160.036 297.194 161.751C295.8 163.787 293.951 165.047 291.646 165.529C289.395 165.958 286.313 166.28 282.4 166.494C282.292 165.101 281.998 163.627 281.515 162.072C281.086 160.465 280.497 159.044 279.746 157.812C282.855 157.812 285.16 157.731 286.661 157.57C287.733 157.463 288.537 157.061 289.073 156.364C289.77 155.346 290.226 150.281 290.44 141.17L279.988 142.055C279.72 158.294 276.852 170.942 271.384 180ZM245.575 114.721L222.982 116.731V111.505L245.575 109.495V114.721ZM245.575 127.182L222.982 129.192V123.966L245.575 121.956V127.182ZM214.298 104.833V137.311L254.58 133.774V101.295L214.298 104.833ZM184.389 170.755C185.836 173.863 186.72 176.704 187.042 179.276C192.563 178.955 196.61 178.044 199.183 176.543C200.523 175.686 201.434 174.587 201.916 173.247C202.452 171.907 202.72 170.058 202.72 167.7V148.245L211.484 144.949L210.278 136.266L202.72 138.919V126.941L210.6 126.217V117.374L202.72 118.097V102.984L193.313 103.787V118.901L183.745 119.705V128.548L193.313 127.745V142.135C189.24 143.475 185.595 144.6 182.379 145.511L184.71 154.435L193.313 151.541V168.584C193.313 169.12 193.179 169.495 192.911 169.71C192.697 169.978 192.295 170.138 191.705 170.192C191.169 170.299 190.204 170.38 188.811 170.433C187.471 170.54 185.997 170.648 184.389 170.755ZM207.625 166.092V174.614L258.279 170.192V161.67L238.821 163.359V152.988L255.063 151.621V143.18L238.821 144.547V137.07L229.093 137.954V145.431L213.012 146.798V155.239L229.093 153.872V164.243L207.625 166.092ZM103.503 146.235V146.557L107.202 146.235H103.503ZM103.503 139.482H177.474V129.754L103.503 136.186V139.482ZM390.461 121.715C391.694 122.841 392.685 123.912 393.436 124.931C402.227 119.143 409.918 111.88 416.511 103.144L407.426 100.25C405.014 103.787 401.905 107.218 398.099 110.54C394.294 113.81 390.488 116.543 386.682 118.741C387.969 119.598 389.228 120.59 390.461 121.715ZM387.808 141.813C390.381 143.582 392.605 145.619 394.481 147.923C403.325 141.813 411.098 134.176 417.798 125.011L409.034 122.197C406.568 125.896 403.379 129.486 399.466 132.97C395.553 136.454 391.667 139.402 387.808 141.813ZM371.647 133.131L362.32 133.935V116.65L371.647 115.846V133.131ZM346.883 176.624C348.276 177.803 349.375 178.875 350.179 179.839C354.789 174.426 357.925 168.557 359.586 162.233C361.248 155.909 362.132 149.424 362.24 142.778L371.647 141.974V177.347L380.973 176.543V141.17L388.692 140.447V131.603L380.973 132.327V115.042L387.647 114.399V105.476L345.596 109.174V118.097L353.476 117.454V134.739L344.149 135.543V144.386L353.395 143.582C353.234 148.995 352.43 154.274 350.983 159.419C349.536 164.565 346.936 169.388 343.184 173.89C344.31 174.587 345.543 175.498 346.883 176.624ZM383.707 168.423C386.334 170.406 388.558 172.791 390.381 175.578C402.602 168.289 412.304 158.455 419.486 146.074L410.401 143.341C407.56 148.54 403.754 153.31 398.984 157.651C394.267 161.938 389.175 165.529 383.707 168.423Z"
    fill="white" />
  <path fill-rule="evenodd" clip-rule="evenodd" d="M197.325 139.482V140.125L127.053 146.235H123.355V139.482H197.325Z"
    fill="#1136F1" style="mix-blend-mode:multiply" />
  <path fill-rule="evenodd" clip-rule="evenodd"
    d="M281.31 180C280.345 179.089 279.032 178.017 277.37 176.784C275.762 175.605 274.369 174.748 273.189 174.212C275.173 170.782 276.647 167.057 277.612 163.037C278.576 159.017 279.193 154.971 279.461 150.898C279.729 146.825 279.863 143.046 279.863 139.562V116.088L312.667 113.193C312.453 109.335 312.346 105.395 312.346 101.376L322.396 100.491V103.466C322.396 106.467 322.45 109.442 322.557 112.389L334.858 111.264C331.589 109.013 328.158 106.976 324.567 105.154L330.356 98.9639C332.661 99.9286 335.046 101.108 337.512 102.501C339.977 103.895 341.961 105.208 343.461 106.44L339.602 110.862L347.964 110.138V119.625L323.12 121.795C323.87 129.888 324.942 137.124 326.336 143.502C329.498 137.874 332.071 131.711 334.054 125.011L343.622 126.539C340.245 137.311 335.636 146.905 329.793 155.319C332.151 161 334.617 163.841 337.19 163.841H337.351C339.173 163.841 340.245 159.044 340.567 149.451C341.693 150.469 342.979 151.407 344.426 152.264C345.927 153.068 347.348 153.685 348.688 154.113C347.991 161.456 346.678 166.548 344.748 169.388C342.818 172.175 339.843 173.569 335.823 173.569C330.517 173.569 326.202 170.433 322.878 164.163C318.805 168.772 314.275 172.818 309.29 176.302C308.486 175.23 307.387 173.971 305.994 172.523C304.654 171.13 303.448 169.978 302.376 169.067C308.593 165.101 314.061 160.277 318.778 154.596C316.098 145.485 314.248 134.846 313.23 122.68L289.913 124.69V133.292L309.773 131.523L309.692 134.096C309.692 150.817 308.835 160.036 307.119 161.751C305.726 163.787 303.876 165.047 301.572 165.529C299.32 165.958 296.238 166.28 292.325 166.494C292.218 165.101 291.923 163.627 291.441 162.072C291.012 160.465 290.422 159.044 289.672 157.812C292.781 157.812 295.086 157.731 296.587 157.57C297.659 157.463 298.463 157.061 298.999 156.364C299.696 155.346 300.151 150.281 300.366 141.17L289.913 142.055C289.645 158.294 286.777 170.942 281.31 180ZM255.501 114.721L232.908 116.731V111.505L255.501 109.495V114.721ZM255.501 127.182L232.908 129.192V123.966L255.501 121.956V127.182ZM224.224 104.833V137.311L264.506 133.774V101.295L224.224 104.833ZM194.314 170.755C195.762 173.863 196.646 176.704 196.968 179.276C202.489 178.955 206.536 178.044 209.108 176.543C210.448 175.686 211.36 174.587 211.842 173.247C212.378 171.907 212.646 170.058 212.646 167.7V148.245L221.41 144.949L220.204 136.266L212.646 138.919V126.941L220.526 126.217V117.374L212.646 118.097V102.984L203.239 103.787V118.901L193.671 119.705V128.548L203.239 127.745V142.135C199.165 143.475 195.52 144.6 192.304 145.511L194.636 154.435L203.239 151.541V168.584C203.239 169.12 203.105 169.495 202.837 169.71C202.623 169.978 202.221 170.138 201.631 170.192C201.095 170.299 200.13 170.38 198.736 170.433C197.396 170.54 195.922 170.648 194.314 170.755ZM217.551 166.092V174.614L268.204 170.192V161.67L248.747 163.359V152.988L264.988 151.621V143.18L248.747 144.547V137.07L239.018 137.954V145.431L222.938 146.798V155.239L239.018 153.872V164.243L217.551 166.092ZM113.429 146.235V146.557L117.128 146.235H113.429ZM113.429 139.482H187.4V129.754L113.429 136.186V139.482ZM400.387 121.715C401.62 122.841 402.611 123.912 403.362 124.931C412.152 119.143 419.844 111.88 426.437 103.144L417.352 100.25C414.94 103.787 411.831 107.218 408.025 110.54C404.219 113.81 400.413 116.543 396.608 118.741C397.894 119.598 399.154 120.59 400.387 121.715ZM397.733 141.813C400.306 143.582 402.531 145.619 404.407 147.923C413.251 141.813 421.023 134.176 427.724 125.011L418.96 122.197C416.494 125.896 413.305 129.486 409.392 132.97C405.479 136.454 401.593 139.402 397.733 141.813ZM381.572 133.131L372.246 133.935V116.65L381.572 115.846V133.131ZM356.808 176.624C358.202 177.803 359.301 178.875 360.105 179.839C364.715 174.426 367.85 168.557 369.512 162.233C371.174 155.909 372.058 149.424 372.165 142.778L381.572 141.974V177.347L390.899 176.543V141.17L398.618 140.447V131.603L390.899 132.327V115.042L397.573 114.399V105.476L355.522 109.174V118.097L363.401 117.454V134.739L354.075 135.543V144.386L363.321 143.582C363.16 148.995 362.356 154.274 360.909 159.419C359.462 164.565 356.862 169.388 353.11 173.89C354.235 174.587 355.468 175.498 356.808 176.624ZM393.633 168.423C396.259 170.406 398.484 172.791 400.306 175.578C412.527 168.289 422.229 158.455 429.412 146.074L420.327 143.341C417.486 148.54 413.68 153.31 408.909 157.651C404.192 161.938 399.1 165.529 393.633 168.423Z"
    fill="#1136F1" style="mix-blend-mode:multiply" />
  <path fill-rule="evenodd" clip-rule="evenodd" d="M187.4 139.482V140.125L117.128 146.235H113.429V139.482H187.4Z"
    fill="#FF4FF8" style="mix-blend-mode:multiply" />
  <path fill-rule="evenodd" clip-rule="evenodd" d="M177.474 139.482V140.125L107.202 146.235H103.503V139.482H177.474Z"
    fill="#FF4FF8" style="mix-blend-mode:multiply" />
  <path d="M105.996 146.557V136.186L179.967 129.754V140.125L105.996 146.557Z" fill="white" />
  <path
    d="M225.475 116.731L248.068 114.721V109.495L225.475 111.505V116.731ZM225.475 129.192L248.068 127.182V121.956L225.475 123.966V129.192ZM216.791 137.311V104.833L257.073 101.295V133.774L216.791 137.311ZM189.534 179.276C189.213 176.704 188.328 173.863 186.881 170.755C188.489 170.648 189.963 170.54 191.303 170.433C192.697 170.38 193.662 170.299 194.198 170.192C194.787 170.138 195.189 169.978 195.404 169.71C195.672 169.495 195.806 169.12 195.806 168.584V151.541L187.203 154.435L184.871 145.511C188.087 144.6 191.732 143.475 195.806 142.135V127.745L186.238 128.548V119.705L195.806 118.901V103.787L205.213 102.984V118.097L213.092 117.374V126.217L205.213 126.941V138.919L212.771 136.266L213.977 144.949L205.213 148.245V167.7C205.213 170.058 204.945 171.907 204.409 173.247C203.927 174.587 203.015 175.686 201.675 176.543C199.102 178.044 195.055 178.955 189.534 179.276ZM210.118 174.614V166.092L231.585 164.243V153.872L215.505 155.239V146.798L231.585 145.431V137.954L241.314 137.07V144.547L257.555 143.18V151.621L241.314 152.988V163.359L260.771 161.67V170.192L210.118 174.614Z"
    fill="white" />
  <path
    d="M273.877 180C272.912 179.089 271.599 178.017 269.937 176.784C268.329 175.605 266.936 174.748 265.756 174.212C267.74 170.782 269.214 167.057 270.178 163.037C271.143 159.017 271.76 154.971 272.028 150.898C272.296 146.825 272.43 143.046 272.43 139.562V116.088L305.234 113.193C305.02 109.335 304.913 105.395 304.913 101.376L314.963 100.491V103.466C314.963 106.467 315.016 109.442 315.124 112.389L327.425 111.264C324.156 109.013 320.725 106.976 317.134 105.154L322.923 98.9639C325.228 99.9286 327.613 101.108 330.079 102.501C332.544 103.895 334.528 105.208 336.028 106.44L332.169 110.862L340.531 110.138V119.625L315.686 121.795C316.437 129.888 317.509 137.124 318.903 143.502C322.065 137.874 324.638 131.711 326.621 125.011L336.189 126.539C332.812 137.311 328.202 146.905 322.36 155.319C324.718 161 327.184 163.841 329.757 163.841H329.918C331.74 163.841 332.812 159.044 333.134 149.451C334.26 150.469 335.546 151.407 336.993 152.264C338.494 153.068 339.915 153.685 341.255 154.113C340.558 161.456 339.244 166.548 337.315 169.388C335.385 172.175 332.41 173.569 328.39 173.569C323.084 173.569 318.769 170.433 315.445 164.163C311.372 168.772 306.842 172.818 301.857 176.302C301.053 175.23 299.954 173.971 298.561 172.523C297.221 171.13 296.015 169.978 294.943 169.067C301.16 165.101 306.628 160.277 311.345 154.596C308.665 145.485 306.815 134.846 305.797 122.68L282.48 124.69V133.292L302.34 131.523L302.259 134.096C302.259 150.817 301.402 160.036 299.686 161.751C298.293 163.787 296.443 165.047 294.139 165.529C291.887 165.958 288.805 166.28 284.892 166.494C284.785 165.101 284.49 163.627 284.008 162.072C283.579 160.465 282.989 159.044 282.239 157.812C285.348 157.812 287.653 157.731 289.154 157.57C290.226 157.463 291.03 157.061 291.566 156.364C292.262 155.346 292.718 150.281 292.932 141.17L282.48 142.055C282.212 158.294 279.344 170.942 273.877 180Z"
    fill="white" />
  <path
    d="M395.928 124.931C395.178 123.912 394.186 122.841 392.954 121.715C391.721 120.59 390.461 119.598 389.175 118.741C392.98 116.543 396.786 113.81 400.592 110.54C404.398 107.218 407.506 103.787 409.919 100.25L419.004 103.144C412.411 111.88 404.719 119.143 395.928 124.931ZM396.974 147.923C395.098 145.619 392.873 143.582 390.3 141.813C394.16 139.402 398.046 136.454 401.959 132.97C405.872 129.486 409.061 125.896 411.527 122.197L420.29 125.011C413.59 134.176 405.818 141.813 396.974 147.923ZM364.813 133.935L374.139 133.131V115.846L364.813 116.65V133.935ZM352.672 179.839C351.868 178.875 350.769 177.803 349.375 176.624C348.035 175.498 346.802 174.587 345.677 173.89C349.429 169.388 352.029 164.565 353.476 159.419C354.923 154.274 355.727 148.995 355.888 143.582L346.642 144.386V135.543L355.968 134.739V117.454L348.089 118.097V109.174L390.139 105.476V114.399L383.466 115.042V132.327L391.185 131.603V140.447L383.466 141.17V176.543L374.139 177.347V141.974L364.732 142.778C364.625 149.424 363.741 155.909 362.079 162.233C360.417 168.557 357.282 174.426 352.672 179.839ZM392.873 175.578C391.051 172.791 388.826 170.406 386.2 168.423C391.667 165.529 396.759 161.938 401.476 157.651C406.247 153.31 410.053 148.54 412.893 143.341L421.979 146.074C414.796 158.455 405.094 168.289 392.873 175.578Z"
    fill="white" />
</svg>