<svg width="940" height="177" viewBox="0 0 940 177" fill="none" xmlns="http://www.w3.org/2000/svg">
  <g opacity="0.1">
    <path
      d="M105.325 35.6719H73.45L43.9187 174.773H3.13745L32.6687 35.6719H0.793701L7.59058 3.44531H112.122L105.325 35.6719Z"
      fill="url(#paint0_linear_294_1388)" />
    <path
      d="M157.131 5.67188C165.334 2.46875 174.241 0.867188 183.85 0.867188C193.459 0.867188 201.662 2.46875 208.459 5.67188C215.256 8.79688 220.491 13.0547 224.162 18.4453C230.412 27.6641 233.537 40.0469 233.537 55.5938C233.537 65.0469 232.366 75.3984 230.022 86.6484C227.678 97.8203 224.944 107.586 221.819 115.945C218.772 124.227 214.866 132.195 210.1 139.852C205.334 147.508 199.983 154.031 194.045 159.422C188.108 164.734 181.037 168.992 172.834 172.195C164.631 175.398 155.725 177 146.116 177C136.506 177 128.264 175.398 121.389 172.195C114.514 168.992 109.241 164.695 105.569 159.305C99.3187 150.164 96.1937 137.625 96.1937 121.688C96.1937 112.078 97.3656 101.766 99.7093 90.75C102.053 79.6562 104.748 69.9688 107.795 61.6875C110.92 53.3281 114.866 45.3594 119.631 37.7812C124.397 30.125 129.787 23.6406 135.803 18.3281C141.819 13.0156 148.928 8.79688 157.131 5.67188ZM137.795 119.461C137.795 136.258 142.873 144.656 153.03 144.656C168.342 144.656 179.944 126.062 187.834 88.875C190.569 76.1406 191.936 65.5938 191.936 57.2344C191.936 41.1406 186.936 33.0938 176.936 33.0938C169.202 33.0938 162.366 37.8203 156.428 47.2734C150.491 56.7266 145.569 70.5938 141.662 88.875C139.084 100.984 137.795 111.18 137.795 119.461Z"
      fill="url(#paint1_linear_294_1388)" />
    <path
      d="M280.187 118.758C280.187 136.18 285.539 144.891 296.242 144.891C299.445 144.891 302.922 144.539 306.672 143.836L313.82 109.852H293.312L300.227 77.5078H361.047L342.18 166.336C323.977 173.445 306.203 177 288.859 177C279.25 177 271.008 175.438 264.133 172.312C257.258 169.109 251.945 164.852 248.195 159.539C241.711 150.242 238.469 137.664 238.469 121.805C238.469 112.43 239.641 102.117 241.984 90.8672C244.328 79.6172 247.297 69.6562 250.891 60.9844C254.484 52.3125 258.977 44.3047 264.367 36.9609C269.758 29.5391 275.812 23.2109 282.531 17.9766C289.328 12.6641 297.102 8.52344 305.852 5.55469C314.68 2.58594 324.094 1.10156 334.094 1.10156C348.391 1.10156 361.945 5.125 374.758 13.1719L356.008 44.3438C344.836 37 335.852 33.3281 329.055 33.3281C324.055 33.3281 319.328 34.5 314.875 36.8438C310.422 39.1875 306.594 42.2344 303.391 45.9844C300.187 49.7344 297.258 54.1484 294.602 59.2266C289.758 68.2109 286.125 78.4062 283.703 89.8125C281.359 101.141 280.187 110.789 280.187 118.758Z"
      fill="url(#paint2_linear_294_1388)" />
    <path
      d="M478.127 35.2031H434.181L426.798 69.7734H467.58L460.783 101.648H420.002L411.33 142.664H455.275L448.478 174.773H363.517L399.845 3.44531H484.806L478.127 35.2031Z"
      fill="url(#paint3_linear_294_1388)" />
    <path
      d="M588.175 35.6719H556.3L526.769 174.773H485.987L515.519 35.6719H483.644L490.441 3.44531H594.972L588.175 35.6719Z"
      fill="url(#paint4_linear_294_1388)" />
    <path
      d="M683.927 174.773H643.028L658.497 101.883H627.559L612.091 174.773H571.192L607.52 3.44531H648.419L634.356 69.5391H665.294L679.356 3.44531H720.255L683.927 174.773Z"
      fill="url(#paint5_linear_294_1388)" />
    <path
      d="M823.623 35.2031H779.678L772.295 69.7734H813.077L806.28 101.648H765.498L756.827 142.664H800.772L793.975 174.773H709.014L745.342 3.44531H830.303L823.623 35.2031Z"
      fill="url(#paint6_linear_294_1388)" />
    <path
      d="M893.945 3.44531C912.773 3.44531 925.781 7.70312 932.969 16.2188C937.656 21.8438 940 29.3828 940 38.8359C940 43.8359 939.375 49.3438 938.125 55.3594C933.828 75.6719 923.711 90.4766 907.773 99.7734L924.648 174.773H881.406L868.867 110.086H866.758L853.047 174.773H812.148L848.477 3.44531H893.945ZM876.484 78.4453C881.875 78.4453 886.172 76.6094 889.375 72.9375C892.656 69.2656 895.117 63.6797 896.758 56.1797C897.461 52.7422 897.812 49.6562 897.812 46.9219C897.812 39.1094 893.711 35.2031 885.508 35.2031H882.695L873.437 78.4453H876.484Z"
      fill="url(#paint7_linear_294_1388)" />
  </g>
  <defs>
    <linearGradient id="paint0_linear_294_1388" x1="462.122" y1="0.646464" x2="462.122" y2="191.415"
      gradientUnits="userSpaceOnUse">
      <stop stop-color="#647184" />
      <stop offset="1" stop-color="#3E5C8E" stop-opacity="0.6" />
    </linearGradient>
    <linearGradient id="paint1_linear_294_1388" x1="462.122" y1="0.646464" x2="462.122" y2="191.415"
      gradientUnits="userSpaceOnUse">
      <stop stop-color="#647184" />
      <stop offset="1" stop-color="#3E5C8E" stop-opacity="0.6" />
    </linearGradient>
    <linearGradient id="paint2_linear_294_1388" x1="462.122" y1="0.646464" x2="462.122" y2="191.415"
      gradientUnits="userSpaceOnUse">
      <stop stop-color="#647184" />
      <stop offset="1" stop-color="#3E5C8E" stop-opacity="0.6" />
    </linearGradient>
    <linearGradient id="paint3_linear_294_1388" x1="462.122" y1="0.646464" x2="462.122" y2="191.415"
      gradientUnits="userSpaceOnUse">
      <stop stop-color="#647184" />
      <stop offset="1" stop-color="#3E5C8E" stop-opacity="0.6" />
    </linearGradient>
    <linearGradient id="paint4_linear_294_1388" x1="462.122" y1="0.646464" x2="462.122" y2="191.415"
      gradientUnits="userSpaceOnUse">
      <stop stop-color="#647184" />
      <stop offset="1" stop-color="#3E5C8E" stop-opacity="0.6" />
    </linearGradient>
    <linearGradient id="paint5_linear_294_1388" x1="462.122" y1="0.646464" x2="462.122" y2="191.415"
      gradientUnits="userSpaceOnUse">
      <stop stop-color="#647184" />
      <stop offset="1" stop-color="#3E5C8E" stop-opacity="0.6" />
    </linearGradient>
    <linearGradient id="paint6_linear_294_1388" x1="462.122" y1="0.646464" x2="462.122" y2="191.415"
      gradientUnits="userSpaceOnUse">
      <stop stop-color="#647184" />
      <stop offset="1" stop-color="#3E5C8E" stop-opacity="0.6" />
    </linearGradient>
    <linearGradient id="paint7_linear_294_1388" x1="462.122" y1="0.646464" x2="462.122" y2="191.415"
      gradientUnits="userSpaceOnUse">
      <stop stop-color="#647184" />
      <stop offset="1" stop-color="#3E5C8E" stop-opacity="0.6" />
    </linearGradient>
  </defs>
</svg>