<svg width="531" height="104" viewBox="0 0 531 104" fill="none" xmlns="http://www.w3.org/2000/svg">
  <path
    d="M23.5201 12.144V9.36L17.9041 9.84V5.136L23.5201 4.656V1.44L28.9441 0.959999V4.176L34.5121 3.696V0.479997L40.0801 -2.86102e-06V3.216L45.4561 2.736V7.44L40.0801 7.92V10.704L34.5121 11.184V8.4L28.9441 8.88V11.664L23.5201 12.144ZM7.29612 47.568V31.344C6.20812 34.48 5.02412 37.136 3.74412 39.312C3.04012 37.456 2.12812 35.616 1.00812 33.792C2.35212 31.872 3.56812 29.52 4.65612 26.736C5.74412 23.92 6.62412 21.088 7.29612 18.24V16.992L2.11212 17.472V12.192L7.29612 11.712V2.784L12.7201 2.352V11.28L17.0401 10.896V16.176L12.7201 16.56V18.24C13.2321 18.848 13.8881 19.712 14.6881 20.832C15.4881 21.952 16.2561 23.056 16.9921 24.144C17.7281 25.2 18.2561 25.968 18.5761 26.448L15.1681 30.72C14.5921 29.28 13.7761 27.552 12.7201 25.536V47.136L7.29612 47.568ZM24.5281 24.672L37.7281 23.52V21.408L24.5281 22.56V24.672ZM24.5281 18.864L37.7281 17.712V15.648L24.5281 16.8V18.864ZM18.1441 46.704C17.8881 46 17.4721 45.232 16.8961 44.4C16.3521 43.6 15.8081 42.928 15.2641 42.384C21.0241 40.688 24.6721 38.544 26.2081 35.952L17.0401 36.768V32.064L28.0321 31.104C28.1921 30.208 28.3201 29.28 28.4161 28.32L19.2481 29.136V13.344L43.2481 11.232V27.024L34.0321 27.84C33.9361 28.768 33.8081 29.68 33.6481 30.576L45.6481 29.568V34.272L37.2481 34.992C39.4241 37.392 42.6401 38.848 46.8961 39.36C46.2881 40 45.6481 40.8 44.9761 41.76C44.3361 42.72 43.8081 43.6 43.3921 44.4C38.1121 43.344 34.3041 40.688 31.9681 36.432C31.0081 38.608 29.4401 40.528 27.2641 42.192C25.0881 43.888 22.0481 45.392 18.1441 46.704ZM81.6481 27.216C81.3601 25.648 80.8001 24.016 79.9681 22.32C83.5841 22.16 85.5521 21.952 85.8721 21.696C86.0001 21.568 86.0641 21.344 86.0641 21.024V0.623998L91.4881 0.143998V20.64C91.4881 21.984 91.3281 23.04 91.0081 23.808C90.2081 25.76 87.0881 26.896 81.6481 27.216ZM77.3281 19.824V3.6L82.5601 3.168V19.392L77.3281 19.824ZM61.4401 13.968L65.4721 13.632V8.592L61.4401 8.928V13.968ZM50.3041 46.56V41.28L69.0721 39.6V35.76L55.1521 37.008V31.824L69.0721 30.576V27.552L65.4721 27.888V18.672L61.0561 19.056C60.2561 23.728 57.7441 27.456 53.5201 30.24C53.1041 29.696 52.5121 29.056 51.7441 28.32C50.9761 27.552 50.3201 26.976 49.7761 26.592C52.9121 24.64 54.8641 22.288 55.6321 19.536L50.7841 19.968V14.928L56.2081 14.448V9.408L52.4161 9.744V4.752L74.2081 2.832V7.824L70.8001 8.112V13.152L75.3121 12.768V17.808L70.8001 18.192V26.592L74.9281 26.256V30.096L88.8001 28.848V34.032L74.9281 35.28V39.12L93.5521 37.488V42.768L50.3041 46.56ZM108.192 14.448C106.368 12.464 103.504 10.112 99.6001 7.392L103.104 3.312L103.536 3.6C107.696 6.32 110.512 8.384 111.984 9.792L108.192 14.448ZM103.776 47.328C103.488 46.72 103.04 46.048 102.432 45.312C101.856 44.576 101.328 44 100.848 43.584C101.424 43.104 101.952 42.4 102.432 41.472C102.944 40.544 103.2 39.44 103.2 38.16V23.04L97.6321 23.52V18.048L108.672 17.088V34.992L112.128 31.68C112.64 33.216 113.296 34.656 114.096 36C114.832 33.408 115.296 30.752 115.488 28.032C115.68 25.312 115.776 22.592 115.776 19.872V3.264L121.488 2.736V19.344C121.488 22.416 121.376 25.52 121.152 28.656C120.928 31.76 120.448 34.816 119.712 37.824C118.976 40.832 117.84 43.696 116.304 46.416C115.6 45.936 114.704 45.44 113.616 44.928C112.528 44.416 111.552 44.032 110.688 43.776C112.096 41.536 113.152 39.216 113.856 36.816C111.264 39.312 109.28 41.248 107.904 42.624C106.56 44 105.584 45.024 104.976 45.696C104.4 46.368 104 46.912 103.776 47.328ZM125.616 39.264V4.848L130.896 4.368V38.784L125.616 39.264ZM135.168 44.256V1.2L140.88 0.719999V43.776L135.168 44.256ZM147.408 35.664L147.36 35.424C146.816 33.664 146.272 32.16 145.728 30.912C146.784 30.496 147.904 29.376 149.088 27.552C149.792 26.656 150.848 24.992 152.256 22.56C149.248 23.2 147.52 23.68 147.072 24V23.808C147.04 23.84 147.024 23.904 147.024 24C146.704 22.88 146.096 21.232 145.2 19.056C146.128 18.64 146.96 17.584 147.696 15.888C148.208 14.992 148.96 13.232 149.952 10.608C150.976 7.984 151.824 5.184 152.496 2.208L157.776 4.176C156.208 9.072 154.176 13.712 151.68 18.096L154.896 17.568C155.76 15.904 156.512 14.224 157.152 12.528L161.76 14.784C159.648 19.36 157.184 23.712 154.368 27.84L160.944 26.064C160.848 26.928 160.8 28.048 160.8 29.424C160.8 29.936 160.816 30.4 160.848 30.816C157.456 31.872 154.848 32.704 153.024 33.312C151.232 33.888 149.936 34.352 149.136 34.704C148.336 35.056 147.776 35.344 147.456 35.568L147.408 35.664ZM147.072 45.744L145.728 40.272C149.504 38.672 154.24 36.576 159.936 33.984L160.848 38.112C159.056 39.136 154.464 41.68 147.072 45.744ZM163.296 44.544C162.24 43.584 160.928 42.656 159.36 41.76C160.704 40.256 161.952 38.528 163.104 36.576C164.288 34.624 165.2 32.784 165.84 31.056L171.024 32.064C168.944 36.704 166.368 40.864 163.296 44.544ZM169.056 23.76L173.664 23.376V19.536L170.544 19.776L169.056 23.76ZM169.584 45.84C169.392 44.336 168.864 42.672 168 40.848C168.8 40.816 169.584 40.768 170.352 40.704C171.856 40.576 172.672 40.496 172.8 40.464H172.896C173.408 40.464 173.664 40.176 173.664 39.6V28.512L168.48 28.944C165.952 29.168 164.448 29.552 163.968 30.096C163.68 28.848 163.104 27.28 162.24 25.392C163.264 24.944 164.208 23.456 165.072 20.928L165.36 20.256L162.528 20.496V15.312L166.992 14.928C167.344 13.84 167.664 12.688 167.952 11.472L161.808 12V6.768L169.248 6.144C169.632 4.384 169.952 2.64 170.208 0.911997L175.776 1.152C175.488 2.656 175.152 4.16 174.768 5.664L188.784 4.416V9.648L173.328 10.992C173.008 12.176 172.672 13.328 172.32 14.448L179.184 13.872V22.896L188.112 22.08V27.216L179.184 28.032V39.216C179.184 41.904 178.448 43.6 176.976 44.304C175.344 45.136 172.88 45.648 169.584 45.84ZM185.76 42.144C184.864 39.872 183.2 36.464 180.768 31.92L185.232 29.472L185.616 30.096C188.048 34.352 189.696 37.408 190.56 39.264L185.76 42.144ZM195.6 31.968V8.64L200.688 8.208V31.536L195.6 31.968ZM200.4 47.376C199.888 46.832 199.216 46.224 198.384 45.552C197.552 44.912 196.784 44.4 196.08 44.016C198.288 41.904 199.92 39.648 200.976 37.248C202.032 34.816 202.72 32.288 203.04 29.664C203.36 27.008 203.52 24.304 203.52 21.552V2.592L208.752 2.112V21.12C208.752 24.32 208.576 27.472 208.224 30.576C207.872 33.68 207.088 36.656 205.872 39.504C204.656 42.352 202.832 44.976 200.4 47.376ZM221.184 45.648V17.712L216.816 18.096V39.168L211.68 39.6V13.392L221.184 12.576V8.304L210.384 9.216V4.032L237.744 1.632V6.816L226.512 7.824V12.096L236.592 11.184V31.92C236.592 33.072 236.464 34.016 236.208 34.752C235.536 36.704 233.168 37.776 229.104 37.968C228.88 36.272 228.384 34.688 227.616 33.216C229.856 33.088 231.024 32.96 231.12 32.832C231.248 32.704 231.312 32.512 231.312 32.256V16.8L226.512 17.232V45.168L221.184 45.648ZM253.392 13.296L263.088 12.48V10.464L253.392 11.28V13.296ZM253.392 18.912L263.088 18.096V16.176L253.392 16.992V18.912ZM253.392 24.72L263.088 23.904V21.792L253.392 22.608V24.72ZM247.728 30.864V17.136C246.864 17.968 246 18.768 245.136 19.536C244.656 18.96 244.032 18.336 243.264 17.664C242.496 16.992 241.776 16.496 241.104 16.176C243.76 14 246.048 11.696 247.968 9.264C249.888 6.832 251.392 4.512 252.48 2.304L258.288 2.88C257.584 4.16 256.816 5.44 255.984 6.72L263.76 6C263.312 4.816 262.816 3.712 262.272 2.688L267.408 0.815998C268.336 2.32 269.104 3.888 269.712 5.52L283.2 4.32V8.688L268.56 9.984V12L281.04 10.896V14.592L268.56 15.696V17.616L281.088 16.512V20.208L268.56 21.312V23.424L284.352 22.032V26.352L253.392 29.04V30.336L247.728 30.864ZM244.512 47.568C243.424 45.904 242.192 44.432 240.816 43.152C246.32 41.456 251.44 39.152 256.176 36.24L242.4 37.44V32.88L261.072 31.248V28.8L266.736 28.32V30.768L285.552 29.136V33.696L271.968 34.848C276.512 36.928 281.44 38.336 286.752 39.072C286.112 39.712 285.456 40.496 284.784 41.424C284.112 42.352 283.584 43.184 283.2 43.92C277.28 42.736 271.792 40.592 266.736 37.488V45.84L261.072 46.32V38.208C255.984 42.208 250.464 45.328 244.512 47.568ZM290.256 46.176L289.344 40.368C294.528 39.152 300.688 37.552 307.824 35.568L308.256 40.848L290.256 46.176ZM291.264 35.616C291.136 34.976 290.88 34.128 290.496 33.072C290.112 31.984 289.744 31.056 289.392 30.288C290.576 29.872 291.872 28.784 293.28 27.024C294.144 26.16 295.44 24.512 297.168 22.08C293.712 22.752 291.616 23.312 290.88 23.76C290.464 22.128 289.808 20.336 288.912 18.384C289.904 18 290.88 17.008 291.84 15.408C292.448 14.544 293.36 12.896 294.576 10.464C295.824 8 296.928 5.344 297.888 2.496L303.792 4.416C301.776 8.96 299.376 13.264 296.592 17.328L300.672 16.704C301.696 14.944 302.656 13.152 303.552 11.328L308.592 14.208C305.84 18.976 302.72 23.44 299.232 27.6L307.488 25.632V26.256C307.488 27.568 307.6 28.992 307.824 30.528C303.536 31.648 300.272 32.528 298.032 33.168C295.824 33.808 294.24 34.304 293.28 34.656C292.352 35.008 291.68 35.328 291.264 35.616ZM315.744 38.64L325.92 37.776V30.816L315.744 31.68V38.64ZM310.128 46.32V27.024L331.776 25.152V44.256L325.92 44.784V42.912L315.744 43.776V45.84L310.128 46.32ZM309.024 23.616V18.192L317.808 17.424V12.144L307.776 13.056V7.584L317.808 6.672V0.767999L323.808 0.239997V6.144L333.792 5.28V10.752L323.808 11.616V16.896L332.64 16.128V21.552L309.024 23.616ZM345.552 30.912L344.256 14.64L344.016 7.488L351.984 6.816L351.744 13.968L350.448 30.48L345.552 30.912ZM348 43.488H347.568C346.512 43.488 345.616 43.152 344.88 42.48C344.144 41.84 343.776 40.896 343.776 39.648C343.776 38.368 344.176 37.296 344.976 36.432C345.904 35.472 347.056 34.992 348.432 34.992C349.456 34.992 350.336 35.328 351.072 36C351.84 36.64 352.224 37.6 352.224 38.88C352.224 40.128 351.824 41.168 351.024 42C350.224 42.864 349.216 43.36 348 43.488Z"
    fill="white" />
  <path
    d="M6.92812 77.808H13.9521V84.16H6.92812V77.808ZM13.4241 83.632V81.264H7.45612V83.632H13.4241ZM7.45612 80.736H13.4241V78.352H7.45612V80.736ZM10.1121 84.944H10.6401V86.864H14.4161V87.392H10.6401V90.432H15.1681V90.976H5.53612V90.432H10.1121V87.392H6.38412V86.864H10.1121V84.944ZM1.18412 91.376L1.07212 90.848C1.73346 90.8693 2.19746 90.88 2.46412 90.88C2.92279 90.88 3.15212 90.6827 3.15212 90.288V85.456C2.29879 85.7867 1.53612 86.048 0.864122 86.24L0.720122 85.712C1.54146 85.4987 2.35212 85.232 3.15212 84.912V80.816H0.960122V80.288H3.15212V77.056H3.69612V80.288H5.50412V80.816H3.69612V84.688C4.42146 84.3573 5.03479 84.0587 5.53612 83.792V84.352C4.96012 84.6507 4.34679 84.944 3.69612 85.232V90.432C3.69612 91.0613 3.34946 91.376 2.65612 91.376H1.18412ZM16.3041 78.576H25.6641V79.152H21.3121V90H20.6881V79.152H16.3041V78.576ZM30.4009 81.504C31.5315 81.504 32.3742 81.824 32.9289 82.464C33.3982 82.9973 33.6329 83.728 33.6329 84.656V90H33.0409V88.224C32.6995 88.7147 32.2355 89.1573 31.6489 89.552C30.9449 90 30.1822 90.224 29.3609 90.224C28.5715 90.224 27.9262 90.0213 27.4249 89.616C26.9235 89.1893 26.6729 88.624 26.6729 87.92C26.6729 86.864 27.1155 86.1013 28.0009 85.632C28.6835 85.2587 29.6169 85.072 30.8009 85.072L33.0249 85.056V84.72C33.0249 82.9493 32.1449 82.064 30.3849 82.064C29.5955 82.064 28.9609 82.24 28.4809 82.592C27.9475 82.9653 27.6329 83.4987 27.5369 84.192H26.9289C27.0569 83.296 27.4355 82.6187 28.0649 82.16C28.6409 81.7227 29.4195 81.504 30.4009 81.504ZM33.0249 85.6L30.8169 85.616C28.4702 85.6267 27.2969 86.4 27.2969 87.936C27.2969 88.4587 27.4942 88.88 27.8889 89.2C28.2835 89.5093 28.8115 89.664 29.4729 89.664C30.3689 89.664 31.1955 89.3493 31.9529 88.72C32.6675 88.0907 33.0249 87.4507 33.0249 86.8V85.6ZM38.5764 90.656V91.504H38.0324V85.248H47.9684V91.504H47.4404V90.656H38.5764ZM47.4404 90.112V85.792H38.5764V90.112H47.4404ZM48.2404 78C48.2404 80.496 48.075 82.1067 47.7444 82.832C47.3924 83.5253 46.779 83.872 45.9044 83.872C45.371 83.872 44.7844 83.8613 44.1444 83.84L44.0004 83.296C44.6724 83.328 45.2964 83.344 45.8724 83.344C46.8217 83.2907 47.3604 82.7733 47.4884 81.792C47.627 80.704 47.6964 79.616 47.6964 78.528H41.4244C40.8164 81.7493 38.987 83.776 35.9364 84.608L35.6964 84.096C38.5977 83.3173 40.3204 81.4613 40.8644 78.528H36.5924V78H48.2404ZM51.8404 87.456V86.928H58.4324V85.824H58.9764V86.928H65.4724V87.456H60.0164C61.1257 88.7893 62.9977 89.84 65.6324 90.608L65.3924 91.088C62.523 90.1493 60.5497 88.9387 59.4724 87.456H58.9764V91.536H58.4324V87.456H57.8884C56.9177 88.896 54.9497 90.128 51.9844 91.152L51.6964 90.672C54.555 89.744 56.4484 88.672 57.3764 87.456H51.8404ZM53.5844 80.32C53.051 80.9707 52.4324 81.6107 51.7284 82.24L51.4724 81.776C52.987 80.4533 54.1337 78.8587 54.9124 76.992L55.4084 77.168C55.2484 77.6053 55.019 78.0907 54.7204 78.624H58.8004C58.555 77.9947 58.3257 77.4667 58.1124 77.04L58.6564 76.944C58.9017 77.424 59.1257 77.984 59.3284 78.624H64.7204V79.136H59.3924V80.656H64.1924V81.136H59.3924V82.624H64.1924V83.104H59.3924V84.704H65.0084V85.216H53.5844V80.32ZM54.4164 79.136L54.1124 79.6V80.656H58.8644V79.136H54.4164ZM58.8644 84.704V83.104H54.1124V84.704H58.8644ZM58.8644 82.624V81.136H54.1124V82.624H58.8644ZM73.4564 80.928H80.6884V85.68H77.3124C77.291 86.2987 77.227 86.8533 77.1204 87.344H81.8404V87.856H77.3444C78.2937 89.2107 79.8084 90.288 81.8884 91.088L81.5364 91.504C79.371 90.608 77.8244 89.456 76.8964 88.048C76.843 88.1973 76.763 88.4 76.6564 88.656C76.0484 89.8187 74.7097 90.768 72.6404 91.504L72.3044 91.072C74.171 90.4213 75.4297 89.5947 76.0804 88.592C76.219 88.336 76.331 88.0907 76.4164 87.856H72.2244V87.344H76.5764C76.715 86.832 76.795 86.2773 76.8164 85.68H73.4564V80.928ZM80.1604 85.2V83.536H73.9684V85.2H80.1604ZM73.9684 83.072H80.1604V81.408H73.9684V83.072ZM72.3684 78.544H74.9444V77.008H75.4884V78.544H78.4964V77.008H79.0404V78.544H81.7124V79.056H79.0404V80.384H78.4964V79.056H75.4884V80.384H74.9444V79.056H72.3684V78.544ZM70.4164 91.472H69.8724V82.4C69.339 84.2453 68.5657 85.92 67.5524 87.424L67.3124 86.864C68.539 85.136 69.3924 83.1413 69.8724 80.88H67.6484V80.352H69.8724V77.008H70.4164V80.352H72.1924V80.88H70.4164V82.128C71.0884 83.0453 71.7497 84.048 72.4004 85.136L72.0964 85.584C71.4457 84.3573 70.8857 83.4027 70.4164 82.72V91.472ZM84.2404 77.904H91.5684V78.416H89.7604V81.328H91.9044V81.872H89.7604V85.584H89.2164V81.872H86.5924C86.4324 83.6213 85.787 84.928 84.6564 85.792L84.2564 85.424C85.3337 84.6347 85.9364 83.4507 86.0644 81.872H83.8244V81.328H86.0964V78.416H84.2404V77.904ZM86.6244 78.416V81.328H89.2164V78.416H86.6244ZM93.2484 78.096H93.7764V83.616H93.2484V78.096ZM84.6084 87.504H90.4484V85.76H90.9924V87.504H96.7204V88.016H90.9924V90.496H97.6164V91.024H83.6964V90.496H90.4484V88.016H84.6084V87.504ZM93.5204 85.648L93.4084 85.12C94.1337 85.152 94.8217 85.168 95.4724 85.168C95.9204 85.168 96.1444 84.9707 96.1444 84.576V77.2H96.6724V84.704C96.6724 85.3333 96.3364 85.648 95.6644 85.648H93.5204ZM109.168 78.112H109.712V90.48H109.168V78.112ZM112.528 77.312H113.072V91.552H112.528V77.312ZM105.968 77.36H106.496V84.336C106.464 87.6427 105.712 90.064 104.24 91.6L103.824 91.248C105.222 89.8187 105.936 87.5147 105.968 84.336V77.36ZM100.96 77.216C102.08 78.0587 103.046 78.9333 103.856 79.84L103.488 80.224C102.763 79.4027 101.792 78.5227 100.576 77.584L100.96 77.216ZM99.4724 82.096H102.544V89.584C103.11 89.104 103.718 88.512 104.368 87.808L104.512 88.4C103.723 89.2533 102.88 90.016 101.984 90.688L101.76 90.208C101.931 90.016 102.016 89.8453 102.016 89.696V82.64H99.4724V82.096ZM120.448 89.216C119.019 89.8347 117.355 90.3413 115.456 90.736L115.376 90.208C117.318 89.824 119.008 89.312 120.448 88.672V89.216ZM119.024 77.376C118.118 79.6907 117.232 81.4507 116.368 82.656C117.286 82.5387 118.171 82.3733 119.024 82.16L119.968 80.304L120.448 80.496C118.88 83.568 117.616 85.648 116.656 86.736C118.022 86.48 119.323 86.1227 120.56 85.664V86.16C118.982 86.7253 117.467 87.12 116.016 87.344L115.856 86.816C115.952 86.7733 116.043 86.7147 116.128 86.64C116.886 85.8187 117.76 84.5013 118.752 82.688C117.643 82.9333 116.667 83.12 115.824 83.248L115.68 82.72C115.744 82.688 115.824 82.6187 115.92 82.512C116.923 81.0293 117.782 79.2427 118.496 77.152L119.024 77.376ZM123.152 86.88C122.544 88.448 121.84 89.792 121.04 90.912L120.544 90.64C121.504 89.2853 122.214 87.9627 122.672 86.672L123.152 86.88ZM128.048 86.624C128.752 87.872 129.382 89.232 129.936 90.704L129.472 90.928C128.896 89.3707 128.256 87.9893 127.552 86.784L128.048 86.624ZM123.2 91.392L123.04 90.88H124.624C125.115 90.88 125.36 90.6347 125.36 90.144V85.44H121.776L121.648 84.944C122.075 84.208 122.496 83.328 122.912 82.304H120.88V81.792H123.12C123.398 81.024 123.654 80.2667 123.888 79.52H120.288V78.992H124.048C124.208 78.4267 124.39 77.7493 124.592 76.96L125.136 77.056L124.608 78.992H129.504V79.52H124.448C124.214 80.2667 123.958 81.024 123.68 81.792H125.888V84.928H129.488V85.44H125.888V90.304C125.888 91.0293 125.52 91.392 124.784 91.392H123.2ZM123.472 82.304C123.078 83.2853 122.678 84.16 122.272 84.928H125.36V82.304H123.472ZM137.04 77.872H145.856V78.416H141.728V80.944H145.056V88.608C145.056 89.3333 144.731 89.696 144.08 89.696H142.992L142.848 89.152L143.904 89.168C144.31 89.168 144.512 88.944 144.512 88.496V81.472H141.728V91.392H141.184V81.472H138.4V89.888H137.856V80.944H141.184V78.416H137.04V77.872ZM132.336 79.184H132.88V87.44H132.336V79.184ZM135.152 77.152H135.696V84.624C135.643 87.7707 134.534 90.064 132.368 91.504L131.952 91.152C134.054 89.808 135.12 87.632 135.152 84.624V77.152ZM149.456 88.736C149.968 88.736 150.224 89.0827 150.224 89.776C150.224 90.928 149.771 91.7547 148.864 92.256L148.592 91.84C149.286 91.36 149.648 90.7413 149.68 89.984L149.472 90C149.28 90 149.12 89.9467 148.992 89.84C148.875 89.7333 148.816 89.5787 148.816 89.376C148.816 89.1627 148.87 89.0027 148.976 88.896C149.094 88.7893 149.254 88.736 149.456 88.736ZM164.4 80.464H167.536V76.88H168.08V80.464H173.232V76.944H173.776V80.464H176.928V81.008H173.776V85.472H177.712V86H163.6V85.472H167.536V81.008H164.4V80.464ZM168.08 85.472H173.232V81.008H168.08V85.472ZM169.072 87.392C167.707 88.9387 166.022 90.2827 164.016 91.424L163.664 90.96C165.638 89.8293 167.307 88.5173 168.672 87.024L169.072 87.392ZM172.752 87.056C174.694 88.3573 176.315 89.6693 177.616 90.992L177.2 91.392C175.984 90.144 174.368 88.816 172.352 87.408L172.752 87.056ZM185.872 82.736H181.76V90.224C181.76 90.544 181.947 90.704 182.32 90.704H185.824C186.475 90.704 186.886 90.5547 187.056 90.256C187.238 89.8613 187.36 89.1787 187.424 88.208L187.952 88.384C187.856 89.6853 187.659 90.5067 187.36 90.848C187.104 91.104 186.614 91.232 185.888 91.232H182.208C181.536 91.232 181.2 90.928 181.2 90.32V82.24H186.416V86.24C186.395 87.0613 186.006 87.4773 185.248 87.488C184.854 87.488 184.272 87.4667 183.504 87.424L183.344 86.912C184.155 86.9547 184.752 86.976 185.136 86.976C185.627 86.976 185.872 86.704 185.872 86.16V82.736ZM184.192 77.248C185.611 78.784 186.96 80.368 188.24 82L187.872 82.384C186.55 80.6667 185.264 79.1253 184.016 77.76C182.694 79.6907 181.243 81.376 179.664 82.816L179.344 82.384C180.944 80.9333 182.411 79.2213 183.744 77.248H184.192ZM189.52 78.416H190.064V88.528H189.52V78.416ZM189.472 91.376L189.36 90.848C190.288 90.88 191.168 90.896 192 90.896C192.342 90.896 192.512 90.6933 192.512 90.288V77.056H193.056V90.416C193.056 91.056 192.768 91.376 192.192 91.376H189.472ZM201.584 77.808H208.608V84.16H201.584V77.808ZM208.08 83.632V81.264H202.112V83.632H208.08ZM202.112 80.736H208.08V78.352H202.112V80.736ZM204.768 84.944H205.296V86.864H209.072V87.392H205.296V90.432H209.824V90.976H200.192V90.432H204.768V87.392H201.04V86.864H204.768V84.944ZM195.84 91.376L195.728 90.848C196.39 90.8693 196.854 90.88 197.12 90.88C197.579 90.88 197.808 90.6827 197.808 90.288V85.456C196.955 85.7867 196.192 86.048 195.52 86.24L195.376 85.712C196.198 85.4987 197.008 85.232 197.808 84.912V80.816H195.616V80.288H197.808V77.056H198.352V80.288H200.16V80.816H198.352V84.688C199.078 84.3573 199.691 84.0587 200.192 83.792V84.352C199.616 84.6507 199.003 84.944 198.352 85.232V90.432C198.352 91.0613 198.006 91.376 197.312 91.376H195.84ZM212.464 77.216C213.563 78.112 214.48 79.0133 215.216 79.92L214.832 80.304C214.15 79.44 213.238 78.528 212.096 77.568L212.464 77.216ZM221.952 91.216C221.419 91.216 220.47 91.2053 219.104 91.184C218.027 91.152 217.206 91.0453 216.64 90.864C216.011 90.6613 215.446 90.2507 214.944 89.632C214.731 89.3547 214.523 89.216 214.32 89.216C213.819 89.216 213.056 90 212.032 91.568L211.6 91.2C212.592 89.696 213.414 88.864 214.064 88.704V83.28H211.6V82.736H214.592V88.72C214.784 88.7947 214.998 88.9653 215.232 89.232C215.638 89.7333 216.096 90.096 216.608 90.32C217.152 90.512 217.899 90.624 218.848 90.656C219.851 90.6773 220.859 90.688 221.872 90.688L225.968 90.64L225.84 91.216H221.952ZM217.856 79.664C217.547 80.272 217.195 80.8533 216.8 81.408L216.336 81.12C217.158 80.0427 217.771 78.7947 218.176 77.376L218.704 77.488C218.534 78.064 218.331 78.6133 218.096 79.136H220.848V77.008H221.376V79.136H224.896V79.664H221.376V82.224H225.696V82.752H216.064V82.224H220.848V79.664H217.856ZM217.456 84.512H224.432V88.704H217.456V84.512ZM223.904 88.192V85.04H217.984V88.192H223.904ZM233.04 79.648H236.224V77.04H236.768V79.648H240.176V84.464H241.712V85.008H236.816C237.872 87.5253 239.595 89.52 241.984 90.992L241.616 91.408C239.174 89.808 237.43 87.744 236.384 85.216C235.744 88.0427 234.272 90.096 231.968 91.376L231.632 90.944C233.904 89.7493 235.328 87.7707 235.904 85.008H232.16V84.464H236C236.15 83.6 236.224 82.7093 236.224 81.792V80.176H233.04V79.648ZM236.768 80.176V81.664C236.768 82.6347 236.694 83.568 236.544 84.464H239.632V80.176H236.768ZM228.592 80.064C228.55 81.6533 228.331 83.1787 227.936 84.64L227.456 84.496C227.83 83.1307 228.048 81.6373 228.112 80.016L228.592 80.064ZM231.616 79.68C232.086 80.7787 232.491 81.9733 232.832 83.264L232.352 83.392C232.032 82.176 231.632 80.9867 231.152 79.824L231.616 79.68ZM229.888 77.056H230.432V91.456H229.888V77.056ZM244.624 84.048C245.126 81.904 245.478 80.016 245.68 78.384C245.872 78.4053 246.022 78.416 246.128 78.416C250.043 78.4053 253.227 78.0107 255.68 77.232L255.952 77.712C253.435 78.4587 250.16 78.848 246.128 78.88C245.851 80.6827 245.558 82.224 245.248 83.504H250.512V80.192H251.056V83.504H257.136V84.048H251.056V90.112C251.056 91.008 250.646 91.456 249.824 91.456H247.712L247.6 90.928C248.539 90.9493 249.216 90.96 249.632 90.96C250.219 90.96 250.512 90.6293 250.512 89.968V84.048H244.624ZM247.248 85.84C246.363 87.76 245.334 89.408 244.16 90.784L243.696 90.464C244.87 89.1307 245.894 87.5093 246.768 85.6L247.248 85.84ZM254.144 85.504C255.232 87.1147 256.219 88.8427 257.104 90.688L256.624 90.944C255.707 89.0133 254.715 87.28 253.648 85.744L254.144 85.504ZM264.864 79.968V90.544H264.32V89.488H260.768V90.992H260.224V79.968H261.632C261.984 79.04 262.24 78.0533 262.4 77.008L262.944 77.088C262.763 78.1547 262.502 79.1147 262.16 79.968H264.864ZM260.768 88.976H264.32V84.896H260.768V88.976ZM260.768 84.384H264.32V80.512H260.768V84.384ZM267.504 83.472C268.827 84.88 269.808 86.0693 270.448 87.04L270.016 87.36C269.334 86.304 268.352 85.104 267.072 83.76L267.504 83.472ZM273.168 80C273.168 84.9493 273.094 88.0373 272.944 89.264C272.795 90.6187 272.07 91.296 270.768 91.296L269.264 91.28L269.12 90.768L270.736 90.784C271.707 90.784 272.267 90.2507 272.416 89.184C272.534 88.224 272.608 85.344 272.64 80.544H267.584C267.136 81.6 266.592 82.5653 265.952 83.44L265.632 83.008C266.827 81.376 267.643 79.3707 268.08 76.992L268.608 77.056C268.427 78.0693 268.16 79.0507 267.808 80H273.168ZM277.776 78.912H275.552V78.4H280.592V78.912H278.336V83.056H280.272V83.584H278.336V87.984C279.264 87.6533 280.075 87.328 280.768 87.008V87.568C279.403 88.208 277.686 88.8267 275.616 89.424L275.472 88.88C276.432 88.6133 277.2 88.3787 277.776 88.176V83.584H275.776V83.056H277.776V78.912ZM283.376 83.264H280.944V82.72H289.408V83.264H286.88V89.872C286.88 90.4587 287.136 90.752 287.648 90.752H288.368C288.624 90.752 288.822 90.6933 288.96 90.576C289.195 90.3733 289.344 89.5253 289.408 88.032L289.936 88.192C289.862 89.6533 289.707 90.5493 289.472 90.88C289.27 91.1467 288.944 91.28 288.496 91.28H287.488C287.115 91.28 286.822 91.1627 286.608 90.928C286.416 90.672 286.32 90.3627 286.32 90V83.264H283.904V84.4C283.84 87.6213 282.459 89.9733 279.76 91.456L279.344 91.088C281.99 89.6907 283.334 87.4613 283.376 84.4V83.264ZM281.504 78.128H288.896V78.672H281.504V78.128ZM303.136 77.792V87.616H305.696V88.144H291.616V87.616H294.176V77.792H303.136ZM294.704 87.616H302.608V85.616H294.704V87.616ZM294.704 85.136H302.608V83.216H294.704V85.136ZM294.704 82.72H302.608V80.784H294.704V82.72ZM294.704 80.304H302.608V78.32H294.704V80.304ZM296.944 88.896C295.739 89.9093 294.256 90.784 292.496 91.52L292.176 91.104C293.894 90.3787 295.35 89.52 296.544 88.528L296.944 88.896ZM300.624 88.512C302.267 89.2053 303.76 90.048 305.104 91.04L304.8 91.488C303.371 90.4107 301.883 89.5573 300.336 88.928L300.624 88.512ZM309.456 88.736C309.968 88.736 310.224 89.0827 310.224 89.776C310.224 90.928 309.771 91.7547 308.864 92.256L308.592 91.84C309.286 91.36 309.648 90.7413 309.68 89.984L309.472 90C309.28 90 309.12 89.9467 308.992 89.84C308.875 89.7333 308.816 89.5787 308.816 89.376C308.816 89.1627 308.87 89.0027 308.976 88.896C309.094 88.7893 309.254 88.736 309.456 88.736ZM332.464 76.976H333.04V82.48H337.44V83.024H333.04V90.416H338.032V90.96H328.768V90.416H332.464V76.976ZM324.96 77.152C326.091 78.0373 327.056 78.9333 327.856 79.84L327.488 80.224C326.774 79.392 325.803 78.4907 324.576 77.52L324.96 77.152ZM323.472 82.096H326.544V89.76C327.259 89.2267 328.006 88.5867 328.784 87.84L328.928 88.432C328.064 89.2747 327.067 90.0693 325.936 90.816L325.712 90.336C325.915 90.1547 326.016 89.9947 326.016 89.856V82.64H323.472V82.096ZM339.952 77.792H353.376V78.32H346.944V80.16H352V86.112H346.8C346.608 87.3707 346.23 88.3627 345.664 89.088C347.99 90.176 350.758 90.784 353.968 90.912L353.824 91.424C350.528 91.296 347.691 90.6453 345.312 89.472C344.267 90.4853 342.411 91.152 339.744 91.472L339.504 90.976C342.064 90.6987 343.835 90.1173 344.816 89.232C343.718 88.6347 342.736 87.952 341.872 87.184L342.304 86.88C343.179 87.6587 344.134 88.3147 345.168 88.848C345.702 88.1653 346.064 87.2533 346.256 86.112H341.376V80.16H346.4V78.32H339.952V77.792ZM351.472 85.616V83.36H346.944V84.224C346.934 84.5973 346.907 85.0613 346.864 85.616H351.472ZM346.32 85.616C346.374 85.1147 346.4 84.6507 346.4 84.224V83.36H341.92V85.616H346.32ZM341.92 82.864H346.4V80.672H341.92V82.864ZM346.944 80.672V82.864H351.472V80.672H346.944ZM363.344 77.28C362.896 77.7813 362.422 78.2187 361.92 78.592H367.072V79.056C365.344 82.128 362.139 83.84 357.456 84.192L357.2 83.68C358.8 83.5733 360.246 83.3067 361.536 82.88C360.971 82.1653 360.363 81.52 359.712 80.944L360.192 80.704C360.854 81.3013 361.472 81.9627 362.048 82.688C363.979 81.8987 365.44 80.704 366.432 79.104H361.184C359.958 79.8613 358.464 80.432 356.704 80.816L356.384 80.336C359.264 79.76 361.424 78.656 362.864 77.024L363.344 77.28ZM361.68 86.992C362.32 87.6427 362.966 88.416 363.616 89.312C365.696 88.4373 367.296 87.1147 368.416 85.344H363.184C361.755 86.0587 360.027 86.56 358 86.848L357.68 86.368C361.168 85.984 363.766 84.8747 365.472 83.04L365.936 83.312C365.435 83.8453 364.832 84.3467 364.128 84.816H369.104V85.264C366.864 89.104 362.667 91.0773 356.512 91.184L356.288 90.64C358.912 90.608 361.19 90.2347 363.12 89.52C362.512 88.6773 361.867 87.9147 361.184 87.232L361.68 86.992ZM378.976 77.04C378.976 78.2453 378.939 79.4187 378.864 80.56C379.76 85.0827 382.123 88.5227 385.952 90.88L385.6 91.344C381.952 88.9867 379.648 85.8187 378.688 81.84C377.888 85.7013 375.547 88.8693 371.664 91.344L371.328 90.864C375.872 88.016 378.224 84.2773 378.384 79.648L378.416 77.04H378.976ZM389.344 77.456C390.304 78.4693 391.035 79.3493 391.536 80.096L391.088 80.4C390.48 79.5147 389.755 78.6347 388.912 77.76L389.344 77.456ZM394.768 84.24C395.963 85.5307 396.912 86.6933 397.616 87.728L397.152 88.064C396.47 86.9867 395.526 85.8027 394.32 84.512L394.768 84.24ZM393.536 77.008H394.064V78.336C394.064 79.264 394.022 80.1973 393.936 81.136H400.624C400.624 85.5093 400.427 88.32 400.032 89.568C399.616 90.7733 398.886 91.376 397.84 91.376C397.286 91.376 396.678 91.3653 396.016 91.344L395.872 90.8C396.576 90.832 397.222 90.848 397.808 90.848C398.971 90.7733 399.643 89.7867 399.824 87.888C399.995 85.8613 400.08 83.792 400.08 81.68H393.872C393.648 83.7067 393.216 85.4133 392.576 86.8C391.638 88.752 390.07 90.304 387.872 91.456L387.568 90.976C389.702 89.888 391.254 88.3307 392.224 86.304C392.768 84.992 393.136 83.4507 393.328 81.68H388.128V81.136H393.392C393.478 80.2507 393.526 79.3173 393.536 78.336V77.008ZM405.616 81.792C404.966 82.8373 404.246 83.792 403.456 84.656L403.28 84.096C405.115 81.9627 406.422 79.584 407.2 76.96L407.696 77.2C407.28 78.48 406.774 79.6853 406.176 80.816V91.536H405.616V81.792ZM415.152 83.36C416.08 85.3867 416.87 87.472 417.52 89.616L417.024 89.824C416.31 87.488 415.515 85.392 414.64 83.536L415.152 83.36ZM409.904 79.712C409.382 80.9813 408.736 82.1867 407.968 83.328L407.504 83.04C408.752 81.2587 409.68 79.2053 410.288 76.88L410.832 76.992C410.619 77.7387 410.379 78.464 410.112 79.168H417.12V79.536C416.875 80.5173 416.518 81.52 416.048 82.544L415.52 82.384C415.968 81.52 416.315 80.6293 416.56 79.712H409.904ZM410 91.408L409.888 90.88C410.614 90.912 411.307 90.928 411.968 90.928C412.395 90.928 412.608 90.7147 412.608 90.288V81.36H413.136V90.432C413.136 91.0827 412.811 91.408 412.16 91.408H410ZM410.512 83.584C409.904 85.8453 409.115 87.8347 408.144 89.552L407.616 89.36C408.534 87.8347 409.334 85.8613 410.016 83.44L410.512 83.584ZM424.864 79.968V90.544H424.32V89.488H420.768V90.992H420.224V79.968H421.632C421.984 79.04 422.24 78.0533 422.4 77.008L422.944 77.088C422.763 78.1547 422.502 79.1147 422.16 79.968H424.864ZM420.768 88.976H424.32V84.896H420.768V88.976ZM420.768 84.384H424.32V80.512H420.768V84.384ZM427.504 83.472C428.827 84.88 429.808 86.0693 430.448 87.04L430.016 87.36C429.334 86.304 428.352 85.104 427.072 83.76L427.504 83.472ZM433.168 80C433.168 84.9493 433.094 88.0373 432.944 89.264C432.795 90.6187 432.07 91.296 430.768 91.296L429.264 91.28L429.12 90.768L430.736 90.784C431.707 90.784 432.267 90.2507 432.416 89.184C432.534 88.224 432.608 85.344 432.64 80.544H427.584C427.136 81.6 426.592 82.5653 425.952 83.44L425.632 83.008C426.827 81.376 427.643 79.3707 428.08 76.992L428.608 77.056C428.427 78.0693 428.16 79.0507 427.808 80H433.168ZM441.456 80.928H448.688V85.68H445.312C445.291 86.2987 445.227 86.8533 445.12 87.344H449.84V87.856H445.344C446.294 89.2107 447.808 90.288 449.888 91.088L449.536 91.504C447.371 90.608 445.824 89.456 444.896 88.048C444.843 88.1973 444.763 88.4 444.656 88.656C444.048 89.8187 442.71 90.768 440.64 91.504L440.304 91.072C442.171 90.4213 443.43 89.5947 444.08 88.592C444.219 88.336 444.331 88.0907 444.416 87.856H440.224V87.344H444.576C444.715 86.832 444.795 86.2773 444.816 85.68H441.456V80.928ZM448.16 85.2V83.536H441.968V85.2H448.16ZM441.968 83.072H448.16V81.408H441.968V83.072ZM440.368 78.544H442.944V77.008H443.488V78.544H446.496V77.008H447.04V78.544H449.712V79.056H447.04V80.384H446.496V79.056H443.488V80.384H442.944V79.056H440.368V78.544ZM438.416 91.472H437.872V82.4C437.339 84.2453 436.566 85.92 435.552 87.424L435.312 86.864C436.539 85.136 437.392 83.1413 437.872 80.88H435.648V80.352H437.872V77.008H438.416V80.352H440.192V80.88H438.416V82.128C439.088 83.0453 439.75 84.048 440.4 85.136L440.096 85.584C439.446 84.3573 438.886 83.4027 438.416 82.72V91.472ZM452.24 77.904H459.568V78.416H457.76V81.328H459.904V81.872H457.76V85.584H457.216V81.872H454.592C454.432 83.6213 453.787 84.928 452.656 85.792L452.256 85.424C453.334 84.6347 453.936 83.4507 454.064 81.872H451.824V81.328H454.096V78.416H452.24V77.904ZM454.624 78.416V81.328H457.216V78.416H454.624ZM461.248 78.096H461.776V83.616H461.248V78.096ZM452.608 87.504H458.448V85.76H458.992V87.504H464.72V88.016H458.992V90.496H465.616V91.024H451.696V90.496H458.448V88.016H452.608V87.504ZM461.52 85.648L461.408 85.12C462.134 85.152 462.822 85.168 463.472 85.168C463.92 85.168 464.144 84.9707 464.144 84.576V77.2H464.672V84.704C464.672 85.3333 464.336 85.648 463.664 85.648H461.52ZM467.52 81.472H469.488V77.072H470.016V81.472H471.856V82.016H470.016V88.08C470.731 87.8027 471.44 87.4827 472.144 87.12V87.664C470.779 88.368 469.28 88.944 467.648 89.392L467.504 88.88C468.283 88.6773 468.944 88.48 469.488 88.288V82.016H467.52V81.472ZM474.864 77.056C475.11 77.5893 475.376 78.304 475.664 79.2H478.336C478.678 78.464 478.918 77.696 479.056 76.896L479.6 76.976C479.44 77.7867 479.2 78.528 478.88 79.2H481.216V84.144H472.784V79.2H475.152C474.886 78.3893 474.608 77.7067 474.32 77.152L474.864 77.056ZM480.704 83.648V79.712H477.2V83.648H480.704ZM476.736 83.648V79.712H473.28V83.648H476.736ZM474.848 80.608C475.168 81.2267 475.456 81.9307 475.712 82.72L475.296 82.848C475.062 82.144 474.774 81.4453 474.432 80.752L474.848 80.608ZM479.504 80.64C479.28 81.4827 478.992 82.2347 478.64 82.896L478.224 82.736C478.523 82.2027 478.806 81.4667 479.072 80.528L479.504 80.64ZM480.64 85.52V91.536H480.112V90.72H473.968V91.536H473.44V85.52H480.64ZM473.968 90.224H480.112V88.368H473.968V90.224ZM473.968 87.888H480.112V86.016H473.968V87.888ZM496.912 79.36V91.28H496.368V90.112H492.848V91.28H492.304V79.36H496.912ZM492.848 89.568H496.368V79.904H492.848V89.568ZM486.416 77.056H486.96V79.984H490.384C490.384 84.8907 490.304 87.936 490.144 89.12C489.984 90.6027 489.19 91.344 487.76 91.344L486.592 91.312L486.448 90.816L487.728 90.832C488.827 90.832 489.456 90.2347 489.616 89.04C489.734 88.08 489.808 85.2427 489.84 80.528H486.96V80.608C486.918 85.6 485.862 89.248 483.792 91.552L483.36 91.168C485.366 88.9707 486.384 85.4507 486.416 80.608V80.528H483.616V79.984H486.416V77.056ZM501.632 80.352H511.072V78.272H501.216V77.76H511.616V83.408H500.8V82.896H511.072V80.848H501.632V80.352ZM503.568 85.264C503.014 86.4587 502.358 87.4987 501.6 88.384L501.168 88.064C501.915 87.2 502.55 86.1867 503.072 85.024L503.568 85.264ZM512.032 85.072C511.499 86.1493 510.854 87.1093 510.096 87.952L509.648 87.632C510.363 86.8853 510.992 85.952 511.536 84.832L512.032 85.072ZM507.056 84.256C507.056 84.9067 507.003 85.552 506.896 86.192C507.728 88.5173 510.048 90.08 513.856 90.88L513.632 91.392C509.899 90.56 507.584 89.072 506.688 86.928C505.91 89.0613 503.76 90.576 500.24 91.472L500 90.96C503.478 90.128 505.552 88.6827 506.224 86.624C506.406 86.048 506.502 85.2587 506.512 84.256H507.056ZM518.528 80.928H523.744V81.424H518.528V80.928ZM519.136 82.768H523.264V85.76H519.136V82.768ZM522.736 85.28V83.264H519.68V85.28H522.736ZM529.168 78.672V79.2H525.008C525.094 80.608 525.259 81.7227 525.504 82.544C525.654 83.1413 525.856 83.7013 526.112 84.224C526.87 83.168 527.483 81.8987 527.952 80.416L528.416 80.656C527.883 82.2987 527.206 83.6587 526.384 84.736C526.534 84.96 526.678 85.168 526.816 85.36C527.339 85.9147 527.814 86.192 528.24 86.192C528.582 86.192 528.928 85.4507 529.28 83.968L529.744 84.224C529.307 85.8773 528.822 86.704 528.288 86.704C527.659 86.704 527.04 86.384 526.432 85.744C526.294 85.5733 526.16 85.3813 526.032 85.168C525.424 85.84 524.795 86.3627 524.144 86.736L523.84 86.288C524.566 85.8827 525.2 85.3493 525.744 84.688C525.446 84.112 525.19 83.472 524.976 82.768C524.71 81.7973 524.539 80.608 524.464 79.2H517.52V81.392C517.478 83.536 516.971 85.2693 516 86.592L515.584 86.208C516.459 85.056 516.923 83.4507 516.976 81.392V78.672H524.432C524.411 78.3093 524.4 77.7333 524.4 76.944H524.944C524.944 77.7333 524.955 78.3093 524.976 78.672H527.472C527.227 78.1067 526.928 77.6107 526.576 77.184L527.104 77.088C527.392 77.5253 527.686 78.0533 527.984 78.672H529.168ZM518 87.008C517.552 88.5227 516.918 89.8453 516.096 90.976L515.616 90.672C516.448 89.5733 517.072 88.3147 517.488 86.896L518 87.008ZM521.296 91.28C520.304 91.28 519.808 90.784 519.808 89.792V86.848H520.368V89.68C520.368 90.384 520.731 90.736 521.456 90.736H524.256C524.822 90.736 525.216 90.656 525.44 90.496C525.739 90.272 525.942 89.6427 526.048 88.608L526.56 88.768C526.464 89.9307 526.224 90.656 525.84 90.944C525.552 91.168 525.056 91.28 524.352 91.28H521.296ZM527.36 87.344C528.448 88.4747 529.264 89.456 529.808 90.288L529.376 90.608C528.758 89.6907 527.936 88.6987 526.912 87.632L527.36 87.344ZM522.416 86.816C523.238 87.6693 523.856 88.4053 524.272 89.024L523.856 89.312C523.398 88.6187 522.774 87.872 521.984 87.072L522.416 86.816Z"
    fill="white" />
</svg>