<svg width="254" height="64" viewBox="0 0 254 64" fill="none" xmlns="http://www.w3.org/2000/svg">
  <path
    d="M182.305 0H46.8697L33.7314 17.9402H38.2392L36.3253 20.9402H31.5344L0.00012207 64H48.29L52.6645 57.1429H74.1161L69.7416 64L92.3219 64L96.6963 57.1429H118.148L113.773 64L207.131 64L214.215 54.3257H206.135L208.049 51.3257H216.412L254 0H197.757L193.382 6.85714H177.931L182.305 0Z"
    fill="#1136F1" />
  <path
    d="M65.1041 42.872V39.992L73.6961 39.224V21.152L76.7681 20.888V27.752L85.2401 27.008V29.912L76.7681 30.656V38.96L86.9201 38.072V40.952L65.1041 42.872ZM91.4081 43.808V31.688C90.9121 32.36 90.4081 33 89.8961 33.608C89.7521 33.224 89.5201 32.744 89.2001 32.168C88.8961 31.592 88.6161 31.12 88.3601 30.752C90.6641 28.208 92.4801 25.064 93.8081 21.32L96.5201 21.944C95.8641 23.704 95.0801 25.456 94.1681 27.2V43.568L91.4081 43.808ZM105.4 42.68C104.68 42.024 103.704 41.296 102.472 40.496C101.256 39.68 100.032 38.952 98.8001 38.312L100.792 36.416C101.48 36.72 102.16 37.064 102.832 37.448C103.744 36.44 104.6 35.464 105.4 34.52L97.3121 35.24C97.7601 33.848 98.2481 32.24 98.7761 30.416L95.0801 30.752V28.112L99.5441 27.728L100.048 25.808L96.4481 26.12V23.528L100.672 23.168L101.2 20.84L104.032 20.936L103.552 22.904L109.84 22.352V24.944L102.904 25.544L102.424 27.464L111.088 26.72V29.36L101.704 30.176L101.128 32.24L107.992 31.64L108.424 31.448L110.416 32.576C108.816 34.512 107.04 36.56 105.088 38.72C106.048 39.312 106.824 39.856 107.416 40.352L105.4 42.68ZM123.76 26.072V24.68L120.952 24.92V22.568L123.76 22.328V20.72L126.472 20.48V22.088L129.256 21.848V20.24L132.04 20V21.608L134.728 21.368V23.72L132.04 23.96V25.352L129.256 25.592V24.2L126.472 24.44V25.832L123.76 26.072ZM115.648 43.784V35.672C115.104 37.24 114.512 38.568 113.872 39.656C113.52 38.728 113.064 37.808 112.504 36.896C113.176 35.936 113.784 34.76 114.328 33.368C114.872 31.96 115.312 30.544 115.648 29.12V28.496L113.056 28.736V26.096L115.648 25.856V21.392L118.36 21.176V25.64L120.52 25.448V28.088L118.36 28.28V29.12C118.616 29.424 118.944 29.856 119.344 30.416C119.744 30.976 120.128 31.528 120.496 32.072C120.864 32.6 121.128 32.984 121.288 33.224L119.584 35.36C119.296 34.64 118.888 33.776 118.36 32.768V43.568L115.648 43.784ZM124.264 32.336L130.864 31.76V30.704L124.264 31.28V32.336ZM124.264 29.432L130.864 28.856V27.824L124.264 28.4V29.432ZM121.072 43.352C120.944 43 120.736 42.616 120.448 42.2C120.176 41.8 119.904 41.464 119.632 41.192C122.512 40.344 124.336 39.272 125.104 37.976L120.52 38.384V36.032L126.016 35.552C126.096 35.104 126.16 34.64 126.208 34.16L121.624 34.568V26.672L133.624 25.616V33.512L129.016 33.92C128.968 34.384 128.904 34.84 128.824 35.288L134.824 34.784V37.136L130.624 37.496C131.712 38.696 133.32 39.424 135.448 39.68C135.144 40 134.824 40.4 134.488 40.88C134.168 41.36 133.904 41.8 133.696 42.2C131.056 41.672 129.152 40.344 127.984 38.216C127.504 39.304 126.72 40.264 125.632 41.096C124.544 41.944 123.024 42.696 121.072 43.352ZM152.824 33.608C152.68 32.824 152.4 32.008 151.984 31.16C153.792 31.08 154.776 30.976 154.936 30.848C155 30.784 155.032 30.672 155.032 30.512V20.312L157.744 20.072V30.32C157.744 30.992 157.664 31.52 157.504 31.904C157.104 32.88 155.544 33.448 152.824 33.608ZM150.664 29.912V21.8L153.28 21.584V29.696L150.664 29.912ZM142.72 26.984L144.736 26.816V24.296L142.72 24.464V26.984ZM137.152 43.28V40.64L146.536 39.8V37.88L139.576 38.504V35.912L146.536 35.288V33.776L144.736 33.944V29.336L142.528 29.528C142.128 31.864 140.872 33.728 138.76 35.12C138.552 34.848 138.256 34.528 137.872 34.16C137.488 33.776 137.16 33.488 136.888 33.296C138.456 32.32 139.432 31.144 139.816 29.768L137.392 29.984V27.464L140.104 27.224V24.704L138.208 24.872V22.376L149.104 21.416V23.912L147.4 24.056V26.576L149.656 26.384V28.904L147.4 29.096V33.296L149.464 33.128V35.048L156.4 34.424V37.016L149.464 37.64V39.56L158.776 38.744V41.384L137.152 43.28Z"
    fill="white" />
  <path
    d="M178.75 28C178.75 27.5858 178.414 27.25 178 27.25C177.586 27.25 177.25 27.5858 177.25 28H178.75ZM177.25 36C177.25 36.4142 177.586 36.75 178 36.75C178.414 36.75 178.75 36.4142 178.75 36H177.25ZM174 31.25C173.586 31.25 173.25 31.5858 173.25 32C173.25 32.4142 173.586 32.75 174 32.75V31.25ZM182 32.75C182.414 32.75 182.75 32.4142 182.75 32C182.75 31.5858 182.414 31.25 182 31.25V32.75ZM177.25 28V32H178.75V28H177.25ZM177.25 32V36H178.75V32H177.25ZM174 32.75H178V31.25H174V32.75ZM178 32.75H182V31.25H178V32.75ZM187.25 32C187.25 37.1086 183.109 41.25 178 41.25V42.75C183.937 42.75 188.75 37.9371 188.75 32H187.25ZM178 41.25C172.891 41.25 168.75 37.1086 168.75 32H167.25C167.25 37.9371 172.063 42.75 178 42.75V41.25ZM168.75 32C168.75 26.8914 172.891 22.75 178 22.75V21.25C172.063 21.25 167.25 26.0629 167.25 32H168.75ZM178 22.75C183.109 22.75 187.25 26.8914 187.25 32H188.75C188.75 26.0629 183.937 21.25 178 21.25V22.75Z"
    fill="white" />
</svg>