<svg width="57" height="16" viewBox="0 0 57 16" fill="none" xmlns="http://www.w3.org/2000/svg">
  <path d="M11.202 0H56.202L47.9333 16.0001H0.139524L11.202 0Z" fill="#E843DB" />
  <path opacity="0.8"
    d="M16.8036 7.787C16.3417 8.931 15.5276 9.888 14.3507 10.68L13.6467 9.833C14.8347 9.019 15.6157 8.018 15.9897 6.83C16.0887 6.478 16.1767 6.093 16.2427 5.675H13.4156V13.122H12.3596V4.663H16.3636C16.4077 4.124 16.4406 3.552 16.4406 2.947H17.5077C17.5077 3.552 17.4857 4.124 17.4417 4.663H21.2477V11.758C21.2477 12.583 20.8627 13.001 20.1037 13.001H18.3766L18.0907 11.956L19.7516 12.011C20.0377 12.011 20.1917 11.846 20.1917 11.527V5.675H17.3317C17.2657 6.06 17.1997 6.423 17.1227 6.753C18.2226 7.765 19.1467 8.766 19.9057 9.767L19.1027 10.57C18.5306 9.701 17.7607 8.777 16.8036 7.787ZM23.5906 3.156C24.1956 3.651 24.7017 4.146 25.1197 4.641L24.4266 5.334C24.0637 4.872 23.5466 4.366 22.8756 3.838L23.5906 3.156ZM23.4146 5.851C23.9977 6.39 24.4927 6.918 24.8997 7.446L24.2177 8.139C23.8546 7.633 23.3486 7.105 22.6996 6.533L23.4146 5.851ZM24.1627 8.865L25.0427 9.206C24.6467 10.548 24.1956 11.813 23.7006 13.001L22.7546 12.594C23.2936 11.384 23.7666 10.141 24.1627 8.865ZM29.2776 3.497V10.295H28.3537V4.388H26.2966V10.361H25.3727V3.497H29.2776ZM28.1007 10.746C28.7387 11.318 29.2667 11.879 29.7067 12.451L29.0137 13.133C28.6507 12.583 28.1337 11.989 27.4737 11.351L28.1007 10.746ZM26.9017 5.026H27.7597V8.48C27.7267 9.745 27.5287 10.757 27.1547 11.516C26.7917 12.22 26.1976 12.759 25.3836 13.155L24.8446 12.286C25.6257 11.912 26.1537 11.439 26.4397 10.867C26.7147 10.251 26.8687 9.459 26.9017 8.48V5.026ZM31.5327 13.045H30.3227L30.1027 12.077C30.4767 12.121 30.8397 12.143 31.1917 12.143C31.4117 12.143 31.5327 12 31.5327 11.736V3.046H32.5117V11.978C32.5117 12.682 32.1817 13.045 31.5327 13.045ZM29.9267 3.948H30.8397V10.746H29.9267V3.948ZM36.3617 3.101H37.3847V5.928H37.9127V6.951H35.4376V7.369C35.4376 7.677 35.4266 7.974 35.4156 8.26H37.5276V13.089H36.5046V9.261H35.3606C35.2287 10.867 34.9316 12.099 34.4916 12.957L33.6996 12.275C34.1616 11.241 34.4036 9.613 34.4146 7.369V3.321H35.4376V5.928H36.3617V3.101ZM39.4197 7.094V8.018C39.3757 10.13 39.0016 11.824 38.2977 13.078L37.5827 12.319C38.1327 11.285 38.4187 9.844 38.4627 8.018V3.75C40.2117 3.717 41.7737 3.486 43.1597 3.046L43.6657 3.981C42.3897 4.355 40.9817 4.575 39.4197 4.641V6.104H43.4347V6.995C43.1927 8.447 42.7527 9.69 42.0927 10.702C42.5987 11.362 43.2037 11.879 43.9187 12.242L43.4017 13.155C42.6207 12.759 41.9717 12.22 41.4437 11.56C40.8717 12.198 40.1897 12.737 39.3977 13.166L38.9026 12.242C39.6727 11.813 40.3107 11.285 40.8387 10.669C40.2776 9.69 39.8927 8.502 39.6727 7.094H39.4197ZM40.6077 7.094C40.8057 8.106 41.0916 8.997 41.4877 9.745C41.9387 8.964 42.2577 8.084 42.4337 7.094H40.6077Z"
    fill="white" />
</svg>