<svg width="254" height="64" viewBox="0 0 254 64" fill="none" xmlns="http://www.w3.org/2000/svg">
  <path d="M253.056 0.5L210.287 63.5H0.943775L43.7133 0.5H253.056Z" stroke="#8D96C3" />
  <path
    d="M66.64 43.904C66.416 43.568 66.104 43.216 65.704 42.848C65.304 42.48 64.92 42.2 64.552 42.008C65.864 40.36 66.76 38.392 67.24 36.104C67.736 33.816 68.008 31.264 68.056 28.448L65.272 28.688V25.904L68.08 25.664C68.096 24.384 68.104 23.064 68.104 21.704L70.912 21.464C70.912 22.808 70.904 24.128 70.888 25.424L76.072 24.968V25.904C75.928 31.6 75.8 35.368 75.688 37.208C75.528 39.48 75.272 40.864 74.92 41.36C74.648 41.776 74.368 42.088 74.08 42.296C73.392 42.76 72.088 43.024 70.168 43.088C70.152 42.672 70.072 42.208 69.928 41.696C69.8 41.184 69.608 40.72 69.352 40.304C70.36 40.288 71.12 40.256 71.632 40.208C71.968 40.176 72.24 40.016 72.448 39.728C72.672 39.424 72.84 38.384 72.952 36.608C73.08 34.816 73.176 31.944 73.24 27.992L70.816 28.208C70.736 31.44 70.4 34.384 69.808 37.04C69.216 39.696 68.16 41.984 66.64 43.904ZM80.152 37.808L83.248 37.544V25.52L80.152 25.784V37.808ZM77.392 42.464V23.288L86.104 22.52V41.528L83.248 41.792V40.304L80.152 40.568V42.224L77.392 42.464ZM91.432 43.568C91.144 43.28 90.736 42.92 90.208 42.488C89.696 42.072 89.232 41.736 88.816 41.48C93.712 38.6 96.864 33.808 98.272 27.104C97.28 25.776 96.04 24.664 94.552 23.768L96.304 21.128C98.128 22.36 99.592 23.736 100.696 25.256C101.816 26.76 102.816 28.312 103.696 29.912C104.592 31.592 105.616 33.192 106.768 34.712C107.92 36.216 109.464 37.512 111.4 38.6C111.16 39.064 110.896 39.632 110.608 40.304C110.32 40.96 110.128 41.528 110.032 42.008C107.936 40.968 106.248 39.592 104.968 37.88C103.688 36.152 102.552 34.328 101.56 32.408L100.6 30.68C98.776 36.344 95.72 40.64 91.432 43.568ZM116.248 43.76V34.928C115.352 35.84 114.44 36.624 113.512 37.28C113.4 36.864 113.232 36.368 113.008 35.792C112.8 35.2 112.608 34.76 112.432 34.472C114.976 32.792 117.032 30.544 118.6 27.728L113.128 28.208V25.64L117.328 25.256C116.832 24.328 116.184 23.4 115.384 22.472L117.64 21.104C118.6 22.08 119.328 23.024 119.824 23.936L117.928 25.208L120.16 25.016L120.64 24.848L122.152 25.832C121.448 27.672 120.528 29.424 119.392 31.088C120.032 31.584 120.952 32.368 122.152 33.44L122.584 33.8L120.808 36.344C120.36 35.704 119.776 34.976 119.056 34.16V43.52L116.248 43.76ZM121.336 42.584V39.752L127.12 39.248V30.344L122.392 30.752V27.992L127.12 27.584V20.552L130.072 20.288V27.32L134.608 26.912V29.672L130.072 30.08V38.984L135.184 38.528V41.36L121.336 42.584ZM138.04 43.28V22.592L158.296 20.816V23.552L140.824 25.088V40.304L158.92 38.72V41.456L138.04 43.28ZM143.536 39.008C142.816 38.224 142.088 37.552 141.352 36.992C143.56 35.632 145.632 33.992 147.568 32.072C145.76 30.648 144.016 29.36 142.336 28.208L144.328 26.264L149.536 29.936C150.976 28.272 152.2 26.544 153.208 24.752L155.92 25.592C154.704 27.672 153.288 29.656 151.672 31.544C153.752 33.064 155.424 34.448 156.688 35.696L154.432 38.024C153.264 36.776 151.68 35.344 149.68 33.728C147.696 35.776 145.648 37.536 143.536 39.008Z"
    fill="white" />
  <path
    d="M178.444 35L182 32M182 32L178.444 29M182 32H174M168 32C168 37.5228 172.477 42 178 42C183.523 42 188 37.5228 188 32C188 26.4772 183.523 22 178 22C172.477 22 168 26.4772 168 32Z"
    stroke="white" stroke-linecap="round" stroke-linejoin="round" />
</svg>