<svg width="384" height="144" viewBox="0 0 384 144" fill="none" xmlns="http://www.w3.org/2000/svg">
  <path
    d="M3.28 47.2V36.88L76.88 30.48V40.8L3.28 47.2ZM141.76 16.64L146.32 16.24V12.08L141.76 12.48V16.64ZM141.76 27.68L146.32 27.28V23.12L141.76 23.52V27.68ZM134.56 64.32V57.12L124.72 58V50.96L134.56 50.08V45.84L126.72 46.56V39.44L134.56 38.72V34.72L127.04 35.36V28.96L134.56 28.32V24.16L124.16 25.04V18.16L134.56 17.28V13.12L127.04 13.76V7.36L134.56 6.72V1.51999L141.76 0.879998V6.08L152.88 5.12V15.68L157.28 15.28V22.16L152.88 22.56V33.12L141.76 34.08V38.08L153.76 37.04V44.16L141.76 45.2V49.44L155.28 48.24V55.28L141.76 56.48V63.68L134.56 64.32ZM115.36 50.16C116.213 46.2667 116.853 41.9733 117.28 37.28L110.56 37.84C109.813 38.48 109.44 39.04 109.44 39.52C108.693 37.9733 107.52 36.1867 105.92 34.16L99.6 34.72V42.48L107.52 41.84V46.32L113.36 43.52C113.947 45.9733 114.613 48.1867 115.36 50.16ZM107.76 78.88C106.48 76.32 104.987 74.1867 103.28 72.48C107.173 69.6533 110.213 65.52 112.4 60.08C110.48 56.6667 108.853 52.4267 107.52 47.36V50.4L99.6 51.04V62.56L106.08 57.28C106.88 60.2667 107.787 62.5867 108.8 64.24C104.587 67.7067 101.36 70.4 99.12 72.32C96.88 74.24 95.28 75.6533 94.32 76.56C93.4133 77.4667 92.7733 78.2133 92.4 78.8C91.92 77.84 91.2 76.7467 90.24 75.52C89.3333 74.2933 88.48 73.3067 87.68 72.56C88.5333 71.8133 89.44 70.64 90.4 69.04C91.4133 67.44 91.92 65.6533 91.92 63.68V51.76L84.08 52.4V43.84L91.92 43.2V35.44L86.96 35.84V31.52L86.72 31.76C86.24 30.8533 85.4667 29.68 84.4 28.24C83.3867 26.7467 82.4533 25.5467 81.6 24.64C86.1333 19.0933 89.4933 12.3733 91.68 4.47999L99.84 6C99.3067 7.81333 98.6667 9.68 97.92 11.6L106.8 10.8V19.36L94.08 20.48C92.8 22.9867 91.4133 25.3067 89.92 27.44L106.88 25.92V33.04C108.373 31.7067 109.653 30 110.72 27.92C112.16 25.2 113.813 20.9333 115.68 15.12L107.84 15.76V7.04L118.48 6.16L120.88 4.88L125.76 7.76C123.467 15.6533 120.747 22.9067 117.6 29.52L120.4 29.2H124.96C124.427 41.36 122.987 51.3067 120.64 59.04C123.573 62.1867 126.96 64.24 130.8 65.2C133.413 65.84 136.16 66.16 139.04 66.16C140.427 66.16 141.84 66.08 143.28 65.92L157.84 64.56C156.773 66.96 155.973 69.5733 155.44 72.4L142.72 73.52C140.907 73.7333 139.147 73.84 137.44 73.84C134.347 73.84 131.067 73.44 127.6 72.64C124.133 71.8933 120.747 69.9467 117.44 66.8C114.933 71.6533 111.707 75.68 107.76 78.88ZM202.16 17.52L224.64 15.52V10.32L202.16 12.32V17.52ZM202.16 29.92L224.64 27.92V22.72L202.16 24.72V29.92ZM193.52 38V5.68L233.6 2.16V34.48L193.52 38ZM166.4 79.76C166.08 77.2 165.2 74.3733 163.76 71.28C165.36 71.1733 166.827 71.0667 168.16 70.96C169.547 70.9067 170.507 70.8267 171.04 70.72C171.627 70.6667 172.027 70.5067 172.24 70.24C172.507 70.0267 172.64 69.6533 172.64 69.12V52.16L164.08 55.04L161.76 46.16C164.96 45.2533 168.587 44.1333 172.64 42.8V28.48L163.12 29.28V20.48L172.64 19.68V4.64L182 3.84V18.88L189.84 18.16V26.96L182 27.68V39.6L189.52 36.96L190.72 45.6L182 48.88V68.24C182 70.5867 181.733 72.4267 181.2 73.76C180.72 75.0933 179.813 76.1867 178.48 77.04C175.92 78.5333 171.893 79.44 166.4 79.76ZM186.88 75.12V66.64L208.24 64.8V54.48L192.24 55.84V47.44L208.24 46.08V38.64L217.92 37.76V45.2L234.08 43.84V52.24L217.92 53.6V63.92L237.28 62.24V70.72L186.88 75.12ZM259.04 70.56V21.2L242.4 22.64V12.72L287.68 8.72V18.64L270.88 20.16V69.52L259.04 70.56ZM284.754 71.76C281.234 71.76 278.327 70.6933 276.034 68.56C273.794 66.3733 272.674 63.36 272.674 59.52C272.674 54.72 274.727 50.8267 278.834 47.84C282.994 44.8 289.554 42.4267 298.514 40.72C298.46 38.48 297.847 36.6933 296.674 35.36C295.66 34.1867 294.087 33.6 291.954 33.6L290.834 33.68C286.727 34.2133 282.62 35.9733 278.514 38.96L274.274 31.6C276.94 29.68 279.847 28.0267 282.994 26.64C287.1 24.8267 291.074 23.92 294.914 23.92C305.1 23.92 310.194 30.0267 310.194 42.24V68.4L300.594 69.28L299.794 64.56H299.474C294.407 69.36 289.5 71.76 284.754 71.76ZM288.914 62.24C292.327 62.24 295.527 60.48 298.514 56.96V47.92C288.754 50.0533 283.874 53.28 283.874 57.6C283.874 59.36 284.434 60.5867 285.554 61.28C286.407 61.92 287.527 62.24 288.914 62.24Z"
    fill="white" />
  <path
    d="M9.888 143.376V128.208C7.168 130.768 5.312 132.48 4.32 133.344L1.536 128.64C3.808 126.88 6.592 124.544 9.888 121.632V113.904L7.392 116.16C6.784 115.136 5.92 113.968 4.8 112.656C3.68 111.312 2.56 110.08 1.44 108.96L5.376 105.504C6.944 106.944 8.448 108.496 9.888 110.16V98.64L15.408 98.16V142.896L9.888 143.376ZM29.904 141.504C29.68 139.904 29.088 138.176 28.128 136.32C32.416 136.128 34.672 135.92 34.896 135.696C35.056 135.536 35.136 135.312 35.136 135.024V124.8L24.288 125.712C25.408 126.864 26.512 128.128 27.6 129.504C28.688 130.88 29.52 132.144 30.096 133.296L25.104 136.464C24.592 135.28 23.824 133.968 22.8 132.528C21.776 131.056 20.688 129.696 19.536 128.448L24 125.76L16.944 126.384V121.152L19.536 120.912C18.736 119.248 17.84 117.904 16.848 116.88C20.4 115.888 23.776 114.592 26.976 112.992C25.984 111.776 24.848 110.672 23.568 109.68L27.792 106.896C29.2 107.856 30.448 108.976 31.536 110.256C34 108.528 36.08 106.576 37.776 104.4L28.08 105.264C25.552 107.44 22.928 109.312 20.208 110.88C19.248 109.76 17.984 108.624 16.416 107.472C21.952 104.592 26.128 101.072 28.944 96.912L34.848 97.872C34.272 98.704 33.632 99.52 32.928 100.32L41.136 99.6L42.096 99.312L45.84 100.896C41.52 110.272 33.056 116.912 20.448 120.816L35.136 119.568V114.912L40.8 114.384V119.04L45.984 118.608V123.84L40.8 124.272V134.592C40.8 135.968 40.624 137.072 40.272 137.904C39.408 139.984 35.952 141.184 29.904 141.504ZM54.864 143.568V119.04C53.808 120.576 52.736 121.968 51.648 123.216C51.36 122.448 50.896 121.488 50.256 120.336C49.648 119.184 49.088 118.256 48.576 117.552C53.184 112.4 56.816 106.096 59.472 98.64L64.896 99.84C63.648 103.296 62.128 106.704 60.336 110.064V143.088L54.864 143.568ZM67.392 136.272C66.144 135.408 64.512 134.528 62.496 133.632C65.28 129.696 67.232 124.832 68.352 119.04L73.92 119.712C72.384 126.272 70.208 131.792 67.392 136.272ZM72.624 142.176C72.496 141.312 72.24 140.352 71.856 139.296C71.504 138.24 71.104 137.328 70.656 136.56C72.8 136.432 74.368 136.32 75.36 136.224H75.456C75.968 136.224 76.224 135.92 76.224 135.312V110.832L70.656 111.312C69.28 114.288 67.776 116.88 66.144 119.088C65.6 118.576 64.864 118 63.936 117.36C63.04 116.688 62.24 116.144 61.536 115.728C65.28 110.896 68 104.896 69.696 97.728L75.264 98.496C74.624 100.992 73.872 103.44 73.008 105.84L89.52 104.4L90.432 104.112L94.464 104.544C93.824 109.024 93.136 112.8 92.4 115.872L87.552 115.488C87.808 113.888 88.064 111.984 88.32 109.776L81.888 110.352V134.928C81.888 136.304 81.728 137.424 81.408 138.288C81.12 139.152 80.544 139.856 79.68 140.4C78.016 141.392 75.664 141.984 72.624 142.176ZM88.464 134.304C88.176 132.096 87.584 129.6 86.688 126.816C85.824 124 84.8 121.376 83.616 118.944L88.704 116.784C89.984 119.216 91.088 121.808 92.016 124.56C92.944 127.28 93.584 129.744 93.936 131.952L88.464 134.304ZM104.832 133.536L112.464 132.864V123.456L104.832 124.128V133.536ZM104.832 119.184L112.464 118.512V110.736L104.832 111.408V119.184ZM99.648 142.512V106.848L105.072 106.368C105.744 103.68 106.208 101.072 106.464 98.544L112.704 98.832C111.872 101.36 111.04 103.728 110.208 105.936L117.648 105.264V113.04C120.496 108.432 122.656 103.088 124.128 97.008L129.6 97.824C129.088 99.904 128.464 101.984 127.728 104.064L141.216 102.864V104.784C140.96 115.184 140.592 123.088 140.112 128.496C139.696 133.232 139.008 136.192 138.048 137.376C137.376 138.304 136.672 138.976 135.936 139.392C135.232 139.84 134.4 140.192 133.44 140.448C131.424 140.8 128.912 141.04 125.904 141.168C125.84 140.368 125.632 139.456 125.28 138.432C124.96 137.44 124.544 136.56 124.032 135.792C127.328 135.728 129.712 135.616 131.184 135.456C132.048 135.392 132.752 135.056 133.296 134.448C134.576 133.488 135.424 124.848 135.84 108.528L125.568 109.44C124.288 112.48 122.88 115.136 121.344 117.408C120.704 116.864 119.472 116.064 117.648 115.008V137.424L104.832 138.576V142.08L99.648 142.512ZM128.4 128.88C127.088 126.256 124.864 122.752 121.728 118.368L126.192 115.44C129.488 119.664 131.84 123.008 133.248 125.472L128.4 128.88ZM173.568 120.624L182.4 119.856V116.976L173.568 117.744V120.624ZM173.568 113.568L182.4 112.8V110.016L173.568 110.784V113.568ZM173.568 106.56L182.4 105.792V103.008L173.568 103.776V106.56ZM169.824 133.968C168.32 132.176 166.208 130.128 163.488 127.824L167.424 124.32L168.384 125.088V99.696L187.872 98.016V123.84L168.864 125.472C171.104 127.36 172.8 128.912 173.952 130.128L169.824 133.968ZM154.32 127.344V117.888C152.688 120.896 150.88 123.376 148.896 125.328C148.448 124.72 147.872 124.08 147.168 123.408C146.496 122.704 145.856 122.128 145.248 121.68C148.608 118.736 151.328 114.944 153.408 110.304L146.448 110.88V106.032L154.32 105.36V98.592L159.744 98.112V104.88L166.512 104.304V109.152L159.744 109.728V111.504C160.416 111.856 161.264 112.336 162.288 112.944C163.344 113.552 164.336 114.16 165.264 114.768C166.224 115.376 166.912 115.824 167.328 116.112L164.352 120.96C163.136 119.744 161.6 118.368 159.744 116.832V126.864L154.32 127.344ZM150.816 141.024L145.584 138.912C147.44 135.872 148.832 132.448 149.76 128.64L154.848 130.224C153.6 134.832 152.256 138.432 150.816 141.024ZM162.432 141.648C160.512 141.648 159.056 141.264 158.064 140.496C157.072 139.76 156.576 138.144 156.576 135.648V129.072L162.24 128.544V135.024C162.24 135.76 162.432 136.208 162.816 136.368C163.04 136.464 163.392 136.512 163.872 136.512C164.288 136.512 164.768 136.48 165.312 136.416L172.992 135.744C174.08 135.712 174.8 135.328 175.152 134.592C175.536 133.856 175.776 132.32 175.872 129.984C176.48 130.368 177.28 130.704 178.272 130.992C179.264 131.28 180.176 131.456 181.008 131.52C180.72 134.912 180.032 137.248 178.944 138.528C177.856 139.84 176.016 140.576 173.424 140.736C166.704 141.344 163.04 141.648 162.432 141.648ZM185.328 137.184C184.304 135.2 182.928 132.88 181.2 130.224L179.664 127.728L184.656 124.992L186.144 127.104C188 129.696 189.504 132 190.656 134.016L185.328 137.184ZM204.864 115.824L211.152 115.296C212.528 114.08 213.712 112.784 214.704 111.408L204.864 112.272V115.824ZM205.392 108.096L215.088 107.28C215.76 106.384 216.416 105.456 217.056 104.496L208.08 105.264C207.248 106.224 206.352 107.168 205.392 108.096ZM217.488 114.72L227.472 113.856V110.304L220.272 110.928C219.472 112.272 218.544 113.536 217.488 114.72ZM209.568 142.464C209.408 140.512 208.896 138.848 208.032 137.472C209.856 137.472 211.44 137.408 212.784 137.28C214.064 137.248 215.136 136.88 216 136.176C217.12 135.376 217.68 134.176 217.68 132.576C217.68 132.064 217.616 131.504 217.488 130.896C211.632 135.344 205.296 138.816 198.48 141.312C197.264 139.616 196.192 138.336 195.264 137.472C198.976 136.352 202.688 134.864 206.4 133.008C210.112 131.152 213.216 129.216 215.712 127.2C215.328 126.624 214.88 126.08 214.368 125.568C209.6 129.216 204.384 132.064 198.72 134.112C197.728 132.704 196.704 131.536 195.648 130.608C201.696 128.752 206.944 126.256 211.392 123.12C210.72 122.672 210 122.24 209.232 121.824C205.488 124.32 201.44 126.336 197.088 127.872C196.8 127.392 196.368 126.784 195.792 126.048C195.248 125.28 194.752 124.656 194.304 124.176C197.856 123.056 201.168 121.664 204.24 120L199.488 120.432V113.184C198.976 113.568 198.432 113.952 197.856 114.336C197.408 113.696 196.816 113.024 196.08 112.32C195.344 111.584 194.656 111.024 194.016 110.64C197.12 108.688 199.776 106.608 201.984 104.4C204.224 102.16 205.968 100 207.216 97.92L213.168 98.544L211.728 100.704L220.224 99.936L221.04 99.648L224.928 101.856C224.064 103.392 222.976 105.008 221.664 106.704L233.136 105.696V117.504L213.936 119.184C216.752 120.816 218.912 122.656 220.416 124.704C224.128 122.464 227.376 120.176 230.16 117.84L234.768 120.864C232.752 122.24 230.656 123.584 228.48 124.896C229.44 126.72 230.736 128.416 232.368 129.984C234.032 131.552 236.016 132.72 238.32 133.488C237.68 134.16 236.992 135.008 236.256 136.032C235.552 137.024 234.976 137.936 234.528 138.768C232.032 137.648 229.904 136.064 228.144 134.016C226.416 131.936 225.04 129.76 224.016 127.488L222.384 128.304C222.928 129.84 223.2 131.312 223.2 132.72C223.2 133.552 223.008 134.704 222.624 136.176C222.272 137.616 221.264 138.912 219.6 140.064C218.672 140.768 217.76 141.264 216.864 141.552C216 141.872 214.96 142.08 213.744 142.176C212.528 142.304 211.136 142.4 209.568 142.464ZM255.312 127.536L272.832 126V123.216L255.312 124.752V127.536ZM255.312 107.472L272.832 105.936V103.296L255.312 104.832V107.472ZM255.312 120.72L272.832 119.184V116.544L255.312 118.08V120.72ZM255.312 114.048L272.832 112.512V109.968L255.312 111.504V114.048ZM245.712 143.808C244.56 142.56 243.168 141.312 241.536 140.064C243.744 139.136 245.984 138.016 248.256 136.704C250.528 135.392 252.48 134.08 254.112 132.768L242.304 133.824V128.688L249.792 128.016V100.8L278.64 98.256V125.472L285.888 124.848V129.984L273.936 131.04C278.992 132.8 283.2 134.48 286.56 136.08L281.856 140.64C280.224 139.712 278.144 138.688 275.616 137.568C273.12 136.448 270.544 135.44 267.888 134.544L270.528 131.328L256.176 132.576L260.208 135.12C258.256 136.688 255.968 138.256 253.344 139.824C250.72 141.392 248.176 142.72 245.712 143.808ZM308.544 125.232V99.792L331.776 97.776V123.216L326.112 123.696V103.152L313.92 104.256V124.8L308.544 125.232ZM290.352 139.296L289.2 133.968C291.184 133.36 293.44 132.624 295.968 131.76V120.48L290.832 120.96V115.728L295.968 115.248V106.8L290.112 107.328V102L306.96 100.512V105.84L301.488 106.32V114.768L305.952 114.384V119.616L301.488 120V129.888L306.912 127.968L307.632 133.056C304.592 134.176 301.568 135.28 298.56 136.368C295.552 137.424 292.816 138.4 290.352 139.296ZM307.344 142.656C306.96 142.112 306.416 141.456 305.712 140.688C305.008 139.952 304.368 139.376 303.792 138.96C311.568 134.096 315.952 127.904 316.944 120.384C317.2 118.304 317.328 116.336 317.328 114.48V106.896L322.608 106.464V114.192C322.608 117.52 322.208 120.784 321.408 123.984L324.528 123.696V134.256C324.528 135.376 324.864 135.936 325.536 135.936L328.368 135.648C328.976 135.648 329.392 135.12 329.616 134.064C329.84 133.008 329.984 130.944 330.048 127.872C331.424 128.704 332.912 129.264 334.512 129.552C334.32 133.232 333.824 135.824 333.024 137.328C332.224 138.832 330.656 139.648 328.32 139.776C325.536 140.032 323.952 140.16 323.568 140.16C322.224 140.16 321.168 139.856 320.4 139.248C319.664 138.672 319.296 137.376 319.296 135.36V129.696C316.832 134.912 312.848 139.232 307.344 142.656ZM344.784 143.52V118.32C343.6 119.856 342.4 121.264 341.184 122.544C339.936 120.368 338.72 118.544 337.536 117.072C342.656 111.952 346.704 105.616 349.68 98.064L355.488 99.456C354.176 102.688 352.624 105.904 350.832 109.104V126.624C353.872 124.896 356.944 122.8 360.048 120.336V98.064L366.24 97.536V114.864C370.144 111.024 373.552 106.784 376.464 102.144L381.936 105.408C377.296 112.032 372.064 117.792 366.24 122.688V131.904C366.24 133.28 366.352 134.144 366.576 134.496C366.832 134.816 367.264 134.976 367.872 134.976L374.064 134.4C375.056 134.4 375.728 133.696 376.08 132.288C376.432 130.88 376.688 128.224 376.848 124.32C377.616 124.864 378.528 125.344 379.584 125.76C380.64 126.176 381.6 126.448 382.464 126.576C382.208 131.216 381.536 134.576 380.448 136.656C379.36 138.736 377.424 139.872 374.64 140.064C369.232 140.544 366.336 140.784 365.952 140.784C363.936 140.784 362.448 140.24 361.488 139.152C360.528 138.064 360.048 135.792 360.048 132.336V127.392C358.192 128.672 356.368 129.824 354.576 130.848C353.584 129.536 352.336 128.336 350.832 127.248V142.992L344.784 143.52Z"
    fill="#274AFE" />
</svg>