<svg width="384" height="145" viewBox="0 0 384 145" fill="none" xmlns="http://www.w3.org/2000/svg">
  <path
    d="M37.28 47.7V37.38L110.88 30.98V41.3L37.28 47.7ZM175.76 17.14L180.32 16.74V12.58L175.76 12.98V17.14ZM175.76 28.18L180.32 27.78V23.62L175.76 24.02V28.18ZM168.56 64.82V57.62L158.72 58.5V51.46L168.56 50.58V46.34L160.72 47.06V39.94L168.56 39.22V35.22L161.04 35.86V29.46L168.56 28.82V24.66L158.16 25.54V18.66L168.56 17.78V13.62L161.04 14.26V7.86L168.56 7.22V2.01999L175.76 1.38V6.58L186.88 5.62V16.18L191.28 15.78V22.66L186.88 23.06V33.62L175.76 34.58V38.58L187.76 37.54V44.66L175.76 45.7V49.94L189.28 48.74V55.78L175.76 56.98V64.18L168.56 64.82ZM149.36 50.66C150.213 46.7667 150.853 42.4733 151.28 37.78L144.56 38.34C143.813 38.98 143.44 39.54 143.44 40.02C142.693 38.4733 141.52 36.6867 139.92 34.66L133.6 35.22V42.98L141.52 42.34V46.82L147.36 44.02C147.947 46.4733 148.613 48.6867 149.36 50.66ZM141.76 79.38C140.48 76.82 138.987 74.6867 137.28 72.98C141.173 70.1533 144.213 66.02 146.4 60.58C144.48 57.1667 142.853 52.9267 141.52 47.86V50.9L133.6 51.54V63.06L140.08 57.78C140.88 60.7667 141.787 63.0867 142.8 64.74C138.587 68.2067 135.36 70.9 133.12 72.82C130.88 74.74 129.28 76.1533 128.32 77.06C127.413 77.9667 126.773 78.7133 126.4 79.3C125.92 78.34 125.2 77.2467 124.24 76.02C123.333 74.7933 122.48 73.8067 121.68 73.06C122.533 72.3133 123.44 71.14 124.4 69.54C125.413 67.94 125.92 66.1533 125.92 64.18V52.26L118.08 52.9V44.34L125.92 43.7V35.94L120.96 36.34V32.02L120.72 32.26C120.24 31.3533 119.467 30.18 118.4 28.74C117.387 27.2467 116.453 26.0467 115.6 25.14C120.133 19.5933 123.493 12.8733 125.68 4.97999L133.84 6.5C133.307 8.31333 132.667 10.18 131.92 12.1L140.8 11.3V19.86L128.08 20.98C126.8 23.4867 125.413 25.8067 123.92 27.94L140.88 26.42V33.54C142.373 32.2067 143.653 30.5 144.72 28.42C146.16 25.7 147.813 21.4333 149.68 15.62L141.84 16.26V7.54L152.48 6.66L154.88 5.38L159.76 8.26C157.467 16.1533 154.747 23.4067 151.6 30.02L154.4 29.7H158.96C158.427 41.86 156.987 51.8067 154.64 59.54C157.573 62.6867 160.96 64.74 164.8 65.7C167.413 66.34 170.16 66.66 173.04 66.66C174.427 66.66 175.84 66.58 177.28 66.42L191.84 65.06C190.773 67.46 189.973 70.0733 189.44 72.9L176.72 74.02C174.907 74.2333 173.147 74.34 171.44 74.34C168.347 74.34 165.067 73.94 161.6 73.14C158.133 72.3933 154.747 70.4467 151.44 67.3C148.933 72.1533 145.707 76.18 141.76 79.38ZM236.16 18.02L258.64 16.02V10.82L236.16 12.82V18.02ZM236.16 30.42L258.64 28.42V23.22L236.16 25.22V30.42ZM227.52 38.5V6.18L267.6 2.66V34.98L227.52 38.5ZM200.4 80.26C200.08 77.7 199.2 74.8733 197.76 71.78C199.36 71.6733 200.827 71.5667 202.16 71.46C203.547 71.4067 204.507 71.3267 205.04 71.22C205.627 71.1667 206.027 71.0067 206.24 70.74C206.507 70.5267 206.64 70.1533 206.64 69.62V52.66L198.08 55.54L195.76 46.66C198.96 45.7533 202.587 44.6333 206.64 43.3V28.98L197.12 29.78V20.98L206.64 20.18V5.14L216 4.34V19.38L223.84 18.66V27.46L216 28.18V40.1L223.52 37.46L224.72 46.1L216 49.38V68.74C216 71.0867 215.733 72.9267 215.2 74.26C214.72 75.5933 213.813 76.6867 212.48 77.54C209.92 79.0333 205.893 79.94 200.4 80.26ZM220.88 75.62V67.14L242.24 65.3V54.98L226.24 56.34V47.94L242.24 46.58V39.14L251.92 38.26V45.7L268.08 44.34V52.74L251.92 54.1V64.42L271.28 62.74V71.22L220.88 75.62ZM293.04 71.06V21.7L276.4 23.14V13.22L321.68 9.22V19.14L304.88 20.66V70.02L293.04 71.06ZM318.754 72.26C315.234 72.26 312.327 71.1933 310.034 69.06C307.794 66.8733 306.674 63.86 306.674 60.02C306.674 55.22 308.727 51.3267 312.834 48.34C316.994 45.3 323.554 42.9267 332.514 41.22C332.46 38.98 331.847 37.1933 330.674 35.86C329.66 34.6867 328.087 34.1 325.954 34.1L324.834 34.18C320.727 34.7133 316.62 36.4733 312.514 39.46L308.274 32.1C310.94 30.18 313.847 28.5267 316.994 27.14C321.1 25.3267 325.074 24.42 328.914 24.42C339.1 24.42 344.194 30.5267 344.194 42.74V68.9L334.594 69.78L333.794 65.06H333.474C328.407 69.86 323.5 72.26 318.754 72.26ZM322.914 62.74C326.327 62.74 329.527 60.98 332.514 57.46V48.42C322.754 50.5533 317.874 53.78 317.874 58.1C317.874 59.86 318.434 61.0867 319.554 61.78C320.407 62.42 321.527 62.74 322.914 62.74Z"
    fill="white" />
  <path
    d="M9.888 143.876V128.708C7.168 131.268 5.312 132.98 4.32 133.844L1.536 129.14C3.808 127.38 6.592 125.044 9.888 122.132V114.404L7.392 116.66C6.784 115.636 5.92 114.468 4.8 113.156C3.68 111.812 2.56 110.58 1.44 109.46L5.376 106.004C6.944 107.444 8.448 108.996 9.888 110.66V99.14L15.408 98.66V143.396L9.888 143.876ZM29.904 142.004C29.68 140.404 29.088 138.676 28.128 136.82C32.416 136.628 34.672 136.42 34.896 136.196C35.056 136.036 35.136 135.812 35.136 135.524V125.3L24.288 126.212C25.408 127.364 26.512 128.628 27.6 130.004C28.688 131.38 29.52 132.644 30.096 133.796L25.104 136.964C24.592 135.78 23.824 134.468 22.8 133.028C21.776 131.556 20.688 130.196 19.536 128.948L24 126.26L16.944 126.884V121.652L19.536 121.412C18.736 119.748 17.84 118.404 16.848 117.38C20.4 116.388 23.776 115.092 26.976 113.492C25.984 112.276 24.848 111.172 23.568 110.18L27.792 107.396C29.2 108.356 30.448 109.476 31.536 110.756C34 109.028 36.08 107.076 37.776 104.9L28.08 105.764C25.552 107.94 22.928 109.812 20.208 111.38C19.248 110.26 17.984 109.124 16.416 107.972C21.952 105.092 26.128 101.572 28.944 97.412L34.848 98.372C34.272 99.204 33.632 100.02 32.928 100.82L41.136 100.1L42.096 99.812L45.84 101.396C41.52 110.772 33.056 117.412 20.448 121.316L35.136 120.068V115.412L40.8 114.884V119.54L45.984 119.108V124.34L40.8 124.772V135.092C40.8 136.468 40.624 137.572 40.272 138.404C39.408 140.484 35.952 141.684 29.904 142.004ZM54.864 144.068V119.54C53.808 121.076 52.736 122.468 51.648 123.716C51.36 122.948 50.896 121.988 50.256 120.836C49.648 119.684 49.088 118.756 48.576 118.052C53.184 112.9 56.816 106.596 59.472 99.14L64.896 100.34C63.648 103.796 62.128 107.204 60.336 110.564V143.588L54.864 144.068ZM67.392 136.772C66.144 135.908 64.512 135.028 62.496 134.132C65.28 130.196 67.232 125.332 68.352 119.54L73.92 120.212C72.384 126.772 70.208 132.292 67.392 136.772ZM72.624 142.676C72.496 141.812 72.24 140.852 71.856 139.796C71.504 138.74 71.104 137.828 70.656 137.06C72.8 136.932 74.368 136.82 75.36 136.724H75.456C75.968 136.724 76.224 136.42 76.224 135.812V111.332L70.656 111.812C69.28 114.788 67.776 117.38 66.144 119.588C65.6 119.076 64.864 118.5 63.936 117.86C63.04 117.188 62.24 116.644 61.536 116.228C65.28 111.396 68 105.396 69.696 98.228L75.264 98.996C74.624 101.492 73.872 103.94 73.008 106.34L89.52 104.9L90.432 104.612L94.464 105.044C93.824 109.524 93.136 113.3 92.4 116.372L87.552 115.988C87.808 114.388 88.064 112.484 88.32 110.276L81.888 110.852V135.428C81.888 136.804 81.728 137.924 81.408 138.788C81.12 139.652 80.544 140.356 79.68 140.9C78.016 141.892 75.664 142.484 72.624 142.676ZM88.464 134.804C88.176 132.596 87.584 130.1 86.688 127.316C85.824 124.5 84.8 121.876 83.616 119.444L88.704 117.284C89.984 119.716 91.088 122.308 92.016 125.06C92.944 127.78 93.584 130.244 93.936 132.452L88.464 134.804ZM104.832 134.036L112.464 133.364V123.956L104.832 124.628V134.036ZM104.832 119.684L112.464 119.012V111.236L104.832 111.908V119.684ZM99.648 143.012V107.348L105.072 106.868C105.744 104.18 106.208 101.572 106.464 99.044L112.704 99.332C111.872 101.86 111.04 104.228 110.208 106.436L117.648 105.764V113.54C120.496 108.932 122.656 103.588 124.128 97.508L129.6 98.324C129.088 100.404 128.464 102.484 127.728 104.564L141.216 103.364V105.284C140.96 115.684 140.592 123.588 140.112 128.996C139.696 133.732 139.008 136.692 138.048 137.876C137.376 138.804 136.672 139.476 135.936 139.892C135.232 140.34 134.4 140.692 133.44 140.948C131.424 141.3 128.912 141.54 125.904 141.668C125.84 140.868 125.632 139.956 125.28 138.932C124.96 137.94 124.544 137.06 124.032 136.292C127.328 136.228 129.712 136.116 131.184 135.956C132.048 135.892 132.752 135.556 133.296 134.948C134.576 133.988 135.424 125.348 135.84 109.028L125.568 109.94C124.288 112.98 122.88 115.636 121.344 117.908C120.704 117.364 119.472 116.564 117.648 115.508V137.924L104.832 139.076V142.58L99.648 143.012ZM128.4 129.38C127.088 126.756 124.864 123.252 121.728 118.868L126.192 115.94C129.488 120.164 131.84 123.508 133.248 125.972L128.4 129.38ZM173.568 121.124L182.4 120.356V117.476L173.568 118.244V121.124ZM173.568 114.068L182.4 113.3V110.516L173.568 111.284V114.068ZM173.568 107.06L182.4 106.292V103.508L173.568 104.276V107.06ZM169.824 134.468C168.32 132.676 166.208 130.628 163.488 128.324L167.424 124.82L168.384 125.588V100.196L187.872 98.516V124.34L168.864 125.972C171.104 127.86 172.8 129.412 173.952 130.628L169.824 134.468ZM154.32 127.844V118.388C152.688 121.396 150.88 123.876 148.896 125.828C148.448 125.22 147.872 124.58 147.168 123.908C146.496 123.204 145.856 122.628 145.248 122.18C148.608 119.236 151.328 115.444 153.408 110.804L146.448 111.38V106.532L154.32 105.86V99.092L159.744 98.612V105.38L166.512 104.804V109.652L159.744 110.228V112.004C160.416 112.356 161.264 112.836 162.288 113.444C163.344 114.052 164.336 114.66 165.264 115.268C166.224 115.876 166.912 116.324 167.328 116.612L164.352 121.46C163.136 120.244 161.6 118.868 159.744 117.332V127.364L154.32 127.844ZM150.816 141.524L145.584 139.412C147.44 136.372 148.832 132.948 149.76 129.14L154.848 130.724C153.6 135.332 152.256 138.932 150.816 141.524ZM162.432 142.148C160.512 142.148 159.056 141.764 158.064 140.996C157.072 140.26 156.576 138.644 156.576 136.148V129.572L162.24 129.044V135.524C162.24 136.26 162.432 136.708 162.816 136.868C163.04 136.964 163.392 137.012 163.872 137.012C164.288 137.012 164.768 136.98 165.312 136.916L172.992 136.244C174.08 136.212 174.8 135.828 175.152 135.092C175.536 134.356 175.776 132.82 175.872 130.484C176.48 130.868 177.28 131.204 178.272 131.492C179.264 131.78 180.176 131.956 181.008 132.02C180.72 135.412 180.032 137.748 178.944 139.028C177.856 140.34 176.016 141.076 173.424 141.236C166.704 141.844 163.04 142.148 162.432 142.148ZM185.328 137.684C184.304 135.7 182.928 133.38 181.2 130.724L179.664 128.228L184.656 125.492L186.144 127.604C188 130.196 189.504 132.5 190.656 134.516L185.328 137.684ZM204.864 116.324L211.152 115.796C212.528 114.58 213.712 113.284 214.704 111.908L204.864 112.772V116.324ZM205.392 108.596L215.088 107.78C215.76 106.884 216.416 105.956 217.056 104.996L208.08 105.764C207.248 106.724 206.352 107.668 205.392 108.596ZM217.488 115.22L227.472 114.356V110.804L220.272 111.428C219.472 112.772 218.544 114.036 217.488 115.22ZM209.568 142.964C209.408 141.012 208.896 139.348 208.032 137.972C209.856 137.972 211.44 137.908 212.784 137.78C214.064 137.748 215.136 137.38 216 136.676C217.12 135.876 217.68 134.676 217.68 133.076C217.68 132.564 217.616 132.004 217.488 131.396C211.632 135.844 205.296 139.316 198.48 141.812C197.264 140.116 196.192 138.836 195.264 137.972C198.976 136.852 202.688 135.364 206.4 133.508C210.112 131.652 213.216 129.716 215.712 127.7C215.328 127.124 214.88 126.58 214.368 126.068C209.6 129.716 204.384 132.564 198.72 134.612C197.728 133.204 196.704 132.036 195.648 131.108C201.696 129.252 206.944 126.756 211.392 123.62C210.72 123.172 210 122.74 209.232 122.324C205.488 124.82 201.44 126.836 197.088 128.372C196.8 127.892 196.368 127.284 195.792 126.548C195.248 125.78 194.752 125.156 194.304 124.676C197.856 123.556 201.168 122.164 204.24 120.5L199.488 120.932V113.684C198.976 114.068 198.432 114.452 197.856 114.836C197.408 114.196 196.816 113.524 196.08 112.82C195.344 112.084 194.656 111.524 194.016 111.14C197.12 109.188 199.776 107.108 201.984 104.9C204.224 102.66 205.968 100.5 207.216 98.42L213.168 99.044L211.728 101.204L220.224 100.436L221.04 100.148L224.928 102.356C224.064 103.892 222.976 105.508 221.664 107.204L233.136 106.196V118.004L213.936 119.684C216.752 121.316 218.912 123.156 220.416 125.204C224.128 122.964 227.376 120.676 230.16 118.34L234.768 121.364C232.752 122.74 230.656 124.084 228.48 125.396C229.44 127.22 230.736 128.916 232.368 130.484C234.032 132.052 236.016 133.22 238.32 133.988C237.68 134.66 236.992 135.508 236.256 136.532C235.552 137.524 234.976 138.436 234.528 139.268C232.032 138.148 229.904 136.564 228.144 134.516C226.416 132.436 225.04 130.26 224.016 127.988L222.384 128.804C222.928 130.34 223.2 131.812 223.2 133.22C223.2 134.052 223.008 135.204 222.624 136.676C222.272 138.116 221.264 139.412 219.6 140.564C218.672 141.268 217.76 141.764 216.864 142.052C216 142.372 214.96 142.58 213.744 142.676C212.528 142.804 211.136 142.9 209.568 142.964ZM255.312 128.036L272.832 126.5V123.716L255.312 125.252V128.036ZM255.312 107.972L272.832 106.436V103.796L255.312 105.332V107.972ZM255.312 121.22L272.832 119.684V117.044L255.312 118.58V121.22ZM255.312 114.548L272.832 113.012V110.468L255.312 112.004V114.548ZM245.712 144.308C244.56 143.06 243.168 141.812 241.536 140.564C243.744 139.636 245.984 138.516 248.256 137.204C250.528 135.892 252.48 134.58 254.112 133.268L242.304 134.324V129.188L249.792 128.516V101.3L278.64 98.756V125.972L285.888 125.348V130.484L273.936 131.54C278.992 133.3 283.2 134.98 286.56 136.58L281.856 141.14C280.224 140.212 278.144 139.188 275.616 138.068C273.12 136.948 270.544 135.94 267.888 135.044L270.528 131.828L256.176 133.076L260.208 135.62C258.256 137.188 255.968 138.756 253.344 140.324C250.72 141.892 248.176 143.22 245.712 144.308ZM308.544 125.732V100.292L331.776 98.276V123.716L326.112 124.196V103.652L313.92 104.756V125.3L308.544 125.732ZM290.352 139.796L289.2 134.468C291.184 133.86 293.44 133.124 295.968 132.26V120.98L290.832 121.46V116.228L295.968 115.748V107.3L290.112 107.828V102.5L306.96 101.012V106.34L301.488 106.82V115.268L305.952 114.884V120.116L301.488 120.5V130.388L306.912 128.468L307.632 133.556C304.592 134.676 301.568 135.78 298.56 136.868C295.552 137.924 292.816 138.9 290.352 139.796ZM307.344 143.156C306.96 142.612 306.416 141.956 305.712 141.188C305.008 140.452 304.368 139.876 303.792 139.46C311.568 134.596 315.952 128.404 316.944 120.884C317.2 118.804 317.328 116.836 317.328 114.98V107.396L322.608 106.964V114.692C322.608 118.02 322.208 121.284 321.408 124.484L324.528 124.196V134.756C324.528 135.876 324.864 136.436 325.536 136.436L328.368 136.148C328.976 136.148 329.392 135.62 329.616 134.564C329.84 133.508 329.984 131.444 330.048 128.372C331.424 129.204 332.912 129.764 334.512 130.052C334.32 133.732 333.824 136.324 333.024 137.828C332.224 139.332 330.656 140.148 328.32 140.276C325.536 140.532 323.952 140.66 323.568 140.66C322.224 140.66 321.168 140.356 320.4 139.748C319.664 139.172 319.296 137.876 319.296 135.86V130.196C316.832 135.412 312.848 139.732 307.344 143.156ZM344.784 144.02V118.82C343.6 120.356 342.4 121.764 341.184 123.044C339.936 120.868 338.72 119.044 337.536 117.572C342.656 112.452 346.704 106.116 349.68 98.564L355.488 99.956C354.176 103.188 352.624 106.404 350.832 109.604V127.124C353.872 125.396 356.944 123.3 360.048 120.836V98.564L366.24 98.036V115.364C370.144 111.524 373.552 107.284 376.464 102.644L381.936 105.908C377.296 112.532 372.064 118.292 366.24 123.188V132.404C366.24 133.78 366.352 134.644 366.576 134.996C366.832 135.316 367.264 135.476 367.872 135.476L374.064 134.9C375.056 134.9 375.728 134.196 376.08 132.788C376.432 131.38 376.688 128.724 376.848 124.82C377.616 125.364 378.528 125.844 379.584 126.26C380.64 126.676 381.6 126.948 382.464 127.076C382.208 131.716 381.536 135.076 380.448 137.156C379.36 139.236 377.424 140.372 374.64 140.564C369.232 141.044 366.336 141.284 365.952 141.284C363.936 141.284 362.448 140.74 361.488 139.652C360.528 138.564 360.048 136.292 360.048 132.836V127.892C358.192 129.172 356.368 130.324 354.576 131.348C353.584 130.036 352.336 128.836 350.832 127.748V143.492L344.784 144.02Z"
    fill="#274AFE" />
</svg>