<svg width="235" height="48" viewBox="0 0 235 48" fill="none" xmlns="http://www.w3.org/2000/svg">
  <path
    d="M24.796 10.512L38.284 9.312V6.192L24.796 7.392V10.512ZM24.796 17.952L38.284 16.752V13.632L24.796 14.832V17.952ZM19.612 22.8V3.408L43.66 1.296V20.688L19.612 22.8ZM3.34 47.856C3.148 46.32 2.62 44.624 1.756 42.768C2.716 42.704 3.596 42.64 4.396 42.576C5.228 42.544 5.804 42.496 6.124 42.432C6.476 42.4 6.716 42.304 6.844 42.144C7.004 42.016 7.084 41.792 7.084 41.472V31.296L1.948 33.024L0.556 27.696C2.476 27.152 4.652 26.48 7.084 25.68V17.088L1.372 17.568V12.288L7.084 11.808V2.784L12.7 2.304V11.328L17.404 10.896V16.176L12.7 16.608V23.76L17.212 22.176L17.932 27.36L12.7 29.328V40.944C12.7 42.352 12.54 43.456 12.22 44.256C11.932 45.056 11.388 45.712 10.588 46.224C9.052 47.12 6.636 47.664 3.34 47.856ZM15.628 45.072V39.984L28.444 38.88V32.688L18.844 33.504V28.464L28.444 27.648V23.184L34.252 22.656V27.12L43.948 26.304V31.344L34.252 32.16V38.352L45.868 37.344V42.432L15.628 45.072ZM58.924 42.336V12.72L48.94 13.584V7.632L76.108 5.232V11.184L66.028 12.096V41.712L58.924 42.336ZM74.3523 43.056C72.2403 43.056 70.4963 42.416 69.1203 41.136C67.7763 39.824 67.1043 38.016 67.1043 35.712C67.1043 32.832 68.3363 30.496 70.8003 28.704C73.2963 26.88 77.2323 25.456 82.6083 24.432C82.5763 23.088 82.2083 22.016 81.5043 21.216C80.8963 20.512 79.9523 20.16 78.6723 20.16L78.0003 20.208C75.5363 20.528 73.0723 21.584 70.6083 23.376L68.0643 18.96C69.6643 17.808 71.4083 16.816 73.2963 15.984C75.7603 14.896 78.1443 14.352 80.4483 14.352C86.5603 14.352 89.6163 18.016 89.6163 25.344V41.04L83.8563 41.568L83.3763 38.736H83.1843C80.1443 41.616 77.2003 43.056 74.3523 43.056ZM76.8483 37.344C78.8963 37.344 80.8163 36.288 82.6083 34.176V28.752C76.7523 30.032 73.8243 31.968 73.8243 34.56C73.8243 35.616 74.1603 36.352 74.8323 36.768C75.3443 37.152 76.0163 37.344 76.8483 37.344ZM109.48 45.648V40.368L121.096 39.36V28.416L111.352 29.232V23.952L121.096 23.136V15.168L126.856 14.64V22.608L136.36 21.792V27.072L126.856 27.888V38.832L138.232 37.824V43.104L109.48 45.648ZM101.272 47.52V30.816C99.9596 32.128 98.5516 33.36 97.0476 34.512C96.2156 32.56 95.2716 30.816 94.2156 29.28C99.2716 25.344 103.256 20.384 106.168 14.4L95.7516 15.312V9.84L108.712 8.688C109.544 6.384 110.248 4.096 110.824 1.824L116.824 2.736C116.28 4.56 115.672 6.368 115 8.16L138.376 6.096V11.568L112.696 13.824C111.128 17.312 109.256 20.624 107.08 23.76V46.992L101.272 47.52ZM149.512 47.52V29.856C147.72 31.68 145.896 33.248 144.04 34.56C143.816 33.728 143.48 32.736 143.032 31.584C142.616 30.4 142.232 29.52 141.88 28.944C146.968 25.584 151.08 21.088 154.216 15.456L143.272 16.416V11.28L151.672 10.512C150.68 8.656 149.384 6.8 147.784 4.944L152.296 2.208C154.216 4.16 155.672 6.048 156.664 7.872L152.872 10.416L157.336 10.032L158.296 9.696L161.32 11.664C159.912 15.344 158.072 18.848 155.8 22.176C157.08 23.168 158.92 24.736 161.32 26.88L162.184 27.6L158.632 32.688C157.736 31.408 156.568 29.952 155.128 28.32V47.04L149.512 47.52ZM159.688 45.168V39.504L171.256 38.496V20.688L161.8 21.504V15.984L171.256 15.168V1.104L177.16 0.575998V14.64L186.232 13.824V19.344L177.16 20.16V37.968L187.384 37.056V42.72L159.688 45.168ZM193.096 46.56V5.184L233.608 1.632V7.104L198.664 10.176V40.608L234.856 37.44V42.912L193.096 46.56ZM204.088 38.016C202.648 36.448 201.192 35.104 199.72 33.984C204.136 31.264 208.28 27.984 212.152 24.144C208.536 21.296 205.048 18.72 201.688 16.416L205.672 12.528L216.088 19.872C218.968 16.544 221.416 13.088 223.432 9.504L228.856 11.184C226.424 15.344 223.592 19.312 220.36 23.088C224.52 26.128 227.864 28.896 230.392 31.392L225.88 36.048C223.544 33.552 220.376 30.688 216.376 27.456C212.408 31.552 208.312 35.072 204.088 38.016Z"
    fill="white" />
</svg>