<svg width="235" height="48" viewBox="0 0 235 48" fill="none" xmlns="http://www.w3.org/2000/svg">
  <path
    d="M24.296 10.512L37.784 9.312V6.192L24.296 7.392V10.512ZM24.296 17.952L37.784 16.752V13.632L24.296 14.832V17.952ZM19.112 22.8V3.408L43.16 1.296V20.688L19.112 22.8ZM2.84 47.856C2.648 46.32 2.12 44.624 1.256 42.768C2.216 42.704 3.096 42.64 3.896 42.576C4.728 42.544 5.304 42.496 5.624 42.432C5.976 42.4 6.216 42.304 6.344 42.144C6.504 42.016 6.584 41.792 6.584 41.472V31.296L1.448 33.024L0.0560001 27.696C1.976 27.152 4.152 26.48 6.584 25.68V17.088L0.872 17.568V12.288L6.584 11.808V2.784L12.2 2.304V11.328L16.904 10.896V16.176L12.2 16.608V23.76L16.712 22.176L17.432 27.36L12.2 29.328V40.944C12.2 42.352 12.04 43.456 11.72 44.256C11.432 45.056 10.888 45.712 10.088 46.224C8.552 47.12 6.136 47.664 2.84 47.856ZM15.128 45.072V39.984L27.944 38.88V32.688L18.344 33.504V28.464L27.944 27.648V23.184L33.752 22.656V27.12L43.448 26.304V31.344L33.752 32.16V38.352L45.368 37.344V42.432L15.128 45.072ZM58.424 42.336V12.72L48.44 13.584V7.632L75.608 5.232V11.184L65.528 12.096V41.712L58.424 42.336ZM73.8523 43.056C71.7403 43.056 69.9963 42.416 68.6203 41.136C67.2763 39.824 66.6043 38.016 66.6043 35.712C66.6043 32.832 67.8363 30.496 70.3003 28.704C72.7963 26.88 76.7323 25.456 82.1083 24.432C82.0763 23.088 81.7083 22.016 81.0043 21.216C80.3963 20.512 79.4523 20.16 78.1723 20.16L77.5003 20.208C75.0363 20.528 72.5723 21.584 70.1083 23.376L67.5643 18.96C69.1643 17.808 70.9083 16.816 72.7963 15.984C75.2603 14.896 77.6443 14.352 79.9483 14.352C86.0603 14.352 89.1163 18.016 89.1163 25.344V41.04L83.3563 41.568L82.8763 38.736H82.6843C79.6443 41.616 76.7003 43.056 73.8523 43.056ZM76.3483 37.344C78.3963 37.344 80.3163 36.288 82.1083 34.176V28.752C76.2523 30.032 73.3243 31.968 73.3243 34.56C73.3243 35.616 73.6603 36.352 74.3323 36.768C74.8443 37.152 75.5163 37.344 76.3483 37.344ZM108.98 45.648V40.368L120.596 39.36V28.416L110.852 29.232V23.952L120.596 23.136V15.168L126.356 14.64V22.608L135.86 21.792V27.072L126.356 27.888V38.832L137.732 37.824V43.104L108.98 45.648ZM100.772 47.52V30.816C99.4596 32.128 98.0516 33.36 96.5476 34.512C95.7156 32.56 94.7716 30.816 93.7156 29.28C98.7716 25.344 102.756 20.384 105.668 14.4L95.2516 15.312V9.84L108.212 8.688C109.044 6.384 109.748 4.096 110.324 1.824L116.324 2.736C115.78 4.56 115.172 6.368 114.5 8.16L137.876 6.096V11.568L112.196 13.824C110.628 17.312 108.756 20.624 106.58 23.76V46.992L100.772 47.52ZM149.012 47.52V29.856C147.22 31.68 145.396 33.248 143.54 34.56C143.316 33.728 142.98 32.736 142.532 31.584C142.116 30.4 141.732 29.52 141.38 28.944C146.468 25.584 150.58 21.088 153.716 15.456L142.772 16.416V11.28L151.172 10.512C150.18 8.656 148.884 6.8 147.284 4.944L151.796 2.208C153.716 4.16 155.172 6.048 156.164 7.872L152.372 10.416L156.836 10.032L157.796 9.696L160.82 11.664C159.412 15.344 157.572 18.848 155.3 22.176C156.58 23.168 158.42 24.736 160.82 26.88L161.684 27.6L158.132 32.688C157.236 31.408 156.068 29.952 154.628 28.32V47.04L149.012 47.52ZM159.188 45.168V39.504L170.756 38.496V20.688L161.3 21.504V15.984L170.756 15.168V1.104L176.66 0.575998V14.64L185.732 13.824V19.344L176.66 20.16V37.968L186.884 37.056V42.72L159.188 45.168ZM192.596 46.56V5.184L233.108 1.632V7.104L198.164 10.176V40.608L234.356 37.44V42.912L192.596 46.56ZM203.588 38.016C202.148 36.448 200.692 35.104 199.22 33.984C203.636 31.264 207.78 27.984 211.652 24.144C208.036 21.296 204.548 18.72 201.188 16.416L205.172 12.528L215.588 19.872C218.468 16.544 220.916 13.088 222.932 9.504L228.356 11.184C225.924 15.344 223.092 19.312 219.86 23.088C224.02 26.128 227.364 28.896 229.892 31.392L225.38 36.048C223.044 33.552 219.876 30.688 215.876 27.456C211.908 31.552 207.812 35.072 203.588 38.016Z"
    fill="white" />
</svg>