<svg width="69" height="24" viewBox="0 0 69 24" fill="none" xmlns="http://www.w3.org/2000/svg">
<path d="M30.1084 5.00331C30.1744 4.36134 30.1057 3.71266 29.9067 3.09875C29.7077 2.48484 29.3828 1.91923 28.9527 1.43809C28.5365 0.981474 28.0288 0.617684 27.4626 0.37043C26.8965 0.123176 26.2845 -0.00199711 25.6667 0.00307807H12.6418L11.4088 12.8676H29.3389L30.1084 5.00331ZM26.1837 9.75695H15.1523L15.3514 8.06941H26.3828L26.1837 9.75695ZM26.6323 5.05381H15.6128L15.8208 3.16722H25.1528C26.2164 3.17911 26.6858 4.22192 26.6323 5.06569V5.05381Z" fill="white"/>
<path d="M10.6006 11.174L8.50306 9.71524L8.70808 7.51668H10.6957L10.9928 4.0703H9.02002L9.40031 0H5.95096L5.57066 4.0703H1.85094L1.53008 7.5048H5.24981L4.87248 11.5781C3.69364 12.1374 2.38758 12.3742 1.0874 12.2644L0.769484 15.684C1.10224 15.7137 1.43204 15.7286 1.75588 15.7286C2.68897 15.729 3.61801 15.6061 4.51891 15.3632L4.33471 17.3567C4.28717 17.8588 3.95738 20.4466 2.32332 20.5357H0.311972L0 23.9761H2.43622C4.56942 23.893 6.27184 22.4906 7.14829 20.3129C7.14829 20.2505 7.16907 20.2178 7.16907 20.2178H7.18986C7.49458 19.4028 7.68749 18.5503 7.76328 17.6835L8.13763 13.6429C9.08947 12.9618 9.92177 12.1275 10.6006 11.174Z" fill="white"/>
<path d="M21.3706 18.5184H28.7981L29.1339 15.0839H21.7063L21.8043 13.8955H18.355L18.2569 15.0839H11.2602C11.1443 16.2485 10.9631 17.7578 10.8918 18.5184H17.9212L17.7103 20.5565H9.35575C9.23691 21.7449 8.98438 23.991 8.98438 23.991H29.9004L30.2212 20.5565H21.1596L21.3706 18.5184Z" fill="white"/>
<path d="M52.4625 0.0446788H34.6096C34.1435 0.0441751 33.694 0.217903 33.3493 0.531767C33.0047 0.845632 32.7898 1.27696 32.7468 1.74112L32.521 4.17736H40.2011L39.2088 14.6681L38.3175 23.9881H42.4769L43.7515 10.4046L44.3457 4.18628H48.9032H50.365C50.8311 4.18679 51.2806 4.01306 51.6253 3.69919C51.9699 3.38533 52.1848 2.95398 52.2278 2.48982L52.4625 0.0446788Z" fill="white"/>
<path d="M66.967 20.2296C66.5541 20.2296 66.6699 19.7513 66.6699 19.4988L67.8584 6.85707H64.0851L63.9574 8.23563C62.5106 7.14377 60.7429 6.56185 58.9304 6.58077C54.1768 6.58077 49.9698 10.4045 49.5331 15.1017C49.4123 16.2333 49.5337 17.3777 49.8893 18.4588C50.2448 19.5399 50.8263 20.533 51.5951 21.3721C52.364 22.2112 53.3026 22.877 54.3485 23.3255C55.3945 23.774 56.5239 23.9947 57.6618 23.9731C59.7893 23.9559 61.8478 23.2163 63.4999 21.8756C63.6283 22.2003 63.7844 22.5134 63.9663 22.8114C64.2958 23.1832 64.7 23.4812 65.1526 23.686C65.6052 23.8908 66.0959 23.9977 66.5927 23.9999H68.1703C68.304 22.7877 68.4674 21.2517 68.5565 20.2415L66.967 20.2296ZM63.3157 15.1017C63.1545 16.4934 62.4932 17.7792 61.4548 18.7198C60.4164 19.6604 59.0716 20.1917 57.6707 20.2148C57.0512 20.2276 56.4359 20.1096 55.8651 19.8685C55.2943 19.6273 54.7807 19.2685 54.358 18.8154C53.9527 18.3619 53.6476 17.8278 53.4628 17.2483C53.278 16.6687 53.2176 16.0567 53.2855 15.4523C53.446 14.0602 54.1072 12.774 55.1457 11.8334C56.1843 10.8927 57.5294 10.3616 58.9304 10.3391C59.5504 10.3259 60.1663 10.4437 60.7377 10.6848C61.309 10.926 61.823 11.285 62.2461 11.7385C62.6509 12.1923 62.9554 12.7264 63.1397 13.306C63.324 13.8855 63.384 14.4974 63.3157 15.1017Z" fill="white"/>
</svg>
