<svg width="531" height="105" viewBox="0 0 531 105" fill="none" xmlns="http://www.w3.org/2000/svg">
  <path
    d="M97.52 12.2448V9.46083L91.904 9.94083V5.23683L97.52 4.75683V1.54083L102.944 1.06083V4.27683L108.512 3.79683V0.580827L114.08 0.100827V3.31683L119.456 2.83683V7.54083L114.08 8.02083V10.8048L108.512 11.2848V8.50083L102.944 8.98083V11.7648L97.52 12.2448ZM81.296 47.6688V31.4448C80.208 34.5808 79.024 37.2368 77.744 39.4128C77.04 37.5568 76.128 35.7168 75.008 33.8928C76.352 31.9728 77.568 29.6208 78.656 26.8368C79.744 24.0208 80.624 21.1888 81.296 18.3408V17.0928L76.112 17.5728V12.2928L81.296 11.8128V2.88483L86.72 2.45283V11.3808L91.04 10.9968V16.2768L86.72 16.6608V18.3408C87.232 18.9488 87.888 19.8128 88.688 20.9328C89.488 22.0528 90.256 23.1568 90.992 24.2448C91.728 25.3008 92.256 26.0688 92.576 26.5488L89.168 30.8208C88.592 29.3808 87.776 27.6528 86.72 25.6368V47.2368L81.296 47.6688ZM98.528 24.7728L111.728 23.6208V21.5088L98.528 22.6608V24.7728ZM98.528 18.9648L111.728 17.8128V15.7488L98.528 16.9008V18.9648ZM92.144 46.8048C91.888 46.1008 91.472 45.3328 90.896 44.5008C90.352 43.7008 89.808 43.0288 89.264 42.4848C95.024 40.7888 98.672 38.6448 100.208 36.0528L91.04 36.8688V32.1648L102.032 31.2048C102.192 30.3088 102.32 29.3808 102.416 28.4208L93.248 29.2368V13.4448L117.248 11.3328V27.1248L108.032 27.9408C107.936 28.8688 107.808 29.7808 107.648 30.6768L119.648 29.6688V34.3728L111.248 35.0928C113.424 37.4928 116.64 38.9488 120.896 39.4608C120.288 40.1008 119.648 40.9008 118.976 41.8608C118.336 42.8208 117.808 43.7008 117.392 44.5008C112.112 43.4448 108.304 40.7888 105.968 36.5328C105.008 38.7088 103.44 40.6288 101.264 42.2928C99.088 43.9888 96.048 45.4928 92.144 46.8048ZM155.648 27.3168C155.36 25.7488 154.8 24.1168 153.968 22.4208C157.584 22.2608 159.552 22.0528 159.872 21.7968C160 21.6688 160.064 21.4448 160.064 21.1248V0.724828L165.488 0.244828V20.7408C165.488 22.0848 165.328 23.1408 165.008 23.9088C164.208 25.8608 161.088 26.9968 155.648 27.3168ZM151.328 19.9248V3.70083L156.56 3.26883V19.4928L151.328 19.9248ZM135.44 14.0688L139.472 13.7328V8.69283L135.44 9.02883V14.0688ZM124.304 46.6608V41.3808L143.072 39.7008V35.8608L129.152 37.1088V31.9248L143.072 30.6768V27.6528L139.472 27.9888V18.7728L135.056 19.1568C134.256 23.8288 131.744 27.5568 127.52 30.3408C127.104 29.7968 126.512 29.1568 125.744 28.4208C124.976 27.6528 124.32 27.0768 123.776 26.6928C126.912 24.7408 128.864 22.3888 129.632 19.6368L124.784 20.0688V15.0288L130.208 14.5488V9.50883L126.416 9.84483V4.85283L148.208 2.93283V7.92483L144.8 8.21283V13.2528L149.312 12.8688V17.9088L144.8 18.2928V26.6928L148.928 26.3568V30.1968L162.8 28.9488V34.1328L148.928 35.3808V39.2208L167.552 37.5888V42.8688L124.304 46.6608ZM182.192 14.5488C180.368 12.5648 177.504 10.2128 173.6 7.49283L177.104 3.41283L177.536 3.70083C181.696 6.42083 184.512 8.48483 185.984 9.89283L182.192 14.5488ZM177.776 47.4288C177.488 46.8208 177.04 46.1488 176.432 45.4128C175.856 44.6768 175.328 44.1008 174.848 43.6848C175.424 43.2048 175.952 42.5008 176.432 41.5728C176.944 40.6448 177.2 39.5408 177.2 38.2608V23.1408L171.632 23.6208V18.1488L182.672 17.1888V35.0928L186.128 31.7808C186.64 33.3168 187.296 34.7568 188.096 36.1008C188.832 33.5088 189.296 30.8528 189.488 28.1328C189.68 25.4128 189.776 22.6928 189.776 19.9728V3.36483L195.488 2.83683V19.4448C195.488 22.5168 195.376 25.6208 195.152 28.7568C194.928 31.8608 194.448 34.9168 193.712 37.9248C192.976 40.9328 191.84 43.7968 190.304 46.5168C189.6 46.0368 188.704 45.5408 187.616 45.0288C186.528 44.5168 185.552 44.1328 184.688 43.8768C186.096 41.6368 187.152 39.3168 187.856 36.9168C185.264 39.4128 183.28 41.3488 181.904 42.7248C180.56 44.1008 179.584 45.1248 178.976 45.7968C178.4 46.4688 178 47.0128 177.776 47.4288ZM199.616 39.3648V4.94883L204.896 4.46883V38.8848L199.616 39.3648ZM209.168 44.3568V1.30083L214.88 0.820829V43.8768L209.168 44.3568ZM221.408 35.7648L221.36 35.5248C220.816 33.7648 220.272 32.2608 219.728 31.0128C220.784 30.5968 221.904 29.4768 223.088 27.6528C223.792 26.7568 224.848 25.0928 226.256 22.6608C223.248 23.3008 221.52 23.7808 221.072 24.1008V23.9088C221.04 23.9408 221.024 24.0048 221.024 24.1008C220.704 22.9808 220.096 21.3328 219.2 19.1568C220.128 18.7408 220.96 17.6848 221.696 15.9888C222.208 15.0928 222.96 13.3328 223.952 10.7088C224.976 8.08483 225.824 5.28483 226.496 2.30883L231.776 4.27683C230.208 9.17283 228.176 13.8128 225.68 18.1968L228.896 17.6688C229.76 16.0048 230.512 14.3248 231.152 12.6288L235.76 14.8848C233.648 19.4608 231.184 23.8128 228.368 27.9408L234.944 26.1648C234.848 27.0288 234.8 28.1488 234.8 29.5248C234.8 30.0368 234.816 30.5008 234.848 30.9168C231.456 31.9728 228.848 32.8048 227.024 33.4128C225.232 33.9888 223.936 34.4528 223.136 34.8048C222.336 35.1568 221.776 35.4448 221.456 35.6688L221.408 35.7648ZM221.072 45.8448L219.728 40.3728C223.504 38.7728 228.24 36.6768 233.936 34.0848L234.848 38.2128C233.056 39.2368 228.464 41.7808 221.072 45.8448ZM237.296 44.6448C236.24 43.6848 234.928 42.7568 233.36 41.8608C234.704 40.3568 235.952 38.6288 237.104 36.6768C238.288 34.7248 239.2 32.8848 239.84 31.1568L245.024 32.1648C242.944 36.8048 240.368 40.9648 237.296 44.6448ZM243.056 23.8608L247.664 23.4768V19.6368L244.544 19.8768L243.056 23.8608ZM243.584 45.9408C243.392 44.4368 242.864 42.7728 242 40.9488C242.8 40.9168 243.584 40.8688 244.352 40.8048C245.856 40.6768 246.672 40.5968 246.8 40.5648H246.896C247.408 40.5648 247.664 40.2768 247.664 39.7008V28.6128L242.48 29.0448C239.952 29.2688 238.448 29.6528 237.968 30.1968C237.68 28.9488 237.104 27.3808 236.24 25.4928C237.264 25.0448 238.208 23.5568 239.072 21.0288L239.36 20.3568L236.528 20.5968V15.4128L240.992 15.0288C241.344 13.9408 241.664 12.7888 241.952 11.5728L235.808 12.1008V6.86883L243.248 6.24483C243.632 4.48483 243.952 2.74083 244.208 1.01283L249.776 1.25283C249.488 2.75683 249.152 4.26083 248.768 5.76483L262.784 4.51683V9.74883L247.328 11.0928C247.008 12.2768 246.672 13.4288 246.32 14.5488L253.184 13.9728V22.9968L262.112 22.1808V27.3168L253.184 28.1328V39.3168C253.184 42.0048 252.448 43.7008 250.976 44.4048C249.344 45.2368 246.88 45.7488 243.584 45.9408ZM259.76 42.2448C258.864 39.9728 257.2 36.5648 254.768 32.0208L259.232 29.5728L259.616 30.1968C262.048 34.4528 263.696 37.5088 264.56 39.3648L259.76 42.2448ZM269.6 32.0688V8.74083L274.688 8.30883V31.6368L269.6 32.0688ZM274.4 47.4768C273.888 46.9328 273.216 46.3248 272.384 45.6528C271.552 45.0128 270.784 44.5008 270.08 44.1168C272.288 42.0048 273.92 39.7488 274.976 37.3488C276.032 34.9168 276.72 32.3888 277.04 29.7648C277.36 27.1088 277.52 24.4048 277.52 21.6528V2.69283L282.752 2.21283V21.2208C282.752 24.4208 282.576 27.5728 282.224 30.6768C281.872 33.7808 281.088 36.7568 279.872 39.6048C278.656 42.4528 276.832 45.0768 274.4 47.4768ZM295.184 45.7488V17.8128L290.816 18.1968V39.2688L285.68 39.7008V13.4928L295.184 12.6768V8.40483L284.384 9.31683V4.13283L311.744 1.73283V6.91683L300.512 7.92483V12.1968L310.592 11.2848V32.0208C310.592 33.1728 310.464 34.1168 310.208 34.8528C309.536 36.8048 307.168 37.8768 303.104 38.0688C302.88 36.3728 302.384 34.7888 301.616 33.3168C303.856 33.1888 305.024 33.0608 305.12 32.9328C305.248 32.8048 305.312 32.6128 305.312 32.3568V16.9008L300.512 17.3328V45.2688L295.184 45.7488ZM327.392 13.3968L337.088 12.5808V10.5648L327.392 11.3808V13.3968ZM327.392 19.0128L337.088 18.1968V16.2768L327.392 17.0928V19.0128ZM327.392 24.8208L337.088 24.0048V21.8928L327.392 22.7088V24.8208ZM321.728 30.9648V17.2368C320.864 18.0688 320 18.8688 319.136 19.6368C318.656 19.0608 318.032 18.4368 317.264 17.7648C316.496 17.0928 315.776 16.5968 315.104 16.2768C317.76 14.1008 320.048 11.7968 321.968 9.36483C323.888 6.93283 325.392 4.61283 326.48 2.40483L332.288 2.98083C331.584 4.26083 330.816 5.54083 329.984 6.82083L337.76 6.10083C337.312 4.91683 336.816 3.81283 336.272 2.78883L341.408 0.916828C342.336 2.42083 343.104 3.98883 343.712 5.62083L357.2 4.42083V8.78883L342.56 10.0848V12.1008L355.04 10.9968V14.6928L342.56 15.7968V17.7168L355.088 16.6128V20.3088L342.56 21.4128V23.5248L358.352 22.1328V26.4528L327.392 29.1408V30.4368L321.728 30.9648ZM318.512 47.6688C317.424 46.0048 316.192 44.5328 314.816 43.2528C320.32 41.5568 325.44 39.2528 330.176 36.3408L316.4 37.5408V32.9808L335.072 31.3488V28.9008L340.736 28.4208V30.8688L359.552 29.2368V33.7968L345.968 34.9488C350.512 37.0288 355.44 38.4368 360.752 39.1728C360.112 39.8128 359.456 40.5968 358.784 41.5248C358.112 42.4528 357.584 43.2848 357.2 44.0208C351.28 42.8368 345.792 40.6928 340.736 37.5888V45.9408L335.072 46.4208V38.3088C329.984 42.3088 324.464 45.4288 318.512 47.6688ZM364.256 46.2768L363.344 40.4688C368.528 39.2528 374.688 37.6528 381.824 35.6688L382.256 40.9488L364.256 46.2768ZM365.264 35.7168C365.136 35.0768 364.88 34.2288 364.496 33.1728C364.112 32.0848 363.744 31.1568 363.392 30.3888C364.576 29.9728 365.872 28.8848 367.28 27.1248C368.144 26.2608 369.44 24.6128 371.168 22.1808C367.712 22.8528 365.616 23.4128 364.88 23.8608C364.464 22.2288 363.808 20.4368 362.912 18.4848C363.904 18.1008 364.88 17.1088 365.84 15.5088C366.448 14.6448 367.36 12.9968 368.576 10.5648C369.824 8.10083 370.928 5.44483 371.888 2.59683L377.792 4.51683C375.776 9.06083 373.376 13.3648 370.592 17.4288L374.672 16.8048C375.696 15.0448 376.656 13.2528 377.552 11.4288L382.592 14.3088C379.84 19.0768 376.72 23.5408 373.232 27.7008L381.488 25.7328V26.3568C381.488 27.6688 381.6 29.0928 381.824 30.6288C377.536 31.7488 374.272 32.6288 372.032 33.2688C369.824 33.9088 368.24 34.4048 367.28 34.7568C366.352 35.1088 365.68 35.4288 365.264 35.7168ZM389.744 38.7408L399.92 37.8768V30.9168L389.744 31.7808V38.7408ZM384.128 46.4208V27.1248L405.776 25.2528V44.3568L399.92 44.8848V43.0128L389.744 43.8768V45.9408L384.128 46.4208ZM383.024 23.7168V18.2928L391.808 17.5248V12.2448L381.776 13.1568V7.68483L391.808 6.77283V0.868829L397.808 0.340827V6.24483L407.792 5.38083V10.8528L397.808 11.7168V16.9968L406.64 16.2288V21.6528L383.024 23.7168ZM419.552 31.0128L418.256 14.7408L418.016 7.58883L425.984 6.91683L425.744 14.0688L424.448 30.5808L419.552 31.0128ZM422 43.5888H421.568C420.512 43.5888 419.616 43.2528 418.88 42.5808C418.144 41.9408 417.776 40.9968 417.776 39.7488C417.776 38.4688 418.176 37.3968 418.976 36.5328C419.904 35.5728 421.056 35.0928 422.432 35.0928C423.456 35.0928 424.336 35.4288 425.072 36.1008C425.84 36.7408 426.224 37.7008 426.224 38.9808C426.224 40.2288 425.824 41.2688 425.024 42.1008C424.224 42.9648 423.216 43.4608 422 43.5888Z"
    fill="white" />
  <path
    d="M7.09988 77.9088H14.1239V84.2608H7.09988V77.9088ZM13.5959 83.7328V81.3648H7.62788V83.7328H13.5959ZM7.62788 80.8368H13.5959V78.4528H7.62788V80.8368ZM10.2839 85.0448H10.8119V86.9648H14.5879V87.4928H10.8119V90.5328H15.3399V91.0768H5.70788V90.5328H10.2839V87.4928H6.55588V86.9648H10.2839V85.0448ZM1.35588 91.4768L1.24388 90.9488C1.90521 90.9702 2.36921 90.9808 2.63588 90.9808C3.09454 90.9808 3.32388 90.7835 3.32388 90.3888V85.5568C2.47054 85.8875 1.70788 86.1488 1.03588 86.3408L0.891875 85.8128C1.71321 85.5995 2.52388 85.3328 3.32388 85.0128V80.9168H1.13188V80.3888H3.32388V77.1568H3.86788V80.3888H5.67588V80.9168H3.86788V84.7888C4.59321 84.4582 5.20654 84.1595 5.70788 83.8928V84.4528C5.13188 84.7515 4.51854 85.0448 3.86788 85.3328V90.5328C3.86788 91.1622 3.52121 91.4768 2.82788 91.4768H1.35588ZM16.4759 78.6768H25.8359V79.2528H21.4839V90.1008H20.8599V79.2528H16.4759V78.6768ZM30.5726 81.6048C31.7033 81.6048 32.546 81.9248 33.1006 82.5648C33.57 83.0982 33.8046 83.8288 33.8046 84.7568V90.1008H33.2126V88.3248C32.8713 88.8155 32.4073 89.2582 31.8206 89.6528C31.1166 90.1008 30.354 90.3248 29.5326 90.3248C28.7433 90.3248 28.098 90.1222 27.5966 89.7168C27.0953 89.2902 26.8446 88.7248 26.8446 88.0208C26.8446 86.9648 27.2873 86.2022 28.1726 85.7328C28.8553 85.3595 29.7886 85.1728 30.9726 85.1728L33.1966 85.1568V84.8208C33.1966 83.0502 32.3166 82.1648 30.5566 82.1648C29.7673 82.1648 29.1326 82.3408 28.6526 82.6928C28.1193 83.0662 27.8046 83.5995 27.7086 84.2928H27.1006C27.2286 83.3968 27.6073 82.7195 28.2366 82.2608C28.8126 81.8235 29.5913 81.6048 30.5726 81.6048ZM33.1966 85.7008L30.9886 85.7168C28.642 85.7275 27.4686 86.5008 27.4686 88.0368C27.4686 88.5595 27.666 88.9808 28.0606 89.3008C28.4553 89.6102 28.9833 89.7648 29.6446 89.7648C30.5406 89.7648 31.3673 89.4502 32.1246 88.8208C32.8393 88.1915 33.1966 87.5515 33.1966 86.9008V85.7008ZM38.7481 90.7568V91.6048H38.2041V85.3488H48.1401V91.6048H47.6121V90.7568H38.7481ZM47.6121 90.2128V85.8928H38.7481V90.2128H47.6121ZM48.4121 78.1008C48.4121 80.5968 48.2468 82.2075 47.9161 82.9328C47.5641 83.6262 46.9508 83.9728 46.0761 83.9728C45.5428 83.9728 44.9561 83.9622 44.3161 83.9408L44.1721 83.3968C44.8441 83.4288 45.4681 83.4448 46.0441 83.4448C46.9935 83.3915 47.5321 82.8742 47.6601 81.8928C47.7988 80.8048 47.8681 79.7168 47.8681 78.6288H41.5961C40.9881 81.8502 39.1588 83.8768 36.1081 84.7088L35.8681 84.1968C38.7695 83.4182 40.4921 81.5622 41.0361 78.6288H36.7641V78.1008H48.4121ZM52.0121 87.5568V87.0288H58.6041V85.9248H59.1481V87.0288H65.6441V87.5568H60.1881C61.2975 88.8902 63.1695 89.9408 65.8041 90.7088L65.5641 91.1888C62.6948 90.2502 60.7215 89.0395 59.6441 87.5568H59.1481V91.6368H58.6041V87.5568H58.0601C57.0895 88.9968 55.1215 90.2288 52.1561 91.2528L51.8681 90.7728C54.7268 89.8448 56.6201 88.7728 57.5481 87.5568H52.0121ZM53.7561 80.4208C53.2228 81.0715 52.6041 81.7115 51.9001 82.3408L51.6441 81.8768C53.1588 80.5542 54.3055 78.9595 55.0841 77.0928L55.5801 77.2688C55.4201 77.7062 55.1908 78.1915 54.8921 78.7248H58.9721C58.7268 78.0955 58.4975 77.5675 58.2841 77.1408L58.8281 77.0448C59.0735 77.5248 59.2975 78.0848 59.5001 78.7248H64.8921V79.2368H59.5641V80.7568H64.3641V81.2368H59.5641V82.7248H64.3641V83.2048H59.5641V84.8048H65.1801V85.3168H53.7561V80.4208ZM54.5881 79.2368L54.2841 79.7008V80.7568H59.0361V79.2368H54.5881ZM59.0361 84.8048V83.2048H54.2841V84.8048H59.0361ZM59.0361 82.7248V81.2368H54.2841V82.7248H59.0361ZM73.6281 81.0288H80.8601V85.7808H77.4841C77.4628 86.3995 77.3988 86.9542 77.2921 87.4448H82.0121V87.9568H77.5161C78.4655 89.3115 79.9801 90.3888 82.0601 91.1888L81.7081 91.6048C79.5428 90.7088 77.9961 89.5568 77.0681 88.1488C77.0148 88.2982 76.9348 88.5008 76.8281 88.7568C76.2201 89.9195 74.8815 90.8688 72.8121 91.6048L72.4761 91.1728C74.3428 90.5222 75.6015 89.6955 76.2521 88.6928C76.3908 88.4368 76.5028 88.1915 76.5881 87.9568H72.3961V87.4448H76.7481C76.8868 86.9328 76.9668 86.3782 76.9881 85.7808H73.6281V81.0288ZM80.3321 85.3008V83.6368H74.1401V85.3008H80.3321ZM74.1401 83.1728H80.3321V81.5088H74.1401V83.1728ZM72.5401 78.6448H75.1161V77.1088H75.6601V78.6448H78.6681V77.1088H79.2121V78.6448H81.8841V79.1568H79.2121V80.4848H78.6681V79.1568H75.6601V80.4848H75.1161V79.1568H72.5401V78.6448ZM70.5881 91.5728H70.0441V82.5008C69.5108 84.3462 68.7375 86.0208 67.7241 87.5248L67.4841 86.9648C68.7108 85.2368 69.5641 83.2422 70.0441 80.9808H67.8201V80.4528H70.0441V77.1088H70.5881V80.4528H72.3641V80.9808H70.5881V82.2288C71.2601 83.1462 71.9215 84.1488 72.5721 85.2368L72.2681 85.6848C71.6175 84.4582 71.0575 83.5035 70.5881 82.8208V91.5728ZM84.4121 78.0048H91.7401V78.5168H89.9321V81.4288H92.0761V81.9728H89.9321V85.6848H89.3881V81.9728H86.7641C86.6041 83.7222 85.9588 85.0288 84.8281 85.8928L84.4281 85.5248C85.5055 84.7355 86.1081 83.5515 86.2361 81.9728H83.9961V81.4288H86.2681V78.5168H84.4121V78.0048ZM86.7961 78.5168V81.4288H89.3881V78.5168H86.7961ZM93.4201 78.1968H93.9481V83.7168H93.4201V78.1968ZM84.7801 87.6048H90.6201V85.8608H91.1641V87.6048H96.8921V88.1168H91.1641V90.5968H97.7881V91.1248H83.8681V90.5968H90.6201V88.1168H84.7801V87.6048ZM93.6921 85.7488L93.5801 85.2208C94.3055 85.2528 94.9935 85.2688 95.6441 85.2688C96.0921 85.2688 96.3161 85.0715 96.3161 84.6768V77.3008H96.8441V84.8048C96.8441 85.4342 96.5081 85.7488 95.8361 85.7488H93.6921ZM109.34 78.2128H109.884V90.5808H109.34V78.2128ZM112.7 77.4128H113.244V91.6528H112.7V77.4128ZM106.14 77.4608H106.668V84.4368C106.636 87.7435 105.884 90.1648 104.412 91.7008L103.996 91.3488C105.393 89.9195 106.108 87.6155 106.14 84.4368V77.4608ZM101.132 77.3168C102.252 78.1595 103.217 79.0342 104.028 79.9408L103.66 80.3248C102.935 79.5035 101.964 78.6235 100.748 77.6848L101.132 77.3168ZM99.6441 82.1968H102.716V89.6848C103.281 89.2048 103.889 88.6128 104.54 87.9088L104.684 88.5008C103.895 89.3542 103.052 90.1168 102.156 90.7888L101.932 90.3088C102.103 90.1168 102.188 89.9462 102.188 89.7968V82.7408H99.6441V82.1968ZM120.62 89.3168C119.191 89.9355 117.527 90.4422 115.628 90.8368L115.548 90.3088C117.489 89.9248 119.18 89.4128 120.62 88.7728V89.3168ZM119.196 77.4768C118.289 79.7915 117.404 81.5515 116.54 82.7568C117.457 82.6395 118.343 82.4742 119.196 82.2608L120.14 80.4048L120.62 80.5968C119.052 83.6688 117.788 85.7488 116.828 86.8368C118.193 86.5808 119.495 86.2235 120.732 85.7648V86.2608C119.153 86.8262 117.639 87.2208 116.188 87.4448L116.028 86.9168C116.124 86.8742 116.215 86.8155 116.3 86.7408C117.057 85.9195 117.932 84.6022 118.924 82.7888C117.815 83.0342 116.839 83.2208 115.996 83.3488L115.852 82.8208C115.916 82.7888 115.996 82.7195 116.092 82.6128C117.095 81.1302 117.953 79.3435 118.668 77.2528L119.196 77.4768ZM123.324 86.9808C122.716 88.5488 122.012 89.8928 121.212 91.0128L120.716 90.7408C121.676 89.3862 122.385 88.0635 122.844 86.7728L123.324 86.9808ZM128.22 86.7248C128.924 87.9728 129.553 89.3328 130.108 90.8048L129.644 91.0288C129.068 89.4715 128.428 88.0902 127.724 86.8848L128.22 86.7248ZM123.372 91.4928L123.212 90.9808H124.796C125.287 90.9808 125.532 90.7355 125.532 90.2448V85.5408H121.948L121.82 85.0448C122.247 84.3088 122.668 83.4288 123.084 82.4048H121.052V81.8928H123.292C123.569 81.1248 123.825 80.3675 124.06 79.6208H120.46V79.0928H124.22C124.38 78.5275 124.561 77.8502 124.764 77.0608L125.308 77.1568L124.78 79.0928H129.676V79.6208H124.62C124.385 80.3675 124.129 81.1248 123.852 81.8928H126.06V85.0288H129.66V85.5408H126.06V90.4048C126.06 91.1302 125.692 91.4928 124.956 91.4928H123.372ZM123.644 82.4048C123.249 83.3862 122.849 84.2608 122.444 85.0288H125.532V82.4048H123.644ZM137.212 77.9728H146.028V78.5168H141.9V81.0448H145.228V88.7088C145.228 89.4342 144.903 89.7968 144.252 89.7968H143.164L143.02 89.2528L144.076 89.2688C144.481 89.2688 144.684 89.0448 144.684 88.5968V81.5728H141.9V91.4928H141.356V81.5728H138.572V89.9888H138.028V81.0448H141.356V78.5168H137.212V77.9728ZM132.508 79.2848H133.052V87.5408H132.508V79.2848ZM135.324 77.2528H135.868V84.7248C135.815 87.8715 134.705 90.1648 132.54 91.6048L132.124 91.2528C134.225 89.9088 135.292 87.7328 135.324 84.7248V77.2528ZM149.628 88.8368C150.14 88.8368 150.396 89.1835 150.396 89.8768C150.396 91.0288 149.943 91.8555 149.036 92.3568L148.764 91.9408C149.457 91.4608 149.82 90.8422 149.852 90.0848L149.644 90.1008C149.452 90.1008 149.292 90.0475 149.164 89.9408C149.047 89.8342 148.988 89.6795 148.988 89.4768C148.988 89.2635 149.041 89.1035 149.148 88.9968C149.265 88.8902 149.425 88.8368 149.628 88.8368ZM164.572 80.5648H167.708V76.9808H168.252V80.5648H173.404V77.0448H173.948V80.5648H177.1V81.1088H173.948V85.5728H177.884V86.1008H163.772V85.5728H167.708V81.1088H164.572V80.5648ZM168.252 85.5728H173.404V81.1088H168.252V85.5728ZM169.244 87.4928C167.879 89.0395 166.193 90.3835 164.188 91.5248L163.836 91.0608C165.809 89.9302 167.479 88.6182 168.844 87.1248L169.244 87.4928ZM172.924 87.1568C174.865 88.4582 176.487 89.7702 177.788 91.0928L177.372 91.4928C176.156 90.2448 174.54 88.9168 172.524 87.5088L172.924 87.1568ZM186.044 82.8368H181.932V90.3248C181.932 90.6448 182.119 90.8048 182.492 90.8048H185.996C186.647 90.8048 187.057 90.6555 187.228 90.3568C187.409 89.9622 187.532 89.2795 187.596 88.3088L188.124 88.4848C188.028 89.7862 187.831 90.6075 187.532 90.9488C187.276 91.2048 186.785 91.3328 186.06 91.3328H182.38C181.708 91.3328 181.372 91.0288 181.372 90.4208V82.3408H186.588V86.3408C186.567 87.1622 186.177 87.5782 185.42 87.5888C185.025 87.5888 184.444 87.5675 183.676 87.5248L183.516 87.0128C184.327 87.0555 184.924 87.0768 185.308 87.0768C185.799 87.0768 186.044 86.8048 186.044 86.2608V82.8368ZM184.364 77.3488C185.783 78.8848 187.132 80.4688 188.412 82.1008L188.044 82.4848C186.721 80.7675 185.436 79.2262 184.188 77.8608C182.865 79.7915 181.415 81.4768 179.836 82.9168L179.516 82.4848C181.116 81.0342 182.583 79.3222 183.916 77.3488H184.364ZM189.692 78.5168H190.236V88.6288H189.692V78.5168ZM189.644 91.4768L189.532 90.9488C190.46 90.9808 191.34 90.9968 192.172 90.9968C192.513 90.9968 192.684 90.7942 192.684 90.3888V77.1568H193.228V90.5168C193.228 91.1568 192.94 91.4768 192.364 91.4768H189.644ZM201.756 77.9088H208.78V84.2608H201.756V77.9088ZM208.252 83.7328V81.3648H202.284V83.7328H208.252ZM202.284 80.8368H208.252V78.4528H202.284V80.8368ZM204.94 85.0448H205.468V86.9648H209.244V87.4928H205.468V90.5328H209.996V91.0768H200.364V90.5328H204.94V87.4928H201.212V86.9648H204.94V85.0448ZM196.012 91.4768L195.9 90.9488C196.561 90.9702 197.025 90.9808 197.292 90.9808C197.751 90.9808 197.98 90.7835 197.98 90.3888V85.5568C197.127 85.8875 196.364 86.1488 195.692 86.3408L195.548 85.8128C196.369 85.5995 197.18 85.3328 197.98 85.0128V80.9168H195.788V80.3888H197.98V77.1568H198.524V80.3888H200.332V80.9168H198.524V84.7888C199.249 84.4582 199.863 84.1595 200.364 83.8928V84.4528C199.788 84.7515 199.175 85.0448 198.524 85.3328V90.5328C198.524 91.1622 198.177 91.4768 197.484 91.4768H196.012ZM212.636 77.3168C213.735 78.2128 214.652 79.1142 215.388 80.0208L215.004 80.4048C214.321 79.5408 213.409 78.6288 212.268 77.6688L212.636 77.3168ZM222.124 91.3168C221.591 91.3168 220.641 91.3062 219.276 91.2848C218.199 91.2528 217.377 91.1462 216.812 90.9648C216.183 90.7622 215.617 90.3515 215.116 89.7328C214.903 89.4555 214.695 89.3168 214.492 89.3168C213.991 89.3168 213.228 90.1008 212.204 91.6688L211.772 91.3008C212.764 89.7968 213.585 88.9648 214.236 88.8048V83.3808H211.772V82.8368H214.764V88.8208C214.956 88.8955 215.169 89.0662 215.404 89.3328C215.809 89.8342 216.268 90.1968 216.78 90.4208C217.324 90.6128 218.071 90.7248 219.02 90.7568C220.023 90.7782 221.031 90.7888 222.044 90.7888L226.14 90.7408L226.012 91.3168H222.124ZM218.028 79.7648C217.719 80.3728 217.367 80.9542 216.972 81.5088L216.508 81.2208C217.329 80.1435 217.943 78.8955 218.348 77.4768L218.876 77.5888C218.705 78.1648 218.503 78.7142 218.268 79.2368H221.02V77.1088H221.548V79.2368H225.068V79.7648H221.548V82.3248H225.868V82.8528H216.236V82.3248H221.02V79.7648H218.028ZM217.628 84.6128H224.604V88.8048H217.628V84.6128ZM224.076 88.2928V85.1408H218.156V88.2928H224.076ZM233.212 79.7488H236.396V77.1408H236.94V79.7488H240.348V84.5648H241.884V85.1088H236.988C238.044 87.6262 239.767 89.6208 242.156 91.0928L241.788 91.5088C239.345 89.9088 237.601 87.8448 236.556 85.3168C235.916 88.1435 234.444 90.1968 232.14 91.4768L231.804 91.0448C234.076 89.8502 235.5 87.8715 236.076 85.1088H232.332V84.5648H236.172C236.321 83.7008 236.396 82.8102 236.396 81.8928V80.2768H233.212V79.7488ZM236.94 80.2768V81.7648C236.94 82.7355 236.865 83.6688 236.716 84.5648H239.804V80.2768H236.94ZM228.764 80.1648C228.721 81.7542 228.503 83.2795 228.108 84.7408L227.628 84.5968C228.001 83.2315 228.22 81.7382 228.284 80.1168L228.764 80.1648ZM231.788 79.7808C232.257 80.8795 232.663 82.0742 233.004 83.3648L232.524 83.4928C232.204 82.2768 231.804 81.0875 231.324 79.9248L231.788 79.7808ZM230.06 77.1568H230.604V91.5568H230.06V77.1568ZM244.796 84.1488C245.297 82.0048 245.649 80.1168 245.852 78.4848C246.044 78.5062 246.193 78.5168 246.3 78.5168C250.215 78.5062 253.399 78.1115 255.852 77.3328L256.124 77.8128C253.607 78.5595 250.332 78.9488 246.3 78.9808C246.023 80.7835 245.729 82.3248 245.42 83.6048H250.684V80.2928H251.228V83.6048H257.308V84.1488H251.228V90.2128C251.228 91.1088 250.817 91.5568 249.996 91.5568H247.884L247.772 91.0288C248.711 91.0502 249.388 91.0608 249.804 91.0608C250.391 91.0608 250.684 90.7302 250.684 90.0688V84.1488H244.796ZM247.42 85.9408C246.535 87.8608 245.505 89.5088 244.332 90.8848L243.868 90.5648C245.041 89.2315 246.065 87.6102 246.94 85.7008L247.42 85.9408ZM254.316 85.6048C255.404 87.2155 256.391 88.9435 257.276 90.7888L256.796 91.0448C255.879 89.1142 254.887 87.3808 253.82 85.8448L254.316 85.6048ZM265.036 80.0688V90.6448H264.492V89.5888H260.94V91.0928H260.396V80.0688H261.804C262.156 79.1408 262.412 78.1542 262.572 77.1088L263.116 77.1888C262.935 78.2555 262.673 79.2155 262.332 80.0688H265.036ZM260.94 89.0768H264.492V84.9968H260.94V89.0768ZM260.94 84.4848H264.492V80.6128H260.94V84.4848ZM267.676 83.5728C268.999 84.9808 269.98 86.1702 270.62 87.1408L270.188 87.4608C269.505 86.4048 268.524 85.2048 267.244 83.8608L267.676 83.5728ZM273.34 80.1008C273.34 85.0502 273.265 88.1382 273.116 89.3648C272.967 90.7195 272.241 91.3968 270.94 91.3968L269.436 91.3808L269.292 90.8688L270.908 90.8848C271.879 90.8848 272.439 90.3515 272.588 89.2848C272.705 88.3248 272.78 85.4448 272.812 80.6448H267.756C267.308 81.7008 266.764 82.6662 266.124 83.5408L265.804 83.1088C266.999 81.4768 267.815 79.4715 268.252 77.0928L268.78 77.1568C268.599 78.1702 268.332 79.1515 267.98 80.1008H273.34ZM277.948 79.0128H275.724V78.5008H280.764V79.0128H278.508V83.1568H280.444V83.6848H278.508V88.0848C279.436 87.7542 280.247 87.4288 280.94 87.1088V87.6688C279.575 88.3088 277.857 88.9275 275.788 89.5248L275.644 88.9808C276.604 88.7142 277.372 88.4795 277.948 88.2768V83.6848H275.948V83.1568H277.948V79.0128ZM283.548 83.3648H281.116V82.8208H289.58V83.3648H287.052V89.9728C287.052 90.5595 287.308 90.8528 287.82 90.8528H288.54C288.796 90.8528 288.993 90.7942 289.132 90.6768C289.367 90.4742 289.516 89.6262 289.58 88.1328L290.108 88.2928C290.033 89.7542 289.879 90.6502 289.644 90.9808C289.441 91.2475 289.116 91.3808 288.668 91.3808H287.66C287.287 91.3808 286.993 91.2635 286.78 91.0288C286.588 90.7728 286.492 90.4635 286.492 90.1008V83.3648H284.076V84.5008C284.012 87.7222 282.631 90.0742 279.932 91.5568L279.516 91.1888C282.161 89.7915 283.505 87.5622 283.548 84.5008V83.3648ZM281.676 78.2288H289.068V78.7728H281.676V78.2288ZM303.308 77.8928V87.7168H305.868V88.2448H291.788V87.7168H294.348V77.8928H303.308ZM294.876 87.7168H302.78V85.7168H294.876V87.7168ZM294.876 85.2368H302.78V83.3168H294.876V85.2368ZM294.876 82.8208H302.78V80.8848H294.876V82.8208ZM294.876 80.4048H302.78V78.4208H294.876V80.4048ZM297.116 88.9968C295.911 90.0102 294.428 90.8848 292.668 91.6208L292.348 91.2048C294.065 90.4795 295.521 89.6208 296.716 88.6288L297.116 88.9968ZM300.796 88.6128C302.439 89.3062 303.932 90.1488 305.276 91.1408L304.972 91.5888C303.543 90.5115 302.055 89.6582 300.508 89.0288L300.796 88.6128ZM309.628 88.8368C310.14 88.8368 310.396 89.1835 310.396 89.8768C310.396 91.0288 309.943 91.8555 309.036 92.3568L308.764 91.9408C309.457 91.4608 309.82 90.8422 309.852 90.0848L309.644 90.1008C309.452 90.1008 309.292 90.0475 309.164 89.9408C309.047 89.8342 308.988 89.6795 308.988 89.4768C308.988 89.2635 309.041 89.1035 309.148 88.9968C309.265 88.8902 309.425 88.8368 309.628 88.8368ZM332.636 77.0768H333.212V82.5808H337.612V83.1248H333.212V90.5168H338.204V91.0608H328.94V90.5168H332.636V77.0768ZM325.132 77.2528C326.263 78.1382 327.228 79.0342 328.028 79.9408L327.66 80.3248C326.945 79.4928 325.975 78.5915 324.748 77.6208L325.132 77.2528ZM323.644 82.1968H326.716V89.8608C327.431 89.3275 328.177 88.6875 328.956 87.9408L329.1 88.5328C328.236 89.3755 327.239 90.1702 326.108 90.9168L325.884 90.4368C326.087 90.2555 326.188 90.0955 326.188 89.9568V82.7408H323.644V82.1968ZM340.124 77.8928H353.548V78.4208H347.116V80.2608H352.172V86.2128H346.972C346.78 87.4715 346.401 88.4635 345.836 89.1888C348.161 90.2768 350.929 90.8848 354.14 91.0128L353.996 91.5248C350.7 91.3968 347.863 90.7462 345.484 89.5728C344.439 90.5862 342.583 91.2528 339.916 91.5728L339.676 91.0768C342.236 90.7995 344.007 90.2182 344.988 89.3328C343.889 88.7355 342.908 88.0528 342.044 87.2848L342.476 86.9808C343.351 87.7595 344.305 88.4155 345.34 88.9488C345.873 88.2662 346.236 87.3542 346.428 86.2128H341.548V80.2608H346.572V78.4208H340.124V77.8928ZM351.644 85.7168V83.4608H347.116V84.3248C347.105 84.6982 347.079 85.1622 347.036 85.7168H351.644ZM346.492 85.7168C346.545 85.2155 346.572 84.7515 346.572 84.3248V83.4608H342.092V85.7168H346.492ZM342.092 82.9648H346.572V80.7728H342.092V82.9648ZM347.116 80.7728V82.9648H351.644V80.7728H347.116ZM363.516 77.3808C363.068 77.8822 362.593 78.3195 362.092 78.6928H367.244V79.1568C365.516 82.2288 362.311 83.9408 357.628 84.2928L357.372 83.7808C358.972 83.6742 360.417 83.4075 361.708 82.9808C361.143 82.2662 360.535 81.6208 359.884 81.0448L360.364 80.8048C361.025 81.4022 361.644 82.0635 362.22 82.7888C364.151 81.9995 365.612 80.8048 366.604 79.2048H361.356C360.129 79.9622 358.636 80.5328 356.876 80.9168L356.556 80.4368C359.436 79.8608 361.596 78.7568 363.036 77.1248L363.516 77.3808ZM361.852 87.0928C362.492 87.7435 363.137 88.5168 363.788 89.4128C365.868 88.5382 367.468 87.2155 368.588 85.4448H363.356C361.927 86.1595 360.199 86.6608 358.172 86.9488L357.852 86.4688C361.34 86.0848 363.937 84.9755 365.644 83.1408L366.108 83.4128C365.607 83.9462 365.004 84.4475 364.3 84.9168H369.276V85.3648C367.036 89.2048 362.839 91.1782 356.684 91.2848L356.46 90.7408C359.084 90.7088 361.361 90.3355 363.292 89.6208C362.684 88.7782 362.039 88.0155 361.356 87.3328L361.852 87.0928ZM379.148 77.1408C379.148 78.3462 379.111 79.5195 379.036 80.6608C379.932 85.1835 382.295 88.6235 386.124 90.9808L385.772 91.4448C382.124 89.0875 379.82 85.9195 378.86 81.9408C378.06 85.8022 375.719 88.9702 371.836 91.4448L371.5 90.9648C376.044 88.1168 378.396 84.3782 378.556 79.7488L378.588 77.1408H379.148ZM389.516 77.5568C390.476 78.5702 391.207 79.4502 391.708 80.1968L391.26 80.5008C390.652 79.6155 389.927 78.7355 389.084 77.8608L389.516 77.5568ZM394.94 84.3408C396.135 85.6315 397.084 86.7942 397.788 87.8288L397.324 88.1648C396.641 87.0875 395.697 85.9035 394.492 84.6128L394.94 84.3408ZM393.708 77.1088H394.236V78.4368C394.236 79.3648 394.193 80.2982 394.108 81.2368H400.796C400.796 85.6102 400.599 88.4208 400.204 89.6688C399.788 90.8742 399.057 91.4768 398.012 91.4768C397.457 91.4768 396.849 91.4662 396.188 91.4448L396.044 90.9008C396.748 90.9328 397.393 90.9488 397.98 90.9488C399.143 90.8742 399.815 89.8875 399.996 87.9888C400.167 85.9622 400.252 83.8928 400.252 81.7808H394.044C393.82 83.8075 393.388 85.5142 392.748 86.9008C391.809 88.8528 390.241 90.4048 388.044 91.5568L387.74 91.0768C389.873 89.9888 391.425 88.4315 392.396 86.4048C392.94 85.0928 393.308 83.5515 393.5 81.7808H388.3V81.2368H393.564C393.649 80.3515 393.697 79.4182 393.708 78.4368V77.1088ZM405.788 81.8928C405.137 82.9382 404.417 83.8928 403.628 84.7568L403.452 84.1968C405.287 82.0635 406.593 79.6848 407.372 77.0608L407.868 77.3008C407.452 78.5808 406.945 79.7862 406.348 80.9168V91.6368H405.788V81.8928ZM415.324 83.4608C416.252 85.4875 417.041 87.5728 417.692 89.7168L417.196 89.9248C416.481 87.5888 415.687 85.4928 414.812 83.6368L415.324 83.4608ZM410.076 79.8128C409.553 81.0822 408.908 82.2875 408.14 83.4288L407.676 83.1408C408.924 81.3595 409.852 79.3062 410.46 76.9808L411.004 77.0928C410.791 77.8395 410.551 78.5648 410.284 79.2688H417.292V79.6368C417.047 80.6182 416.689 81.6208 416.22 82.6448L415.692 82.4848C416.14 81.6208 416.487 80.7302 416.732 79.8128H410.076ZM410.172 91.5088L410.06 90.9808C410.785 91.0128 411.479 91.0288 412.14 91.0288C412.567 91.0288 412.78 90.8155 412.78 90.3888V81.4608H413.308V90.5328C413.308 91.1835 412.983 91.5088 412.332 91.5088H410.172ZM410.684 83.6848C410.076 85.9462 409.287 87.9355 408.316 89.6528L407.788 89.4608C408.705 87.9355 409.505 85.9622 410.188 83.5408L410.684 83.6848ZM425.036 80.0688V90.6448H424.492V89.5888H420.94V91.0928H420.396V80.0688H421.804C422.156 79.1408 422.412 78.1542 422.572 77.1088L423.116 77.1888C422.935 78.2555 422.673 79.2155 422.332 80.0688H425.036ZM420.94 89.0768H424.492V84.9968H420.94V89.0768ZM420.94 84.4848H424.492V80.6128H420.94V84.4848ZM427.676 83.5728C428.999 84.9808 429.98 86.1702 430.62 87.1408L430.188 87.4608C429.505 86.4048 428.524 85.2048 427.244 83.8608L427.676 83.5728ZM433.34 80.1008C433.34 85.0502 433.265 88.1382 433.116 89.3648C432.967 90.7195 432.241 91.3968 430.94 91.3968L429.436 91.3808L429.292 90.8688L430.908 90.8848C431.879 90.8848 432.439 90.3515 432.588 89.2848C432.705 88.3248 432.78 85.4448 432.812 80.6448H427.756C427.308 81.7008 426.764 82.6662 426.124 83.5408L425.804 83.1088C426.999 81.4768 427.815 79.4715 428.252 77.0928L428.78 77.1568C428.599 78.1702 428.332 79.1515 427.98 80.1008H433.34ZM441.628 81.0288H448.86V85.7808H445.484C445.463 86.3995 445.399 86.9542 445.292 87.4448H450.012V87.9568H445.516C446.465 89.3115 447.98 90.3888 450.06 91.1888L449.708 91.6048C447.543 90.7088 445.996 89.5568 445.068 88.1488C445.015 88.2982 444.935 88.5008 444.828 88.7568C444.22 89.9195 442.881 90.8688 440.812 91.6048L440.476 91.1728C442.343 90.5222 443.601 89.6955 444.252 88.6928C444.391 88.4368 444.503 88.1915 444.588 87.9568H440.396V87.4448H444.748C444.887 86.9328 444.967 86.3782 444.988 85.7808H441.628V81.0288ZM448.332 85.3008V83.6368H442.14V85.3008H448.332ZM442.14 83.1728H448.332V81.5088H442.14V83.1728ZM440.54 78.6448H443.116V77.1088H443.66V78.6448H446.668V77.1088H447.212V78.6448H449.884V79.1568H447.212V80.4848H446.668V79.1568H443.66V80.4848H443.116V79.1568H440.54V78.6448ZM438.588 91.5728H438.044V82.5008C437.511 84.3462 436.737 86.0208 435.724 87.5248L435.484 86.9648C436.711 85.2368 437.564 83.2422 438.044 80.9808H435.82V80.4528H438.044V77.1088H438.588V80.4528H440.364V80.9808H438.588V82.2288C439.26 83.1462 439.921 84.1488 440.572 85.2368L440.268 85.6848C439.617 84.4582 439.057 83.5035 438.588 82.8208V91.5728ZM452.412 78.0048H459.74V78.5168H457.932V81.4288H460.076V81.9728H457.932V85.6848H457.388V81.9728H454.764C454.604 83.7222 453.959 85.0288 452.828 85.8928L452.428 85.5248C453.505 84.7355 454.108 83.5515 454.236 81.9728H451.996V81.4288H454.268V78.5168H452.412V78.0048ZM454.796 78.5168V81.4288H457.388V78.5168H454.796ZM461.42 78.1968H461.948V83.7168H461.42V78.1968ZM452.78 87.6048H458.62V85.8608H459.164V87.6048H464.892V88.1168H459.164V90.5968H465.788V91.1248H451.868V90.5968H458.62V88.1168H452.78V87.6048ZM461.692 85.7488L461.58 85.2208C462.305 85.2528 462.993 85.2688 463.644 85.2688C464.092 85.2688 464.316 85.0715 464.316 84.6768V77.3008H464.844V84.8048C464.844 85.4342 464.508 85.7488 463.836 85.7488H461.692ZM467.692 81.5728H469.66V77.1728H470.188V81.5728H472.028V82.1168H470.188V88.1808C470.903 87.9035 471.612 87.5835 472.316 87.2208V87.7648C470.951 88.4688 469.452 89.0448 467.82 89.4928L467.676 88.9808C468.455 88.7782 469.116 88.5808 469.66 88.3888V82.1168H467.692V81.5728ZM475.036 77.1568C475.281 77.6902 475.548 78.4048 475.836 79.3008H478.508C478.849 78.5648 479.089 77.7968 479.228 76.9968L479.772 77.0768C479.612 77.8875 479.372 78.6288 479.052 79.3008H481.388V84.2448H472.956V79.3008H475.324C475.057 78.4902 474.78 77.8075 474.492 77.2528L475.036 77.1568ZM480.876 83.7488V79.8128H477.372V83.7488H480.876ZM476.908 83.7488V79.8128H473.452V83.7488H476.908ZM475.02 80.7088C475.34 81.3275 475.628 82.0315 475.884 82.8208L475.468 82.9488C475.233 82.2448 474.945 81.5462 474.604 80.8528L475.02 80.7088ZM479.676 80.7408C479.452 81.5835 479.164 82.3355 478.812 82.9968L478.396 82.8368C478.695 82.3035 478.977 81.5675 479.244 80.6288L479.676 80.7408ZM480.812 85.6208V91.6368H480.284V90.8208H474.14V91.6368H473.612V85.6208H480.812ZM474.14 90.3248H480.284V88.4688H474.14V90.3248ZM474.14 87.9888H480.284V86.1168H474.14V87.9888ZM497.084 79.4608V91.3808H496.54V90.2128H493.02V91.3808H492.476V79.4608H497.084ZM493.02 89.6688H496.54V80.0048H493.02V89.6688ZM486.588 77.1568H487.132V80.0848H490.556C490.556 84.9915 490.476 88.0368 490.316 89.2208C490.156 90.7035 489.361 91.4448 487.932 91.4448L486.764 91.4128L486.62 90.9168L487.9 90.9328C488.999 90.9328 489.628 90.3355 489.788 89.1408C489.905 88.1808 489.98 85.3435 490.012 80.6288H487.132V80.7088C487.089 85.7008 486.033 89.3488 483.964 91.6528L483.532 91.2688C485.537 89.0715 486.556 85.5515 486.588 80.7088V80.6288H483.788V80.0848H486.588V77.1568ZM501.804 80.4528H511.244V78.3728H501.388V77.8608H511.788V83.5088H500.972V82.9968H511.244V80.9488H501.804V80.4528ZM503.74 85.3648C503.185 86.5595 502.529 87.5995 501.772 88.4848L501.34 88.1648C502.087 87.3008 502.721 86.2875 503.244 85.1248L503.74 85.3648ZM512.204 85.1728C511.671 86.2502 511.025 87.2102 510.268 88.0528L509.82 87.7328C510.535 86.9862 511.164 86.0528 511.708 84.9328L512.204 85.1728ZM507.228 84.3568C507.228 85.0075 507.175 85.6528 507.068 86.2928C507.9 88.6182 510.22 90.1808 514.028 90.9808L513.804 91.4928C510.071 90.6608 507.756 89.1728 506.86 87.0288C506.081 89.1622 503.932 90.6768 500.412 91.5728L500.172 91.0608C503.649 90.2288 505.724 88.7835 506.396 86.7248C506.577 86.1488 506.673 85.3595 506.684 84.3568H507.228ZM518.7 81.0288H523.916V81.5248H518.7V81.0288ZM519.308 82.8688H523.436V85.8608H519.308V82.8688ZM522.908 85.3808V83.3648H519.852V85.3808H522.908ZM529.34 78.7728V79.3008H525.18C525.265 80.7088 525.431 81.8235 525.676 82.6448C525.825 83.2422 526.028 83.8022 526.284 84.3248C527.041 83.2688 527.655 81.9995 528.124 80.5168L528.588 80.7568C528.055 82.3995 527.377 83.7595 526.556 84.8368C526.705 85.0608 526.849 85.2688 526.988 85.4608C527.511 86.0155 527.985 86.2928 528.412 86.2928C528.753 86.2928 529.1 85.5515 529.452 84.0688L529.916 84.3248C529.479 85.9782 528.993 86.8048 528.46 86.8048C527.831 86.8048 527.212 86.4848 526.604 85.8448C526.465 85.6742 526.332 85.4822 526.204 85.2688C525.596 85.9408 524.967 86.4635 524.316 86.8368L524.012 86.3888C524.737 85.9835 525.372 85.4502 525.916 84.7888C525.617 84.2128 525.361 83.5728 525.148 82.8688C524.881 81.8982 524.711 80.7088 524.636 79.3008H517.692V81.4928C517.649 83.6368 517.143 85.3702 516.172 86.6928L515.756 86.3088C516.631 85.1568 517.095 83.5515 517.148 81.4928V78.7728H524.604C524.583 78.4102 524.572 77.8342 524.572 77.0448H525.116C525.116 77.8342 525.127 78.4102 525.148 78.7728H527.644C527.399 78.2075 527.1 77.7115 526.748 77.2848L527.276 77.1888C527.564 77.6262 527.857 78.1542 528.156 78.7728H529.34ZM518.172 87.1088C517.724 88.6235 517.089 89.9462 516.268 91.0768L515.788 90.7728C516.62 89.6742 517.244 88.4155 517.66 86.9968L518.172 87.1088ZM521.468 91.3808C520.476 91.3808 519.98 90.8848 519.98 89.8928V86.9488H520.54V89.7808C520.54 90.4848 520.903 90.8368 521.628 90.8368H524.428C524.993 90.8368 525.388 90.7568 525.612 90.5968C525.911 90.3728 526.113 89.7435 526.22 88.7088L526.732 88.8688C526.636 90.0315 526.396 90.7568 526.012 91.0448C525.724 91.2688 525.228 91.3808 524.524 91.3808H521.468ZM527.532 87.4448C528.62 88.5755 529.436 89.5568 529.98 90.3888L529.548 90.7088C528.929 89.7915 528.108 88.7995 527.084 87.7328L527.532 87.4448ZM522.588 86.9168C523.409 87.7702 524.028 88.5062 524.444 89.1248L524.028 89.4128C523.569 88.7195 522.945 87.9728 522.156 87.1728L522.588 86.9168Z"
    fill="white" />
</svg>