<svg width="235" height="32" viewBox="0 0 235 32" fill="none" xmlns="http://www.w3.org/2000/svg">
  <path
    d="M15.68 8.096V6.24L11.936 6.56V3.424L15.68 3.104V0.959999L19.296 0.639999V2.784L23.008 2.464V0.319998L26.72 -1.90735e-06V2.144L30.304 1.824V4.96L26.72 5.28V7.136L23.008 7.456V5.6L19.296 5.92V7.776L15.68 8.096ZM4.864 31.712V20.896C4.13867 22.9867 3.34933 24.7573 2.496 26.208C2.02667 24.9707 1.41867 23.744 0.672 22.528C1.568 21.248 2.37867 19.68 3.104 17.824C3.82933 15.9467 4.416 14.0587 4.864 12.16V11.328L1.408 11.648V8.128L4.864 7.808V1.856L8.48 1.568V7.52L11.36 7.264V10.784L8.48 11.04V12.16C8.82133 12.5653 9.25867 13.1413 9.792 13.888C10.3253 14.6347 10.8373 15.3707 11.328 16.096C11.8187 16.8 12.1707 17.312 12.384 17.632L10.112 20.48C9.728 19.52 9.184 18.368 8.48 17.024V31.424L4.864 31.712ZM16.352 16.448L25.152 15.68V14.272L16.352 15.04V16.448ZM16.352 12.576L25.152 11.808V10.432L16.352 11.2V12.576ZM12.096 31.136C11.9253 30.6667 11.648 30.1547 11.264 29.6C10.9013 29.0667 10.5387 28.6187 10.176 28.256C14.016 27.1253 16.448 25.696 17.472 23.968L11.36 24.512V21.376L18.688 20.736C18.7947 20.1387 18.88 19.52 18.944 18.88L12.832 19.424V8.896L28.832 7.488V18.016L22.688 18.56C22.624 19.1787 22.5387 19.7867 22.432 20.384L30.432 19.712V22.848L24.832 23.328C26.2827 24.928 28.4267 25.8987 31.264 26.24C30.8587 26.6667 30.432 27.2 29.984 27.84C29.5573 28.48 29.2053 29.0667 28.928 29.6C25.408 28.896 22.8693 27.1253 21.312 24.288C20.672 25.7387 19.6267 27.0187 18.176 28.128C16.7253 29.2587 14.6987 30.2613 12.096 31.136ZM54.432 18.144C54.24 17.0987 53.8667 16.0107 53.312 14.88C55.7227 14.7733 57.0347 14.6347 57.248 14.464C57.3333 14.3787 57.376 14.2293 57.376 14.016V0.415998L60.992 0.0959988V13.76C60.992 14.656 60.8853 15.36 60.672 15.872C60.1387 17.1733 58.0587 17.9307 54.432 18.144ZM51.552 13.216V2.4L55.04 2.112V12.928L51.552 13.216ZM40.96 9.312L43.648 9.088V5.728L40.96 5.952V9.312ZM33.536 31.04V27.52L46.048 26.4V23.84L36.768 24.672V21.216L46.048 20.384V18.368L43.648 18.592V12.448L40.704 12.704C40.1707 15.8187 38.496 18.304 35.68 20.16C35.4027 19.7973 35.008 19.3707 34.496 18.88C33.984 18.368 33.5467 17.984 33.184 17.728C35.2747 16.4267 36.576 14.8587 37.088 13.024L33.856 13.312V9.952L37.472 9.632V6.272L34.944 6.496V3.168L49.472 1.888V5.216L47.2 5.408V8.768L50.208 8.512V11.872L47.2 12.128V17.728L49.952 17.504V20.064L59.2 19.232V22.688L49.952 23.52V26.08L62.368 24.992V28.512L33.536 31.04ZM72.128 9.632C70.912 8.30933 69.0027 6.74133 66.4 4.928L68.736 2.208L69.024 2.4C71.7973 4.21333 73.6747 5.58933 74.656 6.528L72.128 9.632ZM69.184 31.552C68.992 31.1467 68.6933 30.6987 68.288 30.208C67.904 29.7173 67.552 29.3333 67.232 29.056C67.616 28.736 67.968 28.2667 68.288 27.648C68.6293 27.0293 68.8 26.2933 68.8 25.44V15.36L65.088 15.68V12.032L72.448 11.392V23.328L74.752 21.12C75.0933 22.144 75.5307 23.104 76.064 24C76.5547 22.272 76.864 20.5013 76.992 18.688C77.12 16.8747 77.184 15.0613 77.184 13.248V2.176L80.992 1.824V12.896C80.992 14.944 80.9173 17.0133 80.768 19.104C80.6187 21.1733 80.2987 23.2107 79.808 25.216C79.3173 27.2213 78.56 29.1307 77.536 30.944C77.0667 30.624 76.4693 30.2933 75.744 29.952C75.0187 29.6107 74.368 29.3547 73.792 29.184C74.7307 27.6907 75.4347 26.144 75.904 24.544C74.176 26.208 72.8533 27.4987 71.936 28.416C71.04 29.3333 70.3893 30.016 69.984 30.464C69.6 30.912 69.3333 31.2747 69.184 31.552ZM83.744 26.176V3.232L87.264 2.912V25.856L83.744 26.176ZM90.112 29.504V0.799999L93.92 0.48V29.184L90.112 29.504ZM98.272 23.776L98.24 23.616C97.8773 22.4427 97.5147 21.44 97.152 20.608C97.856 20.3307 98.6027 19.584 99.392 18.368C99.8613 17.7707 100.565 16.6613 101.504 15.04C99.4987 15.4667 98.3467 15.7867 98.048 16V15.872C98.0267 15.8933 98.016 15.936 98.016 16C97.8027 15.2533 97.3973 14.1547 96.8 12.704C97.4187 12.4267 97.9733 11.7227 98.464 10.592C98.8053 9.99467 99.3067 8.82133 99.968 7.072C100.651 5.32266 101.216 3.456 101.664 1.472L105.184 2.784C104.139 6.048 102.784 9.14133 101.12 12.064L103.264 11.712C103.84 10.6027 104.341 9.48267 104.768 8.352L107.84 9.856C106.432 12.9067 104.789 15.808 102.912 18.56L107.296 17.376C107.232 17.952 107.2 18.6987 107.2 19.616C107.2 19.9573 107.211 20.2667 107.232 20.544C104.971 21.248 103.232 21.8027 102.016 22.208C100.821 22.592 99.9573 22.9013 99.424 23.136C98.8907 23.3707 98.5173 23.5627 98.304 23.712L98.272 23.776ZM98.048 30.496L97.152 26.848C99.6693 25.7813 102.827 24.384 106.624 22.656L107.232 25.408C106.037 26.0907 102.976 27.7867 98.048 30.496ZM108.864 29.696C108.16 29.056 107.285 28.4373 106.24 27.84C107.136 26.8373 107.968 25.6853 108.736 24.384C109.525 23.0827 110.133 21.856 110.56 20.704L114.016 21.376C112.629 24.4693 110.912 27.2427 108.864 29.696ZM112.704 15.84L115.776 15.584V13.024L113.696 13.184L112.704 15.84ZM113.056 30.56C112.928 29.5573 112.576 28.448 112 27.232C112.533 27.2107 113.056 27.1787 113.568 27.136C114.571 27.0507 115.115 26.9973 115.2 26.976H115.264C115.605 26.976 115.776 26.784 115.776 26.4V19.008L112.32 19.296C110.635 19.4453 109.632 19.7013 109.312 20.064C109.12 19.232 108.736 18.1867 108.16 16.928C108.843 16.6293 109.472 15.6373 110.048 13.952L110.24 13.504L108.352 13.664V10.208L111.328 9.952C111.563 9.22667 111.776 8.45867 111.968 7.648L107.872 8V4.512L112.832 4.096C113.088 2.92267 113.301 1.76 113.472 0.607998L117.184 0.768C116.992 1.77067 116.768 2.77333 116.512 3.776L125.856 2.944V6.432L115.552 7.328C115.339 8.11733 115.115 8.88533 114.88 9.632L119.456 9.248V15.264L125.408 14.72V18.144L119.456 18.688V26.144C119.456 27.936 118.965 29.0667 117.984 29.536C116.896 30.0907 115.253 30.432 113.056 30.56ZM123.84 28.096C123.243 26.5813 122.133 24.3093 120.512 21.28L123.488 19.648L123.744 20.064C125.365 22.9013 126.464 24.9387 127.04 26.176L123.84 28.096ZM130.4 21.312V5.76L133.792 5.472V21.024L130.4 21.312ZM133.6 31.584C133.259 31.2213 132.811 30.816 132.256 30.368C131.701 29.9413 131.189 29.6 130.72 29.344C132.192 27.936 133.28 26.432 133.984 24.832C134.688 23.2107 135.147 21.5253 135.36 19.776C135.573 18.0053 135.68 16.2027 135.68 14.368V1.728L139.168 1.408V14.08C139.168 16.2133 139.051 18.3147 138.816 20.384C138.581 22.4533 138.059 24.4373 137.248 26.336C136.437 28.2347 135.221 29.984 133.6 31.584ZM147.456 30.432V11.808L144.544 12.064V26.112L141.12 26.4V8.928L147.456 8.384V5.536L140.256 6.144V2.688L158.496 1.088V4.544L151.008 5.216V8.064L157.728 7.456V21.28C157.728 22.048 157.643 22.6773 157.472 23.168C157.024 24.4693 155.445 25.184 152.736 25.312C152.587 24.1813 152.256 23.1253 151.744 22.144C153.237 22.0587 154.016 21.9733 154.08 21.888C154.165 21.8027 154.208 21.6747 154.208 21.504V11.2L151.008 11.488V30.112L147.456 30.432ZM168.928 8.864L175.392 8.32V6.976L168.928 7.52V8.864ZM168.928 12.608L175.392 12.064V10.784L168.928 11.328V12.608ZM168.928 16.48L175.392 15.936V14.528L168.928 15.072V16.48ZM165.152 20.576V11.424C164.576 11.9787 164 12.512 163.424 13.024C163.104 12.64 162.688 12.224 162.176 11.776C161.664 11.328 161.184 10.9973 160.736 10.784C162.507 9.33333 164.032 7.79733 165.312 6.176C166.592 4.55467 167.595 3.008 168.32 1.536L172.192 1.92C171.723 2.77333 171.211 3.62667 170.656 4.48L175.84 4C175.541 3.21066 175.211 2.47466 174.848 1.792L178.272 0.543999C178.891 1.54667 179.403 2.592 179.808 3.68L188.8 2.88V5.792L179.04 6.656V8L187.36 7.264V9.728L179.04 10.464V11.744L187.392 11.008V13.472L179.04 14.208V15.616L189.568 14.688V17.568L168.928 19.36V20.224L165.152 20.576ZM163.008 31.712C162.283 30.6027 161.461 29.6213 160.544 28.768C164.213 27.6373 167.627 26.1013 170.784 24.16L161.6 24.96V21.92L174.048 20.832V19.2L177.824 18.88V20.512L190.368 19.424V22.464L181.312 23.232C184.341 24.6187 187.627 25.5573 191.168 26.048C190.741 26.4747 190.304 26.9973 189.856 27.616C189.408 28.2347 189.056 28.7893 188.8 29.28C184.853 28.4907 181.195 27.0613 177.824 24.992V30.56L174.048 30.88V25.472C170.656 28.1387 166.976 30.2187 163.008 31.712ZM193.504 30.784L192.896 26.912C196.352 26.1013 200.459 25.0347 205.216 23.712L205.504 27.232L193.504 30.784ZM194.176 23.744C194.091 23.3173 193.92 22.752 193.664 22.048C193.408 21.3227 193.163 20.704 192.928 20.192C193.717 19.9147 194.581 19.1893 195.52 18.016C196.096 17.44 196.96 16.3413 198.112 14.72C195.808 15.168 194.411 15.5413 193.92 15.84C193.643 14.752 193.205 13.5573 192.608 12.256C193.269 12 193.92 11.3387 194.56 10.272C194.965 9.696 195.573 8.59733 196.384 6.976C197.216 5.33333 197.952 3.56267 198.592 1.664L202.528 2.944C201.184 5.97333 199.584 8.84267 197.728 11.552L200.448 11.136C201.131 9.96267 201.771 8.768 202.368 7.552L205.728 9.472C203.893 12.6507 201.813 15.6267 199.488 18.4L204.992 17.088V17.504C204.992 18.3787 205.067 19.328 205.216 20.352C202.357 21.0987 200.181 21.6853 198.688 22.112C197.216 22.5387 196.16 22.8693 195.52 23.104C194.901 23.3387 194.453 23.552 194.176 23.744ZM210.496 25.76L217.28 25.184V20.544L210.496 21.12V25.76ZM206.752 30.88V18.016L221.184 16.768V29.504L217.28 29.856V28.608L210.496 29.184V30.56L206.752 30.88ZM206.016 15.744V12.128L211.872 11.616V8.096L205.184 8.704V5.056L211.872 4.448V0.511999L215.872 0.159998V4.096L222.528 3.52V7.168L215.872 7.744V11.264L221.76 10.752V14.368L206.016 15.744ZM230.368 20.608L229.504 9.76L229.344 4.992L234.656 4.544L234.496 9.312L233.632 20.32L230.368 20.608ZM232 28.992H231.712C231.008 28.992 230.411 28.768 229.92 28.32C229.429 27.8933 229.184 27.264 229.184 26.432C229.184 25.5787 229.451 24.864 229.984 24.288C230.603 23.648 231.371 23.328 232.288 23.328C232.971 23.328 233.557 23.552 234.048 24C234.56 24.4267 234.816 25.0667 234.816 25.92C234.816 26.752 234.549 27.4453 234.016 28C233.483 28.576 232.811 28.9067 232 28.992Z"
    fill="white" />
</svg>